<?xml version="1.0" standalone="no"?>
<!DOCTYPE svg PUBLIC "-//W3C//DTD SVG 1.1//EN" "http://www.w3.org/Graphics/SVG/1.1/DTD/svg11.dtd" >
<svg xmlns="http://www.w3.org/2000/svg" xmlns:xlink="http://www.w3.org/1999/xlink" version="1.1">
<metadata>
Created by FontForge 20170731 at Mon Jan 25 19:13:55 2021
 By Aleksey,,,
Copyright (c) 2021 by Fontastica. All rights reserved.
</metadata>
<defs>
<font id="LuxoraGrotesk-BookItalic" horiz-adv-x="0" >
  <font-face 
    font-family="Luxora Grotesk Book"
    font-weight="400"
    font-style="italic"
    font-stretch="normal"
    units-per-em="2048"
    panose-1="0 0 5 0 0 0 0 0 0 0"
    ascent="1638"
    descent="-410"
    x-height="1053"
    cap-height="1490"
    bbox="-1509 -467 3846 2082"
    underline-thickness="50"
    underline-position="-150"
    slope="-9"
    unicode-range="U+000D-F8FF"
  />
<missing-glyph horiz-adv-x="1288" 
d="M1239 1490l-236 -1490h-1093l236 1490h1093zM970 1343h-598l222 -466zM1050 1216l-385 -471l236 -467zM480 745l-232 464l-146 -923zM780 149l-228 465l-377 -466z" />
    <glyph glyph-name=".notdef" horiz-adv-x="1288" 
d="M1239 1490l-236 -1490h-1093l236 1490h1093zM970 1343h-598l222 -466zM1050 1216l-385 -471l236 -467zM480 745l-232 464l-146 -923zM780 149l-228 465l-377 -466z" />
    <glyph glyph-name=".null" 
 />
    <glyph glyph-name="nonmarkingreturn" horiz-adv-x="682" 
 />
    <glyph glyph-name="CR" unicode="&#xd;" horiz-adv-x="333" 
 />
    <glyph glyph-name="space" unicode=" " horiz-adv-x="486" 
 />
    <glyph glyph-name="exclam" unicode="!" horiz-adv-x="586" 
d="M384 1478l-178 -1062h-166l158 1062h186zM189 244l-39 -244h-186l39 244h186z" />
    <glyph glyph-name="quotedbl" unicode="&#x22;" horiz-adv-x="936" 
d="M394 1478l-86 -545h-186l86 545h186zM724 1478l-86 -545h-186l86 545h186z" />
    <glyph glyph-name="numbersign" unicode="#" horiz-adv-x="1534" 
d="M299 379l-169 -379h-187l169 379h-228l26 166h276l174 388h-229l26 166h276l169 379h187l-169 -379h377l169 379h187l-169 -379h228l-26 -166h-276l-174 -388h229l-26 -166h-276l-169 -379h-187l169 379h-377zM923 933h-377l-173 -388h377z" />
    <glyph glyph-name="dollar" unicode="$" horiz-adv-x="1263" 
d="M481 -22l-28 -172h-166l29 181q-164 30 -269.5 140t-130.5 262l178 72q22 -123 86 -201t163 -104l81 516l-60 19q-164 50 -238.5 157t-52.5 246q26 166 160 277.5t322 126.5l32 198h166l-33 -203q153 -28 252.5 -127t123.5 -233l-179 -77q-19 110 -76 177.5t-147 90.5
l-82 -514l75 -24q175 -55 250 -153t51 -247q-27 -171 -166.5 -282.5t-340.5 -125.5zM448 859l6 -1l75 474q-110 -13 -181.5 -73.5t-86.5 -152.5q-14 -86 34.5 -150.5t152.5 -96.5zM616 613l-33 10l-76 -477q118 11 198.5 72.5t95.5 154.5q15 91 -30.5 148.5t-154.5 91.5z
" />
    <glyph glyph-name="percent" unicode="%" horiz-adv-x="2051" 
d="M447 783q-149 0 -237 105t-65 254t145 254.5t271 105.5q148 0 235.5 -105.5t64.5 -254.5q-23 -148 -144.5 -253.5t-269.5 -105.5zM1457 1478l-905 -1478h-200l905 1478h200zM474 951q77 0 143 57t78 134t-36 134.5t-125 57.5q-78 0 -143.5 -57.5t-77.5 -134.5t35.5 -134
t125.5 -57zM1252 -23q-148 0 -236 104t-64 253q23 149 144.5 254t269.5 105q149 0 237 -105t65 -254q-24 -149 -145.5 -253t-270.5 -104zM1279 143q78 0 143.5 56.5t77.5 134.5t-35.5 134.5t-125.5 56.5q-77 0 -143 -57t-78 -134t36 -134t125 -57z" />
    <glyph glyph-name="ampersand" unicode="&#x26;" horiz-adv-x="1779" 
d="M398 -23q-194 0 -303.5 111t-82.5 281q21 132 116.5 234.5t273.5 184.5l52 24l-8 9q-129 161 -102 325q23 151 150.5 253.5t291.5 102.5q158 0 247 -97t66 -245q-18 -114 -102.5 -201.5t-251.5 -165.5l-39 -18l261 -321l294 241h212l-416 -352l279 -343h-232l-182 227
q-164 -138 -281.5 -194t-242.5 -56zM605 900l10 -13l49 22q135 63 196 119t73 132q14 87 -33 141t-137 54q-94 0 -166.5 -59.5t-86.5 -149.5q-18 -109 95 -246zM425 143q93 0 187.5 48.5t211.5 145.5l6 5l-287 356l-77 -35q-239 -111 -268 -294q-16 -104 45 -165t182 -61z
" />
    <glyph glyph-name="quotesingle" unicode="'" horiz-adv-x="606" 
d="M394 1478l-86 -545h-186l86 545h186z" />
    <glyph glyph-name="parenleft" unicode="(" horiz-adv-x="796" 
d="M426 -272h-162q-130 179 -177 402.5t-7 473.5t157.5 473t303.5 401h163q-179 -203 -291 -426.5t-147 -447.5q-73 -454 160 -876z" />
    <glyph glyph-name="parenright" unicode=")" horiz-adv-x="796" 
d="M-27 -272h-162q179 206 291 429.5t148 446.5q35 224 -6 447.5t-156 426.5h162q131 -178 178.5 -400.5t7.5 -473.5t-158 -474t-305 -402z" />
    <glyph glyph-name="asterisk" unicode="*" horiz-adv-x="1021" 
d="M557 739l-132 217l-200 -217l-121 99l198 217l-228 82l78 161l230 -80l41 260h170l-41 -260l257 80l26 -161l-254 -82l129 -217z" />
    <glyph glyph-name="plus" unicode="+" horiz-adv-x="1226" 
d="M569 653l-53 -336h-176l53 336h-336l28 176h336l53 334h176l-53 -334h334l-28 -176h-334z" />
    <glyph glyph-name="comma" unicode="," horiz-adv-x="679" 
d="M272 244l-219 -477h-136l157 477h198z" />
    <glyph glyph-name="hyphen" unicode="-" horiz-adv-x="1090" 
d="M762 621l-26 -166h-710l26 166h710z" />
    <glyph glyph-name="period" unicode="." horiz-adv-x="606" 
d="M199 244l-39 -244h-186l39 244h186z" />
    <glyph glyph-name="slash" unicode="/" horiz-adv-x="951" 
d="M909 1478l-905 -1478h-200l905 1478h200z" />
    <glyph glyph-name="zero" unicode="0" horiz-adv-x="1453" 
d="M488 -23q-174 0 -292.5 95t-164.5 268.5t-10 399.5q54 342 249 552t459 210q174 0 292 -95t163.5 -268t9.5 -399q-54 -344 -248 -553.5t-458 -209.5zM516 152q180 0 316 162t178 426q42 263 -43 424.5t-266 161.5q-180 0 -316 -161.5t-178 -424.5q-41 -264 44 -426
t265 -162z" />
    <glyph glyph-name="one" unicode="1" horiz-adv-x="818" 
d="M516 1478l-234 -1478h-186l208 1312h-272l26 166h458z" />
    <glyph glyph-name="two" unicode="2" horiz-adv-x="1210" 
d="M880 166l-26 -166h-971l19 118l477 430q222 202 313 312t109 220q19 122 -41 188.5t-188 66.5q-126 0 -224 -63.5t-160 -184.5l-141 71q81 158 229 251t323 93q198 0 307 -119t80 -303q-20 -123 -114.5 -248.5t-294.5 -305.5l-396 -360h699z" />
    <glyph glyph-name="three" unicode="3" horiz-adv-x="1220" 
d="M361 -23q-174 0 -293 91.5t-153 251.5l162 71q27 -115 110 -181.5t201 -66.5q139 0 239.5 85.5t121.5 221.5q21 134 -53.5 220t-212.5 86q-54 0 -122 -10l21 127l412 437l-650 2l26 166h872l-25 -156l-384 -404q156 -31 242.5 -163t59.5 -305q-32 -206 -194 -339.5
t-380 -133.5z" />
    <glyph glyph-name="four" unicode="4" horiz-adv-x="1289" 
d="M820 342l-54 -342h-166l54 342h-756l23 147l921 989h158l-155 -980h187l-25 -156h-187zM679 498l111 704l-650 -704h539z" />
    <glyph glyph-name="five" unicode="5" horiz-adv-x="1247" 
d="M375 -23q-178 0 -301.5 92t-158.5 251l156 71q30 -114 120 -181t211 -67q143 0 249 88.5t128 228.5t-55.5 228t-223.5 88q-90 0 -173.5 -37.5t-133.5 -100.5l-105 64l200 778h775l-26 -166h-637l-109 -425q113 57 241 57q223 0 344.5 -137t87.5 -349q-34 -213 -199 -348
t-390 -135z" />
    <glyph glyph-name="six" unicode="6" horiz-adv-x="1163" 
d="M342 -23q-211 0 -324.5 138t-79.5 355q9 56 30 112t59.5 119.5t67.5 106.5t85 120l397 550h210l-427 -572q63 20 133 20q129 0 229.5 -64.5t148 -174.5t27.5 -237q-32 -203 -191 -338t-365 -135zM369 143q127 0 225 87.5t119 219.5t-48.5 219t-198.5 87t-226.5 -87
t-118.5 -219t49.5 -219.5t198.5 -87.5z" />
    <glyph glyph-name="seven" unicode="7" horiz-adv-x="1054" 
d="M968 1326l-818 -1326h-196l813 1314h-715l26 166h914z" />
    <glyph glyph-name="eight" unicode="8" horiz-adv-x="1267" 
d="M393 -23q-146 0 -254 59t-157.5 163t-28.5 234q19 122 99 224t198 159q-69 52 -97.5 130t-14.5 167q26 166 168.5 277.5t328.5 111.5q189 0 293.5 -109.5t77.5 -279.5q-14 -90 -67 -167t-136 -130q100 -57 148 -159t29 -224q-21 -130 -104 -234t-210 -163t-273 -59z
M538 889q106 0 186.5 63.5t95.5 160.5q16 97 -45 159.5t-167 62.5t-186.5 -63t-96.5 -159q-15 -97 45.5 -160.5t167.5 -63.5zM420 143q141 0 248 82.5t127 207.5q19 126 -61 208t-222 82q-141 0 -247.5 -82t-125.5 -208q-20 -126 60 -208t221 -82z" />
    <glyph glyph-name="nine" unicode="9" horiz-adv-x="1163" 
d="M745 550l-397 -550h-209l427 573q-66 -21 -133 -21q-129 0 -230 64.5t-148.5 174.5t-27.5 237q32 203 191.5 338.5t365.5 135.5q210 0 323.5 -138.5t79.5 -355.5q-9 -56 -29.5 -111.5t-60 -120.5t-67 -105.5t-85.5 -120.5zM460 722q129 0 226.5 87t118.5 219t-49.5 219.5
t-198.5 87.5t-225.5 -87.5t-118.5 -219.5q-21 -133 48.5 -219.5t198.5 -86.5z" />
    <glyph glyph-name="colon" unicode=":" horiz-adv-x="606" 
d="M330 1076l-38 -244h-186l38 244h186zM199 244l-39 -244h-186l39 244h186z" />
    <glyph glyph-name="semicolon" unicode=";" horiz-adv-x="700" 
d="M424 1076l-38 -244h-186l38 244h186zM292 244l-219 -477h-136l157 477h198z" />
    <glyph glyph-name="less" unicode="&#x3c;" horiz-adv-x="1165" 
d="M264 744l558 -357l-30 -192l-754 474l24 150l904 474l-31 -192z" />
    <glyph glyph-name="equal" unicode="=" horiz-adv-x="1326" 
d="M1018 1062l-28 -176h-846l28 176h846zM944 596l-27 -176h-846l27 176h846z" />
    <glyph glyph-name="greater" unicode="&#x3e;" horiz-adv-x="1125" 
d="M891 819l-24 -150l-904 -474l30 192l672 357l-559 357l31 192z" />
    <glyph glyph-name="question" unicode="?" horiz-adv-x="1153" 
d="M432 450l-5 -34h-186l5 34q10 64 37 120.5t71.5 107.5t79.5 83.5t93 80.5q56 47 82 70t65.5 64.5t59.5 80.5t27 82q13 83 -34 139.5t-159 56.5q-236 0 -350 -248l-141 71q75 159 213 251.5t305 92.5q187 0 281.5 -106t70.5 -257q-7 -47 -27.5 -92t-42 -77t-62 -73.5
t-64.5 -62.5t-73 -63l-44 -38q-88 -75 -139 -140t-63 -143zM405 244l-39 -244h-185l39 244h185z" />
    <glyph glyph-name="at" unicode="@" horiz-adv-x="1878" 
d="M683 -130q-172 0 -314.5 63t-233.5 171.5t-130 259.5t-12 322q35 226 173 413.5t343 295t433 107.5q224 0 395 -108.5t250 -296t44 -411.5q-31 -199 -142.5 -315t-270.5 -116q-82 0 -139.5 34t-80.5 96q-121 -119 -297 -119q-177 0 -275.5 122.5t-69.5 306.5
q29 183 167.5 307t313.5 124q168 0 247 -117l15 98h162l-87 -552q-10 -65 12 -100.5t72 -35.5q71 0 124 71.5t73 195.5q29 186 -30 334t-192.5 231.5t-317.5 83.5t-344.5 -84t-266.5 -232t-135 -333q-30 -185 29.5 -333.5t193.5 -232.5t318 -84q181 0 339 79l54 -143
q-199 -102 -420 -102zM733 432q105 0 187 75.5t100 189.5q18 113 -40 186t-164 73t-186.5 -74t-98.5 -187q-18 -112 40 -187.5t162 -75.5z" />
    <glyph glyph-name="A" unicode="A" horiz-adv-x="1464" 
d="M261 409l-210 -409h-197l784 1490h188l312 -1490h-197l-79 409h-601zM828 576l-132 680l-350 -680h482z" />
    <glyph glyph-name="B" unicode="B" horiz-adv-x="1288" 
d="M477 0h-623l236 1490h623q189 0 289.5 -113.5t73.5 -286.5q-16 -96 -68 -175.5t-133 -131.5q89 -58 130.5 -154.5t22.5 -210.5q-31 -199 -179.5 -308.5t-371.5 -109.5zM675 1323h-424l-75 -469h424q110 0 186.5 62t92.5 164q16 104 -40 173.5t-164 69.5zM586 687h-436
l-83 -520h436q133 0 222.5 66t107.5 185q20 121 -48 195t-199 74z" />
    <glyph glyph-name="C" unicode="C" horiz-adv-x="1536" 
d="M576 -24q-207 0 -357.5 98.5t-216 274t-30.5 395.5t156 395.5t302.5 274t388.5 98.5q202 0 352 -97.5t220 -274.5l-173 -86q-50 136 -161 213t-264 77q-236 0 -414 -167.5t-220 -432.5t83 -432.5t361 -167.5q151 0 285 74.5t228 207.5l145 -88q-126 -170 -305 -266
t-380 -96z" />
    <glyph glyph-name="D" unicode="D" horiz-adv-x="1363" 
d="M332 -2h-478l236 1492h478q201 0 347 -96t210 -266t30 -384t-152 -384t-294 -266t-377 -96zM246 1327l-184 -1165l295 -1q227 5 401 168t214 415q40 257 -81 420t-350 163h-295z" />
    <glyph glyph-name="E" unicode="E" horiz-adv-x="1149" 
d="M849 167l-26 -167h-969l236 1490h969l-26 -167h-782l-75 -469h685l-26 -167h-685l-83 -520h782z" />
    <glyph glyph-name="F" unicode="F" horiz-adv-x="1149" 
d="M150 687l-109 -687h-187l236 1490h969l-26 -167h-782l-75 -469h685l-26 -167h-685z" />
    <glyph glyph-name="G" unicode="G" horiz-adv-x="1536" 
d="M576 -24q-207 0 -357.5 98.5t-216 274t-30.5 395.5t156 395.5t302.5 274t388.5 98.5q202 0 352 -97.5t220 -274.5l-173 -86q-50 136 -161 213t-264 77q-236 0 -414 -167.5t-220 -432.5q-41 -262 84 -431t360 -169q146 0 275 68t220 189l33 216h-504l26 167h673l-124 -784
h-167l21 131q-218 -155 -480 -155z" />
    <glyph glyph-name="H" unicode="H" horiz-adv-x="1307" 
d="M150 687l-109 -687h-187l236 1490h187l-101 -636h754l101 636h186l-236 -1490h-186l109 687h-754z" />
    <glyph glyph-name="I" unicode="I" horiz-adv-x="367" 
d="M277 1490l-236 -1490h-187l236 1490h187z" />
    <glyph glyph-name="J" unicode="J" horiz-adv-x="1219" 
d="M371 -17q-237 0 -356.5 139t-82.5 372h188q-23 -147 56 -244.5t222 -97.5q141 0 251 93.5t132 233.5l159 1003h188l-159 -1003q-36 -225 -199.5 -360.5t-398.5 -135.5z" />
    <glyph glyph-name="K" unicode="K" horiz-adv-x="1302" 
d="M124 527l-83 -527h-187l236 1490h187l-111 -703l746 703h228l-592 -561l428 -929h-220l-358 786z" />
    <glyph glyph-name="L" unicode="L" horiz-adv-x="1149" 
d="M849 167l-26 -167h-969l236 1490h187l-210 -1323h782z" />
    <glyph glyph-name="M" unicode="M" horiz-adv-x="1503" 
d="M219 1125l-178 -1125h-187l236 1490h160l387 -729l616 729h160l-236 -1490h-186l178 1121l-570 -670h-24z" />
    <glyph glyph-name="N" unicode="N" horiz-adv-x="1307" 
d="M221 1135l-180 -1135h-187l236 1490h160l603 -1127l178 1127h186l-236 -1490h-160z" />
    <glyph glyph-name="O" unicode="O" horiz-adv-x="1633" 
d="M576 -24q-207 0 -357.5 98.5t-216 274t-30.5 395.5t156 395.5t302.5 274t388.5 98.5q208 0 358.5 -98.5t216.5 -274t31 -395.5t-156.5 -395.5t-303 -274t-389.5 -98.5zM603 144q237 0 415 167.5t220 432.5q28 175 -19.5 312t-158.5 212.5t-267 75.5q-236 0 -414 -167.5
t-220 -432.5t83 -432.5t361 -167.5z" />
    <glyph glyph-name="P" unicode="P" horiz-adv-x="1209" 
d="M131 568l-90 -568h-187l236 1490h517q230 0 351 -127.5t88 -334.5t-193.5 -333.5t-391.5 -126.5h-330zM581 1323h-330l-93 -587h330q143 0 243 80.5t121 213.5q21 131 -53.5 212t-217.5 81z" />
    <glyph glyph-name="Q" unicode="Q" horiz-adv-x="1633" 
d="M1021 109l116 -283l-172 -86l-114 284q-131 -48 -275 -48q-207 0 -357.5 98.5t-216 274t-30.5 395.5t156 395.5t302.5 274t388.5 98.5q208 0 358.5 -98.5t216.5 -274t31 -395.5q-32 -202 -138.5 -367.5t-265.5 -267.5zM603 144q97 0 189 30l-173 430l158 94l181 -437
q109 81 182.5 205.5t97.5 277.5q28 175 -19.5 312t-158.5 212.5t-267 75.5q-236 0 -414 -167.5t-220 -432.5t83 -432.5t361 -167.5z" />
    <glyph glyph-name="R" unicode="R" horiz-adv-x="1262" 
d="M131 568l-90 -568h-187l236 1490h517q230 0 351 -127.5t88 -334.5q-24 -151 -119 -262t-242 -162l251 -604h-219l-234 568h-352zM581 1323h-330l-93 -587h330q143 0 243 80.5t121 213.5q21 131 -53.5 212t-217.5 81z" />
    <glyph glyph-name="S" unicode="S" horiz-adv-x="1262" 
d="M437 -24q-212 0 -352 118.5t-169 297.5l180 72q27 -156 122.5 -238t245.5 -82q137 0 233 64.5t112 167.5q15 94 -30 151t-156 91l-255 78q-165 51 -239.5 158.5t-52.5 248.5q28 180 181.5 295.5t362.5 115.5q198 0 328 -106.5t159 -265.5l-181 -77q-26 137 -112 209
t-219 72t-224 -63.5t-108 -168.5q-14 -86 35.5 -151t154.5 -97l240 -74q177 -55 253 -154t52 -249q-29 -183 -185 -298t-376 -115z" />
    <glyph glyph-name="T" unicode="T" horiz-adv-x="1172" 
d="M654 1323l-210 -1323h-186l210 1323h-404l26 167h992l-26 -167h-402z" />
    <glyph glyph-name="U" unicode="U" horiz-adv-x="1249" 
d="M384 -24q-243 0 -367 135t-88 361l161 1018h189l-161 -1018q-22 -142 61.5 -235t231.5 -93q147 0 261.5 93.5t136.5 234.5l161 1018h189l-161 -1018q-36 -225 -203.5 -360.5t-410.5 -135.5z" />
    <glyph glyph-name="V" unicode="V" horiz-adv-x="1464" 
d="M1374 1490l-784 -1490h-188l-312 1490h197l249 -1246l641 1246h197z" />
    <glyph glyph-name="W" unicode="W" horiz-adv-x="2105" 
d="M1011 1224l-540 -1224h-189l-192 1490h190l144 -1209l523 1209h211l141 -1205l526 1205h190l-664 -1490h-189z" />
    <glyph glyph-name="X" unicode="X" horiz-adv-x="1325" 
d="M522 592l-462 -592h-206l588 760l-336 730h209l260 -564l435 564h210l-570 -730l349 -760h-207z" />
    <glyph glyph-name="Y" unicode="Y" horiz-adv-x="1413" 
d="M674 689l-109 -689h-187l109 689l-397 801h208l311 -625l506 625h208z" />
    <glyph glyph-name="Z" unicode="Z" horiz-adv-x="1264" 
d="M964 167l-26 -167h-1084l18 116l1015 1207h-774l26 167h1018l-18 -116l-1016 -1207h841z" />
    <glyph glyph-name="bracketleft" unicode="[" horiz-adv-x="769" 
d="M408 30l-27 -166h-419l278 1750h419l-27 -166h-233l-224 -1418h233z" />
    <glyph glyph-name="backslash" unicode="\" horiz-adv-x="951" 
d="M238 1478l437 -1478h-200l-437 1478h200z" />
    <glyph glyph-name="bracketright" unicode="]" horiz-adv-x="769" 
d="M569 1614l-278 -1750h-419l27 166h233l224 1418h-233l27 166h419z" />
    <glyph glyph-name="asciicircum" unicode="^" horiz-adv-x="1223" 
d="M575 1250l-289 -424h-201l447 652h155l241 -652h-201z" />
    <glyph glyph-name="underscore" unicode="_" horiz-adv-x="965" 
d="M704 30l-27 -166h-905l27 166h905z" />
    <glyph glyph-name="grave" unicode="`" horiz-adv-x="430" 
d="M248 1638l116 -326h-155l-144 326h183z" />
    <glyph glyph-name="a" unicode="a" horiz-adv-x="1038" 
d="M227 -23q-169 0 -258.5 90t-66.5 234q19 116 120.5 197.5t269.5 118.5l365 81l2 15q15 92 -47 143.5t-173 53.5q-230 -5 -256 -172l-176 -2q25 158 143.5 247t313.5 93q186 0 287 -98t74 -265l-113 -713h-166l20 125q-66 -69 -156.5 -108.5t-182.5 -39.5zM253 141
q137 0 240.5 93t126.5 234l13 80l-321 -71q-98 -21 -161.5 -68.5t-73.5 -109.5q-11 -72 36.5 -115t139.5 -43z" />
    <glyph glyph-name="b" unicode="b" horiz-adv-x="1213" 
d="M359 -26q-201 0 -323 125l-16 -99h-166l234 1478h166l-83 -522q163 125 363 125q150 0 258.5 -71.5t155.5 -198t22 -284.5q-38 -240 -210.5 -396.5t-400.5 -156.5zM386 143q151 0 264 107.5t139 276.5q27 170 -52 277.5t-230 107.5t-264.5 -107.5t-140.5 -277.5
q-26 -169 53.5 -276.5t230.5 -107.5z" />
    <glyph glyph-name="c" unicode="c" horiz-adv-x="1160" 
d="M374 -26q-150 0 -258.5 71.5t-156 197.5t-22.5 284q38 240 211 397t401 157q146 0 253 -68.5t157 -189.5l-166 -93q-34 86 -104.5 134t-166.5 48q-151 0 -264 -107.5t-140 -277.5q-26 -169 53 -276.5t230 -107.5q96 0 181 48t146 134l138 -93q-89 -121 -217.5 -189.5
t-274.5 -68.5z" />
    <glyph glyph-name="d" unicode="d" horiz-adv-x="1213" 
d="M374 -26q-150 0 -258.5 71.5t-156 197.5t-22.5 284q38 240 211 397t401 157q203 0 323 -125l83 522h166l-234 -1478h-166l16 99q-161 -125 -363 -125zM401 143q151 0 264.5 107.5t139.5 276.5q27 169 -52 277t-231 108q-151 0 -264 -107.5t-140 -277.5
q-26 -169 53 -276.5t230 -107.5z" />
    <glyph glyph-name="e" unicode="e" horiz-adv-x="1229" 
d="M374 -26q-150 0 -258.5 71.5t-156 197.5t-22.5 284q38 240 211 397t401 157q150 0 259 -71.5t156 -198t22 -284.5l-4 -22l-6 -37h-864q-4 -144 75 -234.5t214 -90.5q96 0 181 48t146 134l138 -93q-89 -121 -217.5 -189.5t-274.5 -68.5zM143 625h668q-5 130 -83.5 208.5
t-205.5 78.5t-229.5 -78.5t-149.5 -208.5z" />
    <glyph glyph-name="f" unicode="f" horiz-adv-x="834" 
d="M364 886l-140 -886h-166l140 886h-204l27 167h204l15 93q17 108 77 187.5t140.5 118t170.5 38.5q65 0 114 -13l-24 -152q-46 9 -101 9q-82 0 -139.5 -48.5t-71.5 -139.5l-15 -93h249l-27 -167h-249z" />
    <glyph glyph-name="g" unicode="g" horiz-adv-x="1201" 
d="M306 -428q-157 0 -268 77.5t-148 200.5l164 83q24 -83 94 -139t182 -56q140 0 251 86.5t137 229.5l21 135q-71 -65 -165.5 -101t-196.5 -36q-141 0 -248.5 68.5t-157.5 186.5t-28 258q35 217 206 364t390 147q104 0 187.5 -38t130.5 -105l19 120h166l-158 -999
q-33 -206 -196.5 -344t-381.5 -138zM404 219q151 0 260.5 98t133.5 248t-57 247.5t-230 97.5q-146 0 -256.5 -95t-135.5 -250q-24 -154 55 -250t230 -96z" />
    <glyph glyph-name="h" unicode="h" horiz-adv-x="1025" 
d="M121 639l-101 -639h-166l234 1478h166l-77 -486q51 38 122 60.5t146 22.5q189 0 289.5 -109.5t73.5 -275.5l-109 -690h-167l101 639q20 123 -37.5 197t-174.5 74t-198.5 -74t-101.5 -197z" />
    <glyph glyph-name="i" unicode="i" horiz-adv-x="346" 
d="M254 1478l-38 -242h-166l38 242h166zM187 1053l-167 -1053h-166l167 1053h166z" />
    <glyph glyph-name="j" unicode="j" horiz-adv-x="620" 
d="M528 1478l-38 -242h-166l38 242h166zM-106 -428q-59 0 -106 11l24 152q49 -8 101 -8q76 0 131.5 49t69.5 138l181 1139h166l-181 -1139q-25 -161 -135.5 -251.5t-250.5 -90.5z" />
    <glyph glyph-name="k" unicode="k" horiz-adv-x="1028" 
d="M70 314l-50 -314h-166l234 1478h166l-148 -933l557 508h206l-462 -426l288 -627h-197l-226 501z" />
    <glyph glyph-name="l" unicode="l" horiz-adv-x="346" 
d="M254 1478l-234 -1478h-166l234 1478h166z" />
    <glyph glyph-name="m" unicode="m" horiz-adv-x="1660" 
d="M121 639l-101 -639h-166l167 1053h166l-10 -61q104 78 258 83h4q227 0 300 -163q66 81 168 122.5t213 41.5q165 0 257 -109.5t66 -275.5l-109 -691h-166l102 641q20 123 -35.5 196t-167.5 73t-190.5 -73.5t-97.5 -195.5l-102 -641h-166l102 641q19 119 -35.5 192
t-162.5 77q-114 -5 -194.5 -78.5t-99.5 -192.5z" />
    <glyph glyph-name="n" unicode="n" horiz-adv-x="1025" 
d="M121 639l-101 -639h-166l167 1053h166l-10 -61q51 38 122 60.5t146 22.5q189 0 289.5 -109.5t73.5 -275.5l-109 -690h-167l101 639q20 123 -37.5 197t-174.5 74t-198.5 -74t-101.5 -197z" />
    <glyph glyph-name="o" unicode="o" horiz-adv-x="1229" 
d="M374 -26q-150 0 -258.5 71.5t-156 197.5t-22.5 284q38 240 211 397t401 157q150 0 259 -71.5t156 -198t22 -284.5q-38 -239 -211 -396t-401 -157zM401 143q151 0 264.5 107.5t139.5 276.5q27 169 -52 277t-231 108q-151 0 -264 -107.5t-140 -277.5q-26 -169 53 -276.5
t230 -107.5z" />
    <glyph glyph-name="p" unicode="p" horiz-adv-x="1213" 
d="M36 98l-83 -523h-166l234 1478h166l-16 -99q161 126 363 126q150 0 258.5 -71.5t155.5 -198t22 -284.5q-38 -240 -210.5 -396.5t-400.5 -156.5q-203 0 -323 125zM385 142q151 0 264.5 107.5t139.5 276.5q27 170 -52 277.5t-230 107.5t-264.5 -107.5t-140.5 -277.5
q-26 -169 53 -276.5t230 -107.5z" />
    <glyph glyph-name="q" unicode="q" horiz-adv-x="1213" 
d="M1054 1053l-234 -1478h-166l83 523q-163 -125 -363 -125q-150 0 -258.5 71.5t-156 197.5t-22.5 284q38 240 211 397t401 157q201 0 323 -126l16 99h166zM400 142q152 0 265.5 107.5t139.5 276.5q27 169 -52 277t-231 108q-151 0 -264 -107.5t-140 -277.5
q-26 -169 52.5 -276.5t229.5 -107.5z" />
    <glyph glyph-name="r" unicode="r" horiz-adv-x="695" 
d="M121 639l-101 -639h-166l167 1053h166l-10 -61q51 38 122 60.5t146 22.5q40 0 93 -8l-27 -170q-55 13 -90 13q-117 0 -198.5 -74t-101.5 -197z" />
    <glyph glyph-name="s" unicode="s" horiz-adv-x="997" 
d="M289 -23q-151 0 -255.5 79.5t-135.5 218.5l161 76q23 -101 92 -154.5t165 -53.5q89 0 151 41t73 105q7 49 -26.5 82t-109.5 55l-155 47q-256 78 -221 296q22 138 133.5 222.5t272.5 84.5q142 0 239.5 -74.5t123.5 -204.5l-160 -72q-20 89 -80 138t-149 49
q-82 0 -137.5 -36.5t-65.5 -96.5q-15 -97 123 -141l163 -53q126 -41 183 -117t40 -183q-22 -136 -140 -222t-285 -86z" />
    <glyph glyph-name="t" unicode="t" horiz-adv-x="803" 
d="M376 -12q-154 0 -223.5 84t-45.5 240l91 574h-204l27 167h204l53 338h166l-53 -338h249l-27 -167h-249l-91 -574q-2 -17 -3 -26t-1 -30.5t4 -34.5t14 -31.5t26.5 -29t44 -18t63.5 -7.5q32 0 78 6l-22 -144q-60 -9 -101 -9z" />
    <glyph glyph-name="u" unicode="u" horiz-adv-x="1025" 
d="M274 -21q-189 0 -289 109t-73 276l109 689h166l-101 -639q-20 -123 37.5 -196.5t174.5 -73.5t198.5 74t101.5 196l101 639h167l-167 -1053h-167l10 61q-51 -38 -122.5 -60t-145.5 -22z" />
    <glyph glyph-name="v" unicode="v" horiz-adv-x="1177" 
d="M1018 1053l-591 -1053h-151l-255 1053h190l180 -806l437 806h190z" />
    <glyph glyph-name="w" unicode="w" horiz-adv-x="1709" 
d="M745 790l-369 -790h-154l-201 1053h191l128 -785l362 785h168l112 -782l377 782h191l-537 -1053h-152z" />
    <glyph glyph-name="x" unicode="x" horiz-adv-x="1130" 
d="M392 391l-338 -391h-200l457 526l-290 527h200l214 -392l336 392h200l-458 -527l291 -526h-200z" />
    <glyph glyph-name="y" unicode="y" horiz-adv-x="1214" 
d="M1055 1053l-844 -1481h-186l251 453l-255 1028h194l197 -800l449 800h194z" />
    <glyph glyph-name="z" unicode="z" horiz-adv-x="986" 
d="M686 166l-26 -166h-806l22 137l694 749h-545l27 167h773l-22 -137l-695 -750h578z" />
    <glyph glyph-name="braceleft" unicode="{" horiz-adv-x="765" 
d="M422 -106l-26 -166h-81q-132 0 -201 79.5t-48 209.5l59 375q9 60 -13 93.5t-77 33.5h-69l27 166h69q55 0 88 34t42 93l59 377q21 130 115 209.5t226 79.5h81l-26 -166h-81q-48 0 -84 -32t-44 -82l-60 -378l-2 -19q-18 -117 -118 -199q74 -80 55 -201l-4 -13l-60 -380
q-8 -51 17.5 -82.5t74.5 -31.5h81z" />
    <glyph glyph-name="bar" unicode="|" horiz-adv-x="706" 
d="M475 1673l-323 -2042h-186l323 2042h186z" />
    <glyph glyph-name="braceright" unicode="}" horiz-adv-x="765" 
d="M-108 -272h-81l26 166h81q48 0 84 32t44 82l60 380l2 13q19 121 117 201q-72 81 -54 199l4 19l60 378q8 51 -17.5 82.5t-74.5 31.5h-81l26 166h81q132 0 201 -79.5t48 -209.5l-59 -377q-9 -59 12.5 -93t76.5 -34h70l-27 -166h-70q-55 0 -87.5 -33.5t-41.5 -93.5l-59 -375
q-21 -130 -115 -209.5t-226 -79.5z" />
    <glyph glyph-name="asciitilde" unicode="~" horiz-adv-x="1358" 
d="M726 583q-44 0 -84.5 13.5t-62 26.5t-53.5 38q-26 19 -41 29t-40 19.5t-50 9.5q-51 0 -89.5 -33.5t-59.5 -96.5h-159q35 144 119 220t197 76q45 0 85.5 -13t61.5 -26.5t55 -38.5q25 -19 40.5 -29t40.5 -19.5t50 -9.5q93 0 136 130h159q-35 -145 -114 -220.5t-191 -75.5z
" />
    <glyph glyph-name="uni00A0" unicode="&#xa0;" horiz-adv-x="330" 
 />
    <glyph glyph-name="exclamdown" unicode="&#xa1;" horiz-adv-x="586" 
d="M320 1076l-38 -244h-186l38 244h186zM245 660l-159 -1062h-186l179 1062h166z" />
    <glyph glyph-name="cent" unicode="&#xa2;" horiz-adv-x="1123" 
d="M439 -20l-37 -235h-166l38 240q-186 36 -282 188.5t-62 366.5q33 213 177.5 364t341.5 187l38 239h166l-38 -235q127 -16 218 -93t123 -187l-164 -82q-23 76 -76.5 127t-126.5 67l-123 -778q78 16 147.5 67t116.5 127l138 -82q-67 -110 -182 -187.5t-247 -93.5zM301 157
l121 762q-118 -36 -205.5 -140t-111.5 -241q-20 -135 34.5 -240t161.5 -141z" />
    <glyph glyph-name="sterling" unicode="&#xa3;" horiz-adv-x="1575" 
d="M1124 166l-26 -166h-1078l26 166h234l78 491h-260l73 166h213l39 242q31 195 177 316t352 121q169 0 281.5 -91.5t140.5 -252.5l-163 -71q-22 120 -95.5 184t-190.5 64q-129 0 -213.5 -71.5t-103.5 -198.5l-39 -242h563l-74 -166h-515l-78 -491h659z" />
    <glyph glyph-name="currency" unicode="&#xa4;" horiz-adv-x="1292" 
d="M222 202l-174 -150l-97 117l172 149q-50 101 -32 220q20 117 103 220l-126 149l134 117l126 -150q118 68 231 68q116 0 209 -68l173 150l99 -117l-174 -149q51 -106 33 -220q-19 -120 -103 -220l127 -149l-136 -117l-125 150q-113 -68 -231 -68q-119 0 -209 68zM459 312
q93 0 170 66t92 160t-41 161t-149 67q-94 0 -171.5 -66.5t-92.5 -161.5q-15 -94 41 -160t151 -66z" />
    <glyph glyph-name="yen" unicode="&#xa5;" horiz-adv-x="1324" 
d="M567 299l-47 -299h-186l47 299h-447l27 166h447l20 126h-447l26 166h399l-358 721h207l308 -619l502 619h207l-585 -721h376l-26 -166h-423l-20 -126h423l-27 -166h-423z" />
    <glyph glyph-name="brokenbar" unicode="&#xa6;" horiz-adv-x="706" 
d="M475 1673l-121 -761h-186l121 761h186zM272 392l-120 -761h-186l120 761h186z" />
    <glyph glyph-name="section" unicode="&#xa7;" horiz-adv-x="1251" 
d="M412 -87q-156 0 -264 81t-140 223l163 75q23 -100 94 -156.5t174 -56.5q93 0 158.5 42.5t76.5 109.5q15 96 -142 143l-161 46q-264 77 -228 303q24 154 159 232q-109 87 -86 234q23 141 137 227t280 86q146 0 246.5 -76.5t128.5 -209.5l-164 -71q-21 91 -83.5 140.5
t-154.5 49.5q-86 0 -144 -37t-68 -99q-16 -99 130 -147l168 -53q130 -40 189 -118t42 -188q-25 -150 -173 -225q123 -91 99 -241q-22 -139 -143.5 -226.5t-293.5 -87.5zM450 585l115 -36q74 11 124 51.5t58 96.5q16 96 -141 143l-138 40q-59 -16 -99.5 -57t-48.5 -91
q-16 -99 130 -147z" />
    <glyph glyph-name="dieresis" unicode="&#xa8;" horiz-adv-x="662" 
d="M146 1312q-55 0 -85.5 36.5t-22.5 91.5q8 53 50.5 89.5t97.5 36.5q53 0 83.5 -36.5t22.5 -89.5q-8 -54 -50.5 -91t-95.5 -37zM474 1312q-54 0 -84.5 36.5t-22.5 91.5q8 52 51 89t96 37q50 0 82 -37t24 -89q-8 -53 -51 -90.5t-95 -37.5z" />
    <glyph glyph-name="copyright" unicode="&#xa9;" horiz-adv-x="1925" 
d="M963 -23q-156 0 -297.5 60t-243.5 162t-162 243.5t-60 297.5q0 154 60 295t161.5 243.5t243 163t298.5 60.5q156 0 297 -60.5t243 -163t162 -243.5t60 -295q0 -157 -60.5 -298.5t-163 -243t-243 -161.5t-295.5 -60zM963 143q164 0 300.5 78.5t216 216t79.5 302.5
q0 163 -78.5 299.5t-216 216t-301.5 79.5q-165 0 -302 -79t-216 -215.5t-79 -300.5q0 -165 79 -302.5t216 -216t302 -78.5zM973 317q-174 0 -290 120t-116 303q0 182 115.5 301.5t290.5 119.5q124 0 219.5 -65.5t129.5 -160.5l-143 -70q-26 67 -80 108.5t-126 41.5
q-108 0 -176.5 -77.5t-68.5 -197.5q0 -122 68.5 -199.5t176.5 -77.5q74 0 127.5 42.5t78.5 109.5l143 -72q-34 -95 -129 -160.5t-220 -65.5z" />
    <glyph glyph-name="ordfeminine" unicode="&#xaa;" horiz-adv-x="817" 
d="M229 698q-122 0 -187.5 65t-49.5 170q13 85 85 143.5t194 84.5l245 54l2 7q8 55 -26 88t-97 33q-58 0 -110.5 -33.5t-84.5 -90.5l-129 72q52 90 147.5 145.5t199.5 55.5q132 0 204 -75.5t53 -194.5l-81 -509h-153l11 72q-98 -87 -223 -87zM260 839q84 0 149.5 57
t79.5 143l7 44l-209 -47q-55 -11 -90.5 -39.5t-41.5 -65.5q-7 -43 21 -67.5t84 -24.5z" />
    <glyph glyph-name="guillemotleft" unicode="&#xab;" horiz-adv-x="1287" 
d="M192 538l247 -384h-214l-246 384l368 384h214zM659 538l246 -384h-213l-246 384l368 384h213z" />
    <glyph glyph-name="uni00AD" unicode="&#xad;" horiz-adv-x="1090" 
d="M762 621l-26 -166h-710l26 166h710z" />
    <glyph glyph-name="registered" unicode="&#xae;" horiz-adv-x="1925" 
d="M963 -23q-156 0 -297.5 60t-243.5 162t-162 243.5t-60 297.5q0 154 60 295t161.5 243.5t243 163t298.5 60.5q156 0 297 -60.5t243 -163t162 -243.5t60 -295q0 -157 -60.5 -298.5t-163 -243t-243 -161.5t-295.5 -60zM963 143q164 0 300.5 78.5t216 216t79.5 302.5
q0 163 -78.5 299.5t-216 216t-301.5 79.5q-165 0 -302 -79t-216 -215.5t-79 -300.5q0 -165 79 -302.5t216 -216t302 -78.5zM846 626v-296h-160v822h316q131 0 211 -71t80 -193q0 -80 -37 -139.5t-104 -91.5l187 -327h-184l-165 296h-144zM1004 1007h-158v-236h158
q57 0 92 32.5t35 84.5q0 53 -34.5 86t-92.5 33z" />
    <glyph glyph-name="macron" unicode="&#xaf;" horiz-adv-x="532" 
d="M476 1389l-23 -145h-452l23 145h452z" />
    <glyph glyph-name="degree" unicode="&#xb0;" horiz-adv-x="1048" 
d="M423 855q-133 0 -213.5 94t-59.5 228q22 135 132 230t244 95t214 -95t58 -230q-21 -134 -131.5 -228t-243.5 -94zM445 1006q70 0 130.5 51t70.5 120q11 71 -32.5 122.5t-113.5 51.5t-128.5 -51.5t-69.5 -122.5q-11 -69 31.5 -120t111.5 -51z" />
    <glyph glyph-name="plusminus" unicode="&#xb1;" horiz-adv-x="1226" 
d="M569 653l-53 -336h-176l53 336h-336l28 176h336l53 334h176l-53 -334h334l-28 -176h-334zM828 176l-28 -176h-846l28 176h846z" />
    <glyph glyph-name="acute" unicode="&#xb4;" horiz-adv-x="430" 
d="M441 1638l-245 -326h-156l218 326h183z" />
    <glyph glyph-name="uni00B5" unicode="&#xb5;" horiz-adv-x="1083" 
d="M49 44l-69 -433h-158l232 1465h158l-111 -701q-18 -113 35.5 -180.5t159.5 -67.5q72 0 149.5 27t139.5 74l134 848h158l-170 -1076h-158l9 59q-149 -82 -301 -82q-125 0 -208 67z" />
    <glyph glyph-name="paragraph" unicode="&#xb6;" horiz-adv-x="793" 
d="M621 1478l-265 -1672h-186l161 1017q-126 8 -200.5 102.5t-54.5 224.5q22 137 131 232.5t243 95.5h171z" />
    <glyph glyph-name="periodcentered" unicode="&#xb7;" horiz-adv-x="606" 
d="M297 862l-39 -244h-186l39 244h186z" />
    <glyph glyph-name="cedilla" unicode="&#xb8;" horiz-adv-x="542" 
d="M-22 -400q-134 0 -222 100l82 106q26 -32 66.5 -52.5t82.5 -20.5q44 0 73.5 23t35.5 61q8 52 -41 106t-153 100l124 37q113 -41 167 -110.5t40 -156.5q-14 -90 -87 -141.5t-168 -51.5z" />
    <glyph glyph-name="ordmasculine" unicode="&#xba;" horiz-adv-x="946" 
d="M349 698q-168 0 -263.5 113.5t-67.5 284.5q27 171 157.5 283.5t298.5 112.5q166 0 261.5 -112.5t68.5 -283.5q-28 -171 -158.5 -284.5t-296.5 -113.5zM372 848q98 0 175.5 70.5t93.5 175.5q17 105 -38 176t-153 71t-175 -70.5t-94 -176.5q-16 -106 38.5 -176t152.5 -70z
" />
    <glyph glyph-name="guillemotright" unicode="&#xbb;" horiz-adv-x="1287" 
d="M540 538l-369 -384h-213l368 384l-246 384h213zM1006 538l-368 -384h-213l368 384l-246 384h213z" />
    <glyph glyph-name="questiondown" unicode="&#xbf;" horiz-adv-x="1153" 
d="M738 1502l-39 -244h-186l39 244h186zM324 0q-187 0 -281.5 106t-70.5 257q7 47 27.5 92t42 77t62 73.5t64.5 62.5t73 63l44 37q88 75 138.5 140t62.5 143l6 35h186l-6 -35q-8 -52 -29.5 -101t-45.5 -84.5t-64 -77t-67.5 -66t-74.5 -63.5q-49 -41 -65.5 -55.5t-55 -51.5
t-55 -60.5t-34.5 -58.5t-23 -70q-13 -83 33.5 -140t158.5 -57q237 0 351 249l140 -71q-74 -159 -212 -251.5t-305 -92.5z" />
    <glyph glyph-name="Agrave" unicode="&#xc0;" horiz-adv-x="1420" 
d="M825 2005l116 -327h-156l-144 327h184zM239 409l-210 -409h-197l784 1490h188l312 -1490h-197l-79 409h-601zM806 576l-132 680l-350 -680h482z" />
    <glyph glyph-name="Aacute" unicode="&#xc1;" horiz-adv-x="1420" 
d="M995 2005l-248 -327h-156l220 327h184zM239 409l-210 -409h-197l784 1490h188l312 -1490h-197l-79 409h-601zM806 576l-132 680l-350 -680h482z" />
    <glyph glyph-name="Acircumflex" unicode="&#xc2;" horiz-adv-x="1420" 
d="M773 1885l-186 -207h-170l295 327h160l194 -327h-170zM239 409l-210 -409h-197l784 1490h188l312 -1490h-197l-79 409h-601zM806 576l-132 680l-350 -680h482z" />
    <glyph glyph-name="Atilde" unicode="&#xc3;" horiz-adv-x="1420" 
d="M895 1678q-31 0 -59.5 9t-43.5 17.5t-39 25.5q-53 36 -85 36q-22 0 -43.5 -18.5t-32.5 -59.5h-143q21 98 87.5 157.5t147.5 59.5q31 0 59.5 -9t42 -17t40.5 -25q51 -36 85 -36q22 0 43.5 19t32.5 61h141q-22 -105 -88 -162.5t-145 -57.5zM239 409l-210 -409h-197
l784 1490h188l312 -1490h-197l-79 409h-601zM806 576l-132 680l-350 -680h482z" />
    <glyph glyph-name="Adieresis" unicode="&#xc4;" horiz-adv-x="1420" 
d="M567 1678q-54 0 -85.5 37t-22.5 92q8 53 51 90t97 37t84.5 -37t22.5 -90q-9 -55 -51 -92t-96 -37zM899 1678q-56 0 -87 37t-22 92q8 52 51 89.5t98 37.5q50 0 82.5 -37.5t24.5 -89.5q-8 -53 -51.5 -91t-95.5 -38zM239 409l-210 -409h-197l784 1490h188l312 -1490h-197
l-79 409h-601zM806 576l-132 680l-350 -680h482z" />
    <glyph glyph-name="Aring" unicode="&#xc5;" horiz-adv-x="1420" 
d="M739 1678q-86 0 -136.5 58.5t-37.5 144.5q14 85 82 143t156 58q87 0 138 -58.5t37 -142.5q-14 -85 -83 -144t-156 -59zM758 1802q34 0 61.5 23t32.5 56q5 32 -15 54.5t-54 22.5t-60.5 -22t-31.5 -55t14.5 -56t52.5 -23zM239 409l-210 -409h-197l784 1490h188l312 -1490
h-197l-79 409h-601zM806 576l-132 680l-350 -680h482z" />
    <glyph glyph-name="AE" unicode="&#xc6;" horiz-adv-x="1776" 
d="M261 409l-210 -409h-197l784 1490l1048 3l-26 -167h-781l-74 -469h684l-27 -167h-684l-82 -520h781l-27 -167h-968l65 406h-286zM573 576l101 637l-328 -637h227z" />
    <glyph glyph-name="Ccedilla" unicode="&#xc7;" horiz-adv-x="1536" 
d="M469 -404q-135 0 -222 101l82 107q26 -33 66.5 -53.5t83.5 -20.5q44 0 73.5 23t36.5 62q15 95 -112 168q-179 23 -305 125.5t-179 268t-21 367.5q35 220 156 395.5t302.5 274t388.5 98.5q202 0 352 -97.5t220 -274.5l-173 -86q-50 136 -161 213t-264 77
q-236 0 -414 -167.5t-220 -432.5t83 -432.5t361 -167.5q151 0 285 74.5t228 207.5l145 -88q-114 -153 -270 -246.5t-333 -110.5q86 -80 69 -189q-14 -91 -88 -143.5t-170 -52.5z" />
    <glyph glyph-name="Egrave" unicode="&#xc8;" horiz-adv-x="1118" 
d="M630 2005l116 -327h-156l-144 327h184zM833 167l-26 -167h-969l236 1490h969l-26 -167h-782l-75 -469h685l-26 -167h-685l-83 -520h782z" />
    <glyph glyph-name="Eacute" unicode="&#xc9;" horiz-adv-x="1118" 
d="M918 2005l-249 -327h-156l220 327h185zM833 167l-26 -167h-969l236 1490h969l-26 -167h-782l-75 -469h685l-26 -167h-685l-83 -520h782z" />
    <glyph glyph-name="Ecircumflex" unicode="&#xca;" horiz-adv-x="1118" 
d="M647 1885l-186 -207h-170l295 327h160l194 -327h-170zM833 167l-26 -167h-969l236 1490h969l-26 -167h-782l-75 -469h685l-26 -167h-685l-83 -520h782z" />
    <glyph glyph-name="Edieresis" unicode="&#xcb;" horiz-adv-x="1118" 
d="M450 1678q-55 0 -86 37t-22 92q8 53 51 90t97 37q53 0 84 -37t23 -90q-9 -55 -51.5 -92t-95.5 -37zM781 1678q-55 0 -86.5 37t-22.5 92q8 52 51.5 89.5t97.5 37.5q51 0 83 -37.5t24 -89.5q-8 -54 -51.5 -91.5t-95.5 -37.5zM833 167l-26 -167h-969l236 1490h969l-26 -167
h-782l-75 -469h685l-26 -167h-685l-83 -520h782z" />
    <glyph glyph-name="Igrave" unicode="&#xcc;" horiz-adv-x="333" 
d="M266 2005l116 -327h-156l-145 327h185zM260 1490l-236 -1490h-187l236 1490h187z" />
    <glyph glyph-name="Iacute" unicode="&#xcd;" horiz-adv-x="333" 
d="M436 2005l-248 -327h-156l220 327h184zM260 1490l-236 -1490h-187l236 1490h187z" />
    <glyph glyph-name="Icircumflex" unicode="&#xce;" horiz-adv-x="327" 
d="M221 1886l-186 -208h-170l295 328h160l194 -328h-170zM257 1490l-236 -1490h-187l236 1490h187z" />
    <glyph glyph-name="Idieresis" unicode="&#xcf;" horiz-adv-x="328" 
d="M21 1678q-55 0 -86 37t-22 92q8 53 51 90t97 37q53 0 84 -37t23 -90q-9 -55 -51.5 -92t-95.5 -37zM352 1678q-55 0 -86.5 37t-22.5 92q8 52 51.5 89.5t97.5 37.5q51 0 83 -37.5t24 -89.5q-8 -54 -51.5 -91.5t-95.5 -37.5zM257 1490l-236 -1490h-187l236 1490h187z" />
    <glyph glyph-name="Ntilde" unicode="&#xd1;" horiz-adv-x="1277" 
d="M780 1678q-31 0 -59.5 9t-43.5 17.5t-39 25.5q-53 36 -85 36q-22 0 -43.5 -18.5t-32.5 -59.5h-143q21 98 87.5 157.5t147.5 59.5q31 0 59.5 -9t42 -17t40.5 -25q51 -36 85 -36q22 0 43.5 19t32.5 61h141q-22 -105 -88 -162.5t-145 -57.5zM205 1135l-180 -1135h-187
l236 1490h160l603 -1127l178 1127h186l-236 -1490h-160z" />
    <glyph glyph-name="Ograve" unicode="&#xd2;" horiz-adv-x="1602" 
d="M901 2005l116 -327h-156l-144 327h184zM560 -24q-207 0 -357.5 98.5t-216 274t-30.5 395.5t156 395.5t302.5 274t388.5 98.5q208 0 358.5 -98.5t216.5 -274t31 -395.5t-156.5 -395.5t-303 -274t-389.5 -98.5zM587 144q237 0 415 167.5t220 432.5q28 175 -19.5 312
t-158.5 212.5t-267 75.5q-236 0 -414 -167.5t-220 -432.5t83 -432.5t361 -167.5z" />
    <glyph glyph-name="Oacute" unicode="&#xd3;" horiz-adv-x="1602" 
d="M1089 2005l-248 -327h-157l221 327h184zM560 -24q-207 0 -357.5 98.5t-216 274t-30.5 395.5t156 395.5t302.5 274t388.5 98.5q208 0 358.5 -98.5t216.5 -274t31 -395.5t-156.5 -395.5t-303 -274t-389.5 -98.5zM587 144q237 0 415 167.5t220 432.5q28 175 -19.5 312
t-158.5 212.5t-267 75.5q-236 0 -414 -167.5t-220 -432.5t83 -432.5t361 -167.5z" />
    <glyph glyph-name="Ocircumflex" unicode="&#xd4;" horiz-adv-x="1602" 
d="M862 1885l-186 -207h-170l295 327h160l194 -327h-170zM560 -24q-207 0 -357.5 98.5t-216 274t-30.5 395.5t156 395.5t302.5 274t388.5 98.5q208 0 358.5 -98.5t216.5 -274t31 -395.5t-156.5 -395.5t-303 -274t-389.5 -98.5zM587 144q237 0 415 167.5t220 432.5
q28 175 -19.5 312t-158.5 212.5t-267 75.5q-236 0 -414 -167.5t-220 -432.5t83 -432.5t361 -167.5z" />
    <glyph glyph-name="Otilde" unicode="&#xd5;" horiz-adv-x="1602" 
d="M954 1677q-69 0 -142 53q-53 36 -85 36q-22 0 -43 -18.5t-33 -60.5h-143q21 98 87.5 158t147.5 60q31 0 59.5 -9t42 -17t40.5 -25q48 -37 85 -37q22 0 43.5 19.5t32.5 61.5h142q-23 -106 -89 -163.5t-145 -57.5zM560 -24q-207 0 -357.5 98.5t-216 274t-30.5 395.5
t156 395.5t302.5 274t388.5 98.5q208 0 358.5 -98.5t216.5 -274t31 -395.5t-156.5 -395.5t-303 -274t-389.5 -98.5zM587 144q237 0 415 167.5t220 432.5q28 175 -19.5 312t-158.5 212.5t-267 75.5q-236 0 -414 -167.5t-220 -432.5t83 -432.5t361 -167.5z" />
    <glyph glyph-name="Odieresis" unicode="&#xd6;" horiz-adv-x="1602" 
d="M669 1678q-55 0 -86 37t-22 92q8 53 51 90t97 37q53 0 84 -37t23 -90q-9 -55 -51.5 -92t-95.5 -37zM1000 1678q-55 0 -86.5 37t-22.5 92q8 52 51.5 89.5t97.5 37.5q51 0 83 -37.5t24 -89.5q-8 -54 -51.5 -91.5t-95.5 -37.5zM560 -24q-207 0 -357.5 98.5t-216 274
t-30.5 395.5t156 395.5t302.5 274t388.5 98.5q208 0 358.5 -98.5t216.5 -274t31 -395.5t-156.5 -395.5t-303 -274t-389.5 -98.5zM587 144q237 0 415 167.5t220 432.5q28 175 -19.5 312t-158.5 212.5t-267 75.5q-236 0 -414 -167.5t-220 -432.5t83 -432.5t361 -167.5z" />
    <glyph glyph-name="multiply" unicode="&#xd7;" horiz-adv-x="1188" 
d="M692 338l-236 280l-324 -280l-105 124l325 280l-234 278l143 124l234 -278l322 278l105 -124l-322 -278l235 -280z" />
    <glyph glyph-name="Oslash" unicode="&#xd8;" horiz-adv-x="1633" 
d="M351 12l-71 -107h-201l118 186q-138 100 -198.5 270.5t-26.5 382.5q35 220 156 395.5t302.5 274t388.5 98.5q117 0 227 -35l50 84h201l-98 -164q139 -99 199 -269.5t27 -383.5q-35 -220 -156.5 -395.5t-303 -274t-389.5 -98.5q-119 0 -225 36zM296 252l654 1069
q-68 23 -157 23q-236 0 -414 -167.5t-220 -432.5q-25 -159 11 -286t126 -206zM603 144q237 0 415 167.5t220 432.5q25 158 -11.5 286t-125.5 207l-656 -1070q70 -23 158 -23z" />
    <glyph glyph-name="Ugrave" unicode="&#xd9;" horiz-adv-x="1218" 
d="M607 2005l116 -327h-156l-145 327h185zM368 -24q-243 0 -367 135t-88 361l161 1018h189l-161 -1018q-22 -142 61.5 -235t231.5 -93q147 0 261.5 93.5t136.5 234.5l161 1018h189l-161 -1018q-36 -225 -203.5 -360.5t-410.5 -135.5z" />
    <glyph glyph-name="Uacute" unicode="&#xda;" horiz-adv-x="1218" 
d="M892 2005l-249 -327h-156l220 327h185zM368 -24q-243 0 -367 135t-88 361l161 1018h189l-161 -1018q-22 -142 61.5 -235t231.5 -93q147 0 261.5 93.5t136.5 234.5l161 1018h189l-161 -1018q-36 -225 -203.5 -360.5t-410.5 -135.5z" />
    <glyph glyph-name="Ucircumflex" unicode="&#xdb;" horiz-adv-x="1218" 
d="M657 1885l-186 -207h-171l295 327h160l194 -327h-170zM368 -24q-243 0 -367 135t-88 361l161 1018h189l-161 -1018q-22 -142 61.5 -235t231.5 -93q147 0 261.5 93.5t136.5 234.5l161 1018h189l-161 -1018q-36 -225 -203.5 -360.5t-410.5 -135.5z" />
    <glyph glyph-name="Udieresis" unicode="&#xdc;" horiz-adv-x="1218" 
d="M473 1675q-54 0 -85 37t-22 92q8 53 51 90t97 37t84.5 -37t22.5 -90q-9 -55 -51.5 -92t-96.5 -37zM805 1675q-55 0 -86 37t-22 92q8 52 51.5 89.5t97.5 37.5q51 0 83 -37.5t24 -89.5q-9 -54 -52.5 -91.5t-95.5 -37.5zM368 -24q-243 0 -367 135t-88 361l161 1018h189
l-161 -1018q-22 -142 61.5 -235t231.5 -93q147 0 261.5 93.5t136.5 234.5l161 1018h189l-161 -1018q-36 -225 -203.5 -360.5t-410.5 -135.5z" />
    <glyph glyph-name="Yacute" unicode="&#xdd;" horiz-adv-x="1357" 
d="M977 1999l-248 -327h-157l221 327h184zM645 689l-109 -689h-187l109 689l-397 801h208l311 -625l506 625h208z" />
    <glyph glyph-name="germandbls" unicode="&#xdf;" horiz-adv-x="1268" 
d="M217 1072l-170 -1072h-193l171 1081q27 172 162 284.5t323 112.5h185q188 0 287 -112.5t72 -284.5q-15 -96 -66.5 -174.5t-132.5 -129.5q89 -58 130 -153.5t23 -209.5q-32 -197 -179 -305.5t-369 -108.5h-193l25 166h194q132 0 220.5 65t107.5 183q19 121 -48.5 194
t-197.5 73h-196l26 166h184q110 0 185.5 61.5t92.5 163.5q16 102 -40 171t-164 69h-159q-108 0 -186 -69t-94 -171z" />
    <glyph glyph-name="agrave" unicode="&#xe0;" horiz-adv-x="1007" 
d="M544 1569l115 -325h-155l-143 325h183zM211 -23q-169 0 -258.5 90t-66.5 234q19 116 120.5 197.5t269.5 118.5l365 81l2 15q15 92 -47 143.5t-173 53.5q-230 -5 -256 -172l-176 -2q25 158 143.5 247t313.5 93q186 0 287 -98t74 -265l-113 -713h-166l20 125
q-66 -69 -156.5 -108.5t-182.5 -39.5zM237 141q137 0 240.5 93t126.5 234l13 80l-321 -71q-98 -21 -161.5 -68.5t-73.5 -109.5q-11 -72 36.5 -115t139.5 -43z" />
    <glyph glyph-name="aacute" unicode="&#xe1;" horiz-adv-x="1007" 
d="M713 1569l-247 -325h-155l219 325h183zM211 -23q-169 0 -258.5 90t-66.5 234q19 116 120.5 197.5t269.5 118.5l365 81l2 15q15 92 -47 143.5t-173 53.5q-230 -5 -256 -172l-176 -2q25 158 143.5 247t313.5 93q186 0 287 -98t74 -265l-113 -713h-166l20 125
q-66 -69 -156.5 -108.5t-182.5 -39.5zM237 141q137 0 240.5 93t126.5 234l13 80l-321 -71q-98 -21 -161.5 -68.5t-73.5 -109.5q-11 -72 36.5 -115t139.5 -43z" />
    <glyph glyph-name="acircumflex" unicode="&#xe2;" horiz-adv-x="1007" 
d="M495 1446l-185 -206h-169l293 325h159l192 -325h-169zM211 -23q-169 0 -258.5 90t-66.5 234q19 116 120.5 197.5t269.5 118.5l365 81l2 15q15 92 -47 143.5t-173 53.5q-230 -5 -256 -172l-176 -2q25 158 143.5 247t313.5 93q186 0 287 -98t74 -265l-113 -713h-166l20 125
q-66 -69 -156.5 -108.5t-182.5 -39.5zM237 141q137 0 240.5 93t126.5 234l13 80l-321 -71q-98 -21 -161.5 -68.5t-73.5 -109.5q-11 -72 36.5 -115t139.5 -43z" />
    <glyph glyph-name="atilde" unicode="&#xe3;" horiz-adv-x="1007" 
d="M613 1244q-30 0 -58.5 9t-43.5 17.5t-39 25.5q-51 36 -84 36q-22 0 -43 -18.5t-31 -59.5h-142q21 98 86 157t146 59q31 0 59.5 -9t42.5 -17t39 -25q51 -36 84 -36q22 0 43.5 19t32.5 61h140q-22 -105 -88 -162t-144 -57zM211 -23q-169 0 -258.5 90t-66.5 234
q19 116 120.5 197.5t269.5 118.5l365 81l2 15q15 92 -47 143.5t-173 53.5q-230 -5 -256 -172l-176 -2q25 158 143.5 247t313.5 93q186 0 287 -98t74 -265l-113 -713h-166l20 125q-66 -69 -156.5 -108.5t-182.5 -39.5zM237 141q137 0 240.5 93t126.5 234l13 80l-321 -71
q-98 -21 -161.5 -68.5t-73.5 -109.5q-11 -72 36.5 -115t139.5 -43z" />
    <glyph glyph-name="adieresis" unicode="&#xe4;" horiz-adv-x="1007" 
d="M304 1257q-54 0 -84.5 36.5t-22.5 91.5q8 53 50.5 89.5t96.5 36.5q53 0 83.5 -36.5t22.5 -89.5q-8 -55 -50.5 -91.5t-95.5 -36.5zM633 1257q-55 0 -85.5 36.5t-22.5 91.5q8 52 51 89t97 37q50 0 82 -37t24 -89q-8 -53 -51.5 -90.5t-94.5 -37.5zM211 -23q-169 0 -258.5 90
t-66.5 234q19 116 120.5 197.5t269.5 118.5l365 81l2 15q15 92 -47 143.5t-173 53.5q-230 -5 -256 -172l-176 -2q25 158 143.5 247t313.5 93q186 0 287 -98t74 -265l-113 -713h-166l20 125q-66 -69 -156.5 -108.5t-182.5 -39.5zM237 141q137 0 240.5 93t126.5 234l13 80
l-321 -71q-98 -21 -161.5 -68.5t-73.5 -109.5q-11 -72 36.5 -115t139.5 -43z" />
    <glyph glyph-name="aring" unicode="&#xe5;" horiz-adv-x="1007" 
d="M487 1247q-85 0 -136 58.5t-37 143.5q13 84 81 141.5t155 57.5q86 0 136.5 -58t37.5 -141q-14 -84 -82.5 -143t-154.5 -59zM506 1370q33 0 60.5 23t32.5 56q5 32 -15 54t-53 22q-34 0 -60.5 -22t-31.5 -54q-5 -33 14.5 -56t52.5 -23zM211 -23q-169 0 -258.5 90t-66.5 234
q19 116 120.5 197.5t269.5 118.5l365 81l2 15q15 92 -47 143.5t-173 53.5q-230 -5 -256 -172l-176 -2q25 158 143.5 247t313.5 93q186 0 287 -98t74 -265l-113 -713h-166l20 125q-66 -69 -156.5 -108.5t-182.5 -39.5zM237 141q137 0 240.5 93t126.5 234l13 80l-321 -71
q-98 -21 -161.5 -68.5t-73.5 -109.5q-11 -72 36.5 -115t139.5 -43z" />
    <glyph glyph-name="ae" unicode="&#xe6;" horiz-adv-x="1939" 
d="M227 -23q-169 0 -258.5 90t-66.5 234q19 116 120.5 197.5t269.5 118.5l365 81l2 15q15 92 -47 143.5t-173 53.5q-230 -5 -256 -172l-176 -2q25 158 143.5 247t313.5 93q127 0 216.5 -47.5t126.5 -134.5q85 90 197.5 140t236.5 50q150 0 259 -71.5t156 -198t22 -284.5
l-5 -22l-5 -37h-864q-4 -144 74.5 -234.5t213.5 -90.5q96 0 181 48t147 134l137 -93q-89 -121 -217.5 -189.5t-274.5 -68.5q-134 0 -235.5 58t-156.5 162q-201 -220 -446 -220zM834 628h668q-5 130 -83 208.5t-205 78.5t-229.5 -78.5t-150.5 -208.5zM253 141q137 0 240.5 93
t126.5 234l4 25q1 14 5 37l3 18l-320 -71q-98 -21 -161.5 -68.5t-73.5 -109.5q-11 -72 36.5 -115t139.5 -43z" />
    <glyph glyph-name="ccedilla" unicode="&#xe7;" horiz-adv-x="1124" 
d="M385 143q96 0 181 48t146 134l138 -93q-72 -97 -169 -161t-209 -86q92 -81 74 -192q-14 -90 -87 -141.5t-168 -51.5q-134 0 -222 100l82 106q27 -33 67 -53t83 -20t72.5 23t35.5 61q13 82 -107 160q-203 20 -309.5 173t-71.5 377q38 240 211 397t401 157q146 0 253 -68.5
t157 -189.5l-166 -93q-34 86 -104.5 134t-166.5 48q-151 0 -264 -107.5t-140 -277.5q-26 -169 53 -276.5t230 -107.5z" />
    <glyph glyph-name="egrave" unicode="&#xe8;" horiz-adv-x="1198" 
d="M642 1569l115 -325h-155l-143 325h183zM358 -26q-150 0 -258.5 71.5t-156 197.5t-22.5 284q38 240 211 397t401 157q150 0 259 -71.5t156 -198t22 -284.5l-4 -22l-6 -37h-864q-4 -144 75 -234.5t214 -90.5q96 0 181 48t146 134l138 -93q-89 -121 -217.5 -189.5
t-274.5 -68.5zM127 625h668q-5 130 -83.5 208.5t-205.5 78.5t-229.5 -78.5t-149.5 -208.5z" />
    <glyph glyph-name="eacute" unicode="&#xe9;" horiz-adv-x="1198" 
d="M811 1569l-247 -325h-155l219 325h183zM358 -26q-150 0 -258.5 71.5t-156 197.5t-22.5 284q38 240 211 397t401 157q150 0 259 -71.5t156 -198t22 -284.5l-4 -22l-6 -37h-864q-4 -144 75 -234.5t214 -90.5q96 0 181 48t146 134l138 -93q-89 -121 -217.5 -189.5
t-274.5 -68.5zM127 625h668q-5 130 -83.5 208.5t-205.5 78.5t-229.5 -78.5t-149.5 -208.5z" />
    <glyph glyph-name="ecircumflex" unicode="&#xea;" horiz-adv-x="1198" 
d="M588 1450l-185 -206h-169l293 325h159l192 -325h-169zM358 -26q-150 0 -258.5 71.5t-156 197.5t-22.5 284q38 240 211 397t401 157q113 0 206 -41.5t151.5 -115.5t82 -175.5t-2.5 -221.5l-4 -22l-6 -37h-864q-4 -144 75 -234.5t214 -90.5q96 0 181 48t146 134l138 -93
q-89 -121 -217.5 -189.5t-274.5 -68.5zM127 625h668q-5 130 -83.5 208.5t-205.5 78.5t-229.5 -78.5t-149.5 -208.5z" />
    <glyph glyph-name="edieresis" unicode="&#xeb;" horiz-adv-x="1198" 
d="M399 1244q-54 0 -84.5 36.5t-22.5 91.5q8 53 50.5 89.5t96.5 36.5q53 0 83.5 -36.5t22.5 -89.5q-8 -55 -50.5 -91.5t-95.5 -36.5zM728 1244q-55 0 -85.5 36.5t-22.5 91.5q8 52 51 89t97 37q50 0 82 -37t24 -89q-8 -53 -51.5 -90.5t-94.5 -37.5zM358 -26
q-150 0 -258.5 71.5t-156 197.5t-22.5 284q38 240 211 397t401 157q113 0 206 -41.5t151.5 -115.5t82 -175.5t-2.5 -221.5l-4 -22l-6 -37h-864q-4 -144 75 -234.5t214 -90.5q96 0 181 48t146 134l138 -93q-89 -121 -217.5 -189.5t-274.5 -68.5zM127 625h668
q-5 130 -83.5 208.5t-205.5 78.5t-229.5 -78.5t-149.5 -208.5z" />
    <glyph glyph-name="igrave" unicode="&#xec;" horiz-adv-x="315" 
d="M185 1569l115 -325h-155l-143 325h183zM172 1053l-167 -1053h-166l167 1053h166z" />
    <glyph glyph-name="iacute" unicode="&#xed;" horiz-adv-x="315" 
d="M354 1569l-247 -325h-155l219 325h183zM172 1053l-167 -1053h-166l167 1053h166z" />
    <glyph glyph-name="icircumflex" unicode="&#xee;" horiz-adv-x="315" 
d="M158 1450l-185 -206h-169l293 325h159l192 -325h-169zM172 1053l-167 -1053h-166l167 1053h166z" />
    <glyph glyph-name="idieresis" unicode="&#xef;" horiz-adv-x="315" 
d="M-37 1244q-54 0 -84.5 36.5t-22.5 91.5q8 53 50.5 89.5t96.5 36.5q53 0 83.5 -36.5t22.5 -89.5q-8 -55 -50.5 -91.5t-95.5 -36.5zM292 1244q-55 0 -85.5 36.5t-22.5 91.5q8 52 51 89t97 37q50 0 82 -37t24 -89q-8 -53 -51.5 -90.5t-94.5 -37.5zM172 1053l-167 -1053h-166
l167 1053h166z" />
    <glyph glyph-name="ntilde" unicode="&#xf1;" horiz-adv-x="994" 
d="M606 1244q-30 0 -58.5 9t-43.5 17.5t-39 25.5q-51 36 -84 36q-22 0 -43 -18.5t-31 -59.5h-142q21 98 86 157t146 59q31 0 59.5 -9t42.5 -17t39 -25q51 -36 84 -36q22 0 43.5 19t32.5 61h140q-22 -105 -88 -162t-144 -57zM105 639l-101 -639h-166l167 1053h166l-10 -61
q51 38 122 60.5t146 22.5q189 0 289.5 -109.5t73.5 -275.5l-109 -690h-167l101 639q20 123 -37.5 197t-174.5 74t-198.5 -74t-101.5 -197z" />
    <glyph glyph-name="ograve" unicode="&#xf2;" horiz-adv-x="1198" 
d="M604 1569l115 -325h-155l-143 325h183zM358 -26q-150 0 -258.5 71.5t-156 197.5t-22.5 284q38 240 211 397t401 157q150 0 259 -71.5t156 -198t22 -284.5q-38 -239 -211 -396t-401 -157zM385 143q151 0 264.5 107.5t139.5 276.5q27 169 -52 277t-231 108
q-151 0 -264 -107.5t-140 -277.5q-26 -169 53 -276.5t230 -107.5z" />
    <glyph glyph-name="oacute" unicode="&#xf3;" horiz-adv-x="1198" 
d="M811 1569l-247 -325h-155l219 325h183zM358 -26q-150 0 -258.5 71.5t-156 197.5t-22.5 284q38 240 211 397t401 157q150 0 259 -71.5t156 -198t22 -284.5q-38 -239 -211 -396t-401 -157zM385 143q151 0 264.5 107.5t139.5 276.5q27 169 -52 277t-231 108
q-151 0 -264 -107.5t-140 -277.5q-26 -169 53 -276.5t230 -107.5z" />
    <glyph glyph-name="ocircumflex" unicode="&#xf4;" horiz-adv-x="1198" 
d="M583 1450l-185 -206h-169l293 325h159l192 -325h-169zM358 -26q-150 0 -258.5 71.5t-156 197.5t-22.5 284q38 240 211 397t401 157q150 0 259 -71.5t156 -198t22 -284.5q-38 -239 -211 -396t-401 -157zM385 143q151 0 264.5 107.5t139.5 276.5q27 169 -52 277t-231 108
q-151 0 -264 -107.5t-140 -277.5q-26 -169 53 -276.5t230 -107.5z" />
    <glyph glyph-name="otilde" unicode="&#xf5;" horiz-adv-x="1198" 
d="M659 1243q-30 0 -58.5 9t-43.5 17.5t-39 25.5q-51 36 -84 36q-22 0 -43 -18.5t-32 -59.5h-142q21 98 87 157t146 59q31 0 59.5 -9t41 -16.5t40.5 -25.5q51 -36 84 -36q22 0 43.5 19t32.5 61h140q-22 -105 -88 -162t-144 -57zM358 -26q-150 0 -258.5 71.5t-156 197.5
t-22.5 284q38 240 211 397t401 157q150 0 259 -71.5t156 -198t22 -284.5q-38 -239 -211 -396t-401 -157zM385 143q151 0 264.5 107.5t139.5 276.5q27 169 -52 277t-231 108q-151 0 -264 -107.5t-140 -277.5q-26 -169 53 -276.5t230 -107.5z" />
    <glyph glyph-name="odieresis" unicode="&#xf6;" horiz-adv-x="1198" 
d="M373 1240q-54 0 -84.5 36.5t-21.5 91.5q8 53 50.5 89.5t96.5 36.5q53 0 83.5 -36.5t22.5 -89.5q-9 -55 -51.5 -91.5t-95.5 -36.5zM702 1240q-55 0 -85.5 36.5t-21.5 91.5q8 52 51 89t97 37q50 0 82 -37t24 -89q-9 -53 -52.5 -90.5t-94.5 -37.5zM358 -26
q-150 0 -258.5 71.5t-156 197.5t-22.5 284q38 240 211 397t401 157q150 0 259 -71.5t156 -198t22 -284.5q-38 -239 -211 -396t-401 -157zM385 143q151 0 264.5 107.5t139.5 276.5q27 169 -52 277t-231 108q-151 0 -264 -107.5t-140 -277.5q-26 -169 53 -276.5t230 -107.5z
" />
    <glyph glyph-name="divide" unicode="&#xf7;" horiz-adv-x="1324" 
d="M721 1276l-39 -244h-186l39 244h186zM1019 829l-28 -176h-924l28 176h924zM590 450l-38 -244h-186l38 244h186z" />
    <glyph glyph-name="oslash" unicode="&#xf8;" horiz-adv-x="1198" 
d="M143 21l-56 -93h-200l122 200q-60 75 -83 177.5t-5 221.5q38 240 211 397t401 157q29 0 56 -3l79 130h200l-109 -179q124 -66 181 -199t30 -303q-38 -239 -211 -396t-401 -157q-118 0 -215 47zM120 312l367 600q-145 -8 -252 -114.5t-133 -270.5q-19 -119 18 -215z
M385 143q151 0 264.5 107.5t139.5 276.5q19 117 -15 208t-111 137l-424 -695q63 -34 146 -34z" />
    <glyph glyph-name="ugrave" unicode="&#xf9;" horiz-adv-x="994" 
d="M477 1569l115 -325h-155l-143 325h183zM258 -21q-189 0 -289 109t-73 276l109 689h166l-101 -639q-20 -123 37.5 -196.5t174.5 -73.5t198.5 74t101.5 196l101 639h167l-167 -1053h-167l10 61q-51 -38 -122.5 -60t-145.5 -22z" />
    <glyph glyph-name="uacute" unicode="&#xfa;" horiz-adv-x="994" 
d="M706 1569l-247 -325h-155l219 325h183zM258 -21q-189 0 -289 109t-73 276l109 689h166l-101 -639q-20 -123 37.5 -196.5t174.5 -73.5t198.5 74t101.5 196l101 639h167l-167 -1053h-167l10 61q-51 -38 -122.5 -60t-145.5 -22z" />
    <glyph glyph-name="ucircumflex" unicode="&#xfb;" horiz-adv-x="994" 
d="M484 1450l-185 -206h-169l293 325h159l192 -325h-169zM258 -21q-189 0 -289 109t-73 276l109 689h166l-101 -639q-20 -123 37.5 -196.5t174.5 -73.5t198.5 74t101.5 196l101 639h167l-167 -1053h-167l10 61q-51 -38 -122.5 -60t-145.5 -22z" />
    <glyph glyph-name="udieresis" unicode="&#xfc;" horiz-adv-x="994" 
d="M285 1244q-54 0 -84.5 36.5t-22.5 91.5q8 53 50.5 89.5t96.5 36.5q53 0 83.5 -36.5t22.5 -89.5q-8 -55 -50.5 -91.5t-95.5 -36.5zM614 1244q-55 0 -85.5 36.5t-22.5 91.5q8 52 51 89t97 37q50 0 82 -37t24 -89q-8 -53 -51.5 -90.5t-94.5 -37.5zM258 -21q-189 0 -289 109
t-73 276l109 689h166l-101 -639q-20 -123 37.5 -196.5t174.5 -73.5t198.5 74t101.5 196l101 639h167l-167 -1053h-167l10 61q-51 -38 -122.5 -60t-145.5 -22z" />
    <glyph glyph-name="yacute" unicode="&#xfd;" horiz-adv-x="1168" 
d="M838 1569l-247 -325h-155l219 325h183zM1031 1053l-844 -1481h-186l251 453l-255 1028h194l197 -800l449 800h194z" />
    <glyph glyph-name="ydieresis" unicode="&#xff;" horiz-adv-x="1168" 
d="M378 1244q-54 0 -84.5 36.5t-22.5 91.5q8 53 50.5 89.5t96.5 36.5q53 0 83.5 -36.5t22.5 -89.5q-8 -55 -50.5 -91.5t-95.5 -36.5zM707 1244q-55 0 -85.5 36.5t-22.5 91.5q8 52 51 89t97 37q50 0 82 -37t24 -89q-8 -53 -51.5 -90.5t-94.5 -37.5zM1031 1053l-844 -1481
h-186l251 453l-255 1028h194l197 -800l449 800h194z" />
    <glyph glyph-name="Amacron" unicode="&#x100;" horiz-adv-x="1420" 
d="M997 1824l-23 -146h-455l23 146h455zM239 409l-210 -409h-197l784 1490h188l312 -1490h-197l-79 409h-601zM806 576l-132 680l-350 -680h482z" />
    <glyph glyph-name="amacron" unicode="&#x101;" horiz-adv-x="1007" 
d="M714 1389l-23 -145h-451l23 145h451zM211 -23q-169 0 -258.5 90t-66.5 234q19 116 120.5 197.5t269.5 118.5l365 81l2 15q15 92 -47 143.5t-173 53.5q-230 -5 -256 -172l-176 -2q25 158 143.5 247t313.5 93q186 0 287 -98t74 -265l-113 -713h-166l20 125
q-66 -69 -156.5 -108.5t-182.5 -39.5zM237 141q137 0 240.5 93t126.5 234l13 80l-321 -71q-98 -21 -161.5 -68.5t-73.5 -109.5q-11 -72 36.5 -115t139.5 -43z" />
    <glyph glyph-name="Abreve" unicode="&#x102;" horiz-adv-x="1420" 
d="M740 1678q-117 0 -186.5 87.5t-49.5 208.5h137q-11 -66 24.5 -115t95.5 -49t112 49t63 115h136q-20 -122 -117 -209t-215 -87zM239 409l-210 -409h-197l784 1490h188l312 -1490h-197l-79 409h-601zM806 576l-132 680l-350 -680h482z" />
    <glyph glyph-name="abreve" unicode="&#x103;" horiz-adv-x="1007" 
d="M488 1244q-117 0 -185.5 87t-48.5 207h136q-11 -66 24.5 -114.5t94.5 -48.5t111 49t63 114h135q-20 -122 -116.5 -208t-213.5 -86zM211 -23q-169 0 -258.5 90t-66.5 234q19 116 120.5 197.5t269.5 118.5l365 81l2 15q15 92 -47 143.5t-173 53.5q-230 -5 -256 -172
l-176 -2q25 158 143.5 247t313.5 93q186 0 287 -98t74 -265l-113 -713h-166l20 125q-66 -69 -156.5 -108.5t-182.5 -39.5zM237 141q137 0 240.5 93t126.5 234l13 80l-321 -71q-98 -21 -161.5 -68.5t-73.5 -109.5q-11 -72 36.5 -115t139.5 -43z" />
    <glyph glyph-name="Aogonek" unicode="&#x104;" horiz-adv-x="1420" 
d="M907 -425q-97 0 -154 51.5t-43 142.5q11 69 64.5 129t144.5 102l-79 409h-601l-210 -409h-197l784 1490h188l312 -1490q-119 -47 -186 -102t-75 -105q-6 -40 16.5 -62.5t67.5 -22.5q42 0 88.5 20t83.5 54l49 -110q-120 -97 -253 -97zM806 576l-132 680l-350 -680h482z
" />
    <glyph glyph-name="aogonek" unicode="&#x105;" horiz-adv-x="1007" 
d="M453 -417q-96 0 -152 51.5t-42 141.5q12 81 83.5 148.5t192.5 108.5l15 92q-66 -69 -156.5 -108.5t-182.5 -39.5q-169 0 -258.5 90t-66.5 234q19 116 120.5 197.5t269.5 118.5l365 81l2 15q15 92 -47 143.5t-173 53.5q-230 -5 -256 -172l-176 -2q25 158 143.5 247
t313.5 93q186 0 287 -98t74 -265l-113 -713q-145 -44 -214 -89.5t-80 -110.5q-6 -40 16.5 -62.5t66.5 -22.5q42 0 88 20t84 54l47 -109q-117 -97 -251 -97zM237 141q137 0 240.5 93t126.5 234l13 80l-321 -71q-98 -21 -161.5 -68.5t-73.5 -109.5q-11 -72 36.5 -115
t139.5 -43z" />
    <glyph glyph-name="Cacute" unicode="&#x106;" horiz-adv-x="1500" 
d="M1077 2005l-249 -327h-156l220 327h185zM560 -24q-207 0 -357.5 98.5t-216 274t-30.5 395.5t156 395.5t302.5 274t388.5 98.5q202 0 352 -97.5t220 -274.5l-173 -86q-50 136 -161 213t-264 77q-236 0 -414 -167.5t-220 -432.5t83 -432.5t361 -167.5q151 0 285 74.5
t228 207.5l145 -88q-126 -170 -305 -266t-380 -96z" />
    <glyph glyph-name="cacute" unicode="&#x107;" horiz-adv-x="1124" 
d="M773 1569l-247 -325h-155l219 325h183zM358 -26q-150 0 -258.5 71.5t-156 197.5t-22.5 284q38 240 211 397t401 157q146 0 253 -68.5t157 -189.5l-166 -93q-34 86 -104.5 134t-166.5 48q-151 0 -264 -107.5t-140 -277.5q-26 -169 53 -276.5t230 -107.5q96 0 181 48
t146 134l138 -93q-89 -121 -217.5 -189.5t-274.5 -68.5z" />
    <glyph glyph-name="Ccircumflex" unicode="&#x108;" horiz-adv-x="1500" 
d="M844 1885l-186 -207h-171l295 327h161l194 -327h-171zM560 -24q-207 0 -357.5 98.5t-216 274t-30.5 395.5t156 395.5t302.5 274t388.5 98.5q202 0 352 -97.5t220 -274.5l-173 -86q-50 136 -161 213t-264 77q-236 0 -414 -167.5t-220 -432.5t83 -432.5t361 -167.5
q151 0 285 74.5t228 207.5l145 -88q-126 -170 -305 -266t-380 -96z" />
    <glyph glyph-name="ccircumflex" unicode="&#x109;" horiz-adv-x="1124" 
d="M582 1450l-185 -206h-169l293 325h159l192 -325h-169zM358 -26q-150 0 -258.5 71.5t-156 197.5t-22.5 284q38 240 211 397t401 157q146 0 253 -68.5t157 -189.5l-166 -93q-34 86 -104.5 134t-166.5 48q-151 0 -264 -107.5t-140 -277.5q-26 -169 53 -276.5t230 -107.5
q96 0 181 48t146 134l138 -93q-89 -121 -217.5 -189.5t-274.5 -68.5z" />
    <glyph glyph-name="Cdotaccent" unicode="&#x10a;" horiz-adv-x="1500" 
d="M807 1678q-55 0 -86 37t-22 92q8 53 51 90t97 37t84.5 -37t22.5 -90q-9 -55 -51 -92t-96 -37zM560 -24q-207 0 -357.5 98.5t-216 274t-30.5 395.5t156 395.5t302.5 274t388.5 98.5q202 0 352 -97.5t220 -274.5l-173 -86q-50 136 -161 213t-264 77q-236 0 -414 -167.5
t-220 -432.5t83 -432.5t361 -167.5q151 0 285 74.5t228 207.5l145 -88q-126 -170 -305 -266t-380 -96z" />
    <glyph glyph-name="cdotaccent" unicode="&#x10b;" horiz-adv-x="1124" 
d="M544 1244q-54 0 -84.5 36.5t-22.5 91.5q8 53 50.5 89.5t96.5 36.5q53 0 83.5 -36.5t22.5 -89.5q-8 -55 -50.5 -91.5t-95.5 -36.5zM358 -26q-150 0 -258.5 71.5t-156 197.5t-22.5 284q38 240 211 397t401 157q146 0 253 -68.5t157 -189.5l-166 -93q-34 86 -104.5 134
t-166.5 48q-151 0 -264 -107.5t-140 -277.5q-26 -169 53 -276.5t230 -107.5q96 0 181 48t146 134l138 -93q-89 -121 -217.5 -189.5t-274.5 -68.5z" />
    <glyph glyph-name="Ccaron" unicode="&#x10c;" horiz-adv-x="1500" 
d="M1189 2005l-298 -327h-161l-191 327h171l120 -206l188 206h171zM560 -24q-207 0 -357.5 98.5t-216 274t-30.5 395.5t156 395.5t302.5 274t388.5 98.5q202 0 352 -97.5t220 -274.5l-173 -86q-50 136 -161 213t-264 77q-236 0 -414 -167.5t-220 -432.5t83 -432.5
t361 -167.5q151 0 285 74.5t228 207.5l145 -88q-126 -170 -305 -266t-380 -96z" />
    <glyph glyph-name="ccaron" unicode="&#x10d;" horiz-adv-x="1124" 
d="M924 1569l-296 -325h-159l-189 325h169l119 -205l187 205h169zM358 -26q-150 0 -258.5 71.5t-156 197.5t-22.5 284q38 240 211 397t401 157q146 0 253 -68.5t157 -189.5l-166 -93q-34 86 -104.5 134t-166.5 48q-151 0 -264 -107.5t-140 -277.5q-26 -169 53 -276.5
t230 -107.5q96 0 181 48t146 134l138 -93q-89 -121 -217.5 -189.5t-274.5 -68.5z" />
    <glyph glyph-name="Dcaron" unicode="&#x10e;" horiz-adv-x="1333" 
d="M1103 2005l-298 -327h-161l-191 327h171l120 -206l188 206h171zM316 -2h-478l236 1492h478q201 0 347 -96t210 -266t30 -384t-152 -384t-294 -266t-377 -96zM230 1327l-184 -1165l295 -1q227 5 401 168t214 415q40 257 -81 420t-350 163h-295z" />
    <glyph glyph-name="dcaron" unicode="&#x10f;" horiz-adv-x="1182" 
d="M954 1569l-296 -325h-159l-189 325h169l119 -205l187 205h169zM358 -26q-150 0 -258.5 71.5t-156 197.5t-22.5 284q38 240 211 397t401 157q203 0 323 -125l83 522h166l-234 -1478h-166l16 99q-161 -125 -363 -125zM385 143q151 0 264.5 107.5t139.5 276.5
q27 169 -52 277t-231 108q-151 0 -264 -107.5t-140 -277.5q-26 -169 53 -276.5t230 -107.5z" />
    <glyph glyph-name="Emacron" unicode="&#x112;" horiz-adv-x="1118" 
d="M863 1824l-23 -146h-455l23 146h455zM833 167l-26 -167h-969l236 1490h969l-26 -167h-782l-75 -469h685l-26 -167h-685l-83 -520h782z" />
    <glyph glyph-name="emacron" unicode="&#x113;" horiz-adv-x="1198" 
d="M798 1389l-23 -145h-451l23 145h451zM358 -26q-150 0 -258.5 71.5t-156 197.5t-22.5 284q38 240 211 397t401 157q113 0 206 -41.5t151.5 -115.5t82 -175.5t-2.5 -221.5l-4 -22l-6 -37h-864q-4 -144 75 -234.5t214 -90.5q96 0 181 48t146 134l138 -93
q-89 -121 -217.5 -189.5t-274.5 -68.5zM127 625h668q-5 130 -83.5 208.5t-205.5 78.5t-229.5 -78.5t-149.5 -208.5z" />
    <glyph glyph-name="Ebreve" unicode="&#x114;" horiz-adv-x="1118" 
d="M614 1678q-118 0 -187.5 87.5t-49.5 208.5h137q-11 -66 25 -115t96 -49q59 0 112 49t63 115h136q-20 -122 -117 -209t-215 -87zM833 167l-26 -167h-969l236 1490h969l-26 -167h-782l-75 -469h685l-26 -167h-685l-83 -520h782z" />
    <glyph glyph-name="ebreve" unicode="&#x115;" horiz-adv-x="1198" 
d="M566 1244q-117 0 -185.5 87t-48.5 207h136q-11 -66 24.5 -114.5t94.5 -48.5t111 49t63 114h135q-20 -122 -116.5 -208t-213.5 -86zM358 -26q-150 0 -258.5 71.5t-156 197.5t-22.5 284q38 240 211 397t401 157q113 0 206 -41.5t151.5 -115.5t82 -175.5t-2.5 -221.5l-4 -22
l-6 -37h-864q-4 -144 75 -234.5t214 -90.5q96 0 181 48t146 134l138 -93q-89 -121 -217.5 -189.5t-274.5 -68.5zM127 625h668q-5 130 -83.5 208.5t-205.5 78.5t-229.5 -78.5t-149.5 -208.5z" />
    <glyph glyph-name="Edotaccent" unicode="&#x116;" horiz-adv-x="1118" 
d="M610 1678q-54 0 -85.5 37t-22.5 92q8 53 51 90t97 37t84.5 -37t22.5 -90q-9 -55 -51 -92t-96 -37zM833 167l-26 -167h-969l236 1490h969l-26 -167h-782l-75 -469h685l-26 -167h-685l-83 -520h782z" />
    <glyph glyph-name="edotaccent" unicode="&#x117;" horiz-adv-x="1198" 
d="M558 1244q-54 0 -84.5 36.5t-22.5 91.5q8 53 50.5 89.5t96.5 36.5q53 0 83.5 -36.5t22.5 -89.5q-8 -55 -50.5 -91.5t-95.5 -36.5zM358 -26q-150 0 -258.5 71.5t-156 197.5t-22.5 284q38 240 211 397t401 157q113 0 206 -41.5t151.5 -115.5t82 -175.5t-2.5 -221.5l-4 -22
l-6 -37h-864q-4 -144 75 -234.5t214 -90.5q96 0 181 48t146 134l138 -93q-89 -121 -217.5 -189.5t-274.5 -68.5zM127 625h668q-5 130 -83.5 208.5t-205.5 78.5t-229.5 -78.5t-149.5 -208.5z" />
    <glyph glyph-name="Eogonek" unicode="&#x118;" horiz-adv-x="1118" 
d="M598 -425q-97 0 -154 51.5t-43 142.5q11 69 64.5 129t144.5 102h-772l236 1490h969l-26 -167h-782l-75 -469h685l-26 -167h-685l-83 -520h782l-26 -167q-119 -47 -186 -102t-75 -105q-6 -40 16.5 -62.5t67.5 -22.5q42 0 88.5 20t83.5 54l49 -110q-120 -97 -253 -97z" />
    <glyph glyph-name="eogonek" unicode="&#x119;" horiz-adv-x="1198" 
d="M295 -422q-96 0 -152 51.5t-42 141.5q20 127 169 210q-189 31 -286 181.5t-63 364.5q38 240 211 397t401 157q113 0 206 -41.5t151.5 -115.5t82 -175.5t-2.5 -221.5l-4 -22l-6 -37h-864q-4 -144 75 -234.5t214 -90.5q96 0 181 48t146 134l138 -93q-73 -99 -172.5 -163
t-214.5 -85q-100 -44 -155.5 -94t-62.5 -95q-7 -40 15.5 -62.5t66.5 -22.5q42 0 88.5 20t83.5 54l48 -109q-119 -97 -252 -97zM127 625h668q-5 130 -83.5 208.5t-205.5 78.5t-229.5 -78.5t-149.5 -208.5z" />
    <glyph glyph-name="Ecaron" unicode="&#x11a;" horiz-adv-x="1118" 
d="M992 2005l-298 -327h-160l-191 327h170l120 -206l189 206h170zM833 167l-26 -167h-969l236 1490h969l-26 -167h-782l-75 -469h685l-26 -167h-685l-83 -520h782z" />
    <glyph glyph-name="ecaron" unicode="&#x11b;" horiz-adv-x="1198" 
d="M932 1569l-296 -325h-159l-189 325h169l119 -205l187 205h169zM358 -26q-150 0 -258.5 71.5t-156 197.5t-22.5 284q38 240 211 397t401 157q113 0 206 -41.5t151.5 -115.5t82 -175.5t-2.5 -221.5l-4 -22l-6 -37h-864q-4 -144 75 -234.5t214 -90.5q96 0 181 48t146 134
l138 -93q-89 -121 -217.5 -189.5t-274.5 -68.5zM127 625h668q-5 130 -83.5 208.5t-205.5 78.5t-229.5 -78.5t-149.5 -208.5z" />
    <glyph glyph-name="Gcircumflex" unicode="&#x11c;" horiz-adv-x="1500" 
d="M863 1887l-187 -207h-170l295 327h160l194 -327h-170zM560 -24q-207 0 -357.5 98.5t-216 274t-30.5 395.5t156 395.5t302.5 274t388.5 98.5q202 0 352 -97.5t220 -274.5l-173 -86q-50 136 -161 213t-264 77q-236 0 -414 -167.5t-220 -432.5q-41 -262 84 -431t360 -169
q146 0 275 68t220 189l33 216h-504l26 167h673l-124 -784h-167l21 131q-218 -155 -480 -155z" />
    <glyph glyph-name="gcircumflex" unicode="&#x11d;" horiz-adv-x="1171" 
d="M589 1452l-185 -206h-169l293 325h159l192 -325h-169zM290 -428q-157 0 -268 77.5t-148 200.5l164 83q24 -83 94 -139t182 -56q140 0 252.5 87t135.5 229l21 135q-71 -65 -165.5 -101t-196.5 -36q-141 0 -248.5 68.5t-157.5 186.5t-28 258q35 217 206 364t390 147
q104 0 187.5 -38t130.5 -105l19 120h166l-158 -999q-33 -206 -196.5 -344t-381.5 -138zM388 219q151 0 260.5 98t133.5 248t-57 247.5t-230 97.5q-146 0 -256.5 -95t-135.5 -250q-24 -154 55 -250t230 -96z" />
    <glyph glyph-name="Gbreve" unicode="&#x11e;" horiz-adv-x="1500" 
d="M829 1678q-117 0 -186.5 87.5t-49.5 208.5h137q-11 -66 25 -115t95 -49q60 0 113 49t63 115h136q-20 -122 -117.5 -209t-215.5 -87zM560 -24q-207 0 -357.5 98.5t-216 274t-30.5 395.5t156 395.5t302.5 274t388.5 98.5q202 0 352 -97.5t220 -274.5l-173 -86
q-50 136 -161 213t-264 77q-236 0 -414 -167.5t-220 -432.5q-41 -262 84 -431t360 -169q146 0 275 68t220 189l33 216h-504l26 167h673l-124 -784h-167l21 131q-218 -155 -480 -155z" />
    <glyph glyph-name="gbreve" unicode="&#x11f;" horiz-adv-x="1171" 
d="M572 1244q-117 0 -185.5 87t-48.5 207h136q-11 -66 24.5 -114.5t94.5 -48.5t111 49t63 114h135q-20 -122 -116.5 -208t-213.5 -86zM290 -428q-157 0 -268 77.5t-148 200.5l164 83q24 -83 94 -139t182 -56q140 0 251 86.5t137 229.5l21 135q-71 -65 -165.5 -101
t-196.5 -36q-141 0 -248.5 68.5t-157.5 186.5t-28 258q35 217 206 364t390 147q104 0 187.5 -38t130.5 -105l19 120h166l-158 -999q-33 -206 -196.5 -344t-381.5 -138zM388 219q151 0 260.5 98t133.5 248t-57 247.5t-230 97.5q-146 0 -256.5 -95t-135.5 -250
q-24 -154 55 -250t230 -96z" />
    <glyph glyph-name="Gdotaccent" unicode="&#x120;" horiz-adv-x="1500" 
d="M807 1678q-55 0 -86 37t-22 92q8 53 51 90t97 37t84.5 -37t22.5 -90q-9 -55 -51 -92t-96 -37zM560 -24q-207 0 -357.5 98.5t-216 274t-30.5 395.5t156 395.5t302.5 274t388.5 98.5q202 0 352 -97.5t220 -274.5l-173 -86q-50 136 -161 213t-264 77q-236 0 -414 -167.5
t-220 -432.5q-41 -262 84 -431t360 -169q146 0 275 68t220 189l33 216h-504l26 167h673l-124 -784h-167l21 131q-218 -155 -480 -155z" />
    <glyph glyph-name="gdotaccent" unicode="&#x121;" horiz-adv-x="1171" 
d="M568 1244q-54 0 -84.5 36.5t-22.5 91.5q8 53 50.5 89.5t96.5 36.5q53 0 83.5 -36.5t22.5 -89.5q-8 -55 -50.5 -91.5t-95.5 -36.5zM290 -428q-157 0 -268 77.5t-148 200.5l164 83q24 -83 94 -139t182 -56q140 0 251 86.5t137 229.5l21 135q-71 -65 -165.5 -101t-196.5 -36
q-141 0 -248.5 68.5t-157.5 186.5t-28 258q35 217 206 364t390 147q104 0 187.5 -38t130.5 -105l19 120h166l-158 -999q-33 -206 -196.5 -344t-381.5 -138zM388 219q151 0 260.5 98t133.5 248t-57 247.5t-230 97.5q-146 0 -256.5 -95t-135.5 -250q-24 -154 55 -250t230 -96z
" />
    <glyph glyph-name="Itilde" unicode="&#x128;" horiz-adv-x="327" 
d="M333 1678q-31 0 -59.5 9t-43.5 17.5t-40 25.5q-51 36 -84 36q-22 0 -43.5 -18.5t-32.5 -59.5h-143q21 98 87.5 157.5t147.5 59.5q31 0 59.5 -9t42 -17t40.5 -25q51 -36 85 -36q22 0 43.5 19t32.5 61h141q-22 -105 -88.5 -162.5t-144.5 -57.5zM257 1490l-236 -1490h-187
l236 1490h187z" />
    <glyph glyph-name="itilde" unicode="&#x129;" horiz-adv-x="315" 
d="M250 1244q-30 0 -58.5 9t-43.5 17.5t-39 25.5q-51 36 -84 36q-22 0 -43 -18.5t-31 -59.5h-142q21 98 86 157t146 59q31 0 59.5 -9t42.5 -17t39 -25q51 -36 84 -36q22 0 43.5 19t32.5 61h140q-22 -105 -88 -162t-144 -57zM172 1053l-167 -1053h-166l167 1053h166z" />
    <glyph glyph-name="Imacron" unicode="&#x12a;" horiz-adv-x="331" 
d="M443 1824l-23 -146h-455l23 146h455zM259 1490l-236 -1490h-187l236 1490h187z" />
    <glyph glyph-name="imacron" unicode="&#x12b;" horiz-adv-x="315" 
d="M375 1389l-23 -145h-451l23 145h451zM172 1053l-167 -1053h-166l167 1053h166z" />
    <glyph glyph-name="Iogonek" unicode="&#x12e;" horiz-adv-x="330" 
d="M-259 -425q-97 0 -153.5 51.5t-42.5 142.5q14 85 89 154.5t204 109.5l231 1457h187l-236 -1490q-170 -46 -244 -89.5t-86 -116.5q-6 -40 16.5 -63t67.5 -23q42 0 88.5 20t83.5 54l48 -109q-118 -98 -253 -98z" />
    <glyph glyph-name="iogonek" unicode="&#x12f;" horiz-adv-x="307" 
d="M234 1478l-38 -242h-166l38 242h166zM-219 -418q-96 0 -152.5 51.5t-42.5 141.5q12 77 77 142t175 106l163 1030h166l-167 -1053h-22q-113 -45 -176.5 -99t-71.5 -102q-6 -40 16.5 -62.5t66.5 -22.5q90 0 171 74l48 -109q-119 -97 -251 -97z" />
    <glyph glyph-name="Idotaccent" unicode="&#x130;" horiz-adv-x="335" 
d="M189 1678q-54 0 -85.5 37t-22.5 92q8 53 51 90t97 37t85 -37t23 -90q-9 -55 -51.5 -92t-96.5 -37zM261 1490l-236 -1490h-187l236 1490h187z" />
    <glyph glyph-name="dotlessi" unicode="&#x131;" horiz-adv-x="315" 
d="M172 1053l-167 -1053h-166l167 1053h166z" />
    <glyph glyph-name="Omacron" unicode="&#x14c;" horiz-adv-x="1602" 
d="M1112 1824l-23 -146h-455l23 146h455zM560 -24q-207 0 -357.5 98.5t-216 274t-30.5 395.5t156 395.5t302.5 274t388.5 98.5q208 0 358.5 -98.5t216.5 -274t31 -395.5t-156.5 -395.5t-303 -274t-389.5 -98.5zM587 144q237 0 415 167.5t220 432.5q28 175 -19.5 312
t-158.5 212.5t-267 75.5q-236 0 -414 -167.5t-220 -432.5t83 -432.5t361 -167.5z" />
    <glyph glyph-name="omacron" unicode="&#x14d;" horiz-adv-x="1198" 
d="M802 1389l-23 -145h-451l23 145h451zM358 -26q-150 0 -258.5 71.5t-156 197.5t-22.5 284q38 240 211 397t401 157q150 0 259 -71.5t156 -198t22 -284.5q-38 -239 -211 -396t-401 -157zM385 143q151 0 264.5 107.5t139.5 276.5q27 169 -52 277t-231 108
q-151 0 -264 -107.5t-140 -277.5q-26 -169 53 -276.5t230 -107.5z" />
    <glyph glyph-name="Obreve" unicode="&#x14e;" horiz-adv-x="1602" 
d="M826 1678q-117 0 -186.5 87.5t-49.5 208.5h137q-11 -66 25 -115t95 -49q60 0 113 49t63 115h136q-20 -122 -117.5 -209t-215.5 -87zM560 -24q-207 0 -357.5 98.5t-216 274t-30.5 395.5t156 395.5t302.5 274t388.5 98.5q208 0 358.5 -98.5t216.5 -274t31 -395.5
t-156.5 -395.5t-303 -274t-389.5 -98.5zM587 144q237 0 415 167.5t220 432.5q28 175 -19.5 312t-158.5 212.5t-267 75.5q-236 0 -414 -167.5t-220 -432.5t83 -432.5t361 -167.5z" />
    <glyph glyph-name="obreve" unicode="&#x14f;" horiz-adv-x="1198" 
d="M550 1244q-117 0 -185.5 87t-48.5 207h136q-11 -66 24.5 -114.5t94.5 -48.5t111 49t63 114h135q-20 -122 -116.5 -208t-213.5 -86zM358 -26q-150 0 -258.5 71.5t-156 197.5t-22.5 284q38 240 211 397t401 157q150 0 259 -71.5t156 -198t22 -284.5q-38 -239 -211 -396
t-401 -157zM385 143q151 0 264.5 107.5t139.5 276.5q27 169 -52 277t-231 108q-151 0 -264 -107.5t-140 -277.5q-26 -169 53 -276.5t230 -107.5z" />
    <glyph glyph-name="Ohungarumlaut" unicode="&#x150;" horiz-adv-x="1602" 
d="M952 2007l-249 -329h-156l220 329h185zM1236 2007l-251 -329h-156l222 329h185zM560 -24q-207 0 -357.5 98.5t-216 274t-30.5 395.5t156 395.5t302.5 274t388.5 98.5q208 0 358.5 -98.5t216.5 -274t31 -395.5t-156.5 -395.5t-303 -274t-389.5 -98.5zM587 144
q237 0 415 167.5t220 432.5q28 175 -19.5 312t-158.5 212.5t-267 75.5q-236 0 -414 -167.5t-220 -432.5t83 -432.5t361 -167.5z" />
    <glyph glyph-name="ohungarumlaut" unicode="&#x151;" horiz-adv-x="1198" 
d="M720 1571l-247 -327h-155l219 327h183zM1002 1571l-249 -327h-155l221 327h183zM358 -26q-150 0 -258.5 71.5t-156 197.5t-22.5 284q38 240 211 397t401 157q150 0 259 -71.5t156 -198t22 -284.5q-38 -239 -211 -396t-401 -157zM385 143q151 0 264.5 107.5t139.5 276.5
q27 169 -52 277t-231 108q-151 0 -264 -107.5t-140 -277.5q-26 -169 53 -276.5t230 -107.5z" />
    <glyph glyph-name="OE" unicode="&#x152;" horiz-adv-x="2420" 
d="M576 -24q-207 0 -357.5 98.5t-216 274t-30.5 395.5t156 395.5t302.5 274t388.5 98.5q163 0 292 -62t211 -176l34 216h969l-26 -167h-782l-75 -469h685l-26 -167h-685l-83 -520h782l-26 -167h-969l34 214q-117 -114 -266 -176t-312 -62zM603 144q237 0 415 167.5
t220 432.5q28 175 -19.5 312t-158.5 212.5t-267 75.5q-236 0 -414 -167.5t-220 -432.5t83 -432.5t361 -167.5z" />
    <glyph glyph-name="oe" unicode="&#x153;" horiz-adv-x="2120" 
d="M374 -26q-150 0 -258.5 71.5t-156 197.5t-22.5 284q38 240 211 397t401 157q138 0 241.5 -61.5t156.5 -169.5l-1 -7q87 112 210.5 175t264.5 63q150 0 259 -71.5t156 -198t22 -284.5l-4 -22l-6 -37h-864q-4 -144 75 -234.5t214 -90.5q96 0 181 48t146 134l138 -93
q-89 -121 -217.5 -189.5t-274.5 -68.5q-141 0 -245 63t-156 174l-1 -7q-86 -108 -209 -169t-261 -61zM401 143q82 0 153.5 33t122 88.5t83.5 123t46 140.5q10 73 -1.5 140.5t-44.5 122.5t-94.5 88t-143.5 33q-151 0 -264 -107.5t-140 -277.5q-26 -169 53 -276.5t230 -107.5z
M1015 625h668q-5 130 -83.5 208.5t-205.5 78.5t-229.5 -78.5t-149.5 -208.5z" />
    <glyph glyph-name="Rcaron" unicode="&#x158;" horiz-adv-x="1220" 
d="M984 2005l-298 -327h-160l-191 327h170l120 -206l189 206h170zM115 568l-90 -568h-187l236 1490h517q230 0 351 -127.5t88 -334.5q-24 -151 -119 -262t-242 -162l251 -604h-219l-234 568h-352zM565 1323h-330l-93 -587h330q143 0 243 80.5t121 213.5q21 131 -53.5 212
t-217.5 81z" />
    <glyph glyph-name="rcaron" unicode="&#x159;" horiz-adv-x="660" 
d="M657 1569l-296 -325h-159l-189 325h169l119 -205l187 205h169zM103 639l-101 -639h-166l167 1053h166l-10 -61q51 38 122 60.5t146 22.5q40 0 93 -8l-27 -170q-55 13 -90 13q-117 0 -198.5 -74t-101.5 -197z" />
    <glyph glyph-name="Sacute" unicode="&#x15a;" horiz-adv-x="1228" 
d="M937 2005l-249 -327h-156l220 327h185zM418 -24q-212 0 -352 118.5t-169 297.5l180 72q27 -156 122.5 -238t245.5 -82q137 0 233 64.5t112 167.5q15 94 -30 151t-156 91l-255 78q-165 51 -239.5 158.5t-52.5 248.5q28 180 181.5 295.5t362.5 115.5q198 0 328 -106.5
t159 -265.5l-181 -77q-26 137 -112 209t-219 72t-224 -63.5t-108 -168.5q-14 -86 35.5 -151t154.5 -97l240 -74q177 -54 253 -153.5t52 -249.5q-29 -183 -185 -298t-376 -115z" />
    <glyph glyph-name="sacute" unicode="&#x15b;" horiz-adv-x="960" 
d="M675 1552l-247 -325h-155l219 325h183zM269 -23q-151 0 -255.5 79.5t-135.5 218.5l161 76q23 -101 92 -154.5t165 -53.5q89 0 151 41t73 105q7 49 -26.5 81.5t-109.5 55.5l-155 47q-256 78 -221 296q22 138 133.5 222.5t272.5 84.5q142 0 239.5 -74.5t123.5 -204.5
l-160 -72q-20 89 -80 138t-149 49q-82 0 -137.5 -36.5t-65.5 -96.5q-15 -96 123 -141l163 -53q257 -85 223 -300q-22 -136 -140 -222t-285 -86z" />
    <glyph glyph-name="Scircumflex" unicode="&#x15c;" horiz-adv-x="1228" 
d="M661 1885l-187 -207h-170l295 327h160l194 -327h-170zM418 -24q-212 0 -352 118.5t-169 297.5l180 72q27 -156 122.5 -238t245.5 -82q137 0 233 64.5t112 167.5q15 94 -30 151t-156 91l-255 78q-165 51 -239.5 158.5t-52.5 248.5q28 180 181.5 295.5t362.5 115.5
q198 0 328 -106.5t159 -265.5l-181 -77q-26 137 -112 209t-219 72t-224 -63.5t-108 -168.5q-14 -86 35.5 -151t154.5 -97l240 -74q177 -54 253 -153.5t52 -249.5q-29 -183 -185 -298t-376 -115z" />
    <glyph glyph-name="scircumflex" unicode="&#x15d;" horiz-adv-x="960" 
d="M472 1458l-185 -206h-169l293 325h159l192 -325h-169zM269 -23q-151 0 -255.5 79.5t-135.5 218.5l161 76q23 -101 92 -154.5t165 -53.5q89 0 151 41t73 105q7 49 -26.5 81.5t-109.5 55.5l-155 47q-256 78 -221 296q22 138 133.5 222.5t272.5 84.5q142 0 239.5 -74.5
t123.5 -204.5l-160 -72q-20 89 -80 138t-149 49q-82 0 -137.5 -36.5t-65.5 -96.5q-15 -96 123 -141l163 -53q257 -85 223 -300q-22 -136 -140 -222t-285 -86z" />
    <glyph glyph-name="Scedilla" unicode="&#x15e;" horiz-adv-x="1228" 
d="M979 389q-25 -159 -148.5 -268.5t-304.5 -136.5q93 -81 75 -193q-14 -90 -88 -142t-170 -52q-135 0 -223 101l83 106q26 -33 66 -53t84 -20t74 23t36 62q13 85 -113 164q-185 19 -306 133.5t-147 278.5l180 72q27 -156 122.5 -238t245.5 -82q137 0 233 64.5t112 167.5
q15 94 -30 151t-156 91l-255 78q-165 51 -239.5 158.5t-52.5 248.5q28 180 181.5 295.5t362.5 115.5q198 0 328 -106.5t159 -265.5l-181 -77q-26 137 -112 209t-219 72t-224 -63.5t-108 -168.5q-14 -86 35.5 -151t154.5 -97l240 -74q177 -55 253 -154t52 -249z" />
    <glyph glyph-name="scedilla" unicode="&#x15f;" horiz-adv-x="960" 
d="M308 638l163 -53q126 -41 183 -117t40 -183q-18 -112 -101.5 -191t-209.5 -105q96 -81 78 -196q-14 -90 -87 -141.5t-168 -51.5q-134 0 -222 100l82 106q27 -33 67 -53t83 -20t72.5 23t35.5 61q13 86 -113 163q-129 15 -217 92.5t-116 202.5l161 76q23 -101 92 -154.5
t165 -53.5q89 0 151 41t73 105q7 49 -26.5 82t-109.5 55l-155 47q-256 78 -221 296q22 138 133.5 222.5t272.5 84.5q142 0 239.5 -74.5t123.5 -204.5l-160 -72q-20 89 -80 138t-149 49q-82 0 -137.5 -36.5t-65.5 -96.5q-15 -97 123 -141z" />
    <glyph glyph-name="Scaron" unicode="&#x160;" horiz-adv-x="1228" 
d="M997 2005l-298 -327h-160l-191 327h170l120 -206l189 206h170zM418 -24q-212 0 -352 118.5t-169 297.5l180 72q27 -156 122.5 -238t245.5 -82q137 0 233 64.5t112 167.5q15 94 -30 151t-156 91l-255 78q-165 51 -239.5 158.5t-52.5 248.5q28 180 181.5 295.5t362.5 115.5
q198 0 328 -106.5t159 -265.5l-181 -77q-26 137 -112 209t-219 72t-224 -63.5t-108 -168.5q-14 -86 35.5 -151t154.5 -97l240 -74q177 -54 253 -153.5t52 -249.5q-29 -183 -185 -298t-376 -115z" />
    <glyph glyph-name="scaron" unicode="&#x161;" horiz-adv-x="960" 
d="M811 1569l-296 -325h-159l-189 325h169l119 -205l187 205h169zM269 -23q-151 0 -255.5 79.5t-135.5 218.5l161 76q23 -101 92 -154.5t165 -53.5q89 0 151 41t73 105q7 49 -26.5 81.5t-109.5 55.5l-155 47q-256 78 -221 296q22 138 133.5 222.5t272.5 84.5
q142 0 239.5 -74.5t123.5 -204.5l-160 -72q-20 89 -80 138t-149 49q-82 0 -137.5 -36.5t-65.5 -96.5q-15 -96 123 -141l163 -53q257 -85 223 -300q-22 -136 -140 -222t-285 -86z" />
    <glyph glyph-name="Utilde" unicode="&#x168;" horiz-adv-x="1218" 
d="M791 1678q-67 0 -142 52q-51 36 -85 36q-22 0 -43 -18.5t-32 -59.5h-143q21 99 87 158t147 59q31 0 60 -9t41.5 -16.5t40.5 -25.5q53 -36 85 -36q22 0 44 19t33 61h141q-22 -105 -88.5 -162.5t-145.5 -57.5zM368 -24q-243 0 -367 135t-88 361l161 1018h189l-161 -1018
q-22 -142 61.5 -235t231.5 -93q147 0 261.5 93.5t136.5 234.5l161 1018h189l-161 -1018q-36 -225 -203.5 -360.5t-410.5 -135.5z" />
    <glyph glyph-name="utilde" unicode="&#x169;" horiz-adv-x="994" 
d="M575 1244q-30 0 -58.5 9t-43.5 17.5t-39 25.5q-51 36 -84 36q-22 0 -43 -18.5t-31 -59.5h-142q21 98 86 157t146 59q31 0 59.5 -9t42.5 -17t39 -25q51 -36 84 -36q22 0 43.5 19t32.5 61h140q-22 -105 -88 -162t-144 -57zM258 -21q-189 0 -289 109t-73 276l109 689h166
l-101 -639q-20 -123 37.5 -196.5t174.5 -73.5t198.5 74t101.5 196l101 639h167l-167 -1053h-167l10 61q-51 -38 -122.5 -60t-145.5 -22z" />
    <glyph glyph-name="Umacron" unicode="&#x16a;" horiz-adv-x="1218" 
d="M890 1824l-23 -146h-455l23 146h455zM368 -24q-243 0 -367 135t-88 361l161 1018h189l-161 -1018q-22 -142 61.5 -235t231.5 -93q147 0 261.5 93.5t136.5 234.5l161 1018h189l-161 -1018q-36 -225 -203.5 -360.5t-410.5 -135.5z" />
    <glyph glyph-name="umacron" unicode="&#x16b;" horiz-adv-x="994" 
d="M697 1389l-23 -145h-451l23 145h451zM258 -21q-189 0 -289 109t-73 276l109 689h166l-101 -639q-20 -123 37.5 -196.5t174.5 -73.5t198.5 74t101.5 196l101 639h167l-167 -1053h-167l10 61q-51 -38 -122.5 -60t-145.5 -22z" />
    <glyph glyph-name="Ubreve" unicode="&#x16c;" horiz-adv-x="1218" 
d="M623 1678q-117 0 -186.5 87.5t-49.5 208.5h137q-11 -66 25 -115t95 -49q60 0 113 49t63 115h136q-20 -122 -117.5 -209t-215.5 -87zM368 -24q-243 0 -367 135t-88 361l161 1018h189l-161 -1018q-22 -142 61.5 -235t231.5 -93q147 0 261.5 93.5t136.5 234.5l161 1018h189
l-161 -1018q-36 -225 -203.5 -360.5t-410.5 -135.5z" />
    <glyph glyph-name="ubreve" unicode="&#x16d;" horiz-adv-x="994" 
d="M460 1244q-117 0 -185.5 87t-48.5 207h136q-11 -66 24.5 -114.5t94.5 -48.5t111 49t63 114h135q-20 -122 -116.5 -208t-213.5 -86zM258 -21q-189 0 -289 109t-73 276l109 689h166l-101 -639q-20 -123 37.5 -196.5t174.5 -73.5t198.5 74t101.5 196l101 639h167l-167 -1053
h-167l10 61q-51 -38 -122.5 -60t-145.5 -22z" />
    <glyph glyph-name="Uring" unicode="&#x16e;" horiz-adv-x="1218" 
d="M603 1678q-86 0 -137 58.5t-38 144.5q14 84 82.5 142.5t156.5 58.5q87 0 137.5 -58.5t36.5 -142.5q-14 -85 -82.5 -144t-155.5 -59zM622 1802q33 0 60.5 23t32.5 56q5 32 -15 54.5t-53 22.5q-35 0 -61.5 -22t-31.5 -55t14.5 -56t53.5 -23zM368 -24q-243 0 -367 135
t-88 361l161 1018h189l-161 -1018q-22 -142 61.5 -235t231.5 -93q147 0 261.5 93.5t136.5 234.5l161 1018h189l-161 -1018q-36 -225 -203.5 -360.5t-410.5 -135.5z" />
    <glyph glyph-name="uring" unicode="&#x16f;" horiz-adv-x="994" 
d="M449 1244q-85 0 -135.5 58.5t-37.5 143.5q14 84 82 141.5t155 57.5q86 0 136.5 -58t36.5 -141q-14 -84 -82.5 -143t-154.5 -59zM469 1367q33 0 60 23t32 56q5 31 -15 53.5t-53 22.5q-34 0 -60.5 -22t-31.5 -54q-5 -33 15 -56t53 -23zM258 -21q-189 0 -289 109t-73 276
l109 689h166l-101 -639q-20 -123 37.5 -196.5t174.5 -73.5t198.5 74t101.5 196l101 639h167l-167 -1053h-167l10 61q-51 -38 -122.5 -60t-145.5 -22z" />
    <glyph glyph-name="Uhungarumlaut" unicode="&#x170;" horiz-adv-x="1218" 
d="M799 2028l-248 -329h-157l221 329h184zM1083 2028l-250 -329h-156l222 329h184zM368 -24q-243 0 -367 135t-88 361l161 1018h189l-161 -1018q-22 -142 61.5 -235t231.5 -93q147 0 261.5 93.5t136.5 234.5l161 1018h189l-161 -1018q-36 -225 -203.5 -360.5t-410.5 -135.5z
" />
    <glyph glyph-name="uhungarumlaut" unicode="&#x171;" horiz-adv-x="994" 
d="M639 1571l-247 -327h-155l219 327h183zM921 1571l-249 -327h-155l221 327h183zM258 -21q-189 0 -289 109t-73 276l109 689h166l-101 -639q-20 -123 37.5 -196.5t174.5 -73.5t198.5 74t101.5 196l101 639h167l-167 -1053h-167l10 61q-51 -38 -122.5 -60t-145.5 -22z" />
    <glyph glyph-name="Uogonek" unicode="&#x172;" horiz-adv-x="1218" 
d="M368 -24q-243 0 -367 135t-88 361l161 1018h189l-161 -1018q-22 -142 61.5 -235t231.5 -93q147 0 261.5 93.5t136.5 234.5l161 1018h189l-161 -1018q-36 -225 -203.5 -360.5t-410.5 -135.5zM644 -399q-97 0 -153.5 52t-42.5 142q13 86 91.5 156.5t213.5 111.5l100 -37
q-119 -46 -185.5 -101.5t-74.5 -104.5q-6 -40 16.5 -63t66.5 -23q90 0 174 74l47 -109q-118 -98 -253 -98z" />
    <glyph glyph-name="uogonek" unicode="&#x173;" horiz-adv-x="994" 
d="M475 -422q-96 0 -152 51.5t-42 141.5q10 66 73.5 126.5t161.5 102.5l10 61q-51 -38 -122.5 -60t-145.5 -22q-189 0 -289 109t-73 276l109 689h166l-101 -639q-20 -123 37.5 -196.5t174.5 -73.5t198.5 74t101.5 196l101 639h167l-167 -1053q-119 -46 -185 -101t-73 -104
q-7 -40 15.5 -62.5t66.5 -22.5q42 0 88.5 20t83.5 54l48 -109q-119 -97 -252 -97z" />
    <glyph glyph-name="Wcircumflex" unicode="&#x174;" horiz-adv-x="2064" 
d="M1090 1885l-187 -207h-170l295 327h160l194 -327h-170zM990 1224l-540 -1224h-189l-192 1490h190l144 -1209l523 1209h211l141 -1205l526 1205h190l-664 -1490h-189z" />
    <glyph glyph-name="wcircumflex" unicode="&#x175;" horiz-adv-x="1666" 
d="M821 1450l-185 -206h-169l293 325h159l192 -325h-169zM723 790l-369 -790h-154l-201 1053h191l128 -785l362 785h168l112 -782l377 782h191l-537 -1053h-152z" />
    <glyph glyph-name="Ycircumflex" unicode="&#x176;" horiz-adv-x="1357" 
d="M732 1885l-186 -207h-171l295 327h161l194 -327h-171zM645 689l-109 -689h-187l109 689l-397 801h208l311 -625l506 625h208z" />
    <glyph glyph-name="ycircumflex" unicode="&#x177;" horiz-adv-x="1168" 
d="M571 1450l-185 -206h-169l293 325h159l192 -325h-169zM1031 1053l-844 -1481h-186l251 453l-255 1028h194l197 -800l449 800h194z" />
    <glyph glyph-name="Ydieresis" unicode="&#x178;" horiz-adv-x="1357" 
d="M530 1678q-54 0 -85.5 37t-22.5 92q8 53 51 90t97 37t84.5 -37t22.5 -90q-9 -55 -51 -92t-96 -37zM862 1678q-56 0 -87 37t-22 92q8 52 51 89.5t98 37.5q50 0 82.5 -37.5t24.5 -89.5q-8 -53 -51.5 -91t-95.5 -38zM645 689l-109 -689h-187l109 689l-397 801h208l311 -625
l506 625h208z" />
    <glyph glyph-name="Zacute" unicode="&#x179;" horiz-adv-x="1234" 
d="M900 2005l-249 -327h-156l220 327h185zM948 167l-26 -167h-1084l18 116l1015 1207h-774l26 167h1018l-18 -116l-1016 -1207h841z" />
    <glyph glyph-name="zacute" unicode="&#x17a;" horiz-adv-x="955" 
d="M686 1569l-247 -325h-155l219 325h183zM670 166l-26 -166h-806l22 137l694 749h-545l27 167h773l-22 -137l-695 -750h578z" />
    <glyph glyph-name="Zdotaccent" unicode="&#x17b;" horiz-adv-x="1234" 
d="M670 1678q-55 0 -86 37t-22 92q8 53 51 90t97 37q53 0 84 -37t23 -90q-9 -55 -51.5 -92t-95.5 -37zM948 167l-26 -167h-1084l18 116l1015 1207h-774l26 167h1018l-18 -116l-1016 -1207h841z" />
    <glyph glyph-name="zdotaccent" unicode="&#x17c;" horiz-adv-x="955" 
d="M424 1244q-54 0 -84.5 36.5t-22.5 91.5q8 53 50.5 89.5t96.5 36.5q53 0 83.5 -36.5t22.5 -89.5q-8 -55 -50.5 -91.5t-95.5 -36.5zM670 166l-26 -166h-806l22 137l694 749h-545l27 167h773l-22 -137l-695 -750h578z" />
    <glyph glyph-name="Zcaron" unicode="&#x17d;" horiz-adv-x="1234" 
d="M1052 2005l-298 -327h-161l-191 327h171l120 -206l188 206h171zM948 167l-26 -167h-1084l18 116l1015 1207h-774l26 167h1018l-18 -116l-1016 -1207h841z" />
    <glyph glyph-name="zcaron" unicode="&#x17e;" horiz-adv-x="955" 
d="M806 1569l-296 -325h-159l-189 325h169l119 -205l187 205h169zM670 166l-26 -166h-806l22 137l694 749h-545l27 167h773l-22 -137l-695 -750h578z" />
    <glyph glyph-name="circumflex" unicode="&#x2c6;" horiz-adv-x="725" 
d="M366 1518l-184 -206h-170l293 326h159l193 -326h-170z" />
    <glyph glyph-name="caron" unicode="&#x2c7;" horiz-adv-x="725" 
d="M708 1638l-295 -326h-159l-191 326h170l120 -206l185 206h170z" />
    <glyph glyph-name="breve" unicode="&#x2d8;" horiz-adv-x="645" 
d="M293 1312q-117 0 -185.5 87t-48.5 208h137q-11 -66 24 -115t94 -49q60 0 112 49t63 115h135q-19 -122 -116.5 -208.5t-214.5 -86.5z" />
    <glyph glyph-name="dotaccent" unicode="&#x2d9;" horiz-adv-x="334" 
d="M140 1312q-55 0 -85.5 36.5t-22.5 91.5q8 53 50.5 89.5t97.5 36.5q53 0 83.5 -36.5t22.5 -89.5q-8 -54 -50.5 -91t-95.5 -37z" />
    <glyph glyph-name="ring" unicode="&#x2da;" horiz-adv-x="491" 
d="M218 1312q-86 0 -136.5 58.5t-37.5 143.5q13 84 81 141.5t156 57.5q86 0 136.5 -58t37.5 -141q-14 -84 -82.5 -143t-154.5 -59zM237 1435q33 0 60.5 23t32.5 56q5 32 -15 54t-53 22q-34 0 -61 -22t-32 -54q-5 -33 14.5 -56t53.5 -23z" />
    <glyph glyph-name="ogonek" unicode="&#x2db;" horiz-adv-x="542" 
d="M-34 -397q-96 0 -152 52t-42 142q14 86 91.5 155.5t210.5 109.5l101 -36q-119 -46 -185 -101t-73 -104q-7 -40 15.5 -62.5t66.5 -22.5q88 0 172 74l48 -109q-122 -98 -253 -98z" />
    <glyph glyph-name="tilde" unicode="&#x2dc;" horiz-adv-x="720" 
d="M455 1312q-30 0 -58.5 9t-43.5 17.5t-39 25.5q-54 36 -84 36q-22 0 -43 -18.5t-32 -59.5h-142q21 98 87 157t147 59q30 0 58 -8.5t43 -17t40 -25.5q51 -36 84 -36q22 0 43 19t31 61h140q-21 -105 -87 -162t-144 -57z" />
    <glyph glyph-name="hungarumlaut" unicode="&#x2dd;" horiz-adv-x="712" 
d="M414 1640l-247 -328h-155l219 328h183zM696 1640l-249 -328h-155l221 328h183z" />
    <glyph glyph-name="gravecomb" unicode="&#x300;" 
d="M-179 1569l115 -325h-155l-143 325h183z" />
    <glyph glyph-name="acutecomb" unicode="&#x301;" 
d="M-10 1569l-247 -325h-155l219 325h183z" />
    <glyph glyph-name="uni0302" unicode="&#x302;" 
d="M-357 1450l-185 -206h-169l293 325h159l192 -325h-169z" />
    <glyph glyph-name="tildecomb" unicode="&#x303;" 
d="M-278 1244q-30 0 -58.5 9t-43.5 17.5t-39 25.5q-51 36 -84 36q-22 0 -43 -18.5t-31 -59.5h-142q21 98 86 157t146 59q31 0 59.5 -9t42.5 -17t39 -25q51 -36 84 -36q22 0 43.5 19t32.5 61h140q-22 -105 -88 -162t-144 -57z" />
    <glyph glyph-name="uni0304" unicode="&#x304;" 
d="M-54 1389l-23 -145h-451l23 145h451z" />
    <glyph glyph-name="uni0306" unicode="&#x306;" 
d="M-363 1244q-117 0 -185.5 87t-48.5 207h136q-11 -66 24.5 -114.5t94.5 -48.5t111 49t63 114h135q-20 -122 -116.5 -208t-213.5 -86z" />
    <glyph glyph-name="uni0307" unicode="&#x307;" 
d="M-197 1244q-54 0 -84.5 36.5t-22.5 91.5q8 53 50.5 89.5t96.5 36.5q53 0 83.5 -36.5t22.5 -89.5q-8 -55 -50.5 -91.5t-95.5 -36.5z" />
    <glyph glyph-name="uni0308" unicode="&#x308;" 
d="M-535 1244q-54 0 -84.5 36.5t-22.5 91.5q8 53 50.5 89.5t96.5 36.5q53 0 83.5 -36.5t22.5 -89.5q-8 -55 -50.5 -91.5t-95.5 -36.5zM-206 1244q-55 0 -85.5 36.5t-22.5 91.5q8 52 51 89t97 37q50 0 82 -37t24 -89q-8 -53 -51.5 -90.5t-94.5 -37.5z" />
    <glyph glyph-name="uni030A" unicode="&#x30a;" 
d="M-281 1244q-85 0 -135.5 58.5t-37.5 143.5q14 84 82 141.5t155 57.5q86 0 136.5 -58t36.5 -141q-14 -84 -82.5 -143t-154.5 -59zM-261 1367q33 0 60 23t32 56q5 31 -15 53.5t-53 22.5q-34 0 -60.5 -22t-31.5 -54q-5 -33 15 -56t53 -23z" />
    <glyph glyph-name="uni030B" unicode="&#x30b;" 
d="M-300 1571l-247 -327h-155l219 327h183zM-18 1571l-249 -327h-155l221 327h183z" />
    <glyph glyph-name="uni030C" unicode="&#x30c;" 
d="M-15 1569l-296 -325h-159l-189 325h169l119 -205l187 205h169z" />
    <glyph glyph-name="uni0326" unicode="&#x326;" 
d="M-287 -67l-279 -400h-131l195 400h215z" />
    <glyph glyph-name="uni0327" unicode="&#x327;" 
d="M-562 -400q-134 0 -222 100l82 106q27 -33 67 -53t83 -20t72.5 23t35.5 61q8 52 -41 106t-153 100l124 37q113 -41 167 -110.5t40 -156.5q-14 -90 -87 -141.5t-168 -51.5z" />
    <glyph glyph-name="uni0328" unicode="&#x328;" 
d="M-569 -396q-96 0 -152 51.5t-42 141.5q14 86 91.5 155.5t210.5 109.5l100 -36q-119 -46 -185 -101t-73 -104q-7 -40 15.5 -62.5t66.5 -22.5q42 0 88.5 20t83.5 54l48 -109q-119 -97 -252 -97z" />
    <glyph glyph-name="uni0335" unicode="&#x335;" 
d="M-160 734l-26 -166h-802l26 166h802z" />
    <glyph glyph-name="uni0336" unicode="&#x336;" 
d="M-168 728l-24 -156h-1317l24 156h1317z" />
    <glyph glyph-name="Wgrave" unicode="&#x1e80;" horiz-adv-x="2064" 
d="M1157 2005l116 -327h-156l-145 327h185zM990 1224l-540 -1224h-189l-192 1490h190l144 -1209l523 1209h211l141 -1205l526 1205h190l-664 -1490h-189z" />
    <glyph glyph-name="wgrave" unicode="&#x1e81;" horiz-adv-x="1666" 
d="M883 1569l115 -325h-155l-143 325h183zM723 790l-369 -790h-154l-201 1053h191l128 -785l362 785h168l112 -782l377 782h191l-537 -1053h-152z" />
    <glyph glyph-name="Wacute" unicode="&#x1e82;" horiz-adv-x="2064" 
d="M1327 2005l-248 -327h-157l221 327h184zM990 1224l-540 -1224h-189l-192 1490h190l144 -1209l523 1209h211l141 -1205l526 1205h190l-664 -1490h-189z" />
    <glyph glyph-name="wacute" unicode="&#x1e83;" horiz-adv-x="1666" 
d="M1052 1569l-247 -325h-155l219 325h183zM723 790l-369 -790h-154l-201 1053h191l128 -785l362 785h168l112 -782l377 782h191l-537 -1053h-152z" />
    <glyph glyph-name="Wdieresis" unicode="&#x1e84;" horiz-adv-x="2064" 
d="M891 1678q-54 0 -85.5 37t-22.5 92q8 53 51 90t97 37t84.5 -37t22.5 -90q-9 -55 -51 -92t-96 -37zM1223 1678q-56 0 -87 37t-22 92q8 52 51 89.5t98 37.5q50 0 82.5 -37.5t24.5 -89.5q-8 -53 -51.5 -91t-95.5 -38zM990 1224l-540 -1224h-189l-192 1490h190l144 -1209
l523 1209h211l141 -1205l526 1205h190l-664 -1490h-189z" />
    <glyph glyph-name="wdieresis" unicode="&#x1e85;" horiz-adv-x="1666" 
d="M624 1244q-54 0 -84.5 36.5t-22.5 91.5q8 53 50.5 89.5t96.5 36.5q53 0 83.5 -36.5t22.5 -89.5q-8 -55 -50.5 -91.5t-95.5 -36.5zM953 1244q-55 0 -85.5 36.5t-22.5 91.5q8 52 51 89t97 37q50 0 82 -37t24 -89q-8 -53 -51.5 -90.5t-94.5 -37.5zM723 790l-369 -790h-154
l-201 1053h191l128 -785l362 785h168l112 -782l377 782h191l-537 -1053h-152z" />
    <glyph glyph-name="endash" unicode="&#x2013;" horiz-adv-x="1226" 
d="M898 621l-26 -166h-846l26 166h846z" />
    <glyph glyph-name="emdash" unicode="&#x2014;" horiz-adv-x="1693" 
d="M1365 621l-26 -166h-1313l26 166h1313z" />
    <glyph glyph-name="quoteleft" unicode="&#x2018;" horiz-adv-x="678" 
d="M466 1478l-166 -545h-198l228 545h136z" />
    <glyph glyph-name="quoteright" unicode="&#x2019;" horiz-adv-x="678" 
d="M466 1478l-228 -545h-136l166 545h198z" />
    <glyph glyph-name="quotesinglbase" unicode="&#x201a;" horiz-adv-x="678" 
d="M271 244l-229 -545h-136l167 545h198z" />
    <glyph glyph-name="quotedblleft" unicode="&#x201c;" horiz-adv-x="1018" 
d="M466 1478l-166 -545h-198l228 545h136zM806 1478l-166 -545h-198l228 545h136z" />
    <glyph glyph-name="quotedblright" unicode="&#x201d;" horiz-adv-x="1018" 
d="M466 1478l-228 -545h-136l166 545h198zM806 1478l-228 -545h-136l166 545h198z" />
    <glyph glyph-name="quotedblbase" unicode="&#x201e;" horiz-adv-x="1018" 
d="M271 244l-229 -545h-136l167 545h198zM611 244l-229 -545h-136l167 545h198z" />
    <glyph glyph-name="dagger" unicode="&#x2020;" horiz-adv-x="1480" 
d="M741 910l-204 -1289h-186l204 1289h-447l26 166h447l64 402h186l-64 -402h447l-26 -166h-447z" />
    <glyph glyph-name="daggerdbl" unicode="&#x2021;" horiz-adv-x="1480" 
d="M601 23l-64 -402h-186l64 402h-447l26 166h447l114 721h-447l26 166h447l64 402h186l-64 -402h447l-26 -166h-447l-114 -721h447l-26 -166h-447z" />
    <glyph glyph-name="bullet" unicode="&#x2022;" horiz-adv-x="847" 
d="M272 527q-91 0 -143 62.5t-37 154.5q14 88 86 149.5t162 61.5q88 0 139 -61t40 -150l-1 -4q-14 -90 -85.5 -151.5t-160.5 -61.5z" />
    <glyph glyph-name="ellipsis" unicode="&#x2026;" horiz-adv-x="1772" 
d="M199 244l-39 -244h-186l39 244h186zM782 244l-39 -244h-186l39 244h186zM1365 244l-39 -244h-186l39 244h186z" />
    <glyph glyph-name="guilsinglleft" unicode="&#x2039;" horiz-adv-x="821" 
d="M192 538l247 -384h-214l-246 384l368 384h214z" />
    <glyph glyph-name="guilsinglright" unicode="&#x203a;" horiz-adv-x="821" 
d="M540 538l-369 -384h-213l368 384l-246 384h213z" />
    <glyph glyph-name="Euro" unicode="&#x20ac;" horiz-adv-x="1669" 
d="M783 -23q-228 0 -373 140t-167 377h-321l74 166h247q3 39 9 78q5 36 7 47h-233l75 166h207q92 254 284 402.5t433 148.5q190 0 319 -102.5t166 -282.5l-179 -81q-26 141 -115 220t-218 79q-152 0 -288 -106t-213 -278h564l-74 -166h-544q-6 -28 -8 -47q-7 -41 -9 -78h531
l-75 -166h-450q25 -163 125 -257t253 -94q129 0 242 78t186 219l152 -81q-94 -178 -256 -280t-351 -102z" />
    <glyph glyph-name="trademark" unicode="&#x2122;" horiz-adv-x="2134" 
d="M624 1335v-902h-158v902h-276v143h708v-143h-274zM1143 1178v-745h-158v1045h140l340 -486l340 486h139v-1045h-158v742l-310 -438h-25z" />
    <glyph glyph-name="partialdiff" unicode="&#x2202;" horiz-adv-x="1243" 
d="M382 -23q-240 0 -369 158t-89 405q38 245 222.5 402t432.5 157q132 0 263 -41q-44 191 -158 295.5t-279 104.5q-88 0 -222 -48l-5 160q147 54 255 54q101 0 193.5 -36t164.5 -100.5t129 -155.5t87.5 -200.5t40 -235t-13.5 -259.5q-49 -306 -224 -483t-428 -177zM409 143
q164 0 287.5 133.5t160.5 347.5l1 11q13 83 9 219q-155 79 -314 79q-175 0 -300 -109t-154 -286q-26 -169 62.5 -282t247.5 -113z" />
    <glyph glyph-name="summation" unicode="&#x2211;" horiz-adv-x="1173" 
d="M833 166l-26 -166h-893l21 134l474 606l-282 604l21 134h893l-26 -166h-692l266 -572l-448 -574h692z" />
    <glyph glyph-name="minus" unicode="&#x2212;" horiz-adv-x="1326" 
d="M981 829l-28 -176h-846l28 176h846z" />
    <glyph glyph-name="uni2215" unicode="&#x2215;" horiz-adv-x="907" 
d="M909 1478l-905 -1478h-200l905 1478h200z" />
    <glyph glyph-name="uni2219" unicode="&#x2219;" horiz-adv-x="979" 
d="M328 459q-119 0 -187 81.5t-49 201.5q18 116 112 196.5t212 80.5q117 0 184.5 -80.5t50.5 -196.5l-1 -4q-19 -118 -112 -198.5t-210 -80.5z" />
    <glyph glyph-name="radical" unicode="&#x221a;" horiz-adv-x="1620" 
d="M1188 1312l-766 -1312h-160l-198 755h171l139 -553l726 1276h338l-26 -166h-224z" />
    <glyph glyph-name="integral" unicode="&#x222b;" horiz-adv-x="901" 
d="M-130 -389q-56 0 -108 13l25 152q47 -8 108 -8q82 0 142.5 49.5t75.5 141.5l189 1195q26 164 142 256t267 92q49 0 108 -13l-24 -152q-56 8 -109 8q-82 0 -143 -50t-75 -141l-189 -1195q-27 -164 -142.5 -256t-266.5 -92z" />
    <glyph glyph-name="approxequal" unicode="&#x2248;" horiz-adv-x="1478" 
d="M128 782l28 176q136 126 319 126q46 0 88.5 -10.5t64 -20.5t59.5 -30q35 -18 52.5 -26t52.5 -17t71 -9q74 0 157 36t157 100l-28 -176q-135 -126 -314 -126q-47 0 -89 10t-66 20.5t-60 29.5q-33 18 -52.5 27t-54 17.5t-71.5 8.5q-73 0 -157 -36t-157 -100zM63 373l28 177
q139 125 319 125q46 0 88 -10t64.5 -20.5t59.5 -29.5q32 -17 51.5 -26t54 -17.5t70.5 -8.5q74 0 157.5 36t157.5 100l-28 -177q-136 -125 -315 -125q-47 0 -89.5 10t-65 20t-60.5 30q-33 17 -52 26t-53.5 17.5t-71.5 8.5q-73 0 -157 -36t-158 -100z" />
    <glyph glyph-name="notequal" unicode="&#x2260;" horiz-adv-x="1326" 
d="M509 420l-85 -195h-177l86 195h-262l27 176h309l127 290h-390l28 176h437l86 195h176l-85 -195h232l-28 -176h-279l-127 -290h360l-27 -176h-408z" />
    <glyph glyph-name="lessequal" unicode="&#x2264;" horiz-adv-x="1260" 
d="M330 868l559 -356l-30 -192l-754 474l23 149l904 474l-30 -192zM882 166l-26 -166h-924l26 166h924z" />
    <glyph glyph-name="greaterequal" unicode="&#x2265;" horiz-adv-x="1220" 
d="M959 943l-23 -149l-904 -474l30 192l671 356l-558 357l30 192zM882 166l-26 -166h-924l26 166h924z" />
    <glyph glyph-name="uniF8FF" unicode="&#xf8ff;" horiz-adv-x="1860" 
d="M1800 1630v-1869h-1740v1869h1740zM321 205h198v344h687v183h-687v491h687v176h-890v-1186q0 -2 1 -3q0 -5 4 -5zM1338 390h-685v-185h888v1194h-203v-334h-685v-190h685v-485zM1037 -26q11 0 29 4q8 6 12 6q9 0 9 9q0 1 1.5 4.5t1.5 5.5t0.5 5.5t0.5 5.5q0 10 -1 14
l-3 8l-9 9q-5 5 -8 5l-10 2q-13 3 -14 4q-8 5 -13 5t-8 4q-3 6 -3 8q0 10 12 10q7 0 10 -1q2 -1 5.5 -2t5.5 -2q3 -2 5.5 -3t4 -1.5t2.5 -0.5q8 -3 10 -4l14 27q-4 4 -26 11q-15 5 -28 5q-14 0 -26 -6q-1 -1 -5.5 -2.5t-5.5 -2.5q-6 -6 -8 -9q-6 -9 -6 -23q0 -4 2 -10
q1 -5 4 -9t7 -7l7 -5q4 -3 11 -3q2 0 6.5 -2t7.5 -2l6 -1q1 0 2 -1t2.5 -2t2.5 -2l7 -5q4 -3 4 -6q0 -9 -5 -10q-10 -2 -13 -2q-9 0 -24 6q-12 5 -23 14l-13 -26q14 -12 29 -16l6 -2q5 -1 9 -2q10 -2 16 -2zM499 -27q33 0 51 18t21 51q2 20 -11 36q-9 12 -10 13
q-10 10 -13 12q-12 8 -38 8q-17 0 -36 -8q-19 -13 -26 -25q-10 -17 -10 -36q0 -21 10 -35q9 -20 25 -27q15 -7 37 -7zM1349 -27q18 0 30 7q16 10 24 19l-20 19q-4 -4 -17 -10q-5 -4 -17 -4q-11 0 -17 5l-7 6q-1 0 -7 9q-4 5 -4 20q0 13 4 20l14 12q6 5 17 5q12 0 17 -5
q13 -4 17 -12l18 23q-1 2 -10 11q-7 7 -11 7q-8 0 -15 3q-9 3 -16 3q-31 0 -50 -18q-20 -19 -20 -51q0 -23 8 -35q11 -17 27 -27q13 -7 35 -7zM419 107h-98v-130h35v47h59v26h-59v31h63v26zM620 107h-31v-130h33v78l60 -78h31v130h-33v-77zM725 81h42v-104h34v104h39v26
h-115v-26zM919 107h-36l-57 -130h35l10 22h57l9 -22h38zM1098 81h40v-104h34v104h41v26h-115v-26zM1260 107h-33v-130h33v130zM1495 107h-36l-58 -130h38l8 22h61l6 -22h37zM500 2q-16 0 -27 12q-10 11 -10 28q0 13 5 20q1 1 2 3t2 3.5t2 2.5l7 5q7 5 19 5q9 0 19 -5
q9 -5 12 -14q0 -1 2 -4.5t2 -5.5v-20q0 -5 -4 -10q-2 -2 -4 -5l-3 -4.5t-2.5 -3t-2.5 -1.5q-18 -6 -19 -6zM901 73l16 -48h-36zM1476 73l17 -48h-36zM1031 -413q-13 0 -17 4q-10 3 -13 12l-2 6q0 1 -1 2q0 1 -1 3l7 2q4 1 8 1l2 -3q9 -13 17 -13q3 0 9 3t6 7q0 5 -3 8
q-2 2 -17 6q-18 4 -20 7q-8 13 -5 22q5 13 19 16q0 3 13 2q14 -2 20 -9q7 -3 7 -15v-3h-16v3q-5 11 -13 11q-1 0 -2 -1h-3q-9 -5 -9 -11l17 -6q16 -6 23 -13t7 -14q0 -4 -9 -18q-4 -6 -11 -8q-4 -1 -13 -1zM635 -414q-24 0 -33 22q-4 10 -4 20q0 15 3 22q1 3 10 12q5 5 13 8
q6 2 14 2q30 0 36 -29q3 -15 0 -27t-14 -22q-9 -8 -25 -8zM1281 -413q-24 0 -38 27q-3 7 -2 15l2 14q6 21 26 27q2 0 4 1t6 1q15 0 25 -10q5 -5 6 -8l2 -6l-8 -3l-6 -2q-3 0 -4 4q-4 11 -15 11q-9 0 -15 -8q-6 -7 -6 -16q0 -1 0.5 -5t0.5 -7q0 -5 3 -10q4 -11 16 -11
q11 0 16 13l2 5l8 -2q8 -3 8 -4l-2 -6q-11 -20 -29 -20zM1540 -413q-12 0 -20 6q-8 5 -12 14q-10 19 0 45q1 3 5 6.5t5 4.5q4 5 12 7q2 2 13 2q1 0 13 -3q2 -1 10 -8q5 -5 7 -9l1 -4q-2 -2 -9 -3l-8 -2q-1 1 -2 4q-4 9 -14 9q-12 0 -16 -9q-4 -10 -4 -19q0 -11 4 -19
q5 -8 16 -8t16 13q0 3 2 3v2l9 -3l5 -2v-3q0 -2 -2 -6l-3 -7q-11 -11 -28 -11zM112 -377l-8 -36h-9l-9 2l-19 79q0 2 8 2h9l11 -53q2 1 2 5q0 9 5 19q7 15 7 24l2 5h18l8 -27l6 -26q1 0 3 9l3 17q2 4 4 12.5t3 12.5q0 2 7 2q10 0 10 -2q-4 -10 -8 -32q-1 -5 -3.5 -13.5
t-3.5 -12.5l-4 -18v-5h-18v5l-4 10l-6 20l-6 25zM241 -381l-8 -32h-15q-2 2 -4 2l-3 12l-6 28l-6 27l-3 12q0 2 8 2h8q1 0 1 -2q1 -2 1 -7q4 -9 4 -18l6 -26l14 53h20q2 0 2 -2l7 -27l5 -27l13 54q0 2 7 2q9 0 9 -2q0 -1 -0.5 -4.5t-0.5 -5.5l-3 -15q-2 -10 -5 -15l-11 -41
h-7l-9 2l-9 30q0 1 -1 5.5t-1 5.5q0 2 -4 9q0 6 -1 9q-2 -6 -2 -9q-3 -6 -3 -9q0 -8 -3 -11zM377 -353l-15 -58l-10 -2q-8 0 -9 4l-2 12q-1 6 -7 27q-2 6 -4 16t-2 12l-3 12h16l5 -27l8 -26l3 9l11 44h19l8 -27q3 -24 8 -27q0 4 1 7q-1 2 3 20l6 27h8q9 0 9 -2q0 -1 -1 -4.5
t-1 -5.5q0 -3 -2 -15q0 -3 -2 -8t-3 -7l-11 -39l-7 -2h-10l-8 32l-5 21zM526 -393l-1 -18h-15v79q0 2 4 2h52v-14h-40v-19h33v-14h-33v-16zM727 -359v-54h-16v83h16l32 -53v53h15v-81l-7 -2h-8zM849 -344v-69h-17v69h-23v14h65v-14h-25zM907 -411l-8 -2h-7q0 2 -2 2l3 9
l9 22l11 26q1 2 3.5 10t4.5 12q0 2 7 2h9l33 -81q-2 0 -2 -2h-5l-11 2l-6 19h-32zM1135 -344v-69h-17v69h-25v14h65v-14h-23zM1206 -330v-83h-15v83h15zM1358 -411l-9 -2h-6l-2 2q2 3 4 9l7 22q5 14 10 26q2 4 5 11.5t4 10.5q0 2 9 2h9l32 -81q-2 0 -2 -2h-7l-9 2l-7 19h-31
zM1646 -413q-21 0 -30 12q-10 13 -10 29q0 7 8 25q6 14 19 17q17 0 37 -6q14 -4 14 -34q0 -20 -8 -31q-9 -12 -30 -12zM1735 -411l-8 -2h-7v83h25l6 -27l5 -18q2 -6 2 -8l7 24q2 6 4 12.5t3 10t1 4.5v2h26v-83h-17v63l-6 -28l-6 -21l-2 -10v-4h-10l-7 2l-6 30l-10 29v-59z
M637 -399q20 0 20 16v24q0 3 -10 13q-4 4 -9 4q-10 0 -18 -8q-2 -2 -4 -8q-1 -3 -1 -14q0 -12 7 -20q5 -7 15 -7zM1646 -399q7 0 10 4q11 5 11 23q0 21 -11 26q-2 1 -4 3q-1 1 -5 1q-15 0 -18 -9t-3 -21q0 -16 2 -19q5 -8 18 -8zM1377 -358l-8 -20h22l-5 14q-3 6 -3 7
q0 2 -1 3l-1 2zM930 -352l-5 -6l-6 -20h20q-2 5 -4 14q-3 6 -3 7q0 2 -1 3zM471 -395v-16h-16v16h16zM1468 -403l-1 -8h-14v16h15v-8z" />
    <glyph glyph-name="G.ss01" horiz-adv-x="1544" 
d="M576 -24q-207 0 -357.5 98.5t-216 274t-30.5 395.5t156 395.5t302.5 274t388.5 98.5q202 0 352 -97.5t220 -274.5l-173 -86q-50 136 -161 213t-264 77q-236 0 -414 -167.5t-220 -432.5t83 -432.5t361 -167.5q149 0 280.5 70.5t221.5 195.5l33 205h-461l27 168h638
l-65 -412q-115 -195 -297 -295t-404 -100z" />
    <glyph glyph-name="Q.ss01" horiz-adv-x="1633" 
d="M1170 -234l-27 -167h-217q-204 0 -322.5 104.5t-113.5 278.5q-182 20 -311 122t-184.5 269t-22.5 371q35 220 156 395.5t302.5 274t388.5 98.5q208 0 358.5 -98.5t216.5 -274t31 -395.5q-33 -205 -141 -372.5t-271 -269.5t-353 -121q8 -99 86.5 -157t206.5 -58h217z
M603 144q237 0 415 167.5t220 432.5q28 175 -19.5 312t-158.5 212.5t-267 75.5q-236 0 -414 -167.5t-220 -432.5t83 -432.5t361 -167.5z" />
    <glyph glyph-name="g.001" horiz-adv-x="1201" 
d="M306 -428q-157 0 -268 77.5t-148 200.5l164 83q24 -83 94 -139t182 -56q140 0 251 86.5t137 229.5l21 135q-71 -65 -165.5 -101t-196.5 -36q-141 0 -248.5 68.5t-157.5 186.5t-28 258q35 217 206 364t390 147q104 0 187.5 -38t130.5 -105l19 120h166l-158 -999
q-33 -206 -196.5 -344t-381.5 -138zM404 219q151 0 260.5 98t133.5 248t-57 247.5t-230 97.5q-146 0 -256.5 -95t-135.5 -250q-24 -154 55 -250t230 -96z" />
    <glyph glyph-name="uni030C.alt" 
d="M-42 1478l-115 -481h-131l37 481h209z" />
    <glyph glyph-name="uni0335.alt" 
d="M-161 728l-24 -156h-607l24 156h607z" />
    <glyph glyph-name="_FSHallmark" horiz-adv-x="1728" 
d="M1668 1375v-190h-1604v190h1604zM1322 287q-75 0 -132 18q-98 25 -161 98.5t-63 173.5l186 -4q0 -8 12 -32q3 -25 26.5 -49t47.5 -31q33 -20 92 -20q67 0 104 22q34 20 34 52q0 59 -152 88q-134 39 -234 88q-96 48 -96 158q0 86 55 137.5t149 86.5q2 0 52 7t80 7
q75 0 180 -38q68 -24 109 -85.5t41 -134.5h-192q0 42 -50 78q-5 1 -20.5 9t-25.5 9q-7 1 -22.5 5.5t-23.5 4.5q-44 0 -90 -28q-38 -23 -38 -58q0 -63 36 -78q2 -1 20 -9t32.5 -12.5t29.5 -6.5l72 -20l58 -14q7 -1 27 -6.5t31 -5.5q37 -9 44 -14l40 -18q38 -24 62 -52
q22 -51 24 -88q3 -41 -20 -94q-80 -144 -324 -144zM274 545v-258h-210v798h674v-180h-464v-182h388v-178h-388zM816 291q-32 0 -62 30q-34 28 -34 64t30 66q26 26 66 26q47 0 78 -28q32 -29 32 -64q0 -38 -32 -70q-36 -24 -78 -24zM1666 189v-190h-1606v190h1606z" />
    <glyph glyph-name="_Fontastica" horiz-adv-x="1338" 
d="M262 536v-340h-196q-3 0 -4.5 2t-1.5 4v2v1178h884v-174h-682v-490h682v-182h-682zM1278 1382v-1186h-884v184h682v482h-682v188h682v332h202zM252 2q-9 0 -36 8q-15 4 -25.5 22.5t-10.5 35.5q0 28 21.5 47t50.5 19q21 0 32.5 -7.5t25.5 -26.5q10 -13 10 -32
q0 -28 -20 -47t-48 -19zM770 2q-35 0 -60 20l14 26q20 -20 46 -20q16 0 16 12q0 1 -2 3.5t-2 4.5l-6 4q-6 0 -14 4q-5 3 -13 3.5t-11 2.5q-20 13 -20 34q0 38 52 38q24 0 52 -14l-14 -28q-16 16 -50 16q-2 0 -2 -2l-2 -8q0 -1 1 -3t1 -3q0 -2 1.5 -3.5l2.5 -2.5h2
q3 0 7.5 -2t6.5 -2q15 0 30.5 -12.5t15.5 -27.5q0 -19 -16 -29.5t-36 -10.5zM1068 2q-18 0 -34 8q-15 7 -24.5 24t-9.5 34q0 14 10.5 33.5t23.5 24.5q20 8 34 8q18 0 30 -6t22 -16l-20 -24q-3 5 -13.5 11.5t-16.5 6.5q-18 0 -30 -18q-4 -6 -4 -20q0 -24 16 -32q12 -6 18 -6
q5 0 16.5 6t13.5 10l20 -20q-18 -24 -52 -24zM112 50v-46h-34v128h96v-26h-62v-30h58v-26h-58zM368 80v-76h-32v128h30l58 -78v78h32v-128h-30zM542 104v-100h-34v100h-38v28h108v-28h-36zM608 28l-8 -24h-34l54 128h34l54 -128h-36l-8 24h-56zM898 104v-100h-32v100h-38v28
h108v-28h-38zM984 132v-128h-34v128h34zM1164 28l-10 -24h-34l56 128h34l54 -128h-36l-10 24h-54zM252 28q14 0 24 12.5t10 27.5q0 13 -10.5 25.5t-23.5 12.5q-8 0 -20 -6q-16 -8 -16 -32q0 -17 9.5 -28.5t26.5 -11.5zM654 52l-18 46l-18 -46h36zM1208 52l-18 46l-16 -46h34
z" />
    <glyph glyph-name="_www.fontastica.com" horiz-adv-x="3906" 
d="M132 627v-120h-68l-4 2v418h316v-62h-244v-174h244v-64h-244zM494 927v-420h-316v64h244v172h-244v66h244v118h72zM2500 541q-41 0 -86.5 15.5t-75.5 40.5l36 72q22 -19 61 -36.5t65 -17.5q16 0 32 8q14 7 14 22t-10 20q-18 12 -58 24q-55 17 -62 20q-26 11 -40 30
q-14 20 -14 56q0 53 40.5 80.5t97.5 27.5q74 0 140 -40l-34 -72q-70 36 -114 36q-36 0 -36 -24q0 -27 66 -44q45 -10 62 -20q28 -16 40 -32q16 -22 16 -58q0 -54 -41 -81t-99 -27zM1086 539q-79 0 -133.5 51.5t-54.5 130.5t54 129.5t134 50.5t134 -50.5t54 -129.5
t-53.5 -130.5t-134.5 -51.5zM3312 539q-77 0 -129.5 52.5t-52.5 129.5q0 78 53.5 129t132.5 51q86 0 140 -60l-52 -64q-34 46 -86 46q-43 0 -69.5 -28.5t-26.5 -71.5q0 -33 12 -52q31 -50 84 -50q46 0 86 40l54 -56q-66 -66 -146 -66zM708 671v-124h-90v348h260v-72h-170
v-78h156v-74h-156zM1406 755v-208h-86v348h80l160 -210l-2 210h86v-348h-80zM1876 821v-274h-90v274h-104v74h300v-74h-106zM2062 607l-24 -60h-94l150 348h94l146 -348h-96l-24 60h-152zM2852 821v-274h-92v274h-104v74h300v-74h-104zM3084 895v-348h-90v348h90zM3574 607
l-24 -60h-94l150 348h94l146 -348h-98l-22 60h-152zM1088 617q40 0 67 31.5t27 72.5q0 15 -14 52q-19 50 -80 50q-43 0 -69.5 -29t-26.5 -73q0 -42 27 -73t69 -31zM2186 677l-46 126l-50 -126h96zM3698 677l-48 126l-48 -126h96z" />
    </font>
</defs>
</svg>
