<?xml version="1.0" standalone="no"?>
<!DOCTYPE svg PUBLIC "-//W3C//DTD SVG 1.1//EN" "http://www.w3.org/Graphics/SVG/1.1/DTD/svg11.dtd" >
<svg xmlns="http://www.w3.org/2000/svg" xmlns:xlink="http://www.w3.org/1999/xlink" version="1.1">
<metadata>
Created by FontForge 20170731 at Mon Jan 25 19:12:42 2021
 By Aleksey,,,
Copyright (c) 2021 by Fontastica. All rights reserved.
</metadata>
<defs>
<font id="LuxoraGrotesk-HeavyItalic" horiz-adv-x="0" >
  <font-face 
    font-family="Luxora Grotesk Heavy"
    font-weight="900"
    font-style="italic"
    font-stretch="normal"
    units-per-em="2048"
    panose-1="0 0 10 0 0 0 0 0 0 0"
    ascent="1638"
    descent="-410"
    x-height="1111"
    cap-height="1512"
    bbox="-1567 -455 3846 2162"
    underline-thickness="50"
    underline-position="-150"
    slope="-9"
    unicode-range="U+000D-F8FF"
  />
<missing-glyph horiz-adv-x="1347" 
d="M1299 1500l-238 -1500h-1151l238 1500h1151zM915 1289h-448l168 -341zM1008 1073l-268 -322l166 -320zM465 751l-161 315l-100 -628zM744 214l-171 341l-281 -342z" />
    <glyph glyph-name=".notdef" horiz-adv-x="1347" 
d="M1299 1500l-238 -1500h-1151l238 1500h1151zM915 1289h-448l168 -341zM1008 1073l-268 -322l166 -320zM465 751l-161 315l-100 -628zM744 214l-171 341l-281 -342z" />
    <glyph glyph-name=".null" 
 />
    <glyph glyph-name="nonmarkingreturn" horiz-adv-x="682" 
 />
    <glyph glyph-name="CR" unicode="&#xd;" horiz-adv-x="333" 
 />
    <glyph glyph-name="space" unicode=" " horiz-adv-x="486" 
 />
    <glyph glyph-name="exclam" unicode="!" horiz-adv-x="759" 
d="M561 1502l-188 -1120h-338l167 1120h359zM381 370l-59 -370h-358l59 370h358z" />
    <glyph glyph-name="quotedbl" unicode="&#x22;" horiz-adv-x="1006" 
d="M473 1490l-94 -595h-263l94 595h263zM796 1490l-94 -595h-262l94 595h262z" />
    <glyph glyph-name="numbersign" unicode="#" horiz-adv-x="1654" 
d="M437 347l-159 -347h-365l160 347h-194l47 299h284l96 209h-195l48 298h283l160 349h364l-159 -349h176l159 349h364l-160 -349h195l-48 -298h-284l-96 -209h195l-47 -299h-284l-160 -347h-364l159 347h-175zM846 855h-177l-95 -209h175z" />
    <glyph glyph-name="dollar" unicode="$" horiz-adv-x="1422" 
d="M653 -10l-26 -167h-339l29 183q-123 35 -211 112.5t-131 177.5q-10 22 -17 45t-15.5 61t-10.5 47l-4 18l346 135l5 -29l3 -19q25 -142 89 -207l46 290q-71 23 -122 50q-122 66 -175.5 167.5t-33.5 222.5q24 153 148.5 274t320.5 157l30 193h339l-32 -203
q158 -46 249 -156.5t112 -249.5l3 -17l-343 -141l-6 29q-20 95 -33 128q-19 41 -36 62l-46 -285l17 -6q192 -61 278.5 -167t60.5 -268q-26 -160 -157.5 -281.5t-337.5 -155.5zM473 989l30 194q-49 -36 -58 -96q-9 -58 28 -98zM739 531l-35 -224q73 37 85 108q12 78 -50 116z
" />
    <glyph glyph-name="percent" unicode="%" horiz-adv-x="2161" 
d="M1288 -22q-82 0 -149.5 24.5t-111 65.5t-71.5 93t-36.5 108t0.5 110l1 4l-242 -383h-385l516 816q-131 -98 -298 -98q-82 0 -150 24.5t-112 65t-72 93t-36.5 109t0.5 111.5t35 111t70.5 108.5t101.5 93t132.5 65t157.5 24.5q100 0 177.5 -36.5t120.5 -95t61.5 -127
t9.5 -136.5l236 374h385l-523 -825q136 104 309 104q102 0 181 -37t122 -96.5t60.5 -129t6.5 -139.5q-9 -55 -35 -111t-70.5 -108t-101.5 -92.5t-132.5 -65t-157.5 -24.5zM559 1018q36 0 69.5 32.5t39.5 70.5q5 37 -17.5 70t-58.5 33q-37 0 -71 -32.5t-39 -70.5
q-6 -39 16.5 -71t60.5 -32zM1335 278q39 0 71 31t38 70t-16 70.5t-61 31.5q-37 0 -70 -32t-39 -70t17 -69.5t60 -31.5z" />
    <glyph glyph-name="ampersand" unicode="&#x26;" horiz-adv-x="2006" 
d="M471 -22q-156 0 -267 61.5t-157 159t-28 212.5q22 139 119 242.5t264 185.5q-94 137 -71 285q12 74 54.5 145t108.5 128t160 91.5t199 34.5q103 0 183.5 -33.5t126.5 -88.5t64.5 -123.5t7.5 -141.5q-19 -119 -104 -209t-228 -162l140 -165l231 183h441l-488 -396
l331 -387h-456l-142 169q-117 -88 -235.5 -139.5t-253.5 -51.5zM719 981q79 35 124 71t53 84q7 47 -15 77t-72 30q-54 0 -93 -35t-47 -84q-10 -59 50 -143zM518 278q104 0 257 111l-195 230q-183 -83 -203 -208q-10 -63 25.5 -98t115.5 -35z" />
    <glyph glyph-name="quotesingle" unicode="'" horiz-adv-x="682" 
d="M473 1490l-94 -595h-263l94 595h263z" />
    <glyph glyph-name="parenleft" unicode="(" horiz-adv-x="1026" 
d="M636 -215l21 -34h-353l-8 6q-11 10 -20 22q-50 65 -90 144q-164 311 -103 704q63 396 326 704q36 42 155 161l11 10h363l-33 -35q-119 -128 -186 -219q-227 -302 -278 -621q-50 -322 80 -624q31 -71 115 -218z" />
    <glyph glyph-name="parenright" unicode=")" horiz-adv-x="1030" 
d="M180 -244l-9 -5h-356l59 60q181 187 295 395t147 421q50 316 -81 621q-30 69 -116 220l-20 34h359l7 -10q78 -109 107 -161q56 -103 86 -224t31.5 -239t-16.5 -241q-62 -395 -324 -704q-42 -50 -137 -143q-20 -18 -32 -24z" />
    <glyph glyph-name="asterisk" unicode="*" horiz-adv-x="1164" 
d="M596 662l-116 184l-174 -184l-214 167l175 187l-201 70l130 262l200 -68l34 217h305l-34 -217l223 67l46 -261l-224 -70l116 -187z" />
    <glyph glyph-name="plus" unicode="+" horiz-adv-x="1370" 
d="M719 599l-49 -308h-347l49 308h-323l49 307h323l48 307h347l-48 -307h320l-49 -307h-320z" />
    <glyph glyph-name="comma" unicode="," horiz-adv-x="886" 
d="M500 370l-277 -583h-303l196 583h384z" />
    <glyph glyph-name="hyphen" unicode="-" horiz-adv-x="1240" 
d="M926 716l-47 -298h-859l47 298h859z" />
    <glyph glyph-name="period" unicode="." horiz-adv-x="777" 
d="M391 370l-59 -370h-358l59 370h358z" />
    <glyph glyph-name="slash" unicode="/" horiz-adv-x="1176" 
d="M1138 1502l-950 -1502h-384l951 1502h383z" />
    <glyph glyph-name="zero" unicode="0" horiz-adv-x="1583" 
d="M553 -22q-102 0 -188 28t-144 73.5t-101.5 108t-67 126.5t-34.5 133q-21 140 5 305q29 180 99 322q42 86 103 161.5t143.5 142.5t193.5 106t234 39q100 0 184 -26.5t142 -69.5t102 -102.5t68.5 -121t36.5 -129.5q25 -145 -3 -322q-29 -183 -99 -323q-34 -68 -77.5 -129.5
t-106 -121.5t-133.5 -103.5t-163.5 -70t-193.5 -26.5zM601 286q56 0 107 24t89.5 64t66.5 83t49 91q38 89 57 204q19 114 6 214q-7 47 -22 88t-40.5 79.5t-68 60.5t-97.5 22q-54 0 -103 -22.5t-86.5 -61t-65.5 -79.5t-49 -87q-42 -89 -63 -214q-19 -116 -7 -204
q5 -47 19.5 -90.5t40 -83.5t69 -64t98.5 -24z" />
    <glyph glyph-name="one" unicode="1" horiz-adv-x="978" 
d="M681 1502l-238 -1502h-359l191 1203h-260l47 299h619z" />
    <glyph glyph-name="two" unicode="2" horiz-adv-x="1363" 
d="M1055 298l-47 -298h-1110l33 208l477 413q5 4 149 134q47 43 77.5 74t65.5 72.5t55 81.5t26 80q27 162 -142 162q-60 0 -108.5 -18.5t-84 -53t-60 -72.5t-46.5 -89l-14 -31l-288 137l9 17q1 3 5 11.5t7 13.5q32 67 72 118q93 119 240 192t315 73q124 0 219.5 -39.5
t149.5 -104.5t75.5 -146.5t7.5 -169.5q-10 -62 -40.5 -126t-66.5 -115t-95 -113t-101.5 -101t-109.5 -98l-242 -212h572z" />
    <glyph glyph-name="three" unicode="3" horiz-adv-x="1374" 
d="M448 -22q-168 0 -289.5 70.5t-180.5 188.5q-18 33 -29 74q-1 5 -18 74l-3 17l321 134l8 -26q3 -9 8.5 -31.5t11 -39t12.5 -31.5q27 -59 79.5 -94.5t126.5 -35.5q102 0 165.5 60.5t77.5 148.5q14 86 -32.5 146t-146.5 60q-30 0 -87.5 -6t-64.5 -7l-57 -5l37 221l299 306
l-545 1l47 299h1014l-38 -239l-307 -313q94 -43 154 -122t79 -166t5 -175q-12 -76 -46 -148.5t-91 -138t-131 -115t-172 -78.5t-207 -29z" />
    <glyph glyph-name="four" unicode="4" horiz-adv-x="1422" 
d="M956 314l-50 -314h-339l50 314h-723l36 229l925 959h289l-142 -899h179l-46 -289h-179zM663 603l51 326l-311 -326h260z" />
    <glyph glyph-name="five" unicode="5" horiz-adv-x="1401" 
d="M462 -22q-213 0 -346.5 103t-175.5 262q-1 4 -3.5 18.5t-4.5 22.5l-4 17l320 140l6 -30q17 -77 37 -112q31 -54 88 -87.5t130 -33.5q106 0 175 63.5t83 153.5q15 92 -34 154.5t-157 62.5q-59 0 -112.5 -21t-87.5 -59q-4 -4 -44 -55l-19 -25l-219 127l215 825h915
l-47 -299h-618l-53 -203q64 11 122 11q138 0 243.5 -45t164 -119t81.5 -165.5t7 -188.5q-15 -98 -67 -189t-134 -165t-202 -118.5t-259 -44.5z" />
    <glyph glyph-name="six" unicode="6" horiz-adv-x="1302" 
d="M411 -22q-92 0 -169 22t-129.5 60.5t-92 90t-57 110t-24.5 120.5t5 122q9 58 31 116.5t61.5 122t67.5 104t80 110.5l410 546h403l-392 -507q118 -6 211 -55t145 -122.5t73.5 -160t8.5 -170.5q-15 -92 -64.5 -180.5t-127.5 -163t-193 -120t-247 -45.5zM458 278
q92 0 153.5 63t74.5 146t-28.5 144.5t-133.5 61.5q-90 0 -151 -62t-74 -144t28 -145.5t131 -63.5z" />
    <glyph glyph-name="seven" unicode="7" horiz-adv-x="1196" 
d="M1097 1268l-809 -1268h-380l770 1205h-643l47 299h1054l-35 -222q-1 -3 -2.5 -8t-1.5 -6z" />
    <glyph glyph-name="eight" unicode="8" horiz-adv-x="1403" 
d="M462 -22q-133 0 -238 41t-167 110t-88 157t-11 184q16 101 77.5 195.5t161.5 163.5q-90 113 -66 264q13 83 60.5 160t121 137t176 96.5t217.5 36.5q117 0 208 -36t144.5 -96t75.5 -137t9 -161q-24 -151 -148 -264q79 -68 110.5 -163t15.5 -196q-15 -96 -69 -184
t-137.5 -157t-201.5 -110t-251 -41zM617 961q66 0 112 38t55 94t-24.5 94t-100.5 38t-113.5 -38t-55.5 -94q-9 -57 25.5 -94.5t101.5 -37.5zM509 278q102 0 172.5 55t82.5 137q13 83 -39.5 138t-154.5 55q-101 0 -171 -55.5t-83 -137.5q-12 -81 40 -136.5t153 -55.5z" />
    <glyph glyph-name="nine" unicode="9" horiz-adv-x="1302" 
d="M880 546l-405 -546h-403l391 507q-95 5 -174.5 38t-132 84.5t-86.5 116t-45 133.5t0 136q14 91 63.5 179.5t127.5 163t193 120t246 45.5q93 0 170.5 -22t130 -60.5t92 -90t57 -110t24.5 -121t-5 -122.5q-17 -108 -92 -234q-47 -79 -152 -217zM542 809q92 0 153.5 61.5
t74.5 144.5t-28.5 146.5t-133.5 63.5q-90 0 -151 -63.5t-74 -146.5q-13 -82 27.5 -144t131.5 -62z" />
    <glyph glyph-name="colon" unicode=":" horiz-adv-x="777" 
d="M511 1133l-58 -370h-358l58 370h358zM391 370l-59 -370h-358l59 370h358z" />
    <glyph glyph-name="semicolon" unicode=";" horiz-adv-x="906" 
d="M615 1133l-58 -370h-359l58 370h359zM520 370l-277 -583h-303l196 583h384z" />
    <glyph glyph-name="less" unicode="&#x3c;" horiz-adv-x="1310" 
d="M506 755l474 -289l-56 -352l-889 534l34 216l1058 532l-56 -352z" />
    <glyph glyph-name="equal" unicode="=" horiz-adv-x="1470" 
d="M1171 1120l-48 -308h-990l48 308h990zM1104 693l-49 -308h-990l49 308h990z" />
    <glyph glyph-name="greater" unicode="&#x3e;" horiz-adv-x="1270" 
d="M1043 864l-34 -216l-1059 -534l56 352l566 289l-475 289l56 352z" />
    <glyph glyph-name="question" unicode="?" horiz-adv-x="1257" 
d="M542 409l-3 -17h-301l13 84q10 61 35 116t65 103t75 82t87 77q42 33 83 68q40 33 72 66q69 69 80 136q10 64 -25 99t-111 35q-148 0 -235 -125q-16 -23 -59 -112l-11 -21l-236 115l5 12q72 168 223.5 279t353.5 111t312.5 -112.5t83.5 -280.5q-17 -106 -81.5 -187.5
t-183.5 -181.5q-30 -24 -81 -67q-41 -34 -72 -70q-49 -53 -66 -99q-10 -29 -12 -48q-8 -36 -11 -62zM535 333l-53 -333h-300l53 333h300z" />
    <glyph glyph-name="at" unicode="@" horiz-adv-x="1950" 
d="M721 -122q-265 0 -451.5 129.5t-252.5 338.5q-52 162 -22 352q28 187 134 350q133 208 360.5 338.5t490.5 130.5q262 0 448 -132t253 -339q53 -166 25 -348q-10 -62 -31 -122.5t-59.5 -122.5t-89.5 -108.5t-125.5 -75.5t-162.5 -29q-150 0 -228 90q-121 -79 -274 -79
q-109 0 -192.5 40.5t-129 106t-63 145.5t-4.5 163t56 163t110 146.5t163 107.5t204 41t190 -47l4 28h199q-132 113 -334 113q-182 0 -331.5 -89t-237.5 -236q-65 -112 -84 -235q-20 -127 10 -237q40 -147 162 -235.5t304 -88.5q161 0 336 86l22 11l88 -226l-13 -8
q-11 -7 -35 -19q-214 -103 -439 -103zM1293 497q47 0 83 75q24 48 37 126q34 223 -72 373l-79 -497q-6 -32 0 -54q8 -23 31 -23zM783 509q83 0 140 60.5t69 138.5t-25.5 135.5t-121.5 57.5q-82 0 -138.5 -59t-68.5 -136q-12 -76 25.5 -136.5t119.5 -60.5z" />
    <glyph glyph-name="A" unicode="A" horiz-adv-x="1654" 
d="M430 376l-199 -376h-377l820 1512h312l342 -1512h-378l-77 376h-443zM808 675l-63 296l-157 -296h220z" />
    <glyph glyph-name="B" unicode="B" horiz-adv-x="1421" 
d="M541 0h-687l239 1512h687q118 0 209 -37.5t141.5 -100.5t71 -140.5t7.5 -160.5q-25 -161 -151 -277q70 -67 96.5 -156t11.5 -185q-32 -200 -197 -327.5t-428 -127.5zM721 1213h-316l-45 -284h316q70 0 112 36.5t51 97.5q10 62 -21 106t-97 44zM641 629h-328l-53 -330h328
q93 0 147 41t65 115q13 78 -27 126t-132 48z" />
    <glyph glyph-name="C" unicode="C" horiz-adv-x="1679" 
d="M635 -23q-129 0 -239 34.5t-188.5 95t-132.5 137.5t-82 167q-49 159 -19 344q28 185 128 345q119 190 323 311.5t457 121.5q188 0 331 -72t228 -196q68 -94 81 -161l2 -16l-331 -157l-8 28q-25 78 -48 116q-45 72 -123.5 114.5t-179.5 42.5q-145 0 -258.5 -77.5
t-176.5 -197.5q-48 -89 -66 -202q-18 -109 2 -201q25 -120 113.5 -197.5t234.5 -77.5q196 0 350 154q35 35 89 112l19 27l275 -162l-10 -16q-3 -7 -19 -29q-54 -73 -108 -124q-126 -121 -293 -192.5t-351 -71.5z" />
    <glyph glyph-name="D" unicode="D" horiz-adv-x="1493" 
d="M400 -2h-546l239 1514h546q164 0 303 -58q75 -32 135.5 -79.5t100 -103t67.5 -120t39 -130t13 -134t-10 -132.5q-13 -80 -41 -159.5t-75.5 -160t-110.5 -149.5t-150 -129t-189 -99q-158 -60 -321 -60zM445 293q61 0 132 23q78 24 142.5 73t106.5 110.5t68.5 126
t37.5 129.5q16 105 -3 196q-25 116 -110.5 191t-226.5 75h-191l-146 -923q32 0 95.5 -0.5t94.5 -0.5z" />
    <glyph glyph-name="E" unicode="E" horiz-adv-x="1287" 
d="M1009 299l-47 -299h-1108l239 1512h1108l-47 -299h-749l-45 -284h656l-47 -300h-656l-53 -330h749z" />
    <glyph glyph-name="F" unicode="F" horiz-adv-x="1287" 
d="M313 629l-100 -629h-359l239 1512h1108l-47 -299h-749l-45 -284h656l-47 -300h-656z" />
    <glyph glyph-name="G" unicode="G" horiz-adv-x="1679" 
d="M635 -23q-135 0 -248.5 37t-192.5 101.5t-131 146t-77 176.5q-39 147 -12 317q27 171 113 317q56 96 133.5 177t176 145.5t224 101.5t261.5 37q191 0 333.5 -73t230.5 -200q63 -91 76 -156l2 -16l-330 -157l-9 28l-12 35q-36 105 -122.5 171.5t-216.5 66.5
q-135 0 -243 -68t-176 -177q-63 -104 -82 -232q-21 -123 9 -230q33 -109 120 -177.5t221 -68.5q165 0 299 105q1 1 39 36l20 21l15 14l17 111h-483l47 299h825l-137 -865h-340l8 50q-174 -73 -358 -73z" />
    <glyph glyph-name="H" unicode="H" horiz-adv-x="1439" 
d="M313 629l-100 -629h-359l239 1512h359l-92 -583h542l92 583h358l-239 -1512h-358l100 629h-542z" />
    <glyph glyph-name="I" unicode="I" horiz-adv-x="538" 
d="M452 1512l-239 -1512h-359l239 1512h359z" />
    <glyph glyph-name="J" unicode="J" horiz-adv-x="1355" 
d="M439 -17q-100 0 -183 22t-139.5 60t-98.5 90t-61 112.5t-26 126.5t6 133l12 72h360l-12 -72q-15 -95 34.5 -168t155.5 -73q104 0 176 68t86 158l158 994h361l-158 -994q-16 -102 -67 -195t-132.5 -168.5t-204 -120.5t-267.5 -45z" />
    <glyph glyph-name="K" unicode="K" horiz-adv-x="1493" 
d="M297 532l-84 -532h-359l239 1512h359l-79 -502l552 502h444l-650 -594l448 -918h-414l-317 659z" />
    <glyph glyph-name="L" unicode="L" horiz-adv-x="1287" 
d="M1009 299l-47 -299h-1108l239 1512h359l-192 -1213h749z" />
    <glyph glyph-name="M" unicode="M" horiz-adv-x="1627" 
d="M345 834l-132 -834h-359l239 1512h295l335 -596l522 596h294l-239 -1512h-357l132 832l-369 -418h-126z" />
    <glyph glyph-name="N" unicode="N" horiz-adv-x="1439" 
d="M347 843l-134 -843h-359l239 1512h295l474 -838l132 838h358l-239 -1512h-295z" />
    <glyph glyph-name="O" unicode="O" horiz-adv-x="1751" 
d="M635 -23q-134 0 -246.5 36.5t-191.5 100t-131.5 144t-78.5 174.5q-42 149 -13 323q27 176 116 324q56 94 134 174.5t177 144t223 99.5t258 36q137 0 252.5 -38t195 -104.5t132 -150t75.5 -180.5q34 -146 9 -305q-27 -163 -106 -305q-53 -97 -132 -180.5t-180 -150
t-228.5 -104.5t-264.5 -38zM683 279q148 0 259.5 76.5t177.5 198.5q48 93 66 201q17 107 -2 202q-28 121 -116 198t-234 77q-142 0 -251.5 -73t-176.5 -190q-56 -98 -73 -214q-19 -113 6 -213q29 -117 115 -190t229 -73z" />
    <glyph glyph-name="P" unicode="P" horiz-adv-x="1346" 
d="M296 521l-83 -521h-359l239 1512h585q138 0 243.5 -40.5t166 -110t84.5 -158t8 -188.5q-16 -99 -68 -187.5t-133.5 -157.5t-200 -109t-256.5 -40h-226zM631 1213h-226l-62 -392h226q104 0 168.5 55t77.5 141q14 86 -33 141t-151 55z" />
    <glyph glyph-name="Q" unicode="Q" horiz-adv-x="1751" 
d="M1180 156l117 -270l-331 -156l-117 273q-106 -26 -214 -26q-247 0 -411.5 117.5t-225.5 301.5q-56 165 -24 359q31 198 138 360q120 184 321 301t449 117q126 0 234.5 -33t187.5 -90.5t134.5 -132t84.5 -162.5q54 -162 23 -360q-27 -170 -118.5 -327.5t-247.5 -271.5z
M683 279q33 0 50 2l-157 368l308 177l166 -375q107 124 136 304q17 107 -2 202q-28 121 -116 198t-234 77t-258.5 -77t-176.5 -198q-48 -89 -66 -202t2 -201q26 -120 114 -197.5t234 -77.5z" />
    <glyph glyph-name="R" unicode="R" horiz-adv-x="1449" 
d="M296 521l-83 -521h-359l239 1512h585q138 0 243.5 -40.5t166 -110t84.5 -158t8 -188.5q-20 -127 -100.5 -239.5t-219.5 -179.5l264 -596h-410l-228 521h-190zM631 1213h-226l-62 -392h226q104 0 168.5 55t77.5 141q14 86 -33 141t-151 55z" />
    <glyph glyph-name="S" unicode="S" horiz-adv-x="1419" 
d="M518 -23q-131 0 -239.5 40t-179.5 108t-113.5 151.5t-54.5 176.5l-3 17l351 136l3 -32l1 -19q6 -45 18 -83.5t34 -74.5t53 -61.5t76.5 -41t101.5 -15.5q91 0 154 37t73 101q10 65 -19 96t-113 58q-44 15 -127.5 38t-115.5 33q-184 60 -270.5 172.5t-61.5 270.5
q30 187 202 318t419 131q176 0 307.5 -74.5t195.5 -196.5q35 -70 49 -149l2 -13l4 -17l-350 -142l-3 31q-6 53 -21.5 96.5t-43.5 82t-75.5 60.5t-110.5 22q-90 0 -147.5 -36.5t-68.5 -103.5q-16 -108 136 -159q38 -12 115.5 -33.5t114.5 -33.5q392 -121 342 -438
q-20 -125 -103.5 -227.5t-223 -164t-308.5 -61.5z" />
    <glyph glyph-name="T" unicode="T" horiz-adv-x="1310" 
d="M791 1213l-192 -1213h-358l192 1213h-387l47 299h1130l-47 -299h-385z" />
    <glyph glyph-name="U" unicode="U" horiz-adv-x="1383" 
d="M452 -23q-148 0 -258 43.5t-170.5 118t-83 168t-6.5 198.5l159 1007h361l-159 -1007q-15 -93 39.5 -159.5t165.5 -66.5q109 0 186 67.5t91 158.5l159 1007h360l-159 -1007q-16 -104 -69 -198t-137 -168t-208.5 -118t-270.5 -44z" />
    <glyph glyph-name="V" unicode="V" horiz-adv-x="1654" 
d="M1567 1512l-820 -1512h-312l-342 1512h377l208 -963l511 963h378z" />
    <glyph glyph-name="W" unicode="W" horiz-adv-x="2253" 
d="M1030 883l-400 -883h-322l-215 1512h367l114 -861l383 861h344l111 -859l386 859h369l-694 -1512h-323z" />
    <glyph glyph-name="X" unicode="X" horiz-adv-x="1574" 
d="M624 460l-370 -460h-400l616 769l-361 743h403l211 -433l345 433h404l-599 -743l375 -769h-401z" />
    <glyph glyph-name="Y" unicode="Y" horiz-adv-x="1666" 
d="M886 690l-109 -690h-358l93 589l13 74l4 25q-12 55 -55 123q-8 13 -24.5 37.5t-29.5 46t-24 41.5l-303 576h405l262 -495l415 495h404l-483 -576q-26 -32 -117 -125q-64 -67 -93 -121z" />
    <glyph glyph-name="Z" unicode="Z" horiz-adv-x="1398" 
d="M1119 299l-47 -299h-1218l29 186l7 17l879 1010h-675l47 299h1154l-29 -186l-7 -18l-880 -1009h740z" />
    <glyph glyph-name="bracketleft" unicode="[" horiz-adv-x="931" 
d="M593 174l-48 -299h-581l278 1752h581l-48 -299h-223l-182 -1154h223z" />
    <glyph glyph-name="backslash" unicode="\" horiz-adv-x="1176" 
d="M426 1502l474 -1502h-383l-475 1502h384z" />
    <glyph glyph-name="bracketright" unicode="]" horiz-adv-x="931" 
d="M733 1627l-278 -1752h-581l48 299h224l182 1154h-224l48 299h581z" />
    <glyph glyph-name="asciicircum" unicode="^" horiz-adv-x="1465" 
d="M661 1038l-197 -280h-390l529 744h264l292 -744h-391z" />
    <glyph glyph-name="underscore" unicode="_" horiz-adv-x="1106" 
d="M868 174l-48 -299h-1046l48 299h1046z" />
    <glyph glyph-name="grave" unicode="`" horiz-adv-x="613" 
d="M383 1644l152 -409h-279l-190 409h317z" />
    <glyph glyph-name="a" unicode="a" horiz-adv-x="1181" 
d="M301 -22q-137 0 -233 51.5t-135.5 135t-23.5 184.5q18 114 106.5 197t225.5 131l118 32l272 58q-20 68 -132 68q-68 0 -102.5 -19.5t-41.5 -65.5l-3 -23h-347l4 22q22 141 122.5 238.5t281.5 131.5q68 14 132 14q227 0 340 -117t86 -290l-115 -726h-339l4 25
q-110 -47 -220 -47zM348 276q94 0 158.5 60t85.5 144l-188 -40q-58 -12 -100 -36.5t-47 -55.5q-5 -35 18.5 -53.5t72.5 -18.5z" />
    <glyph glyph-name="b" unicode="b" horiz-adv-x="1349" 
d="M427 -23q-125 0 -232 43l-3 -20h-338l238 1502h338l-65 -409q120 44 246 44q197 0 322.5 -95t166.5 -242q32 -114 11 -244q-21 -132 -88 -243q-88 -146 -244 -241t-352 -95zM475 278q80 0 143 44.5t95.5 105t43.5 128.5q11 69 -2 130t-61.5 106t-129.5 45t-144.5 -45
t-96.5 -106.5t-44 -129.5q-10 -47 -1.5 -96.5t29 -90t64.5 -66t104 -25.5z" />
    <glyph glyph-name="c" unicode="c" horiz-adv-x="1326" 
d="M442 -23q-199 0 -325 98t-166 247q-28 107 -9 234q21 129 83 235q89 151 245 248.5t356 97.5q142 0 253.5 -55t174.5 -149q13 -19 32 -57.5t27 -52.5l10 -17l-329 -175l-11 28q-31 85 -75 131.5t-129 46.5q-61 0 -113 -26t-86 -68t-55.5 -89.5t-29.5 -97.5
q-4 -39 -3.5 -77.5t14.5 -74.5t36 -64t60.5 -45t87.5 -17q141 0 235 139q15 21 25 38l19 29l275 -176l-15 -18q-14 -16 -45 -53t-49 -56q-94 -94 -222 -149t-271 -55z" />
    <glyph glyph-name="d" unicode="d" horiz-adv-x="1349" 
d="M442 -23q-197 0 -322 94.5t-166 241.5q-33 111 -12 243q21 134 89 245q89 147 243.5 241.5t351.5 94.5q129 0 231 -43l65 408h339l-238 -1502h-339l3 20q-116 -43 -245 -43zM490 278q61 0 112.5 25.5t85.5 67t55.5 89t29.5 96.5q10 47 2 97t-27.5 91t-63.5 67t-105 26
t-113 -26t-86 -68t-55.5 -89.5t-29.5 -97.5q-4 -39 -3.5 -77.5t14.5 -74.5t36 -64t60.5 -45t87.5 -17z" />
    <glyph glyph-name="e" unicode="e" horiz-adv-x="1364" 
d="M442 -23q-187 0 -311.5 87.5t-170.5 225.5q-41 120 -18 266q22 144 103 268q90 137 242.5 225t338.5 88t312 -88t172 -225q40 -122 17 -268q-3 -17 -9 -52t-8 -52l-4 -23h-807q17 -67 65 -109t126 -42q129 0 225 125q5 6 13 18l301 -131q-77 -92 -110 -123
q-93 -88 -216.5 -139t-260.5 -51zM360 720h400q-49 117 -181 117t-219 -117z" />
    <glyph glyph-name="f" unicode="f" horiz-adv-x="986" 
d="M516 812l-129 -812h-338l129 812h-195l47 299h195l2 13q11 70 46 136.5t92 124t144 92.5t190 35q94 0 178 -26l18 -6l-45 -287l-39 9q-88 22 -143 22q-86 0 -103 -100l-2 -13h239l-47 -299h-239z" />
    <glyph glyph-name="g" unicode="g" horiz-adv-x="1338" 
d="M380 -392q-146 0 -261.5 59t-175.5 157q-23 38 -38 79q-9 23 -15 45l341 108q45 -150 193 -150q81 0 144.5 38.5t96.5 102.5q10 15 19 45q-115 -44 -239 -44q-125 0 -224 41l-41 20q-90 48 -148.5 129t-78.5 171.5t-5 181.5q12 76 47 152t94 146.5t135 124.5t178 86.5
t214 32.5q128 0 228 -47l4 25h339l-157 -989q-15 -95 -66.5 -185t-132 -164.5t-198.5 -119.5t-253 -45zM492 347q113 0 185.5 72t88.5 172q9 62 -7.5 116t-66 91t-125.5 37q-112 0 -183.5 -72.5t-87.5 -171.5q-16 -100 33 -172t163 -72z" />
    <glyph glyph-name="h" unicode="h" horiz-adv-x="1168" 
d="M296 659l-104 -659h-338l238 1502h338l-62 -392q78 23 158 23q116 0 206 -36t141.5 -96.5t73 -136.5t8.5 -158l-112 -706h-340l104 659q12 75 -17.5 125.5t-108.5 50.5t-126 -50.5t-59 -125.5z" />
    <glyph glyph-name="i" unicode="i" horiz-adv-x="519" 
d="M430 1502l-53 -331h-338l53 331h338zM368 1111l-176 -1111h-338l176 1111h338z" />
    <glyph glyph-name="j" unicode="j" horiz-adv-x="781" 
d="M693 1502l-59 -369h-339l59 369h339zM-15 -392q-48 0 -87 7q-18 2 -80 14l-22 4l45 283l34 -5l76 -10q50 -6 73 -6q38 0 62 29q22 27 29 71l177 1116h339l-177 -1116q-11 -70 -45.5 -136.5t-90.5 -123.5t-142.5 -92t-190.5 -35z" />
    <glyph glyph-name="k" unicode="k" horiz-adv-x="1267" 
d="M245 336l-53 -336h-338l238 1502h338l-114 -720l375 329h426l-531 -471l312 -640h-391l-192 398z" />
    <glyph glyph-name="l" unicode="l" horiz-adv-x="519" 
d="M430 1502l-238 -1502h-338l238 1502h338z" />
    <glyph glyph-name="m" unicode="m" horiz-adv-x="1777" 
d="M296 659l-104 -659h-338l176 1111h338q77 22 152 22q196 0 301 -102q152 102 352 102q111 0 194.5 -39t128 -101.5t62 -136.5t5.5 -149l-112 -707h-338l105 661q11 73 -16.5 123.5t-102.5 50.5q-73 0 -117 -51t-55 -123l-105 -661h-339l105 661q8 56 -8 103t-63 63
q-26 8 -42 8q-18 0 -44 -8q-113 -35 -135 -168z" />
    <glyph glyph-name="n" unicode="n" horiz-adv-x="1168" 
d="M296 659l-104 -659h-338l176 1111h338q75 22 158 22q116 0 206 -36t141.5 -96.5t73 -136.5t8.5 -158l-112 -706h-340l104 659q12 75 -17.5 125.5t-108.5 50.5t-126 -50.5t-59 -125.5z" />
    <glyph glyph-name="o" unicode="o" horiz-adv-x="1364" 
d="M442 -23q-198 0 -323.5 96t-166.5 245q-31 112 -10 238q13 80 46.5 159.5t93 156t136 135t182.5 94.5t226 36q203 0 330.5 -101t163.5 -254q25 -110 7 -226q-21 -129 -86 -238q-88 -148 -244.5 -244.5t-354.5 -96.5zM490 278q61 0 112.5 25.5t85.5 67t55.5 89t29.5 96.5
q10 47 2 97t-27.5 91t-63.5 67t-105 26t-113 -26t-86 -68t-55.5 -89.5t-29.5 -97.5q-4 -39 -3.5 -77.5t14.5 -74.5t36 -64t60.5 -45t87.5 -17z" />
    <glyph glyph-name="p" unicode="p" horiz-adv-x="1349" 
d="M195 19l-65 -409h-338l238 1501h338l-3 -19q116 44 246 44q197 0 322 -95t167 -242q32 -114 11 -244q-21 -133 -89 -243q-87 -146 -243 -241t-352 -95q-125 0 -232 43zM475 277q80 0 143 44.5t95.5 105t43.5 128.5q10 48 2 97.5t-27.5 90.5t-63.5 67t-105 26t-113 -26
t-86 -68t-55.5 -89.5t-29.5 -97.5q-10 -47 -1.5 -96.5t29 -90t64.5 -66t104 -25.5z" />
    <glyph glyph-name="q" unicode="q" horiz-adv-x="1349" 
d="M1199 1111l-238 -1501h-339l65 409q-117 -43 -245 -43q-196 0 -321.5 95t-167.5 241q-32 112 -11 243q21 134 89 245q89 147 243.5 241.5t351.5 94.5q130 0 231 -44l3 19h339zM490 277q61 0 112.5 25.5t85.5 67t55.5 89t29.5 96.5q4 39 3.5 78t-14.5 75.5t-36 65
t-60.5 45.5t-87.5 17q-61 0 -113 -26t-86 -68t-55 -89.5t-29 -97.5q-4 -39 -3.5 -77.5t15 -74.5t36.5 -64t60 -45t87 -17z" />
    <glyph glyph-name="r" unicode="r" horiz-adv-x="853" 
d="M296 659l-104 -659h-338l176 1111h338q75 22 158 22q25 0 73 -6q10 -1 31 -4.5l33 -5.5l15 -2l25 -3l-49 -310l-38 8l-70 16q-49 9 -65 9q-79 0 -126 -50.5t-59 -125.5z" />
    <glyph glyph-name="s" unicode="s" horiz-adv-x="1132" 
d="M356 -38q-178 0 -300.5 96t-151.5 258l301 128l10 -39q40 -152 187 -152q54 0 90 19.5t41 51.5q4 19 -21 37q-17 12 -69 28l-150 44q-145 43 -211 130.5t-47 211.5q25 157 158 256.5t319 99.5q135 0 237.5 -58.5t152.5 -163.5q20 -44 32 -101l-300 -133l-4 20
q-14 72 -55.5 110.5t-107.5 38.5q-46 0 -75.5 -16t-34.5 -43q-3 -23 14 -38t66 -33q30 -11 78 -25q61 -19 79 -25q299 -98 260 -344q-25 -157 -165 -257.5t-333 -100.5z" />
    <glyph glyph-name="t" unicode="t" horiz-adv-x="956" 
d="M444 -12q-71 0 -129 15t-96 40.5t-65.5 61t-38.5 77t-14.5 86.5t5.5 91l72 453h-195l47 299h195l49 310h338l-49 -310h239l-47 -299h-239l-72 -453q-8 -51 4.5 -70t62.5 -19q27 0 62 5l67 8l36 5l-44 -277l-24 -4q-99 -19 -164 -19z" />
    <glyph glyph-name="u" unicode="u" horiz-adv-x="1168" 
d="M346 -20q-116 0 -205.5 35.5t-141.5 95.5t-73 136t-8 159l112 705h338l-104 -659q-12 -74 18.5 -123.5t108.5 -49.5q79 0 125.5 49t58.5 124l104 659h340l-176 -1111h-340q-71 -20 -157 -20z" />
    <glyph glyph-name="v" unicode="v" horiz-adv-x="1386" 
d="M1235 1111l-642 -1111h-274l-289 1111h372l140 -575l321 575h372z" />
    <glyph glyph-name="w" unicode="w" horiz-adv-x="1886" 
d="M788 508l-245 -508h-283l-230 1111h372l90 -507l241 507h299l80 -505l252 505h371l-583 -1111h-282z" />
    <glyph glyph-name="x" unicode="x" horiz-adv-x="1409" 
d="M515 289l-259 -289h-402l501 555l-325 556h402l167 -290l258 290h402l-501 -556l325 -555h-402z" />
    <glyph glyph-name="y" unicode="y" horiz-adv-x="1423" 
d="M1272 1111l-883 -1503h-367l278 488l-270 1015h376l154 -580l336 580h376z" />
    <glyph glyph-name="z" unicode="z" horiz-adv-x="1131" 
d="M852 298l-47 -298h-951l35 220l570 592h-445l47 299h918l-35 -219l-569 -594h477z" />
    <glyph glyph-name="braceleft" unicode="{" horiz-adv-x="921" 
d="M604 49l-47 -298h-169q-92 0 -161 29.5t-105 78.5t-49.5 107.5t-3.5 121.5l55 345q4 25 0 38l-3 4l-3 1h-3h-156l48 298h156l5 1l4 4q9 12 12 38l55 346q10 63 42 122t84 108.5t130 79t170 29.5h169l-47 -299h-169q-1 0 -3 -1h-2l-1 -1q-1 -1 -2.5 -2t-2.5 -3
q-8 -10 -10 -24q-12 -72 -33.5 -211t-23.5 -153q-16 -103 -88 -183q46 -81 30 -181q0 -2 -0.5 -4.5t-1.5 -5.5t-1 -5l-55 -349q-3 -15 2 -25q3 -6 9 -6h169z" />
    <glyph glyph-name="bar" unicode="|" horiz-adv-x="877" 
d="M648 1681l-320 -2020h-358l320 2020h358z" />
    <glyph glyph-name="braceright" unicode="}" horiz-adv-x="921" 
d="M-18 -249h-167l47 298h167q5 0 10 6q7 10 11 25l56 362q17 104 89 183q-47 83 -31 180l2.5 10t1.5 9l55 348q2 18 -2 25q-4 6 -9 6h-167l47 299h167q92 0 160.5 -29.5t104.5 -78.5t49.5 -108.5t3.5 -122.5l-55 -346q-4 -27 1 -38l3 -4q2 -1 4 -1h159l-48 -298h-162l-1 -2
l-3 -3q-10 -13 -13 -38l-55 -345q-10 -63 -42 -122t-83.5 -107.5t-129.5 -78t-170 -29.5z" />
    <glyph glyph-name="asciitilde" unicode="~" horiz-adv-x="1515" 
d="M790 534q-111 0 -216 67q-48 33 -64 43q-24 15 -40 15q-15 0 -31 -30q-15 -29 -20 -66l-4 -24h-336l22 80q12 47 31 90t52 90t75.5 81t105 56t136.5 22q110 0 216 -68q56 -37 65 -43q24 -13 37 -15l3 4q10 10 19 29q13 26 26 68l8 19h326l-22 -79q-10 -38 -23.5 -73
t-35.5 -75.5t-52.5 -73t-69.5 -60t-92.5 -42.5t-115.5 -15z" />
    <glyph glyph-name="uni00A0" unicode="&#xa0;" horiz-adv-x="330" 
 />
    <glyph glyph-name="exclamdown" unicode="&#xa1;" horiz-adv-x="759" 
d="M501 1133l-58 -370h-358l58 370h358zM431 751l-166 -1120h-359l187 1120h338z" />
    <glyph glyph-name="cent" unicode="&#xa2;" horiz-adv-x="1282" 
d="M595 -3l-37 -231h-336l38 238q-82 25 -146 71.5t-101 103t-60.5 123.5t-25 133.5t6.5 132.5q13 84 50.5 167t97.5 160.5t152.5 139.5t203.5 93l38 239h336l-37 -232q94 -25 166 -79t113 -125q33 -54 53 -123l4 -17l-324 -156l-9 28q-26 90 -58 128l-71 -449q19 16 34 34
q21 26 64 93l18 28l275 -155l-10 -17q-40 -68 -91 -124q-64 -71 -153 -125t-191 -79zM318 370l62 393q-81 -84 -98 -197q-19 -111 36 -196z" />
    <glyph glyph-name="sterling" unicode="&#xa3;" horiz-adv-x="1745" 
d="M1302 298l-47 -298h-1212l47 298h224l49 305h-273l136 298h184l23 148q15 91 61.5 174.5t121 151t185 108t239.5 40.5q159 0 273 -67t170 -179q26 -52 46 -148l7 -30l-338 -140l-2 33q-2 45 -13.5 84.5t-34 74t-62.5 54.5t-93 20q-91 0 -140.5 -47.5t-62.5 -128.5
l-23 -148h564l-137 -298h-474l-49 -305h631z" />
    <glyph glyph-name="currency" unicode="&#xa4;" horiz-adv-x="1487" 
d="M340 162l-186 -155l-194 220l178 149q-34 95 -18 190q15 97 79 191l-132 146l264 221l138 -154q99 40 199 40t185 -40l185 155l195 -222l-178 -146q33 -96 19 -191q-16 -99 -78 -190l130 -149l-265 -220l-135 155q-97 -39 -199 -39q-101 0 -187 39zM576 432q55 0 97.5 41
t51.5 93q8 51 -22.5 93.5t-83.5 42.5q-55 0 -98.5 -42t-51.5 -94q-9 -52 21 -93t86 -41z" />
    <glyph glyph-name="yen" unicode="&#xa5;" horiz-adv-x="1496" 
d="M708 282l-45 -282h-300l45 282h-435l41 259h435l2 15h-435l41 259h344l-350 680h340l275 -531l441 531h340l-564 -680h320l-41 -259h-411l-2 -15h411l-41 -259h-411z" />
    <glyph glyph-name="brokenbar" unicode="&#xa6;" horiz-adv-x="877" 
d="M648 1681l-133 -844h-358l133 844h358zM462 506l-134 -845h-358l134 845h358z" />
    <glyph glyph-name="section" unicode="&#xa7;" horiz-adv-x="1431" 
d="M501 -79q-190 0 -310.5 93t-155.5 235q-4 28 -8 41l-4 17l291 127q-187 102 -154 302q19 125 116 214q-68 92 -49 213q25 154 160.5 257t338.5 103q141 0 245 -58t155 -155q26 -47 48 -140l4 -17l-292 -122q236 -104 201 -322q-20 -125 -123 -210q75 -93 56 -218
q-25 -156 -169.5 -258t-349.5 -102zM816 1057l22 -7q-4 74 -43 124.5t-116 50.5q-93 0 -101 -52q-4 -22 16 -37.5t61 -29.5q30 -11 86.5 -27t74.5 -22zM621 668l49 -15q63 16 70 60q3 19 -22 35q-18 12 -63 26l-100 28q-40 -24 -45 -57q-4 -27 29 -46q22 -13 82 -31z
M549 218q50 0 84 18t39 49q3 18 -19 34q-26 17 -101 37q-16 4 -60 15.5t-62 16.5q-49 15 -74 26l12 -49q17 -65 62.5 -106t118.5 -41z" />
    <glyph glyph-name="dieresis" unicode="&#xa8;" horiz-adv-x="765" 
d="M136 1235q-84 0 -126.5 52.5t-31.5 120.5q10 67 69.5 118.5t142.5 51.5q81 0 123 -52t32 -118q-11 -67 -68.5 -120t-140.5 -53zM566 1235q-84 0 -126.5 52.5t-31.5 120.5q10 67 69.5 118.5t142.5 51.5q81 0 123 -52t32 -118q-11 -67 -68.5 -120t-140.5 -53z" />
    <glyph glyph-name="copyright" unicode="&#xa9;" horiz-adv-x="1975" 
d="M988 -23q-246 0 -442.5 131.5t-284.5 339.5q-61 141 -61 298q0 116 36 228.5t106 209t164.5 170.5t219 116t262.5 42q239 0 433 -126.5t285 -325.5q69 -150 69 -314q0 -169 -70 -318q-92 -200 -285 -325.5t-432 -125.5zM988 208q170 0 305 90t196 235q42 97 42 213
q0 138 -66.5 260t-193 199t-283.5 77q-158 0 -284.5 -76.5t-193.5 -198.5t-67 -261q0 -114 43 -213q61 -146 196 -235.5t306 -89.5zM997 305q-101 0 -185.5 37.5t-139 100t-84 141t-29.5 162.5t29.5 162.5t84 140.5t138.5 99t186 37q135 0 242 -71t144 -185l5 -14l-212 -101
l-7 21q-21 62 -64.5 100.5t-107.5 38.5q-95 0 -147 -67.5t-52 -160.5q0 -94 52 -162.5t147 -68.5q123 0 172 142l7 21l211 -105l-4 -13q-37 -114 -144 -184.5t-242 -70.5z" />
    <glyph glyph-name="ordfeminine" unicode="&#xaa;" horiz-adv-x="918" 
d="M273 657q-144 0 -222.5 77t-59.5 196q12 78 68 136.5t145 94.5l-155 84l8 12l17 28q60 98 166.5 160t231.5 62q157 0 239.5 -88t61.5 -217l-84 -530h-270l3 15q-74 -30 -149 -30zM316 1195q54 13 181 38q-12 31 -64 31q-67 0 -117 -69zM319 893q53 0 93 32t55 79
l-121 -26q-70 -15 -76 -50q-3 -18 9 -26.5t40 -8.5z" />
    <glyph glyph-name="guillemotleft" unicode="&#xab;" horiz-adv-x="1448" 
d="M336 558l277 -413h-356l-275 413l406 413h356zM790 558l274 -413h-353l-276 413l407 413h353z" />
    <glyph glyph-name="uni00AD" unicode="&#xad;" horiz-adv-x="1240" 
d="M926 716l-47 -298h-859l47 298h859z" />
    <glyph glyph-name="registered" unicode="&#xae;" horiz-adv-x="1975" 
d="M988 -23q-246 0 -442.5 131.5t-284.5 339.5q-61 141 -61 298q0 116 36 228.5t106 209t164.5 170.5t219 116t262.5 42q239 0 433 -126.5t285 -325.5q69 -150 69 -314q0 -169 -70 -318q-92 -200 -285 -325.5t-432 -125.5zM988 208q187 0 331 108h-168l-161 285h-76v-285
h-238v860h350q147 0 236 -79.5t89 -208.5q0 -72 -31 -133.5t-94 -100.5l161 -276q144 150 144 368q0 138 -66.5 260t-193 199t-283.5 77q-158 0 -284.5 -76.5t-193.5 -198.5t-67 -261q0 -114 43 -213q62 -146 196.5 -235.5t305.5 -89.5zM1028 967h-114v-156h114
q40 0 62.5 21t22.5 56q0 36 -22.5 57.5t-62.5 21.5z" />
    <glyph glyph-name="macron" unicode="&#xaf;" horiz-adv-x="692" 
d="M642 1420l-44 -280h-613l44 280h613z" />
    <glyph glyph-name="degree" unicode="&#xb0;" horiz-adv-x="1150" 
d="M467 805q-111 0 -190 53.5t-111 134t-18 167.5q10 65 46.5 128t91 114.5t131.5 83t162 31.5q84 0 151.5 -31.5t106 -83t55 -114.5t6.5 -128t-46.5 -128t-92 -113.5t-132 -82t-160.5 -31.5zM503 1050q44 0 81.5 34t44.5 76q6 43 -20 77.5t-71 34.5q-44 0 -80 -35t-42 -77
q-7 -42 18 -76t69 -34z" />
    <glyph glyph-name="plusminus" unicode="&#xb1;" horiz-adv-x="1370" 
d="M993 307l-49 -307h-990l49 307h323l46 292h-323l49 307h323l48 307h347l-48 -307h320l-49 -307h-320l-46 -292h320z" />
    <glyph glyph-name="acute" unicode="&#xb4;" horiz-adv-x="613" 
d="M625 1644l-316 -409h-281l281 409h316z" />
    <glyph glyph-name="uni00B5" unicode="&#xb5;" horiz-adv-x="1228" 
d="M214 -7l-55 -349h-331l235 1489h331l-113 -717q-11 -65 15.5 -109.5t94.5 -44.5q91 0 180 53l129 818h331l-179 -1133h-331l1 6q-102 -28 -191 -28q-63 0 -117 15z" />
    <glyph glyph-name="paragraph" unicode="&#xb6;" horiz-adv-x="951" 
d="M784 1502l-266 -1679h-358l149 944q-89 24 -148 84.5t-79.5 132t-8.5 144.5q10 64 46 128.5t92.5 120t140.5 90.5t178 35h254z" />
    <glyph glyph-name="periodcentered" unicode="&#xb7;" horiz-adv-x="777" 
d="M480 936l-58 -369h-358l58 369h358z" />
    <glyph glyph-name="cedilla" unicode="&#xb8;" horiz-adv-x="662" 
d="M47 -377q-142 0 -254 110l-27 27l157 200l17 -20q21 -27 37 -43.5t41.5 -31t53.5 -14.5q33 0 37 28q7 47 -68 96q-35 24 -70 40q-20 10 -65 30l-81 36l287 82l7 -3q65 -25 91 -40q83 -45 125 -112t28 -151q-16 -102 -104.5 -168t-211.5 -66z" />
    <glyph glyph-name="ordmasculine" unicode="&#xba;" horiz-adv-x="1043" 
d="M390 657q-70 0 -129.5 17t-102 47t-75 71t-48.5 88.5t-22.5 99.5t3.5 104q13 79 54.5 154t105.5 135.5t155.5 97t193.5 36.5t181.5 -36.5t124.5 -97t63 -135.5t5 -154t-54.5 -154.5t-105 -136.5t-155 -98.5t-194.5 -37.5zM429 901q76 0 128.5 55t63.5 126t-24.5 126
t-110.5 55t-128 -55t-64 -126t24.5 -126t110.5 -55z" />
    <glyph glyph-name="guillemotright" unicode="&#xbb;" horiz-adv-x="1448" 
d="M718 558l-407 -413h-354l405 413l-274 413h354zM1169 558l-404 -413h-355l406 413l-275 413h355z" />
    <glyph glyph-name="questiondown" unicode="&#xbf;" horiz-adv-x="1257" 
d="M843 1517l-52 -332h-301l52 332h301zM372 0q-202 0 -312.5 112.5t-83.5 279.5q9 58 32.5 109t64 98.5t78 82.5t96.5 84q54 44 80 66q45 40 72 69q47 53 62 98q11 31 23 110l2 16h301l-13 -83q-10 -62 -35 -117.5t-65 -103.5t-75 -82t-87 -77l-83 -68q-52 -44 -72 -65
q-70 -73 -80 -137q-10 -63 25 -98t111 -35q60 0 107.5 18.5t82 54.5t57.5 73.5t48 91.5l9 22l238 -117l-5 -12q-71 -168 -223.5 -279t-354.5 -111z" />
    <glyph glyph-name="Agrave" unicode="&#xc0;" horiz-adv-x="1610" 
d="M993 2101l169 -446h-342l-210 446h383zM408 376l-199 -376h-377l820 1512h312l342 -1512h-378l-77 376h-443zM786 675l-63 296l-157 -296h220z" />
    <glyph glyph-name="Aacute" unicode="&#xc1;" horiz-adv-x="1610" 
d="M1244 2111l-349 -446h-343l310 446h382zM408 376l-199 -376h-377l820 1512h312l342 -1512h-378l-77 376h-443zM786 675l-63 296l-157 -296h220z" />
    <glyph glyph-name="Acircumflex" unicode="&#xc2;" horiz-adv-x="1610" 
d="M850 1765l-117 -126h-376l415 446h252l281 -446h-376zM408 376l-199 -376h-377l820 1512h312l342 -1512h-378l-77 376h-443zM786 675l-63 296l-157 -296h220z" />
    <glyph glyph-name="Atilde" unicode="&#xc3;" horiz-adv-x="1610" 
d="M980 1652q-88 0 -165 47l-29 18q-4 -16 -6 -34l-6 -23h-316l16 77q8 35 24 70.5t44 71.5t63.5 63.5t85.5 45t107 17.5q80 0 161 -45q6 -3 16.5 -10t15.5 -10l1 2l9 36l7 21h311l-17 -75q-8 -36 -23.5 -71.5t-43 -72t-62 -64.5t-85 -46t-108.5 -18zM408 376l-199 -376
h-377l820 1512h312l342 -1512h-378l-77 376h-443zM786 675l-63 296l-157 -296h220z" />
    <glyph glyph-name="Adieresis" unicode="&#xc4;" horiz-adv-x="1610" 
d="M607 1600q-84 0 -126 52.5t-31 120.5q10 67 69.5 118.5t142.5 51.5q81 0 123 -52t32 -118q-11 -67 -69 -120t-141 -53zM1037 1600q-84 0 -126 52.5t-31 120.5q10 67 69.5 118.5t142.5 51.5q81 0 123 -52t32 -118q-11 -67 -69 -120t-141 -53zM408 376l-199 -376h-377
l820 1512h312l342 -1512h-378l-77 376h-443zM786 675l-63 296l-157 -296h220z" />
    <glyph glyph-name="Aring" unicode="&#xc5;" horiz-adv-x="1610" 
d="M828 1646q-68 0 -120 24t-81 62t-40.5 83t-4.5 90q15 98 105.5 177.5t221.5 79.5q89 0 150.5 -40t85 -97.5t13.5 -119.5q-16 -98 -107 -178.5t-223 -80.5zM858 1828q39 0 65.5 23.5t31.5 52.5q4 29 -15 52.5t-58 23.5t-66 -23.5t-31 -52.5q-5 -28 14.5 -52t58.5 -24z
M408 376l-199 -376h-377l820 1512h312l342 -1512h-378l-77 376h-443zM786 675l-63 296l-157 -296h220z" />
    <glyph glyph-name="AE" unicode="&#xc6;" horiz-adv-x="1921" 
d="M430 376l-199 -376h-377l820 1512l1161 3l-47 -299h-748l-45 -284h655l-48 -300h-655l-52 -330h748l-48 -299h-1108l60 373h-117zM594 675l2 15l-8 -15h6z" />
    <glyph glyph-name="Ccedilla" unicode="&#xc7;" horiz-adv-x="1681" 
d="M584 -430q-143 0 -255 110l-26 27l156 200l17 -20q32 -42 62.5 -65.5t70.5 -23.5q32 0 36 28q8 47 -67 96q-32 22 -70 40q-14 7 -38 17.5t-27 12.5l-39 17q-157 47 -262 154t-149 248q-49 159 -19 344q28 185 128 345q119 190 323 311.5t457 121.5q188 0 331 -72
t228 -196q71 -99 81 -161l2 -16l-331 -157l-8 28q-25 78 -48 116q-45 72 -123.5 114.5t-179.5 42.5q-145 0 -258.5 -77.5t-176.5 -197.5q-48 -89 -66 -202q-18 -109 2 -201q25 -120 113.5 -197.5t234.5 -77.5q196 0 350 154q45 45 89 112l19 27l275 -162l-10 -16
q-3 -7 -19 -29q-54 -73 -108 -124q-191 -183 -442 -241q80 -84 63 -196q-16 -102 -104.5 -168t-211.5 -66z" />
    <glyph glyph-name="Egrave" unicode="&#xc8;" horiz-adv-x="1257" 
d="M773 2093l167 -446h-341l-207 446h381zM993 299l-47 -299h-1108l239 1512h1108l-47 -299h-749l-45 -284h656l-47 -300h-656l-53 -330h749z" />
    <glyph glyph-name="Eacute" unicode="&#xc9;" horiz-adv-x="1257" 
d="M1147 2090l-351 -446h-340l307 446h384zM993 299l-47 -299h-1108l239 1512h1108l-47 -299h-749l-45 -284h656l-47 -300h-656l-53 -330h749z" />
    <glyph glyph-name="Ecircumflex" unicode="&#xca;" horiz-adv-x="1257" 
d="M679 1772l-118 -126h-375l415 445h252l281 -445h-375zM993 299l-47 -299h-1108l239 1512h1108l-47 -299h-749l-45 -284h656l-47 -300h-656l-53 -330h749z" />
    <glyph glyph-name="Edieresis" unicode="&#xcb;" horiz-adv-x="1257" 
d="M447 1587q-84 0 -126 52.5t-31 120.5q10 67 69.5 118.5t142.5 51.5q81 0 123 -52t32 -118q-11 -67 -69 -120t-141 -53zM877 1587q-84 0 -126 52.5t-31 120.5q10 67 69.5 118.5t142.5 51.5q81 0 123 -52t32 -118q-11 -67 -69 -120t-141 -53zM993 299l-47 -299h-1108
l239 1512h1108l-47 -299h-749l-45 -284h656l-47 -300h-656l-53 -330h749z" />
    <glyph glyph-name="Igrave" unicode="&#xcc;" horiz-adv-x="602" 
d="M479 2102l169 -446h-341l-211 446h383zM488 1512l-239 -1512h-358l239 1512h358z" />
    <glyph glyph-name="Iacute" unicode="&#xcd;" horiz-adv-x="602" 
d="M719 2098l-349 -446h-342l310 446h381zM479 1512l-239 -1512h-358l239 1512h358z" />
    <glyph glyph-name="Icircumflex" unicode="&#xce;" horiz-adv-x="626" 
d="M353 1774l-119 -127h-374l416 447h252l280 -447h-375zM495 1512l-239 -1512h-359l239 1512h359z" />
    <glyph glyph-name="Idieresis" unicode="&#xcf;" horiz-adv-x="481" 
d="M58 1643q-84 0 -126 52.5t-31 120.5q10 67 69.5 118.5t142.5 51.5q81 0 123 -52t32 -118q-11 -68 -69 -120.5t-141 -52.5zM488 1643q-84 0 -126 52.5t-31 120.5q10 67 69.5 118.5t142.5 51.5q81 0 123 -52t32 -118q-11 -68 -69 -120.5t-141 -52.5zM423 1512l-239 -1512
h-359l239 1512h359z" />
    <glyph glyph-name="Ntilde" unicode="&#xd1;" horiz-adv-x="1409" 
d="M836 1651q-64 0 -119 25q-11 5 -74 41q-2 -7 -5 -19.5t-4 -16.5l-4 -22h-313l16 77q8 35 24 70.5t44 71.5t63 63.5t85 45t107 17.5q82 0 162 -46l30 -18q4 14 7 35l3 23h317l-15 -75q-10 -46 -33.5 -90.5t-61 -87t-97.5 -68.5t-132 -26zM331 843l-134 -843h-359l239 1512
h295l474 -838l132 838h358l-239 -1512h-295z" />
    <glyph glyph-name="Ograve" unicode="&#xd2;" horiz-adv-x="1720" 
d="M1033 2105l170 -446h-343l-208 446h381zM619 -23q-134 0 -246.5 36.5t-191.5 100t-131.5 144t-78.5 174.5q-42 149 -13 323q27 176 116 324q56 94 134 174.5t177 144t223 99.5t258 36q137 0 252.5 -38t195 -104.5t132 -150t75.5 -180.5q34 -146 9 -305
q-27 -163 -106 -305q-53 -97 -132 -180.5t-180 -150t-228.5 -104.5t-264.5 -38zM667 279q148 0 259.5 76.5t177.5 198.5q48 93 66 201q17 107 -2 202q-28 121 -116 198t-234 77q-142 0 -251.5 -73t-176.5 -190q-56 -98 -73 -214q-19 -113 6 -213q29 -117 115 -190t229 -73z
" />
    <glyph glyph-name="Oacute" unicode="&#xd3;" horiz-adv-x="1720" 
d="M1302 2107l-350 -446h-343l312 446h381zM619 -23q-134 0 -246.5 36.5t-191.5 100t-131.5 144t-78.5 174.5q-42 149 -13 323q27 176 116 324q56 94 134 174.5t177 144t223 99.5t258 36q137 0 252.5 -38t195 -104.5t132 -150t75.5 -180.5q34 -146 9 -305
q-27 -163 -106 -305q-53 -97 -132 -180.5t-180 -150t-228.5 -104.5t-264.5 -38zM667 279q148 0 259.5 76.5t177.5 198.5q48 93 66 201q17 107 -2 202q-28 121 -116 198t-234 77q-142 0 -251.5 -73t-176.5 -190q-56 -98 -73 -214q-19 -113 6 -213q29 -117 115 -190t229 -73z
" />
    <glyph glyph-name="Ocircumflex" unicode="&#xd4;" horiz-adv-x="1720" 
d="M907 1793l-118 -127h-374l416 446h252l279 -446h-374zM619 -23q-134 0 -246.5 36.5t-191.5 100t-131.5 144t-78.5 174.5q-42 149 -13 323q27 176 116 324q56 94 134 174.5t177 144t223 99.5t258 36q137 0 252.5 -38t195 -104.5t132 -150t75.5 -180.5q34 -146 9 -305
q-27 -163 -106 -305q-53 -97 -132 -180.5t-180 -150t-228.5 -104.5t-264.5 -38zM667 279q148 0 259.5 76.5t177.5 198.5q48 93 66 201q17 107 -2 202q-28 121 -116 198t-234 77q-142 0 -251.5 -73t-176.5 -190q-56 -98 -73 -214q-19 -113 6 -213q29 -117 115 -190t229 -73z
" />
    <glyph glyph-name="Otilde" unicode="&#xd5;" horiz-adv-x="1720" 
d="M1004 1650q-66 0 -121 25q-16 7 -72 41q-6 -24 -10 -36l-6 -21h-312l16 76q10 45 33.5 89.5t62 86t98 67.5t129.5 26q84 0 164 -47l29 -17q5 22 7 34l3 24h318l-15 -75q-10 -45 -33.5 -89.5t-62 -87.5t-98 -69.5t-130.5 -26.5zM619 -23q-134 0 -246.5 36.5t-191.5 100
t-131.5 144t-78.5 174.5q-42 149 -13 323q27 176 116 324q56 94 134 174.5t177 144t223 99.5t258 36q137 0 252.5 -38t195 -104.5t132 -150t75.5 -180.5q34 -146 9 -305q-27 -163 -106 -305q-53 -97 -132 -180.5t-180 -150t-228.5 -104.5t-264.5 -38zM667 279
q148 0 259.5 76.5t177.5 198.5q48 93 66 201q17 107 -2 202q-28 121 -116 198t-234 77q-142 0 -251.5 -73t-176.5 -190q-56 -98 -73 -214q-19 -113 6 -213q29 -117 115 -190t229 -73z" />
    <glyph glyph-name="Odieresis" unicode="&#xd6;" horiz-adv-x="1720" 
d="M652 1600q-84 0 -126 52.5t-31 120.5q10 67 69.5 118.5t142.5 51.5q81 0 123 -52t32 -118q-11 -67 -69 -120t-141 -53zM1082 1600q-84 0 -126 52.5t-31 120.5q10 67 69.5 118.5t142.5 51.5q81 0 123 -52t32 -118q-11 -67 -69 -120t-141 -53zM619 -23q-134 0 -246.5 36.5
t-191.5 100t-131.5 144t-78.5 174.5q-42 149 -13 323q27 176 116 324q56 94 134 174.5t177 144t223 99.5t258 36q137 0 252.5 -38t195 -104.5t132 -150t75.5 -180.5q34 -146 9 -305q-27 -163 -106 -305q-53 -97 -132 -180.5t-180 -150t-228.5 -104.5t-264.5 -38zM667 279
q148 0 259.5 76.5t177.5 198.5q48 93 66 201q17 107 -2 202q-28 121 -116 198t-234 77q-142 0 -251.5 -73t-176.5 -190q-56 -98 -73 -214q-19 -113 6 -213q29 -117 115 -190t229 -73z" />
    <glyph glyph-name="multiply" unicode="&#xd7;" horiz-adv-x="1390" 
d="M770 270l-228 256l-308 -256l-201 226l307 257l-224 255l273 227l225 -256l307 256l201 -227l-307 -255l228 -257z" />
    <glyph glyph-name="Oslash" unicode="&#xd8;" horiz-adv-x="1751" 
d="M468 -6l-56 -81h-386l146 222q-134 113 -180 278t-18 342q29 183 124 338q119 192 323.5 316t460.5 124q81 0 164 -16l38 61h386l-126 -201q136 -113 183 -277.5t19 -344.5t-125 -338q-117 -192 -323.5 -316t-462.5 -124q-85 0 -167 17zM372 449l495 782q-11 1 -33 1
q-141 0 -252 -73.5t-175 -187.5q-57 -102 -74 -216q-29 -179 39 -306zM683 279q143 0 253.5 72.5t176.5 188.5q54 97 73 215q28 185 -41 308l-495 -783q11 -1 33 -1z" />
    <glyph glyph-name="Ugrave" unicode="&#xd9;" horiz-adv-x="1352" 
d="M750 2092l170 -446h-344l-208 446h382zM436 -23q-148 0 -258 43.5t-170.5 118t-83 168t-6.5 198.5l159 1007h361l-159 -1007q-15 -93 39.5 -159.5t165.5 -66.5q109 0 186 67.5t91 158.5l159 1007h360l-159 -1007q-16 -104 -69 -198t-137 -168t-208.5 -118t-270.5 -44z
" />
    <glyph glyph-name="Uacute" unicode="&#xda;" horiz-adv-x="1352" 
d="M1122 2110l-351 -446h-341l310 446h382zM436 -23q-148 0 -258 43.5t-170.5 118t-83 168t-6.5 198.5l159 1007h361l-159 -1007q-15 -93 39.5 -159.5t165.5 -66.5q109 0 186 67.5t91 158.5l159 1007h360l-159 -1007q-16 -104 -69 -198t-137 -168t-208.5 -118t-270.5 -44z
" />
    <glyph glyph-name="Ucircumflex" unicode="&#xdb;" horiz-adv-x="1352" 
d="M708 1778l-119 -127h-375l417 446h252l279 -446h-375zM436 -23q-148 0 -258 43.5t-170.5 118t-83 168t-6.5 198.5l159 1007h361l-159 -1007q-15 -93 39.5 -159.5t165.5 -66.5q109 0 186 67.5t91 158.5l159 1007h360l-159 -1007q-16 -104 -69 -198t-137 -168t-208.5 -118
t-270.5 -44z" />
    <glyph glyph-name="Udieresis" unicode="&#xdc;" horiz-adv-x="1352" 
d="M483 1587q-84 0 -126 52.5t-31 120.5q10 67 69.5 118.5t142.5 51.5q81 0 123 -52t32 -118q-11 -67 -69 -120t-141 -53zM913 1587q-84 0 -126 52.5t-31 120.5q10 67 69.5 118.5t142.5 51.5q81 0 123 -52t32 -118q-11 -67 -69 -120t-141 -53zM436 -23q-148 0 -258 43.5
t-170.5 118t-83 168t-6.5 198.5l159 1007h361l-159 -1007q-15 -93 39.5 -159.5t165.5 -66.5q109 0 186 67.5t91 158.5l159 1007h360l-159 -1007q-16 -104 -69 -198t-137 -168t-208.5 -118t-270.5 -44z" />
    <glyph glyph-name="Yacute" unicode="&#xdd;" horiz-adv-x="1610" 
d="M1255 2086l-350 -446h-343l311 446h382zM857 690l-109 -690h-358l93 589l13 74l4 25q-12 55 -55 123q-8 13 -24.5 37.5t-29.5 46t-24 41.5l-303 576h405l262 -495l415 495h404l-483 -576q-26 -32 -117 -125q-64 -67 -93 -121z" />
    <glyph glyph-name="germandbls" unicode="&#xdf;" horiz-adv-x="1401" 
d="M386 1056l-167 -1056h-365l169 1064q13 83 57 160.5t114 140t172 100t220 37.5h177q80 0 147.5 -17.5t115.5 -48t85 -72t54.5 -90.5t25.5 -102.5t-3 -107.5q-27 -160 -148 -274q70 -66 96.5 -154.5t11.5 -183.5q-32 -199 -197 -325.5t-427 -126.5h-274l46 298h275
q187 0 212 154q12 77 -28.5 124.5t-131.5 47.5h-277l47 299h265q70 0 112.5 36.5t51.5 96.5q10 61 -21 104t-98 43h-151q-67 0 -111.5 -43t-54.5 -104z" />
    <glyph glyph-name="agrave" unicode="&#xe0;" horiz-adv-x="1150" 
d="M701 1744l166 -445h-340l-207 445h381zM284 -22q-137 0 -233 51.5t-135.5 135t-23.5 184.5q18 114 106.5 197t225.5 131l118 32l272 58q-20 68 -132 68q-68 0 -102.5 -19.5t-41.5 -65.5l-3 -23h-347l4 22q22 141 122.5 238.5t281.5 131.5q68 14 132 14q227 0 340 -117
t86 -290l-115 -726h-339l4 25q-110 -47 -220 -47zM331 276q94 0 158.5 60t85.5 144l-188 -40q-58 -12 -100 -36.5t-47 -55.5q-5 -35 18.5 -53.5t72.5 -18.5z" />
    <glyph glyph-name="aacute" unicode="&#xe1;" horiz-adv-x="1150" 
d="M944 1706l-348 -445h-341l309 445h380zM284 -22q-137 0 -233 51.5t-135.5 135t-23.5 184.5q18 114 106.5 197t225.5 131l118 32l272 58q-20 68 -132 68q-68 0 -102.5 -19.5t-41.5 -65.5l-3 -23h-347l4 22q22 141 122.5 238.5t281.5 131.5q68 14 132 14q227 0 340 -117
t86 -290l-115 -726h-339l4 25q-110 -47 -220 -47zM331 276q94 0 158.5 60t85.5 144l-188 -40q-58 -12 -100 -36.5t-47 -55.5q-5 -35 18.5 -53.5t72.5 -18.5z" />
    <glyph glyph-name="acircumflex" unicode="&#xe2;" horiz-adv-x="1150" 
d="M562 1413l-117 -126h-372l413 446h251l278 -446h-374zM284 -22q-137 0 -233 51.5t-135.5 135t-23.5 184.5q18 114 106.5 197t225.5 131l118 32l272 58q-20 68 -132 68q-68 0 -102.5 -19.5t-41.5 -65.5l-3 -23h-347l4 22q22 141 122.5 238.5t281.5 131.5q68 14 132 14
q227 0 340 -117t86 -290l-115 -726h-339l4 25q-110 -47 -220 -47zM331 276q94 0 158.5 60t85.5 144l-188 -40q-58 -12 -100 -36.5t-47 -55.5q-5 -35 18.5 -53.5t72.5 -18.5z" />
    <glyph glyph-name="atilde" unicode="&#xe3;" horiz-adv-x="1150" 
d="M684 1284q-80 0 -161 48l-29 18q-6 -24 -10 -35l-5 -21h-310l16 76q10 45 33.5 89t61.5 86t97 67.5t129 25.5q79 0 162 -47l29 -18l9 58h315l-4 -23l-11 -52q-9 -45 -32.5 -90t-61.5 -87t-98 -68.5t-130 -26.5zM284 -22q-137 0 -233 51.5t-135.5 135t-23.5 184.5
q18 114 106.5 197t225.5 131l118 32l272 58q-20 68 -132 68q-68 0 -102.5 -19.5t-41.5 -65.5l-3 -23h-347l4 22q22 141 122.5 238.5t281.5 131.5q68 14 132 14q227 0 340 -117t86 -290l-115 -726h-339l4 25q-110 -47 -220 -47zM331 276q94 0 158.5 60t85.5 144l-188 -40
q-58 -12 -100 -36.5t-47 -55.5q-5 -35 18.5 -53.5t72.5 -18.5z" />
    <glyph glyph-name="adieresis" unicode="&#xe4;" horiz-adv-x="1150" 
d="M321 1242q-84 0 -126.5 52.5t-31.5 120.5q10 67 69.5 118.5t142.5 51.5q81 0 123 -52t32 -118q-11 -67 -68.5 -120t-140.5 -53zM751 1242q-84 0 -126.5 52.5t-31.5 120.5q10 67 69.5 118.5t142.5 51.5q81 0 123 -52t32 -118q-11 -67 -68.5 -120t-140.5 -53zM284 -22
q-137 0 -233 51.5t-135.5 135t-23.5 184.5q18 114 106.5 197t225.5 131l118 32l272 58q-20 68 -132 68q-68 0 -102.5 -19.5t-41.5 -65.5l-3 -23h-347l4 22q22 141 122.5 238.5t281.5 131.5q68 14 132 14q227 0 340 -117t86 -290l-115 -726h-339l4 25q-110 -47 -220 -47z
M331 276q94 0 158.5 60t85.5 144l-188 -40q-58 -12 -100 -36.5t-47 -55.5q-5 -35 18.5 -53.5t72.5 -18.5z" />
    <glyph glyph-name="aring" unicode="&#xe5;" horiz-adv-x="1150" 
d="M551 1269q-68 0 -120 24t-81 62t-40.5 83t-4.5 90q16 98 106.5 177.5t221.5 79.5q89 0 150.5 -40t84.5 -97.5t13 -119.5q-16 -98 -107 -178.5t-223 -80.5zM581 1451q39 0 65.5 23.5t31.5 52.5q4 29 -15 52.5t-58 23.5t-66 -23.5t-31 -52.5q-5 -28 14.5 -52t58.5 -24z
M284 -22q-137 0 -233 51.5t-135.5 135t-23.5 184.5q18 114 106.5 197t225.5 131l118 32l272 58q-20 68 -132 68q-68 0 -102.5 -19.5t-41.5 -65.5l-3 -23h-347l4 22q22 141 122.5 238.5t281.5 131.5q68 14 132 14q227 0 340 -117t86 -290l-115 -726h-339l4 25
q-110 -47 -220 -47zM331 276q94 0 158.5 60t85.5 144l-188 -40q-58 -12 -100 -36.5t-47 -55.5q-5 -35 18.5 -53.5t72.5 -18.5z" />
    <glyph glyph-name="ae" unicode="&#xe6;" horiz-adv-x="2046" 
d="M1105 -23q-246 0 -388 154q-134 -94 -218.5 -123.5t-199.5 -29.5q-137 0 -233 51.5t-135.5 135t-23.5 184.5q18 114 106.5 197t225.5 131l118 32l272 58q-20 68 -132 68q-68 0 -102.5 -19.5t-41.5 -65.5l-3 -23h-347l4 22q22 141 122.5 238.5t281.5 131.5q68 14 132 14
q230 0 345 -122v2q5 4 11 4q176 120 390 120q186 0 312 -88t172 -225q40 -122 17 -268q-2 -17 -8 -52t-9 -52l-4 -23h-807q17 -67 65 -109t126 -42q129 0 225 125q5 6 13 18l301 -131q-77 -92 -110 -123q-93 -88 -216.5 -139t-260.5 -51zM1023 720h400q-49 117 -181 117
t-219 -117zM346 276q94 0 158.5 60t85.5 144l-188 -40q-58 -12 -100 -36.5t-47 -55.5q-5 -35 18.5 -53.5t72.5 -18.5z" />
    <glyph glyph-name="ccedilla" unicode="&#xe7;" horiz-adv-x="1290" 
d="M382 -407q-147 0 -255 110l-27 27l157 200l17 -20q18 -22 28.5 -33t28.5 -26.5t36.5 -22.5t39.5 -7q32 0 36 28q7 48 -68 96q-30 21 -69 40q-5 2 -13.5 6t-12.5 6q-131 35 -215 122.5t-114 202.5q-28 107 -9 234q21 129 83 235q89 151 245 248.5t356 97.5
q142 0 253.5 -55t174.5 -149q10 -16 20 -34t21 -40.5t18 -35.5l10 -17l-329 -175l-11 28q-15 41 -29.5 68t-37.5 55t-57.5 41.5t-79.5 13.5q-61 0 -113 -26t-86 -68t-55.5 -89.5t-29.5 -97.5q-4 -39 -3.5 -77.5t14.5 -74.5t36 -64t60.5 -45t87.5 -17q141 0 235 139
q15 21 25 38l19 29l275 -176l-15 -18q-75 -89 -94 -109q-123 -122 -287 -173q66 -77 50 -181q-17 -102 -105 -168t-211 -66z" />
    <glyph glyph-name="egrave" unicode="&#xe8;" horiz-adv-x="1333" 
d="M795 1752l169 -445h-342l-207 445h380zM442 -23q-187 0 -311.5 87.5t-170.5 225.5q-41 120 -18 266q22 144 103 268q90 137 242.5 225t338.5 88t312 -88t172 -225q40 -122 17 -268q-3 -17 -9 -52t-8 -52l-4 -23h-807q17 -67 65 -109t126 -42q129 0 225 125q5 6 13 18
l301 -131q-77 -92 -110 -123q-93 -88 -216.5 -139t-260.5 -51zM360 720h400q-49 117 -181 117t-219 -117z" />
    <glyph glyph-name="eacute" unicode="&#xe9;" horiz-adv-x="1333" 
d="M1042 1729l-350 -445h-340l310 445h380zM421 -23q-187 0 -311.5 87.5t-170.5 225.5q-41 120 -18 266q22 144 103 268q90 137 242.5 225t338.5 88t312 -88t172 -225q40 -122 17 -268q-2 -17 -8 -52t-9 -52l-4 -23h-807q17 -67 65 -109t126 -42q129 0 225 125q5 6 13 18
l301 -131q-77 -92 -110 -123q-93 -88 -216.5 -139t-260.5 -51zM339 720h400q-49 117 -181 117t-219 -117z" />
    <glyph glyph-name="ecircumflex" unicode="&#xea;" horiz-adv-x="1333" 
d="M652 1426l-117 -126h-373l414 445h251l278 -445h-374zM421 -23q-187 0 -311.5 87.5t-170.5 225.5q-41 120 -18 266q22 144 103 268q90 137 242.5 225t338.5 88t312 -88t172 -225q40 -122 17 -268q-2 -17 -8 -52t-9 -52l-4 -23h-807q17 -67 65 -109t126 -42q129 0 225 125
q5 6 13 18l301 -131q-77 -92 -110 -123q-93 -88 -216.5 -139t-260.5 -51zM339 720h400q-49 117 -181 117t-219 -117z" />
    <glyph glyph-name="edieresis" unicode="&#xeb;" horiz-adv-x="1333" 
d="M413 1236q-84 0 -126.5 52.5t-31.5 120.5q10 67 69.5 118.5t142.5 51.5q81 0 123 -52t32 -118q-11 -67 -68.5 -120t-140.5 -53zM843 1236q-84 0 -126.5 52.5t-31.5 120.5q10 67 69.5 118.5t142.5 51.5q81 0 123 -52t32 -118q-11 -67 -68.5 -120t-140.5 -53zM421 -23
q-187 0 -311.5 87.5t-170.5 225.5q-41 120 -18 266q22 144 103 268q90 137 242.5 225t338.5 88t312 -88t172 -225q40 -122 17 -268q-2 -17 -8 -52t-9 -52l-4 -23h-807q17 -67 65 -109t126 -42q129 0 225 125q5 6 13 18l301 -131q-77 -92 -110 -123q-93 -88 -216.5 -139
t-260.5 -51zM339 720h400q-49 117 -181 117t-219 -117z" />
    <glyph glyph-name="igrave" unicode="&#xec;" horiz-adv-x="584" 
d="M409 1735l167 -445h-339l-209 445h381zM407 1111l-176 -1111h-338l176 1111h338z" />
    <glyph glyph-name="iacute" unicode="&#xed;" horiz-adv-x="584" 
d="M648 1729l-349 -445h-341l310 445h380zM397 1111l-176 -1111h-339l176 1111h339z" />
    <glyph glyph-name="icircumflex" unicode="&#xee;" horiz-adv-x="614" 
d="M299 1421l-116 -125h-374l415 445h250l278 -445h-374zM417 1111l-176 -1111h-339l176 1111h339z" />
    <glyph glyph-name="idieresis" unicode="&#xef;" horiz-adv-x="468" 
d="M-32 1222q-84 0 -126.5 52.5t-31.5 120.5q10 67 69.5 118.5t142.5 51.5q81 0 123 -52t32 -118q-11 -67 -68.5 -120t-140.5 -53zM398 1222q-84 0 -126.5 52.5t-31.5 120.5q10 67 69.5 118.5t142.5 51.5q81 0 123 -52t32 -118q-11 -67 -68.5 -120t-140.5 -53zM344 1111
l-176 -1111h-338l176 1109q85 0 338 2z" />
    <glyph glyph-name="ntilde" unicode="&#xf1;" horiz-adv-x="1138" 
d="M677 1282q-80 0 -161 48l-29 18l-9 -35l-6 -21h-310l16 76q10 45 33.5 89t61.5 85.5t97 67.5t129 26q79 0 162 -47l28 -17q1 3 6 34l4 23h317l-17 -75q-10 -46 -33.5 -90.5t-61 -87t-97 -68.5t-130.5 -26zM280 659l-104 -659h-338l176 1111h338q75 22 158 22
q116 0 206 -36t141.5 -96.5t73 -136.5t8.5 -158l-112 -706h-340l104 659q12 75 -17.5 125.5t-108.5 50.5t-126 -50.5t-59 -125.5z" />
    <glyph glyph-name="ograve" unicode="&#xf2;" horiz-adv-x="1333" 
d="M753 1732l169 -445h-341l-210 445h382zM426 -23q-198 0 -323.5 96t-166.5 245q-31 112 -10 238q13 80 46.5 159.5t93 156t136 135t182.5 94.5t226 36q203 0 330.5 -101t163.5 -254q25 -110 7 -226q-21 -129 -86 -238q-88 -148 -244.5 -244.5t-354.5 -96.5zM474 278
q61 0 112.5 25.5t85.5 67t55.5 89t29.5 96.5q10 47 2 97t-27.5 91t-63.5 67t-105 26t-113 -26t-86 -68t-55.5 -89.5t-29.5 -97.5q-4 -39 -3.5 -77.5t14.5 -74.5t36 -64t60.5 -45t87.5 -17z" />
    <glyph glyph-name="oacute" unicode="&#xf3;" horiz-adv-x="1333" 
d="M1063 1719l-349 -445h-340l309 445h380zM426 -23q-198 0 -323.5 96t-166.5 245q-31 112 -10 238q13 80 46.5 159.5t93 156t136 135t182.5 94.5t226 36q203 0 330.5 -101t163.5 -254q25 -110 7 -226q-21 -129 -86 -238q-88 -148 -244.5 -244.5t-354.5 -96.5zM474 278
q61 0 112.5 25.5t85.5 67t55.5 89t29.5 96.5q10 47 2 97t-27.5 91t-63.5 67t-105 26t-113 -26t-86 -68t-55.5 -89.5t-29.5 -97.5q-4 -39 -3.5 -77.5t14.5 -74.5t36 -64t60.5 -45t87.5 -17z" />
    <glyph glyph-name="ocircumflex" unicode="&#xf4;" horiz-adv-x="1333" 
d="M633 1422l-115 -126h-374l414 445h251l277 -445h-374zM426 -23q-198 0 -323.5 96t-166.5 245q-31 112 -10 238q13 80 46.5 159.5t93 156t136 135t182.5 94.5t226 36q203 0 330.5 -101t163.5 -254q25 -110 7 -226q-21 -129 -86 -238q-88 -148 -244.5 -244.5t-354.5 -96.5z
M474 278q61 0 112.5 25.5t85.5 67t55.5 89t29.5 96.5q10 47 2 97t-27.5 91t-63.5 67t-105 26t-113 -26t-86 -68t-55.5 -89.5t-29.5 -97.5q-4 -39 -3.5 -77.5t14.5 -74.5t36 -64t60.5 -45t87.5 -17z" />
    <glyph glyph-name="otilde" unicode="&#xf5;" horiz-adv-x="1333" 
d="M732 1280q-85 0 -163 49l-27 16q-2 -7 -4 -19t-3 -14l-6 -22h-316l18 77q9 44 33 88.5t62 86t97 67t129 25.5q84 0 162 -46l30 -18q6 21 8 35l6 22h311l-16 -75q-10 -45 -33.5 -90t-61 -87t-96.5 -68.5t-130 -26.5zM426 -23q-198 0 -323.5 96t-166.5 245q-31 112 -10 238
q13 80 46.5 159.5t93 156t136 135t182.5 94.5t226 36q203 0 330.5 -101t163.5 -254q25 -110 7 -226q-21 -129 -86 -238q-88 -148 -244.5 -244.5t-354.5 -96.5zM474 278q61 0 112.5 25.5t85.5 67t55.5 89t29.5 96.5q10 47 2 97t-27.5 91t-63.5 67t-105 26t-113 -26t-86 -68
t-55.5 -89.5t-29.5 -97.5q-4 -39 -3.5 -77.5t14.5 -74.5t36 -64t60.5 -45t87.5 -17z" />
    <glyph glyph-name="odieresis" unicode="&#xf6;" horiz-adv-x="1333" 
d="M424 1231q-84 0 -126.5 52.5t-31.5 120.5q11 67 70 118.5t142 51.5q81 0 123 -52t32 -118q-11 -67 -68.5 -120t-140.5 -53zM854 1231q-84 0 -126.5 52.5t-31.5 120.5q11 67 70 118.5t142 51.5q81 0 123 -52t32 -118q-11 -67 -68.5 -120t-140.5 -53zM442 -23
q-198 0 -323.5 96t-166.5 245q-31 112 -10 238q13 80 46.5 159.5t93 156t136 135t182.5 94.5t226 36q203 0 330.5 -101t163.5 -254q25 -110 7 -226q-21 -129 -86 -238q-88 -148 -244.5 -244.5t-354.5 -96.5zM490 278q61 0 112.5 25.5t85.5 67t55.5 89t29.5 96.5q10 47 2 97
t-27.5 91t-63.5 67t-105 26t-113 -26t-86 -68t-55.5 -89.5t-29.5 -97.5q-4 -39 -3.5 -77.5t14.5 -74.5t36 -64t60.5 -45t87.5 -17z" />
    <glyph glyph-name="divide" unicode="&#xf7;" horiz-adv-x="1465" 
d="M885 1317l-59 -370h-359l59 370h359zM1172 906l-49 -307h-1064l49 307h1064zM765 559l-59 -370h-359l59 370h359z" />
    <glyph glyph-name="oslash" unicode="&#xf8;" horiz-adv-x="1333" 
d="M402 -22l-133 -209h-384l207 326q-101 84 -136 207t-14 254q13 80 46.5 159.5t93 156t136 135t182.5 94.5t226 36q54 0 119 -10l91 144h383l-191 -303q70 -84 93.5 -191.5t5.5 -220.5q-21 -129 -86 -238q-88 -148 -245 -244.5t-354 -96.5q-27 0 -40 1zM299 423l261 413
q-110 -8 -179.5 -92t-85.5 -188q-11 -69 4 -133zM773 556l2 13l-166 -263q68 36 110 106t54 144z" />
    <glyph glyph-name="ugrave" unicode="&#xf9;" horiz-adv-x="1138" 
d="M618 1725l169 -445h-340l-210 445h381zM330 -20q-116 0 -205.5 35.5t-141.5 95.5t-73 136t-8 159l112 705h338l-104 -659q-12 -74 18.5 -123.5t108.5 -49.5q79 0 125.5 49t58.5 124l104 659h340l-176 -1111h-340q-71 -20 -157 -20z" />
    <glyph glyph-name="uacute" unicode="&#xfa;" horiz-adv-x="1138" 
d="M937 1712l-348 -445h-341l309 445h380zM330 -20q-116 0 -205.5 35.5t-141.5 95.5t-73 136t-8 159l112 705h338l-104 -659q-12 -74 18.5 -123.5t108.5 -49.5q79 0 125.5 49t58.5 124l104 659h340l-176 -1111h-340q-71 -20 -157 -20z" />
    <glyph glyph-name="ucircumflex" unicode="&#xfb;" horiz-adv-x="1138" 
d="M547 1392l-116 -126h-373l413 445h251l278 -445h-373zM330 -20q-116 0 -205.5 35.5t-141.5 95.5t-73 136t-8 159l112 705h338l-104 -659q-12 -74 18.5 -123.5t108.5 -49.5q79 0 125.5 49t58.5 124l104 659h340l-176 -1111h-340q-71 -20 -157 -20z" />
    <glyph glyph-name="udieresis" unicode="&#xfc;" horiz-adv-x="1138" 
d="M333 1230q-84 0 -126.5 52.5t-31.5 120.5q11 67 70 118.5t142 51.5q81 0 123 -52t32 -118q-11 -67 -68.5 -120t-140.5 -53zM763 1230q-84 0 -126.5 52.5t-31.5 120.5q11 67 70 118.5t142 51.5q81 0 123 -52t32 -118q-11 -67 -68.5 -120t-140.5 -53zM330 -20
q-116 0 -205.5 35.5t-141.5 95.5t-73 136t-8 159l112 705h338l-104 -659q-12 -74 18.5 -123.5t108.5 -49.5q79 0 125.5 49t58.5 124l104 659h340l-176 -1111h-340q-71 -20 -157 -20z" />
    <glyph glyph-name="yacute" unicode="&#xfd;" horiz-adv-x="1377" 
d="M1128 1717l-350 -445h-341l310 445h381zM1248 1111l-883 -1503h-367l278 488l-270 1015h376l154 -580l336 580h376z" />
    <glyph glyph-name="ydieresis" unicode="&#xff;" horiz-adv-x="1377" 
d="M444 1235q-84 0 -126.5 52.5t-31.5 120.5q10 67 69.5 118.5t142.5 51.5q81 0 123 -52t32 -118q-11 -67 -68.5 -120t-140.5 -53zM874 1235q-84 0 -126.5 52.5t-31.5 120.5q10 67 69.5 118.5t142.5 51.5q81 0 123 -52t32 -118q-11 -67 -68.5 -120t-140.5 -53zM1248 1111
l-883 -1503h-367l278 488l-270 1015h376l154 -580l336 580h376z" />
    <glyph glyph-name="Amacron" unicode="&#x100;" horiz-adv-x="1610" 
d="M1190 1940l-44 -280h-617l44 280h617zM408 376l-199 -376h-377l820 1512h312l342 -1512h-378l-77 376h-443zM786 675l-63 296l-157 -296h220z" />
    <glyph glyph-name="amacron" unicode="&#x101;" horiz-adv-x="1150" 
d="M891 1543l-44 -280h-613l44 280h613zM284 -22q-137 0 -233 51.5t-135.5 135t-23.5 184.5q18 114 106.5 197t225.5 131l118 32l272 58q-20 68 -132 68q-68 0 -102.5 -19.5t-41.5 -65.5l-3 -23h-347l4 22q22 141 122.5 238.5t281.5 131.5q68 14 132 14q227 0 340 -117
t86 -290l-115 -726h-339l4 25q-110 -47 -220 -47zM331 276q94 0 158.5 60t85.5 144l-188 -40q-58 -12 -100 -36.5t-47 -55.5q-5 -35 18.5 -53.5t72.5 -18.5z" />
    <glyph glyph-name="Abreve" unicode="&#x102;" horiz-adv-x="1610" 
d="M832 1666q-58 0 -107.5 15.5t-83.5 41.5t-60.5 60.5t-38.5 72.5t-18 78t2 76l12 74h311l-12 -74q-4 -25 8 -52q11 -25 29 -25q20 0 41 25q22 25 26 52l12 74h309l-12 -74q-9 -58 -42 -117t-84.5 -110.5t-128 -84t-163.5 -32.5zM408 376l-199 -376h-377l820 1512h312
l342 -1512h-378l-77 376h-443zM786 675l-63 296l-157 -296h220z" />
    <glyph glyph-name="abreve" unicode="&#x103;" horiz-adv-x="1150" 
d="M561 1252q-58 0 -108 15.5t-84 41t-60 60t-38 73t-18 78t2 76.5l11 72h313l-4 -23q-6 -19 -9 -39q-4 -31 7 -59t31 -28q17 0 37 25q21 27 25 52l11 72h310l-11 -72q-9 -57 -41.5 -116t-83.5 -110.5t-127.5 -84.5t-162.5 -33zM284 -22q-137 0 -233 51.5t-135.5 135
t-23.5 184.5q18 114 106.5 197t225.5 131l118 32l272 58q-20 68 -132 68q-68 0 -102.5 -19.5t-41.5 -65.5l-3 -23h-347l4 22q22 141 122.5 238.5t281.5 131.5q68 14 132 14q227 0 340 -117t86 -290l-115 -726h-339l4 25q-110 -47 -220 -47zM331 276q94 0 158.5 60t85.5 144
l-188 -40q-58 -12 -100 -36.5t-47 -55.5q-5 -35 18.5 -53.5t72.5 -18.5z" />
    <glyph glyph-name="Aogonek" unicode="&#x104;" horiz-adv-x="1593" 
d="M985 -390q-140 0 -211 73t-55 178q22 144 188 242l-56 273h-443l-199 -376h-377l820 1512h312l336 -1483l-29 -7q-12 -3 -27 -8l104 -255l-15 -11q-18 -12 -26 -18q-4 -2 -21.5 -15t-27.5 -19q-133 -86 -273 -86zM786 675l-63 296l-157 -296h220zM1037 -116v-5h2
q44 0 97 46q40 34 57 51l33 32q-67 -24 -126 -60.5t-63 -63.5z" />
    <glyph glyph-name="aogonek" unicode="&#x105;" horiz-adv-x="1166" 
d="M498 -454q-123 0 -190.5 66t-51.5 168q20 121 145 208q-55 -10 -100 -10q-137 0 -233 51.5t-135.5 135t-23.5 184.5q18 114 106.5 197t225.5 131l118 32l272 58q-20 68 -132 68q-68 0 -102.5 -19.5t-41.5 -65.5l-3 -23h-347l4 22q22 141 122.5 238.5t281.5 131.5
q68 14 132 14q227 0 340 -117t86 -290l-115 -724l8 -3l-47 -16q-121 -43 -183 -75q-110 -58 -117 -106q-3 -16 3.5 -22t25.5 -6q40 0 77 23.5t82 66.5l23 22l94 -205l-11 -9q-158 -126 -313 -126zM348 276q94 0 158.5 60t85.5 144l-188 -40q-58 -12 -100 -36.5t-47 -55.5
q-5 -35 18.5 -53.5t72.5 -18.5z" />
    <glyph glyph-name="Cacute" unicode="&#x106;" horiz-adv-x="1643" 
d="M1341 2072l-342 -435l-352 -11l310 446h384zM619 -23q-129 0 -239 34.5t-188.5 95t-132.5 137.5t-82 167q-49 159 -19 344q28 185 128 345q119 190 323 311.5t457 121.5q188 0 331 -72t228 -196q71 -99 81 -161l2 -16l-331 -157l-8 28q-25 78 -48 116
q-45 72 -123.5 114.5t-179.5 42.5q-145 0 -258.5 -77.5t-176.5 -197.5q-48 -89 -66 -202q-18 -109 2 -201q25 -120 113.5 -197.5t234.5 -77.5q196 0 350 154q45 45 89 112l19 27l275 -162l-10 -16q-3 -7 -19 -29q-54 -73 -108 -124q-126 -121 -293 -192.5t-351 -71.5z" />
    <glyph glyph-name="cacute" unicode="&#x107;" horiz-adv-x="1290" 
d="M1007 1736l-350 -445h-342l310 445h382zM426 -23q-199 0 -325 98t-166 247q-28 107 -9 234q21 129 83 235q89 151 245 248.5t356 97.5q142 0 253.5 -55t174.5 -149q10 -16 20 -34t21 -40.5t18 -35.5l10 -17l-329 -175l-11 28q-15 41 -29.5 68t-37.5 55t-57.5 41.5
t-79.5 13.5q-61 0 -113 -26t-86 -68t-55.5 -89.5t-29.5 -97.5q-4 -39 -3.5 -77.5t14.5 -74.5t36 -64t60.5 -45t87.5 -17q141 0 235 139q15 21 25 38l19 29l275 -176l-15 -18q-75 -89 -94 -109q-94 -94 -222 -149t-271 -55z" />
    <glyph glyph-name="Ccircumflex" unicode="&#x108;" horiz-adv-x="1643" 
d="M906 1760l-117 -126h-376l415 446h252l281 -446h-376zM635 -23q-129 0 -239 34.5t-188.5 95t-132.5 137.5t-82 167q-49 159 -19 344q28 185 128 345q119 190 323 311.5t457 121.5q188 0 331 -72t228 -196q71 -99 81 -161l2 -16l-331 -157l-8 28q-25 78 -48 116
q-45 72 -123.5 114.5t-179.5 42.5q-145 0 -258.5 -77.5t-176.5 -197.5q-48 -89 -66 -202q-18 -109 2 -201q25 -120 113.5 -197.5t234.5 -77.5q196 0 350 154q45 45 89 112l19 27l275 -162l-10 -16q-3 -7 -19 -29q-54 -73 -108 -124q-126 -121 -293 -192.5t-351 -71.5z" />
    <glyph glyph-name="ccircumflex" unicode="&#x109;" horiz-adv-x="1290" 
d="M645 1422l-115 -126h-374l414 445h251l277 -445h-374zM426 -23q-199 0 -325 98t-166 247q-28 107 -9 234q21 129 83 235q89 151 245 248.5t356 97.5q142 0 253.5 -55t174.5 -149q10 -16 20 -34t21 -40.5t18 -35.5l10 -17l-329 -175l-11 28q-15 41 -29.5 68t-37.5 55
t-57.5 41.5t-79.5 13.5q-61 0 -113 -26t-86 -68t-55.5 -89.5t-29.5 -97.5q-4 -39 -3.5 -77.5t14.5 -74.5t36 -64t60.5 -45t87.5 -17q141 0 235 139q15 21 25 38l19 29l275 -176l-15 -18q-75 -89 -94 -109q-94 -94 -222 -149t-271 -55z" />
    <glyph glyph-name="Cdotaccent" unicode="&#x10a;" horiz-adv-x="1643" 
d="M882 1631q-99 0 -146.5 60t-35.5 132q11 71 78.5 130.5t164.5 59.5t145 -59.5t37 -130.5q-12 -73 -78 -132.5t-165 -59.5zM619 -23q-129 0 -239 34.5t-188.5 95t-132.5 137.5t-82 167q-49 159 -19 344q28 185 128 345q119 190 322.5 311.5t457.5 121.5q120 0 222.5 -30
t177.5 -83.5t129.5 -120t93.5 -147.5q15 -27 17 -48l2 -16l-330 -157l-15 46q-16 49 -32 77q-45 82 -124.5 130t-188.5 48q-145 0 -258.5 -77.5t-176.5 -197.5q-48 -89 -66 -202q-18 -109 2 -201q25 -120 113.5 -197.5t234.5 -77.5q203 0 362 168q23 25 65 81l32 44
l275 -163l-19 -28q-46 -71 -105 -131q-124 -125 -296.5 -199t-361.5 -74z" />
    <glyph glyph-name="cdotaccent" unicode="&#x10b;" horiz-adv-x="1290" 
d="M637 1278q-98 0 -145.5 59.5t-35.5 131.5q11 71 77.5 129.5t163.5 58.5t145 -59t37 -129q-12 -72 -77.5 -131.5t-164.5 -59.5zM426 -23q-199 0 -325 98t-166 247q-28 107 -9 234q21 129 83 235q89 151 245 248.5t356 97.5q142 0 253.5 -55t174.5 -149q10 -16 20 -34
t21 -40.5t18 -35.5l10 -17l-329 -175l-11 28q-15 41 -29.5 68t-37.5 55t-57.5 41.5t-79.5 13.5q-61 0 -113 -26t-86 -68t-55.5 -89.5t-29.5 -97.5q-4 -39 -3.5 -77.5t14.5 -74.5t36 -64t60.5 -45t87.5 -17q141 0 235 139q15 21 25 38l19 29l275 -176l-15 -18
q-75 -89 -94 -109q-94 -94 -222 -149t-271 -55z" />
    <glyph glyph-name="Ccaron" unicode="&#x10c;" horiz-adv-x="1643" 
d="M1437 2111l-422 -446h-252l-276 446h376l78 -126l119 126h377zM619 -23q-129 0 -239 34.5t-188.5 95t-132.5 137.5t-82 167q-49 159 -19 344q28 185 128 345q119 190 323 311.5t457 121.5q188 0 331 -72t228 -196q71 -99 81 -161l2 -16l-331 -157l-8 28q-25 78 -48 116
q-45 72 -123.5 114.5t-179.5 42.5q-145 0 -258.5 -77.5t-176.5 -197.5q-48 -89 -66 -202q-18 -109 2 -201q25 -120 113.5 -197.5t234.5 -77.5q196 0 350 154q45 45 89 112l19 27l275 -162l-10 -16q-3 -7 -19 -29q-54 -73 -108 -124q-126 -121 -293 -192.5t-351 -71.5z" />
    <glyph glyph-name="ccaron" unicode="&#x10d;" horiz-adv-x="1290" 
d="M1169 1742l-419 -445h-251l-272 445h374l75 -125l119 125h374zM426 -23q-199 0 -325 98t-166 247q-28 107 -9 234q21 129 83 235q89 151 245 248.5t356 97.5q142 0 253.5 -55t174.5 -149q10 -16 20 -34t21 -40.5t18 -35.5l10 -17l-329 -175l-11 28q-15 41 -29.5 68
t-37.5 55t-57.5 41.5t-79.5 13.5q-61 0 -113 -26t-86 -68t-55.5 -89.5t-29.5 -97.5q-4 -39 -3.5 -77.5t14.5 -74.5t36 -64t60.5 -45t87.5 -17q141 0 235 139q15 21 25 38l19 29l275 -176l-15 -18q-75 -89 -94 -109q-94 -94 -222 -149t-271 -55z" />
    <glyph glyph-name="Dcaron" unicode="&#x10e;" horiz-adv-x="1463" 
d="M1185 2064l-421 -446h-253l-275 446h375l79 -126l119 126h376zM384 -2h-546l239 1514h546q164 0 303 -58q75 -32 135.5 -79.5t100 -103t67.5 -120t39 -130t13 -134t-10 -132.5q-13 -80 -41 -159.5t-75.5 -160t-110.5 -149.5t-150 -129t-189 -99q-158 -60 -321 -60z
M429 293q61 0 132 23q78 24 142.5 73t106.5 110.5t68.5 126t37.5 129.5q16 105 -3 196q-25 116 -110.5 191t-226.5 75h-191l-146 -923q32 0 95.5 -0.5t94.5 -0.5z" />
    <glyph glyph-name="dcaron" unicode="&#x10f;" horiz-adv-x="1318" 
d="M1018 1669l-381 -409h-219l-249 409h310l90 -150l140 150h309zM442 -23q-197 0 -322 94.5t-166 241.5q-33 111 -12 243q21 134 89 245q89 147 243.5 241.5t351.5 94.5q129 0 231 -43l65 408h339l-238 -1502h-339l3 20q-116 -43 -245 -43zM490 278q61 0 112.5 25.5
t85.5 67t55.5 89t29.5 96.5q10 47 2 97t-27.5 91t-63.5 67t-105 26t-113 -26t-86 -68t-55.5 -89.5t-29.5 -97.5q-4 -39 -3.5 -77.5t14.5 -74.5t36 -64t60.5 -45t87.5 -17z" />
    <glyph glyph-name="Emacron" unicode="&#x112;" horiz-adv-x="1257" 
d="M1006 1924l-45 -280h-615l45 280h615zM993 299l-47 -299h-1108l239 1512h1108l-47 -299h-749l-45 -284h656l-47 -300h-656l-53 -330h749z" />
    <glyph glyph-name="emacron" unicode="&#x113;" horiz-adv-x="1333" 
d="M979 1590l-45 -280h-613l45 280h613zM442 -23q-187 0 -311.5 87.5t-170.5 225.5q-41 120 -18 266q22 144 103 268q90 137 242.5 225t338.5 88t312 -88t172 -225q40 -122 17 -268q-3 -17 -9 -52t-8 -52l-4 -23h-807q17 -67 65 -109t126 -42q129 0 225 125q5 6 13 18
l301 -131q-77 -92 -110 -123q-93 -88 -216.5 -139t-260.5 -51zM360 720h400q-49 117 -181 117t-219 -117z" />
    <glyph glyph-name="Ebreve" unicode="&#x114;" horiz-adv-x="1257" 
d="M676 1643q-87 0 -153 33t-100.5 84.5t-48 110.5t-4.5 116l11 74h309l-11 -74q-4 -27 9 -52q12 -25 31 -25q18 0 38 25q23 26 27 52l11 74h309l-11 -74q-9 -57 -42 -116.5t-84 -111t-127.5 -84t-163.5 -32.5zM993 299l-47 -299h-1108l239 1512h1108l-47 -299h-749
l-45 -284h656l-47 -300h-656l-53 -330h749z" />
    <glyph glyph-name="ebreve" unicode="&#x115;" horiz-adv-x="1333" 
d="M644 1275q-58 0 -107.5 15.5t-83.5 41.5t-60.5 60.5t-38.5 72.5t-18 78t2 76l12 72h310l-12 -72q-4 -26 9 -52q12 -25 29 -25q18 0 38 25q21 25 25 52l12 72h309l-12 -72q-9 -57 -41.5 -116.5t-83 -111t-127 -84t-162.5 -32.5zM421 -23q-187 0 -311.5 87.5t-170.5 225.5
q-41 120 -18 266q22 144 103 268q90 137 242.5 225t338.5 88t312 -88t172 -225q40 -122 17 -268q-2 -17 -8 -52t-9 -52l-4 -23h-807q17 -67 65 -109t126 -42q129 0 225 125q5 6 13 18l301 -131q-77 -92 -110 -123q-93 -88 -216.5 -139t-260.5 -51zM339 720h400
q-49 117 -181 117t-219 -117z" />
    <glyph glyph-name="Edotaccent" unicode="&#x116;" horiz-adv-x="1257" 
d="M671 1635q-99 0 -146.5 59.5t-36.5 131.5q12 71 79 130.5t164 59.5q98 0 146 -59.5t36 -130.5q-11 -72 -76.5 -131.5t-165.5 -59.5zM993 299l-47 -299h-1108l239 1512h1108l-47 -299h-749l-45 -284h656l-47 -300h-656l-53 -330h749z" />
    <glyph glyph-name="edotaccent" unicode="&#x117;" horiz-adv-x="1333" 
d="M630 1272q-98 0 -145.5 59.5t-35.5 131.5q11 71 77.5 129.5t163.5 58.5t145 -59t37 -129q-12 -72 -78 -131.5t-164 -59.5zM442 -23q-187 0 -311.5 87.5t-170.5 225.5q-41 120 -18 266q22 144 103 268q90 137 242.5 225t338.5 88t312 -88t172 -225q40 -122 17 -268
q-3 -17 -9 -52t-8 -52l-4 -23h-807q17 -67 65 -109t126 -42q129 0 225 125q5 6 13 18l301 -131q-77 -92 -110 -123q-93 -88 -216.5 -139t-260.5 -51zM360 720h400q-49 117 -181 117t-219 -117z" />
    <glyph glyph-name="Eogonek" unicode="&#x118;" horiz-adv-x="1272" 
d="M604 -444q-123 0 -191 66t-51 168q18 122 148 210h-656l239 1512h1108l-47 -299h-749l-45 -284h656l-47 -300h-656l-53 -330h749l-45 -288l5 -2l-6 -2l-1 -7h-19l-20 -7q-119 -41 -183 -75q-110 -57 -118 -106q-2 -16 4.5 -22t25.5 -6q40 0 77 23.5t82 66.5l23 22
l94 -205l-11 -9q-158 -126 -313 -126z" />
    <glyph glyph-name="eogonek" unicode="&#x119;" horiz-adv-x="1333" 
d="M311 -447q-123 0 -190.5 66t-51.5 168q21 132 169 223q-105 38 -175.5 111.5t-102.5 168.5q-41 120 -18 266q22 144 103 268q90 137 242.5 225t338.5 88t312 -88t172 -225q40 -122 17 -268q-3 -17 -9 -52t-8 -52l-4 -23h-807q17 -67 65 -109t126 -42q129 0 225 125
q5 6 13 18l301 -131q-77 -92 -110 -123q-110 -105 -259 -155l-30 -22q-121 -43 -182 -75q-111 -57 -118 -106q-3 -16 3.5 -22t25.5 -6q64 0 160 90l22 22l95 -205l-12 -9q-158 -126 -313 -126zM360 720h400q-49 117 -181 117t-219 -117z" />
    <glyph glyph-name="Ecaron" unicode="&#x11a;" horiz-adv-x="1257" 
d="M1226 2109l-421 -446h-252l-274 446h375l77 -126l120 126h375zM993 299l-47 -299h-1108l239 1512h1108l-47 -299h-749l-45 -284h656l-47 -300h-656l-53 -330h749z" />
    <glyph glyph-name="ecaron" unicode="&#x11b;" horiz-adv-x="1333" 
d="M1177 1743l-418 -445h-251l-274 445h373l77 -125l119 125h374zM421 -23q-187 0 -311.5 87.5t-170.5 225.5q-41 120 -18 266q22 144 103 268q90 137 242.5 225t338.5 88t312 -88t172 -225q40 -122 17 -268q-2 -17 -8 -52t-9 -52l-4 -23h-807q17 -67 65 -109t126 -42
q129 0 225 125q5 6 13 18l301 -131q-77 -92 -110 -123q-93 -88 -216.5 -139t-260.5 -51zM339 720h400q-49 117 -181 117t-219 -117z" />
    <glyph glyph-name="Gcircumflex" unicode="&#x11c;" horiz-adv-x="1643" 
d="M903 1768l-119 -127h-373l415 445h252l280 -445h-375zM619 -23q-135 0 -248.5 37t-192.5 101.5t-131 146t-77 176.5q-39 147 -12 317q27 171 113 317q56 96 133.5 177t176 145.5t224 101.5t261.5 37q191 0 333.5 -73t230.5 -200q68 -99 76 -156l2 -16l-330 -157l-9 28
l-12 35q-35 105 -121.5 171.5t-217.5 66.5q-135 0 -243 -68t-176 -177q-63 -104 -82 -232q-21 -123 9 -230q33 -109 120 -177.5t221 -68.5q165 0 299 105q2 1 39 36l20 21l15 14l17 111h-483l47 299h825l-137 -865h-340l8 50q-174 -73 -358 -73z" />
    <glyph glyph-name="gcircumflex" unicode="&#x11d;" horiz-adv-x="1307" 
d="M652 1421l-117 -126h-373l415 445h251l277 -445h-374zM365 -392q-147 0 -262 59t-175 157q-23 38 -38 79q-9 23 -15 45l341 108q45 -150 193 -150q81 0 144.5 38.5t96.5 102.5q10 15 19 45q-115 -44 -239 -44q-142 0 -224 41l-41 20q-136 67 -195.5 203t-36.5 279
q12 76 47 152t94 146.5t135 124.5t178 86.5t214 32.5q128 0 228 -47l4 25h339l-157 -989q-15 -95 -66.5 -185t-132 -164.5t-198.5 -119.5t-253 -45zM477 347q113 0 185.5 72t88.5 172q9 62 -7.5 116t-66 91t-125.5 37q-112 0 -183.5 -72.5t-87.5 -171.5q-16 -100 33 -172
t163 -72z" />
    <glyph glyph-name="Gbreve" unicode="&#x11e;" horiz-adv-x="1643" 
d="M882 1643q-86 0 -151.5 33t-100 84.5t-48.5 110.5t-5 116l11 74h310l-11 -74q-4 -28 8 -52q11 -25 30 -25q18 0 39 25q23 28 27 52l11 74h309l-11 -74q-9 -57 -42 -116.5t-84.5 -111t-128 -84t-163.5 -32.5zM619 -23q-135 0 -248.5 37t-192.5 101.5t-131 146t-77 176.5
q-39 147 -12 317q27 171 113 317q56 96 133.5 177t176 145.5t224 101.5t261.5 37q191 0 333.5 -73t230.5 -200q68 -99 76 -156l2 -16l-330 -157l-9 28l-12 35q-35 105 -121.5 171.5t-217.5 66.5q-135 0 -243 -68t-176 -177q-63 -104 -82 -232q-21 -123 9 -230
q33 -109 120 -177.5t221 -68.5q165 0 299 105q2 1 39 36l20 21l15 14l17 111h-483l47 299h825l-137 -865h-340l8 50q-174 -73 -358 -73z" />
    <glyph glyph-name="gbreve" unicode="&#x11f;" horiz-adv-x="1307" 
d="M649 1302q-86 0 -152 33t-100.5 84.5t-48 110.5t-4.5 116l11 72h310l-11 -72q-4 -28 8 -52q12 -25 30 -25q17 0 37 25q22 26 26 52l11 72h309l-11 -72q-7 -45 -28.5 -92t-58.5 -92.5t-84 -81t-110.5 -57t-133.5 -21.5zM365 -392q-147 0 -262 59t-175 157q-23 38 -38 79
q-9 23 -15 45l341 108q45 -150 193 -150q81 0 144.5 38.5t96.5 102.5q10 15 19 45q-115 -44 -239 -44q-142 0 -224 41l-41 20q-136 67 -195.5 203t-36.5 279q12 76 47 152t94 146.5t135 124.5t178 86.5t214 32.5q128 0 228 -47l4 25h339l-157 -989q-15 -95 -66.5 -185
t-132 -164.5t-198.5 -119.5t-253 -45zM477 347q113 0 185.5 72t88.5 172q9 62 -7.5 116t-66 91t-125.5 37q-112 0 -183.5 -72.5t-87.5 -171.5q-16 -100 33 -172t163 -72z" />
    <glyph glyph-name="Gdotaccent" unicode="&#x120;" horiz-adv-x="1643" 
d="M886 1654q-99 0 -146.5 59.5t-36.5 131.5q12 71 79 130.5t164 59.5q98 0 146 -59.5t36 -130.5q-11 -72 -76.5 -131.5t-165.5 -59.5zM619 -23q-135 0 -248.5 37t-192.5 101.5t-131 146t-77 176.5q-39 147 -12 317q27 171 113 317q56 96 133.5 177t176.5 145.5t224 101.5
t261 37q119 0 221.5 -30t178.5 -84t130.5 -120.5t92.5 -146.5q15 -30 17 -48l2 -16l-330 -157l-15 46q-39 114 -124 184.5t-221 70.5q-135 0 -242.5 -67.5t-176.5 -177.5q-63 -104 -82 -232q-21 -122 9 -230q33 -109 120 -177.5t221 -68.5q165 0 299 105q2 1 39 36l20 21
l15 14l17 111h-483l47 299h825l-137 -865h-340l8 50q-174 -73 -358 -73z" />
    <glyph glyph-name="gdotaccent" unicode="&#x121;" horiz-adv-x="1307" 
d="M640 1273q-98 0 -146 60t-36 131q11 71 77.5 129.5t164.5 58.5q96 0 144 -59t37 -129q-12 -72 -77.5 -131.5t-163.5 -59.5zM365 -392q-147 0 -262 59t-175 157q-23 38 -38 79q-9 23 -15 45l341 108q45 -150 193 -150q81 0 144.5 38.5t96.5 102.5q10 15 19 45
q-115 -44 -239 -44q-142 0 -224 41l-41 20q-136 67 -195.5 203t-36.5 279q15 96 67.5 190.5t135 174t204 128.5t260.5 49h1q128 0 228 -47l4 25h339l-157 -989q-15 -95 -66.5 -185t-132 -164.5t-198.5 -119.5t-253 -45zM477 347q113 0 185.5 72t88.5 172q9 62 -7.5 116
t-66 91t-125.5 37q-112 0 -183.5 -72.5t-87.5 -171.5q-16 -100 33 -172t163 -72z" />
    <glyph glyph-name="Itilde" unicode="&#x128;" horiz-adv-x="488" 
d="M403 1644q-83 0 -163 47l-31 18q-7 -27 -10 -36l-5 -21h-312l16 77q10 45 34 89.5t62 86t97.5 67t129.5 25.5q81 0 162 -45l32 -20v2q2 6 5 18t5 18l6 21h310l-16 -75q-10 -45 -33 -90t-61 -87t-97.5 -68.5t-130.5 -26.5zM426 1512l-239 -1512h-357l239 1512h357z" />
    <glyph glyph-name="itilde" unicode="&#x129;" horiz-adv-x="476" 
d="M332 1281q-81 0 -162 48l-29 17q-7 -26 -10 -34l-6 -21h-311l17 76q10 45 33.5 89t61.5 85.5t97 67.5t129 26q82 0 163 -47l29 -18v1q2 6 5 18.5t5 18.5l6 20h310l-17 -75q-10 -45 -33 -89.5t-61 -87t-97 -69t-130 -26.5zM348 1111l-176 -1111h-338l176 1111h338z" />
    <glyph glyph-name="Imacron" unicode="&#x12a;" horiz-adv-x="491" 
d="M621 1934l-44 -280h-616l44 280h616zM428 1512l-239 -1512h-358l239 1512h358z" />
    <glyph glyph-name="imacron" unicode="&#x12b;" horiz-adv-x="476" 
d="M566 1579l-44 -280h-612l44 280h612zM347 1111l-176 -1111h-337l176 1111h337z" />
    <glyph glyph-name="Iogonek" unicode="&#x12e;" horiz-adv-x="506" 
d="M-173 -390q-140 0 -211.5 72.5t-55.5 178.5q15 96 91.5 170.5t194.5 119.5l215 1361h359l-236 -1490l-19 -6q-12 -3 -41.5 -11t-44.5 -12l106 -227l-19 -19q-64 -60 -154.5 -98.5t-184.5 -38.5zM-122 -115v-6h3q34 0 79 31q11 8 40 33l37 34l6 5q-8 -2 -17.5 -5t-21.5 -7
l-18 -6q-58 -23 -75 -34q-29 -18 -33 -45z" />
    <glyph glyph-name="iogonek" unicode="&#x12f;" horiz-adv-x="484" 
d="M430 1502l-53 -331h-338l53 331h338zM-160 -444q-123 0 -191 66t-51 168q14 86 81 153.5t169 112.5l16 6l166 1049h338l-174 -1098l11 -4l-12 -4l-1 -5h-13l-20 -7q-119 -41 -183 -75q-110 -57 -118 -106q-2 -16 4.5 -22t25.5 -6q40 0 77 23.5t82 66.5l23 22l94 -205
l-11 -9q-158 -126 -313 -126z" />
    <glyph glyph-name="Idotaccent" unicode="&#x130;" horiz-adv-x="504" 
d="M268 1639q-100 0 -147.5 59.5t-35.5 131.5q11 71 78.5 130.5t164.5 59.5q98 0 145.5 -59.5t36.5 -130.5q-12 -73 -77 -132t-165 -59zM434 1512l-239 -1512h-358l239 1512h358z" />
    <glyph glyph-name="dotlessi" unicode="&#x131;" horiz-adv-x="488" 
d="M353 1111l-176 -1111h-338l176 1111h338z" />
    <glyph glyph-name="Omacron" unicode="&#x14c;" horiz-adv-x="1720" 
d="M1264 1938l-44 -280h-616l44 280h616zM619 -23q-134 0 -246.5 36.5t-191.5 100t-131.5 144t-78.5 174.5q-42 149 -13 323q27 176 116 324q56 94 134 174.5t177 144t223 99.5t258 36q137 0 252.5 -38t195 -104.5t132 -150t75.5 -180.5q34 -146 9 -305q-27 -163 -106 -305
q-53 -97 -132 -180.5t-180 -150t-228.5 -104.5t-264.5 -38zM667 279q148 0 259.5 76.5t177.5 198.5q48 93 66 201q17 107 -2 202q-28 121 -116 198t-234 77q-142 0 -251.5 -73t-176.5 -190q-56 -98 -73 -214q-19 -113 6 -213q29 -117 115 -190t229 -73z" />
    <glyph glyph-name="omacron" unicode="&#x14d;" horiz-adv-x="1333" 
d="M973 1554l-44 -280h-613l44 280h613zM426 -23q-198 0 -323.5 96t-166.5 245q-31 112 -10 238q13 80 46.5 159.5t93 156t136 135t182.5 94.5t226 36q203 0 330.5 -101t163.5 -254q25 -110 7 -226q-21 -129 -86 -238q-88 -148 -244.5 -244.5t-354.5 -96.5zM474 278
q61 0 112.5 25.5t85.5 67t55.5 89t29.5 96.5q10 47 2 97t-27.5 91t-63.5 67t-105 26t-113 -26t-86 -68t-55.5 -89.5t-29.5 -97.5q-4 -39 -3.5 -77.5t14.5 -74.5t36 -64t60.5 -45t87.5 -17z" />
    <glyph glyph-name="Obreve" unicode="&#x14e;" horiz-adv-x="1720" 
d="M882 1659q-58 0 -107.5 15.5t-83.5 41.5t-60.5 60.5t-38.5 72.5t-18 78t2 76l12 74h310l-12 -74q-4 -26 9 -52q11 -25 29 -25q19 0 40 25q22 26 26 52l12 74h309l-12 -74q-9 -57 -41.5 -116.5t-84 -111t-128 -84t-163.5 -32.5zM619 -23q-134 0 -246.5 36.5t-191.5 100
t-131.5 144t-78.5 174.5q-42 149 -13 323q27 176 116 324q56 94 134 174.5t177 144t223 99.5t258 36q137 0 252.5 -38t195 -104.5t132 -150t75.5 -180.5q34 -146 9 -305q-27 -163 -106 -305q-53 -97 -132 -180.5t-180 -150t-228.5 -104.5t-264.5 -38zM667 279
q148 0 259.5 76.5t177.5 198.5q48 93 66 201q17 107 -2 202q-28 121 -116 198t-234 77q-142 0 -251.5 -73t-176.5 -190q-56 -98 -73 -214q-19 -113 6 -213q29 -117 115 -190t229 -73z" />
    <glyph glyph-name="obreve" unicode="&#x14f;" horiz-adv-x="1333" 
d="M627 1279q-86 0 -151.5 33t-100 84.5t-48 110.5t-4.5 116l11 72h308l-11 -72q-4 -24 9 -52q13 -25 29 -25q18 0 38 25q22 26 26 52l11 72h308l-11 -72q-9 -57 -42 -116.5t-84 -111t-127 -84t-161 -32.5zM426 -23q-198 0 -323.5 96t-166.5 245q-31 112 -10 238
q13 80 46.5 159.5t93 156t136 135t182.5 94.5t226 36q203 0 330.5 -101t163.5 -254q25 -110 7 -226q-21 -129 -86 -238q-88 -148 -244.5 -244.5t-354.5 -96.5zM474 278q61 0 112.5 25.5t85.5 67t55.5 89t29.5 96.5q10 47 2 97t-27.5 91t-63.5 67t-105 26t-113 -26t-86 -68
t-55.5 -89.5t-29.5 -97.5q-4 -39 -3.5 -77.5t14.5 -74.5t36 -64t60.5 -45t87.5 -17z" />
    <glyph glyph-name="Ohungarumlaut" unicode="&#x150;" horiz-adv-x="1720" 
d="M1145 2068l-295 -383h-239l262 383h272zM1478 2068l-295 -383h-239l262 383h272zM619 -23q-134 0 -246.5 36.5t-191.5 100t-131.5 144t-78.5 174.5q-42 149 -13 323q27 176 116 324q56 94 134 174.5t177 144t223 99.5t258 36q137 0 252.5 -38t195 -104.5t132 -150
t75.5 -180.5q34 -146 9 -305q-27 -163 -106 -305q-53 -97 -132 -180.5t-180 -150t-228.5 -104.5t-264.5 -38zM667 279q148 0 259.5 76.5t177.5 198.5q48 93 66 201q17 107 -2 202q-28 121 -116 198t-234 77q-142 0 -251.5 -73t-176.5 -190q-56 -98 -73 -214q-19 -113 6 -213
q29 -117 115 -190t229 -73z" />
    <glyph glyph-name="ohungarumlaut" unicode="&#x151;" horiz-adv-x="1359" 
d="M836 1667l-295 -383h-239l262 383h272zM1169 1667l-295 -383h-239l262 383h272zM426 -23q-198 0 -323.5 96t-166.5 245q-31 112 -10 238q13 80 46.5 159.5t93 156t136 135t182.5 94.5t226 36q203 0 330.5 -101t163.5 -254q25 -110 7 -226q-21 -129 -86 -238
q-88 -148 -244.5 -244.5t-354.5 -96.5zM474 278q61 0 112.5 25.5t85.5 67t55.5 89t29.5 96.5q10 47 2 97t-27.5 91t-63.5 67t-105 26t-113 -26t-86 -68t-55.5 -89.5t-29.5 -97.5q-4 -39 -3.5 -77.5t14.5 -74.5t36 -64t60.5 -45t87.5 -17z" />
    <glyph glyph-name="OE" unicode="&#x152;" horiz-adv-x="2506" 
d="M635 -23q-253 0 -418.5 122.5t-223.5 311.5q-49 159 -19 344q28 185 128 345q119 190 322.5 311.5t457.5 121.5q238 0 409 -115l14 94h1109l-47 -299h-749l-45 -284h656l-47 -300h-656l-53 -330h749l-47 -299h-1109l15 92q-210 -115 -446 -115zM683 279q148 0 259.5 76.5
t177.5 198.5q48 93 66 201q17 107 -2 202q-28 121 -116 198t-234 77q-142 0 -251.5 -73t-176.5 -190q-56 -98 -73 -214q-19 -113 6 -213q29 -117 115 -190t229 -73z" />
    <glyph glyph-name="oe" unicode="&#x153;" horiz-adv-x="2219" 
d="M442 -23q-196 0 -321.5 94.5t-166.5 241.5q-33 111 -12 243q20 131 89 245q89 147 243.5 241.5t351.5 94.5q249 0 392 -159q192 159 443 159q197 0 322.5 -95t167.5 -242q32 -114 11 -244q-2 -17 -8 -52t-9 -52l-4 -23h-252l184 -118l-9 -16q-86 -136 -244 -227t-343 -91
q-125 0 -225.5 41.5t-167.5 116.5q-191 -158 -442 -158zM490 278q59 0 110.5 26t86 67.5t57 89.5t29.5 96q11 66 -3.5 127.5t-63.5 107t-127 45.5q-61 0 -113 -26t-86 -68t-55.5 -89.5t-29.5 -97.5q-4 -39 -3.5 -77.5t14.5 -74.5t36 -64t60.5 -45t87.5 -17zM1196 720h399
q-21 53 -67.5 85t-113.5 32q-131 0 -218 -117zM1325 278q146 0 243 151h-433q16 -67 64 -109t126 -42z" />
    <glyph glyph-name="Rcaron" unicode="&#x158;" horiz-adv-x="1408" 
d="M1220 2107l-423 -446h-252l-274 446h375l77 -126l121 126h376zM280 521l-83 -521h-359l239 1512h585q138 0 243.5 -40.5t166 -110t84.5 -158t8 -188.5q-20 -127 -100.5 -239.5t-219.5 -179.5l264 -596h-410l-228 521h-190zM615 1213h-226l-62 -392h226q104 0 168.5 55
t77.5 141q14 86 -33 141t-151 55z" />
    <glyph glyph-name="rcaron" unicode="&#x159;" horiz-adv-x="959" 
d="M968 1727l-420 -445h-250l-273 445h374l76 -125l119 125h374zM348 659l-104 -659h-338l176 1111h338q75 22 158 22q25 0 73 -6q10 -1 31 -4.5l33 -5.5l15 -2l25 -3l-49 -309l-37 7q-13 2 -37.5 8t-33.5 8q-41 9 -66 9q-78 0 -125 -50.5t-59 -125.5z" />
    <glyph glyph-name="Sacute" unicode="&#x15a;" horiz-adv-x="1385" 
d="M1170 2099l-351 -446h-341l310 446h382zM499 -23q-131 0 -239.5 40.5t-179 108.5t-113.5 151.5t-55 175.5l-3 17l351 136l3 -32l1 -19q6 -45 18 -83.5t34 -74.5t53 -61.5t76.5 -41t101.5 -15.5q91 0 154 37t73 101q10 65 -19 96t-113 58q-44 15 -127.5 38t-115.5 33
q-184 60 -270.5 172.5t-61.5 270.5q30 187 202 318t419 131q176 0 307.5 -74.5t195.5 -196.5q40 -79 49 -149l2 -13l4 -17l-350 -142l-3 31q-5 53 -20.5 97t-43.5 82t-76 60t-111 22q-90 0 -147.5 -36.5t-68.5 -103.5q-16 -108 136 -159q38 -12 115.5 -33.5t114.5 -33.5
q194 -60 281 -167t61 -271q-20 -125 -103.5 -227.5t-223 -164t-308.5 -61.5z" />
    <glyph glyph-name="sacute" unicode="&#x15b;" horiz-adv-x="1132" 
d="M915 1712l-348 -445h-341l309 445h380zM356 -38q-178 0 -300.5 96t-151.5 258l301 128l10 -39q40 -152 187 -152q54 0 90 19.5t41 51.5q4 19 -21 37q-17 12 -69 28l-150 44q-145 43 -211 130.5t-47 211.5q25 157 158 256.5t319 99.5q135 0 237.5 -58.5t152.5 -163.5
q20 -44 32 -101l-300 -133l-4 20q-14 72 -55.5 110.5t-107.5 38.5q-46 0 -75.5 -16t-34.5 -43q-3 -23 14 -38t66 -33q30 -11 78 -25q61 -19 79 -25q299 -98 260 -344q-25 -157 -165 -257.5t-333 -100.5z" />
    <glyph glyph-name="Scircumflex" unicode="&#x15c;" horiz-adv-x="1385" 
d="M730 1791l-119 -126h-376l417 446h253l280 -446h-377zM499 -23q-131 0 -239.5 40.5t-179 108.5t-113.5 151.5t-55 175.5l-3 17l351 136l3 -32l1 -19q6 -45 18 -83.5t34 -74.5t53 -61.5t76.5 -41t101.5 -15.5q91 0 154 37t73 101q10 65 -19 96t-113 58q-44 15 -127.5 38
t-115.5 33q-184 60 -270.5 172.5t-61.5 270.5q30 187 202 318t419 131q176 0 307.5 -74.5t195.5 -196.5q40 -79 49 -149l2 -13l4 -17l-350 -142l-3 31q-5 53 -20.5 97t-43.5 82t-76 60t-111 22q-90 0 -147.5 -36.5t-68.5 -103.5q-16 -108 136 -159q38 -12 115.5 -33.5
t114.5 -33.5q194 -60 281 -167t61 -271q-20 -125 -103.5 -227.5t-223 -164t-308.5 -61.5z" />
    <glyph glyph-name="scircumflex" unicode="&#x15d;" horiz-adv-x="1132" 
d="M546 1397l-117 -125h-374l415 445h251l278 -445h-375zM356 -38q-178 0 -300.5 96t-151.5 258l301 128l10 -39q40 -152 187 -152q54 0 90 19.5t41 51.5q4 19 -21 37q-17 12 -69 28l-150 44q-145 43 -211 130.5t-47 211.5q25 157 158 256.5t319 99.5q135 0 237.5 -58.5
t152.5 -163.5q20 -44 32 -101l-300 -133l-4 20q-14 72 -55.5 110.5t-107.5 38.5q-46 0 -75.5 -16t-34.5 -43q-3 -23 14 -38t66 -33q30 -11 78 -25q61 -19 79 -25q299 -98 260 -344q-25 -157 -165 -257.5t-333 -100.5z" />
    <glyph glyph-name="Scedilla" unicode="&#x15e;" horiz-adv-x="1387" 
d="M472 -432q-143 0 -255 110l-27 27l157 200l17 -20q32 -42 62.5 -65.5t70.5 -23.5q32 0 36 28q8 47 -68 96q-30 21 -69 40q-12 6 -66 30l-81 36l5 1q-139 60 -222 175t-101 251l-3 17l351 136l3 -32l1 -19q6 -45 18 -83.5t34 -74.5t53 -61.5t76.5 -41t101.5 -15.5
q91 0 154 37t73 101q10 65 -19 96t-113 58q-44 15 -127.5 38t-115.5 33q-184 60 -270.5 172.5t-61.5 270.5q30 187 202 318t419 131q176 0 307.5 -74.5t195.5 -196.5q40 -79 49 -149l2 -13l4 -17l-350 -142l-3 31q-5 53 -20.5 97t-43.5 82t-76 60t-111 22
q-90 0 -147.5 -36.5t-68.5 -103.5q-16 -108 136 -159q38 -12 115.5 -33.5t114.5 -33.5q392 -121 342 -438q-23 -150 -139 -266t-293 -162q84 -86 67 -200q-17 -102 -105 -168t-211 -66z" />
    <glyph glyph-name="scedilla" unicode="&#x15f;" horiz-adv-x="1132" 
d="M297 -401q-146 0 -254 110l-27 27l157 200l17 -20q18 -22 28.5 -33t28.5 -26.5t36.5 -22.5t39.5 -7q32 0 36 28q7 47 -68 96q-24 16 -29 19q-142 23 -237.5 115t-120.5 231l301 128l10 -39q40 -152 187 -152q54 0 90 19.5t41 51.5q4 19 -21 37q-17 12 -69 28l-150 44
q-145 43 -211 130.5t-47 211.5q25 157 158 256.5t319 99.5q135 0 237.5 -58.5t152.5 -163.5q20 -44 32 -101l-300 -133l-4 20q-14 72 -55.5 110.5t-107.5 38.5q-46 0 -75.5 -16t-34.5 -43q-3 -23 14 -38t66 -33q30 -11 78 -25q61 -19 79 -25q299 -98 260 -344
q-17 -107 -92 -191t-188 -128q54 -75 40 -168q-17 -102 -105.5 -168t-211.5 -66z" />
    <glyph glyph-name="Scaron" unicode="&#x160;" horiz-adv-x="1385" 
d="M1248 2108l-422 -446h-253l-273 446h373l78 -126l120 126h377zM499 -23q-131 0 -239.5 40.5t-179 108.5t-113.5 151.5t-55 175.5l-3 17l351 136l3 -32l1 -19q6 -45 18 -83.5t34 -74.5t53 -61.5t76.5 -41t101.5 -15.5q91 0 154 37t73 101q10 65 -19 96t-113 58
q-44 15 -127.5 38t-115.5 33q-184 60 -270.5 172.5t-61.5 270.5q30 187 202 318t419 131q176 0 307.5 -74.5t195.5 -196.5q40 -79 49 -149l2 -13l4 -17l-350 -142l-3 31q-5 53 -20.5 97t-43.5 82t-76 60t-111 22q-90 0 -147.5 -36.5t-68.5 -103.5q-16 -108 136 -159
q38 -12 115.5 -33.5t114.5 -33.5q194 -60 281 -167t61 -271q-20 -125 -103.5 -227.5t-223 -164t-308.5 -61.5z" />
    <glyph glyph-name="scaron" unicode="&#x161;" horiz-adv-x="1132" 
d="M1075 1729l-419 -445h-252l-273 445h374l77 -125l118 125h375zM356 -38q-178 0 -300.5 96t-151.5 258l301 128l10 -39q40 -152 187 -152q54 0 90 19.5t41 51.5q4 19 -21 37q-17 12 -69 28l-150 44q-145 43 -211 130.5t-47 211.5q25 157 158 256.5t319 99.5
q135 0 237.5 -58.5t152.5 -163.5q20 -44 32 -101l-300 -133l-4 20q-14 72 -55.5 110.5t-107.5 38.5q-46 0 -75.5 -16t-34.5 -43q-3 -23 14 -38t66 -33q30 -11 78 -25q61 -19 79 -25q299 -98 260 -344q-25 -157 -165 -257.5t-333 -100.5z" />
    <glyph glyph-name="Utilde" unicode="&#x168;" horiz-adv-x="1352" 
d="M844 1644q-85 0 -163 47l-29 18q-2 -6 -5 -18t-5 -18l-6 -21h-310l16 77q10 45 33.5 89.5t61.5 86t97 67t130 25.5q84 0 162 -46l31 -18q2 9 7 35l3 23h313l-11 -73q-6 -35 -28 -82q-39 -81 -114 -136.5t-183 -55.5zM436 -23q-148 0 -258 43.5t-170.5 118t-83 168
t-6.5 198.5l159 1007h361l-159 -1007q-15 -93 39.5 -159.5t165.5 -66.5q109 0 186 67.5t91 158.5l159 1007h360l-159 -1007q-16 -104 -69 -198t-137 -168t-208.5 -118t-270.5 -44z" />
    <glyph glyph-name="utilde" unicode="&#x169;" horiz-adv-x="1138" 
d="M648 1277q-69 0 -131 31q-12 6 -33 19t-27 16l-16 -56h-311l17 76q10 45 33.5 89t61.5 85.5t97 67.5t129 26q81 0 162 -47l30 -18v1q7 28 10 37l6 20h309l-16 -75q-10 -45 -33 -89.5t-61 -87t-97 -69t-130 -26.5zM330 -20q-116 0 -205.5 35.5t-141.5 95.5t-73 136t-8 159
l112 705h338l-104 -659q-12 -74 18.5 -123.5t108.5 -49.5q79 0 125.5 49t58.5 124l104 659h340l-176 -1111h-340q-71 -20 -157 -20z" />
    <glyph glyph-name="Umacron" unicode="&#x16a;" horiz-adv-x="1352" 
d="M1051 1910l-42 -267h-615l42 267h615zM436 -23q-148 0 -258 43.5t-170.5 118t-83 168t-6.5 198.5l159 1007h361l-159 -1007q-15 -93 39.5 -159.5t165.5 -66.5q109 0 186 67.5t91 158.5l159 1007h360l-159 -1007q-16 -104 -69 -198t-137 -168t-208.5 -118t-270.5 -44z" />
    <glyph glyph-name="umacron" unicode="&#x16b;" horiz-adv-x="1138" 
d="M883 1556l-44 -280h-612l44 280h612zM330 -20q-116 0 -205.5 35.5t-141.5 95.5t-73 136t-8 159l112 705h338l-104 -659q-12 -74 18.5 -123.5t108.5 -49.5q79 0 125.5 49t58.5 124l104 659h340l-176 -1111h-340q-71 -20 -157 -20z" />
    <glyph glyph-name="Ubreve" unicode="&#x16c;" horiz-adv-x="1352" 
d="M686 1647q-86 0 -152 33t-100.5 84.5t-48.5 110.5t-5 116l12 74h309l-12 -74q-4 -24 9 -52q12 -25 30 -25q19 0 40 25q22 26 26 52l12 74h309l-12 -74q-9 -57 -41.5 -116.5t-84 -111t-128 -84t-163.5 -32.5zM436 -23q-148 0 -258 43.5t-170.5 118t-83 168t-6.5 198.5
l159 1007h361l-159 -1007q-15 -93 39.5 -159.5t165.5 -66.5q109 0 186 67.5t91 158.5l159 1007h360l-159 -1007q-16 -104 -69 -198t-137 -168t-208.5 -118t-270.5 -44z" />
    <glyph glyph-name="ubreve" unicode="&#x16d;" horiz-adv-x="1138" 
d="M512 1253q-86 0 -151.5 33t-99.5 84.5t-47.5 110.5t-4.5 116l11 72h309l-11 -72q-4 -25 8 -52q12 -25 29 -25q18 0 38 25q22 26 26 52l11 72h308l-11 -72q-9 -57 -41.5 -116t-83.5 -110.5t-127.5 -84.5t-162.5 -33zM330 -20q-116 0 -205.5 35.5t-141.5 95.5t-73 136
t-8 159l112 705h338l-104 -659q-12 -74 18.5 -123.5t108.5 -49.5q79 0 125.5 49t58.5 124l104 659h340l-176 -1111h-340q-71 -20 -157 -20z" />
    <glyph glyph-name="Uring" unicode="&#x16e;" horiz-adv-x="1352" 
d="M710 1641q-68 0 -120 24t-81 62t-40.5 83t-4.5 90q16 98 106.5 177.5t221.5 79.5q89 0 150.5 -40t84.5 -97.5t13 -119.5q-16 -98 -107 -178.5t-223 -80.5zM740 1823q39 0 65.5 23.5t31.5 52.5q4 29 -15 52.5t-58 23.5t-66 -23.5t-31 -52.5q-5 -28 14.5 -52t58.5 -24z
M436 -23q-148 0 -258 43.5t-170.5 118t-83 168t-6.5 198.5l159 1007h361l-159 -1007q-15 -93 39.5 -159.5t165.5 -66.5q109 0 186 67.5t91 158.5l159 1007h360l-159 -1007q-16 -104 -69 -198t-137 -168t-208.5 -118t-270.5 -44z" />
    <glyph glyph-name="uring" unicode="&#x16f;" horiz-adv-x="1138" 
d="M520 1275q-68 0 -120 24t-81 62t-40.5 83t-4.5 90q16 98 106.5 177.5t221.5 79.5q89 0 150.5 -40t84.5 -97.5t13 -119.5q-16 -98 -107 -178.5t-223 -80.5zM550 1457q39 0 65.5 23.5t31.5 52.5q4 29 -15 52.5t-58 23.5t-66 -23.5t-31 -52.5q-5 -28 14.5 -52t58.5 -24z
M330 -20q-116 0 -205.5 35.5t-141.5 95.5t-73 136t-8 159l112 705h338l-104 -659q-12 -74 18.5 -123.5t108.5 -49.5q79 0 125.5 49t58.5 124l104 659h340l-176 -1111h-340q-71 -20 -157 -20z" />
    <glyph glyph-name="Uhungarumlaut" unicode="&#x170;" horiz-adv-x="1359" 
d="M926 2050l-295 -383h-239l262 383h272zM1259 2050l-295 -383h-239l262 383h272zM436 -23q-148 0 -258 43.5t-170.5 118t-83 168t-6.5 198.5l159 1007h361l-159 -1007q-15 -93 39.5 -159.5t165.5 -66.5q109 0 186 67.5t91 158.5l159 1007h360l-159 -1007
q-16 -104 -69 -198t-137 -168t-208.5 -118t-270.5 -44z" />
    <glyph glyph-name="uhungarumlaut" unicode="&#x171;" horiz-adv-x="1183" 
d="M785 1577l-295 -383h-239l262 383h272zM1118 1577l-295 -383h-239l262 383h272zM330 -20q-116 0 -205.5 35.5t-141.5 95.5t-73 136t-8 159l112 705h338l-104 -659q-12 -74 18.5 -123.5t108.5 -49.5q79 0 125.5 49t58.5 124l104 659h340l-176 -1111h-340q-71 -20 -157 -20
z" />
    <glyph glyph-name="Uogonek" unicode="&#x172;" horiz-adv-x="1361" 
d="M486 -381q-123 0 -191 66t-51 168q11 72 64 136q-109 19 -189.5 69t-124.5 119.5t-59 153t-1 174.5l159 1007h361l-159 -1007q-15 -93 39.5 -159.5t165.5 -66.5q109 0 186 67.5t91 158.5l159 1007h360l-159 -1007q-21 -131 -97 -244t-199 -185l10 -4l-45 -16
q-65 -33 -133 -51q-31 -13 -51 -24q-110 -57 -118 -106q-2 -16 4.5 -22t25.5 -6q40 0 77 23.5t82 66.5l23 22l94 -205l-11 -9q-158 -126 -313 -126z" />
    <glyph glyph-name="uogonek" unicode="&#x173;" horiz-adv-x="1152" 
d="M487 -455q-123 0 -190.5 66t-51.5 168q18 116 137 202q-12 -1 -36 -1q-116 0 -205.5 35.5t-141.5 95.5t-73 136t-8 159l112 705h338l-104 -659q-12 -74 18.5 -123.5t108.5 -49.5q79 0 125.5 49t58.5 124l104 659h340l-176 -1110l10 -3l-47 -16q-121 -43 -183 -75
q-110 -57 -118 -106q-2 -16 4.5 -22t25.5 -6q40 0 77 23.5t82 66.5l23 22l94 -205l-11 -9q-158 -126 -313 -126z" />
    <glyph glyph-name="Wcircumflex" unicode="&#x174;" horiz-adv-x="2212" 
d="M1149 1791l-117 -126h-377l416 446h253l281 -446h-377zM1009 883l-400 -883h-322l-215 1512h367l114 -861l383 861h344l111 -859l386 859h369l-694 -1512h-323z" />
    <glyph glyph-name="wcircumflex" unicode="&#x175;" horiz-adv-x="1842" 
d="M903 1386l-117 -125h-375l415 445h252l277 -445h-376zM766 508l-245 -508h-283l-230 1111h372l90 -507l241 507h299l80 -505l252 505h371l-583 -1111h-282z" />
    <glyph glyph-name="Ycircumflex" unicode="&#x176;" horiz-adv-x="1610" 
d="M841 1771l-116 -126h-377l416 446h253l282 -446h-378zM857 690l-109 -690h-358l93 589l13 74l4 25q-12 55 -55 123q-8 13 -24.5 37.5t-29.5 46t-24 41.5l-303 576h405l262 -495l415 495h404l-483 -576q-26 -32 -117 -125q-64 -67 -93 -121z" />
    <glyph glyph-name="ycircumflex" unicode="&#x177;" horiz-adv-x="1377" 
d="M695 1415l-116 -125h-376l417 445h250l277 -445h-375zM1248 1111l-883 -1503h-367l278 488l-270 1015h376l154 -580l336 580h376z" />
    <glyph glyph-name="Ydieresis" unicode="&#x178;" horiz-adv-x="1610" 
d="M607 1600q-84 0 -126 52.5t-31 120.5q10 67 69.5 118.5t142.5 51.5q81 0 123 -52t32 -118q-11 -67 -69 -120t-141 -53zM1037 1600q-84 0 -126 52.5t-31 120.5q10 67 69.5 118.5t142.5 51.5q81 0 123 -52t32 -118q-11 -67 -69 -120t-141 -53zM857 690l-109 -690h-358
l93 589l13 74l4 25q-12 55 -55 123q-8 13 -24.5 37.5t-29.5 46t-24 41.5l-303 576h405l262 -495l415 495h404l-483 -576q-26 -32 -117 -125q-64 -67 -93 -121z" />
    <glyph glyph-name="Zacute" unicode="&#x179;" horiz-adv-x="1368" 
d="M1123 2112l-352 -446h-341l311 446h382zM1103 299l-47 -299h-1218l29 186l7 17l879 1010h-675l47 299h1154l-29 -186l-7 -18l-880 -1009h740z" />
    <glyph glyph-name="zacute" unicode="&#x17a;" horiz-adv-x="1101" 
d="M929 1727l-351 -445h-341l310 445h382zM836 298l-47 -298h-951l35 220l570 592h-445l47 299h918l-35 -219l-569 -594h477z" />
    <glyph glyph-name="Zdotaccent" unicode="&#x17b;" horiz-adv-x="1368" 
d="M731 1645q-100 0 -147 59.5t-35 131.5q11 71 77.5 130.5t164.5 59.5q97 0 144.5 -59.5t36.5 -130.5q-12 -72 -77.5 -131.5t-163.5 -59.5zM1103 299l-47 -299h-1218l29 186l7 17l879 1010h-675l47 299h1154l-29 -186l-7 -18l-880 -1009h740z" />
    <glyph glyph-name="zdotaccent" unicode="&#x17c;" horiz-adv-x="1101" 
d="M499 1250q-99 0 -145.5 59.5t-35.5 131.5q12 71 78 129.5t163 58.5t145 -59t36 -129q-11 -72 -77 -131.5t-164 -59.5zM836 298l-47 -298h-951l35 220l570 592h-445l47 299h918l-35 -219l-569 -594h477z" />
    <glyph glyph-name="Zcaron" unicode="&#x17d;" horiz-adv-x="1368" 
d="M1281 2089l-421 -446h-255l-273 446h376l77 -126l119 126h377zM1103 299l-47 -299h-1218l29 186l7 17l879 1010h-675l47 299h1154l-29 -186l-7 -18l-880 -1009h740z" />
    <glyph glyph-name="zcaron" unicode="&#x17e;" horiz-adv-x="1102" 
d="M1054 1731l-420 -445h-250l-274 445h374l76 -125l119 125h375zM837 298l-47 -298h-951l35 220l570 592h-445l47 299h918l-35 -219l-569 -594h477z" />
    <glyph glyph-name="circumflex" unicode="&#x2c6;" horiz-adv-x="929" 
d="M447 1387l-137 -152h-310l377 409h219l253 -409h-309z" />
    <glyph glyph-name="caron" unicode="&#x2c7;" horiz-adv-x="929" 
d="M913 1644l-381 -409h-219l-249 409h310l90 -150l140 150h309z" />
    <glyph glyph-name="breve" unicode="&#x2d8;" horiz-adv-x="748" 
d="M332 1235q-76 0 -136 30.5t-93 78.5t-46.5 106t-4.5 115l8 51h254l-8 -51q-6 -37 11 -70.5t50 -33.5q36 0 66.5 33t36.5 71l8 51h251l-8 -51q-9 -58 -41 -116t-81 -106t-119.5 -78t-147.5 -30z" />
    <glyph glyph-name="dotaccent" unicode="&#x2d9;" horiz-adv-x="447" 
d="M185 1235q-84 0 -126.5 52.5t-31.5 120.5q10 67 69.5 118.5t142.5 51.5q81 0 123 -52t32 -118q-11 -67 -68.5 -120t-140.5 -53z" />
    <glyph glyph-name="ring" unicode="&#x2da;" horiz-adv-x="599" 
d="M252 1217q-68 0 -120 24t-81 62t-40.5 83t-4.5 90q15 98 105.5 177.5t221.5 79.5q89 0 150.5 -40t85 -97.5t13.5 -119.5q-16 -98 -107 -178.5t-223 -80.5zM282 1399q39 0 65.5 23.5t31.5 52.5q4 29 -15 52.5t-58 23.5t-66 -23.5t-31 -52.5q-5 -28 14.5 -52t58.5 -24z" />
    <glyph glyph-name="ogonek" unicode="&#x2db;" horiz-adv-x="662" 
d="M24 -374q-123 0 -191 66t-51 168q14 86 81 153.5t169 112.5q16 7 45.5 17t41.5 14q2 0 6.5 2t7.5 3l8 3l249 -86l-47 -16q-119 -41 -183 -75q-110 -57 -118 -106q-2 -16 4.5 -22t25.5 -6q40 0 77 23.5t82 66.5l23 22l94 -205l-11 -9q-158 -126 -313 -126z" />
    <glyph glyph-name="tilde" unicode="&#x2dc;" horiz-adv-x="845" 
d="M500 1226q-76 0 -153 46q-8 5 -23.5 14.5t-22.5 13.5l-6 4q-1 -1 -2 -4t-2 -4q-3 -9 -6.5 -23.5t-4.5 -16.5l-6 -20h-274l12 60q9 42 31.5 84t58 82.5t91.5 65.5t123 25q79 0 154 -46q17 -10 44 -28l7 -3l3 9q3 8 6 16.5t4.5 15.5t2.5 9l5 21h273l-13 -61
q-7 -33 -21.5 -66.5t-40 -69t-58 -62.5t-80 -44.5t-102.5 -17.5z" />
    <glyph glyph-name="hungarumlaut" unicode="&#x2dd;" horiz-adv-x="887" 
d="M872 1646l-321 -411h-551l282 411h590z" />
    <glyph glyph-name="gravecomb" unicode="&#x300;" 
d="M-211 1577l139 -383h-238l-174 383h273z" />
    <glyph glyph-name="acutecomb" unicode="&#x301;" 
d="M-9 1577l-295 -383h-239l262 383h272z" />
    <glyph glyph-name="uni0302" unicode="&#x302;" 
d="M-441 1363l-153 -169h-263l350 383h199l233 -383h-263z" />
    <glyph glyph-name="tildecomb" unicode="&#x303;" 
d="M-324 1194q-70 0 -143 45q-28 19 -45 29q-22 11 -33 11q-9 0 -17 -17q-2 -3 -3.5 -6.5t-3 -8t-2.5 -6.5l-6 -21l-4 -16h-218l7 36q21 96 93 169t180 73q71 0 143 -45q44 -27 45 -28q20 -11 33 -11q9 0 18 18q8 19 9 22l6 21l5 16h216l-8 -37q-22 -97 -92.5 -170.5
t-179.5 -73.5z" />
    <glyph glyph-name="uni0304" unicode="&#x304;" 
d="M-52 1404l-33 -210h-523l33 210h523z" />
    <glyph glyph-name="uni0306" unicode="&#x306;" 
d="M-406 1194q-93 0 -159.5 48t-92 120t-13.5 150l6 35h214l-6 -35q-7 -45 16.5 -83t65.5 -38q44 0 81 38t44 83l6 35h212l-6 -35q-19 -123 -123.5 -220.5t-244.5 -97.5z" />
    <glyph glyph-name="uni0307" unicode="&#x307;" 
d="M-243 1194q-73 0 -111.5 47.5t-28.5 110.5t64 109.5t126 46.5t110.5 -47t28.5 -109q-10 -63 -63 -110.5t-126 -47.5z" />
    <glyph glyph-name="uni0308" unicode="&#x308;" 
d="M-574 1194q-73 0 -111.5 47.5t-28.5 110.5t64 109.5t126 46.5q62 0 100 -35.5t40 -88.5q20 52 70 88t112 36q70 0 109 -47.5t30 -108.5q-9 -62 -63 -110t-126 -48q-64 0 -101.5 36t-40.5 90q-20 -54 -68.5 -90t-111.5 -36z" />
    <glyph glyph-name="uni030A" unicode="&#x30a;" 
d="M-325 1194q-105 0 -162 69t-42 161q14 91 92.5 158t183.5 67q104 0 162 -67t44 -158q-15 -92 -94 -161t-184 -69zM-300 1354q28 0 51 20.5t28 51.5q4 26 -13.5 45t-43.5 19q-28 0 -50.5 -18.5t-26.5 -45.5q-5 -31 11 -51.5t44 -20.5z" />
    <glyph glyph-name="uni030B" unicode="&#x30b;" 
d="M-4 1577l-295 -383h-239l262 383h272zM329 1577l-295 -383h-239l262 383h272z" />
    <glyph glyph-name="uni030C" unicode="&#x30c;" 
d="M-14 1577l-355 -383h-199l-228 383h263l99 -169l157 169h263z" />
    <glyph glyph-name="uni0326" unicode="&#x326;" 
d="M-275 6l-322 -455h-208l226 455h304z" />
    <glyph glyph-name="uni0327" unicode="&#x327;" 
d="M-597 -384q-142 0 -244 107l-17 18l133 171l16 -21q57 -77 134 -77q51 0 59 46q8 55 -70 109q-28 20 -75 43l-69 32l-42 19l235 68l12 -6q51 -19 77 -34q79 -43 120 -107t27 -147q-15 -99 -99 -160t-197 -61z" />
    <glyph glyph-name="uni0328" unicode="&#x328;" 
d="M-610 -380q-113 0 -177.5 60.5t-48.5 159.5q13 86 78 150t162 106q28 13 86 31l7 3l8 3l197 -70l-47 -17q-113 -45 -166 -75q-96 -56 -104 -108q-4 -23 8 -34.5t39 -11.5q76 0 156 78l23 22l78 -175l-11 -9q-146 -113 -288 -113z" />
    <glyph glyph-name="uni0335" unicode="&#x335;" 
d="M-153 775l-37 -230h-866l37 230h866z" />
    <glyph glyph-name="uni0336" unicode="&#x336;" 
d="M-161 769l-35 -220h-1371l35 220h1371z" />
    <glyph glyph-name="Wgrave" unicode="&#x1e80;" horiz-adv-x="2212" 
d="M1304 2106l169 -446h-342l-210 446h383zM1009 883l-400 -883h-322l-215 1512h367l114 -861l383 861h344l111 -859l386 859h369l-694 -1512h-323z" />
    <glyph glyph-name="wgrave" unicode="&#x1e81;" horiz-adv-x="1842" 
d="M1028 1718l169 -445h-340l-210 445h381zM766 508l-245 -508h-283l-230 1111h372l90 -507l241 507h299l80 -505l252 505h371l-583 -1111h-282z" />
    <glyph glyph-name="Wacute" unicode="&#x1e82;" horiz-adv-x="2212" 
d="M1553 2096l-352 -446h-342l312 446h382zM1009 883l-400 -883h-322l-215 1512h367l114 -861l383 861h344l111 -859l386 859h369l-694 -1512h-323z" />
    <glyph glyph-name="wacute" unicode="&#x1e83;" horiz-adv-x="1842" 
d="M1315 1732l-346 -445h-342l309 445h379zM766 508l-245 -508h-283l-230 1111h372l90 -507l241 507h299l80 -505l252 505h371l-583 -1111h-282z" />
    <glyph glyph-name="Wdieresis" unicode="&#x1e84;" horiz-adv-x="2212" 
d="M900 1653q-84 0 -126.5 52.5t-31.5 120.5q11 67 70 118.5t142 51.5q81 0 123 -52t32 -118q-11 -67 -68.5 -120t-140.5 -53zM1330 1653q-84 0 -126.5 52.5t-31.5 120.5q11 67 70 118.5t142 51.5q81 0 123 -52t32 -118q-11 -67 -68.5 -120t-140.5 -53zM1009 883l-400 -883
h-322l-215 1512h367l114 -861l383 861h344l111 -859l386 859h369l-694 -1512h-323z" />
    <glyph glyph-name="wdieresis" unicode="&#x1e85;" horiz-adv-x="1842" 
d="M651 1183q-84 0 -126 52.5t-31 120.5q10 67 69.5 118.5t142.5 51.5q81 0 123 -52t32 -118q-11 -67 -69 -120t-141 -53zM1081 1183q-84 0 -126 52.5t-31 120.5q10 67 69.5 118.5t142.5 51.5q81 0 123 -52t32 -118q-11 -67 -69 -120t-141 -53zM766 508l-245 -508h-283
l-230 1111h372l90 -507l241 507h299l80 -505l252 505h371l-583 -1111h-282z" />
    <glyph glyph-name="endash" unicode="&#x2013;" horiz-adv-x="1370" 
d="M1057 716l-47 -298h-990l47 298h990z" />
    <glyph glyph-name="emdash" unicode="&#x2014;" horiz-adv-x="1817" 
d="M1504 716l-47 -298h-1437l47 298h1437z" />
    <glyph glyph-name="quoteleft" unicode="&#x2018;" horiz-adv-x="769" 
d="M559 1490l-183 -595h-280l252 595h211z" />
    <glyph glyph-name="quoteright" unicode="&#x2019;" horiz-adv-x="769" 
d="M559 1490l-252 -595h-211l182 595h281z" />
    <glyph glyph-name="quotesinglbase" unicode="&#x201a;" horiz-adv-x="769" 
d="M371 305l-252 -594h-211l182 594h281z" />
    <glyph glyph-name="quotedblleft" unicode="&#x201c;" horiz-adv-x="1102" 
d="M559 1490l-183 -595h-280l252 595h211zM892 1490l-182 -595h-280l252 595h210z" />
    <glyph glyph-name="quotedblright" unicode="&#x201d;" horiz-adv-x="1102" 
d="M559 1490l-252 -595h-211l182 595h281zM892 1490l-252 -595h-210l182 595h280z" />
    <glyph glyph-name="quotedblbase" unicode="&#x201e;" horiz-adv-x="1102" 
d="M371 305l-252 -594h-211l182 594h281zM704 305l-252 -594h-210l182 594h280z" />
    <glyph glyph-name="dagger" unicode="&#x2020;" horiz-adv-x="1614" 
d="M882 835l-187 -1182h-358l187 1182h-428l47 298h428l59 369h358l-59 -369h428l-47 -298h-428z" />
    <glyph glyph-name="daggerdbl" unicode="&#x2021;" horiz-adv-x="1614" 
d="M753 22l-58 -369h-358l58 369h-428l48 298h428l81 515h-428l47 298h428l59 369h358l-59 -369h428l-47 -298h-428l-81 -515h428l-48 -298h-428z" />
    <glyph glyph-name="bullet" unicode="&#x2022;" horiz-adv-x="1008" 
d="M347 483q-71 0 -125.5 25t-83.5 65.5t-40.5 87.5t-3.5 94q16 101 109.5 184t228.5 83q70 0 123.5 -25t82 -65t40 -87t4.5 -93q-16 -101 -107.5 -185t-227.5 -84z" />
    <glyph glyph-name="ellipsis" unicode="&#x2026;" horiz-adv-x="1894" 
d="M391 370l-59 -370h-358l59 370h358zM949 370l-59 -370h-357l59 370h357zM1508 370l-59 -370h-359l59 370h359z" />
    <glyph glyph-name="guilsinglleft" unicode="&#x2039;" horiz-adv-x="1077" 
d="M405 566l289 -425h-423l-287 425l422 426h423z" />
    <glyph glyph-name="guilsinglright" unicode="&#x203a;" horiz-adv-x="1077" 
d="M802 566l-425 -425h-421l423 425l-288 426h421z" />
    <glyph glyph-name="Euro" unicode="&#x20ac;" horiz-adv-x="1774" 
d="M832 -23q-128 0 -232.5 40t-172.5 109t-110 154.5t-57 184.5h-342l117 259h223l2 15h-244l119 259h198q45 105 113 195.5t160 164.5t213.5 116.5t256.5 42.5q173 0 298 -74.5t187 -204.5q27 -59 42 -132l6 -27l-288 -127l-4 20q-16 78 -36 123q-74 163 -246 163
q-119 0 -219.5 -74.5t-167.5 -185.5h543l-118 -259h-515l-2 -15h536l-118 -259h-400q32 -101 107 -164t193 -63q173 0 298 160q37 48 75 123l10 20l247 -127l-15 -26q-39 -77 -83 -132q-103 -128 -253 -203.5t-321 -75.5z" />
    <glyph glyph-name="trademark" unicode="&#x2122;" horiz-adv-x="2240" 
d="M786 1225v-829h-332v829h-264v277h1037l273 -376l277 376h273v-1106h-331v492l-158 -212h-125l-153 210v-490h-331v829h-166z" />
    <glyph glyph-name="partialdiff" unicode="&#x2202;" horiz-adv-x="1377" 
d="M451 -22q-89 0 -166 18.5t-132.5 51t-100.5 77.5t-71 97.5t-43 110.5t-17 117.5t7 117.5q17 108 73 210t145 187t221.5 136.5t286.5 51.5q62 0 104 -5q-98 188 -296 188q-51 0 -123 -20q-40 -11 -126 -42l-39 -14l-11 298l23 6l43 15q174 56 282 56q105 0 197.5 -30.5
t162 -82.5t121 -112t88.5 -129q146 -273 90 -624q-25 -162 -92 -292q-42 -80 -100 -147.5t-135 -122.5t-177.5 -86t-214.5 -31zM498 278q56 0 106.5 25t86 63.5t63.5 88.5t44 97.5t23 92.5q12 75 9 164q-110 46 -224 46q-140 0 -225.5 -84t-104.5 -205q-8 -51 1 -101
t34.5 -92.5t74 -68.5t112.5 -26z" />
    <glyph glyph-name="summation" unicode="&#x2211;" horiz-adv-x="1315" 
d="M996 298l-47 -298h-1035l34 214l435 538l-265 536l34 214h1035l-47 -299h-603l221 -451l-366 -454h604z" />
    <glyph glyph-name="minus" unicode="&#x2212;" horiz-adv-x="1470" 
d="M1138 906l-49 -307h-990l49 307h990z" />
    <glyph glyph-name="uni2215" unicode="&#x2215;" horiz-adv-x="1132" 
d="M1138 1502l-950 -1502h-384l951 1502h383z" />
    <glyph glyph-name="uni2219" unicode="&#x2219;" horiz-adv-x="1135" 
d="M399 422q-86 0 -151.5 30.5t-100.5 80t-49 106.5t-5 115q9 57 42 114t84 105t125.5 78t158.5 30q85 0 150.5 -30.5t100.5 -79.5t49.5 -106.5t5.5 -114.5q-9 -58 -41.5 -114.5t-83 -105t-125.5 -78.5t-160 -30z" />
    <glyph glyph-name="radical" unicode="&#x221a;" horiz-adv-x="1784" 
d="M1318 1203l-726 -1203h-279l-236 838h355l97 -358l601 1022h476l-47 -299h-241z" />
    <glyph glyph-name="integral" unicode="&#x222b;" horiz-adv-x="1048" 
d="M-39 -356q-83 0 -171 26l-19 6l44 281l36 -6q9 -1 24.5 -4t28.5 -5t25 -3q39 -6 77 -6q45 0 71.5 28t34.5 75l173 1095q12 73 49 141.5t97 125.5t150 91t196 34q39 0 88 -7l103 -19l-45 -283l-34 5q-121 14 -158 14q-46 0 -73.5 -28t-34.5 -74l-173 -1095
q-12 -73 -48.5 -141t-95.5 -125t-148.5 -91.5t-196.5 -34.5z" />
    <glyph glyph-name="approxequal" unicode="&#x2248;" horiz-adv-x="1616" 
d="M221 368l-183 -154l121 763l7 7q180 156 395 156q99 0 220 -55q68 -30 79 -34q42 -15 73 -15q108 0 228 99l182 152l-121 -760l-7 -6l-4 -4l-8 -9q-27 -25 -55 -43q-144 -101 -323 -101q-74 0 -126 15.5t-122 49.5q-79 38 -129 38q-54 0 -116 -28.5t-111 -70.5zM874 663
q86 0 187 68q46 33 84 67l10 8q-130 -68 -271 -68q-119 0 -241 61q-51 25 -67 30q-32 12 -69 12q-55 0 -116 -28.5t-111 -70.5l-66 -55q132 79 287 79q101 0 222 -55q10 -4 26 -11.5t28.5 -13t24.5 -9.5q39 -14 72 -14z" />
    <glyph glyph-name="notequal" unicode="&#x2260;" horiz-adv-x="1470" 
d="M646 385l-81 -179h-354l81 179h-227l49 308h314l54 119h-349l48 308h437l82 178h353l-81 -178h199l-48 -308h-287l-53 -119h321l-49 -308h-409z" />
    <glyph glyph-name="lessequal" unicode="&#x2264;" horiz-adv-x="1401" 
d="M1043 298l-47 -298h-1064l47 298h893l-773 464l34 214l1057 533l-56 -351l-566 -290l475 -287l-45 -283h45z" />
    <glyph glyph-name="greaterequal" unicode="&#x2265;" horiz-adv-x="1361" 
d="M1043 298l-47 -298h-1064l47 298h48l45 283l562 287l-471 290l56 351l889 -533l-34 -214l-920 -464h889z" />
    <glyph glyph-name="uniF8FF" unicode="&#xf8ff;" horiz-adv-x="1860" 
d="M1800 1630v-1869h-1740v1869h1740zM321 205h198v344h687v183h-687v491h687v176h-890v-1186q0 -2 1 -3q0 -5 4 -5zM1338 390h-685v-185h888v1194h-203v-334h-685v-190h685v-485zM1037 -26q11 0 29 4q8 6 12 6q9 0 9 9q0 1 1.5 4.5t1.5 5.5t0.5 5.5t0.5 5.5q0 10 -1 14
l-3 8l-9 9q-5 5 -8 5l-10 2q-13 3 -14 4q-8 5 -13 5t-8 4q-3 6 -3 8q0 10 12 10q7 0 10 -1q2 -1 5.5 -2t5.5 -2q3 -2 5.5 -3t4 -1.5t2.5 -0.5q8 -3 10 -4l14 27q-4 4 -26 11q-15 5 -28 5q-14 0 -26 -6q-1 -1 -5.5 -2.5t-5.5 -2.5q-6 -6 -8 -9q-6 -9 -6 -23q0 -4 2 -10
q1 -5 4 -9t7 -7l7 -5q4 -3 11 -3q2 0 6.5 -2t7.5 -2l6 -1q1 0 2 -1t2.5 -2t2.5 -2l7 -5q4 -3 4 -6q0 -9 -5 -10q-10 -2 -13 -2q-9 0 -24 6q-12 5 -23 14l-13 -26q14 -12 29 -16l6 -2q5 -1 9 -2q10 -2 16 -2zM499 -27q33 0 51 18t21 51q2 20 -11 36q-9 12 -10 13
q-10 10 -13 12q-12 8 -38 8q-17 0 -36 -8q-19 -13 -26 -25q-10 -17 -10 -36q0 -21 10 -35q9 -20 25 -27q15 -7 37 -7zM1349 -27q18 0 30 7q16 10 24 19l-20 19q-4 -4 -17 -10q-5 -4 -17 -4q-11 0 -17 5l-7 6q-1 0 -7 9q-4 5 -4 20q0 13 4 20l14 12q6 5 17 5q12 0 17 -5
q13 -4 17 -12l18 23q-1 2 -10 11q-7 7 -11 7q-8 0 -15 3q-9 3 -16 3q-31 0 -50 -18q-20 -19 -20 -51q0 -23 8 -35q11 -17 27 -27q13 -7 35 -7zM419 107h-98v-130h35v47h59v26h-59v31h63v26zM620 107h-31v-130h33v78l60 -78h31v130h-33v-77zM725 81h42v-104h34v104h39v26
h-115v-26zM919 107h-36l-57 -130h35l10 22h57l9 -22h38zM1098 81h40v-104h34v104h41v26h-115v-26zM1260 107h-33v-130h33v130zM1495 107h-36l-58 -130h38l8 22h61l6 -22h37zM500 2q-16 0 -27 12q-10 11 -10 28q0 13 5 20q1 1 2 3t2 3.5t2 2.5l7 5q7 5 19 5q9 0 19 -5
q9 -5 12 -14q0 -1 2 -4.5t2 -5.5v-20q0 -5 -4 -10q-2 -2 -4 -5l-3 -4.5t-2.5 -3t-2.5 -1.5q-18 -6 -19 -6zM901 73l16 -48h-36zM1476 73l17 -48h-36zM1031 -413q-13 0 -17 4q-10 3 -13 12l-2 6q0 1 -1 2q0 1 -1 3l7 2q4 1 8 1l2 -3q9 -13 17 -13q3 0 9 3t6 7q0 5 -3 8
q-2 2 -17 6q-18 4 -20 7q-8 13 -5 22q5 13 19 16q0 3 13 2q14 -2 20 -9q7 -3 7 -15v-3h-16v3q-5 11 -13 11q-1 0 -2 -1h-3q-9 -5 -9 -11l17 -6q16 -6 23 -13t7 -14q0 -4 -9 -18q-4 -6 -11 -8q-4 -1 -13 -1zM635 -414q-24 0 -33 22q-4 10 -4 20q0 15 3 22q1 3 10 12q5 5 13 8
q6 2 14 2q30 0 36 -29q3 -15 0 -27t-14 -22q-9 -8 -25 -8zM1281 -413q-24 0 -38 27q-3 7 -2 15l2 14q6 21 26 27q2 0 4 1t6 1q15 0 25 -10q5 -5 6 -8l2 -6l-8 -3l-6 -2q-3 0 -4 4q-4 11 -15 11q-9 0 -15 -8q-6 -7 -6 -16q0 -1 0.5 -5t0.5 -7q0 -5 3 -10q4 -11 16 -11
q11 0 16 13l2 5l8 -2q8 -3 8 -4l-2 -6q-11 -20 -29 -20zM1540 -413q-12 0 -20 6q-8 5 -12 14q-10 19 0 45q1 3 5 6.5t5 4.5q4 5 12 7q2 2 13 2q1 0 13 -3q2 -1 10 -8q5 -5 7 -9l1 -4q-2 -2 -9 -3l-8 -2q-1 1 -2 4q-4 9 -14 9q-12 0 -16 -9q-4 -10 -4 -19q0 -11 4 -19
q5 -8 16 -8t16 13q0 3 2 3v2l9 -3l5 -2v-3q0 -2 -2 -6l-3 -7q-11 -11 -28 -11zM112 -377l-8 -36h-9l-9 2l-19 79q0 2 8 2h9l11 -53q2 1 2 5q0 9 5 19q7 15 7 24l2 5h18l8 -27l6 -26q1 0 3 9l3 17q2 4 4 12.5t3 12.5q0 2 7 2q10 0 10 -2q-4 -10 -8 -32q-1 -5 -3.5 -13.5
t-3.5 -12.5l-4 -18v-5h-18v5l-4 10l-6 20l-6 25zM241 -381l-8 -32h-15q-2 2 -4 2l-3 12l-6 28l-6 27l-3 12q0 2 8 2h8q1 0 1 -2q1 -2 1 -7q4 -9 4 -18l6 -26l14 53h20q2 0 2 -2l7 -27l5 -27l13 54q0 2 7 2q9 0 9 -2q0 -1 -0.5 -4.5t-0.5 -5.5l-3 -15q-2 -10 -5 -15l-11 -41
h-7l-9 2l-9 30q0 1 -1 5.5t-1 5.5q0 2 -4 9q0 6 -1 9q-2 -6 -2 -9q-3 -6 -3 -9q0 -8 -3 -11zM377 -353l-15 -58l-10 -2q-8 0 -9 4l-2 12q-1 6 -7 27q-2 6 -4 16t-2 12l-3 12h16l5 -27l8 -26l3 9l11 44h19l8 -27q3 -24 8 -27q0 4 1 7q-1 2 3 20l6 27h8q9 0 9 -2q0 -1 -1 -4.5
t-1 -5.5q0 -3 -2 -15q0 -3 -2 -8t-3 -7l-11 -39l-7 -2h-10l-8 32l-5 21zM526 -393l-1 -18h-15v79q0 2 4 2h52v-14h-40v-19h33v-14h-33v-16zM727 -359v-54h-16v83h16l32 -53v53h15v-81l-7 -2h-8zM849 -344v-69h-17v69h-23v14h65v-14h-25zM907 -411l-8 -2h-7q0 2 -2 2l3 9
l9 22l11 26q1 2 3.5 10t4.5 12q0 2 7 2h9l33 -81q-2 0 -2 -2h-5l-11 2l-6 19h-32zM1135 -344v-69h-17v69h-25v14h65v-14h-23zM1206 -330v-83h-15v83h15zM1358 -411l-9 -2h-6l-2 2q2 3 4 9l7 22q5 14 10 26q2 4 5 11.5t4 10.5q0 2 9 2h9l32 -81q-2 0 -2 -2h-7l-9 2l-7 19h-31
zM1646 -413q-21 0 -30 12q-10 13 -10 29q0 7 8 25q6 14 19 17q17 0 37 -6q14 -4 14 -34q0 -20 -8 -31q-9 -12 -30 -12zM1735 -411l-8 -2h-7v83h25l6 -27l5 -18q2 -6 2 -8l7 24q2 6 4 12.5t3 10t1 4.5v2h26v-83h-17v63l-6 -28l-6 -21l-2 -10v-4h-10l-7 2l-6 30l-10 29v-59z
M637 -399q20 0 20 16v24q0 3 -10 13q-4 4 -9 4q-10 0 -18 -8q-2 -2 -4 -8q-1 -3 -1 -14q0 -12 7 -20q5 -7 15 -7zM1646 -399q7 0 10 4q11 5 11 23q0 21 -11 26q-2 1 -4 3q-1 1 -5 1q-15 0 -18 -9t-3 -21q0 -16 2 -19q5 -8 18 -8zM1377 -358l-8 -20h22l-5 14q-3 6 -3 7
q0 2 -1 3l-1 2zM930 -352l-5 -6l-6 -20h20q-2 5 -4 14q-3 6 -3 7q0 2 -1 3zM471 -395v-16h-16v16h16zM1468 -403l-1 -8h-14v16h15v-8z" />
    <glyph glyph-name="G.ss01" horiz-adv-x="1678" 
d="M635 -23q-130 0 -240 34.5t-188.5 95t-131.5 137t-82 167.5q-50 156 -19 344q30 190 128 345q58 91 135.5 167.5t175 137t218 94.5t251.5 34q185 0 326.5 -69.5t229.5 -190.5q71 -104 84 -169l2 -16l-326 -156l-10 26l-24 60q-13 32 -28 57q-45 72 -123 114.5t-179 42.5
q-146 0 -259 -77t-176 -198q-48 -89 -66 -202t2 -201q27 -121 114.5 -198t233.5 -77q179 0 314 117q17 16 49 48l12 12q6 6 7 8t2 10t1 9l3 29l9 53h-441l48 299h790l-72 -451q-1 -14 -14 -34q-18 -29 -24 -37q-34 -45 -46 -60q-122 -145 -298 -225t-388 -80z" />
    <glyph glyph-name="Q.ss01" horiz-adv-x="1751" 
d="M1319 -69l-47 -299h-298q-217 0 -349 100t-148 262q-102 20 -187.5 63.5t-145 104t-99.5 130.5t-60 149q-38 147 -11 314q27 172 114 320q56 95 133.5 176t176.5 145t224 100.5t260 36.5t248.5 -36.5t192.5 -100.5t132 -145t78 -176q40 -148 13 -320q-27 -167 -111 -315
q-89 -155 -242 -274t-351 -164q51 -71 179 -71h298zM683 279q148 0 259.5 76.5t177.5 198.5q48 93 66 201q17 107 -2 202q-28 121 -116 198t-234 77q-142 0 -251.5 -73t-176.5 -190q-56 -98 -73 -214q-19 -113 6 -213q29 -117 115 -190t229 -73z" />
    <glyph glyph-name="g.001" horiz-adv-x="1338" 
d="M380 -392q-146 0 -261.5 59t-175.5 157q-34 55 -53 124l-5 16l295 145q-90 48 -148.5 129t-78.5 171.5t-5 181.5q12 76 47 152t94 146.5t135 124.5t178 86.5t214 32.5q128 0 228 -47l4 25h339l-157 -989q-15 -95 -66.5 -185t-132 -164.5t-198.5 -119.5t-253 -45zM492 347
q113 0 185.5 72t88.5 172q9 62 -7.5 116t-66 91t-125.5 37q-112 0 -183.5 -72.5t-87.5 -171.5q-16 -100 33 -172t163 -72zM424 -94q81 0 144.5 38.5t96.5 102.5q10 15 19 45q-115 -44 -239 -44q-125 0 -224 41l10 -33q45 -150 193 -150z" />
    <glyph glyph-name="uni030C.alt" 
d="M-40 1495l-134 -556h-239l41 556h332z" />
    <glyph glyph-name="uni0335.alt" 
d="M-152 788l-40 -249h-709l40 249h709z" />
    <glyph glyph-name="_FSHallmark" horiz-adv-x="1728" 
d="M1668 1375v-190h-1604v190h1604zM1322 287q-75 0 -132 18q-98 25 -161 98.5t-63 173.5l186 -4q0 -8 12 -32q3 -25 26.5 -49t47.5 -31q33 -20 92 -20q67 0 104 22q34 20 34 52q0 59 -152 88q-134 39 -234 88q-96 48 -96 158q0 86 55 137.5t149 86.5q2 0 52 7t80 7
q75 0 180 -38q68 -24 109 -85.5t41 -134.5h-192q0 42 -50 78q-5 1 -20.5 9t-25.5 9q-7 1 -22.5 5.5t-23.5 4.5q-44 0 -90 -28q-38 -23 -38 -58q0 -63 36 -78q2 -1 20 -9t32.5 -12.5t29.5 -6.5l72 -20l58 -14q7 -1 27 -6.5t31 -5.5q37 -9 44 -14l40 -18q38 -24 62 -52
q22 -51 24 -88q3 -41 -20 -94q-80 -144 -324 -144zM274 545v-258h-210v798h674v-180h-464v-182h388v-178h-388zM816 291q-32 0 -62 30q-34 28 -34 64t30 66q26 26 66 26q47 0 78 -28q32 -29 32 -64q0 -38 -32 -70q-36 -24 -78 -24zM1666 189v-190h-1606v190h1606z" />
    <glyph glyph-name="_Fontastica" horiz-adv-x="1338" 
d="M262 536v-340h-196q-3 0 -4.5 2t-1.5 4v2v1178h884v-174h-682v-490h682v-182h-682zM1278 1382v-1186h-884v184h682v482h-682v188h682v332h202zM252 2q-9 0 -36 8q-15 4 -25.5 22.5t-10.5 35.5q0 28 21.5 47t50.5 19q21 0 32.5 -7.5t25.5 -26.5q10 -13 10 -32
q0 -28 -20 -47t-48 -19zM770 2q-35 0 -60 20l14 26q20 -20 46 -20q16 0 16 12q0 1 -2 3.5t-2 4.5l-6 4q-6 0 -14 4q-5 3 -13 3.5t-11 2.5q-20 13 -20 34q0 38 52 38q24 0 52 -14l-14 -28q-16 16 -50 16q-2 0 -2 -2l-2 -8q0 -1 1 -3t1 -3q0 -2 1.5 -3.5l2.5 -2.5h2
q3 0 7.5 -2t6.5 -2q15 0 30.5 -12.5t15.5 -27.5q0 -19 -16 -29.5t-36 -10.5zM1068 2q-18 0 -34 8q-15 7 -24.5 24t-9.5 34q0 14 10.5 33.5t23.5 24.5q20 8 34 8q18 0 30 -6t22 -16l-20 -24q-3 5 -13.5 11.5t-16.5 6.5q-18 0 -30 -18q-4 -6 -4 -20q0 -24 16 -32q12 -6 18 -6
q5 0 16.5 6t13.5 10l20 -20q-18 -24 -52 -24zM112 50v-46h-34v128h96v-26h-62v-30h58v-26h-58zM368 80v-76h-32v128h30l58 -78v78h32v-128h-30zM542 104v-100h-34v100h-38v28h108v-28h-36zM608 28l-8 -24h-34l54 128h34l54 -128h-36l-8 24h-56zM898 104v-100h-32v100h-38v28
h108v-28h-38zM984 132v-128h-34v128h34zM1164 28l-10 -24h-34l56 128h34l54 -128h-36l-10 24h-54zM252 28q14 0 24 12.5t10 27.5q0 13 -10.5 25.5t-23.5 12.5q-8 0 -20 -6q-16 -8 -16 -32q0 -17 9.5 -28.5t26.5 -11.5zM654 52l-18 46l-18 -46h36zM1208 52l-18 46l-16 -46h34
z" />
    <glyph glyph-name="_www.fontastica.com" horiz-adv-x="3906" 
d="M132 627v-120h-68l-4 2v418h316v-62h-244v-174h244v-64h-244zM494 927v-420h-316v64h244v172h-244v66h244v118h72zM2500 541q-41 0 -86.5 15.5t-75.5 40.5l36 72q22 -19 61 -36.5t65 -17.5q16 0 32 8q14 7 14 22t-10 20q-18 12 -58 24q-55 17 -62 20q-26 11 -40 30
q-14 20 -14 56q0 53 40.5 80.5t97.5 27.5q74 0 140 -40l-34 -72q-70 36 -114 36q-36 0 -36 -24q0 -27 66 -44q45 -10 62 -20q28 -16 40 -32q16 -22 16 -58q0 -54 -41 -81t-99 -27zM1086 539q-79 0 -133.5 51.5t-54.5 130.5t54 129.5t134 50.5t134 -50.5t54 -129.5
t-53.5 -130.5t-134.5 -51.5zM3312 539q-77 0 -129.5 52.5t-52.5 129.5q0 78 53.5 129t132.5 51q86 0 140 -60l-52 -64q-34 46 -86 46q-43 0 -69.5 -28.5t-26.5 -71.5q0 -33 12 -52q31 -50 84 -50q46 0 86 40l54 -56q-66 -66 -146 -66zM708 671v-124h-90v348h260v-72h-170
v-78h156v-74h-156zM1406 755v-208h-86v348h80l160 -210l-2 210h86v-348h-80zM1876 821v-274h-90v274h-104v74h300v-74h-106zM2062 607l-24 -60h-94l150 348h94l146 -348h-96l-24 60h-152zM2852 821v-274h-92v274h-104v74h300v-74h-104zM3084 895v-348h-90v348h90zM3574 607
l-24 -60h-94l150 348h94l146 -348h-98l-22 60h-152zM1088 617q40 0 67 31.5t27 72.5q0 15 -14 52q-19 50 -80 50q-43 0 -69.5 -29t-26.5 -73q0 -42 27 -73t69 -31zM2186 677l-46 126l-50 -126h96zM3698 677l-48 126l-48 -126h96z" />
    </font>
</defs>
</svg>
