<?xml version="1.0" standalone="no"?>
<!DOCTYPE svg PUBLIC "-//W3C//DTD SVG 1.1//EN" "http://www.w3.org/Graphics/SVG/1.1/DTD/svg11.dtd" >
<svg xmlns="http://www.w3.org/2000/svg" xmlns:xlink="http://www.w3.org/1999/xlink" version="1.1">
<metadata>
Created by FontForge 20170731 at Mon Jan 25 19:12:20 2021
 By Aleksey,,,
Copyright (c) 2021 by Fontastica. All rights reserved.
</metadata>
<defs>
<font id="LuxoraGrotesk-Heavy" horiz-adv-x="0" >
  <font-face 
    font-family="Luxora Grotesk Heavy"
    font-weight="900"
    font-stretch="normal"
    units-per-em="2048"
    panose-1="0 0 10 0 0 0 0 0 0 0"
    ascent="1638"
    descent="-410"
    x-height="1111"
    cap-height="1512"
    bbox="-1418 -455 3846 2162"
    underline-thickness="50"
    underline-position="-150"
    unicode-range="U+000D-F8FF"
  />
<missing-glyph horiz-adv-x="1347" 
d="M1297 1500v-1500h-1151v1500h1151zM947 1289h-448l222 -341zM1074 1073l-217 -322l217 -320v642zM582 751l-211 315v-628zM946 214l-225 341l-227 -342z" />
    <glyph glyph-name=".notdef" horiz-adv-x="1347" 
d="M1297 1500v-1500h-1151v1500h1151zM947 1289h-448l222 -341zM1074 1073l-217 -322l217 -320v642zM582 751l-211 315v-628zM946 214l-225 341l-227 -342z" />
    <glyph glyph-name=".null" 
 />
    <glyph glyph-name="nonmarkingreturn" horiz-adv-x="682" 
 />
    <glyph glyph-name="CR" unicode="&#xd;" horiz-adv-x="333" 
 />
    <glyph glyph-name="space" unicode=" " horiz-adv-x="486" 
 />
    <glyph glyph-name="exclam" unicode="!" horiz-adv-x="759" 
d="M559 1502l-11 -1120h-338l-10 1120h359zM558 370v-370h-358v370h358z" />
    <glyph glyph-name="quotedbl" unicode="&#x22;" horiz-adv-x="1006" 
d="M473 1490v-595h-263v595h263zM796 1490v-595h-262v595h262z" />
    <glyph glyph-name="numbersign" unicode="#" horiz-adv-x="1654" 
d="M618 347l-104 -347h-365l105 347h-194v299h284l63 209h-195v298h283l105 349h364l-104 -349h176l104 349h364l-105 -349h195v-298h-284l-63 -209h195v-299h-284l-105 -347h-364l104 347h-175zM947 855h-177l-62 -209h175z" />
    <glyph glyph-name="dollar" unicode="$" horiz-adv-x="1422" 
d="M891 -10v-167h-339v183q-129 35 -229 112.5t-159 177.5q-14 22 -24 45t-25 61.5t-18 46.5l-7 18l325 135l9 -29l6 -19q49 -144 122 -207v290q-76 24 -130 50q-133 66 -202 167t-69 223q0 99 44.5 186.5t137 154t219.5 90.5v193h339v-203q165 -46 273.5 -156.5
t151.5 -249.5l6 -17l-321 -141l-11 29q-32 90 -53 128q-23 39 -46 62v-285l17 -6q202 -61 305 -167t103 -268q0 -160 -112 -281.5t-313 -155.5zM552 989v194q-43 -36 -43 -96q0 -58 43 -98zM891 531v-224q68 37 68 108q0 78 -68 116z" />
    <glyph glyph-name="percent" unicode="%" horiz-adv-x="2161" 
d="M1527 -22q-101 0 -185.5 37.5t-136.5 96.5t-80.5 128.5t-28.5 138.5v4l-181 -383h-385l387 816q-116 -98 -283 -98q-82 0 -153.5 24.5t-122 65t-87 93t-54 109t-17.5 111.5t17.5 111t54 108.5t87 93t122 65t153.5 24.5q100 0 183.5 -36.5t135.5 -95t81 -127t31 -136.5
l177 374h385l-392 -825q119 104 292 104q102 0 187 -37t137.5 -96.5t81 -129t28.5 -139.5q0 -55 -17.5 -111t-54 -108t-87 -92.5t-122 -65t-153.5 -24.5zM634 1018q36 0 64 32.5t28 70.5q0 37 -28 70t-64 33q-37 0 -65.5 -32.5t-28.5 -70.5q0 -39 28 -71t66 -32zM1527 278
q39 0 66 31t27 70t-27 70.5t-66 31.5q-37 0 -65 -32t-28 -70t28 -69.5t65 -31.5z" />
    <glyph glyph-name="ampersand" unicode="&#x26;" horiz-adv-x="2006" 
d="M710 -22q-118 0 -217 35.5t-164.5 95.5t-102 138.5t-36.5 163.5q0 139 80.5 242.5t234.5 185.5q-116 139 -116 285q0 74 31.5 145t88.5 128t145.5 91.5t193.5 34.5q103 0 189 -33.5t140.5 -88.5t84 -123.5t29.5 -141.5q0 -119 -70.5 -209t-202.5 -162l166 -165l202 183
h441l-425 -396l392 -387h-456l-169 169q-103 -88 -213.5 -139.5t-245.5 -51.5zM800 981q73 35 112.5 71t39.5 84q0 47 -27 77t-77 30q-54 0 -87.5 -35t-33.5 -84q0 -61 73 -143zM710 278q104 0 239 111l-231 230q-170 -83 -170 -208q0 -63 41 -98t121 -35z" />
    <glyph glyph-name="quotesingle" unicode="'" horiz-adv-x="682" 
d="M473 1490v-595h-263v595h263z" />
    <glyph glyph-name="parenleft" unicode="(" horiz-adv-x="1026" 
d="M906 -215l26 -34h-353l-9 6q-12 10 -23 22q-61 66 -113 144q-214 313 -214 704q0 186 53 367.5t161 336.5q31 44 130 161l9 10h363l-27 -35q-100 -129 -152 -219q-179 -302 -179 -621q0 -320 179 -624q37 -62 149 -218z" />
    <glyph glyph-name="parenright" unicode=")" horiz-adv-x="1030" 
d="M455 -244l-9 -5h-356l50 60q151 187 232 395t81 421q0 314 -180 621q-45 76 -151 220l-25 34h359l9 -10q96 -111 132 -161q108 -153 160.5 -335t52.5 -369q0 -395 -213 -704q-31 -45 -114 -143q-18 -18 -28 -24z" />
    <glyph glyph-name="asterisk" unicode="*" horiz-adv-x="1164" 
d="M727 662l-145 184l-145 -184l-240 167l145 187l-212 70l88 262l211 -68v217h305v-217l213 67l87 -261l-213 -70l146 -187z" />
    <glyph glyph-name="plus" unicode="+" horiz-adv-x="1370" 
d="M860 599v-308h-347v308h-323v307h323v307h347v-307h320v-307h-320z" />
    <glyph glyph-name="comma" unicode="," horiz-adv-x="886" 
d="M677 370l-184 -583h-303l103 583h384z" />
    <glyph glyph-name="hyphen" unicode="-" horiz-adv-x="1240" 
d="M1049 716v-298h-859v298h859z" />
    <glyph glyph-name="period" unicode="." horiz-adv-x="777" 
d="M568 370v-370h-358v370h358z" />
    <glyph glyph-name="slash" unicode="/" horiz-adv-x="1176" 
d="M1136 1502l-712 -1502h-384l713 1502h383z" />
    <glyph glyph-name="zero" unicode="0" horiz-adv-x="1583" 
d="M792 -22q-102 0 -192 28t-155.5 73.5t-119 108t-87 126.5t-55.5 133q-43 139 -43 305q0 178 48 322q23 67 57 129t87.5 121.5t118 102.5t152.5 69.5t188 26.5t188.5 -26.5t153 -69.5t117.5 -102.5t87.5 -121t57.5 -129.5q48 -144 48 -322q0 -182 -48 -323
q-23 -68 -57 -129.5t-87 -121.5t-117.5 -103.5t-152.5 -70t-189 -26.5zM792 286q56 0 103 24t79 64t53.5 83t34.5 91q25 88 25 204q0 117 -28 214q-14 47 -35.5 88t-53.5 79.5t-78 60.5t-101 22q-54 0 -99.5 -22.5t-77 -61t-52.5 -79.5t-35 -87q-29 -91 -29 -214
q0 -116 25 -204q13 -48 34.5 -91t53.5 -83t79 -64t102 -24z" />
    <glyph glyph-name="one" unicode="1" horiz-adv-x="978" 
d="M679 1502v-1502h-359v1203h-260v299h619z" />
    <glyph glyph-name="two" unicode="2" horiz-adv-x="1363" 
d="M1244 298v-298h-1110v208l412 413q43 44 127 134q84 91 130 162t46 146q0 162 -168 162q-60 0 -106 -18.5t-75.5 -53t-48 -72.5t-32.5 -89l-9 -31l-310 137l6 17q2 5 4.5 13.5t3.5 11.5q22 67 54 118q74 119 209.5 192t303.5 73q124 0 225.5 -39.5t166 -104.5t99 -146.5
t34.5 -169.5q0 -62 -20.5 -126t-48.5 -115t-77 -112.5t-85.5 -101.5t-94.5 -98l-208 -212h572z" />
    <glyph glyph-name="three" unicode="3" horiz-adv-x="1374" 
d="M687 -22q-168 0 -300.5 70.5t-210.5 188.5q-24 36 -40 74q-3 7 -30 74l-6 17l300 134l12 -26q5 -11 14 -32t17 -38t17 -32q37 -59 95 -94.5t132 -35.5q102 0 156 60.5t54 148.5q0 86 -56 146t-156 60q-30 0 -86 -6t-64 -7l-56 -5l2 221l251 306l-546 1v299h1014v-239
l-257 -313q149 -64 230 -195t81 -268q0 -95 -36.5 -184.5t-105.5 -163t-179.5 -117.5t-245.5 -44z" />
    <glyph glyph-name="four" unicode="4" horiz-adv-x="1422" 
d="M1142 314v-314h-339v314h-723v229l773 959h289v-899h179v-289h-179zM803 603v326l-260 -326h260z" />
    <glyph glyph-name="five" unicode="5" horiz-adv-x="1401" 
d="M701 -22q-213 0 -362.5 103t-216.5 262q-3 7 -7.5 20.5t-7.5 20.5l-7 17l298 140l11 -30q28 -76 55 -112q39 -54 101.5 -87.5t135.5 -33.5q106 0 165 63t59 154q0 92 -59 154.5t-167 62.5q-59 0 -109 -21t-78 -59q-1 -2 -35 -55l-15 -25l-240 127l85 825h915v-299h-618
l-21 -203q63 11 121 11q138 0 250.5 -45t182.5 -119t107.5 -165.5t37.5 -188.5q0 -98 -37.5 -189t-107.5 -165t-183.5 -118.5t-252.5 -44.5z" />
    <glyph glyph-name="six" unicode="6" horiz-adv-x="1302" 
d="M650 -22q-110 0 -202.5 31.5t-155.5 84t-107.5 121t-64.5 141.5t-20 147q0 58 13 116.5t42 122t51 104.5t63 110l323 546h403l-312 -507q119 -6 220 -55t164.5 -122.5t99 -160t35.5 -170.5q0 -73 -21.5 -144.5t-67.5 -137.5t-110 -116.5t-155.5 -80.5t-197.5 -30z
M650 278q92 0 143.5 63t51.5 146t-51.5 144.5t-143.5 61.5q-90 0 -141 -62t-51 -144t51 -145.5t141 -63.5z" />
    <glyph glyph-name="seven" unicode="7" horiz-adv-x="1196" 
d="M1132 1268l-608 -1268h-380l579 1205h-643v299h1054v-222q0 -4 -1 -9z" />
    <glyph glyph-name="eight" unicode="8" horiz-adv-x="1403" 
d="M701 -22q-133 0 -244.5 41t-184 110t-112.5 157t-40 184q0 100 46.5 195t135.5 164q-108 112 -108 264q0 83 35.5 160t99 137t160.5 96.5t212 36.5q117 0 214 -36t159.5 -96.5t97 -137t34.5 -160.5q0 -149 -106 -264q90 -68 136.5 -163t46.5 -196q0 -96 -40.5 -184
t-113 -157t-184 -110t-244.5 -41zM701 961q66 0 106 38t40 94t-40 94t-106 38q-67 0 -107.5 -38t-40.5 -94t40.5 -94t107.5 -38zM701 278q102 0 163.5 55t61.5 137q0 83 -61.5 138t-163.5 55q-101 0 -162 -55.5t-61 -137.5q0 -81 61 -136.5t162 -55.5z" />
    <glyph glyph-name="nine" unicode="9" horiz-adv-x="1302" 
d="M1030 546l-319 -546h-403l311 507q-119 6 -220 55t-164.5 123t-99 160t-35.5 170q0 72 21.5 143.5t67 137.5t109.5 116.5t155 80.5t197 30q111 0 204 -31.5t156 -84t107.5 -121.5t64.5 -142t20 -147q0 -107 -55 -234q-31 -71 -117 -217zM650 809q92 0 143.5 61.5
t51.5 144.5t-51.5 146.5t-143.5 63.5q-90 0 -141 -63.5t-51 -146.5q0 -82 50.5 -144t141.5 -62z" />
    <glyph glyph-name="colon" unicode=":" horiz-adv-x="777" 
d="M568 1133v-370h-358v370h358zM568 370v-370h-358v370h358z" />
    <glyph glyph-name="semicolon" unicode=";" horiz-adv-x="906" 
d="M672 1133v-370h-359v370h359zM697 370l-184 -583h-303l103 583h384z" />
    <glyph glyph-name="less" unicode="&#x3c;" horiz-adv-x="1310" 
d="M622 755l520 -289v-352l-974 534v216l974 532v-352z" />
    <glyph glyph-name="equal" unicode="=" horiz-adv-x="1470" 
d="M1230 1120v-308h-990v308h990zM1230 693v-308h-990v308h990z" />
    <glyph glyph-name="greater" unicode="&#x3e;" horiz-adv-x="1270" 
d="M1142 864v-216l-974 -534v352l520 289l-520 289v352z" />
    <glyph glyph-name="question" unicode="?" horiz-adv-x="1257" 
d="M713 409v-17h-301v84q0 61 16.5 116t49 103t62 82t74.5 77q24 22 72 68q37 35 62 66q58 69 58 136q0 64 -40.5 99t-116.5 35q-149 0 -215 -125q-14 -26 -42 -112l-7 -21l-255 115l3 12q21 80 65 149.5t107.5 123.5t152 85.5t191.5 31.5q202 0 330 -112.5t128 -280.5
q0 -56 -15 -106.5t-47.5 -97.5t-63.5 -81.5t-81 -83.5q-36 -33 -70 -67q-38 -38 -61 -70q-41 -53 -50 -99q-5 -25 -5 -48q-1 -19 -1 -62zM718 333v-333h-300v333h300z" />
    <glyph glyph-name="at" unicode="@" horiz-adv-x="1950" 
d="M976 -122q-265 0 -472 129.5t-306 338.5q-78 163 -78 352q0 188 79 350q100 208 307 338.5t470 130.5q262 0 468.5 -132t306.5 -339q80 -166 80 -348q0 -62 -11.5 -122.5t-40 -122.5t-72 -108.5t-113.5 -75.5t-158 -29q-150 0 -242 90q-109 -79 -262 -79
q-109 0 -199 40.5t-145.5 106t-86 145.5t-30.5 163t30.5 163t86.5 146.5t146 107.5t198 41t197 -47v28h199q-150 113 -352 113q-182 0 -318 -89t-200 -236q-47 -110 -47 -235q0 -126 48 -237q63 -147 199 -235.5t318 -88.5q162 0 323 86l20 11l124 -226l-12 -8
q-10 -7 -32 -19q-197 -103 -423 -103zM1450 497q48 0 71 75q17 51 17 126q0 222 -131 373v-497q0 -33 9 -54q11 -23 34 -23zM938 509q83 0 130.5 60.5t47.5 138.5t-47 135.5t-131 57.5q-82 0 -129 -59t-47 -136t47 -137t129 -60z" />
    <glyph glyph-name="A" unicode="A" horiz-adv-x="1654" 
d="M606 376l-139 -376h-377l581 1512h312l581 -1512h-378l-137 376h-443zM937 675l-110 296l-110 -296h220z" />
    <glyph glyph-name="B" unicode="B" horiz-adv-x="1421" 
d="M777 0h-687v1512h687q118 0 215 -37.5t157.5 -100.5t93 -140.5t32.5 -160.5q0 -161 -107 -277q81 -67 121.5 -156.5t40.5 -184.5q0 -200 -145 -327.5t-408 -127.5zM765 1213h-316v-284h316q70 0 106 36.5t36 97.5q0 62 -38 106t-104 44zM777 629h-328v-330h328
q93 0 140 41t47 115q0 78 -47.5 126t-139.5 48z" />
    <glyph glyph-name="C" unicode="C" horiz-adv-x="1679" 
d="M875 -23q-129 0 -244.5 34.5t-204 95t-154.5 137.5t-108 167q-74 157 -74 344t74 345q42 91 108 167.5t154.5 137t203.5 94.5t245 34q188 0 342 -72t260 -196q82 -94 106 -161l5 -16l-306 -157l-13 28q-34 73 -66 116q-57 72 -142 114.5t-186 42.5q-145 0 -246 -77.5
t-146 -197.5q-34 -92 -34 -202q0 -109 34 -201q45 -120 145.5 -197.5t246.5 -77.5q196 0 325 154q29 34 72 112l14 27l301 -162l-7 -16q-5 -12 -15 -29q-41 -70 -88 -124q-107 -121 -262.5 -192.5t-339.5 -71.5z" />
    <glyph glyph-name="D" unicode="D" horiz-adv-x="1493" 
d="M636 -2h-546v1514h546q164 0 312 -58q119 -48 209.5 -128t142.5 -175.5t77.5 -195t25.5 -200.5q0 -102 -25.5 -201t-77.5 -194t-142.5 -174.5t-209.5 -127.5q-149 -60 -312 -60zM635 293q61 0 128 23q74 24 130.5 73t89.5 110.5t49 126t16 129.5q0 103 -34 196
q-43 116 -140.5 191t-238.5 75h-191v-923q32 0 96 -0.5t95 -0.5z" />
    <glyph glyph-name="E" unicode="E" horiz-adv-x="1287" 
d="M1198 299v-299h-1108v1512h1108v-299h-749v-284h656v-300h-656v-330h749z" />
    <glyph glyph-name="F" unicode="F" horiz-adv-x="1287" 
d="M449 629v-629h-359v1512h1108v-299h-749v-284h656v-300h-656z" />
    <glyph glyph-name="G" unicode="G" horiz-adv-x="1679" 
d="M875 -23q-135 0 -254.5 37t-208.5 101.5t-154 146t-105 176.5q-63 146 -63 317t63 317q41 96 105.5 177t153 145.5t208 101.5t255.5 37q191 0 345 -73t262 -200q79 -94 101 -156l5 -16l-305 -157l-14 28l-17 35q-54 105 -150.5 171.5t-226.5 66.5q-135 0 -232.5 -68
t-147.5 -177q-46 -102 -46 -232q0 -127 46 -230q50 -109 148 -177.5t232 -68.5q166 0 282 105q11 10 33 36l17 21l13 14l-1 111h-483v299h825v-865h-340v50q-162 -73 -346 -73z" />
    <glyph glyph-name="H" unicode="H" horiz-adv-x="1439" 
d="M449 629v-629h-359v1512h359v-583h542v583h358v-1512h-358v629h-542z" />
    <glyph glyph-name="I" unicode="I" horiz-adv-x="538" 
d="M449 1512v-1512h-359v1512h359z" />
    <glyph glyph-name="J" unicode="J" horiz-adv-x="1355" 
d="M678 -17q-148 0 -264 47t-185 125.5t-104 173t-35 198.5v72h360v-72q0 -95 61 -168t167 -73q104 0 165 68t61 158v994h361v-994q0 -102 -36 -195t-105.5 -168.5t-185 -120.5t-260.5 -45z" />
    <glyph glyph-name="K" unicode="K" horiz-adv-x="1493" 
d="M449 532v-532h-359v1512h359v-502l473 502h444l-556 -594l593 -918h-414l-421 659z" />
    <glyph glyph-name="L" unicode="L" horiz-adv-x="1287" 
d="M1198 299v-299h-1108v1512h359v-1213h749z" />
    <glyph glyph-name="M" unicode="M" horiz-adv-x="1627" 
d="M449 834v-834h-359v1512h295l429 -596l428 596h294v-1512h-357v832l-303 -418h-126z" />
    <glyph glyph-name="N" unicode="N" horiz-adv-x="1439" 
d="M449 843v-843h-359v1512h295l606 -838v838h358v-1512h-295z" />
    <glyph glyph-name="O" unicode="O" horiz-adv-x="1751" 
d="M875 -23q-134 0 -252.5 36.5t-207.5 100t-154.5 144t-105.5 174.5q-65 147 -65 323t65 324q40 94 105.5 174.5t154.5 144t207.5 99.5t252.5 36q137 0 258.5 -38t211.5 -104.5t155.5 -150t104.5 -180.5q57 -145 57 -305t-57 -305q-38 -97 -103.5 -180.5t-156 -150
t-212 -104.5t-258.5 -38zM875 279q148 0 247 76.5t146 198.5q34 92 34 201q0 110 -34 202q-46 121 -146.5 198t-246.5 77q-142 0 -240 -73t-146 -190q-40 -95 -40 -214q0 -114 40 -213q48 -117 145.5 -190t240.5 -73z" />
    <glyph glyph-name="P" unicode="P" horiz-adv-x="1346" 
d="M449 521v-521h-359v1512h585q138 0 250 -40.5t183 -110t109 -158t38 -188.5q0 -99 -38 -187.5t-109 -157.5t-183 -109t-250 -40h-226zM675 1213h-226v-392h226q104 0 159.5 55t55.5 141t-55.5 141t-159.5 55z" />
    <glyph glyph-name="Q" unicode="Q" horiz-adv-x="1751" 
d="M1391 156l160 -270l-306 -156l-160 273q-102 -26 -210 -26q-247 0 -430 117.5t-274 301.5q-81 163 -81 359q0 197 81 360q91 184 273.5 301t430.5 117q247 0 432.5 -117.5t274.5 -300.5q80 -163 80 -360q0 -169 -66 -327t-205 -272zM875 279q33 0 49 2l-215 368l280 177
l226 -375q87 126 87 304q0 110 -34 202q-46 121 -146.5 198t-246.5 77t-246.5 -77t-145.5 -198q-34 -92 -34 -202q0 -113 34 -201q46 -120 146 -197.5t246 -77.5z" />
    <glyph glyph-name="R" unicode="R" horiz-adv-x="1449" 
d="M449 521v-521h-359v1512h585q138 0 250 -40.5t183 -110t109 -158t38 -188.5q0 -127 -62.5 -239.5t-190.5 -179.5l358 -596h-410l-311 521h-190zM675 1213h-226v-392h226q104 0 159.5 55t55.5 141t-55.5 141t-159.5 55z" />
    <glyph glyph-name="S" unicode="S" horiz-adv-x="1419" 
d="M758 -23q-131 0 -246 40t-197 108t-138 152t-82 176l-5 17l329 136l8 -32l4 -19q16 -56 41.5 -103t64 -87.5t95 -63t126.5 -22.5q91 0 148 37t57 101q0 65 -34 96t-122 58q-46 15 -133 38t-122 33q-193 60 -297.5 172.5t-104.5 270.5q0 90 39 171.5t108.5 143t174 98
t228.5 36.5q176 0 319 -74.5t227 -196.5q43 -65 73 -149l4 -13l6 -17l-327 -142l-8 31q-15 53 -37 96.5t-56 82t-85 60.5t-114 22q-90 0 -142 -36.5t-52 -103.5q0 -58 41 -96t120 -63q40 -12 121 -33.5t120 -33.5q411 -121 411 -438q0 -193 -155 -323t-408 -130z" />
    <glyph glyph-name="T" unicode="T" horiz-adv-x="1310" 
d="M835 1213v-1213h-358v1213h-387v299h1130v-299h-385z" />
    <glyph glyph-name="U" unicode="U" horiz-adv-x="1383" 
d="M692 -23q-148 0 -265 43.5t-189.5 118t-110 168t-37.5 198.5v1007h361v-1007q0 -93 65 -159.5t176 -66.5q109 0 175 67.5t66 158.5v1007h360v-1007q0 -104 -38 -198t-110 -168t-189.5 -118t-263.5 -44z" />
    <glyph glyph-name="V" unicode="V" horiz-adv-x="1654" 
d="M1564 1512l-581 -1512h-312l-581 1512h377l360 -963l359 963h378z" />
    <glyph glyph-name="W" unicode="W" horiz-adv-x="2253" 
d="M1126 883l-260 -883h-322l-454 1512h367l250 -861l247 861h344l247 -859l250 859h369l-455 -1512h-323z" />
    <glyph glyph-name="X" unicode="X" horiz-adv-x="1574" 
d="M787 460l-297 -460h-400l494 769l-478 743h403l279 -433l277 433h404l-482 -743l497 -769h-401z" />
    <glyph glyph-name="Y" unicode="Y" horiz-adv-x="1666" 
d="M1013 690v-690h-358v589l1 74v25q-20 55 -74 123q-8 10 -30.5 37t-38 47t-29.5 41l-394 576h405l340 -495l337 495h404l-392 -576q-15 -22 -97 -125q-53 -68 -74 -121z" />
    <glyph glyph-name="Z" unicode="Z" horiz-adv-x="1398" 
d="M1308 299v-299h-1218v186l4 17l719 1010h-675v299h1154v-186l-4 -18l-720 -1009h740z" />
    <glyph glyph-name="bracketleft" unicode="[" horiz-adv-x="931" 
d="M801 174v-299h-581v1752h581v-299h-223v-1154h223z" />
    <glyph glyph-name="backslash" unicode="\" horiz-adv-x="1176" 
d="M424 1502l712 -1502h-383l-713 1502h384z" />
    <glyph glyph-name="bracketright" unicode="]" horiz-adv-x="931" 
d="M711 1627v-1752h-581v299h224v1154h-224v299h581z" />
    <glyph glyph-name="asciicircum" unicode="^" horiz-adv-x="1465" 
d="M733 1038l-153 -280h-390l411 744h264l410 -744h-391z" />
    <glyph glyph-name="underscore" unicode="_" horiz-adv-x="1106" 
d="M1076 174v-299h-1046v299h1046z" />
    <glyph glyph-name="grave" unicode="`" horiz-adv-x="613" 
d="M359 1644l216 -409h-279l-254 409h317z" />
    <glyph glyph-name="a" unicode="a" horiz-adv-x="1181" 
d="M540 -22q-104 0 -190 30t-142 81t-87 118t-31 142q0 114 75 197t205 131l113 32l263 58q-31 68 -143 68q-68 0 -99.5 -19.5t-31.5 -65.5q0 -4 0.5 -11.5t0.5 -11.5h-347v22q0 141 85 238.5t261 131.5q65 14 130 14q227 0 358.5 -117t131.5 -290v-726h-339v25
q-102 -47 -213 -47zM540 276q94 0 149.5 60t62.5 144l-182 -40q-56 -12 -94 -36.5t-38 -55.5q0 -72 102 -72z" />
    <glyph glyph-name="b" unicode="b" horiz-adv-x="1349" 
d="M667 -23q-125 0 -239 43v-20h-338v1502h338v-409q112 44 239 44q197 0 337 -95t205 -242q50 -113 50 -244q0 -132 -50 -243q-65 -146 -205.5 -241t-336.5 -95zM667 278q61 0 108 25.5t74.5 67t41.5 89t14 96.5q0 50 -13.5 98t-41 90t-75 67.5t-108.5 25.5t-109 -26
t-75.5 -68t-41.5 -89.5t-14 -97.5q0 -49 14.5 -97t42 -89t75.5 -66.5t108 -25.5z" />
    <glyph glyph-name="c" unicode="c" horiz-adv-x="1326" 
d="M682 -23q-199 0 -341 98t-205 247q-46 109 -46 234q0 128 46 235q64 151 205 248.5t341 97.5q142 0 262.5 -55t197.5 -149q16 -19 41 -57.5t36 -52.5l12 -17l-301 -175l-15 28q-21 41 -40 68t-47 54.5t-64.5 41.5t-81.5 14q-61 0 -109 -26t-75 -68t-41 -89.5t-14 -97.5
t14 -97t41.5 -88.5t75 -67t108.5 -25.5q73 0 126.5 38t86.5 101q10 19 19 38l14 29l303 -176l-12 -18q-11 -14 -36 -51.5t-41 -57.5q-79 -94 -198 -149t-262 -55z" />
    <glyph glyph-name="d" unicode="d" horiz-adv-x="1349" 
d="M682 -23q-197 0 -337 94.5t-205 241.5q-50 111 -50 243q0 134 50 245q66 147 205.5 241.5t336.5 94.5q128 0 238 -43v408h339v-1502h-339v20q-110 -43 -238 -43zM682 278q61 0 108.5 25.5t75 67t41.5 89t14 96.5q0 50 -14 97.5t-41 89.5t-75 68t-109 26t-109 -26t-75 -68
t-41 -89.5t-14 -97.5t14 -97t41.5 -88.5t75 -67t108.5 -25.5z" />
    <glyph glyph-name="e" unicode="e" horiz-adv-x="1364" 
d="M682 -23q-187 0 -325.5 87.5t-206.5 225.5q-60 121 -60 266t60 268q68 137 207 225t325 88t325.5 -88t207.5 -225q60 -123 60 -268q0 -18 -0.5 -52t-0.5 -52v-23h-807q28 -67 82.5 -109t132.5 -42q128 0 205 125q4 6 10 18l322 -131q-63 -92 -90 -123
q-79 -88 -194.5 -139t-252.5 -51zM482 720h400q-68 117 -200 117q-131 0 -200 -117z" />
    <glyph glyph-name="f" unicode="f" horiz-adv-x="986" 
d="M623 812v-812h-338v812h-195v299h195v13q0 70 24.5 136.5t72.5 124t129.5 92.5t184.5 35q93 0 182 -26l19 -6v-287l-40 9q-92 22 -147 22q-87 0 -87 -100v-13h239v-299h-239z" />
    <glyph glyph-name="g" unicode="g" horiz-adv-x="1338" 
d="M678 -392q-146 0 -270.5 59t-200.5 157q-26 35 -51 79q-8 15 -22 45l324 108q33 -71 84.5 -110.5t132.5 -39.5t138.5 38.5t80.5 102.5q8 18 11 45q-108 -44 -232 -44t-230 41l-44 20q-146 71 -227.5 206t-81.5 276q0 76 23 152t71.5 146.5t116 124.5t164 86.5t208.5 32.5
q127 0 235 -47v25h339v-989q0 -75 -22.5 -148t-70 -139.5t-113.5 -117t-160 -80t-203 -29.5zM673 347q113 0 174 72t61 172q0 98 -62.5 171t-174.5 73t-172.5 -72.5t-60.5 -171.5q0 -100 60.5 -172t174.5 -72z" />
    <glyph glyph-name="h" unicode="h" horiz-adv-x="1168" 
d="M428 659v-659h-338v1502h338v-392q75 23 155 23q116 0 212 -36t157 -96.5t94 -136.5t33 -158v-706h-340v659q0 75 -38 125.5t-116 50.5q-79 0 -118 -51t-39 -125z" />
    <glyph glyph-name="i" unicode="i" horiz-adv-x="519" 
d="M428 1502v-331h-338v331h338zM428 1111v-1111h-338v1111h338z" />
    <glyph glyph-name="j" unicode="j" horiz-adv-x="781" 
d="M691 1502v-369h-339v369h339zM283 -392q-47 0 -88 7q-16 2 -82 14l-23 4v283l35 -5l78 -10q50 -6 74 -6q38 0 57 29q18 28 18 71v1116h339v-1116q0 -70 -24 -136.5t-71 -123.5t-128 -92t-185 -35z" />
    <glyph glyph-name="k" unicode="k" horiz-adv-x="1267" 
d="M428 336v-336h-338v1502h338v-720l323 329h426l-456 -471l413 -640h-391l-255 398z" />
    <glyph glyph-name="l" unicode="l" horiz-adv-x="519" 
d="M428 1502v-1502h-338v1502h338z" />
    <glyph glyph-name="m" unicode="m" horiz-adv-x="1777" 
d="M428 659v-659h-338v1111h338q74 22 149 22q196 0 317 -102q135 102 336 102q111 0 200.5 -39t144 -101.5t83.5 -136.5t29 -149v-707h-338v661q0 73 -35.5 123.5t-110.5 50.5q-73 0 -109 -51t-36 -123v-661h-339v661q0 56 -24 103t-73 63q-28 8 -43 8q-19 0 -43 -8
q-108 -35 -108 -168z" />
    <glyph glyph-name="n" unicode="n" horiz-adv-x="1168" 
d="M428 659v-659h-338v1111h338q72 22 155 22q116 0 212 -36t157 -96.5t94 -136.5t33 -158v-706h-340v659q0 75 -38 125.5t-116 50.5q-79 0 -118 -51t-39 -125z" />
    <glyph glyph-name="o" unicode="o" horiz-adv-x="1364" 
d="M682 -23q-198 0 -338.5 96t-205.5 245q-48 109 -48 238q0 80 21 159.5t68 156t114.5 135t168 94.5t220.5 36q203 0 346 -101t204 -254q43 -110 43 -226q0 -126 -48 -238q-65 -148 -206 -244.5t-339 -96.5zM682 278q61 0 108.5 25.5t75 67t41.5 89t14 96.5q0 50 -14 97.5
t-41 89.5t-75 68t-109 26t-109 -26t-75 -68t-41 -89.5t-14 -97.5t14 -97t41.5 -88.5t75 -67t108.5 -25.5z" />
    <glyph glyph-name="p" unicode="p" horiz-adv-x="1349" 
d="M428 19v-409h-338v1501h338v-19q109 44 239 44q197 0 337 -95t205 -242q50 -113 50 -244q0 -132 -50 -243q-65 -146 -205.5 -241t-336.5 -95q-125 0 -239 43zM667 277q61 0 108 25.5t74.5 67t41.5 89t14 96.5q0 50 -13.5 98t-41 90t-75 67.5t-108.5 25.5t-109 -26
t-75.5 -68t-41.5 -89.5t-14 -97.5q0 -49 14.5 -97t42 -89t75.5 -66.5t108 -25.5z" />
    <glyph glyph-name="q" unicode="q" horiz-adv-x="1349" 
d="M1259 1111v-1501h-339v409q-110 -43 -238 -43q-196 0 -336.5 95t-205.5 241q-50 111 -50 243q0 134 50 245q66 147 205.5 241.5t336.5 94.5q129 0 238 -44v19h339zM682 277q61 0 108.5 25.5t75 67t41.5 89t14 96.5q0 50 -14 97.5t-41 89.5t-75 68t-109 26t-109 -26
t-75 -68t-41 -89.5t-14 -97.5q0 -49 14 -96.5t41.5 -89t75 -67t108.5 -25.5z" />
    <glyph glyph-name="r" unicode="r" horiz-adv-x="853" 
d="M428 659v-659h-338v1111h338q72 22 155 22q25 0 73 -6q11 -2 33 -5.5t33 -4.5l15 -2l26 -3v-310l-39 8l-73 16q-50 9 -66 9q-79 0 -118 -51t-39 -125z" />
    <glyph glyph-name="s" unicode="s" horiz-adv-x="1132" 
d="M598 -38q-178 0 -315.5 96t-192.5 258l281 128l16 -39q64 -152 211 -152q54 0 87 19.5t33 51.5q0 20 -27 37q-20 13 -74 28l-157 44q-152 43 -232 130.5t-80 211.5q0 157 117.5 256.5t303.5 99.5q135 0 246.5 -58.5t178.5 -163.5q25 -40 48 -101l-279 -133l-7 20
q-25 72 -73 110.5t-114 38.5q-46 0 -73 -16t-27 -43q0 -23 19.5 -38t71.5 -33q26 -9 82 -25q67 -20 83 -25q314 -98 314 -344q0 -157 -124 -257.5t-317 -100.5z" />
    <glyph glyph-name="t" unicode="t" horiz-adv-x="956" 
d="M682 -12q-85 0 -153.5 21t-113.5 56.5t-75 84t-42.5 100.5t-12.5 109v453h-195v299h195v310h338v-310h239v-299h-239v-453q0 -51 15.5 -70t65.5 -19q28 0 61 5l66 8l35 5v-277l-23 -4q-97 -19 -161 -19z" />
    <glyph glyph-name="u" unicode="u" horiz-adv-x="1168" 
d="M585 -20q-93 0 -173.5 23.5t-139 64t-100 94.5t-62 116t-20.5 128v705h338v-659q0 -74 38.5 -123.5t116.5 -49.5q79 0 117.5 49.5t38.5 123.5v659h340v-1111h-340q-69 -20 -154 -20z" />
    <glyph glyph-name="v" unicode="v" horiz-adv-x="1386" 
d="M1295 1111l-466 -1111h-274l-465 1111h372l231 -575l230 575h372z" />
    <glyph glyph-name="w" unicode="w" horiz-adv-x="1886" 
d="M944 508l-165 -508h-283l-406 1111h372l170 -507l161 507h299l160 -505l172 505h371l-407 -1111h-282z" />
    <glyph glyph-name="x" unicode="x" horiz-adv-x="1409" 
d="M705 289l-213 -289h-402l413 555l-413 556h402l213 -290l212 290h402l-413 -556l413 -555h-402z" />
    <glyph glyph-name="y" unicode="y" horiz-adv-x="1423" 
d="M1332 1111l-645 -1503h-367l201 488l-431 1015h376l246 -580l244 580h376z" />
    <glyph glyph-name="z" unicode="z" horiz-adv-x="1131" 
d="M1041 298v-298h-951v220l476 592h-445v299h918v-219l-475 -594h477z" />
    <glyph glyph-name="braceleft" unicode="{" horiz-adv-x="921" 
d="M832 49v-298h-169q-92 0 -165.5 29.5t-117 78.5t-66.5 107.5t-23 121.5v345q0 27 -6 38l-3 4l-2 1h-4h-156v298h156l5 1l4 4q6 11 6 38v346q0 63 23 122t66.5 108.5t117 79t165.5 29.5h169v-299h-169q-1 0 -3 -1h-1q-4 -4 -5 -6q-7 -10 -7 -24q0 -60 0.5 -182t0.5 -182
q0 -102 -59 -183q59 -81 59 -181q0 -2 -0.5 -7t-0.5 -8v-349q0 -16 6 -25q4 -6 10 -6h169z" />
    <glyph glyph-name="bar" unicode="|" horiz-adv-x="877" 
d="M618 1681v-2020h-358v2020h358z" />
    <glyph glyph-name="braceright" unicode="}" horiz-adv-x="921" 
d="M257 -249h-167v298h167q5 0 9 6q7 12 7 25q0 60 -0.5 181t-0.5 181q0 103 60 183q-60 82 -60 180q0 4 0.5 10t0.5 9v348q0 16 -6 25q-4 6 -10 6h-167v299h167q92 0 165.5 -29.5t117 -78.5t66.5 -108.5t23 -122.5v-346q0 -26 7 -38l3 -4q2 -1 4 -1h159v-298h-162l-2 -2
q-1 -2 -2 -3q-7 -13 -7 -38v-345q0 -63 -22.5 -122t-66.5 -107.5t-117.5 -78t-165.5 -29.5z" />
    <glyph glyph-name="asciitilde" unicode="~" horiz-adv-x="1515" 
d="M941 534q-111 0 -226 67q-61 38 -71 43q-26 15 -42 15q-15 0 -27 -30q-11 -32 -9 -66v-24h-336l9 80q5 47 17 90t37.5 90t62.5 81t96 56t133 22q110 0 227 -68q9 -6 34.5 -21t37.5 -22q25 -13 39 -15l3 4q8 10 14 29q8 24 15 68l5 19h326l-9 -79q-5 -47 -15.5 -88.5
t-35 -89.5t-59.5 -82t-93.5 -56.5t-132.5 -22.5z" />
    <glyph glyph-name="uni00A0" unicode="&#xa0;" horiz-adv-x="330" 
 />
    <glyph glyph-name="exclamdown" unicode="&#xa1;" horiz-adv-x="759" 
d="M558 1133v-370h-358v370h358zM548 751l11 -1120h-359l10 1120h338z" />
    <glyph glyph-name="cent" unicode="&#xa2;" horiz-adv-x="1282" 
d="M831 -3v-231h-336v238q-107 31 -189 94t-130 141.5t-72 161.5t-24 167t24 167t72 160.5t130.5 139.5t188.5 93v239h336v-232q98 -25 178.5 -79t133.5 -125q40 -52 72 -123l7 -17l-300 -156l-13 28q-41 90 -78 128v-449q16 16 28 34q18 27 50 93l13 28l300 -155l-7 -17
q-32 -71 -72 -124q-52 -71 -132.5 -125t-179.5 -79zM495 370v393q-67 -83 -67 -197q0 -113 67 -196z" />
    <glyph glyph-name="sterling" unicode="&#xa3;" horiz-adv-x="1745" 
d="M1491 298v-298h-1212v298h224v305h-273l89 298h184v148q0 91 33.5 174.5t97.5 151t168 108t233 40.5q159 0 283.5 -67t198.5 -179q33 -51 69 -148l12 -30l-316 -140l-7 33q-20 98 -79 165.5t-161 67.5q-91 0 -133 -47.5t-42 -128.5v-148h564l-90 -298h-474v-305h631z" />
    <glyph glyph-name="currency" unicode="&#xa4;" horiz-adv-x="1487" 
d="M550 162l-161 -155l-229 220l154 149q-48 94 -48 190t49 191l-155 146l229 221l162 -154q93 40 193 40t191 -40l161 155l230 -222l-155 -146q49 -95 49 -191q0 -101 -48 -190l154 -149l-230 -220l-160 155q-90 -39 -192 -39t-194 39zM744 432q55 0 91 41.5t36 92.5
t-37 93.5t-90 42.5q-55 0 -92 -42t-37 -94t36.5 -93t92.5 -41z" />
    <glyph glyph-name="yen" unicode="&#xa5;" horiz-adv-x="1496" 
d="M899 282v-282h-300v282h-435v259h435v15h-435v259h344l-458 680h340l359 -531l357 531h340l-456 -680h320v-259h-411v-15h411v-259h-411z" />
    <glyph glyph-name="brokenbar" unicode="&#xa6;" horiz-adv-x="877" 
d="M618 1681v-844h-358v844h358zM618 506v-845h-358v845h358z" />
    <glyph glyph-name="section" unicode="&#xa7;" horiz-adv-x="1431" 
d="M750 -79q-190 0 -325.5 93t-192.5 235q-2 4 -7 18.5t-8 22.5l-7 17l271 127q-202 102 -202 302q0 127 83 214q-83 92 -83 213q0 154 119.5 257t322.5 103q141 0 254 -58t180 -155q31 -44 70 -140l6 -17l-272 -122q252 -105 252 -322q0 -124 -90 -210q90 -93 90 -218
q0 -156 -128 -258t-333 -102zM885 1057l23 -7q-16 74 -63 124.5t-124 50.5q-93 0 -93 -52q0 -39 88 -67q31 -11 90.5 -27t78.5 -22zM751 668l52 -15q60 17 60 60q0 19 -27 35q-21 12 -68 26l-104 28q-36 -23 -36 -57q0 -27 36 -46q23 -12 87 -31zM750 218q50 0 81.5 18
t31.5 49q0 18 -25 34q-28 17 -106 37q-15 4 -62 15.5t-65 16.5q-49 14 -79 26l20 -49q28 -65 79.5 -106t124.5 -41z" />
    <glyph glyph-name="dieresis" unicode="&#xa8;" horiz-adv-x="765" 
d="M176 1235q-84 0 -134.5 52.5t-50.5 120.5q0 67 51 118.5t134 51.5q81 0 131.5 -52t50.5 -118q0 -67 -49.5 -120t-132.5 -53zM606 1235q-84 0 -134.5 52.5t-50.5 120.5q0 67 51 118.5t134 51.5q81 0 131.5 -52t50.5 -118q0 -67 -49.5 -120t-132.5 -53z" />
    <glyph glyph-name="copyright" unicode="&#xa9;" horiz-adv-x="1975" 
d="M988 -23q-246 0 -442.5 131.5t-284.5 339.5q-61 141 -61 298q0 116 36 228.5t106 209t164.5 170.5t219 116t262.5 42q239 0 433 -126.5t285 -325.5q69 -150 69 -314q0 -169 -70 -318q-92 -200 -285 -325.5t-432 -125.5zM988 208q170 0 305 90t196 235q42 97 42 213
q0 138 -66.5 260t-193 199t-283.5 77q-158 0 -284.5 -76.5t-193.5 -198.5t-67 -261q0 -114 43 -213q61 -146 196 -235.5t306 -89.5zM997 305q-101 0 -185.5 37.5t-139 100t-84 141t-29.5 162.5t29.5 162.5t84 140.5t138.5 99t186 37q135 0 242 -71t144 -185l5 -14l-212 -101
l-7 21q-21 62 -64.5 100.5t-107.5 38.5q-95 0 -147 -67.5t-52 -160.5q0 -94 52 -162.5t147 -68.5q123 0 172 142l7 21l211 -105l-4 -13q-37 -114 -144 -184.5t-242 -70.5z" />
    <glyph glyph-name="ordfeminine" unicode="&#xaa;" horiz-adv-x="918" 
d="M405 657q-144 0 -234.5 77t-90.5 196q0 155 176 231l-168 84l6 12l12 28q45 98 141.5 160t221.5 62q157 0 253.5 -88t96.5 -217v-530h-270v15q-69 -30 -144 -30zM363 1195q52 13 175 38q-18 31 -69 31q-68 0 -106 -69zM414 893q53 0 87.5 32t42.5 79l-117 -26
q-68 -16 -68 -50q0 -35 55 -35z" />
    <glyph glyph-name="guillemotleft" unicode="&#xab;" horiz-adv-x="1448" 
d="M484 558l342 -413h-356l-340 413l340 413h356zM938 558l339 -413h-353l-341 413l341 413h353z" />
    <glyph glyph-name="uni00AD" unicode="&#xad;" horiz-adv-x="1240" 
d="M1049 716v-298h-859v298h859z" />
    <glyph glyph-name="registered" unicode="&#xae;" horiz-adv-x="1975" 
d="M988 -23q-246 0 -442.5 131.5t-284.5 339.5q-61 141 -61 298q0 116 36 228.5t106 209t164.5 170.5t219 116t262.5 42q239 0 433 -126.5t285 -325.5q69 -150 69 -314q0 -169 -70 -318q-92 -200 -285 -325.5t-432 -125.5zM988 208q187 0 331 108h-168l-161 285h-76v-285
h-238v860h350q147 0 236 -79.5t89 -208.5q0 -72 -31 -133.5t-94 -100.5l161 -276q144 150 144 368q0 138 -66.5 260t-193 199t-283.5 77q-158 0 -284.5 -76.5t-193.5 -198.5t-67 -261q0 -114 43 -213q62 -146 196.5 -235.5t305.5 -89.5zM1028 967h-114v-156h114
q40 0 62.5 21t22.5 56q0 36 -22.5 57.5t-62.5 21.5z" />
    <glyph glyph-name="macron" unicode="&#xaf;" horiz-adv-x="692" 
d="M653 1420v-280h-613v280h613z" />
    <glyph glyph-name="degree" unicode="&#xb0;" horiz-adv-x="1150" 
d="M575 805q-111 0 -198.5 53.5t-132 134t-44.5 167.5q0 65 26 128t73 114.5t119 83t157 31.5q84 0 156.5 -31.5t119 -83t73 -114.5t26.5 -128q0 -87 -44.5 -167.5t-132 -134t-198.5 -53.5zM573 1050q44 0 76 34t32 76t-31.5 77t-76.5 35q-44 0 -74.5 -35t-30.5 -77
t30.5 -76t74.5 -34z" />
    <glyph glyph-name="plusminus" unicode="&#xb1;" horiz-adv-x="1370" 
d="M1180 307v-307h-990v307h323v292h-323v307h323v307h347v-307h320v-307h-320v-292h320z" />
    <glyph glyph-name="acute" unicode="&#xb4;" horiz-adv-x="613" 
d="M601 1644l-252 -409h-281l217 409h316z" />
    <glyph glyph-name="uni00B5" unicode="&#xb5;" horiz-adv-x="1228" 
d="M451 -7v-349h-331v1489h331v-717q0 -65 33.5 -109.5t100.5 -44.5q91 0 172 53v818h331v-1133h-331v6q-97 -28 -187 -28q-62 0 -119 15z" />
    <glyph glyph-name="paragraph" unicode="&#xb6;" horiz-adv-x="951" 
d="M782 1502v-1679h-358v944q-94 24 -162.5 84.5t-100 132t-31.5 144.5q0 64 26 128.5t73.5 120t126 90.5t172.5 35h254z" />
    <glyph glyph-name="periodcentered" unicode="&#xb7;" horiz-adv-x="777" 
d="M568 936v-369h-358v369h358z" />
    <glyph glyph-name="cedilla" unicode="&#xb8;" horiz-adv-x="662" 
d="M343 -377q-143 0 -272 110l-31 27l125 200l20 -20q39 -42 73 -65.5t74 -23.5q32 0 32 28q0 47 -83 96q-35 22 -76 40q-13 6 -70 30l-87 36l274 82l8 -3q66 -24 97 -40q91 -45 143 -112t52 -151q0 -102 -78 -168t-201 -66z" />
    <glyph glyph-name="ordmasculine" unicode="&#xba;" horiz-adv-x="1043" 
d="M522 657q-103 0 -189 37t-140 98t-83.5 136.5t-29.5 155.5q0 79 30 154t84.5 135.5t140 97t187.5 36.5t187.5 -36.5t140 -97t84 -135.5t29.5 -154t-29.5 -154.5t-83.5 -136.5t-139.5 -98.5t-188.5 -37.5zM522 901q76 0 120 55t44 126t-44.5 126t-119.5 55t-119 -55
t-44 -126t44 -126t119 -55z" />
    <glyph glyph-name="guillemotright" unicode="&#xbb;" horiz-adv-x="1448" 
d="M866 558l-342 -413h-354l340 413l-340 413h354zM1317 558l-339 -413h-355l341 413l-341 413h355z" />
    <glyph glyph-name="questiondown" unicode="&#xbf;" horiz-adv-x="1257" 
d="M839 1517v-332h-301v332h301zM608 0q-202 0 -330 112.5t-128 279.5q0 58 15.5 109t48.5 98.5t65 82.5t83 84l69 66q37 37 61 69q37 52 47 98q5 27 5 110v16h301v-83q0 -62 -16.5 -117.5t-49 -103.5t-62 -82t-74.5 -77l-72 -68q-41 -39 -62 -65q-58 -73 -58 -137
q0 -63 40.5 -98t116.5 -35q60 0 104.5 18.5t73.5 54.5t46 73.5t33 91.5l6 22l256 -117l-3 -12q-21 -80 -64.5 -149.5t-107.5 -123.5t-152.5 -85.5t-191.5 -31.5z" />
    <glyph glyph-name="Agrave" unicode="&#xc0;" horiz-adv-x="1610" 
d="M896 2101l240 -446h-342l-281 446h383zM584 376l-139 -376h-377l581 1512h312l581 -1512h-378l-137 376h-443zM915 675l-110 296l-110 -296h220z" />
    <glyph glyph-name="Aacute" unicode="&#xc1;" horiz-adv-x="1610" 
d="M1146 2111l-279 -446h-343l240 446h382zM584 376l-139 -376h-377l581 1512h312l581 -1512h-378l-137 376h-443zM915 675l-110 296l-110 -296h220z" />
    <glyph glyph-name="Acircumflex" unicode="&#xc2;" horiz-adv-x="1610" 
d="M806 1765l-97 -126h-376l345 446h252l351 -446h-376zM584 376l-139 -376h-377l581 1512h312l581 -1512h-378l-137 376h-443zM915 675l-110 296l-110 -296h220z" />
    <glyph glyph-name="Atilde" unicode="&#xc3;" horiz-adv-x="1610" 
d="M954 1652q-88 0 -172 47l-32 18q-1 -12 -1 -34l-2 -23h-316l4 77q2 35 12.5 70.5t33 71.5t53.5 63.5t78 45t104 17.5q81 0 169 -45q5 -3 17 -10t18 -10v2q1 6 2 18t2 18l3 21h311l-5 -75q-3 -46 -19 -90t-47 -87t-86 -69t-127 -26zM584 376l-139 -376h-377l581 1512h312
l581 -1512h-378l-137 376h-443zM915 675l-110 296l-110 -296h220z" />
    <glyph glyph-name="Adieresis" unicode="&#xc4;" horiz-adv-x="1610" 
d="M590 1600q-84 0 -134.5 52.5t-50.5 120.5q0 67 51 118.5t134 51.5q81 0 131.5 -52t50.5 -118q0 -67 -49.5 -120t-132.5 -53zM1020 1600q-84 0 -134.5 52.5t-50.5 120.5q0 67 51 118.5t134 51.5q81 0 131.5 -52t50.5 -118q0 -67 -49.5 -120t-132.5 -53zM584 376l-139 -376
h-377l581 1512h312l581 -1512h-378l-137 376h-443zM915 675l-110 296l-110 -296h220z" />
    <glyph glyph-name="Aring" unicode="&#xc5;" horiz-adv-x="1610" 
d="M803 1646q-89 0 -156.5 41t-99 99t-31.5 119q0 98 78 177.5t209 79.5q67 0 123.5 -23.5t91.5 -61t54.5 -82t19.5 -90.5q0 -98 -78.5 -178.5t-210.5 -80.5zM804 1828q39 0 62 23.5t23 52.5t-23 52.5t-62 23.5t-62 -23.5t-23 -52.5q0 -28 23 -52t62 -24zM584 376l-139 -376
h-377l581 1512h312l581 -1512h-378l-137 376h-443zM915 675l-110 296l-110 -296h220z" />
    <glyph glyph-name="AE" unicode="&#xc6;" horiz-adv-x="1921" 
d="M606 376l-139 -376h-377l581 1512l1160 3v-299h-748v-284h655v-300h-655v-330h748v-299h-1108v373h-117zM723 675v15l-6 -15h6z" />
    <glyph glyph-name="Ccedilla" unicode="&#xc7;" horiz-adv-x="1681" 
d="M888 -430q-143 0 -272 110l-31 27l125 200l20 -20q39 -42 73 -65.5t74 -23.5q32 0 32 28q0 47 -83 96q-35 22 -76 40q-13 6 -70 30l-41 17q-165 47 -287 154t-188 248q-74 157 -74 344t74 345q42 91 108 167.5t154.5 137t203.5 94.5t245 34q188 0 342 -72t260 -196
q87 -99 106 -161l5 -16l-306 -157l-13 28q-34 73 -66 116q-57 72 -142 114.5t-186 42.5q-145 0 -246 -77.5t-146 -197.5q-34 -92 -34 -202q0 -109 34 -201q45 -120 145.5 -197.5t246.5 -77.5q196 0 325 154q37 43 72 112l14 27l301 -162l-7 -16q-5 -12 -15 -29
q-41 -70 -88 -124q-161 -183 -404 -241q94 -84 94 -196q0 -102 -78 -168t-201 -66z" />
    <glyph glyph-name="Egrave" unicode="&#xc8;" horiz-adv-x="1257" 
d="M677 2093l238 -446h-341l-278 446h381zM1182 299v-299h-1108v1512h1108v-299h-749v-284h656v-300h-656v-330h749z" />
    <glyph glyph-name="Eacute" unicode="&#xc9;" horiz-adv-x="1257" 
d="M1052 2090l-280 -446h-340l236 446h384zM1182 299v-299h-1108v1512h1108v-299h-749v-284h656v-300h-656v-330h749z" />
    <glyph glyph-name="Ecircumflex" unicode="&#xca;" horiz-adv-x="1257" 
d="M634 1772l-98 -126h-375l345 445h252l351 -445h-375zM1182 299v-299h-1108v1512h1108v-299h-749v-284h656v-300h-656v-330h749z" />
    <glyph glyph-name="Edieresis" unicode="&#xcb;" horiz-adv-x="1257" 
d="M432 1587q-84 0 -134.5 52.5t-50.5 120.5q0 67 51 118.5t134 51.5q81 0 131.5 -52t50.5 -118q0 -67 -49.5 -120t-132.5 -53zM862 1587q-84 0 -134.5 52.5t-50.5 120.5q0 67 51 118.5t134 51.5q81 0 131.5 -52t50.5 -118q0 -67 -49.5 -120t-132.5 -53zM1182 299v-299
h-1108v1512h1108v-299h-749v-284h656v-300h-656v-330h749z" />
    <glyph glyph-name="Igrave" unicode="&#xcc;" horiz-adv-x="602" 
d="M382 2102l240 -446h-341l-282 446h383zM485 1512v-1512h-358v1512h358z" />
    <glyph glyph-name="Iacute" unicode="&#xcd;" horiz-adv-x="602" 
d="M623 2098l-279 -446h-342l240 446h381zM476 1512v-1512h-358v1512h358z" />
    <glyph glyph-name="Icircumflex" unicode="&#xce;" horiz-adv-x="626" 
d="M308 1774l-99 -127h-374l345 447h252l351 -447h-375zM492 1512v-1512h-359v1512h359z" />
    <glyph glyph-name="Idieresis" unicode="&#xcf;" horiz-adv-x="481" 
d="M34 1643q-84 0 -134.5 52.5t-50.5 120.5q0 67 51 118.5t134 51.5q81 0 131.5 -52t50.5 -118q0 -67 -49.5 -120t-132.5 -53zM464 1643q-84 0 -134.5 52.5t-50.5 120.5q0 67 51 118.5t134 51.5q81 0 131.5 -52t50.5 -118q0 -67 -49.5 -120t-132.5 -53zM420 1512v-1512h-359
v1512h359z" />
    <glyph glyph-name="Ntilde" unicode="&#xd1;" horiz-adv-x="1409" 
d="M811 1651q-65 0 -123 25q-17 7 -81 41q-1 -8 -2 -21t-1 -15l-1 -22h-313l4 77q2 35 12.5 70.5t33 71.5t53.5 63.5t78 45t104 17.5q82 0 169 -46l33 -18q1 12 1 35v23h317l-4 -75q-3 -46 -19 -90.5t-47 -87t-86.5 -68.5t-127.5 -26zM433 843v-843h-359v1512h295l606 -838
v838h358v-1512h-295z" />
    <glyph glyph-name="Ograve" unicode="&#xd2;" horiz-adv-x="1720" 
d="M936 2105l240 -446h-343l-278 446h381zM859 -23q-134 0 -252.5 36.5t-207.5 100t-154.5 144t-105.5 174.5q-65 147 -65 323t65 324q40 94 105.5 174.5t154.5 144t207.5 99.5t252.5 36q137 0 258.5 -38t211.5 -104.5t155.5 -150t104.5 -180.5q57 -145 57 -305t-57 -305
q-38 -97 -103.5 -180.5t-156 -150t-212 -104.5t-258.5 -38zM859 279q148 0 247 76.5t146 198.5q34 92 34 201q0 110 -34 202q-46 121 -146.5 198t-246.5 77q-142 0 -240 -73t-146 -190q-40 -95 -40 -214q0 -114 40 -213q48 -117 145.5 -190t240.5 -73z" />
    <glyph glyph-name="Oacute" unicode="&#xd3;" horiz-adv-x="1720" 
d="M1204 2107l-279 -446h-343l241 446h381zM859 -23q-134 0 -252.5 36.5t-207.5 100t-154.5 144t-105.5 174.5q-65 147 -65 323t65 324q40 94 105.5 174.5t154.5 144t207.5 99.5t252.5 36q137 0 258.5 -38t211.5 -104.5t155.5 -150t104.5 -180.5q57 -145 57 -305t-57 -305
q-38 -97 -103.5 -180.5t-156 -150t-212 -104.5t-258.5 -38zM859 279q148 0 247 76.5t146 198.5q34 92 34 201q0 110 -34 202q-46 121 -146.5 198t-246.5 77q-142 0 -240 -73t-146 -190q-40 -95 -40 -214q0 -114 40 -213q48 -117 145.5 -190t240.5 -73z" />
    <glyph glyph-name="Ocircumflex" unicode="&#xd4;" horiz-adv-x="1720" 
d="M859 1793l-98 -127h-374l345 446h252l350 -446h-374zM859 -23q-134 0 -252.5 36.5t-207.5 100t-154.5 144t-105.5 174.5q-65 147 -65 323t65 324q40 94 105.5 174.5t154.5 144t207.5 99.5t252.5 36q137 0 258.5 -38t211.5 -104.5t155.5 -150t104.5 -180.5
q57 -145 57 -305t-57 -305q-38 -97 -103.5 -180.5t-156 -150t-212 -104.5t-258.5 -38zM859 279q148 0 247 76.5t146 198.5q34 92 34 201q0 110 -34 202q-46 121 -146.5 198t-246.5 77q-142 0 -240 -73t-146 -190q-40 -95 -40 -214q0 -114 40 -213q48 -117 145.5 -190
t240.5 -73z" />
    <glyph glyph-name="Otilde" unicode="&#xd5;" horiz-adv-x="1720" 
d="M979 1650q-67 0 -125 25q-12 5 -79 41q-2 -24 -4 -36l-3 -21h-312l4 76q3 45 20 89.5t48.5 86t87 67.5t125.5 26q84 0 171 -47l32 -17q2 25 1 34v24h318l-4 -75q-3 -45 -19.5 -89.5t-47.5 -87.5t-86.5 -69.5t-126.5 -26.5zM859 -23q-134 0 -252.5 36.5t-207.5 100
t-154.5 144t-105.5 174.5q-65 147 -65 323t65 324q40 94 105.5 174.5t154.5 144t207.5 99.5t252.5 36q137 0 258.5 -38t211.5 -104.5t155.5 -150t104.5 -180.5q57 -145 57 -305t-57 -305q-38 -97 -103.5 -180.5t-156 -150t-212 -104.5t-258.5 -38zM859 279q148 0 247 76.5
t146 198.5q34 92 34 201q0 110 -34 202q-46 121 -146.5 198t-246.5 77q-142 0 -240 -73t-146 -190q-40 -95 -40 -214q0 -114 40 -213q48 -117 145.5 -190t240.5 -73z" />
    <glyph glyph-name="Odieresis" unicode="&#xd6;" horiz-adv-x="1720" 
d="M635 1600q-84 0 -134.5 52.5t-50.5 120.5q0 67 51 118.5t134 51.5q81 0 131.5 -52t50.5 -118q0 -67 -49.5 -120t-132.5 -53zM1065 1600q-84 0 -134.5 52.5t-50.5 120.5q0 67 51 118.5t134 51.5q81 0 131.5 -52t50.5 -118q0 -67 -49.5 -120t-132.5 -53zM859 -23
q-134 0 -252.5 36.5t-207.5 100t-154.5 144t-105.5 174.5q-65 147 -65 323t65 324q40 94 105.5 174.5t154.5 144t207.5 99.5t252.5 36q137 0 258.5 -38t211.5 -104.5t155.5 -150t104.5 -180.5q57 -145 57 -305t-57 -305q-38 -97 -103.5 -180.5t-156 -150t-212 -104.5
t-258.5 -38zM859 279q148 0 247 76.5t146 198.5q34 92 34 201q0 110 -34 202q-46 121 -146.5 198t-246.5 77q-142 0 -240 -73t-146 -190q-40 -95 -40 -214q0 -114 40 -213q48 -117 145.5 -190t240.5 -73z" />
    <glyph glyph-name="multiply" unicode="&#xd7;" horiz-adv-x="1390" 
d="M963 270l-268 256l-268 -256l-237 226l267 257l-265 255l237 227l266 -256l266 256l237 -227l-266 -255l268 -257z" />
    <glyph glyph-name="Oslash" unicode="&#xd8;" horiz-adv-x="1751" 
d="M705 -6l-43 -81h-386l111 222q-152 113 -224.5 278t-72.5 342q0 183 71 338q88 192 273 316t441 124q81 0 167 -16l28 61h386l-94 -201q154 -113 227 -278t73 -344q0 -182 -71 -338q-87 -192 -273.5 -316t-442.5 -124q-85 0 -170 17zM537 449l371 782q-11 1 -33 1
q-141 0 -240.5 -73t-145.5 -188q-40 -100 -40 -216q0 -181 88 -306zM875 279q143 0 241.5 72.5t146.5 188.5q39 96 39 215q0 183 -89 308l-371 -783q11 -1 33 -1z" />
    <glyph glyph-name="Ugrave" unicode="&#xd9;" horiz-adv-x="1352" 
d="M655 2092l240 -446h-344l-278 446h382zM676 -23q-148 0 -265 43.5t-189.5 118t-110 168t-37.5 198.5v1007h361v-1007q0 -93 65 -159.5t176 -66.5q109 0 175 67.5t66 158.5v1007h360v-1007q0 -104 -38 -198t-110 -168t-189.5 -118t-263.5 -44z" />
    <glyph glyph-name="Uacute" unicode="&#xda;" horiz-adv-x="1352" 
d="M1024 2110l-281 -446h-341l240 446h382zM676 -23q-148 0 -265 43.5t-189.5 118t-110 168t-37.5 198.5v1007h361v-1007q0 -93 65 -159.5t176 -66.5q109 0 175 67.5t66 158.5v1007h360v-1007q0 -104 -38 -198t-110 -168t-189.5 -118t-263.5 -44z" />
    <glyph glyph-name="Ucircumflex" unicode="&#xdb;" horiz-adv-x="1352" 
d="M662 1778l-98 -127h-375l346 446h252l350 -446h-375zM676 -23q-148 0 -265 43.5t-189.5 118t-110 168t-37.5 198.5v1007h361v-1007q0 -93 65 -159.5t176 -66.5q109 0 175 67.5t66 158.5v1007h360v-1007q0 -104 -38 -198t-110 -168t-189.5 -118t-263.5 -44z" />
    <glyph glyph-name="Udieresis" unicode="&#xdc;" horiz-adv-x="1352" 
d="M468 1587q-84 0 -134.5 52.5t-50.5 120.5q0 67 51 118.5t134 51.5q81 0 131.5 -52t50.5 -118q0 -67 -49.5 -120t-132.5 -53zM898 1587q-84 0 -134.5 52.5t-50.5 120.5q0 67 51 118.5t134 51.5q81 0 131.5 -52t50.5 -118q0 -67 -49.5 -120t-132.5 -53zM676 -23
q-148 0 -265 43.5t-189.5 118t-110 168t-37.5 198.5v1007h361v-1007q0 -93 65 -159.5t176 -66.5q109 0 175 67.5t66 158.5v1007h360v-1007q0 -104 -38 -198t-110 -168t-189.5 -118t-263.5 -44z" />
    <glyph glyph-name="Yacute" unicode="&#xdd;" horiz-adv-x="1610" 
d="M1161 2086l-280 -446h-343l241 446h382zM984 690v-690h-358v589l1 74v25q-20 55 -74 123q-8 10 -30.5 37t-38 47t-29.5 41l-394 576h405l340 -495l337 495h404l-392 -576q-15 -22 -97 -125q-53 -68 -74 -121z" />
    <glyph glyph-name="germandbls" unicode="&#xdf;" horiz-adv-x="1401" 
d="M455 1056v-1056h-365v1064q0 83 32 160.5t92 140t156 100t214 37.5h177q95 0 176.5 -24.5t139 -67t98.5 -98.5t60.5 -119t19.5 -129q0 -159 -104 -274q80 -66 120.5 -154.5t40.5 -183.5q0 -199 -145 -325.5t-407 -126.5h-274l-1 298h275q94 0 140.5 40t46.5 114
q0 77 -48 124.5t-139 47.5h-277v299h265q70 0 106.5 36.5t36.5 96.5q0 61 -38 104t-105 43h-151q-67 0 -104.5 -43t-37.5 -104z" />
    <glyph glyph-name="agrave" unicode="&#xe0;" horiz-adv-x="1150" 
d="M661 1744l236 -445h-340l-277 445h381zM523 -22q-104 0 -190 30t-142 81t-87 118t-31 142q0 114 75 197t205 131l113 32l263 58q-31 68 -143 68q-68 0 -99.5 -19.5t-31.5 -65.5q0 -4 0.5 -11.5t0.5 -11.5h-347v22q0 141 85 238.5t261 131.5q65 14 130 14
q227 0 358.5 -117t131.5 -290v-726h-339v25q-102 -47 -213 -47zM523 276q94 0 149.5 60t62.5 144l-182 -40q-56 -12 -94 -36.5t-38 -55.5q0 -72 102 -72z" />
    <glyph glyph-name="aacute" unicode="&#xe1;" horiz-adv-x="1150" 
d="M910 1706l-278 -445h-341l239 445h380zM523 -22q-104 0 -190 30t-142 81t-87 118t-31 142q0 114 75 197t205 131l113 32l263 58q-31 68 -143 68q-68 0 -99.5 -19.5t-31.5 -65.5q0 -4 0.5 -11.5t0.5 -11.5h-347v22q0 141 85 238.5t261 131.5q65 14 130 14
q227 0 358.5 -117t131.5 -290v-726h-339v25q-102 -47 -213 -47zM523 276q94 0 149.5 60t62.5 144l-182 -40q-56 -12 -94 -36.5t-38 -55.5q0 -72 102 -72z" />
    <glyph glyph-name="acircumflex" unicode="&#xe2;" horiz-adv-x="1150" 
d="M574 1413l-97 -126h-372l343 446h251l348 -446h-374zM523 -22q-104 0 -190 30t-142 81t-87 118t-31 142q0 114 75 197t205 131l113 32l263 58q-31 68 -143 68q-68 0 -99.5 -19.5t-31.5 -65.5q0 -4 0.5 -11.5t0.5 -11.5h-347v22q0 141 85 238.5t261 131.5q65 14 130 14
q227 0 358.5 -117t131.5 -290v-726h-339v25q-102 -47 -213 -47zM523 276q94 0 149.5 60t62.5 144l-182 -40q-56 -12 -94 -36.5t-38 -55.5q0 -72 102 -72z" />
    <glyph glyph-name="atilde" unicode="&#xe3;" horiz-adv-x="1150" 
d="M717 1284q-80 0 -169 48l-32 18q-2 -24 -4 -35l-2 -21h-310l4 76q3 45 19.5 89.5t48 86t86.5 67t125 25.5q79 0 169 -47l32 -18v58h315l-1 -23l-2 -52q-2 -45 -18.5 -90t-48 -87t-87 -68.5t-125.5 -26.5zM523 -22q-104 0 -190 30t-142 81t-87 118t-31 142q0 114 75 197
t205 131l113 32l263 58q-31 68 -143 68q-68 0 -99.5 -19.5t-31.5 -65.5q0 -4 0.5 -11.5t0.5 -11.5h-347v22q0 141 85 238.5t261 131.5q65 14 130 14q227 0 358.5 -117t131.5 -290v-726h-339v25q-102 -47 -213 -47zM523 276q94 0 149.5 60t62.5 144l-182 -40
q-56 -12 -94 -36.5t-38 -55.5q0 -72 102 -72z" />
    <glyph glyph-name="adieresis" unicode="&#xe4;" horiz-adv-x="1150" 
d="M360 1242q-84 0 -134.5 52.5t-50.5 120.5q0 67 51 118.5t134 51.5q81 0 131.5 -52t50.5 -118q0 -67 -49.5 -120t-132.5 -53zM790 1242q-84 0 -134.5 52.5t-50.5 120.5q0 67 51 118.5t134 51.5q81 0 131.5 -52t50.5 -118q0 -67 -49.5 -120t-132.5 -53zM523 -22
q-104 0 -190 30t-142 81t-87 118t-31 142q0 114 75 197t205 131l113 32l263 58q-31 68 -143 68q-68 0 -99.5 -19.5t-31.5 -65.5q0 -4 0.5 -11.5t0.5 -11.5h-347v22q0 141 85 238.5t261 131.5q65 14 130 14q227 0 358.5 -117t131.5 -290v-726h-339v25q-102 -47 -213 -47z
M523 276q94 0 149.5 60t62.5 144l-182 -40q-56 -12 -94 -36.5t-38 -55.5q0 -72 102 -72z" />
    <glyph glyph-name="aring" unicode="&#xe5;" horiz-adv-x="1150" 
d="M586 1269q-89 0 -156.5 41t-99 99t-31.5 119q0 98 78 177.5t209 79.5q67 0 123.5 -23.5t91.5 -61t54.5 -82t19.5 -90.5q0 -98 -78.5 -178.5t-210.5 -80.5zM587 1451q39 0 62 23.5t23 52.5t-23 52.5t-62 23.5t-62 -23.5t-23 -52.5q0 -28 23 -52t62 -24zM523 -22
q-104 0 -190 30t-142 81t-87 118t-31 142q0 114 75 197t205 131l113 32l263 58q-31 68 -143 68q-68 0 -99.5 -19.5t-31.5 -65.5q0 -4 0.5 -11.5t0.5 -11.5h-347v22q0 141 85 238.5t261 131.5q65 14 130 14q227 0 358.5 -117t131.5 -290v-726h-339v25q-102 -47 -213 -47z
M523 276q94 0 149.5 60t62.5 144l-182 -40q-56 -12 -94 -36.5t-38 -55.5q0 -72 102 -72z" />
    <glyph glyph-name="ae" unicode="&#xe6;" horiz-adv-x="2046" 
d="M1345 -23q-246 0 -413 154q-119 -94 -199 -123.5t-195 -29.5q-104 0 -190 30t-142 81t-87 118t-31 142q0 114 75 197t205 131l113 32l263 58q-31 68 -143 68q-68 0 -99.5 -19.5t-31.5 -65.5q0 -4 0.5 -11.5t0.5 -11.5h-347v22q0 141 85 238.5t261 131.5q65 14 130 14
q229 0 364 -122v2q4 4 10 4q156 120 371 120q186 0 325.5 -88t207.5 -225q60 -123 60 -268q0 -18 -0.5 -52t-0.5 -52v-23h-807q28 -67 82.5 -109t132.5 -42q128 0 205 125q4 6 10 18l322 -131q-63 -92 -90 -123q-79 -88 -194.5 -139t-252.5 -51zM1145 720h400
q-68 117 -200 117q-131 0 -200 -117zM538 276q94 0 149.5 60t62.5 144l-182 -40q-56 -12 -94 -36.5t-38 -55.5q0 -72 102 -72z" />
    <glyph glyph-name="ccedilla" unicode="&#xe7;" horiz-adv-x="1290" 
d="M682 -407q-147 0 -272 110l-31 27l125 200l20 -20q30 -30 46 -44t45 -29.5t56 -15.5q32 0 32 28q0 47 -83 96q-35 22 -76 40q-4 2 -13.5 6t-14.5 6q-136 35 -234 122.5t-146 202.5q-46 109 -46 234q0 128 46 235q64 151 205 248.5t341 97.5q142 0 262.5 -55t197.5 -149
q13 -16 26 -34t27.5 -40.5t23.5 -35.5l12 -17l-301 -175l-15 28q-46 86 -97 132t-136 46q-61 0 -109 -26t-75 -68t-41 -89.5t-14 -97.5t14 -97t41.5 -88.5t75 -67t108.5 -25.5q73 0 126.5 38t86.5 101q10 19 19 38l14 29l303 -176l-12 -18q-59 -87 -77 -109
q-102 -121 -259 -173q78 -78 78 -181q0 -102 -78 -168t-201 -66z" />
    <glyph glyph-name="egrave" unicode="&#xe8;" horiz-adv-x="1333" 
d="M754 1752l239 -445h-342l-277 445h380zM682 -23q-187 0 -325.5 87.5t-206.5 225.5q-60 121 -60 266t60 268q68 137 207 225t325 88t325.5 -88t207.5 -225q60 -123 60 -268q0 -18 -0.5 -52t-0.5 -52v-23h-807q28 -67 82.5 -109t132.5 -42q128 0 205 125q4 6 10 18
l322 -131q-63 -92 -90 -123q-79 -88 -194.5 -139t-252.5 -51zM482 720h400q-68 117 -200 117q-131 0 -200 -117z" />
    <glyph glyph-name="eacute" unicode="&#xe9;" horiz-adv-x="1333" 
d="M1004 1729l-279 -445h-340l239 445h380zM661 -23q-187 0 -325.5 87.5t-206.5 225.5q-60 121 -60 266t60 268q68 137 207 225t325 88t325.5 -88t207.5 -225q60 -123 60 -268q0 -18 -0.5 -52t-0.5 -52v-23h-807q28 -67 82.5 -109t132.5 -42q128 0 205 125q4 6 10 18
l322 -131q-63 -92 -90 -123q-79 -88 -194.5 -139t-252.5 -51zM461 720h400q-68 117 -200 117q-131 0 -200 -117z" />
    <glyph glyph-name="ecircumflex" unicode="&#xea;" horiz-adv-x="1333" 
d="M662 1426l-97 -126h-373l344 445h251l348 -445h-374zM661 -23q-187 0 -325.5 87.5t-206.5 225.5q-60 121 -60 266t60 268q68 137 207 225t325 88t325.5 -88t207.5 -225q60 -123 60 -268q0 -18 -0.5 -52t-0.5 -52v-23h-807q28 -67 82.5 -109t132.5 -42q128 0 205 125
q4 6 10 18l322 -131q-63 -92 -90 -123q-79 -88 -194.5 -139t-252.5 -51zM461 720h400q-68 117 -200 117q-131 0 -200 -117z" />
    <glyph glyph-name="edieresis" unicode="&#xeb;" horiz-adv-x="1333" 
d="M453 1236q-84 0 -134.5 52.5t-50.5 120.5q0 67 51 118.5t134 51.5q81 0 131.5 -52t50.5 -118q0 -67 -49.5 -120t-132.5 -53zM883 1236q-84 0 -134.5 52.5t-50.5 120.5q0 67 51 118.5t134 51.5q81 0 131.5 -52t50.5 -118q0 -67 -49.5 -120t-132.5 -53zM661 -23
q-187 0 -325.5 87.5t-206.5 225.5q-60 121 -60 266t60 268q68 137 207 225t325 88t325.5 -88t207.5 -225q60 -123 60 -268q0 -18 -0.5 -52t-0.5 -52v-23h-807q28 -67 82.5 -109t132.5 -42q128 0 205 125q4 6 10 18l322 -131q-63 -92 -90 -123q-79 -88 -194.5 -139
t-252.5 -51zM461 720h400q-68 117 -200 117q-131 0 -200 -117z" />
    <glyph glyph-name="igrave" unicode="&#xec;" horiz-adv-x="584" 
d="M370 1735l238 -445h-339l-280 445h381zM467 1111v-1111h-338v1111h338z" />
    <glyph glyph-name="iacute" unicode="&#xed;" horiz-adv-x="584" 
d="M610 1729l-278 -445h-341l239 445h380zM457 1111v-1111h-339v1111h339z" />
    <glyph glyph-name="icircumflex" unicode="&#xee;" horiz-adv-x="614" 
d="M310 1421l-96 -125h-374l344 445h250l349 -445h-374zM477 1111v-1111h-339v1111h339z" />
    <glyph glyph-name="idieresis" unicode="&#xef;" horiz-adv-x="468" 
d="M10 1222q-84 0 -134.5 52.5t-50.5 120.5q0 67 51 118.5t134 51.5q81 0 131.5 -52t50.5 -118q0 -67 -49.5 -120t-132.5 -53zM440 1222q-84 0 -134.5 52.5t-50.5 120.5q0 67 51 118.5t134 51.5q81 0 131.5 -52t50.5 -118q0 -67 -49.5 -120t-132.5 -53zM404 1111v-1111h-338
v1109q85 0 338 2z" />
    <glyph glyph-name="ntilde" unicode="&#xf1;" horiz-adv-x="1138" 
d="M710 1282q-80 0 -169 48l-32 18l-3 -35l-3 -21h-310l4 76q3 45 19.5 89t48 85.5t86.5 67.5t125 26q79 0 169 -47l31 -17q1 11 1 34v23h317l-5 -75q-2 -36 -12 -71.5t-31.5 -72.5t-52 -65t-78 -45.5t-105.5 -17.5zM412 659v-659h-338v1111h338q72 22 155 22q116 0 212 -36
t157 -96.5t94 -136.5t33 -158v-706h-340v659q0 75 -38 125.5t-116 50.5q-79 0 -118 -51t-39 -125z" />
    <glyph glyph-name="ograve" unicode="&#xf2;" horiz-adv-x="1333" 
d="M715 1732l239 -445h-341l-280 445h382zM666 -23q-198 0 -338.5 96t-205.5 245q-48 109 -48 238q0 80 21 159.5t68 156t114.5 135t168 94.5t220.5 36q203 0 346 -101t204 -254q43 -110 43 -226q0 -126 -48 -238q-65 -148 -206 -244.5t-339 -96.5zM666 278q61 0 108.5 25.5
t75 67t41.5 89t14 96.5q0 50 -14 97.5t-41 89.5t-75 68t-109 26t-109 -26t-75 -68t-41 -89.5t-14 -97.5t14 -97t41.5 -88.5t75 -67t108.5 -25.5z" />
    <glyph glyph-name="oacute" unicode="&#xf3;" horiz-adv-x="1333" 
d="M1027 1719l-279 -445h-340l239 445h380zM666 -23q-198 0 -338.5 96t-205.5 245q-48 109 -48 238q0 80 21 159.5t68 156t114.5 135t168 94.5t220.5 36q203 0 346 -101t204 -254q43 -110 43 -226q0 -126 -48 -238q-65 -148 -206 -244.5t-339 -96.5zM666 278
q61 0 108.5 25.5t75 67t41.5 89t14 96.5q0 50 -14 97.5t-41 89.5t-75 68t-109 26t-109 -26t-75 -68t-41 -89.5t-14 -97.5t14 -97t41.5 -88.5t75 -67t108.5 -25.5z" />
    <glyph glyph-name="ocircumflex" unicode="&#xf4;" horiz-adv-x="1333" 
d="M644 1422l-95 -126h-374l343 445h251l348 -445h-374zM666 -23q-198 0 -338.5 96t-205.5 245q-48 109 -48 238q0 80 21 159.5t68 156t114.5 135t168 94.5t220.5 36q203 0 346 -101t204 -254q43 -110 43 -226q0 -126 -48 -238q-65 -148 -206 -244.5t-339 -96.5zM666 278
q61 0 108.5 25.5t75 67t41.5 89t14 96.5q0 50 -14 97.5t-41 89.5t-75 68t-109 26t-109 -26t-75 -68t-41 -89.5t-14 -97.5t14 -97t41.5 -88.5t75 -67t108.5 -25.5z" />
    <glyph glyph-name="otilde" unicode="&#xf5;" horiz-adv-x="1333" 
d="M765 1280q-84 0 -171 49l-29 16q0 -6 -0.5 -17t-1.5 -16l-2 -22h-316l5 77q2 35 12.5 70t32.5 71t52.5 63.5t78 45t103.5 17.5q84 0 169 -46l33 -18q3 20 3 35l2 22h311l-4 -75q-3 -45 -19 -90t-47 -87t-86 -68.5t-126 -26.5zM666 -23q-198 0 -338.5 96t-205.5 245
q-48 109 -48 238q0 80 21 159.5t68 156t114.5 135t168 94.5t220.5 36q203 0 346 -101t204 -254q43 -110 43 -226q0 -126 -48 -238q-65 -148 -206 -244.5t-339 -96.5zM666 278q61 0 108.5 25.5t75 67t41.5 89t14 96.5q0 50 -14 97.5t-41 89.5t-75 68t-109 26t-109 -26
t-75 -68t-41 -89.5t-14 -97.5t14 -97t41.5 -88.5t75 -67t108.5 -25.5z" />
    <glyph glyph-name="odieresis" unicode="&#xf6;" horiz-adv-x="1333" 
d="M465 1231q-84 0 -134.5 52.5t-50.5 120.5q0 67 51 118.5t134 51.5q81 0 131.5 -52t50.5 -118q0 -67 -49.5 -120t-132.5 -53zM895 1231q-84 0 -134.5 52.5t-50.5 120.5q0 67 51 118.5t134 51.5q81 0 131.5 -52t50.5 -118q0 -67 -49.5 -120t-132.5 -53zM682 -23
q-198 0 -338.5 96t-205.5 245q-48 109 -48 238q0 80 21 159.5t68 156t114.5 135t168 94.5t220.5 36q203 0 346 -101t204 -254q43 -110 43 -226q0 -126 -48 -238q-65 -148 -206 -244.5t-339 -96.5zM682 278q61 0 108.5 25.5t75 67t41.5 89t14 96.5q0 50 -14 97.5t-41 89.5
t-75 68t-109 26t-109 -26t-75 -68t-41 -89.5t-14 -97.5t14 -97t41.5 -88.5t75 -67t108.5 -25.5z" />
    <glyph glyph-name="divide" unicode="&#xf7;" horiz-adv-x="1465" 
d="M912 1317v-370h-359v370h359zM1264 906v-307h-1064v307h1064zM912 559v-370h-359v370h359z" />
    <glyph glyph-name="oslash" unicode="&#xf8;" horiz-adv-x="1333" 
d="M641 -22l-99 -209h-384l155 326q-114 84 -168.5 206.5t-54.5 254.5q0 80 21 159.5t68 156t114.5 135t168 94.5t220.5 36q55 0 120 -10l69 144h383l-143 -303q83 -84 123.5 -191.5t40.5 -220.5q0 -126 -48 -238q-65 -148 -206.5 -244.5t-338.5 -96.5q-27 0 -41 1zM468 423
l196 413q-109 -8 -165 -91.5t-56 -188.5q0 -70 25 -133zM921 556v13l-124 -263q62 36 93 106t31 144z" />
    <glyph glyph-name="ugrave" unicode="&#xf9;" horiz-adv-x="1138" 
d="M581 1725l239 -445h-340l-280 445h381zM569 -20q-93 0 -173.5 23.5t-139 64t-100 94.5t-62 116t-20.5 128v705h338v-659q0 -74 38.5 -123.5t116.5 -49.5q79 0 117.5 49.5t38.5 123.5v659h340v-1111h-340q-69 -20 -154 -20z" />
    <glyph glyph-name="uacute" unicode="&#xfa;" horiz-adv-x="1138" 
d="M902 1712l-278 -445h-341l239 445h380zM569 -20q-93 0 -173.5 23.5t-139 64t-100 94.5t-62 116t-20.5 128v705h338v-659q0 -74 38.5 -123.5t116.5 -49.5q79 0 117.5 49.5t38.5 123.5v659h340v-1111h-340q-69 -20 -154 -20z" />
    <glyph glyph-name="ucircumflex" unicode="&#xfb;" horiz-adv-x="1138" 
d="M563 1392l-97 -126h-373l343 445h251l348 -445h-373zM569 -20q-93 0 -173.5 23.5t-139 64t-100 94.5t-62 116t-20.5 128v705h338v-659q0 -74 38.5 -123.5t116.5 -49.5q79 0 117.5 49.5t38.5 123.5v659h340v-1111h-340q-69 -20 -154 -20z" />
    <glyph glyph-name="udieresis" unicode="&#xfc;" horiz-adv-x="1138" 
d="M374 1230q-84 0 -134.5 52.5t-50.5 120.5q0 67 51 118.5t134 51.5q81 0 131.5 -52t50.5 -118q0 -67 -49.5 -120t-132.5 -53zM804 1230q-84 0 -134.5 52.5t-50.5 120.5q0 67 51 118.5t134 51.5q81 0 131.5 -52t50.5 -118q0 -67 -49.5 -120t-132.5 -53zM569 -20
q-93 0 -173.5 23.5t-139 64t-100 94.5t-62 116t-20.5 128v705h338v-659q0 -74 38.5 -123.5t116.5 -49.5q79 0 117.5 49.5t38.5 123.5v659h340v-1111h-340q-69 -20 -154 -20z" />
    <glyph glyph-name="yacute" unicode="&#xfd;" horiz-adv-x="1377" 
d="M1092 1717l-279 -445h-341l239 445h381zM1308 1111l-645 -1503h-367l201 488l-431 1015h376l246 -580l244 580h376z" />
    <glyph glyph-name="ydieresis" unicode="&#xff;" horiz-adv-x="1377" 
d="M484 1235q-84 0 -134.5 52.5t-50.5 120.5q0 67 51 118.5t134 51.5q81 0 131.5 -52t50.5 -118q0 -67 -49.5 -120t-132.5 -53zM914 1235q-84 0 -134.5 52.5t-50.5 120.5q0 67 51 118.5t134 51.5q81 0 131.5 -52t50.5 -118q0 -67 -49.5 -120t-132.5 -53zM1308 1111
l-645 -1503h-367l201 488l-431 1015h376l246 -580l244 580h376z" />
    <glyph glyph-name="Amacron" unicode="&#x100;" horiz-adv-x="1610" 
d="M1119 1940v-280h-617v280h617zM584 376l-139 -376h-377l581 1512h312l581 -1512h-378l-137 376h-443zM915 675l-110 296l-110 -296h220z" />
    <glyph glyph-name="amacron" unicode="&#x101;" horiz-adv-x="1150" 
d="M883 1543v-280h-613v280h613zM523 -22q-104 0 -190 30t-142 81t-87 118t-31 142q0 114 75 197t205 131l113 32l263 58q-31 68 -143 68q-68 0 -99.5 -19.5t-31.5 -65.5q0 -4 0.5 -11.5t0.5 -11.5h-347v22q0 141 85 238.5t261 131.5q65 14 130 14q227 0 358.5 -117
t131.5 -290v-726h-339v25q-102 -47 -213 -47zM523 276q94 0 149.5 60t62.5 144l-182 -40q-56 -12 -94 -36.5t-38 -55.5q0 -72 102 -72z" />
    <glyph glyph-name="Abreve" unicode="&#x102;" horiz-adv-x="1610" 
d="M804 1666q-86 0 -157 33t-114 84.5t-66 110.5t-23 116v74h311v-74q0 -26 16 -52q15 -25 33 -25q20 0 37 25q18 26 18 52v74h309v-74q0 -58 -23.5 -117t-67 -110.5t-115 -84t-158.5 -32.5zM584 376l-139 -376h-377l581 1512h312l581 -1512h-378l-137 376h-443zM915 675
l-110 296l-110 -296h220z" />
    <glyph glyph-name="abreve" unicode="&#x103;" horiz-adv-x="1150" 
d="M599 1252q-86 0 -157.5 33t-114.5 84.5t-66 110.5t-23 116v72h313l-1 -23q-2 -26 -2 -39q0 -30 16 -59q15 -28 35 -28q17 0 33 25q17 26 17 52v72h310v-72q0 -57 -23 -116t-66 -111t-114 -84.5t-157 -32.5zM523 -22q-104 0 -190 30t-142 81t-87 118t-31 142q0 114 75 197
t205 131l113 32l263 58q-31 68 -143 68q-68 0 -99.5 -19.5t-31.5 -65.5q0 -4 0.5 -11.5t0.5 -11.5h-347v22q0 141 85 238.5t261 131.5q65 14 130 14q227 0 358.5 -117t131.5 -290v-726h-339v25q-102 -47 -213 -47zM523 276q94 0 149.5 60t62.5 144l-182 -40
q-56 -12 -94 -36.5t-38 -55.5q0 -72 102 -72z" />
    <glyph glyph-name="Aogonek" unicode="&#x104;" horiz-adv-x="1593" 
d="M1283 -390q-140 0 -223 73t-83 178q0 145 150 242l-100 273h-443l-139 -376h-377l581 1512h312l570 -1483l-27 -7q-12 -3 -26 -8l144 -255l-13 -11q-16 -12 -23 -18q-7 -5 -21.5 -16.5t-22.5 -17.5q-118 -86 -259 -86zM915 675l-110 296l-110 -296h220zM1291 -116l1 -5h2
q44 0 90 46q34 34 49 51l28 32q-64 -24 -117 -60.5t-53 -63.5z" />
    <glyph glyph-name="aogonek" unicode="&#x105;" horiz-adv-x="1166" 
d="M806 -454q-123 0 -201 66t-78 168q0 121 112 208q-53 -10 -99 -10q-104 0 -190 30t-142 81t-87 118t-31 142q0 114 75 197t205 131l113 32l263 58q-31 68 -143 68q-68 0 -99.5 -19.5t-31.5 -65.5q0 -4 0.5 -11.5t0.5 -11.5h-347v22q0 141 85 238.5t261 131.5
q65 14 130 14q227 0 358.5 -117t131.5 -290v-724l8 -3l-44 -16q-113 -42 -171 -75q-101 -57 -101 -106q0 -16 7.5 -22t26.5 -6q40 0 73 24t72 66l19 22l127 -205l-10 -9q-139 -126 -293 -126zM540 276q94 0 149.5 60t62.5 144l-182 -40q-56 -12 -94 -36.5t-38 -55.5
q0 -72 102 -72z" />
    <glyph glyph-name="Cacute" unicode="&#x106;" horiz-adv-x="1643" 
d="M1249 2072l-273 -435l-351 -11l240 446h384zM859 -23q-129 0 -244.5 34.5t-204 95t-154.5 137.5t-108 167q-74 157 -74 344t74 345q42 91 108 167.5t154.5 137t203.5 94.5t245 34q188 0 342 -72t260 -196q87 -99 106 -161l5 -16l-306 -157l-13 28q-34 73 -66 116
q-57 72 -142 114.5t-186 42.5q-145 0 -246 -77.5t-146 -197.5q-34 -92 -34 -202q0 -109 34 -201q45 -120 145.5 -197.5t246.5 -77.5q196 0 325 154q37 43 72 112l14 27l301 -162l-7 -16q-5 -12 -15 -29q-41 -70 -88 -124q-107 -121 -262.5 -192.5t-339.5 -71.5z" />
    <glyph glyph-name="cacute" unicode="&#x107;" horiz-adv-x="1290" 
d="M968 1736l-279 -445h-342l239 445h382zM666 -23q-199 0 -341 98t-205 247q-46 109 -46 234q0 128 46 235q64 151 205 248.5t341 97.5q142 0 262.5 -55t197.5 -149q13 -16 26 -34t27.5 -40.5t23.5 -35.5l12 -17l-301 -175l-15 28q-46 86 -97 132t-136 46q-61 0 -109 -26
t-75 -68t-41 -89.5t-14 -97.5t14 -97t41.5 -88.5t75 -67t108.5 -25.5q73 0 126.5 38t86.5 101q10 19 19 38l14 29l303 -176l-12 -18q-59 -87 -77 -109q-79 -94 -198 -149t-262 -55z" />
    <glyph glyph-name="Ccircumflex" unicode="&#x108;" horiz-adv-x="1643" 
d="M863 1760l-97 -126h-376l345 446h252l351 -446h-376zM875 -23q-129 0 -244.5 34.5t-204 95t-154.5 137.5t-108 167q-74 157 -74 344t74 345q42 91 108 167.5t154.5 137t203.5 94.5t245 34q188 0 342 -72t260 -196q87 -99 106 -161l5 -16l-306 -157l-13 28q-34 73 -66 116
q-57 72 -142 114.5t-186 42.5q-145 0 -246 -77.5t-146 -197.5q-34 -92 -34 -202q0 -109 34 -201q45 -120 145.5 -197.5t246.5 -77.5q196 0 325 154q37 43 72 112l14 27l301 -162l-7 -16q-5 -12 -15 -29q-41 -70 -88 -124q-107 -121 -262.5 -192.5t-339.5 -71.5z" />
    <glyph glyph-name="ccircumflex" unicode="&#x109;" horiz-adv-x="1290" 
d="M656 1422l-95 -126h-374l343 445h251l348 -445h-374zM666 -23q-199 0 -341 98t-205 247q-46 109 -46 234q0 128 46 235q64 151 205 248.5t341 97.5q142 0 262.5 -55t197.5 -149q13 -16 26 -34t27.5 -40.5t23.5 -35.5l12 -17l-301 -175l-15 28q-46 86 -97 132t-136 46
q-61 0 -109 -26t-75 -68t-41 -89.5t-14 -97.5t14 -97t41.5 -88.5t75 -67t108.5 -25.5q73 0 126.5 38t86.5 101q10 19 19 38l14 29l303 -176l-12 -18q-59 -87 -77 -109q-79 -94 -198 -149t-262 -55z" />
    <glyph glyph-name="Cdotaccent" unicode="&#x10a;" horiz-adv-x="1643" 
d="M860 1631q-99 0 -156 60t-57 132q0 71 58 130.5t155 59.5t154.5 -59.5t57.5 -130.5q0 -73 -56 -132.5t-156 -59.5zM859 -23q-129 0 -244.5 34.5t-204 95t-154.5 137.5t-108 167q-74 157 -74 344t74 345q89 190 273 311.5t438 121.5q120 0 227 -30t191 -83.5t149 -120
t117 -147.5q18 -27 24 -48l5 -16l-305 -157l-23 46q-23 48 -44 77q-58 82 -145 130t-196 48q-145 0 -246 -77.5t-146 -197.5q-34 -92 -34 -202q0 -109 34 -201q45 -120 145.5 -197.5t246.5 -77.5q203 0 335 168q22 29 52 81l25 44l301 -163l-14 -28q-36 -73 -85 -131
q-104 -125 -264.5 -199t-349.5 -74z" />
    <glyph glyph-name="cdotaccent" unicode="&#x10b;" horiz-adv-x="1290" 
d="M671 1278q-98 0 -155 59.5t-57 131.5q0 71 57.5 129.5t154.5 58.5t154 -59t57 -129q0 -72 -56 -131.5t-155 -59.5zM666 -23q-199 0 -341 98t-205 247q-46 109 -46 234q0 128 46 235q64 151 205 248.5t341 97.5q142 0 262.5 -55t197.5 -149q13 -16 26 -34t27.5 -40.5
t23.5 -35.5l12 -17l-301 -175l-15 28q-46 86 -97 132t-136 46q-61 0 -109 -26t-75 -68t-41 -89.5t-14 -97.5t14 -97t41.5 -88.5t75 -67t108.5 -25.5q73 0 126.5 38t86.5 101q10 19 19 38l14 29l303 -176l-12 -18q-59 -87 -77 -109q-79 -94 -198 -149t-262 -55z" />
    <glyph glyph-name="Ccaron" unicode="&#x10c;" horiz-adv-x="1643" 
d="M1339 2111l-352 -446h-252l-346 446h376l98 -126l99 126h377zM859 -23q-129 0 -244.5 34.5t-204 95t-154.5 137.5t-108 167q-74 157 -74 344t74 345q42 91 108 167.5t154.5 137t203.5 94.5t245 34q188 0 342 -72t260 -196q87 -99 106 -161l5 -16l-306 -157l-13 28
q-34 73 -66 116q-57 72 -142 114.5t-186 42.5q-145 0 -246 -77.5t-146 -197.5q-34 -92 -34 -202q0 -109 34 -201q45 -120 145.5 -197.5t246.5 -77.5q196 0 325 154q37 43 72 112l14 27l301 -162l-7 -16q-5 -12 -15 -29q-41 -70 -88 -124q-107 -121 -262.5 -192.5
t-339.5 -71.5z" />
    <glyph glyph-name="ccaron" unicode="&#x10d;" horiz-adv-x="1290" 
d="M1129 1742l-348 -445h-251l-343 445h374l95 -125l99 125h374zM666 -23q-199 0 -341 98t-205 247q-46 109 -46 234q0 128 46 235q64 151 205 248.5t341 97.5q142 0 262.5 -55t197.5 -149q13 -16 26 -34t27.5 -40.5t23.5 -35.5l12 -17l-301 -175l-15 28q-46 86 -97 132
t-136 46q-61 0 -109 -26t-75 -68t-41 -89.5t-14 -97.5t14 -97t41.5 -88.5t75 -67t108.5 -25.5q73 0 126.5 38t86.5 101q10 19 19 38l14 29l303 -176l-12 -18q-59 -87 -77 -109q-79 -94 -198 -149t-262 -55z" />
    <glyph glyph-name="Dcaron" unicode="&#x10e;" horiz-adv-x="1463" 
d="M1094 2064l-350 -446h-253l-346 446h375l99 -126l99 126h376zM620 -2h-546v1514h546q164 0 312 -58q119 -48 209.5 -128t142.5 -175.5t77.5 -195t25.5 -200.5q0 -102 -25.5 -201t-77.5 -194t-142.5 -174.5t-209.5 -127.5q-149 -60 -312 -60zM619 293q61 0 128 23
q74 24 130.5 73t89.5 110.5t49 126t16 129.5q0 103 -34 196q-43 116 -140.5 191t-238.5 75h-191v-923q32 0 96 -0.5t95 -0.5z" />
    <glyph glyph-name="dcaron" unicode="&#x10f;" horiz-adv-x="1318" 
d="M990 1669l-317 -409h-219l-313 409h310l113 -150l117 150h309zM682 -23q-197 0 -337 94.5t-205 241.5q-50 111 -50 243q0 134 50 245q66 147 205.5 241.5t336.5 94.5q128 0 238 -43v408h339v-1502h-339v20q-110 -43 -238 -43zM682 278q61 0 108.5 25.5t75 67t41.5 89
t14 96.5q0 50 -14 97.5t-41 89.5t-75 68t-109 26t-109 -26t-75 -68t-41 -89.5t-14 -97.5t14 -97t41.5 -88.5t75 -67t108.5 -25.5z" />
    <glyph glyph-name="Emacron" unicode="&#x112;" horiz-adv-x="1257" 
d="M937 1924v-280h-615v280h615zM1182 299v-299h-1108v1512h1108v-299h-749v-284h656v-300h-656v-330h749z" />
    <glyph glyph-name="emacron" unicode="&#x113;" horiz-adv-x="1333" 
d="M963 1590v-280h-613v280h613zM682 -23q-187 0 -325.5 87.5t-206.5 225.5q-60 121 -60 266t60 268q68 137 207 225t325 88t325.5 -88t207.5 -225q60 -123 60 -268q0 -18 -0.5 -52t-0.5 -52v-23h-807q28 -67 82.5 -109t132.5 -42q128 0 205 125q4 6 10 18l322 -131
q-63 -92 -90 -123q-79 -88 -194.5 -139t-252.5 -51zM482 720h400q-68 117 -200 117q-131 0 -200 -117z" />
    <glyph glyph-name="Ebreve" unicode="&#x114;" horiz-adv-x="1257" 
d="M652 1643q-70 0 -130 21.5t-101.5 57t-71.5 81t-44 92.5t-14 92v74h309v-74q0 -27 18 -52q16 -25 34 -25q19 0 35 25q18 25 18 52v74h309v-74q0 -57 -23 -116.5t-66.5 -111t-114.5 -84t-158 -32.5zM1182 299v-299h-1108v1512h1108v-299h-749v-284h656v-300h-656v-330h749
z" />
    <glyph glyph-name="ebreve" unicode="&#x115;" horiz-adv-x="1333" 
d="M678 1275q-86 0 -157 33t-114 84.5t-66 110.5t-23 116v72h310v-72q0 -27 17 -52q16 -25 33 -25q18 0 34 25q17 25 17 52v72h309v-72q0 -57 -23 -116.5t-66 -111t-114 -84t-157 -32.5zM661 -23q-187 0 -325.5 87.5t-206.5 225.5q-60 121 -60 266t60 268q68 137 207 225
t325 88t325.5 -88t207.5 -225q60 -123 60 -268q0 -18 -0.5 -52t-0.5 -52v-23h-807q28 -67 82.5 -109t132.5 -42q128 0 205 125q4 6 10 18l322 -131q-63 -92 -90 -123q-79 -88 -194.5 -139t-252.5 -51zM461 720h400q-68 117 -200 117q-131 0 -200 -117z" />
    <glyph glyph-name="Edotaccent" unicode="&#x116;" horiz-adv-x="1257" 
d="M648 1635q-99 0 -156 59.5t-57 131.5q0 71 58 130.5t155 59.5q98 0 155 -59.5t57 -130.5q0 -73 -56 -132t-156 -59zM1182 299v-299h-1108v1512h1108v-299h-749v-284h656v-300h-656v-330h749z" />
    <glyph glyph-name="edotaccent" unicode="&#x117;" horiz-adv-x="1333" 
d="M665 1272q-98 0 -155 59.5t-57 131.5q0 71 57.5 129.5t154.5 58.5t154 -59t57 -129q0 -72 -56.5 -131.5t-154.5 -59.5zM682 -23q-187 0 -325.5 87.5t-206.5 225.5q-60 121 -60 266t60 268q68 137 207 225t325 88t325.5 -88t207.5 -225q60 -123 60 -268q0 -18 -0.5 -52
t-0.5 -52v-23h-807q28 -67 82.5 -109t132.5 -42q128 0 205 125q4 6 10 18l322 -131q-63 -92 -90 -123q-79 -88 -194.5 -139t-252.5 -51zM482 720h400q-68 117 -200 117q-131 0 -200 -117z" />
    <glyph glyph-name="Eogonek" unicode="&#x118;" horiz-adv-x="1272" 
d="M910 -444q-123 0 -201 66t-78 168q0 123 115 210h-656v1512h1108v-299h-749v-284h656v-300h-656v-330h749v-288l6 -2l-6 -2v-7h-19l-19 -7q-113 -42 -171 -75q-101 -57 -101 -106q0 -16 7.5 -22t26.5 -6q40 0 73 24t72 66l19 22l127 -205l-10 -9q-139 -126 -293 -126z
" />
    <glyph glyph-name="eogonek" unicode="&#x119;" horiz-adv-x="1333" 
d="M618 -447q-123 0 -201 66t-78 168q0 132 133 223q-111 38 -193 111.5t-129 168.5q-60 121 -60 266t60 268q68 137 207 225t325 88t325.5 -88t207.5 -225q60 -123 60 -268q0 -18 -0.5 -52t-0.5 -52v-23h-807q28 -67 82.5 -109t132.5 -42q128 0 205 125q4 6 10 18l322 -131
q-63 -92 -90 -123q-95 -106 -235 -155l-26 -22q-113 -42 -171 -75q-101 -57 -101 -106q0 -16 7.5 -22t26.5 -6q40 0 73 24t72 66l19 22l127 -205l-10 -9q-139 -126 -293 -126zM482 720h400q-68 117 -200 117q-131 0 -200 -117z" />
    <glyph glyph-name="Ecaron" unicode="&#x11a;" horiz-adv-x="1257" 
d="M1128 2109l-350 -446h-252l-345 446h375l97 -126l100 126h375zM1182 299v-299h-1108v1512h1108v-299h-749v-284h656v-300h-656v-330h749z" />
    <glyph glyph-name="ecaron" unicode="&#x11b;" horiz-adv-x="1333" 
d="M1137 1743l-348 -445h-251l-344 445h373l97 -125l99 125h374zM661 -23q-187 0 -325.5 87.5t-206.5 225.5q-60 121 -60 266t60 268q68 137 207 225t325 88t325.5 -88t207.5 -225q60 -123 60 -268q0 -18 -0.5 -52t-0.5 -52v-23h-807q28 -67 82.5 -109t132.5 -42
q128 0 205 125q4 6 10 18l322 -131q-63 -92 -90 -123q-79 -88 -194.5 -139t-252.5 -51zM461 720h400q-68 117 -200 117q-131 0 -200 -117z" />
    <glyph glyph-name="Gcircumflex" unicode="&#x11c;" horiz-adv-x="1643" 
d="M859 1768l-99 -127h-373l345 445h252l350 -445h-375zM859 -23q-135 0 -254.5 37t-208.5 101.5t-154 146t-105 176.5q-63 146 -63 317t63 317q41 96 105.5 177t153 145.5t208 101.5t255.5 37q191 0 345 -73t262 -200q84 -99 101 -156l5 -16l-305 -157l-14 28l-17 35
q-51 105 -148.5 171.5t-228.5 66.5q-135 0 -232.5 -68t-147.5 -177q-46 -102 -46 -232q0 -127 46 -230q50 -109 148 -177.5t232 -68.5q166 0 282 105q11 10 33 36l17 21l13 14l-1 111h-483v299h825v-865h-340v50q-162 -73 -346 -73z" />
    <glyph glyph-name="gcircumflex" unicode="&#x11d;" horiz-adv-x="1307" 
d="M663 1421l-97 -126h-373l344 445h251l348 -445h-374zM663 -392q-146 0 -270.5 59t-200.5 157q-26 35 -51 79q-8 15 -22 45l324 108q33 -71 84.5 -110.5t132.5 -39.5t138.5 38.5t80.5 102.5q8 18 11 45q-108 -44 -232 -44q-141 0 -230 41l-44 20q-99 45 -170.5 126.5
t-105 172.5t-33.5 183q0 76 23 152t71.5 146.5t116 124.5t164 86.5t208.5 32.5q127 0 235 -47v25h339v-989q0 -75 -22.5 -148t-70 -139.5t-113.5 -117t-160 -80t-203 -29.5zM658 347q113 0 174 72t61 172q0 98 -62.5 171t-174.5 73t-172.5 -72.5t-60.5 -171.5
q0 -100 60.5 -172t174.5 -72z" />
    <glyph glyph-name="Gbreve" unicode="&#x11e;" horiz-adv-x="1643" 
d="M858 1643q-86 0 -157 33t-114 84.5t-66 110.5t-23 116v74h310v-74q0 -27 17 -52q15 -25 33 -25q19 0 36 25q18 27 18 52v74h309v-74q0 -45 -14 -92.5t-44 -92.5t-72 -80.5t-102.5 -57t-130.5 -21.5zM859 -23q-135 0 -254.5 37t-208.5 101.5t-154 146t-105 176.5
q-63 146 -63 317t63 317q41 96 105.5 177t153 145.5t208 101.5t255.5 37q191 0 345 -73t262 -200q84 -99 101 -156l5 -16l-305 -157l-14 28l-17 35q-51 105 -148.5 171.5t-228.5 66.5q-135 0 -232.5 -68t-147.5 -177q-46 -102 -46 -232q0 -127 46 -230q50 -109 148 -177.5
t232 -68.5q166 0 282 105q11 10 33 36l17 21l13 14l-1 111h-483v299h825v-865h-340v50q-162 -73 -346 -73z" />
    <glyph glyph-name="gbreve" unicode="&#x11f;" horiz-adv-x="1307" 
d="M679 1302q-86 0 -157 32.5t-114 84.5t-66 111t-23 116v72h310v-72q0 -27 17 -52q16 -25 33 -25q18 0 34 25q17 25 17 52v72h309v-72q0 -57 -23 -116t-66 -111t-114 -84.5t-157 -32.5zM663 -392q-146 0 -270.5 59t-200.5 157q-26 35 -51 79q-8 15 -22 45l324 108
q33 -71 84.5 -110.5t132.5 -39.5t138.5 38.5t80.5 102.5q8 18 11 45q-108 -44 -232 -44q-141 0 -230 41l-44 20q-99 45 -170.5 126.5t-105 172.5t-33.5 183q0 76 23 152t71.5 146.5t116 124.5t164 86.5t208.5 32.5q127 0 235 -47v25h339v-989q0 -75 -22.5 -148t-70 -139.5
t-113.5 -117t-160 -80t-203 -29.5zM658 347q113 0 174 72t61 172q0 98 -62.5 171t-174.5 73t-172.5 -72.5t-60.5 -171.5q0 -100 60.5 -172t174.5 -72z" />
    <glyph glyph-name="Gdotaccent" unicode="&#x120;" horiz-adv-x="1643" 
d="M860 1654q-99 0 -156 59.5t-57 131.5q0 71 58 130.5t155 59.5q98 0 155 -59.5t57 -130.5q0 -73 -56 -132t-156 -59zM859 -23q-135 0 -254.5 37t-208.5 101.5t-154 146t-105 176.5q-63 146 -63 317t63 317q41 96 105.5 177t153.5 145.5t208 101.5t255 37q232 0 405 -106
t279 -275q19 -30 24 -48l5 -16l-305 -157l-23 46q-27 54 -62 98t-82 80t-108.5 56.5t-132.5 20.5q-135 0 -232 -67.5t-148 -177.5q-46 -102 -46 -232q0 -125 46 -230q50 -109 148 -177.5t232 -68.5q166 0 282 105q11 10 33 36l17 21l13 14l-1 111h-483v299h825v-865h-340v50
q-162 -73 -346 -73z" />
    <glyph glyph-name="gdotaccent" unicode="&#x121;" horiz-adv-x="1307" 
d="M674 1273q-98 0 -155 59.5t-57 131.5q0 71 57 129.5t155 58.5q96 0 153.5 -59t57.5 -129q0 -72 -56.5 -131.5t-154.5 -59.5zM663 -392q-146 0 -270.5 59t-200.5 157q-26 35 -51 79q-8 15 -22 45l324 108q33 -71 84.5 -110.5t132.5 -39.5t138.5 38.5t80.5 102.5
q8 18 11 45q-108 -44 -232 -44q-141 0 -230 41l-44 20q-99 45 -170.5 126.5t-105 172.5t-33.5 183q0 76 23 152t71 146.5t115.5 124.5t164 86.5t208.5 32.5h1q127 0 235 -47v25h339v-989q0 -75 -22.5 -148t-70 -139.5t-113.5 -117t-160 -80t-203 -29.5zM658 347
q113 0 174 72t61 172q0 98 -62.5 171t-174.5 73t-172.5 -72.5t-60.5 -171.5q0 -100 60.5 -172t174.5 -72z" />
    <glyph glyph-name="Itilde" unicode="&#x128;" horiz-adv-x="488" 
d="M379 1644q-84 0 -171 47l-34 18q-2 -26 -4 -36l-2 -21h-312l4 77q2 35 12.5 70.5t33 71.5t53.5 63.5t78 45t104 17.5q81 0 169 -45q3 -2 15.5 -9t19.5 -11v2q1 6 2 18t2 18l3 21h310l-4 -75q-3 -45 -19 -89.5t-47 -87t-86.5 -69t-126.5 -26.5zM423 1512v-1512h-357v1512
h357z" />
    <glyph glyph-name="itilde" unicode="&#x129;" horiz-adv-x="476" 
d="M365 1281q-80 0 -170 48l-31 17q-1 -13 -5 -34l-2 -21h-311l4 76q3 45 19.5 89t48 85.5t86.5 67.5t125 26q81 0 170 -47l32 -18v1q1 6 2 18.5t2 18.5l3 20h310l-5 -75q-3 -45 -19 -89.5t-47 -87t-86 -69t-126 -26.5zM408 1111v-1111h-338v1111h338z" />
    <glyph glyph-name="Imacron" unicode="&#x12a;" horiz-adv-x="491" 
d="M551 1934v-280h-616v280h616zM425 1512v-1512h-358v1512h358z" />
    <glyph glyph-name="imacron" unicode="&#x12b;" horiz-adv-x="476" 
d="M552 1579v-280h-612v280h612zM407 1111v-1111h-337v1111h337z" />
    <glyph glyph-name="Iogonek" unicode="&#x12e;" horiz-adv-x="506" 
d="M125 -390q-141 0 -224 72.5t-83 178.5q0 96 64 170.5t176 119.5v1361h359v-1490l-19 -6q-14 -4 -41.5 -11.5t-40.5 -11.5l142 -227l-16 -19q-54 -61 -138.5 -99t-178.5 -38zM132 -115l1 -6h3q34 0 74 31q12 10 35 33l32 34l5 5q-8 -2 -17 -5t-20 -7t-17 -6
q-56 -23 -70 -34q-26 -18 -26 -45z" />
    <glyph glyph-name="iogonek" unicode="&#x12f;" horiz-adv-x="484" 
d="M428 1502v-331h-338v331h338zM146 -444q-123 0 -201 66t-78 168q0 86 56.5 153.5t151.5 112.5l15 6v1049h338v-1098l12 -4l-12 -4v-5h-13l-19 -7q-113 -42 -171 -75q-101 -57 -101 -106q0 -16 7.5 -22t26.5 -6q40 0 73 24t72 66l19 22l127 -205l-10 -9
q-139 -126 -293 -126z" />
    <glyph glyph-name="Idotaccent" unicode="&#x130;" horiz-adv-x="504" 
d="M244 1639q-100 0 -156.5 59.5t-56.5 131.5q0 71 58 130.5t155 59.5q98 0 155 -59.5t57 -130.5q0 -73 -56 -132t-156 -59zM431 1512v-1512h-358v1512h358z" />
    <glyph glyph-name="dotlessi" unicode="&#x131;" horiz-adv-x="488" 
d="M413 1111v-1111h-338v1111h338z" />
    <glyph glyph-name="Omacron" unicode="&#x14c;" horiz-adv-x="1720" 
d="M1193 1938v-280h-616v280h616zM859 -23q-134 0 -252.5 36.5t-207.5 100t-154.5 144t-105.5 174.5q-65 147 -65 323t65 324q40 94 105.5 174.5t154.5 144t207.5 99.5t252.5 36q137 0 258.5 -38t211.5 -104.5t155.5 -150t104.5 -180.5q57 -145 57 -305t-57 -305
q-38 -97 -103.5 -180.5t-156 -150t-212 -104.5t-258.5 -38zM859 279q148 0 247 76.5t146 198.5q34 92 34 201q0 110 -34 202q-46 121 -146.5 198t-246.5 77q-142 0 -240 -73t-146 -190q-40 -95 -40 -214q0 -114 40 -213q48 -117 145.5 -190t240.5 -73z" />
    <glyph glyph-name="omacron" unicode="&#x14d;" horiz-adv-x="1333" 
d="M963 1554v-280h-613v280h613zM666 -23q-198 0 -338.5 96t-205.5 245q-48 109 -48 238q0 80 21 159.5t68 156t114.5 135t168 94.5t220.5 36q203 0 346 -101t204 -254q43 -110 43 -226q0 -126 -48 -238q-65 -148 -206 -244.5t-339 -96.5zM666 278q61 0 108.5 25.5t75 67
t41.5 89t14 96.5q0 50 -14 97.5t-41 89.5t-75 68t-109 26t-109 -26t-75 -68t-41 -89.5t-14 -97.5t14 -97t41.5 -88.5t75 -67t108.5 -25.5z" />
    <glyph glyph-name="Obreve" unicode="&#x14e;" horiz-adv-x="1720" 
d="M855 1659q-86 0 -157 33t-114 84.5t-66 110.5t-23 116v74h310v-74q0 -27 17 -52q15 -25 33 -25q19 0 36 25q18 27 18 52v74h309v-74q0 -45 -14 -92.5t-44 -92.5t-72 -80.5t-102.5 -57t-130.5 -21.5zM859 -23q-134 0 -252.5 36.5t-207.5 100t-154.5 144t-105.5 174.5
q-65 147 -65 323t65 324q40 94 105.5 174.5t154.5 144t207.5 99.5t252.5 36q137 0 258.5 -38t211.5 -104.5t155.5 -150t104.5 -180.5q57 -145 57 -305t-57 -305q-38 -97 -103.5 -180.5t-156 -150t-212 -104.5t-258.5 -38zM859 279q148 0 247 76.5t146 198.5q34 92 34 201
q0 110 -34 202q-46 121 -146.5 198t-246.5 77q-142 0 -240 -73t-146 -190q-40 -95 -40 -214q0 -114 40 -213q48 -117 145.5 -190t240.5 -73z" />
    <glyph glyph-name="obreve" unicode="&#x14f;" horiz-adv-x="1333" 
d="M660 1279q-86 0 -157 33t-113 84.5t-65 110.5t-23 116v72h308v-72q0 -24 17 -52q17 -25 33 -25q18 0 34 25q18 27 18 52v72h308v-72q0 -57 -23.5 -116.5t-67 -111t-114 -84t-155.5 -32.5zM666 -23q-198 0 -338.5 96t-205.5 245q-48 109 -48 238q0 80 21 159.5t68 156
t114.5 135t168 94.5t220.5 36q203 0 346 -101t204 -254q43 -110 43 -226q0 -126 -48 -238q-65 -148 -206 -244.5t-339 -96.5zM666 278q61 0 108.5 25.5t75 67t41.5 89t14 96.5q0 50 -14 97.5t-41 89.5t-75 68t-109 26t-109 -26t-75 -68t-41 -89.5t-14 -97.5t14 -97
t41.5 -88.5t75 -67t108.5 -25.5z" />
    <glyph glyph-name="Ohungarumlaut" unicode="&#x150;" horiz-adv-x="1720" 
d="M1053 2068l-234 -383h-239l201 383h272zM1386 2068l-234 -383h-239l201 383h272zM859 -23q-134 0 -252.5 36.5t-207.5 100t-154.5 144t-105.5 174.5q-65 147 -65 323t65 324q40 94 105.5 174.5t154.5 144t207.5 99.5t252.5 36q137 0 258.5 -38t211.5 -104.5t155.5 -150
t104.5 -180.5q57 -145 57 -305t-57 -305q-38 -97 -103.5 -180.5t-156 -150t-212 -104.5t-258.5 -38zM859 279q148 0 247 76.5t146 198.5q34 92 34 201q0 110 -34 202q-46 121 -146.5 198t-246.5 77q-142 0 -240 -73t-146 -190q-40 -95 -40 -214q0 -114 40 -213
q48 -117 145.5 -190t240.5 -73z" />
    <glyph glyph-name="ohungarumlaut" unicode="&#x151;" horiz-adv-x="1359" 
d="M808 1667l-234 -383h-239l201 383h272zM1141 1667l-234 -383h-239l201 383h272zM666 -23q-198 0 -338.5 96t-205.5 245q-48 109 -48 238q0 80 21 159.5t68 156t114.5 135t168 94.5t220.5 36q203 0 346 -101t204 -254q43 -110 43 -226q0 -126 -48 -238
q-65 -148 -206 -244.5t-339 -96.5zM666 278q61 0 108.5 25.5t75 67t41.5 89t14 96.5q0 50 -14 97.5t-41 89.5t-75 68t-109 26t-109 -26t-75 -68t-41 -89.5t-14 -97.5t14 -97t41.5 -88.5t75 -67t108.5 -25.5z" />
    <glyph glyph-name="OE" unicode="&#x152;" horiz-adv-x="2506" 
d="M875 -23q-253 0 -438 122.5t-273 311.5q-74 157 -74 344t74 345q89 190 273 311.5t438 121.5q239 0 427 -115v94h1109v-299h-749v-284h656v-300h-656v-330h749v-299h-1109v92q-191 -115 -427 -115zM875 279q148 0 247 76.5t146 198.5q34 92 34 201q0 110 -34 202
q-46 121 -146.5 198t-246.5 77q-142 0 -240 -73t-146 -190q-40 -95 -40 -214q0 -114 40 -213q48 -117 145.5 -190t240.5 -73z" />
    <glyph glyph-name="oe" unicode="&#x153;" horiz-adv-x="2219" 
d="M682 -23q-196 0 -337 94.5t-205 241.5q-50 111 -50 243q0 131 50 245q66 147 205.5 241.5t336.5 94.5q250 0 417 -159q79 75 186 117t232 42q197 0 337 -95t206 -242q50 -113 50 -244q0 -18 -0.5 -52t-0.5 -52v-23h-252l203 -118l-7 -16q-63 -136 -207 -227t-329 -91
q-125 0 -232.5 41.5t-185.5 116.5q-79 -75 -185.5 -116.5t-231.5 -41.5zM682 278q59 0 106.5 26t75.5 67.5t42.5 89.5t14.5 96t-14.5 96t-42.5 90t-75.5 68t-106.5 26q-61 0 -109 -26t-75 -68t-41 -89.5t-14 -97.5t14 -97t41.5 -88.5t75 -67t108.5 -25.5zM1318 720h399
q-30 53 -81.5 85t-118.5 32q-130 0 -199 -117zM1517 278q146 0 219 151h-433q27 -67 81.5 -109t132.5 -42z" />
    <glyph glyph-name="Rcaron" unicode="&#x158;" horiz-adv-x="1408" 
d="M1122 2107l-352 -446h-252l-345 446h375l97 -126l101 126h376zM433 521v-521h-359v1512h585q138 0 250 -40.5t183 -110t109 -158t38 -188.5q0 -127 -62.5 -239.5t-190.5 -179.5l358 -596h-410l-311 521h-190zM659 1213h-226v-392h226q104 0 159.5 55t55.5 141t-55.5 141
t-159.5 55z" />
    <glyph glyph-name="rcaron" unicode="&#x159;" horiz-adv-x="959" 
d="M930 1727l-349 -445h-250l-344 445h374l96 -125l99 125h374zM480 659v-659h-338v1111h338q72 22 155 22q25 0 73 -6q11 -2 33 -5.5t33 -4.5l15 -2l26 -3v-309l-38 7q-13 2 -38.5 8t-35.5 8q-43 9 -67 9q-79 0 -117.5 -50.5t-38.5 -125.5z" />
    <glyph glyph-name="Sacute" unicode="&#x15a;" horiz-adv-x="1385" 
d="M1074 2099l-281 -446h-341l240 446h382zM739 -23q-131 0 -246 40.5t-196.5 108.5t-137.5 151.5t-83 175.5l-5 17l329 136l8 -32l4 -19q16 -56 41.5 -103t64 -87.5t95 -63t126.5 -22.5q91 0 148 37t57 101q0 65 -34 96t-122 58q-46 15 -133 38t-122 33
q-193 60 -297.5 172.5t-104.5 270.5q0 90 39 171.5t108.5 143t174 98t228.5 36.5q176 0 319 -74.5t227 -196.5q50 -76 73 -149l4 -13l6 -17l-327 -142l-8 31q-29 113 -100 187t-192 74q-90 0 -142 -36.5t-52 -103.5q0 -58 41 -96t120 -63q40 -12 121 -33.5t120 -33.5
q203 -60 307 -167t104 -271q0 -193 -155 -323t-408 -130z" />
    <glyph glyph-name="sacute" unicode="&#x15b;" horiz-adv-x="1132" 
d="M880 1712l-278 -445h-341l239 445h380zM598 -38q-178 0 -315.5 96t-192.5 258l281 128l16 -39q64 -152 211 -152q54 0 87 19.5t33 51.5q0 20 -27 37q-20 13 -74 28l-157 44q-152 43 -232 130.5t-80 211.5q0 157 117.5 256.5t303.5 99.5q135 0 246.5 -58.5t178.5 -163.5
q25 -40 48 -101l-279 -133l-7 20q-25 72 -73 110.5t-114 38.5q-46 0 -73 -16t-27 -43q0 -23 19.5 -38t71.5 -33q26 -9 82 -25q67 -20 83 -25q314 -98 314 -344q0 -157 -124 -257.5t-317 -100.5z" />
    <glyph glyph-name="Scircumflex" unicode="&#x15c;" horiz-adv-x="1385" 
d="M682 1791l-99 -126h-376l347 446h253l350 -446h-377zM739 -23q-131 0 -246 40.5t-196.5 108.5t-137.5 151.5t-83 175.5l-5 17l329 136l8 -32l4 -19q16 -56 41.5 -103t64 -87.5t95 -63t126.5 -22.5q91 0 148 37t57 101q0 65 -34 96t-122 58q-46 15 -133 38t-122 33
q-193 60 -297.5 172.5t-104.5 270.5q0 90 39 171.5t108.5 143t174 98t228.5 36.5q176 0 319 -74.5t227 -196.5q50 -76 73 -149l4 -13l6 -17l-327 -142l-8 31q-29 113 -100 187t-192 74q-90 0 -142 -36.5t-52 -103.5q0 -58 41 -96t120 -63q40 -12 121 -33.5t120 -33.5
q203 -60 307 -167t104 -271q0 -193 -155 -323t-408 -130z" />
    <glyph glyph-name="scircumflex" unicode="&#x15d;" horiz-adv-x="1132" 
d="M561 1397l-97 -125h-374l344 445h251l349 -445h-375zM598 -38q-178 0 -315.5 96t-192.5 258l281 128l16 -39q64 -152 211 -152q54 0 87 19.5t33 51.5q0 20 -27 37q-20 13 -74 28l-157 44q-152 43 -232 130.5t-80 211.5q0 157 117.5 256.5t303.5 99.5q135 0 246.5 -58.5
t178.5 -163.5q25 -40 48 -101l-279 -133l-7 20q-25 72 -73 110.5t-114 38.5q-46 0 -73 -16t-27 -43q0 -23 19.5 -38t71.5 -33q26 -9 82 -25q67 -20 83 -25q314 -98 314 -344q0 -157 -124 -257.5t-317 -100.5z" />
    <glyph glyph-name="Scedilla" unicode="&#x15e;" horiz-adv-x="1387" 
d="M776 -432q-143 0 -272 110l-31 27l125 200l20 -20q39 -42 73 -65.5t74 -23.5q32 0 32 28q0 47 -83 96q-35 22 -76 40q-13 6 -70 30l-87 36l5 1q-149 60 -250 175t-141 251l-5 17l329 136l8 -32l4 -19q16 -56 41.5 -103t64 -87.5t95 -63t126.5 -22.5q91 0 148 37t57 101
q0 65 -34 96t-122 58q-46 15 -133 38t-122 33q-193 60 -297.5 172.5t-104.5 270.5q0 90 39 171.5t108.5 143t174 98t228.5 36.5q176 0 319 -74.5t227 -196.5q50 -76 73 -149l4 -13l6 -17l-327 -142l-8 31q-29 113 -100 187t-192 74q-90 0 -142 -36.5t-52 -103.5
q0 -58 41 -96t120 -63q40 -12 121 -33.5t120 -33.5q411 -121 411 -438q0 -150 -97.5 -266t-266.5 -162q98 -87 98 -200q0 -102 -78 -168t-201 -66z" />
    <glyph glyph-name="scedilla" unicode="&#x15f;" horiz-adv-x="1132" 
d="M597 -401q-147 0 -272 110l-31 27l125 200l20 -20q30 -30 46 -44t45 -29.5t56 -15.5q32 0 32 28q0 47 -83 96q-28 17 -32 19q-146 23 -256 115t-157 231l281 128l16 -39q64 -152 211 -152q54 0 87 19.5t33 51.5q0 20 -27 37q-20 13 -74 28l-157 44q-152 43 -232 130.5
t-80 211.5q0 157 117.5 256.5t303.5 99.5q135 0 246.5 -58.5t178.5 -163.5q25 -40 48 -101l-279 -133l-7 20q-25 72 -73 110.5t-114 38.5q-46 0 -73 -16t-27 -43q0 -23 19.5 -38t71.5 -33q26 -9 82 -25q67 -20 83 -25q314 -98 314 -344q0 -107 -61 -191t-168 -128
q66 -76 66 -168q0 -102 -78 -168t-201 -66z" />
    <glyph glyph-name="Scaron" unicode="&#x160;" horiz-adv-x="1385" 
d="M1150 2108l-351 -446h-253l-344 446h373l98 -126l100 126h377zM739 -23q-131 0 -246 40.5t-196.5 108.5t-137.5 151.5t-83 175.5l-5 17l329 136l8 -32l4 -19q16 -56 41.5 -103t64 -87.5t95 -63t126.5 -22.5q91 0 148 37t57 101q0 65 -34 96t-122 58q-46 15 -133 38
t-122 33q-193 60 -297.5 172.5t-104.5 270.5q0 90 39 171.5t108.5 143t174 98t228.5 36.5q176 0 319 -74.5t227 -196.5q50 -76 73 -149l4 -13l6 -17l-327 -142l-8 31q-29 113 -100 187t-192 74q-90 0 -142 -36.5t-52 -103.5q0 -58 41 -96t120 -63q40 -12 121 -33.5
t120 -33.5q203 -60 307 -167t104 -271q0 -193 -155 -323t-408 -130z" />
    <glyph glyph-name="scaron" unicode="&#x161;" horiz-adv-x="1132" 
d="M1037 1729l-348 -445h-252l-344 445h374l97 -125l98 125h375zM598 -38q-178 0 -315.5 96t-192.5 258l281 128l16 -39q64 -152 211 -152q54 0 87 19.5t33 51.5q0 20 -27 37q-20 13 -74 28l-157 44q-152 43 -232 130.5t-80 211.5q0 157 117.5 256.5t303.5 99.5
q135 0 246.5 -58.5t178.5 -163.5q25 -40 48 -101l-279 -133l-7 20q-25 72 -73 110.5t-114 38.5q-46 0 -73 -16t-27 -43q0 -23 19.5 -38t71.5 -33q26 -9 82 -25q67 -20 83 -25q314 -98 314 -344q0 -157 -124 -257.5t-317 -100.5z" />
    <glyph glyph-name="Utilde" unicode="&#x168;" horiz-adv-x="1352" 
d="M820 1644q-86 0 -171 47l-32 18q-1 -6 -2 -18t-2 -18l-3 -21h-310l4 77q3 45 19.5 89.5t48 86t86.5 67t126 25.5q84 0 169 -46l34 -18q1 12 1 35v23h313v-73q0 -33 -15 -82q-26 -81 -92 -136.5t-174 -55.5zM676 -23q-148 0 -265 43.5t-189.5 118t-110 168t-37.5 198.5
v1007h361v-1007q0 -93 65 -159.5t176 -66.5q109 0 175 67.5t66 158.5v1007h360v-1007q0 -104 -38 -198t-110 -168t-189.5 -118t-263.5 -44z" />
    <glyph glyph-name="utilde" unicode="&#x169;" horiz-adv-x="1138" 
d="M682 1277q-69 0 -136 31q-13 6 -37 19t-29 16l-4 -35l-3 -21h-311l5 76q3 45 19.5 89t48 85.5t86.5 67.5t125 26q80 0 169 -47l33 -18v1q2 26 4 37l3 20h309l-4 -75q-3 -45 -19 -89.5t-47 -87t-86 -69t-126 -26.5zM569 -20q-93 0 -173.5 23.5t-139 64t-100 94.5t-62 116
t-20.5 128v705h338v-659q0 -74 38.5 -123.5t116.5 -49.5q79 0 117.5 49.5t38.5 123.5v659h340v-1111h-340q-69 -20 -154 -20z" />
    <glyph glyph-name="Umacron" unicode="&#x16a;" horiz-adv-x="1352" 
d="M984 1910l1 -267h-615l-1 267h615zM676 -23q-148 0 -265 43.5t-189.5 118t-110 168t-37.5 198.5v1007h361v-1007q0 -93 65 -159.5t176 -66.5q109 0 175 67.5t66 158.5v1007h360v-1007q0 -104 -38 -198t-110 -168t-189.5 -118t-263.5 -44z" />
    <glyph glyph-name="umacron" unicode="&#x16b;" horiz-adv-x="1138" 
d="M873 1556v-280h-612v280h612zM569 -20q-93 0 -173.5 23.5t-139 64t-100 94.5t-62 116t-20.5 128v705h338v-659q0 -74 38.5 -123.5t116.5 -49.5q79 0 117.5 49.5t38.5 123.5v659h340v-1111h-340q-69 -20 -154 -20z" />
    <glyph glyph-name="Ubreve" unicode="&#x16c;" horiz-adv-x="1352" 
d="M661 1647q-86 0 -157 33t-114 84.5t-66 110.5t-23 116v74h309v-74q0 -24 17 -52q16 -25 34 -25q19 0 36 25q18 27 18 52v74h309v-74q0 -45 -14 -92.5t-44 -92.5t-72 -80.5t-102.5 -57t-130.5 -21.5zM676 -23q-148 0 -265 43.5t-189.5 118t-110 168t-37.5 198.5v1007h361
v-1007q0 -93 65 -159.5t176 -66.5q109 0 175 67.5t66 158.5v1007h360v-1007q0 -104 -38 -198t-110 -168t-189.5 -118t-263.5 -44z" />
    <glyph glyph-name="ubreve" unicode="&#x16d;" horiz-adv-x="1138" 
d="M550 1253q-86 0 -157 33t-113 84.5t-65 110.5t-23 116v72h309v-72q0 -26 16 -52q16 -25 33 -25q18 0 34 25q18 27 18 52v72h308v-72q0 -57 -23 -116t-66 -111t-114 -84.5t-157 -32.5zM569 -20q-93 0 -173.5 23.5t-139 64t-100 94.5t-62 116t-20.5 128v705h338v-659
q0 -74 38.5 -123.5t116.5 -49.5q79 0 117.5 49.5t38.5 123.5v659h340v-1111h-340q-69 -20 -154 -20z" />
    <glyph glyph-name="Uring" unicode="&#x16e;" horiz-adv-x="1352" 
d="M686 1641q-89 0 -156.5 41t-99 99t-31.5 119q0 98 78 177.5t209 79.5q67 0 123.5 -23.5t91.5 -61t54.5 -82t19.5 -90.5q0 -98 -78.5 -178.5t-210.5 -80.5zM687 1823q39 0 62 23.5t23 52.5t-23 52.5t-62 23.5t-62 -23.5t-23 -52.5q0 -28 23 -52t62 -24zM676 -23
q-148 0 -265 43.5t-189.5 118t-110 168t-37.5 198.5v1007h361v-1007q0 -93 65 -159.5t176 -66.5q109 0 175 67.5t66 158.5v1007h360v-1007q0 -104 -38 -198t-110 -168t-189.5 -118t-263.5 -44z" />
    <glyph glyph-name="uring" unicode="&#x16f;" horiz-adv-x="1138" 
d="M554 1275q-89 0 -156.5 41t-99 99t-31.5 119q0 98 78 177.5t209 79.5q67 0 123.5 -23.5t91.5 -61t54.5 -82t19.5 -90.5q0 -98 -78.5 -178.5t-210.5 -80.5zM555 1457q39 0 62 23.5t23 52.5t-23 52.5t-62 23.5t-62 -23.5t-23 -52.5q0 -28 23 -52t62 -24zM569 -20
q-93 0 -173.5 23.5t-139 64t-100 94.5t-62 116t-20.5 128v705h338v-659q0 -74 38.5 -123.5t116.5 -49.5q79 0 117.5 49.5t38.5 123.5v659h340v-1111h-340q-69 -20 -154 -20z" />
    <glyph glyph-name="Uhungarumlaut" unicode="&#x170;" horiz-adv-x="1359" 
d="M837 2050l-234 -383h-239l201 383h272zM1170 2050l-234 -383h-239l201 383h272zM676 -23q-148 0 -265 43.5t-189.5 118t-110 168t-37.5 198.5v1007h361v-1007q0 -93 65 -159.5t176 -66.5q109 0 175 67.5t66 158.5v1007h360v-1007q0 -104 -38 -198t-110 -168t-189.5 -118
t-263.5 -44z" />
    <glyph glyph-name="uhungarumlaut" unicode="&#x171;" horiz-adv-x="1183" 
d="M771 1577l-234 -383h-239l201 383h272zM1104 1577l-234 -383h-239l201 383h272zM569 -20q-93 0 -173.5 23.5t-139 64t-100 94.5t-62 116t-20.5 128v705h338v-659q0 -74 38.5 -123.5t116.5 -49.5q79 0 117.5 49.5t38.5 123.5v659h340v-1111h-340q-69 -20 -154 -20z" />
    <glyph glyph-name="Uogonek" unicode="&#x172;" horiz-adv-x="1361" 
d="M782 -381q-123 0 -201 66t-78 168q0 72 43 136q-112 19 -200.5 69t-143.5 119.5t-83.5 153t-28.5 174.5v1007h361v-1007q0 -93 65 -159.5t176 -66.5q109 0 175 67.5t66 158.5v1007h360v-1007q0 -130 -58 -243.5t-170 -185.5l11 -4l-43 -16q-61 -33 -125 -51
q-26 -11 -47 -24q-101 -57 -101 -106q0 -16 7.5 -22t26.5 -6q40 0 73 24t72 66l19 22l127 -205l-10 -9q-139 -126 -293 -126z" />
    <glyph glyph-name="uogonek" unicode="&#x173;" horiz-adv-x="1152" 
d="M795 -455q-123 0 -201 66t-78 168q0 117 105 202q-12 -1 -36 -1q-93 0 -173.5 23.5t-139 64t-100 94.5t-62 116t-20.5 128v705h338v-659q0 -74 38.5 -123.5t116.5 -49.5q79 0 117.5 49.5t38.5 123.5v659h340v-1110l10 -3l-44 -16q-113 -42 -171 -75q-101 -57 -101 -106
q0 -16 7.5 -22t26.5 -6q40 0 73 24t72 66l19 22l127 -205l-10 -9q-139 -126 -293 -126z" />
    <glyph glyph-name="Wcircumflex" unicode="&#x174;" horiz-adv-x="2212" 
d="M1101 1791l-97 -126h-377l346 446h253l351 -446h-377zM1105 883l-260 -883h-322l-454 1512h367l250 -861l247 861h344l247 -859l250 859h369l-455 -1512h-323z" />
    <glyph glyph-name="wcircumflex" unicode="&#x175;" horiz-adv-x="1842" 
d="M919 1386l-97 -125h-375l345 445h252l347 -445h-376zM922 508l-165 -508h-283l-406 1111h372l170 -507l161 507h299l160 -505l172 505h371l-407 -1111h-282z" />
    <glyph glyph-name="Ycircumflex" unicode="&#x176;" horiz-adv-x="1610" 
d="M796 1771l-96 -126h-377l346 446h253l352 -446h-378zM984 690v-690h-358v589l1 74v25q-20 55 -74 123q-8 10 -30.5 37t-38 47t-29.5 41l-394 576h405l340 -495l337 495h404l-392 -576q-15 -22 -97 -125q-53 -68 -74 -121z" />
    <glyph glyph-name="ycircumflex" unicode="&#x177;" horiz-adv-x="1377" 
d="M707 1415l-96 -125h-376l346 445h250l348 -445h-375zM1308 1111l-645 -1503h-367l201 488l-431 1015h376l246 -580l244 580h376z" />
    <glyph glyph-name="Ydieresis" unicode="&#x178;" horiz-adv-x="1610" 
d="M590 1600q-84 0 -134.5 52.5t-50.5 120.5q0 67 51 118.5t134 51.5q81 0 131.5 -52t50.5 -118q0 -67 -49.5 -120t-132.5 -53zM1020 1600q-84 0 -134.5 52.5t-50.5 120.5q0 67 51 118.5t134 51.5q81 0 131.5 -52t50.5 -118q0 -67 -49.5 -120t-132.5 -53zM984 690v-690h-358
v589l1 74v25q-20 55 -74 123q-8 10 -30.5 37t-38 47t-29.5 41l-394 576h405l340 -495l337 495h404l-392 -576q-15 -22 -97 -125q-53 -68 -74 -121z" />
    <glyph glyph-name="Zacute" unicode="&#x179;" horiz-adv-x="1368" 
d="M1024 2112l-281 -446h-341l240 446h382zM1292 299v-299h-1218v186l4 17l719 1010h-675v299h1154v-186l-4 -18l-720 -1009h740z" />
    <glyph glyph-name="zacute" unicode="&#x17a;" horiz-adv-x="1101" 
d="M891 1727l-280 -445h-341l239 445h382zM1025 298v-298h-951v220l476 592h-445v299h918v-219l-475 -594h477z" />
    <glyph glyph-name="Zdotaccent" unicode="&#x17b;" horiz-adv-x="1368" 
d="M706 1645q-100 0 -156 59t-56 132q0 71 57 130.5t155 59.5q97 0 154 -59.5t57 -130.5t-56 -131t-155 -60zM1292 299v-299h-1218v186l4 17l719 1010h-675v299h1154v-186l-4 -18l-720 -1009h740z" />
    <glyph glyph-name="zdotaccent" unicode="&#x17c;" horiz-adv-x="1101" 
d="M537 1250q-99 0 -155 59.5t-56 131.5q0 70 57 129t154 59t154 -59t57 -129q0 -72 -56.5 -131.5t-154.5 -59.5zM1025 298v-298h-951v220l476 592h-445v299h918v-219l-475 -594h477z" />
    <glyph glyph-name="Zcaron" unicode="&#x17d;" horiz-adv-x="1368" 
d="M1186 2089l-350 -446h-255l-344 446h376l97 -126l99 126h377zM1292 299v-299h-1218v186l4 17l719 1010h-675v299h1154v-186l-4 -18l-720 -1009h740z" />
    <glyph glyph-name="zcaron" unicode="&#x17e;" horiz-adv-x="1102" 
d="M1016 1731l-350 -445h-250l-344 445h374l96 -125l99 125h375zM1026 298v-298h-951v220l476 592h-445v299h918v-219l-475 -594h477z" />
    <glyph glyph-name="circumflex" unicode="&#x2c6;" horiz-adv-x="929" 
d="M463 1387l-113 -152h-310l313 409h219l317 -409h-309z" />
    <glyph glyph-name="caron" unicode="&#x2c7;" horiz-adv-x="929" 
d="M889 1644l-317 -409h-219l-313 409h310l113 -150l117 150h309z" />
    <glyph glyph-name="breve" unicode="&#x2d8;" horiz-adv-x="748" 
d="M372 1235q-76 0 -140.5 30.5t-105.5 78.5t-63.5 106t-22.5 115v51h254v-51q0 -37 22.5 -70.5t55.5 -33.5q36 0 61 33t25 71v51h251v-51q0 -79 -38 -153t-117.5 -125.5t-181.5 -51.5z" />
    <glyph glyph-name="dotaccent" unicode="&#x2d9;" horiz-adv-x="447" 
d="M225 1235q-84 0 -134.5 52.5t-50.5 120.5q0 67 51 118.5t134 51.5q81 0 131.5 -52t50.5 -118q0 -67 -49.5 -120t-132.5 -53z" />
    <glyph glyph-name="ring" unicode="&#x2da;" horiz-adv-x="599" 
d="M295 1217q-89 0 -156.5 41t-99 99t-31.5 119q0 98 78 177.5t209 79.5q67 0 123.5 -23.5t91.5 -61t54.5 -82t19.5 -90.5q0 -98 -78.5 -178.5t-210.5 -80.5zM296 1399q39 0 62 23.5t23 52.5t-23 52.5t-62 23.5t-62 -23.5t-23 -52.5q0 -28 23 -52t62 -24z" />
    <glyph glyph-name="ogonek" unicode="&#x2db;" horiz-adv-x="662" 
d="M319 -374q-123 0 -201 66t-78 168q0 86 56.5 153.5t151.5 112.5q15 7 43 16.5t39 14.5q2 0 6 2t7 3l8 3l262 -86l-44 -16q-113 -42 -171 -75q-101 -57 -101 -106q0 -16 7.5 -22t26.5 -6q40 0 73 24t72 66l19 22l127 -205l-10 -9q-139 -126 -293 -126z" />
    <glyph glyph-name="tilde" unicode="&#x2dc;" horiz-adv-x="845" 
d="M542 1226q-76 0 -160 46q-10 5 -27.5 15t-23.5 13l-7 4q-1 -1 -1.5 -4t-0.5 -4q-2 -9 -3.5 -24t-1.5 -16l-3 -20h-274l3 60q2 33 11.5 66t30 68t49.5 62t73.5 44t98.5 17q79 0 161 -46l49 -28l7 -3q1 2 1 5t1 4q2 8 3 16.5t2 15.5t1 9l2 21h273l-3 -61q-2 -42 -17 -84
t-44 -83.5t-81 -67t-119 -25.5z" />
    <glyph glyph-name="hungarumlaut" unicode="&#x2dd;" horiz-adv-x="887" 
d="M847 1646l-256 -411h-551l217 411h590z" />
    <glyph glyph-name="gravecomb" unicode="&#x300;" 
d="M-225 1577l200 -383h-238l-235 383h273z" />
    <glyph glyph-name="acutecomb" unicode="&#x301;" 
d="M-23 1577l-234 -383h-239l201 383h272z" />
    <glyph glyph-name="uni0302" unicode="&#x302;" 
d="M-421 1363l-126 -169h-263l289 383h199l294 -383h-263z" />
    <glyph glyph-name="tildecomb" unicode="&#x303;" 
d="M-277 1194q-71 0 -150 45q-30 18 -50 29q-24 11 -35 11q-8 0 -14 -17l-6 -21l-2 -21l-2 -16h-218l2 36q4 60 28.5 113t78 91t127.5 38q72 0 150 -45q4 -2 22.5 -12.5t27.5 -15.5q22 -11 35 -11q8 0 15 18q4 13 5 22l3 21l2 16h216l-2 -37q-3 -44 -17.5 -85.5t-41.5 -78
t-72 -58.5t-102 -22z" />
    <glyph glyph-name="uni0304" unicode="&#x304;" 
d="M-38 1404v-210h-523v210h523z" />
    <glyph glyph-name="uni0306" unicode="&#x306;" 
d="M-359 1194q-93 0 -167 48t-111 120t-37 150v35h214v-35q0 -45 29.5 -83t71.5 -38q44 0 75 38t31 83v35h212v-35q0 -123 -89 -220.5t-229 -97.5z" />
    <glyph glyph-name="uni0307" unicode="&#x307;" 
d="M-196 1194q-73 0 -119 47.5t-46 110.5t46.5 109.5t118.5 46.5t118 -47t46 -109q0 -63 -45.5 -110.5t-118.5 -47.5z" />
    <glyph glyph-name="uni0308" unicode="&#x308;" 
d="M-527 1194q-73 0 -119 47.5t-46 110.5t46.5 109.5t118.5 46.5q62 0 105.5 -35.5t54.5 -88.5q12 52 56 88t106 36q70 0 117 -48t47 -108q0 -62 -46 -110t-118 -48q-64 0 -107 36t-55 90q-11 -54 -54 -90t-106 -36z" />
    <glyph glyph-name="uni030A" unicode="&#x30a;" 
d="M-278 1194q-105 0 -173 69t-68 161q0 91 68 158t173 67q104 0 172.5 -67t68.5 -158q0 -92 -68 -161t-173 -69zM-278 1354q28 0 47.5 20.5t19.5 51.5q0 26 -20 45t-47 19q-28 0 -47.5 -18.5t-19.5 -45.5q0 -31 19.5 -51.5t47.5 -20.5z" />
    <glyph glyph-name="uni030B" unicode="&#x30b;" 
d="M-18 1577l-234 -383h-239l201 383h272zM315 1577l-234 -383h-239l201 383h272z" />
    <glyph glyph-name="uni030C" unicode="&#x30c;" 
d="M-28 1577l-294 -383h-199l-289 383h263l126 -169l130 169h263z" />
    <glyph glyph-name="uni0326" unicode="&#x326;" 
d="M-40 6l-250 -455h-208l154 455h304z" />
    <glyph glyph-name="uni0327" unicode="&#x327;" 
d="M-300 -384q-142 0 -261 107l-20 18l106 171l19 -21q70 -77 146 -77q52 0 52 46q0 55 -87 109q-33 20 -82 43l-74 32l-45 19l224 68l7 -3l6 -3q52 -18 83 -34q85 -43 136 -107t51 -147q0 -99 -74.5 -160t-186.5 -61z" />
    <glyph glyph-name="uni0328" unicode="&#x328;" 
d="M-314 -380q-113 0 -187 60.5t-74 159.5q0 86 55 150t145 106q28 14 81 31l6 3l8 3l208 -70l-44 -17q-102 -42 -154 -75q-87 -56 -87 -108q0 -46 54 -46q75 0 144 78l19 22l106 -175l-10 -9q-127 -113 -270 -113z" />
    <glyph glyph-name="uni0335" unicode="&#x335;" 
d="M-40 775v-230h-866v230h866z" />
    <glyph glyph-name="uni0336" unicode="&#x336;" 
d="M-47 769v-220h-1371v220h1371z" />
    <glyph glyph-name="Wgrave" unicode="&#x1e80;" horiz-adv-x="2212" 
d="M1206 2106l240 -446h-342l-281 446h383zM1105 883l-260 -883h-322l-454 1512h367l250 -861l247 861h344l247 -859l250 859h369l-455 -1512h-323z" />
    <glyph glyph-name="wgrave" unicode="&#x1e81;" horiz-adv-x="1842" 
d="M992 1718l239 -445h-340l-280 445h381zM922 508l-165 -508h-283l-406 1111h372l170 -507l161 507h299l160 -505l172 505h371l-407 -1111h-282z" />
    <glyph glyph-name="Wacute" unicode="&#x1e82;" horiz-adv-x="2212" 
d="M1457 2096l-281 -446h-342l241 446h382zM1105 883l-260 -883h-322l-454 1512h367l250 -861l247 861h344l247 -859l250 859h369l-455 -1512h-323z" />
    <glyph glyph-name="wacute" unicode="&#x1e83;" horiz-adv-x="1842" 
d="M1277 1732l-276 -445h-342l239 445h379zM922 508l-165 -508h-283l-406 1111h372l170 -507l161 507h299l160 -505l172 505h371l-407 -1111h-282z" />
    <glyph glyph-name="Wdieresis" unicode="&#x1e84;" horiz-adv-x="2212" 
d="M874 1653q-84 0 -134.5 52.5t-50.5 120.5q0 67 51 118.5t134 51.5q81 0 131.5 -52t50.5 -118q0 -67 -49.5 -120t-132.5 -53zM1304 1653q-84 0 -134.5 52.5t-50.5 120.5q0 67 51 118.5t134 51.5q81 0 131.5 -52t50.5 -118q0 -67 -49.5 -120t-132.5 -53zM1105 883
l-260 -883h-322l-454 1512h367l250 -861l247 861h344l247 -859l250 859h369l-455 -1512h-323z" />
    <glyph glyph-name="wdieresis" unicode="&#x1e85;" horiz-adv-x="1842" 
d="M700 1183q-84 0 -134.5 52.5t-50.5 120.5q0 67 51 118.5t134 51.5q81 0 131.5 -52t50.5 -118q0 -67 -49.5 -120t-132.5 -53zM1130 1183q-84 0 -134.5 52.5t-50.5 120.5q0 67 51 118.5t134 51.5q81 0 131.5 -52t50.5 -118q0 -67 -49.5 -120t-132.5 -53zM922 508l-165 -508
h-283l-406 1111h372l170 -507l161 507h299l160 -505l172 505h371l-407 -1111h-282z" />
    <glyph glyph-name="endash" unicode="&#x2013;" horiz-adv-x="1370" 
d="M1180 716v-298h-990v298h990z" />
    <glyph glyph-name="emdash" unicode="&#x2014;" horiz-adv-x="1817" 
d="M1627 716v-298h-1437v298h1437z" />
    <glyph glyph-name="quoteleft" unicode="&#x2018;" horiz-adv-x="769" 
d="M559 1490l-89 -595h-280l158 595h211z" />
    <glyph glyph-name="quoteright" unicode="&#x2019;" horiz-adv-x="769" 
d="M559 1490l-158 -595h-211l88 595h281z" />
    <glyph glyph-name="quotesinglbase" unicode="&#x201a;" horiz-adv-x="769" 
d="M559 305l-158 -594h-211l88 594h281z" />
    <glyph glyph-name="quotedblleft" unicode="&#x201c;" horiz-adv-x="1102" 
d="M559 1490l-89 -595h-280l158 595h211zM892 1490l-88 -595h-280l158 595h210z" />
    <glyph glyph-name="quotedblright" unicode="&#x201d;" horiz-adv-x="1102" 
d="M559 1490l-158 -595h-211l88 595h281zM892 1490l-158 -595h-210l88 595h280z" />
    <glyph glyph-name="quotedblbase" unicode="&#x201e;" horiz-adv-x="1102" 
d="M559 305l-158 -594h-211l88 594h281zM892 305l-158 -594h-210l88 594h280z" />
    <glyph glyph-name="dagger" unicode="&#x2020;" horiz-adv-x="1614" 
d="M986 835v-1182h-358v1182h-428v298h428v369h358v-369h428v-298h-428z" />
    <glyph glyph-name="daggerdbl" unicode="&#x2021;" horiz-adv-x="1614" 
d="M986 22v-369h-358v369h-428v298h428v515h-428v298h428v369h358v-369h428v-298h-428v-515h428v-298h-428z" />
    <glyph glyph-name="bullet" unicode="&#x2022;" horiz-adv-x="1008" 
d="M506 483q-94 0 -163.5 43.5t-101 104t-31.5 124.5q0 101 80.5 184t215.5 83q70 0 127.5 -25t92.5 -65t54 -87t19 -93q0 -101 -78.5 -185t-214.5 -84z" />
    <glyph glyph-name="ellipsis" unicode="&#x2026;" horiz-adv-x="1894" 
d="M568 370v-370h-358v370h358zM1126 370v-370h-357v370h357zM1685 370v-370h-359v370h359z" />
    <glyph glyph-name="guilsinglleft" unicode="&#x2039;" horiz-adv-x="1077" 
d="M551 566l357 -425h-423l-355 425l355 426h423z" />
    <glyph glyph-name="guilsinglright" unicode="&#x203a;" horiz-adv-x="1077" 
d="M948 566l-357 -425h-421l355 425l-355 426h421z" />
    <glyph glyph-name="Euro" unicode="&#x20ac;" horiz-adv-x="1774" 
d="M1072 -23q-128 0 -238.5 40t-190 109t-135 154.5t-86.5 184.5h-342l76 259h223v15h-244l78 259h198q28 105 82 195.5t134 164.5t195 116.5t250 42.5q173 0 309.5 -74.5t219.5 -204.5q37 -59 63 -132l10 -27l-268 -127l-7 20q-30 81 -55 123q-100 163 -272 163
q-120 0 -208.5 -75t-137.5 -185h543l-77 -259h-515v-15h536l-77 -259h-400q48 -101 133 -164t203 -63q174 0 273 160q29 47 55 123l7 20l267 -127l-10 -26q-27 -78 -63 -132q-82 -128 -220 -203.5t-309 -75.5z" />
    <glyph glyph-name="trademark" unicode="&#x2122;" horiz-adv-x="2240" 
d="M786 1225v-829h-332v829h-264v277h1037l273 -376l277 376h273v-1106h-331v492l-158 -212h-125l-153 210v-490h-331v829h-166z" />
    <glyph glyph-name="partialdiff" unicode="&#x2202;" horiz-adv-x="1377" 
d="M690 -22q-124 0 -228 35.5t-174.5 94.5t-119.5 136t-71.5 159t-22.5 165q0 86 24 168.5t76 158t125 133t178.5 91.5t229.5 34q63 0 105 -5q-127 188 -326 188q-51 0 -119 -20q-37 -10 -120 -42l-37 -14l-58 298l22 6l41 15q164 56 273 56q105 0 202.5 -30.5t175.5 -82.5
t138.5 -112t108.5 -129q189 -272 189 -624q0 -163 -46 -292q-29 -80 -76.5 -147.5t-115.5 -122.5t-164 -86t-210 -31zM690 278q70 0 124 37t83 94.5t43.5 118t14.5 117.5q0 72 -17 164q-118 46 -231 46q-140 0 -212.5 -84t-72.5 -205q0 -69 28.5 -133t91.5 -109.5t148 -45.5
z" />
    <glyph glyph-name="summation" unicode="&#x2211;" horiz-adv-x="1315" 
d="M1185 298v-298h-1035v214l350 538l-350 536v214h1035v-299h-603l293 -451l-294 -454h604z" />
    <glyph glyph-name="minus" unicode="&#x2212;" horiz-adv-x="1470" 
d="M1230 906v-307h-990v307h990z" />
    <glyph glyph-name="uni2215" unicode="&#x2215;" horiz-adv-x="1132" 
d="M1136 1502l-712 -1502h-384l713 1502h383z" />
    <glyph glyph-name="uni2219" unicode="&#x2219;" horiz-adv-x="1135" 
d="M568 422q-86 0 -156.5 30.5t-113 80t-65.5 106.5t-23 115q0 57 23.5 114t67 105t113.5 78t154 30q85 0 155.5 -30.5t113.5 -79.5t66 -106.5t23 -114.5t-23 -114t-66 -105.5t-113.5 -78.5t-155.5 -30z" />
    <glyph glyph-name="radical" unicode="&#x221a;" horiz-adv-x="1784" 
d="M1363 1203l-535 -1203h-279l-369 838h355l154 -358l439 1022h476v-299h-241z" />
    <glyph glyph-name="integral" unicode="&#x222b;" horiz-adv-x="1048" 
d="M253 -356q-82 0 -175 26l-20 6v281l37 -6q73 -11 80 -12q39 -6 78 -6q45 0 67 28t22 75v1095q0 58 16 113.5t50.5 106.5t84 89t121.5 60.5t158 22.5q38 0 89 -7l106 -19v-283l-35 5q-124 14 -160 14q-46 0 -69 -27.5t-23 -74.5v-1095q0 -73 -26 -141t-76 -125t-134 -91.5
t-191 -34.5z" />
    <glyph glyph-name="approxequal" unicode="&#x2248;" horiz-adv-x="1616" 
d="M399 368l-159 -154v763l6 7q156 156 370 156q100 0 229 -55q72 -30 85 -34q43 -15 75 -15q107 0 212 99l158 152v-760l-7 -6l-3 -4l-6 -9q-23 -25 -49 -43q-128 -101 -307 -101q-74 0 -128 15.5t-130 49.5q-85 38 -135 38q-54 0 -111 -28.5t-100 -70.5zM1005 663
q86 0 176 68q36 29 74 67l8 8q-119 -68 -260 -68q-119 0 -251 61q-51 23 -71 30q-35 12 -71 12q-55 0 -111.5 -28.5t-100.5 -70.5l-57 -55q119 79 275 79q101 0 230 -55q10 -4 27.5 -11.5t31.5 -13t26 -9.5q40 -14 74 -14z" />
    <glyph glyph-name="notequal" unicode="&#x2260;" horiz-adv-x="1470" 
d="M821 385l-53 -179h-354l53 179h-227v308h314l35 119h-349v308h437l53 178h353l-52 -178h199v-308h-287l-34 -119h321v-308h-409z" />
    <glyph glyph-name="lessequal" unicode="&#x2264;" horiz-adv-x="1401" 
d="M1232 298v-298h-1064v298h893l-847 464v214l973 533v-351l-520 -290l520 -287v-283h45z" />
    <glyph glyph-name="greaterequal" unicode="&#x2265;" horiz-adv-x="1361" 
d="M1232 298v-298h-1064v298h48v283l517 287l-517 290v351l973 -533v-214l-846 -464h889z" />
    <glyph glyph-name="uniF8FF" unicode="&#xf8ff;" horiz-adv-x="1860" 
d="M1800 1630v-1869h-1740v1869h1740zM321 205h198v344h687v183h-687v491h687v176h-890v-1186q0 -2 1 -3q0 -5 4 -5zM1338 390h-685v-185h888v1194h-203v-334h-685v-190h685v-485zM1037 -26q11 0 29 4q8 6 12 6q9 0 9 9q0 1 1.5 4.5t1.5 5.5t0.5 5.5t0.5 5.5q0 10 -1 14
l-3 8l-9 9q-5 5 -8 5l-10 2q-13 3 -14 4q-8 5 -13 5t-8 4q-3 6 -3 8q0 10 12 10q7 0 10 -1q2 -1 5.5 -2t5.5 -2q3 -2 5.5 -3t4 -1.5t2.5 -0.5q8 -3 10 -4l14 27q-4 4 -26 11q-15 5 -28 5q-14 0 -26 -6q-1 -1 -5.5 -2.5t-5.5 -2.5q-6 -6 -8 -9q-6 -9 -6 -23q0 -4 2 -10
q1 -5 4 -9t7 -7l7 -5q4 -3 11 -3q2 0 6.5 -2t7.5 -2l6 -1q1 0 2 -1t2.5 -2t2.5 -2l7 -5q4 -3 4 -6q0 -9 -5 -10q-10 -2 -13 -2q-9 0 -24 6q-12 5 -23 14l-13 -26q14 -12 29 -16l6 -2q5 -1 9 -2q10 -2 16 -2zM499 -27q33 0 51 18t21 51q2 20 -11 36q-9 12 -10 13
q-10 10 -13 12q-12 8 -38 8q-17 0 -36 -8q-19 -13 -26 -25q-10 -17 -10 -36q0 -21 10 -35q9 -20 25 -27q15 -7 37 -7zM1349 -27q18 0 30 7q16 10 24 19l-20 19q-4 -4 -17 -10q-5 -4 -17 -4q-11 0 -17 5l-7 6q-1 0 -7 9q-4 5 -4 20q0 13 4 20l14 12q6 5 17 5q12 0 17 -5
q13 -4 17 -12l18 23q-1 2 -10 11q-7 7 -11 7q-8 0 -15 3q-9 3 -16 3q-31 0 -50 -18q-20 -19 -20 -51q0 -23 8 -35q11 -17 27 -27q13 -7 35 -7zM419 107h-98v-130h35v47h59v26h-59v31h63v26zM620 107h-31v-130h33v78l60 -78h31v130h-33v-77zM725 81h42v-104h34v104h39v26
h-115v-26zM919 107h-36l-57 -130h35l10 22h57l9 -22h38zM1098 81h40v-104h34v104h41v26h-115v-26zM1260 107h-33v-130h33v130zM1495 107h-36l-58 -130h38l8 22h61l6 -22h37zM500 2q-16 0 -27 12q-10 11 -10 28q0 13 5 20q1 1 2 3t2 3.5t2 2.5l7 5q7 5 19 5q9 0 19 -5
q9 -5 12 -14q0 -1 2 -4.5t2 -5.5v-20q0 -5 -4 -10q-2 -2 -4 -5l-3 -4.5t-2.5 -3t-2.5 -1.5q-18 -6 -19 -6zM901 73l16 -48h-36zM1476 73l17 -48h-36zM1031 -413q-13 0 -17 4q-10 3 -13 12l-2 6q0 1 -1 2q0 1 -1 3l7 2q4 1 8 1l2 -3q9 -13 17 -13q3 0 9 3t6 7q0 5 -3 8
q-2 2 -17 6q-18 4 -20 7q-8 13 -5 22q5 13 19 16q0 3 13 2q14 -2 20 -9q7 -3 7 -15v-3h-16v3q-5 11 -13 11q-1 0 -2 -1h-3q-9 -5 -9 -11l17 -6q16 -6 23 -13t7 -14q0 -4 -9 -18q-4 -6 -11 -8q-4 -1 -13 -1zM635 -414q-24 0 -33 22q-4 10 -4 20q0 15 3 22q1 3 10 12q5 5 13 8
q6 2 14 2q30 0 36 -29q3 -15 0 -27t-14 -22q-9 -8 -25 -8zM1281 -413q-24 0 -38 27q-3 7 -2 15l2 14q6 21 26 27q2 0 4 1t6 1q15 0 25 -10q5 -5 6 -8l2 -6l-8 -3l-6 -2q-3 0 -4 4q-4 11 -15 11q-9 0 -15 -8q-6 -7 -6 -16q0 -1 0.5 -5t0.5 -7q0 -5 3 -10q4 -11 16 -11
q11 0 16 13l2 5l8 -2q8 -3 8 -4l-2 -6q-11 -20 -29 -20zM1540 -413q-12 0 -20 6q-8 5 -12 14q-10 19 0 45q1 3 5 6.5t5 4.5q4 5 12 7q2 2 13 2q1 0 13 -3q2 -1 10 -8q5 -5 7 -9l1 -4q-2 -2 -9 -3l-8 -2q-1 1 -2 4q-4 9 -14 9q-12 0 -16 -9q-4 -10 -4 -19q0 -11 4 -19
q5 -8 16 -8t16 13q0 3 2 3v2l9 -3l5 -2v-3q0 -2 -2 -6l-3 -7q-11 -11 -28 -11zM112 -377l-8 -36h-9l-9 2l-19 79q0 2 8 2h9l11 -53q2 1 2 5q0 9 5 19q7 15 7 24l2 5h18l8 -27l6 -26q1 0 3 9l3 17q2 4 4 12.5t3 12.5q0 2 7 2q10 0 10 -2q-4 -10 -8 -32q-1 -5 -3.5 -13.5
t-3.5 -12.5l-4 -18v-5h-18v5l-4 10l-6 20l-6 25zM241 -381l-8 -32h-15q-2 2 -4 2l-3 12l-6 28l-6 27l-3 12q0 2 8 2h8q1 0 1 -2q1 -2 1 -7q4 -9 4 -18l6 -26l14 53h20q2 0 2 -2l7 -27l5 -27l13 54q0 2 7 2q9 0 9 -2q0 -1 -0.5 -4.5t-0.5 -5.5l-3 -15q-2 -10 -5 -15l-11 -41
h-7l-9 2l-9 30q0 1 -1 5.5t-1 5.5q0 2 -4 9q0 6 -1 9q-2 -6 -2 -9q-3 -6 -3 -9q0 -8 -3 -11zM377 -353l-15 -58l-10 -2q-8 0 -9 4l-2 12q-1 6 -7 27q-2 6 -4 16t-2 12l-3 12h16l5 -27l8 -26l3 9l11 44h19l8 -27q3 -24 8 -27q0 4 1 7q-1 2 3 20l6 27h8q9 0 9 -2q0 -1 -1 -4.5
t-1 -5.5q0 -3 -2 -15q0 -3 -2 -8t-3 -7l-11 -39l-7 -2h-10l-8 32l-5 21zM526 -393l-1 -18h-15v79q0 2 4 2h52v-14h-40v-19h33v-14h-33v-16zM727 -359v-54h-16v83h16l32 -53v53h15v-81l-7 -2h-8zM849 -344v-69h-17v69h-23v14h65v-14h-25zM907 -411l-8 -2h-7q0 2 -2 2l3 9
l9 22l11 26q1 2 3.5 10t4.5 12q0 2 7 2h9l33 -81q-2 0 -2 -2h-5l-11 2l-6 19h-32zM1135 -344v-69h-17v69h-25v14h65v-14h-23zM1206 -330v-83h-15v83h15zM1358 -411l-9 -2h-6l-2 2q2 3 4 9l7 22q5 14 10 26q2 4 5 11.5t4 10.5q0 2 9 2h9l32 -81q-2 0 -2 -2h-7l-9 2l-7 19h-31
zM1646 -413q-21 0 -30 12q-10 13 -10 29q0 7 8 25q6 14 19 17q17 0 37 -6q14 -4 14 -34q0 -20 -8 -31q-9 -12 -30 -12zM1735 -411l-8 -2h-7v83h25l6 -27l5 -18q2 -6 2 -8l7 24q2 6 4 12.5t3 10t1 4.5v2h26v-83h-17v63l-6 -28l-6 -21l-2 -10v-4h-10l-7 2l-6 30l-10 29v-59z
M637 -399q20 0 20 16v24q0 3 -10 13q-4 4 -9 4q-10 0 -18 -8q-2 -2 -4 -8q-1 -3 -1 -14q0 -12 7 -20q5 -7 15 -7zM1646 -399q7 0 10 4q11 5 11 23q0 21 -11 26q-2 1 -4 3q-1 1 -5 1q-15 0 -18 -9t-3 -21q0 -16 2 -19q5 -8 18 -8zM1377 -358l-8 -20h22l-5 14q-3 6 -3 7
q0 2 -1 3l-1 2zM930 -352l-5 -6l-6 -20h20q-2 5 -4 14q-3 6 -3 7q0 2 -1 3zM471 -395v-16h-16v16h16zM1468 -403l-1 -8h-14v16h15v-8z" />
    <glyph glyph-name="G.ss01" horiz-adv-x="1678" 
d="M875 -23q-254 0 -437.5 122t-273.5 312q-74 155 -74 344q0 191 74 345q43 91 108.5 167.5t153.5 137t203 94.5t246 34q185 0 338 -69.5t259 -190.5q87 -102 111 -169l5 -16l-302 -156l-14 26l-33 60q-18 32 -37 57q-57 72 -141.5 114.5t-185.5 42.5q-146 0 -246.5 -77
t-145.5 -198q-34 -92 -34 -202q0 -113 34 -201q47 -121 146.5 -198t245.5 -77q180 0 295 117l42 48l10 12l6 8q0 2 -0.5 9t-0.5 10l-1 29l1 53h-441v299h790v-451q0 -14 -9 -34q-10 -23 -18 -37q-27 -46 -37 -60q-99 -145 -262 -225t-375 -80z" />
    <glyph glyph-name="Q.ss01" horiz-adv-x="1751" 
d="M1566 -69v-299h-298q-217 0 -364.5 100t-189.5 262q-206 38 -350.5 160.5t-212.5 286.5q-61 147 -61 314q0 172 64 320q41 95 105.5 176t153.5 145t208 100.5t254 36.5t254 -36.5t209 -100.5t155.5 -145t105.5 -176q63 -147 63 -320q0 -167 -61 -315q-64 -155 -198 -274
t-325 -164q62 -71 190 -71h298zM875 279q148 0 247 76.5t146 198.5q34 92 34 201q0 110 -34 202q-46 121 -146.5 198t-246.5 77q-142 0 -240 -73t-146 -190q-40 -95 -40 -214q0 -114 40 -213q48 -117 145.5 -190t240.5 -73z" />
    <glyph glyph-name="g.001" horiz-adv-x="1338" 
d="M678 -392q-146 0 -270.5 59t-200.5 157q-43 56 -73 124l-7 16l272 145q-146 71 -227.5 206t-81.5 276q0 76 23 152t71.5 146.5t116 124.5t164 86.5t208.5 32.5q127 0 235 -47v25h339v-989q0 -75 -22.5 -148t-70 -139.5t-113.5 -117t-160 -80t-203 -29.5zM673 347
q113 0 174 72t61 172q0 98 -62.5 171t-174.5 73t-172.5 -72.5t-60.5 -171.5q0 -100 60.5 -172t174.5 -72zM675 -94q81 0 138.5 38.5t80.5 102.5q8 18 11 45q-108 -44 -232 -44t-230 41l15 -33q33 -71 84.5 -110.5t132.5 -39.5z" />
    <glyph glyph-name="uni030C.alt" 
d="M-41 1495l-46 -556h-239l-47 556h332z" />
    <glyph glyph-name="uni0335.alt" 
d="M-41 788v-249h-709v249h709z" />
    <glyph glyph-name="_FSHallmark" horiz-adv-x="1728" 
d="M1668 1375v-190h-1604v190h1604zM1322 287q-75 0 -132 18q-98 25 -161 98.5t-63 173.5l186 -4q0 -8 12 -32q3 -25 26.5 -49t47.5 -31q33 -20 92 -20q67 0 104 22q34 20 34 52q0 59 -152 88q-134 39 -234 88q-96 48 -96 158q0 86 55 137.5t149 86.5q2 0 52 7t80 7
q75 0 180 -38q68 -24 109 -85.5t41 -134.5h-192q0 42 -50 78q-5 1 -20.5 9t-25.5 9q-7 1 -22.5 5.5t-23.5 4.5q-44 0 -90 -28q-38 -23 -38 -58q0 -63 36 -78q2 -1 20 -9t32.5 -12.5t29.5 -6.5l72 -20l58 -14q7 -1 27 -6.5t31 -5.5q37 -9 44 -14l40 -18q38 -24 62 -52
q22 -51 24 -88q3 -41 -20 -94q-80 -144 -324 -144zM274 545v-258h-210v798h674v-180h-464v-182h388v-178h-388zM816 291q-32 0 -62 30q-34 28 -34 64t30 66q26 26 66 26q47 0 78 -28q32 -29 32 -64q0 -38 -32 -70q-36 -24 -78 -24zM1666 189v-190h-1606v190h1606z" />
    <glyph glyph-name="_Fontastica" horiz-adv-x="1338" 
d="M262 536v-340h-196q-3 0 -4.5 2t-1.5 4v2v1178h884v-174h-682v-490h682v-182h-682zM1278 1382v-1186h-884v184h682v482h-682v188h682v332h202zM252 2q-9 0 -36 8q-15 4 -25.5 22.5t-10.5 35.5q0 28 21.5 47t50.5 19q21 0 32.5 -7.5t25.5 -26.5q10 -13 10 -32
q0 -28 -20 -47t-48 -19zM770 2q-35 0 -60 20l14 26q20 -20 46 -20q16 0 16 12q0 1 -2 3.5t-2 4.5l-6 4q-6 0 -14 4q-5 3 -13 3.5t-11 2.5q-20 13 -20 34q0 38 52 38q24 0 52 -14l-14 -28q-16 16 -50 16q-2 0 -2 -2l-2 -8q0 -1 1 -3t1 -3q0 -2 1.5 -3.5l2.5 -2.5h2
q3 0 7.5 -2t6.5 -2q15 0 30.5 -12.5t15.5 -27.5q0 -19 -16 -29.5t-36 -10.5zM1068 2q-18 0 -34 8q-15 7 -24.5 24t-9.5 34q0 14 10.5 33.5t23.5 24.5q20 8 34 8q18 0 30 -6t22 -16l-20 -24q-3 5 -13.5 11.5t-16.5 6.5q-18 0 -30 -18q-4 -6 -4 -20q0 -24 16 -32q12 -6 18 -6
q5 0 16.5 6t13.5 10l20 -20q-18 -24 -52 -24zM112 50v-46h-34v128h96v-26h-62v-30h58v-26h-58zM368 80v-76h-32v128h30l58 -78v78h32v-128h-30zM542 104v-100h-34v100h-38v28h108v-28h-36zM608 28l-8 -24h-34l54 128h34l54 -128h-36l-8 24h-56zM898 104v-100h-32v100h-38v28
h108v-28h-38zM984 132v-128h-34v128h34zM1164 28l-10 -24h-34l56 128h34l54 -128h-36l-10 24h-54zM252 28q14 0 24 12.5t10 27.5q0 13 -10.5 25.5t-23.5 12.5q-8 0 -20 -6q-16 -8 -16 -32q0 -17 9.5 -28.5t26.5 -11.5zM654 52l-18 46l-18 -46h36zM1208 52l-18 46l-16 -46h34
z" />
    <glyph glyph-name="_www.fontastica.com" horiz-adv-x="3906" 
d="M132 627v-120h-68l-4 2v418h316v-62h-244v-174h244v-64h-244zM494 927v-420h-316v64h244v172h-244v66h244v118h72zM2500 541q-41 0 -86.5 15.5t-75.5 40.5l36 72q22 -19 61 -36.5t65 -17.5q16 0 32 8q14 7 14 22t-10 20q-18 12 -58 24q-55 17 -62 20q-26 11 -40 30
q-14 20 -14 56q0 53 40.5 80.5t97.5 27.5q74 0 140 -40l-34 -72q-70 36 -114 36q-36 0 -36 -24q0 -27 66 -44q45 -10 62 -20q28 -16 40 -32q16 -22 16 -58q0 -54 -41 -81t-99 -27zM1086 539q-79 0 -133.5 51.5t-54.5 130.5t54 129.5t134 50.5t134 -50.5t54 -129.5
t-53.5 -130.5t-134.5 -51.5zM3312 539q-77 0 -129.5 52.5t-52.5 129.5q0 78 53.5 129t132.5 51q86 0 140 -60l-52 -64q-34 46 -86 46q-43 0 -69.5 -28.5t-26.5 -71.5q0 -33 12 -52q31 -50 84 -50q46 0 86 40l54 -56q-66 -66 -146 -66zM708 671v-124h-90v348h260v-72h-170
v-78h156v-74h-156zM1406 755v-208h-86v348h80l160 -210l-2 210h86v-348h-80zM1876 821v-274h-90v274h-104v74h300v-74h-106zM2062 607l-24 -60h-94l150 348h94l146 -348h-96l-24 60h-152zM2852 821v-274h-92v274h-104v74h300v-74h-104zM3084 895v-348h-90v348h90zM3574 607
l-24 -60h-94l150 348h94l146 -348h-98l-22 60h-152zM1088 617q40 0 67 31.5t27 72.5q0 15 -14 52q-19 50 -80 50q-43 0 -69.5 -29t-26.5 -73q0 -42 27 -73t69 -31zM2186 677l-46 126l-50 -126h96zM3698 677l-48 126l-48 -126h96z" />
    </font>
</defs>
</svg>
