<?xml version="1.0" standalone="no"?>
<!DOCTYPE svg PUBLIC "-//W3C//DTD SVG 1.1//EN" "http://www.w3.org/Graphics/SVG/1.1/DTD/svg11.dtd" >
<svg xmlns="http://www.w3.org/2000/svg" xmlns:xlink="http://www.w3.org/1999/xlink" version="1.1">
<metadata>
Created by FontForge 20170731 at Mon Jan 25 21:51:28 2021
 By Aleksey,,,
Copyright (c) 2021 by Fontastica. All rights reserved.
</metadata>
<defs>
<font id="LuxoraGrotesk-MediumItalic" horiz-adv-x="1258" >
  <font-face 
    font-family="Luxora Grotesk Medium"
    font-weight="500"
    font-style="italic"
    font-stretch="normal"
    units-per-em="2048"
    panose-1="0 0 6 0 0 0 0 0 0 0"
    ascent="1638"
    descent="-410"
    x-height="1081"
    cap-height="1500"
    bbox="-1567 -449 3846 2069"
    underline-thickness="50"
    underline-position="-150"
    slope="-9"
    unicode-range="U+000D-F8FF"
  />
<missing-glyph horiz-adv-x="1347" 
d="M1299 1500l-238 -1500h-1151l238 1500h1151zM915 1289h-448l168 -341zM1008 1073l-268 -322l166 -320zM465 751l-161 315l-100 -628zM744 214l-171 341l-281 -342z" />
    <glyph glyph-name=".notdef" horiz-adv-x="1347" 
d="M1299 1500l-238 -1500h-1151l238 1500h1151zM915 1289h-448l168 -341zM1008 1073l-268 -322l166 -320zM465 751l-161 315l-100 -628zM744 214l-171 341l-281 -342z" />
    <glyph glyph-name=".null" horiz-adv-x="0" 
 />
    <glyph glyph-name="nonmarkingreturn" horiz-adv-x="682" 
 />
    <glyph glyph-name="CR" unicode="&#xd;" horiz-adv-x="333" 
 />
    <glyph glyph-name="space" unicode=" " horiz-adv-x="486" 
 />
    <glyph glyph-name="exclam" unicode="!" horiz-adv-x="663" 
d="M464 1490l-184 -1090h-243l163 1090h264zM275 305l-48 -305h-263l48 305h263z" />
    <glyph glyph-name="quotedbl" unicode="&#x22;" horiz-adv-x="1006" 
d="M473 1490l-94 -595h-263l94 595h263zM796 1490l-94 -595h-262l94 595h262z" />
    <glyph glyph-name="numbersign" unicode="#" horiz-adv-x="1586" 
d="M360 363l-164 -363h-267l165 363h-212l36 231h280l136 301h-213l36 230h280l165 365h267l-165 -365h286l164 365h267l-165 -365h212l-36 -230h-280l-136 -301h213l-36 -231h-280l-165 -363h-267l165 363h-286zM887 895h-287l-136 -301h286z" />
    <glyph glyph-name="dollar" unicode="$" horiz-adv-x="1331" 
d="M557 -18l-26 -168h-243l28 181q-126 29 -218 106t-138 185q-19 43 -33 113l-5 28l253 101l3 -20q38 -208 176 -272l67 419q-97 28 -149 58q-111 60 -161.5 156.5t-31.5 216.5q26 164 157.5 279t318.5 139l31 194h243l-32 -201q151 -36 246.5 -137t121.5 -241l3 -14
l-254 -107l-4 21q-33 181 -151 236l-66 -417l48 -15q174 -55 259 -155t59 -262q-27 -172 -166 -286.5t-336 -137.5zM461 910l57 361q-72 -19 -118 -64t-56 -110q-20 -125 117 -187zM653 584l-59 -367q81 16 135 61.5t65 114.5q12 75 -24 119t-117 72z" />
    <glyph glyph-name="percent" unicode="%" horiz-adv-x="2099" 
d="M475 751q-113 0 -195.5 55.5t-117 142t-19.5 183.5q12 72 51 140.5t97.5 121.5t138 85.5t165.5 32.5q85 0 154.5 -33t110.5 -86.5t58.5 -121.5t6.5 -139q-24 -150 -152.5 -265.5t-297.5 -115.5zM1534 1490l-926 -1490h-284l927 1490h283zM512 983q61 0 110.5 46t58.5 103
t-26 103t-96 46t-111.5 -46t-59.5 -103q-9 -58 27 -103.5t97 -45.5zM1266 -23q-113 0 -195 55t-115.5 141t-18.5 183q11 71 50.5 139.5t97.5 122t137.5 86t164.5 32.5q86 0 155.5 -32.5t111.5 -85.5t59.5 -121.5t5.5 -140.5q-23 -150 -152.5 -264.5t-300.5 -114.5zM1303 208
q62 0 111.5 45t58.5 103t-26 103t-97 45q-61 0 -111.5 -45.5t-59.5 -102.5t27 -102.5t97 -45.5z" />
    <glyph glyph-name="ampersand" unicode="&#x26;" horiz-adv-x="1882" 
d="M430 -23q-134 0 -235 52t-149.5 146.5t-29.5 213.5q12 79 48 145.5t93.5 119t121.5 92.5t148 79q-114 156 -89 311q25 157 161.5 266.5t315.5 109.5q175 0 271.5 -105t72.5 -259q-11 -68 -43.5 -126t-84.5 -104t-107.5 -80.5t-127.5 -68.5l204 -246l266 215h318
l-450 -374l303 -364h-335l-164 200q-129 -105 -249.5 -164t-258.5 -59zM660 931q53 23 88.5 41.5t75 45t62.5 59.5t29 71q11 68 -24.5 110.5t-108.5 42.5q-76 0 -133 -48t-68 -117q-15 -90 79 -205zM467 208q81 0 162.5 42t174.5 114l-245 297l-44 -20q-211 -95 -236 -252
q-14 -86 37 -133.5t151 -47.5z" />
    <glyph glyph-name="quotesingle" unicode="'" horiz-adv-x="682" 
d="M473 1490l-94 -595h-263l94 595h263z" />
    <glyph glyph-name="parenleft" unicode="(" horiz-adv-x="900" 
d="M501 -207l30 -54h-250l-11 13q-54 75 -90 145q-162 317 -99 718q64 399 326 717q59 70 136 144l14 14h253l-49 -55q-77 -90 -123 -152q-240 -327 -294 -668q-53 -343 82 -670q26 -61 75 -152z" />
    <glyph glyph-name="parenright" unicode=")" horiz-adv-x="901" 
d="M73 -255l-8 -6h-252l26 28q174 185 290.5 407t150.5 441q55 345 -83 668q-24 62 -75 152l-30 55h251l10 -14q62 -89 91 -144q162 -315 98 -717q-62 -400 -325 -718q-46 -56 -137 -145z" />
    <glyph glyph-name="asterisk" unicode="*" horiz-adv-x="1104" 
d="M580 693l-123 198l-185 -198l-175 139l183 199l-211 74l109 223l212 -73l37 235h248l-37 -235l237 72l38 -222l-236 -74l122 -199z" />
    <glyph glyph-name="plus" unicode="+" horiz-adv-x="1290" 
d="M635 627l-51 -322h-252l51 322h-330l38 239h330l51 321h252l-51 -321h328l-38 -239h-328z" />
    <glyph glyph-name="comma" unicode="," horiz-adv-x="773" 
d="M375 305l-245 -528h-211l174 528h282z" />
    <glyph glyph-name="hyphen" unicode="-" horiz-adv-x="1157" 
d="M836 667l-37 -230h-776l37 230h776z" />
    <glyph glyph-name="period" unicode="." horiz-adv-x="682" 
d="M285 305l-48 -305h-263l48 305h263z" />
    <glyph glyph-name="slash" unicode="/" horiz-adv-x="1053" 
d="M1013 1490l-926 -1490h-283l927 1490h282z" />
    <glyph glyph-name="zero" unicode="0" horiz-adv-x="1510" 
d="M516 -23q-92 0 -169.5 25t-133 68t-97 102t-65.5 125t-35 140q-20 137 6 309q27 175 100 326q44 91 105 168t140 139t179.5 97.5t211.5 35.5t200.5 -35.5t149 -97.5t96.5 -139t52 -168q24 -144 -4 -326q-28 -180 -100 -327q-44 -91 -105 -168.5t-139.5 -140t-179.5 -98
t-212 -35.5zM554 217q66 0 126.5 26t106.5 71t81 97t61 112q42 97 62 223q20 124 6 234q-8 58 -26.5 108t-50.5 93t-83 67.5t-116 24.5q-85 0 -160 -44.5t-123.5 -107t-84.5 -141.5q-47 -104 -68 -234q-19 -120 -8 -222q7 -60 25 -112t50 -97.5t83.5 -71.5t118.5 -26z" />
    <glyph glyph-name="one" unicode="1" horiz-adv-x="889" 
d="M590 1490l-236 -1490h-264l199 1259h-266l37 231h530z" />
    <glyph glyph-name="two" unicode="2" horiz-adv-x="1278" 
d="M959 230l-36 -230h-1033l26 162l11 10l467 412q23 20 48.5 43.5t56.5 52.5t48 45q52 50 83 82t70.5 79.5t62 93.5t29.5 92q16 100 -31.5 155t-158.5 55q-231 0 -344 -233l-9 -21l-206 100l6 14q76 164 237 267t352 103q213 0 329.5 -126t86.5 -314q-10 -62 -42 -128
t-67.5 -116t-96.5 -114t-99 -100t-106 -96l-323 -288h639z" />
    <glyph glyph-name="three" unicode="3" horiz-adv-x="1289" 
d="M400 -23q-192 0 -320 102.5t-156 266.5l-3 14l234 100l10 -37q8 -30 18 -55q33 -74 98.5 -117t155.5 -43q123 0 206 74t101 186q18 110 -43.5 184t-183.5 74q-38 0 -138 -13l-23 -2l29 174l358 373l-601 1l37 231h934l-31 -197l-344 -357q100 -33 167.5 -108t92.5 -168.5
t9 -191.5q-33 -208 -202.5 -349.5t-404.5 -141.5z" />
    <glyph glyph-name="four" unicode="4" horiz-adv-x="1347" 
d="M880 328l-52 -328h-244l52 328h-740l30 187l922 975h216l-149 -941h183l-35 -221h-183zM671 549l83 526l-494 -526h411z" />
    <glyph glyph-name="five" unicode="5" horiz-adv-x="1316" 
d="M413 -23q-192 0 -319 96t-168 258l-2 15l-3 14l229 102l5 -20q20 -102 100 -168t195 -66q128 0 216.5 76.5t107.5 192.5q18 117 -47 192.5t-194 75.5q-82 0 -155.5 -34t-118.5 -96l-12 -17l-157 92l208 802h837l-36 -231h-628l-82 -312q88 29 186 29q160 0 273.5 -67.5
t161.5 -181t26 -252.5q-34 -214 -206.5 -357t-416.5 -143z" />
    <glyph glyph-name="six" unicode="6" horiz-adv-x="1224" 
d="M372 -23q-119 0 -211 42.5t-144 113.5t-72 162t-4 191q17 110 93 238q38 65 148 218l403 548h297l-404 -533q26 3 50 3q109 0 199.5 -42t145.5 -111t79.5 -158t9.5 -181q-15 -97 -66 -186t-126.5 -156.5t-179.5 -108t-218 -40.5zM409 208q114 0 194 76.5t97 183.5
q17 106 -38.5 182t-170.5 76q-114 0 -193.5 -75.5t-96.5 -182.5t38.5 -183.5t169.5 -76.5z" />
    <glyph glyph-name="seven" unicode="7" horiz-adv-x="1117" 
d="M1026 1301l-815 -1301h-279l793 1261h-681l36 231h976z" />
    <glyph glyph-name="eight" unicode="8" horiz-adv-x="1327" 
d="M423 -23q-233 0 -366.5 134t-101.5 340q18 110 87 208.5t178 162.5q-112 114 -85 281q28 175 180.5 292t350.5 117q202 0 315.5 -115.5t85.5 -293.5q-27 -165 -173 -281q89 -63 127.5 -162t20.5 -209q-32 -205 -208.5 -339.5t-410.5 -134.5zM573 924q87 0 152 50.5
t78 128.5q12 78 -36.5 128.5t-136.5 50.5t-153.5 -51t-77.5 -128q-13 -77 36.5 -128t137.5 -51zM460 208q121 0 212.5 68.5t107.5 174.5q17 107 -52 175t-191 68q-121 0 -211.5 -68.5t-107.5 -174.5q-16 -106 52.5 -174.5t189.5 -68.5z" />
    <glyph glyph-name="nine" unicode="9" horiz-adv-x="1224" 
d="M805 548l-401 -548h-297l403 533q-24 -3 -50 -3q-109 0 -199 42t-145.5 111t-80 158t-9.5 181q21 130 100 241t208.5 180t280.5 69q120 0 212 -42.5t144 -114t72 -162.5t4 -191q-17 -111 -93 -237q-46 -78 -149 -217zM497 764q114 0 194 75.5t97 182.5q17 106 -39 183
t-170 77t-193.5 -76.5t-96.5 -183.5t38 -182.5t170 -75.5z" />
    <glyph glyph-name="colon" unicode=":" horiz-adv-x="682" 
d="M412 1104l-49 -306h-263l49 306h263zM285 305l-48 -305h-263l48 305h263z" />
    <glyph glyph-name="semicolon" unicode=";" horiz-adv-x="792" 
d="M511 1104l-49 -306h-264l49 306h264zM395 305l-245 -528h-211l174 528h282z" />
    <glyph glyph-name="less" unicode="&#x3c;" horiz-adv-x="1229" 
d="M375 750l517 -324l-42 -268l-814 501l29 182l972 500l-42 -268z" />
    <glyph glyph-name="equal" unicode="=" horiz-adv-x="1390" 
d="M1087 1090l-38 -240h-910l38 240h910zM1016 643l-38 -240h-910l38 240h910z" />
    <glyph glyph-name="greater" unicode="&#x3e;" horiz-adv-x="1189" 
d="M958 841l-29 -182l-972 -501l42 268l621 324l-518 323l42 268z" />
    <glyph glyph-name="question" unicode="?" horiz-adv-x="1223" 
d="M513 468l-11 -68h-263l11 68q10 62 35.5 117.5t66 103.5t76 82t87.5 77l84 70q47 40 73 67q69 72 81 144q11 73 -30 113t-125 40q-163 0 -258 -137q-15 -22 -42 -76l-20 -41l-205 100l12 28q75 158 220.5 257t328.5 99q191 0 299.5 -107.5t82.5 -275.5q-9 -57 -34 -109
t-66 -99.5t-75 -79.5t-88 -77q-4 -3 -35.5 -30t-47.5 -41q-43 -36 -73 -71q-72 -79 -84 -154zM492 305l-48 -305h-262l48 305h262z" />
    <glyph glyph-name="at" unicode="@" horiz-adv-x="1925" 
d="M708 -124q-257 0 -442.5 127t-250.5 339q-51 166 -21 352q30 189 134 351q133 211 358.5 339t480.5 128q253 0 437.5 -129.5t251.5 -339.5q53 -167 24 -349q-10 -63 -31 -123.5t-58.5 -120.5t-86 -104.5t-119.5 -72.5t-154 -28q-157 0 -226 100q-121 -89 -281 -89
q-82 0 -150.5 25t-113.5 68t-75.5 100t-37 121.5t1.5 132.5q13 84 56.5 163.5t108.5 143.5t157 103t194 39q125 0 210 -63l7 44h229q-139 149 -380 149q-187 0 -346 -92.5t-250 -249.5q-67 -112 -88 -246q-21 -137 10 -247q41 -157 171 -249.5t317 -92.5q165 0 330 81l21 10
l77 -200l-15 -9l-17 -9q-206 -102 -433 -102zM1281 473q61 0 101 79q30 59 44 142q21 135 -9 246q-29 109 -97 184l-88 -556q-7 -39 3 -67q13 -28 46 -28zM766 485q92 0 157 65.5t79 154.5q14 87 -31 150t-137 63q-91 0 -154.5 -64t-77.5 -151t30 -152.5t134 -65.5z" />
    <glyph glyph-name="A" unicode="A" horiz-adv-x="1549" 
d="M336 393l-204 -393h-278l802 1500h242l326 -1500h-279l-78 393h-531zM819 624l-102 500l-260 -500h362z" />
    <glyph glyph-name="B" unicode="B" horiz-adv-x="1346" 
d="M505 0h-651l238 1500h651q204 0 312 -119.5t79 -298.5q-28 -177 -173 -293q79 -63 111.5 -156.5t16.5 -196.5q-32 -205 -191 -320.5t-393 -115.5zM694 1270h-375l-60 -380h375q92 0 152.5 49.5t73.5 132.5t-32 140.5t-134 57.5zM609 659h-387l-67 -428h387q114 0 187 53
t89 152q16 101 -40 162t-169 61z" />
    <glyph glyph-name="C" unicode="C" horiz-adv-x="1601" 
d="M602 -24q-233 0 -394 116.5t-218 310.5q-47 158 -17 347q29 189 127 346q117 194 315.5 310t431.5 116q216 0 368.5 -101t225.5 -275l6 -15l5 -15l-246 -120l-6 19q-37 123 -141 199t-249 76q-163 0 -295 -87t-206 -230q-53 -103 -72 -223q-19 -121 1 -223
q29 -143 133.5 -230.5t267.5 -87.5q145 0 268 72.5t208 195.5l12 18l204 -123l-9 -14q-122 -173 -314.5 -277.5t-405.5 -104.5z" />
    <glyph glyph-name="D" unicode="D" horiz-adv-x="1420" 
d="M362 -2h-508l238 1502h508q158 0 285 -56q83 -37 147.5 -94t103.5 -125t62.5 -147.5t24.5 -161.5t-10 -166q-23 -144 -88.5 -275.5t-184.5 -244.5t-275 -174q-147 -58 -303 -58zM397 225q72 0 155 27q113 37 200 118t135.5 177t65.5 203q17 114 -3 215
q-29 140 -129 224.5t-258 84.5h-248l-166 -1048q42 0 124.5 -0.5t123.5 -0.5z" />
    <glyph glyph-name="E" unicode="E" horiz-adv-x="1210" 
d="M921 231l-37 -231h-1030l238 1500h1030l-37 -230h-766l-60 -380h671l-37 -231h-671l-67 -428h766z" />
    <glyph glyph-name="F" unicode="F" horiz-adv-x="1210" 
d="M222 659l-104 -659h-264l238 1500h1030l-37 -230h-766l-60 -380h671l-37 -231h-671z" />
    <glyph glyph-name="G" unicode="G" horiz-adv-x="1601" 
d="M602 -24q-243 0 -405.5 124.5t-213.5 329.5q-37 147 -10 320q27 170 111 318q116 206 317.5 330t445.5 124q215 0 368.5 -101t225.5 -275l6 -15l5 -15l-246 -120l-6 19q-39 124 -142 199.5t-248 75.5q-152 0 -277.5 -77t-204.5 -207q-69 -115 -91 -256q-22 -138 10 -255
q37 -130 139 -208t253 -78q195 0 347 126q17 14 64 61l10 10l10 8l7 7l26 171h-494l36 231h741l-130 -823h-245l14 88q-201 -112 -423 -112z" />
    <glyph glyph-name="H" unicode="H" horiz-adv-x="1365" 
d="M222 659l-104 -659h-264l238 1500h264l-97 -610h658l97 610h263l-238 -1500h-263l104 659h-658z" />
    <glyph glyph-name="I" unicode="I" horiz-adv-x="444" 
d="M356 1500l-238 -1500h-264l238 1500h264z" />
    <glyph glyph-name="J" unicode="J" horiz-adv-x="1279" 
d="M401 -17q-130 0 -229 41t-155.5 112.5t-78 167t-3.5 206.5l5 35h265l-5 -35q-19 -120 45 -206.5t193 -86.5q125 0 217 81.5t110 196.5l159 999h266l-159 -999q-23 -146 -105.5 -261.5t-219 -183t-305.5 -67.5z" />
    <glyph glyph-name="K" unicode="K" horiz-adv-x="1388" 
d="M202 529l-84 -529h-264l238 1500h264l-97 -609l659 609h327l-620 -577l437 -923h-308l-339 727z" />
    <glyph glyph-name="L" unicode="L" horiz-adv-x="1210" 
d="M921 231l-37 -231h-1030l238 1500h264l-201 -1269h766z" />
    <glyph glyph-name="M" unicode="M" horiz-adv-x="1557" 
d="M275 990l-157 -990h-264l238 1500h220l363 -666l574 666h220l-238 -1500h-263l156 987l-478 -554h-69z" />
    <glyph glyph-name="N" unicode="N" horiz-adv-x="1365" 
d="M276 999l-158 -999h-264l238 1500h220l544 -993l158 993h263l-238 -1500h-220z" />
    <glyph glyph-name="O" unicode="O" horiz-adv-x="1684" 
d="M602 -24q-240 0 -402.5 123t-215.5 325q-39 152 -11 326q27 174 114 325q116 202 318 324.5t442 122.5q247 0 411 -128t212 -338q33 -143 8 -306q-27 -165 -105 -308q-114 -209 -319.5 -337.5t-451.5 -128.5zM639 209q163 0 294 87t207 231q54 100 73 223q19 121 -2 223
q-30 143 -134 230t-267 87q-159 0 -288 -83.5t-205 -221.5q-61 -109 -80 -235q-21 -129 5 -236q33 -139 135.5 -222t261.5 -83z" />
    <glyph glyph-name="P" unicode="P" horiz-adv-x="1269" 
d="M204 545l-86 -545h-264l238 1500h547q243 0 371.5 -132.5t94.5 -345.5q-34 -214 -204.5 -345.5t-413.5 -131.5h-283zM602 1270h-283l-78 -493h283q125 0 209.5 68t101.5 179q17 110 -46 178t-187 68z" />
    <glyph glyph-name="Q" unicode="Q" horiz-adv-x="1684" 
d="M1093 131l116 -276l-245 -119l-114 277q-125 -37 -248 -37q-228 0 -387.5 112t-220.5 300q-53 167 -21 362q30 196 136 361q120 188 315 299.5t423 111.5q227 0 388 -111.5t221 -299.5q52 -166 22 -361q-28 -180 -125.5 -344t-259.5 -275zM639 209q61 0 125 14l-166 403
l226 133l177 -413q172 153 212 404q19 121 -2 223q-30 143 -134 230t-267 87t-294.5 -87t-206.5 -230q-53 -103 -72 -223q-19 -121 1 -223q30 -143 134 -230.5t267 -87.5z" />
    <glyph glyph-name="R" unicode="R" horiz-adv-x="1346" 
d="M204 545l-86 -545h-264l238 1500h547q243 0 371.5 -132.5t94.5 -345.5q-22 -138 -109 -251t-231 -172l255 -599h-305l-232 545h-279zM602 1270h-283l-78 -493h283q125 0 209.5 68t101.5 179q17 110 -46 178t-187 68z" />
    <glyph glyph-name="S" unicode="S" horiz-adv-x="1329" 
d="M474 -24q-178 0 -313.5 82.5t-196.5 223.5q-22 48 -36 119l-6 29l256 101l3 -20q49 -302 330 -302q110 0 193.5 49t97.5 138q13 83 -26.5 125.5t-134.5 73.5q-41 13 -124.5 37.5t-124.5 37.5q-166 53 -250.5 160t-60.5 264q30 190 195.5 310t382.5 120q160 0 285 -70.5
t188 -192.5q22 -42 41 -119l5 -28l-255 -107l-4 21q-20 121 -92 192.5t-202 71.5q-109 0 -187 -49t-92 -139q-12 -75 33.5 -126.5t131.5 -77.5q44 -14 125 -38t110 -33q371 -112 322 -420q-21 -131 -108 -230.5t-213.5 -151t-272.5 -51.5z" />
    <glyph glyph-name="T" unicode="T" horiz-adv-x="1233" 
d="M714 1270l-201 -1270h-263l201 1270h-396l37 230h1053l-37 -230h-394z" />
    <glyph glyph-name="U" unicode="U" horiz-adv-x="1308" 
d="M414 -24q-259 0 -389 142t-94 370l161 1012h266l-161 -1012q-18 -119 52 -199t202 -80q130 0 227 81t115 198l161 1012h266l-161 -1012q-36 -227 -211.5 -369.5t-433.5 -142.5z" />
    <glyph glyph-name="V" unicode="V" horiz-adv-x="1549" 
d="M1462 1500l-802 -1500h-242l-326 1500h278l230 -1114l583 1114h279z" />
    <glyph glyph-name="W" unicode="W" horiz-adv-x="2170" 
d="M1018 1066l-476 -1066h-248l-202 1500h270l131 -1047l459 1047h270l128 -1044l463 1044h270l-679 -1500h-248z" />
    <glyph glyph-name="X" unicode="X" horiz-adv-x="1439" 
d="M568 531l-420 -531h-294l601 764l-347 736h297l237 -503l396 503h298l-585 -736l362 -764h-295z" />
    <glyph glyph-name="Y" unicode="Y" horiz-adv-x="1529" 
d="M770 687l-109 -687h-263l109 687l-415 813h297l289 -564l465 564h298z" />
    <glyph glyph-name="Z" unicode="Z" horiz-adv-x="1323" 
d="M1034 231l-37 -231h-1143l25 156l951 1114h-726l37 230h1077l-25 -156l-952 -1113h793z" />
    <glyph glyph-name="bracketleft" unicode="[" horiz-adv-x="841" 
d="M491 99l-37 -229h-491l278 1750h491l-37 -230h-228l-204 -1291h228z" />
    <glyph glyph-name="backslash" unicode="\" horiz-adv-x="1053" 
d="M323 1490l454 -1490h-282l-455 1490h283z" />
    <glyph glyph-name="bracketright" unicode="]" horiz-adv-x="841" 
d="M642 1620l-278 -1750h-491l37 229h229l204 1291h-229l37 230h491z" />
    <glyph glyph-name="asciicircum" unicode="^" horiz-adv-x="1333" 
d="M613 1151l-247 -358h-286l486 697h202l265 -697h-287z" />
    <glyph glyph-name="underscore" unicode="_" horiz-adv-x="1027" 
d="M777 99l-37 -229h-967l37 229h967z" />
    <glyph glyph-name="grave" unicode="`" horiz-adv-x="553" 
d="M339 1642l139 -383h-238l-174 383h273z" />
    <glyph glyph-name="a" unicode="a" horiz-adv-x="1101" 
d="M259 -23q-177 0 -277.5 95.5t-76.5 251.5q22 135 139 219t279 119l325 70q5 67 -46.5 104.5t-136.5 37.5q-182 0 -205 -131q0 -3 -1 -8t-1 -8l-2 -18l-254 -3l6 36q22 139 117 229.5t254 119.5q65 13 122 13q198 0 307 -105t82 -280l-114 -719h-244l10 66
q-134 -89 -283 -89zM296 206q123 0 209 81.5t104 196.5l5 32l-262 -57q-74 -16 -130 -51t-64 -85q-9 -57 29.5 -87t108.5 -30z" />
    <glyph glyph-name="b" unicode="b" horiz-adv-x="1273" 
d="M389 -24q-167 0 -283 78l-9 -54h-243l236 1490h243l-73 -461q143 79 308 79q176 0 295.5 -88.5t159.5 -236.5q31 -112 10 -242q-20 -129 -86 -241q-87 -148 -234.5 -236t-323.5 -88zM426 208q72 0 134.5 28.5t105.5 76.5t70.5 106.5t37.5 121.5q6 50 4 98.5t-20 91.5
t-46.5 75t-75 51t-104.5 19q-73 0 -135.5 -28.5t-105.5 -77t-71 -107t-38 -122.5q-12 -62 -0.5 -121.5t38 -106.5t80.5 -76t126 -29z" />
    <glyph glyph-name="c" unicode="c" horiz-adv-x="1234" 
d="M404 -24q-179 0 -299 91.5t-158 241.5q-28 107 -7 232q19 125 81 233q84 150 233.5 242t328.5 92q129 0 232 -51t165 -144q11 -16 38 -71l14 -28l-240 -130l-7 19q-29 79 -88.5 126t-149.5 47q-96 0 -173 -50t-119.5 -124t-56.5 -161q-6 -50 -4 -98t20.5 -90.5t47 -74.5
t75 -51t104.5 -19q89 0 167 47.5t126 124.5l13 20l199 -131l-23 -28q-48 -57 -61 -70q-91 -93 -209.5 -144t-248.5 -51z" />
    <glyph glyph-name="d" unicode="d" horiz-adv-x="1273" 
d="M404 -24q-177 0 -296 88t-158 236q-30 112 -10 241q21 133 86 242q86 148 233 236.5t324 88.5q165 0 283 -79l73 461h244l-236 -1490h-244l9 54q-141 -78 -308 -78zM441 208q95 0 172 49.5t120 123.5t57 160q6 50 4 98.5t-20.5 91.5t-47 75t-75 51t-104.5 19
q-96 0 -173 -50t-119.5 -124t-56.5 -161q-6 -50 -4 -98t20.5 -90.5t47 -74.5t75 -51t104.5 -19z" />
    <glyph glyph-name="e" unicode="e" horiz-adv-x="1288" 
d="M404 -24q-168 0 -286 81.5t-162 219.5q-40 123 -16 264q22 144 100 265q88 138 231.5 220t311.5 82t286.5 -82t163.5 -220q38 -123 16 -265l-13 -73l-3 -18h-840q9 -105 72.5 -173.5t175.5 -68.5q89 0 166.5 47.5t126.5 124.5l13 20l199 -131l-23 -28q-36 -47 -74 -84
q-91 -87 -206 -134t-239 -47zM237 671h554q-16 91 -79 148t-165 57t-183.5 -57t-126.5 -148z" />
    <glyph glyph-name="f" unicode="f" horiz-adv-x="901" 
d="M432 850l-135 -850h-243l135 850h-200l36 231h200l9 55q11 72 46 137t88 116t129 81t163 30q78 0 136 -17l14 -4l-34 -217l-25 6q-52 13 -112 13q-69 0 -110.5 -39.5t-51.5 -105.5l-9 -55h244l-36 -231h-244z" />
    <glyph glyph-name="g" unicode="g" horiz-adv-x="1262" 
d="M339 -411q-132 0 -239.5 55t-165.5 152q-24 40 -37 81l-10 28l238 119l5 -21q22 -85 83.5 -134.5t158.5 -49.5t178 47.5t124 129.5q21 40 31 92l9 46q-141 -84 -307 -84q-119 0 -215.5 44.5t-154.5 118.5t-83 169t-9 195q17 103 71 198t134.5 168t191.5 117t232 44
q167 0 278 -87l10 64h244l-157 -994q-16 -101 -68.5 -191.5t-131.5 -158.5t-185.5 -108t-224.5 -40zM444 281q135 0 226.5 85.5t111.5 210.5q20 124 -46.5 210.5t-200.5 86.5q-135 0 -225.5 -86t-111.5 -211q-20 -126 45 -211t201 -85z" />
    <glyph glyph-name="h" unicode="h" horiz-adv-x="1088" 
d="M200 649l-103 -649h-243l236 1490h243l-69 -434q105 47 218 47q200 0 309.5 -114.5t82.5 -290.5l-111 -698h-245l103 649q15 98 -28.5 161.5t-145.5 63.5q-103 0 -167.5 -64t-79.5 -161z" />
    <glyph glyph-name="i" unicode="i" horiz-adv-x="423" 
d="M333 1490l-48 -304h-243l48 304h243zM268 1081l-171 -1081h-243l171 1081h243z" />
    <glyph glyph-name="j" unicode="j" horiz-adv-x="692" 
d="M602 1490l-48 -304h-244l48 304h244zM-65 -411q-58 0 -128 15l-15 3l34 215l22 -3q86 -11 116 -11q63 0 102 41t49 104l178 1128h244l-178 -1128q-25 -152 -138.5 -258t-285.5 -106z" />
    <glyph glyph-name="k" unicode="k" horiz-adv-x="1137" 
d="M148 324l-51 -324h-243l236 1490h243l-132 -834l474 425h307l-494 -448l299 -633h-285l-211 454z" />
    <glyph glyph-name="l" unicode="l" horiz-adv-x="423" 
d="M333 1490l-236 -1490h-243l236 1490h243z" />
    <glyph glyph-name="m" unicode="m" horiz-adv-x="1711" 
d="M200 649l-103 -649h-243l171 1081h243l-4 -25q102 47 212 47q210 0 301 -129q72 64 169 97t197 33q125 0 212.5 -58t122.5 -149.5t18 -197.5l-111 -699h-243l103 651q15 96 -26 159.5t-140 63.5q-97 0 -158.5 -64t-76.5 -159l-103 -651h-244l103 651q12 72 -11 130.5
t-85 80.5q-31 12 -63 12q-26 0 -65 -12q-75 -22 -119.5 -80t-56.5 -133z" />
    <glyph glyph-name="n" unicode="n" horiz-adv-x="1088" 
d="M200 649l-103 -649h-243l171 1081h243l-4 -25q105 47 218 47q200 0 309.5 -114.5t82.5 -290.5l-111 -698h-245l103 649q15 98 -28.5 161.5t-145.5 63.5q-103 0 -167.5 -64t-79.5 -161z" />
    <glyph glyph-name="o" unicode="o" horiz-adv-x="1288" 
d="M404 -24q-177 0 -297 90t-159 239q-29 108 -8 236q17 108 69.5 208.5t132.5 181t195 129t246 48.5q182 0 303 -94.5t157 -248.5q25 -105 6 -224q-21 -128 -84 -236q-86 -149 -235 -239t-326 -90zM441 208q95 0 172 49.5t120 123.5t57 160q6 50 4 98.5t-20.5 91.5t-47 75
t-75 51t-104.5 19q-96 0 -173 -50t-119.5 -124t-56.5 -161q-6 -50 -4 -98t20.5 -90.5t47 -74.5t75 -51t104.5 -19z" />
    <glyph glyph-name="p" unicode="p" horiz-adv-x="1273" 
d="M105 53l-73 -461h-243l236 1489h243l-8 -54q141 80 308 80q176 0 295.5 -88.5t159.5 -236.5q31 -112 10 -242t-87 -241q-86 -147 -233.5 -235.5t-323.5 -88.5q-166 0 -284 78zM426 207q72 0 134.5 28.5t105 76.5t70.5 106t38 122q6 50 4 98.5t-20 91.5t-46.5 75t-75 51
t-104.5 19q-73 0 -135.5 -28.5t-105.5 -77t-71 -107t-38 -122.5q-14 -86 6 -160t81.5 -123.5t156.5 -49.5z" />
    <glyph glyph-name="q" unicode="q" horiz-adv-x="1273" 
d="M1118 1081l-236 -1489h-244l73 461q-140 -78 -307 -78q-176 0 -295.5 88.5t-159.5 235.5q-29 113 -9 241q21 133 86 242q86 148 233 236.5t324 88.5q166 0 283 -80l8 54h244zM441 207q140 0 233.5 99t115.5 234q6 50 4 98.5t-20.5 91.5t-47 75t-75 51t-104.5 19
q-96 0 -173 -50t-119.5 -124t-56.5 -161q-14 -86 5.5 -160t81 -123.5t156.5 -49.5z" />
    <glyph glyph-name="r" unicode="r" horiz-adv-x="765" 
d="M200 649l-103 -649h-243l171 1081h243l-4 -25q105 47 218 47q60 0 114 -12l15 -3l-37 -236l-23 5q-16 2 -54 11q-25 6 -50 6q-103 0 -167.5 -64t-79.5 -161z" />
    <glyph glyph-name="s" unicode="s" horiz-adv-x="1078" 
d="M329 -23q-170 0 -281 89.5t-141 234.5l-3 14l233 109l10 -40q22 -81 76 -128.5t143 -47.5q65 0 115 27.5t59 77.5q6 38 -30 62q-24 18 -82 35l-152 45q-129 39 -194 118t-46 200q24 150 148.5 240.5t294.5 90.5q160 0 264.5 -85t129.5 -222l3 -14l-235 -104l-4 22
q-12 77 -62 126t-132 49q-59 0 -102 -24.5t-50 -68.5q-6 -38 19.5 -60.5t79.5 -41.5q25 -9 78.5 -25.5t80.5 -25.5q278 -90 242 -321q-16 -101 -85 -178t-167 -115.5t-210 -38.5z" />
    <glyph glyph-name="t" unicode="t" horiz-adv-x="871" 
d="M406 -12q-176 0 -250 95.5t-49 251.5l82 515h-200l36 231h200l52 324h243l-52 -324h244l-36 -231h-244l-82 -515q-11 -70 13 -102.5t99 -32.5q21 0 93 9l24 3l-34 -209l-16 -3q-69 -12 -123 -12z" />
    <glyph glyph-name="u" unicode="u" horiz-adv-x="1088" 
d="M306 -21q-200 0 -309.5 114.5t-81.5 290.5l110 697h243l-103 -649q-15 -97 29 -160t146 -63q103 0 167 63t79 160l103 649h245l-171 -1081h-245l4 25q-106 -46 -216 -46z" />
    <glyph glyph-name="v" unicode="v" horiz-adv-x="1271" 
d="M1116 1081l-615 -1081h-205l-271 1081h272l163 -700l384 700h272z" />
    <glyph glyph-name="w" unicode="w" horiz-adv-x="1788" 
d="M765 660l-314 -660h-211l-215 1081h273l111 -657l307 657h226l99 -654l320 654h272l-559 -1081h-209z" />
    <glyph glyph-name="x" unicode="x" 
d="M448 344l-302 -344h-292l478 540l-307 541h292l194 -345l300 345h292l-477 -541l306 -540h-292z" />
    <glyph glyph-name="y" unicode="y" horiz-adv-x="1309" 
d="M1153 1081l-862 -1492h-267l263 470l-262 1022h276l179 -698l397 698h276z" />
    <glyph glyph-name="z" unicode="z" horiz-adv-x="1050" 
d="M760 230l-36 -230h-870l28 178l635 672h-497l36 231h837l-28 -177l-635 -674h530z" />
    <glyph glyph-name="braceleft" unicode="{" horiz-adv-x="834" 
d="M504 -31l-36 -230h-121q-152 0 -226.5 89t-53.5 223l57 361q13 86 -53 86h-108l36 230h108q68 0 81 86l57 363q22 133 124.5 223t254.5 90h121l-37 -231h-121q-30 0 -51.5 -21t-26.5 -52q-10 -64 -29.5 -191t-29.5 -190q-19 -112 -102 -192q59 -81 41 -190l-3 -15
l-58 -365q-5 -33 9 -53.5t46 -20.5h121z" />
    <glyph glyph-name="bar" unicode="|" horiz-adv-x="782" 
d="M553 1677l-322 -2032h-263l322 2032h263z" />
    <glyph glyph-name="braceright" unicode="}" horiz-adv-x="834" 
d="M-68 -261h-119l36 230h119q31 0 53 21t27 53q10 63 29.5 189t29.5 189q16 110 101 192q-58 85 -41 188q1 4 2 11t2 10l58 364q5 33 -10 53t-47 20h-119l37 231h119q153 0 227.5 -89.5t52.5 -223.5l-57 -363q-13 -86 52 -86h110l-36 -230h-110q-67 0 -80 -86l-57 -361
q-21 -134 -123.5 -223t-255.5 -89z" />
    <glyph glyph-name="asciitilde" unicode="~" horiz-adv-x="1428" 
d="M754 559q-103 0 -201 69q-47 34 -65 44q-33 18 -60 18q-39 0 -66 -30.5t-39 -77.5l-4 -17h-236l11 38q15 61 41.5 113.5t68 100t104 75.5t139.5 28q105 0 202 -69q55 -38 65 -44q34 -18 60 -18q34 0 59 35q12 19 19 37q4 8 10 23t6 16l5 14h234l-10 -38
q-16 -61 -40.5 -112t-64 -100t-100.5 -77t-138 -28z" />
    <glyph glyph-name="uni00A0" unicode="&#xa0;" horiz-adv-x="330" 
 />
    <glyph glyph-name="exclamdown" unicode="&#xa1;" horiz-adv-x="663" 
d="M402 1104l-49 -306h-263l49 306h263zM329 704l-162 -1090h-264l183 1090h243z" />
    <glyph glyph-name="cent" unicode="&#xa2;" horiz-adv-x="1194" 
d="M508 -13l-37 -232h-242l38 238q-80 20 -143.5 61.5t-103.5 96t-65.5 121.5t-28.5 138t6 144q30 192 166 350t346 206l38 238h242l-37 -232q97 -19 173 -72.5t121 -130.5q16 -30 36 -82l9 -28l-237 -116l-6 20q-36 125 -134 168l-103 -647q110 43 188 169l12 19l201 -116
l-19 -28q-31 -45 -62 -82q-148 -164 -358 -203zM306 242l99 620q-89 -45 -147.5 -131t-73.5 -179q-14 -93 17 -179t105 -131z" />
    <glyph glyph-name="sterling" unicode="&#xa3;" horiz-adv-x="1651" 
d="M1204 230l-36 -230h-1137l36 230h229l64 401h-266l103 230h199l31 196q31 198 185.5 326.5t378.5 128.5q144 0 250.5 -62t160.5 -173q24 -50 38 -120l6 -28l-239 -102l-3 22q-15 106 -76 169.5t-173 63.5q-113 0 -181 -60.5t-85 -164.5l-31 -196h564l-104 -230h-496
l-64 -401h646z" />
    <glyph glyph-name="currency" unicode="&#xa4;" horiz-adv-x="1380" 
d="M274 183l-177 -151l-142 165l175 149q-42 97 -25 206q18 107 91 206l-129 147l195 166l130 -150q110 54 216 54q108 0 201 -54l176 150l142 -166l-175 -147q43 -101 25 -206q-17 -112 -89 -206l127 -149l-195 -165l-128 151q-108 -55 -218 -55t-200 55zM513 370
q78 0 138.5 54.5t71.5 127.5q12 72 -32 127.5t-121 55.5q-78 0 -139 -55t-73 -128t32 -127.5t123 -54.5z" />
    <glyph glyph-name="yen" unicode="&#xa5;" horiz-adv-x="1440" 
d="M661 287l-45 -287h-262l45 287h-439l37 230h439l8 50h-439l36 230h361l-352 693h296l286 -560l461 560h297l-571 -693h338l-36 -230h-415l-8 -50h415l-37 -230h-415z" />
    <glyph glyph-name="brokenbar" unicode="&#xa6;" horiz-adv-x="782" 
d="M553 1677l-127 -801h-263l127 801h263zM358 447l-127 -802h-263l127 802h263z" />
    <glyph glyph-name="section" unicode="&#xa7;" horiz-adv-x="1332" 
d="M453 -83q-170 0 -284 86t-148 229l-3 15l-3 14l236 106l5 -20l4 -19q22 -83 79.5 -132.5t149.5 -49.5q69 0 122 29t62 82q5 38 -27 62t-89 41q-30 9 -86.5 24t-72.5 20q-285 83 -248 325q24 140 136 224q-85 91 -65 224q24 153 151 244t302 91q126 0 222 -52.5
t146 -148.5q22 -43 35 -97l7 -29l-239 -102l-3 22q-12 78 -65.5 127.5t-138.5 49.5q-63 0 -108.5 -24.5t-52.5 -70.5q-11 -70 105 -109q28 -9 83 -25.5t83 -25.5q285 -92 248 -326q-22 -137 -144 -219q95 -92 73 -229q-25 -155 -160 -245.5t-312 -90.5zM613 599q3 1 16 4
t19 5q38 11 64.5 37.5t31.5 59.5q5 37 -28 62t-88 41l-123 35q-40 -14 -67 -42.5t-32 -62.5q-9 -56 66 -93q25 -12 75 -26q14 -5 36.5 -11.5t29.5 -8.5z" />
    <glyph glyph-name="dieresis" unicode="&#xa8;" horiz-adv-x="731" 
d="M175 1259q-74 0 -112 47.5t-28 111.5q9 63 63 109.5t127 46.5q62 0 100 -36t41 -89q20 53 69.5 89t110.5 36q70 0 109.5 -48t30.5 -108q-10 -62 -64 -110.5t-126 -48.5q-63 0 -100.5 36.5t-40.5 89.5q-19 -53 -68 -89.5t-112 -36.5z" />
    <glyph glyph-name="copyright" unicode="&#xa9;" horiz-adv-x="1975" 
d="M988 -23q-246 0 -442.5 131.5t-284.5 339.5q-61 141 -61 298q0 116 36 228.5t106 209t164.5 170.5t219 116t262.5 42q239 0 433 -126.5t285 -325.5q69 -150 69 -314q0 -169 -70 -318q-92 -200 -285 -325.5t-432 -125.5zM988 208q170 0 305 90t196 235q42 97 42 213
q0 138 -66.5 260t-193 199t-283.5 77q-158 0 -284.5 -76.5t-193.5 -198.5t-67 -261q0 -114 43 -213q61 -146 196 -235.5t306 -89.5zM997 305q-101 0 -185.5 37.5t-139 100t-84 141t-29.5 162.5t29.5 162.5t84 140.5t138.5 99t186 37q135 0 242 -71t144 -185l5 -14l-212 -101
l-7 21q-21 62 -64.5 100.5t-107.5 38.5q-95 0 -147 -67.5t-52 -160.5q0 -94 52 -162.5t147 -68.5q123 0 172 142l7 21l211 -105l-4 -13q-37 -114 -144 -184.5t-242 -70.5z" />
    <glyph glyph-name="ordfeminine" unicode="&#xaa;" horiz-adv-x="884" 
d="M258 670q-134 0 -209.5 71.5t-57.5 189.5q14 86 78 144t160 90l-173 94l17 28q59 97 161.5 156t219.5 59q146 0 226 -82.5t60 -211.5l-82 -523h-231l4 28q-84 -43 -173 -43zM261 1175q37 9 40 9l206 44q-2 29 -25.5 45t-61.5 16q-97 0 -159 -114zM300 876q67 0 116.5 45
t60.5 108l-151 -33q-86 -20 -94 -67q-4 -26 14 -39.5t54 -13.5z" />
    <glyph glyph-name="guillemotleft" unicode="&#xab;" horiz-adv-x="1395" 
d="M289 552l267 -404h-310l-265 404l393 404h310zM747 552l265 -404h-307l-267 404l395 404h307z" />
    <glyph glyph-name="uni00AD" unicode="&#xad;" horiz-adv-x="1157" 
d="M836 667l-37 -230h-776l37 230h776z" />
    <glyph glyph-name="registered" unicode="&#xae;" horiz-adv-x="1975" 
d="M988 -23q-246 0 -442.5 131.5t-284.5 339.5q-61 141 -61 298q0 116 36 228.5t106 209t164.5 170.5t219 116t262.5 42q239 0 433 -126.5t285 -325.5q69 -150 69 -314q0 -169 -70 -318q-92 -200 -285 -325.5t-432 -125.5zM988 208q187 0 331 108h-168l-161 285h-76v-285
h-238v860h350q147 0 236 -79.5t89 -208.5q0 -72 -31 -133.5t-94 -100.5l161 -276q144 150 144 368q0 138 -66.5 260t-193 199t-283.5 77q-158 0 -284.5 -76.5t-193.5 -198.5t-67 -261q0 -114 43 -213q62 -146 196.5 -235.5t305.5 -89.5zM1028 967h-114v-156h114
q40 0 62.5 21t22.5 56q0 36 -22.5 57.5t-62.5 21.5z" />
    <glyph glyph-name="macron" unicode="&#xaf;" horiz-adv-x="603" 
d="M550 1404l-33 -210h-524l33 210h524z" />
    <glyph glyph-name="degree" unicode="&#xb0;" horiz-adv-x="1116" 
d="M452 821q-154 0 -239.5 104t-63.5 240q21 137 138.5 242t273.5 105q78 0 141.5 -29.5t101.5 -78.5t54.5 -111.5t6.5 -127.5q-22 -136 -140.5 -240t-272.5 -104zM484 1036q53 0 98 39.5t53 89.5q8 52 -24 92t-86 40q-53 0 -95.5 -40.5t-50.5 -91.5q-8 -50 22 -89.5
t83 -39.5z" />
    <glyph glyph-name="plusminus" unicode="&#xb1;" horiz-adv-x="1290" 
d="M635 627l-51 -322h-252l51 322h-330l38 239h330l51 321h252l-51 -321h328l-38 -239h-328zM902 239l-38 -239h-910l38 239h910z" />
    <glyph glyph-name="acute" unicode="&#xb4;" horiz-adv-x="553" 
d="M565 1642l-294 -383h-240l262 383h272z" />
    <glyph glyph-name="uni00B5" unicode="&#xb5;" horiz-adv-x="1147" 
d="M122 13l-61 -386h-236l234 1477h236l-112 -709q-14 -88 24.5 -145.5t130.5 -57.5q128 0 240 78l132 834h236l-175 -1104h-236l5 30q-131 -53 -251 -53q-90 0 -167 36z" />
    <glyph glyph-name="paragraph" unicode="&#xb6;" horiz-adv-x="863" 
d="M694 1490l-265 -1676h-263l155 980q-131 22 -198.5 122.5t-47.5 223.5q14 88 69 167t146 131t196 52h208z" />
    <glyph glyph-name="periodcentered" unicode="&#xb7;" horiz-adv-x="682" 
d="M379 898l-48 -305h-263l48 305h263z" />
    <glyph glyph-name="cedilla" unicode="&#xb8;" horiz-adv-x="622" 
d="M24 -384q-141 0 -243 107l-18 18l132 170l16 -20q64 -77 134 -77q52 0 60 46q8 53 -70 109q-23 16 -75 43q-14 7 -37.5 17.5t-31.5 14.5l-42 19l235 68l12 -6q51 -19 77 -34q79 -43 120 -107t27 -147q-15 -99 -99 -160t-197 -61z" />
    <glyph glyph-name="ordmasculine" unicode="&#xba;" horiz-adv-x="1011" 
d="M376 670q-128 0 -217.5 60t-124.5 154.5t-18 203.5q17 108 82.5 201.5t174 153t235.5 59.5t216.5 -59.5t124.5 -153t18 -201.5q-12 -80 -53.5 -155t-104.5 -133.5t-150 -94t-183 -35.5zM410 884q84 0 144.5 60.5t73.5 141.5q13 80 -28.5 140.5t-125.5 60.5t-144 -60
t-73 -141t28 -141.5t125 -60.5z" />
    <glyph glyph-name="guillemotright" unicode="&#xbb;" horiz-adv-x="1395" 
d="M660 552l-395 -404h-308l393 404l-265 404h308zM1116 552l-393 -404h-309l395 404l-267 404h309z" />
    <glyph glyph-name="questiondown" unicode="&#xbf;" horiz-adv-x="1223" 
d="M808 1512l-48 -304h-263l48 304h263zM356 0q-191 0 -299.5 107.5t-81.5 275.5q17 108 82.5 190t184.5 180q61 50 82 68q43 38 73 72q47 52 61.5 89.5t27.5 113.5l2 17h263l-10 -68q-8 -50 -28 -97.5t-43.5 -83.5t-59.5 -75t-64 -64.5t-70 -60.5l-84 -69q-42 -35 -73 -68
q-70 -74 -81 -144q-12 -73 29 -113t125 -40q108 0 179 55.5t121 157.5l20 43l206 -102l-13 -28q-76 -159 -221 -257.5t-328 -98.5z" />
    <glyph glyph-name="Agrave" unicode="&#xc0;" horiz-adv-x="1506" 
d="M891 1995l141 -384h-240l-175 384h274zM314 393l-204 -393h-278l802 1500h242l326 -1500h-279l-78 393h-531zM797 624l-102 500l-260 -500h362z" />
    <glyph glyph-name="Aacute" unicode="&#xc1;" horiz-adv-x="1506" 
d="M1099 1995l-296 -384h-241l263 384h274zM314 393l-204 -393h-278l802 1500h242l326 -1500h-279l-78 393h-531zM797 624l-102 500l-260 -500h362z" />
    <glyph glyph-name="Acircumflex" unicode="&#xc2;" horiz-adv-x="1506" 
d="M799 1781l-155 -170h-264l352 384h200l235 -384h-264zM314 393l-204 -393h-278l802 1500h242l326 -1500h-279l-78 393h-531zM797 624l-102 500l-260 -500h362z" />
    <glyph glyph-name="Atilde" unicode="&#xc3;" horiz-adv-x="1506" 
d="M924 1611q-72 0 -144 45q-43 27 -45 28q-19 11 -35 11q-8 0 -17 -17q-10 -18 -14 -40l-3 -18h-221l7 37q10 44 32 85.5t55.5 77.5t82.5 57.5t105 21.5q70 0 143 -44q5 -3 21 -13.5t25 -14.5q19 -11 35 -11q9 0 17 17q5 9 9 22l6 22l5 15h217l-8 -36q-22 -98 -92 -171.5
t-181 -73.5zM314 393l-204 -393h-278l802 1500h242l326 -1500h-279l-78 393h-531zM797 624l-102 500l-260 -500h362z" />
    <glyph glyph-name="Adieresis" unicode="&#xc4;" horiz-adv-x="1506" 
d="M553 1597q-74 0 -112.5 47.5t-28.5 111.5q10 63 64.5 110t126.5 47t111 -47.5t29 -109.5q-10 -64 -63 -111.5t-127 -47.5zM979 1597q-74 0 -112.5 47.5t-28.5 111.5q10 63 64.5 110t126.5 47t111 -47.5t29 -109.5q-10 -64 -63 -111.5t-127 -47.5zM314 393l-204 -393h-278
l802 1500h242l326 -1500h-279l-78 393h-531zM797 624l-102 500l-260 -500h362z" />
    <glyph glyph-name="Aring" unicode="&#xc5;" horiz-adv-x="1506" 
d="M770 1611q-106 0 -163 69t-42 161q14 92 93 160t185 68q105 0 163.5 -68t44.5 -160q-15 -93 -95 -161.5t-186 -68.5zM793 1759q34 0 60.5 24.5t32.5 59.5q5 33 -14.5 55t-53.5 22q-33 0 -58 -21t-30 -56q-6 -35 13 -59.5t50 -24.5zM314 393l-204 -393h-278l802 1500h242
l326 -1500h-279l-78 393h-531zM797 624l-102 500l-260 -500h362z" />
    <glyph glyph-name="AE" unicode="&#xc6;" horiz-adv-x="1840" 
d="M336 393l-204 -393h-278l802 1500l1096 3l-36 -230h-765l-61 -380h670l-36 -231h-670l-68 -428h765l-37 -231h-1030l62 390h-210zM583 624l55 348l-181 -348h126z" />
    <glyph glyph-name="Ccedilla" unicode="&#xc7;" horiz-adv-x="1602" 
d="M498 -388q-140 0 -245 108l-17 18l133 172l15 -21q58 -78 135 -78q53 0 61 47q7 53 -61 109q-25 20 -37 21q-52 8 -56 9q-72 17 -132 46q-82 40 -145.5 99t-102 127.5t-61 149t-23.5 163t11 168.5q29 190 129 351q120 193 316.5 307t428.5 114q215 0 369 -101.5
t225 -274.5l6 -15l5 -15l-245 -120l-7 19q-40 124 -142 199.5t-248 75.5q-156 0 -283 -80t-204 -215q-65 -110 -86 -245q-22 -134 8 -247q34 -134 136 -214t258 -80q145 0 266.5 72t209.5 196l12 18l204 -123l-10 -14q-99 -138 -244 -235.5t-314 -130.5q47 -70 33 -156
q-16 -101 -100 -162.5t-198 -61.5z" />
    <glyph glyph-name="Egrave" unicode="&#xc8;" horiz-adv-x="1179" 
d="M685 1995l140 -384h-240l-173 384h273zM905 231l-37 -231h-1030l238 1500h1030l-37 -230h-766l-60 -380h671l-37 -231h-671l-67 -428h766z" />
    <glyph glyph-name="Eacute" unicode="&#xc9;" horiz-adv-x="1179" 
d="M1008 1995l-297 -384h-239l261 384h275zM905 231l-37 -231h-1030l238 1500h1030l-37 -230h-766l-60 -380h671l-37 -231h-671l-67 -428h766z" />
    <glyph glyph-name="Ecircumflex" unicode="&#xca;" horiz-adv-x="1179" 
d="M640 1783l-155 -170h-263l352 384h200l234 -384h-263zM905 231l-37 -231h-1030l238 1500h1030l-37 -230h-766l-60 -380h671l-37 -231h-671l-67 -428h766z" />
    <glyph glyph-name="Edieresis" unicode="&#xcb;" horiz-adv-x="1179" 
d="M409 1601q-74 0 -112.5 47.5t-28.5 111.5q9 62 63.5 109.5t127.5 47.5q72 0 110.5 -47.5t29.5 -109.5q-10 -64 -63 -111.5t-127 -47.5zM835 1601q-74 0 -112.5 47.5t-28.5 111.5q9 62 63.5 109.5t127.5 47.5q72 0 110.5 -47.5t29.5 -109.5q-10 -64 -63 -111.5t-127 -47.5
zM905 231l-37 -231h-1030l238 1500h1030l-37 -230h-766l-60 -380h671l-37 -231h-671l-67 -428h766z" />
    <glyph glyph-name="Igrave" unicode="&#xcc;" horiz-adv-x="456" 
d="M354 1995l141 -384h-240l-176 384h275zM364 1500l-238 -1500h-263l238 1500h263z" />
    <glyph glyph-name="Iacute" unicode="&#xcd;" horiz-adv-x="456" 
d="M557 1995l-296 -384h-240l263 384h273zM360 1500l-238 -1500h-263l238 1500h263z" />
    <glyph glyph-name="Icircumflex" unicode="&#xce;" horiz-adv-x="465" 
d="M273 1782l-156 -171h-263l352 385h200l235 -385h-264zM366 1500l-238 -1500h-264l238 1500h264z" />
    <glyph glyph-name="Idieresis" unicode="&#xcf;" horiz-adv-x="397" 
d="M12 1610q-74 0 -112.5 47.5t-28.5 111.5q10 63 64.5 110t126.5 47t111 -47.5t29 -109.5q-10 -64 -63 -111.5t-127 -47.5zM438 1610q-74 0 -112.5 47.5t-28.5 111.5q10 63 64.5 110t126.5 47t111 -47.5t29 -109.5q-10 -64 -63 -111.5t-127 -47.5zM332 1500l-238 -1500
h-264l238 1500h264z" />
    <glyph glyph-name="Ntilde" unicode="&#xd1;" horiz-adv-x="1335" 
d="M795 1611q-71 0 -143 45l-44 28q-19 11 -35 11q-9 0 -18 -16l-9 -22l-6 -21l-4 -16h-218l7 37q10 44 32 85.5t55.5 77.5t82.5 57.5t105 21.5q70 0 143 -44q29 -20 45 -28q19 -11 34 -11q9 0 18 17q7 12 15 42l3 17h219l-8 -36q-21 -98 -91.5 -171.5t-182.5 -73.5z
M260 999l-158 -999h-264l238 1500h220l544 -993l158 993h263l-238 -1500h-220z" />
    <glyph glyph-name="Ograve" unicode="&#xd2;" horiz-adv-x="1653" 
d="M950 1995l141 -384h-241l-173 384h273zM586 -24q-240 0 -402.5 123t-215.5 325q-39 152 -11 326q27 174 114 325q116 202 318 324.5t442 122.5q247 0 411 -128t212 -338q33 -143 8 -306q-27 -165 -105 -308q-114 -209 -319.5 -337.5t-451.5 -128.5zM623 209q163 0 294 87
t207 231q54 100 73 223q19 121 -2 223q-30 143 -134 230t-267 87q-159 0 -288 -83.5t-205 -221.5q-61 -109 -80 -235q-21 -129 5 -236q33 -139 135.5 -222t261.5 -83z" />
    <glyph glyph-name="Oacute" unicode="&#xd3;" horiz-adv-x="1653" 
d="M1176 1995l-296 -384h-241l264 384h273zM586 -24q-240 0 -402.5 123t-215.5 325q-39 152 -11 326q27 174 114 325q116 202 318 324.5t442 122.5q247 0 411 -128t212 -338q33 -143 8 -306q-27 -165 -105 -308q-114 -209 -319.5 -337.5t-451.5 -128.5zM623 209
q163 0 294 87t207 231q54 100 73 223q19 121 -2 223q-30 143 -134 230t-267 87q-159 0 -288 -83.5t-205 -221.5q-61 -109 -80 -235q-21 -129 5 -236q33 -139 135.5 -222t261.5 -83z" />
    <glyph glyph-name="Ocircumflex" unicode="&#xd4;" horiz-adv-x="1653" 
d="M871 1781l-156 -170h-262l352 384h200l234 -384h-263zM586 -24q-240 0 -402.5 123t-215.5 325q-39 152 -11 326q27 174 114 325q116 202 318 324.5t442 122.5q247 0 411 -128t212 -338q33 -143 8 -306q-27 -165 -105 -308q-114 -209 -319.5 -337.5t-451.5 -128.5z
M623 209q163 0 294 87t207 231q54 100 73 223q19 121 -2 223q-30 143 -134 230t-267 87q-159 0 -288 -83.5t-205 -221.5q-61 -109 -80 -235q-21 -129 5 -236q33 -139 135.5 -222t261.5 -83z" />
    <glyph glyph-name="Otilde" unicode="&#xd5;" horiz-adv-x="1653" 
d="M967 1610q-72 0 -144 45q-28 19 -45 29q-22 11 -35 11q-8 0 -17 -17q-8 -16 -15 -42l-4 -16h-219l7 36q10 44 32 85.5t55.5 77.5t82.5 58t105 22q73 0 145 -45q4 -2 20 -13t24 -15q19 -11 34 -11q9 0 17 18q6 10 15 42l4 17h220l-8 -36q-10 -44 -31.5 -86t-54.5 -78.5
t-82 -59t-106 -22.5zM586 -24q-240 0 -402.5 123t-215.5 325q-39 152 -11 326q27 174 114 325q116 202 318 324.5t442 122.5q247 0 411 -128t212 -338q33 -143 8 -306q-27 -165 -105 -308q-114 -209 -319.5 -337.5t-451.5 -128.5zM623 209q163 0 294 87t207 231
q54 100 73 223q19 121 -2 223q-30 143 -134 230t-267 87q-159 0 -288 -83.5t-205 -221.5q-61 -109 -80 -235q-21 -129 5 -236q33 -139 135.5 -222t261.5 -83z" />
    <glyph glyph-name="Odieresis" unicode="&#xd6;" horiz-adv-x="1653" 
d="M634 1601q-74 0 -112.5 47.5t-28.5 111.5q9 62 63.5 109.5t127.5 47.5q72 0 110.5 -47.5t29.5 -109.5q-10 -64 -63 -111.5t-127 -47.5zM1060 1601q-74 0 -112.5 47.5t-28.5 111.5q9 62 63.5 109.5t127.5 47.5q72 0 110.5 -47.5t29.5 -109.5q-10 -64 -63 -111.5
t-127 -47.5zM586 -24q-240 0 -402.5 123t-215.5 325q-39 152 -11 326q27 174 114 325q116 202 318 324.5t442 122.5q247 0 411 -128t212 -338q33 -143 8 -306q-27 -165 -105 -308q-114 -209 -319.5 -337.5t-451.5 -128.5zM623 209q163 0 294 87t207 231q54 100 73 223
q19 121 -2 223q-30 143 -134 230t-267 87q-159 0 -288 -83.5t-205 -221.5q-61 -109 -80 -235q-21 -129 5 -236q33 -139 135.5 -222t261.5 -83z" />
    <glyph glyph-name="multiply" unicode="&#xd7;" horiz-adv-x="1280" 
d="M727 307l-232 268l-316 -268l-149 171l316 270l-229 266l203 172l230 -267l314 267l149 -172l-315 -266l232 -270z" />
    <glyph glyph-name="Oslash" unicode="&#xd8;" horiz-adv-x="1684" 
d="M401 3l-62 -94h-285l131 202q-140 110 -191 279.5t-21 359.5q29 184 122 339q118 197 317.5 315t434.5 118q101 0 199 -25l44 72h285l-111 -180q141 -109 192.5 -279t21.5 -360q-30 -183 -124 -341q-119 -197 -317.5 -315t-434.5 -118q-99 0 -201 27zM327 339l585 941
q-47 10 -102 10q-158 0 -287.5 -83t-205.5 -220q-61 -110 -80 -237q-18 -118 2.5 -225.5t87.5 -185.5zM639 209q158 0 287 82.5t206 220.5q60 106 81 238q18 118 -2.5 225.5t-88.5 184.5l-585 -941q47 -10 102 -10z" />
    <glyph glyph-name="Ugrave" unicode="&#xd9;" horiz-adv-x="1277" 
d="M662 1995l141 -384h-241l-174 384h274zM398 -24q-259 0 -389 142t-94 370l161 1012h266l-161 -1012q-18 -119 52 -199t202 -80q130 0 227 81t115 198l161 1012h266l-161 -1012q-36 -227 -211.5 -369.5t-433.5 -142.5z" />
    <glyph glyph-name="Uacute" unicode="&#xda;" horiz-adv-x="1277" 
d="M983 1995l-297 -384h-240l263 384h274zM398 -24q-259 0 -389 142t-94 370l161 1012h266l-161 -1012q-18 -119 52 -199t202 -80q130 0 227 81t115 198l161 1012h266l-161 -1012q-36 -227 -211.5 -369.5t-433.5 -142.5z" />
    <glyph glyph-name="Ucircumflex" unicode="&#xdb;" horiz-adv-x="1277" 
d="M670 1781l-156 -170h-263l352 384h200l234 -384h-263zM398 -24q-259 0 -389 142t-94 370l161 1012h266l-161 -1012q-18 -119 52 -199t202 -80q130 0 227 81t115 198l161 1012h266l-161 -1012q-36 -227 -211.5 -369.5t-433.5 -142.5z" />
    <glyph glyph-name="Udieresis" unicode="&#xdc;" horiz-adv-x="1277" 
d="M448 1629q-74 0 -112.5 47.5t-28.5 111.5q10 63 64.5 110t126.5 47t111 -47.5t29 -109.5q-10 -64 -63 -111.5t-127 -47.5zM874 1629q-74 0 -112.5 47.5t-28.5 111.5q10 63 64.5 110t126.5 47t111 -47.5t29 -109.5q-10 -64 -63 -111.5t-127 -47.5zM398 -24
q-259 0 -389 142t-94 370l161 1012h266l-161 -1012q-18 -119 52 -199t202 -80q130 0 227 81t115 198l161 1012h266l-161 -1012q-36 -227 -211.5 -369.5t-433.5 -142.5z" />
    <glyph glyph-name="Yacute" unicode="&#xdd;" horiz-adv-x="1473" 
d="M1096 1989l-296 -384h-241l264 384h273zM741 687l-109 -687h-263l109 687l-415 813h297l289 -564l465 564h298z" />
    <glyph glyph-name="germandbls" unicode="&#xdf;" horiz-adv-x="1326" 
d="M293 1064l-169 -1064h-270l170 1073q28 178 172.5 297.5t347.5 119.5h181q203 0 309.5 -119.5t78.5 -297.5q-28 -176 -171 -290q79 -64 111.5 -156t15.5 -195q-32 -204 -190 -318t-391 -114h-229l35 230h230q114 0 186.5 52.5t87.5 149.5q16 100 -39.5 160.5t-167.5 60.5
h-232l37 230h220q92 0 152.5 49.5t74.5 131.5q12 83 -33 139t-135 56h-155q-90 0 -152.5 -56t-74.5 -139z" />
    <glyph glyph-name="agrave" unicode="&#xe0;" horiz-adv-x="1070" 
d="M602 1577l139 -383h-239l-172 383h272zM243 -23q-177 0 -277.5 95.5t-76.5 251.5q22 135 139 219t279 119l325 70q5 67 -46.5 104.5t-136.5 37.5q-182 0 -205 -131q0 -3 -1 -8t-1 -8l-2 -18l-254 -3l6 36q22 139 117 229.5t254 119.5q65 13 122 13q198 0 307 -105
t82 -280l-114 -719h-244l10 66q-134 -89 -283 -89zM280 206q123 0 209 81.5t104 196.5l5 32l-262 -57q-74 -16 -130 -51t-64 -85q-9 -57 29.5 -87t108.5 -30z" />
    <glyph glyph-name="aacute" unicode="&#xe1;" horiz-adv-x="1070" 
d="M809 1577l-295 -383h-239l262 383h272zM243 -23q-177 0 -277.5 95.5t-76.5 251.5q22 135 139 219t279 119l325 70q5 67 -46.5 104.5t-136.5 37.5q-182 0 -205 -131q0 -3 -1 -8t-1 -8l-2 -18l-254 -3l6 36q22 139 117 229.5t254 119.5q65 13 122 13q198 0 307 -105
t82 -280l-114 -719h-244l10 66q-134 -89 -283 -89zM280 206q123 0 209 81.5t104 196.5l5 32l-262 -57q-74 -16 -130 -51t-64 -85q-9 -57 29.5 -87t108.5 -30z" />
    <glyph glyph-name="acircumflex" unicode="&#xe2;" horiz-adv-x="1070" 
d="M513 1359l-155 -169h-261l350 383h199l232 -383h-262zM243 -23q-177 0 -277.5 95.5t-76.5 251.5q22 135 139 219t279 119l325 70q5 67 -46.5 104.5t-136.5 37.5q-182 0 -205 -131q0 -3 -1 -8t-1 -8l-2 -18l-254 -3l6 36q22 139 117 229.5t254 119.5q65 13 122 13
q198 0 307 -105t82 -280l-114 -719h-244l10 66q-134 -89 -283 -89zM280 206q123 0 209 81.5t104 196.5l5 32l-262 -57q-74 -16 -130 -51t-64 -85q-9 -57 29.5 -87t108.5 -30z" />
    <glyph glyph-name="atilde" unicode="&#xe3;" horiz-adv-x="1070" 
d="M633 1194q-67 0 -142 45q-32 22 -45 29q-20 11 -32 11q-9 0 -18 -17q-6 -14 -8 -21l-7 -21l-4 -16h-217l7 36q9 44 31 85.5t55 77.5t82 57.5t105 21.5q70 0 142 -45q43 -27 45 -28q22 -11 32 -11q9 0 19 18q8 16 15 42l3 17h218l-8 -37q-21 -97 -92 -170.5t-181 -73.5z
M243 -23q-177 0 -277.5 95.5t-76.5 251.5q22 135 139 219t279 119l325 70q5 67 -46.5 104.5t-136.5 37.5q-182 0 -205 -131q0 -3 -1 -8t-1 -8l-2 -18l-254 -3l6 36q22 139 117 229.5t254 119.5q65 13 122 13q198 0 307 -105t82 -280l-114 -719h-244l10 66q-134 -89 -283 -89
zM280 206q123 0 209 81.5t104 196.5l5 32l-262 -57q-74 -16 -130 -51t-64 -85q-9 -57 29.5 -87t108.5 -30z" />
    <glyph glyph-name="adieresis" unicode="&#xe4;" horiz-adv-x="1070" 
d="M278 1188q-74 0 -112 47.5t-29 111.5q10 63 64.5 110t126.5 47t111 -47.5t29 -109.5q-9 -64 -62.5 -111.5t-127.5 -47.5zM704 1188q-74 0 -112 47.5t-29 111.5q10 63 64.5 110t126.5 47t111 -47.5t29 -109.5q-9 -64 -62.5 -111.5t-127.5 -47.5zM243 -23
q-177 0 -277.5 95.5t-76.5 251.5q22 135 139 219t279 119l325 70q5 67 -46.5 104.5t-136.5 37.5q-182 0 -205 -131q0 -3 -1 -8t-1 -8l-2 -18l-254 -3l6 36q22 139 117 229.5t254 119.5q65 13 122 13q198 0 307 -105t82 -280l-114 -719h-244l10 66q-134 -89 -283 -89z
M280 206q123 0 209 81.5t104 196.5l5 32l-262 -57q-74 -16 -130 -51t-64 -85q-9 -57 29.5 -87t108.5 -30z" />
    <glyph glyph-name="aring" unicode="&#xe5;" horiz-adv-x="1070" 
d="M502 1225q-106 0 -163 69t-43 161q15 92 94 160t185 68q105 0 163.5 -68t43.5 -160q-14 -92 -94 -161t-186 -69zM524 1373q34 0 61 24.5t33 59.5q5 33 -14.5 55t-53.5 22q-33 0 -58 -21t-30 -56q-6 -35 12.5 -59.5t49.5 -24.5zM243 -23q-177 0 -277.5 95.5t-76.5 251.5
q22 135 139 219t279 119l325 70q5 67 -46.5 104.5t-136.5 37.5q-182 0 -205 -131q0 -3 -1 -8t-1 -8l-2 -18l-254 -3l6 36q22 139 117 229.5t254 119.5q65 13 122 13q198 0 307 -105t82 -280l-114 -719h-244l10 66q-134 -89 -283 -89zM280 206q123 0 209 81.5t104 196.5l5 32
l-262 -57q-74 -16 -130 -51t-64 -85q-9 -57 29.5 -87t108.5 -30z" />
    <glyph glyph-name="ae" unicode="&#xe6;" horiz-adv-x="1985" 
d="M259 -23q-177 0 -277.5 95.5t-76.5 251.5q9 56 37 105.5t68 85.5t92.5 66t106.5 49t114 32l325 70q5 67 -46.5 104.5t-136.5 37.5q-182 0 -205 -131q0 -3 -1 -8t-1 -8l-2 -18l-254 -3l6 36q21 138 114 228t250 120q67 14 129 14q111 0 202 -37t141 -112q183 156 417 156
q179 0 299.5 -92.5t158.5 -243.5q27 -110 7 -231q-2 -12 -6.5 -37t-6.5 -38l-2 -17h-840q9 -104 72.5 -172.5t174.5 -68.5q89 0 166.5 47.5t127.5 124.5l13 20l198 -131l-22 -28q-52 -61 -71 -80q-92 -89 -207.5 -138t-241.5 -49t-227 48.5t-162 137.5q-196 -186 -433 -186z
M915 673h554q-17 92 -80 148.5t-165 56.5t-183 -57t-126 -148zM296 206q123 0 209 81.5t104 196.5l5 32l-262 -57q-74 -16 -130 -51t-64 -85q-9 -57 29.5 -87t108.5 -30z" />
    <glyph glyph-name="ccedilla" unicode="&#xe7;" horiz-adv-x="1198" 
d="M323 -384q-77 0 -144 32t-109 85l-8 9l133 170l16 -21q57 -77 133 -77q52 0 60 46q7 47 -67 107l-13 10l-5 3q-5 0 -8 1l-11 1q-7 1 -26 5q-55 11 -103 31q-103 46 -165.5 131.5t-80.5 184.5t-1 207q21 139 94 257q88 142 233 226t316 84q127 0 228 -49.5t165 -139.5
q22 -33 42 -77l14 -28l-239 -130l-7 19q-67 173 -239 173q-96 0 -173 -50t-119.5 -124t-56.5 -161q-6 -50 -4 -98t20.5 -90.5t47 -74.5t75 -51t104.5 -19q90 0 166 47t127 126l13 19l199 -131l-23 -28q-38 -47 -53 -62q-117 -125 -277 -175q57 -76 42 -167
q-15 -99 -99.5 -160t-196.5 -61z" />
    <glyph glyph-name="egrave" unicode="&#xe8;" 
d="M698 1577l140 -383h-240l-172 383h272zM388 -24q-168 0 -286 81.5t-162 219.5q-40 123 -16 264q22 144 100 265q88 138 231.5 220t311.5 82t286.5 -82t163.5 -220q38 -123 16 -265l-13 -73l-3 -18h-840q9 -105 72.5 -173.5t175.5 -68.5q89 0 166.5 47.5t126.5 124.5
l13 20l199 -131l-23 -28q-36 -47 -74 -84q-91 -87 -206 -134t-239 -47zM221 671h554q-16 91 -79 148t-165 57t-183.5 -57t-126.5 -148z" />
    <glyph glyph-name="eacute" unicode="&#xe9;" 
d="M905 1577l-295 -383h-239l262 383h272zM388 -24q-168 0 -286 81.5t-162 219.5q-40 123 -16 264q22 144 100 265q88 138 231.5 220t311.5 82t286.5 -82t163.5 -220q38 -123 16 -265l-13 -73l-3 -18h-840q9 -105 72.5 -173.5t175.5 -68.5q89 0 166.5 47.5t126.5 124.5
l13 20l199 -131l-23 -28q-36 -47 -74 -84q-91 -87 -206 -134t-239 -47zM221 671h554q-16 91 -79 148t-165 57t-183.5 -57t-126.5 -148z" />
    <glyph glyph-name="ecircumflex" unicode="&#xea;" 
d="M604 1363l-155 -169h-261l350 383h199l232 -383h-262zM388 -24q-179 0 -299.5 91.5t-157.5 241.5q-28 107 -7 232q19 125 81 233q84 150 233.5 242t328.5 92q125 0 224 -45t157.5 -120t82.5 -172t7 -203q-2 -16 -8.5 -49.5t-9.5 -50.5l-3 -18h-840q9 -105 72.5 -173.5
t175.5 -68.5q89 0 166.5 47.5t126.5 124.5l13 20l199 -131l-23 -28q-48 -58 -70 -80q-92 -89 -207.5 -137t-241.5 -48zM221 671h554q-16 91 -79 148t-165 57t-183.5 -57t-126.5 -148z" />
    <glyph glyph-name="edieresis" unicode="&#xeb;" 
d="M359 1160q-74 0 -112.5 47.5t-28.5 111.5q10 63 64.5 110t126.5 47t110.5 -47.5t29.5 -109.5q-10 -64 -63 -111.5t-127 -47.5zM785 1160q-74 0 -112.5 47.5t-28.5 111.5q10 63 64.5 110t126.5 47t110.5 -47.5t29.5 -109.5q-10 -64 -63 -111.5t-127 -47.5zM388 -24
q-179 0 -299.5 91.5t-157.5 241.5q-28 107 -7 232q19 125 81 233q84 150 233.5 242t328.5 92q125 0 224 -45t157.5 -120t82.5 -172t7 -203q-2 -16 -8.5 -49.5t-9.5 -50.5l-3 -18h-840q9 -105 72.5 -173.5t175.5 -68.5q89 0 166 47.5t127 124.5l13 20l199 -131l-23 -28
q-48 -58 -70 -80q-92 -89 -207.5 -137t-241.5 -48zM221 671h554q-16 91 -79 148t-165 57t-183.5 -57t-126.5 -148z" />
    <glyph glyph-name="igrave" unicode="&#xec;" horiz-adv-x="438" 
d="M276 1577l139 -383h-238l-174 383h273zM279 1081l-171 -1081h-243l171 1081h243z" />
    <glyph glyph-name="iacute" unicode="&#xed;" horiz-adv-x="438" 
d="M478 1577l-295 -383h-239l262 383h272zM274 1081l-171 -1081h-244l171 1081h244z" />
    <glyph glyph-name="icircumflex" unicode="&#xee;" horiz-adv-x="453" 
d="M212 1363l-153 -169h-263l350 383h199l233 -383h-263zM284 1081l-171 -1081h-244l171 1081h244z" />
    <glyph glyph-name="idieresis" unicode="&#xef;" horiz-adv-x="384" 
d="M-67 1160q-74 0 -112.5 47.5t-28.5 111.5q10 63 64.5 110t126.5 47t110.5 -47.5t29.5 -109.5q-10 -64 -63 -111.5t-127 -47.5zM359 1160q-74 0 -112.5 47.5t-28.5 111.5q10 63 64.5 110t126.5 47t110.5 -47.5t29.5 -109.5q-10 -64 -63 -111.5t-127 -47.5zM249 1081
l-171 -1081h-243l171 1081h243z" />
    <glyph glyph-name="ntilde" unicode="&#xf1;" horiz-adv-x="1058" 
d="M626 1194q-67 0 -142 45q-32 22 -45 29q-20 11 -32 11q-9 0 -18 -17q-6 -14 -8 -21l-7 -21l-4 -16h-217l7 36q20 95 92.5 168.5t180.5 73.5q70 0 142 -45q43 -27 45 -28q22 -11 33 -11q9 0 18 18q8 16 15 42l3 17h218l-8 -37q-21 -97 -92 -170.5t-181 -73.5zM184 649
l-103 -649h-243l171 1081h243l-4 -25q105 47 218 47q200 0 309.5 -114.5t82.5 -290.5l-111 -698h-245l103 649q15 98 -28.5 161.5t-145.5 63.5q-103 0 -167.5 -64t-79.5 -161z" />
    <glyph glyph-name="ograve" unicode="&#xf2;" 
d="M661 1577l140 -383h-239l-174 383h273zM388 -24q-177 0 -297 90t-159 239q-29 108 -8 236q17 108 69.5 208.5t132.5 181t195 129t246 48.5q182 0 303 -94.5t157 -248.5q25 -105 6 -224q-21 -128 -84 -236q-86 -149 -235 -239t-326 -90zM425 208q95 0 172 49.5t120 123.5
t57 160q6 50 4 98.5t-20.5 91.5t-47 75t-75 51t-104.5 19q-96 0 -173 -50t-119.5 -124t-56.5 -161q-6 -50 -4 -98t20.5 -90.5t47 -74.5t75 -51t104.5 -19z" />
    <glyph glyph-name="oacute" unicode="&#xf3;" 
d="M905 1577l-295 -383h-239l262 383h272zM388 -24q-177 0 -297 90t-159 239q-29 108 -8 236q17 108 69.5 208.5t132.5 181t195 129t246 48.5q182 0 303 -94.5t157 -248.5q25 -105 6 -224q-21 -128 -84 -236q-86 -149 -235 -239t-326 -90zM425 208q95 0 172 49.5t120 123.5
t57 160q6 50 4 98.5t-20.5 91.5t-47 75t-75 51t-104.5 19q-96 0 -173 -50t-119.5 -124t-56.5 -161q-6 -50 -4 -98t20.5 -90.5t47 -74.5t75 -51t104.5 -19z" />
    <glyph glyph-name="ocircumflex" unicode="&#xf4;" 
d="M599 1363l-154 -169h-262l350 383h199l232 -383h-262zM388 -24q-177 0 -297 90t-159 239q-29 108 -8 236q17 108 69.5 208.5t132.5 181t195 129t246 48.5q182 0 303 -94.5t157 -248.5q25 -105 6 -224q-21 -128 -84 -236q-86 -149 -235 -239t-326 -90zM425 208
q95 0 172 49.5t120 123.5t57 160q6 50 4 98.5t-20.5 91.5t-47 75t-75 51t-104.5 19q-96 0 -173 -50t-119.5 -124t-56.5 -161q-6 -50 -4 -98t20.5 -90.5t47 -74.5t75 -51t104.5 -19z" />
    <glyph glyph-name="otilde" unicode="&#xf5;" 
d="M679 1193q-70 0 -143 45q-27 18 -44 29q-22 11 -35 11q-7 0 -16 -17q-10 -21 -14 -41l-3 -17h-220l7 37q13 59 46 111.5t93 91t134 38.5q72 0 142 -45q6 -4 22 -14t24 -14q20 -10 33 -10q10 0 18 17q2 4 9 22l6 21l4 16h216l-7 -37q-10 -44 -31.5 -85.5t-54 -78
t-81 -58.5t-105.5 -22zM388 -24q-177 0 -297 90t-159 239q-29 108 -8 236q17 108 69.5 208.5t132.5 181t195 129t246 48.5q182 0 303 -94.5t157 -248.5q25 -105 6 -224q-21 -128 -84 -236q-86 -149 -235 -239t-326 -90zM425 208q95 0 172 49.5t120 123.5t57 160q6 50 4 98.5
t-20.5 91.5t-47 75t-75 51t-104.5 19q-96 0 -173 -50t-119.5 -124t-56.5 -161q-6 -50 -4 -98t20.5 -90.5t47 -74.5t75 -51t104.5 -19z" />
    <glyph glyph-name="odieresis" unicode="&#xf6;" 
d="M359 1160q-74 0 -112.5 47.5t-28.5 111.5q10 63 64.5 110t126.5 47t110.5 -47.5t29.5 -109.5q-10 -64 -63 -111.5t-127 -47.5zM785 1160q-74 0 -112.5 47.5t-28.5 111.5q10 63 64.5 110t126.5 47t110.5 -47.5t29.5 -109.5q-10 -64 -63 -111.5t-127 -47.5zM388 -24
q-177 0 -297 90t-159 239q-29 108 -8 236q17 108 69.5 208.5t132.5 181t195 129t246 48.5q182 0 303 -94.5t157 -248.5q25 -105 6 -224q-21 -128 -84 -236q-86 -149 -235 -239t-326 -90zM425 208q95 0 172 49.5t120 123.5t57 160q6 50 4 98.5t-20.5 91.5t-47 75t-75 51
t-104.5 19q-96 0 -173 -50t-119.5 -124t-56.5 -161q-6 -50 -4 -98t20.5 -90.5t47 -74.5t75 -51t104.5 -19z" />
    <glyph glyph-name="divide" unicode="&#xf7;" horiz-adv-x="1386" 
d="M794 1296l-48 -305h-264l48 305h264zM1087 866l-38 -239h-986l38 239h986zM669 503l-49 -305h-264l49 305h264z" />
    <glyph glyph-name="oslash" unicode="&#xf8;" 
d="M1043 765q25 -105 6 -224q-21 -128 -84 -236q-86 -149 -235 -239t-326 -90q-33 0 -75 5l-94 -151h-283l150 240q-115 87 -154 235q-29 108 -8 236q17 108 69.5 208.5t132.5 181t195 129t246 48.5q81 0 152 -20l100 160h282l-176 -284q74 -82 102 -199zM198 541
q-23 -149 46 -242l356 573q-34 4 -53 4q-96 0 -173 -50t-119.5 -124t-56.5 -161zM781 708l-310 -499q87 8 157 58.5t109.5 121.5t52.5 152q14 89 -9 167z" />
    <glyph glyph-name="ugrave" unicode="&#xf9;" horiz-adv-x="1058" 
d="M536 1577l140 -383h-239l-174 383h273zM290 -21q-200 0 -309.5 114.5t-81.5 290.5l110 697h243l-103 -649q-15 -97 29 -160t146 -63q103 0 167 63t79 160l103 649h245l-171 -1081h-245l4 25q-106 -46 -216 -46z" />
    <glyph glyph-name="uacute" unicode="&#xfa;" horiz-adv-x="1058" 
d="M802 1577l-295 -383h-239l262 383h272zM290 -21q-200 0 -309.5 114.5t-81.5 290.5l110 697h243l-103 -649q-15 -97 29 -160t146 -63q103 0 167 63t79 160l103 649h245l-171 -1081h-245l4 25q-106 -46 -216 -46z" />
    <glyph glyph-name="ucircumflex" unicode="&#xfb;" horiz-adv-x="1058" 
d="M502 1363l-154 -169h-262l350 383h199l232 -383h-262zM290 -21q-200 0 -309.5 114.5t-81.5 290.5l110 697h243l-103 -649q-15 -97 29 -160t146 -63q103 0 167 63t79 160l103 649h245l-171 -1081h-245l4 25q-106 -46 -216 -46z" />
    <glyph glyph-name="udieresis" unicode="&#xfc;" horiz-adv-x="1058" 
d="M278 1188q-74 0 -112 47.5t-29 111.5q10 63 64.5 110t126.5 47t111 -47.5t29 -109.5q-9 -64 -62.5 -111.5t-127.5 -47.5zM704 1188q-74 0 -112 47.5t-29 111.5q10 63 64.5 110t126.5 47t111 -47.5t29 -109.5q-9 -64 -62.5 -111.5t-127.5 -47.5zM290 -21
q-200 0 -309.5 114.5t-81.5 290.5l110 697h243l-103 -649q-15 -97 29 -160t146 -63q103 0 167 63t79 160l103 649h245l-171 -1081h-245l4 25q-106 -46 -216 -46z" />
    <glyph glyph-name="yacute" unicode="&#xfd;" horiz-adv-x="1263" 
d="M949 1577l-296 -383h-239l262 383h273zM1129 1081l-862 -1492h-267l263 470l-262 1022h276l179 -698l397 698h276z" />
    <glyph glyph-name="ydieresis" unicode="&#xff;" horiz-adv-x="1263" 
d="M389 1188q-74 0 -112 47.5t-29 111.5q10 63 64.5 110t126.5 47t111 -47.5t29 -109.5q-9 -64 -62.5 -111.5t-127.5 -47.5zM815 1188q-74 0 -112 47.5t-29 111.5q10 63 64.5 110t126.5 47t111 -47.5t29 -109.5q-9 -64 -62.5 -111.5t-127.5 -47.5zM1129 1081l-862 -1492
h-267l263 470l-262 1022h276l179 -698l397 698h276z" />
    <glyph glyph-name="Amacron" unicode="&#x100;" horiz-adv-x="1506" 
d="M1075 1822l-34 -211h-527l34 211h527zM314 393l-204 -393h-278l802 1500h242l326 -1500h-279l-78 393h-531zM797 624l-102 500l-260 -500h362z" />
    <glyph glyph-name="amacron" unicode="&#x101;" horiz-adv-x="1070" 
d="M784 1404l-33 -210h-523l33 210h523zM243 -23q-177 0 -277.5 95.5t-76.5 251.5q22 135 139 219t279 119l325 70q5 67 -46.5 104.5t-136.5 37.5q-182 0 -205 -131q0 -3 -1 -8t-1 -8l-2 -18l-254 -3l6 36q22 139 117 229.5t254 119.5q65 13 122 13q198 0 307 -105t82 -280
l-114 -719h-244l10 66q-134 -89 -283 -89zM280 206q123 0 209 81.5t104 196.5l5 32l-262 -57q-74 -16 -130 -51t-64 -85q-9 -57 29.5 -87t108.5 -30z" />
    <glyph glyph-name="Abreve" unicode="&#x102;" horiz-adv-x="1506" 
d="M771 1611q-94 0 -160.5 48.5t-92.5 120.5t-13 150l5 36h215l-5 -36q-7 -45 16 -83.5t66 -38.5q45 0 82.5 38.5t44.5 83.5l5 36h214l-5 -36q-20 -124 -125.5 -221.5t-246.5 -97.5zM314 393l-204 -393h-278l802 1500h242l326 -1500h-279l-78 393h-531zM797 624l-102 500
l-260 -500h362z" />
    <glyph glyph-name="abreve" unicode="&#x103;" horiz-adv-x="1070" 
d="M512 1194q-94 0 -160.5 48t-92.5 120t-14 150l6 35h215l-4 -18q-11 -52 11 -95t70 -43q43 0 80 38.5t43 82.5l6 35h213l-6 -35q-19 -123 -123 -220.5t-244 -97.5zM243 -23q-177 0 -277.5 95.5t-76.5 251.5q22 135 139 219t279 119l325 70q5 67 -46.5 104.5t-136.5 37.5
q-182 0 -205 -131q0 -3 -1 -8t-1 -8l-2 -18l-254 -3l6 36q22 139 117 229.5t254 119.5q65 13 122 13q198 0 307 -105t82 -280l-114 -719h-244l10 66q-134 -89 -283 -89zM280 206q123 0 209 81.5t104 196.5l5 32l-262 -57q-74 -16 -130 -51t-64 -85q-9 -57 29.5 -87
t108.5 -30z" />
    <glyph glyph-name="Aogonek" unicode="&#x104;" horiz-adv-x="1497" 
d="M941 -408q-113 0 -177.5 61t-48.5 161q11 74 64.5 134.5t133.5 102.5l-68 342h-531l-204 -393h-278l802 1500h242l322 -1485l-19 -6q-47 -16 -98 -41.5t-95 -62t-49 -68.5q-4 -24 8 -35t39 -11q73 0 158 78l22 20l81 -175l-13 -9q-140 -113 -291 -113zM797 624l-102 500
l-260 -500h362z" />
    <glyph glyph-name="aogonek" unicode="&#x105;" horiz-adv-x="1078" 
d="M481 -401q-112 0 -176.5 61t-49.5 160q16 98 103 172q-57 -15 -115 -15q-177 0 -277.5 95.5t-76.5 251.5q22 135 139 219t279 119l325 70q5 67 -46.5 104.5t-136.5 37.5q-185 0 -205 -130l-6 -35l-252 -3l6 36q21 138 114 228t250 120q67 14 129 14q198 0 307 -105
t82 -280l-112 -709l-16 -4l-14 -4q-112 -34 -159 -59q-86 -44 -95 -100q-7 -46 46 -46q72 0 157 78l23 21l79 -174l-13 -10q-142 -113 -289 -113zM280 206q123 0 209 81.5t104 196.5l5 32l-262 -57q-74 -16 -130 -51t-64 -85q-9 -57 29.5 -87t108.5 -30z" />
    <glyph glyph-name="Cacute" unicode="&#x106;" horiz-adv-x="1565" 
d="M1165 1995l-298 -384h-240l263 384h275zM586 -24q-233 0 -394 116.5t-218 310.5q-47 158 -17 347q29 189 127 346q117 194 315.5 310t431.5 116q216 0 368.5 -101t225.5 -275l6 -15l5 -15l-246 -120l-6 19q-37 123 -141 199t-249 76q-163 0 -295 -87t-206 -230
q-53 -103 -72 -223q-19 -121 1 -223q29 -143 133.5 -230.5t267.5 -87.5q145 0 268 72.5t208 195.5l12 18l204 -123l-9 -14q-122 -173 -314.5 -277.5t-405.5 -104.5z" />
    <glyph glyph-name="cacute" unicode="&#x107;" horiz-adv-x="1198" 
d="M868 1577l-296 -383h-239l262 383h273zM388 -24q-179 0 -299 91.5t-158 241.5q-28 107 -7 232q19 125 81 233q84 150 233.5 242t328.5 92q129 0 232 -51t165 -144q11 -16 38 -71l14 -28l-240 -130l-7 19q-29 79 -88.5 126t-149.5 47q-96 0 -173 -50t-119.5 -124
t-56.5 -161q-6 -50 -4 -98t20.5 -90.5t47 -74.5t75 -51t104.5 -19q89 0 167 47.5t126 124.5l13 20l199 -131l-23 -28q-48 -57 -61 -70q-91 -93 -209.5 -144t-248.5 -51z" />
    <glyph glyph-name="Ccircumflex" unicode="&#x108;" horiz-adv-x="1565" 
d="M866 1760l-155 -170h-264l352 384h201l235 -384h-265zM586 -24q-233 0 -394 116.5t-218 310.5q-47 158 -17 347q29 189 127 346q117 194 315.5 310t431.5 116q214 0 365.5 -101t228.5 -275l6 -15l5 -15l-246 -120l-6 19q-39 123 -142.5 199t-247.5 76q-163 0 -295 -87
t-206 -230q-53 -103 -72 -223q-19 -121 1 -223q29 -143 133.5 -230.5t267.5 -87.5q144 0 265.5 72.5t210.5 195.5l12 18l204 -123l-9 -14q-115 -173 -309.5 -277.5t-410.5 -104.5z" />
    <glyph glyph-name="ccircumflex" unicode="&#x109;" horiz-adv-x="1198" 
d="M598 1363l-154 -169h-262l350 383h199l232 -383h-262zM388 -24q-179 0 -299 91.5t-158 241.5q-28 107 -7 232q19 125 81 233q84 150 233.5 242t328.5 92q129 0 232 -51t165 -144q11 -16 38 -71l14 -28l-240 -130l-7 19q-29 79 -88.5 126t-149.5 47q-96 0 -173 -50
t-119.5 -124t-56.5 -161q-6 -50 -4 -98t20.5 -90.5t47 -74.5t75 -51t104.5 -19q89 0 167 47.5t126 124.5l13 20l199 -131l-23 -28q-48 -57 -61 -70q-91 -93 -209.5 -144t-248.5 -51z" />
    <glyph glyph-name="Cdotaccent" unicode="&#x10a;" horiz-adv-x="1565" 
d="M847 1619q-74 0 -112 47.5t-28 111.5q9 63 63.5 110t126.5 47t111 -47.5t30 -109.5q-10 -64 -63.5 -111.5t-127.5 -47.5zM586 -24q-233 0 -394 116.5t-218 310.5q-47 158 -17 347q29 189 127 346q117 194 315.5 310t431.5 116q214 0 365.5 -101t228.5 -275l6 -15l5 -15
l-246 -120l-6 19q-39 123 -142.5 199t-247.5 76q-163 0 -295 -87t-206 -230q-53 -103 -72 -223q-19 -121 1 -223q29 -143 133.5 -230.5t267.5 -87.5q144 0 265.5 72.5t210.5 195.5l12 18l204 -123l-9 -14q-115 -173 -309.5 -277.5t-410.5 -104.5z" />
    <glyph glyph-name="cdotaccent" unicode="&#x10b;" horiz-adv-x="1198" 
d="M566 1194q-73 0 -111.5 47.5t-28.5 110.5t64 109.5t126 46.5t110.5 -47t28.5 -109q-10 -63 -63 -110.5t-126 -47.5zM388 -24q-179 0 -299 91.5t-158 241.5q-28 107 -7 232q19 125 81 233q84 150 233.5 242t328.5 92q129 0 232 -51t165 -144q11 -16 38 -71l14 -28
l-240 -130l-7 19q-29 79 -88.5 126t-149.5 47q-96 0 -173 -50t-119.5 -124t-56.5 -161q-6 -50 -4 -98t20.5 -90.5t47 -74.5t75 -51t104.5 -19q89 0 167 47.5t126 124.5l13 20l199 -131l-23 -28q-48 -57 -61 -70q-91 -93 -209.5 -144t-248.5 -51z" />
    <glyph glyph-name="Ccaron" unicode="&#x10c;" horiz-adv-x="1565" 
d="M1283 1995l-357 -384h-201l-230 384h264l101 -169l158 169h265zM586 -24q-233 0 -394 116.5t-218 310.5q-47 158 -17 347q29 189 127 346q117 194 315.5 310t431.5 116q216 0 368.5 -101t225.5 -275l6 -15l5 -15l-246 -120l-6 19q-37 123 -141 199t-249 76
q-163 0 -295 -87t-206 -230q-53 -103 -72 -223q-19 -121 1 -223q29 -143 133.5 -230.5t267.5 -87.5q145 0 268 72.5t208 195.5l12 18l204 -123l-9 -14q-122 -173 -314.5 -277.5t-405.5 -104.5z" />
    <glyph glyph-name="ccaron" unicode="&#x10d;" horiz-adv-x="1198" 
d="M1024 1577l-354 -383h-199l-228 383h262l100 -169l157 169h262zM388 -24q-179 0 -299 91.5t-158 241.5q-28 107 -7 232q19 125 81 233q84 150 233.5 242t328.5 92q129 0 232 -51t165 -144q11 -16 38 -71l14 -28l-240 -130l-7 19q-29 79 -88.5 126t-149.5 47
q-96 0 -173 -50t-119.5 -124t-56.5 -161q-6 -50 -4 -98t20.5 -90.5t47 -74.5t75 -51t104.5 -19q89 0 167 47.5t126 124.5l13 20l199 -131l-23 -28q-48 -57 -61 -70q-91 -93 -209.5 -144t-248.5 -51z" />
    <glyph glyph-name="Dcaron" unicode="&#x10e;" horiz-adv-x="1390" 
d="M1054 1995l-356 -384h-201l-230 384h263l102 -169l158 169h264zM346 -2h-508l238 1502h508q158 0 285 -56q83 -37 147.5 -94t103.5 -125t62.5 -147.5t24.5 -161.5t-10 -166q-23 -144 -88.5 -275.5t-184.5 -244.5t-275 -174q-147 -58 -303 -58zM381 225q72 0 155 27
q113 37 200 118t135.5 177t65.5 203q17 114 -3 215q-29 140 -129 224.5t-258 84.5h-248l-166 -1048q42 0 124.5 -0.5t123.5 -0.5z" />
    <glyph glyph-name="dcaron" unicode="&#x10f;" horiz-adv-x="1242" 
d="M1067 1685l-354 -383h-199l-228 383h261l101 -169l157 169h262zM404 -24q-177 0 -296 88t-158 236q-30 112 -10 241q21 133 86 242q86 148 233 236.5t324 88.5q165 0 283 -79l73 461h244l-236 -1490h-244l9 54q-141 -78 -308 -78zM441 208q95 0 172 49.5t120 123.5
t57 160q6 50 4 98.5t-20.5 91.5t-47 75t-75 51t-104.5 19q-96 0 -173 -50t-119.5 -124t-56.5 -161q-6 -50 -4 -98t20.5 -90.5t47 -74.5t75 -51t104.5 -19z" />
    <glyph glyph-name="Emacron" unicode="&#x112;" horiz-adv-x="1179" 
d="M907 1822l-34 -211h-527l34 211h527zM905 231l-37 -231h-1030l238 1500h1030l-37 -230h-766l-60 -380h671l-37 -231h-671l-67 -428h766z" />
    <glyph glyph-name="emacron" unicode="&#x113;" 
d="M866 1404l-33 -210h-523l33 210h523zM388 -24q-179 0 -299.5 91.5t-157.5 241.5q-28 107 -7 232q19 125 81 233q84 150 233.5 242t328.5 92q125 0 224 -45t157.5 -120t82.5 -172t7 -203q-2 -16 -8.5 -49.5t-9.5 -50.5l-3 -18h-840q9 -105 72.5 -173.5t175.5 -68.5
q89 0 166.5 47.5t126.5 124.5l13 20l199 -131l-23 -28q-48 -58 -70 -80q-92 -89 -207.5 -137t-241.5 -48zM221 671h554q-16 91 -79 148t-165 57t-183.5 -57t-126.5 -148z" />
    <glyph glyph-name="Ebreve" unicode="&#x114;" horiz-adv-x="1179" 
d="M633 1611q-94 0 -161 48t-93 120t-13 151l5 36h214l-5 -36q-7 -45 16.5 -83.5t67.5 -38.5t81 38.5t44 83.5l5 36h214l-5 -36q-20 -123 -124.5 -221t-245.5 -98zM905 231l-37 -231h-1030l238 1500h1030l-37 -230h-766l-60 -380h671l-37 -231h-671l-67 -428h766z" />
    <glyph glyph-name="ebreve" unicode="&#x115;" 
d="M588 1194q-70 0 -126.5 28t-89.5 74t-46.5 102.5t-4.5 113.5l6 35h215l-6 -35q-7 -45 16.5 -83t66.5 -38t79.5 38t43.5 83l6 35h213l-6 -35q-19 -123 -123 -220.5t-244 -97.5zM388 -24q-179 0 -299.5 91.5t-157.5 241.5q-28 107 -7 232q19 125 81 233q84 150 233.5 242
t328.5 92q125 0 224 -45t157.5 -120t82.5 -172t7 -203q-2 -16 -8.5 -49.5t-9.5 -50.5l-3 -18h-840q9 -105 72.5 -173.5t175.5 -68.5q89 0 166.5 47.5t126.5 124.5l13 20l199 -131l-23 -28q-48 -58 -70 -80q-92 -89 -207.5 -137t-241.5 -48zM221 671h554q-16 91 -79 148
t-165 57t-183.5 -57t-126.5 -148z" />
    <glyph glyph-name="Edotaccent" unicode="&#x116;" horiz-adv-x="1179" 
d="M629 1611q-73 0 -111.5 47.5t-29.5 111.5q10 63 64.5 110t126.5 47t111 -47.5t29 -109.5q-9 -64 -62.5 -111.5t-127.5 -47.5zM905 231l-37 -231h-1030l238 1500h1030l-37 -230h-766l-60 -380h671l-37 -231h-671l-67 -428h766z" />
    <glyph glyph-name="edotaccent" unicode="&#x117;" 
d="M580 1194q-73 0 -111.5 47.5t-28.5 110.5t64 109.5t126 46.5t110.5 -47t28.5 -109q-10 -63 -63 -110.5t-126 -47.5zM388 -24q-179 0 -299.5 91.5t-157.5 241.5q-28 107 -7 232q19 125 81 233q84 150 233.5 242t328.5 92q125 0 224 -45t157.5 -120t82.5 -172t7 -203
q-2 -16 -8.5 -49.5t-9.5 -50.5l-3 -18h-840q9 -105 72.5 -173.5t175.5 -68.5q89 0 166.5 47.5t126.5 124.5l13 20l199 -131l-23 -28q-48 -58 -70 -80q-92 -89 -207.5 -137t-241.5 -48zM221 671h554q-16 91 -79 148t-165 57t-183.5 -57t-126.5 -148z" />
    <glyph glyph-name="Eogonek" unicode="&#x118;" horiz-adv-x="1186" 
d="M624 -408q-114 0 -178.5 61t-48.5 161q15 103 118 186h-677l238 1500h1030l-37 -230h-766l-60 -380h671l-37 -231h-671l-67 -428h766l-35 -220l-14 -4l-12 -4q-73 -26 -145.5 -74t-79.5 -92q-4 -23 8 -34.5t40 -11.5q73 0 157 77l23 21l79 -175l-12 -9
q-142 -113 -290 -113z" />
    <glyph glyph-name="eogonek" unicode="&#x119;" 
d="M328 -405q-113 0 -177.5 60.5t-48.5 159.5q16 105 117 185q-118 37 -192.5 124.5t-98 194t-4.5 222.5q21 139 94 257q88 142 233 226t316 84q125 0 224 -45t157.5 -120t82.5 -172t7 -203q-2 -16 -8.5 -49.5t-9.5 -50.5l-3 -18h-840q9 -105 72.5 -173.5t175.5 -68.5
q90 0 166 47t127 126l13 19l199 -131l-23 -28q-126 -161 -295 -225q-35 -13 -83 -25l-12 -2h-5q-5 -1 -15 -6l-19 -10q-61 -29 -99 -59q-51 -41 -55 -75q-9 -46 46 -46q74 0 156 77l24 21l77 -174l-11 -10q-144 -112 -288 -112zM221 671h554q-16 91 -79 148t-165 57
t-183.5 -57t-126.5 -148z" />
    <glyph glyph-name="Ecaron" unicode="&#x11a;" horiz-adv-x="1179" 
d="M1089 1995l-356 -384h-200l-230 384h263l101 -169l159 169h263zM905 231l-37 -231h-1030l238 1500h1030l-37 -230h-766l-60 -380h671l-37 -231h-671l-67 -428h766z" />
    <glyph glyph-name="ecaron" unicode="&#x11b;" 
d="M1032 1577l-354 -383h-199l-228 383h261l101 -169l157 169h262zM388 -24q-179 0 -299.5 91.5t-157.5 241.5q-28 107 -7 232q19 125 81 233q84 150 233.5 242t328.5 92q125 0 224 -45t157.5 -120t82.5 -172t7 -203q-2 -16 -8.5 -49.5t-9.5 -50.5l-3 -18h-840
q9 -105 72.5 -173.5t175.5 -68.5q89 0 166.5 47.5t126.5 124.5l13 20l199 -131l-23 -28q-48 -58 -70 -80q-92 -89 -207.5 -137t-241.5 -48zM221 671h554q-16 91 -79 148t-165 57t-183.5 -57t-126.5 -148z" />
    <glyph glyph-name="Gcircumflex" unicode="&#x11c;" horiz-adv-x="1565" 
d="M872 1783l-157 -170h-262l352 384h200l234 -384h-264zM586 -24q-243 0 -405.5 124.5t-213.5 329.5q-37 147 -10 320q27 170 111 318q116 206 317.5 330t445.5 124q215 0 368.5 -101t225.5 -275l6 -15l5 -15l-246 -120l-6 19q-39 124 -142 199.5t-248 75.5
q-152 0 -277.5 -77t-204.5 -207q-69 -115 -91 -256q-22 -138 10 -255q37 -130 139 -208t253 -78q195 0 347 126q17 14 64 61q1 2 3 3.5t4 3.5l3 3l10 8l7 7l26 171h-494l36 231h741l-130 -823h-245l14 88q-201 -112 -423 -112z" />
    <glyph glyph-name="gcircumflex" unicode="&#x11d;" horiz-adv-x="1231" 
d="M605 1365l-155 -169h-261l350 383h199l232 -383h-262zM323 -411q-129 0 -234.5 52.5t-165.5 145.5q-23 38 -42 90l-10 28l238 119l5 -21q22 -85 83.5 -134.5t158.5 -49.5q128 0 221.5 76.5t111.5 191.5l7 47q-138 -84 -305 -84q-119 0 -215.5 44.5t-154.5 118.5t-83 169
t-9 195q17 103 70.5 198t134.5 168t191.5 117t232.5 44q167 0 278 -87l10 64h244l-157 -994q-16 -101 -68.5 -191.5t-131.5 -158.5t-185.5 -108t-224.5 -40zM428 281q135 0 226.5 85.5t111.5 210.5q20 124 -46.5 210.5t-200.5 86.5q-135 0 -225.5 -86t-111.5 -211
q-20 -126 45 -211t201 -85z" />
    <glyph glyph-name="Gbreve" unicode="&#x11e;" horiz-adv-x="1565" 
d="M844 1611q-94 0 -160.5 48.5t-92.5 120.5t-13 150l5 36h214l-5 -36q-7 -45 16.5 -83.5t66.5 -38.5q44 0 81.5 38.5t44.5 83.5l5 36h214l-5 -36q-20 -124 -125 -221.5t-246 -97.5zM586 -24q-243 0 -405.5 124.5t-213.5 329.5q-37 147 -10 320q27 170 111 318
q116 206 317.5 330t445.5 124q215 0 368.5 -101t225.5 -275l6 -15l5 -15l-246 -120l-6 19q-39 124 -142 199.5t-248 75.5q-152 0 -277.5 -77t-204.5 -207q-69 -115 -91 -256q-22 -138 10 -255q37 -130 139 -208t253 -78q195 0 347 126q17 14 64 61q1 2 3 3.5t4 3.5l3 3l10 8
l7 7l26 171h-494l36 231h741l-130 -823h-245l14 88q-201 -112 -423 -112z" />
    <glyph glyph-name="gbreve" unicode="&#x11f;" horiz-adv-x="1231" 
d="M594 1194q-94 0 -160.5 48t-92.5 120t-14 150l6 35h215l-6 -35q-7 -45 16.5 -83t66.5 -38t79.5 38t43.5 83l6 35h213l-6 -35q-19 -123 -123 -220.5t-244 -97.5zM323 -411q-132 0 -239.5 55t-165.5 152q-24 40 -37 81l-10 28l238 119l5 -21q22 -85 83.5 -134.5
t158.5 -49.5t178 47.5t124 129.5q21 40 31 92l9 46q-141 -84 -307 -84q-119 0 -215.5 44.5t-154.5 118.5t-83 169t-9 195q17 103 71 198t134.5 168t191.5 117t232 44q167 0 278 -87l10 64h244l-157 -994q-16 -101 -68.5 -191.5t-131.5 -158.5t-185.5 -108t-224.5 -40z
M428 281q135 0 226.5 85.5t111.5 210.5q20 124 -46.5 210.5t-200.5 86.5q-135 0 -225.5 -86t-111.5 -211q-20 -126 45 -211t201 -85z" />
    <glyph glyph-name="Gdotaccent" unicode="&#x120;" horiz-adv-x="1565" 
d="M846 1611q-74 0 -112 47.5t-29 111.5q10 63 64.5 110t126.5 47t111 -47.5t29 -109.5q-9 -64 -62.5 -111.5t-127.5 -47.5zM586 -24q-243 0 -405.5 124.5t-213.5 329.5q-37 147 -10 320q27 170 111 318q116 206 317.5 330t445.5 124q213 0 365 -101.5t229 -274.5l6 -15
l5 -15l-246 -120l-6 19q-39 124 -142 199.5t-248 75.5q-152 0 -277.5 -77t-204.5 -207q-69 -115 -91 -256q-22 -138 10 -255q37 -130 139 -208t253 -78q195 0 347 126q17 14 64 61q1 2 3 3.5t4 3.5l3 3l10 8l7 7l26 171h-494l36 231h741l-130 -823h-245l14 88
q-201 -112 -423 -112z" />
    <glyph glyph-name="gdotaccent" unicode="&#x121;" horiz-adv-x="1231" 
d="M590 1194q-73 0 -111.5 47.5t-28.5 110.5t64 109.5t126 46.5t110.5 -47t28.5 -109q-10 -63 -63 -110.5t-126 -47.5zM323 -411q-132 0 -239.5 55t-165.5 152q-24 40 -37 81l-10 28l238 119l5 -21q22 -85 83.5 -134.5t158.5 -49.5t178 47.5t124 129.5q21 40 31 92l9 46
q-141 -84 -307 -84q-119 0 -215.5 44.5t-154.5 118.5t-83 169t-9 195q17 103 71 198t134.5 168t191.5 117t232 44q167 0 278 -87l10 64h244l-157 -994q-16 -101 -68.5 -191.5t-131.5 -158.5t-185.5 -108t-224.5 -40zM428 281q135 0 226.5 85.5t111.5 210.5
q20 124 -46.5 210.5t-200.5 86.5q-135 0 -225.5 -86t-111.5 -211q-20 -126 45 -211t201 -85z" />
    <glyph glyph-name="Itilde" unicode="&#x128;" horiz-adv-x="399" 
d="M356 1611q-73 0 -145 45q-43 27 -45 28q-19 11 -34 11q-9 0 -17 -16q-2 -4 -5 -11.5t-5 -10.5l-5 -21l-4 -16h-219l7 37q10 44 32 85.5t55.5 77.5t82.5 57.5t105 21.5q70 0 143 -44q5 -3 21 -13.5t25 -14.5q19 -11 35 -11q8 0 17 17q8 19 9 22l6 21l5 16h217l-8 -36
q-22 -98 -92.5 -171.5t-180.5 -73.5zM333 1500l-238 -1500h-263l238 1500h263z" />
    <glyph glyph-name="itilde" unicode="&#x129;" horiz-adv-x="387" 
d="M276 1194q-70 0 -143 45q-28 19 -45 29q-22 11 -33 11q-9 0 -17 -17q-2 -3 -3.5 -6.5t-3 -8t-2.5 -6.5l-6 -21l-4 -16h-218l7 36q21 96 93 169t180 73q71 0 143 -45q44 -27 45 -28q20 -11 33 -11q9 0 18 18q8 19 9 22l6 21l5 16h216l-8 -37q-22 -97 -92.5 -170.5
t-179.5 -73.5zM251 1081l-171 -1081h-243l171 1081h243z" />
    <glyph glyph-name="Imacron" unicode="&#x12a;" horiz-adv-x="403" 
d="M515 1822l-34 -211h-527l34 211h527zM335 1500l-238 -1500h-263l238 1500h263z" />
    <glyph glyph-name="imacron" unicode="&#x12b;" horiz-adv-x="387" 
d="M449 1404l-33 -210h-523l33 210h523zM250 1081l-171 -1081h-242l171 1081h242z" />
    <glyph glyph-name="Iogonek" unicode="&#x12e;" horiz-adv-x="410" 
d="M-221 -408q-114 0 -178 61t-48 161q15 97 95 167.5t193 109.5l224 1409h265l-236 -1490l-15 -4q-127 -36 -159 -48q-66 -24 -102 -50.5t-43 -69.5q-4 -24 8 -35.5t40 -11.5q73 0 157 77l23 21l78 -172l-10 -10q-61 -53 -137.5 -84t-154.5 -31z" />
    <glyph glyph-name="iogonek" unicode="&#x12f;" horiz-adv-x="387" 
d="M309 1490l-48 -304h-243l48 304h243zM-181 -402q-112 0 -176.5 61t-49.5 160q14 87 82 153t168 108l158 1001h243l-171 -1081h-20l-20 1q-11 0 -16 -1l-12 -6l-19 -9q-62 -29 -108 -62q-57 -43 -63 -81q-4 -23 8 -34.5t39 -11.5q69 0 156 78l23 21l78 -174l-12 -10
q-146 -113 -288 -113z" />
    <glyph glyph-name="Idotaccent" unicode="&#x130;" horiz-adv-x="411" 
d="M216 1611q-74 0 -112 47.5t-29 111.5q10 63 64.5 110t126.5 47t111.5 -47t29.5 -110q-9 -64 -63 -111.5t-128 -47.5zM339 1500l-238 -1500h-263l238 1500h263z" />
    <glyph glyph-name="dotlessi" unicode="&#x131;" horiz-adv-x="393" 
d="M253 1081l-171 -1081h-243l171 1081h243z" />
    <glyph glyph-name="Omacron" unicode="&#x14c;" horiz-adv-x="1653" 
d="M1173 1822l-34 -211h-526l34 211h526zM586 -24q-240 0 -402.5 123t-215.5 325q-39 152 -11 326q27 174 114 325q116 202 318 324.5t442 122.5q247 0 411 -128t212 -338q33 -143 8 -306q-27 -165 -105 -308q-114 -209 -319.5 -337.5t-451.5 -128.5zM623 209q163 0 294 87
t207 231q54 100 73 223q19 121 -2 223q-30 143 -134 230t-267 87q-159 0 -288 -83.5t-205 -221.5q-61 -109 -80 -235q-21 -129 5 -236q33 -139 135.5 -222t261.5 -83z" />
    <glyph glyph-name="omacron" unicode="&#x14d;" 
d="M870 1404l-33 -210h-523l33 210h523zM388 -24q-177 0 -297 90t-159 239q-29 108 -8 236q17 108 69.5 208.5t132.5 181t195 129t246 48.5q182 0 303 -94.5t157 -248.5q25 -105 6 -224q-21 -128 -84 -236q-86 -149 -235 -239t-326 -90zM425 208q95 0 172 49.5t120 123.5
t57 160q6 50 4 98.5t-20.5 91.5t-47 75t-75 51t-104.5 19q-96 0 -173 -50t-119.5 -124t-56.5 -161q-6 -50 -4 -98t20.5 -90.5t47 -74.5t75 -51t104.5 -19z" />
    <glyph glyph-name="Obreve" unicode="&#x14e;" horiz-adv-x="1653" 
d="M841 1611q-94 0 -160.5 48.5t-92.5 120.5t-13 150l5 36h214l-5 -36q-7 -45 16.5 -83.5t66.5 -38.5q44 0 81.5 38.5t44.5 83.5l5 36h214l-5 -36q-20 -124 -125 -221.5t-246 -97.5zM586 -24q-240 0 -402.5 123t-215.5 325q-39 152 -11 326q27 174 114 325
q116 202 318 324.5t442 122.5q247 0 411 -128t212 -338q33 -143 8 -306q-27 -165 -105 -308q-114 -209 -319.5 -337.5t-451.5 -128.5zM623 209q163 0 294 87t207 231q54 100 73 223q19 121 -2 223q-30 143 -134 230t-267 87q-159 0 -288 -83.5t-205 -221.5
q-61 -109 -80 -235q-21 -129 5 -236q33 -139 135.5 -222t261.5 -83z" />
    <glyph glyph-name="obreve" unicode="&#x14f;" 
d="M572 1194q-94 0 -160 48t-91.5 120t-13.5 150l6 35h213l-6 -35q-7 -45 17 -83t66 -38q43 0 79.5 38t43.5 83l6 35h213l-6 -35q-19 -123 -123 -220.5t-244 -97.5zM388 -24q-177 0 -297 90t-159 239q-29 108 -8 236q17 108 69.5 208.5t132.5 181t195 129t246 48.5
q182 0 303 -94.5t157 -248.5q25 -105 6 -224q-21 -128 -84 -236q-86 -149 -235 -239t-326 -90zM425 208q95 0 172 49.5t120 123.5t57 160q6 50 4 98.5t-20.5 91.5t-47 75t-75 51t-104.5 19q-96 0 -173 -50t-119.5 -124t-56.5 -161q-6 -50 -4 -98t20.5 -90.5t47 -74.5t75 -51
t104.5 -19z" />
    <glyph glyph-name="Ohungarumlaut" unicode="&#x150;" horiz-adv-x="1653" 
d="M1042 1997l-298 -386h-240l263 386h275zM1429 1997l-298 -386h-240l263 386h275zM586 -24q-240 0 -402.5 123t-215.5 325q-39 152 -11 326q27 174 114 325q116 202 318 324.5t442 122.5q247 0 411 -128t212 -338q33 -143 8 -306q-27 -165 -105 -308
q-114 -209 -319.5 -337.5t-451.5 -128.5zM623 209q163 0 294 87t207 231q54 100 73 223q19 121 -2 223q-30 143 -134 230t-267 87q-159 0 -288 -83.5t-205 -221.5q-61 -109 -80 -235q-21 -129 5 -236q33 -139 135.5 -222t261.5 -83z" />
    <glyph glyph-name="ohungarumlaut" unicode="&#x151;" 
d="M809 1604l-298 -386h-240l263 386h275zM1196 1604l-298 -386h-240l263 386h275zM388 -24q-177 0 -297 90t-159 239q-29 108 -8 236q17 108 69.5 208.5t132.5 181t195 129t246 48.5q182 0 303 -94.5t157 -248.5q25 -105 6 -224q-21 -128 -84 -236q-86 -149 -235 -239
t-326 -90zM425 208q95 0 172 49.5t120 123.5t57 160q6 50 4 98.5t-20.5 91.5t-47 75t-75 51t-104.5 19q-96 0 -173 -50t-119.5 -124t-56.5 -161q-6 -50 -4 -98t20.5 -90.5t47 -74.5t75 -51t104.5 -19z" />
    <glyph glyph-name="OE" unicode="&#x152;" horiz-adv-x="2456" 
d="M602 -24q-233 0 -394 116.5t-218 310.5q-48 159 -17 347q29 189 127 346q118 194 316 310t431 116q286 0 461 -172l24 150h1031l-37 -230h-766l-60 -380h671l-37 -231h-671l-67 -428h766l-37 -231h-1031l23 148q-231 -172 -515 -172zM639 209q163 0 294 87t207 231
q54 100 73 223q19 121 -2 223q-30 143 -134 230t-267 87q-159 0 -288 -83.5t-205 -221.5q-61 -109 -80 -235q-21 -129 5 -236q33 -139 135.5 -222t261.5 -83z" />
    <glyph glyph-name="oe" unicode="&#x153;" horiz-adv-x="2162" 
d="M404 -24q-176 0 -295.5 88t-158.5 236q-30 112 -10 241q21 133 86 242q86 148 233 236.5t324 88.5q131 0 233 -51t164 -144q90 93 208.5 144t248.5 51q177 0 296.5 -88.5t159.5 -236.5q31 -112 10 -242l-13 -73l-3 -18h-839q9 -105 72 -173.5t175 -68.5q90 0 167 47.5
t127 125.5l12 19l198 -130l-9 -14q-92 -129 -232 -204.5t-300 -75.5q-130 0 -233 50.5t-163 142.5q-92 -92 -210 -142.5t-248 -50.5zM441 208q93 0 170 50.5t121 125t58 158.5q13 84 -7 158.5t-81.5 125t-154.5 50.5q-96 0 -173 -50t-119.5 -124t-56.5 -161q-6 -50 -4 -98
t20.5 -90.5t47 -74.5t75 -51t104.5 -19zM1092 671h553q-15 91 -78 148t-166 57q-101 0 -182.5 -57t-126.5 -148z" />
    <glyph glyph-name="Rcaron" unicode="&#x158;" horiz-adv-x="1305" 
d="M1082 1995l-357 -384h-200l-230 384h263l101 -169l159 169h264zM188 545l-86 -545h-264l238 1500h547q243 0 371.5 -132.5t94.5 -345.5q-22 -138 -109 -251t-231 -172l255 -599h-305l-232 545h-279zM586 1270h-283l-78 -493h283q125 0 209.5 68t101.5 179q17 110 -46 178
t-187 68z" />
    <glyph glyph-name="rcaron" unicode="&#x159;" horiz-adv-x="798" 
d="M796 1577l-355 -383h-199l-228 383h263l99 -169l157 169h263zM215 649l-103 -649h-242l171 1081h242l-4 -25q105 47 219 47q60 0 114 -12l15 -3l-37 -236l-24 5q-9 1 -26.5 5t-27.5 6q-24 6 -50 6q-102 0 -167 -64t-80 -161z" />
    <glyph glyph-name="Sacute" unicode="&#x15a;" horiz-adv-x="1295" 
d="M1035 1995l-298 -384h-239l263 384h274zM455 -24q-178 0 -313.5 82.5t-196.5 223.5q-22 48 -36 119l-6 29l256 101l3 -20q49 -302 330 -302q110 0 193.5 49t97.5 138q13 83 -26.5 125.5t-134.5 73.5q-41 13 -124.5 37.5t-124.5 37.5q-166 53 -250.5 160t-60.5 264
q30 190 195.5 310t382.5 120q160 0 285 -70.5t188 -192.5q22 -42 41 -119l5 -28l-255 -107l-4 21q-20 121 -92 192.5t-202 71.5q-109 0 -187 -49t-92 -139q-12 -75 33.5 -126.5t131.5 -77.5q44 -14 125 -38t110 -33q370 -112 322 -420q-21 -131 -108 -230.5t-213.5 -151
t-272.5 -51.5z" />
    <glyph glyph-name="sacute" unicode="&#x15b;" horiz-adv-x="1041" 
d="M780 1560l-294 -382h-239l260 382h273zM309 -23q-170 0 -281 89.5t-141 234.5l-3 14l233 109l10 -40q22 -81 76 -128.5t143 -47.5q65 0 115 27.5t59 77.5q5 36 -30 62q-23 17 -82 35l-152 45q-129 39 -194 118t-46 200q24 150 148.5 240.5t294.5 90.5q160 0 264.5 -85
t129.5 -222l3 -14l-235 -104l-4 22q-12 77 -62 126t-132 49q-59 0 -102 -24.5t-50 -68.5q-6 -38 20 -61t79 -41q25 -9 78.5 -25.5t80.5 -25.5q129 -42 195 -121t47 -200q-16 -101 -85 -178t-167 -115.5t-210 -38.5z" />
    <glyph glyph-name="Scircumflex" unicode="&#x15c;" horiz-adv-x="1295" 
d="M682 1781l-157 -170h-263l353 384h200l234 -384h-264zM455 -24q-178 0 -313.5 82.5t-196.5 223.5q-22 48 -36 119l-6 29l256 101l3 -20q49 -302 330 -302q110 0 193.5 49t97.5 138q13 83 -26.5 125.5t-134.5 73.5q-41 13 -124.5 37.5t-124.5 37.5q-166 53 -250.5 160
t-60.5 264q30 190 195.5 310t382.5 120q160 0 285 -70.5t188 -192.5q22 -42 41 -119l5 -28l-255 -107l-4 21q-20 121 -92 192.5t-202 71.5q-109 0 -187 -49t-92 -139q-12 -75 33.5 -126.5t131.5 -77.5q44 -14 125 -38t110 -33q370 -112 322 -420q-21 -131 -108 -230.5
t-213.5 -151t-272.5 -51.5z" />
    <glyph glyph-name="scircumflex" unicode="&#x15d;" horiz-adv-x="1041" 
d="M499 1371l-155 -169h-262l350 383h199l233 -383h-263zM309 -23q-170 0 -281 89.5t-141 234.5l-3 14l233 109l10 -40q22 -81 76 -128.5t143 -47.5q65 0 115 27.5t59 77.5q5 36 -30 62q-23 17 -82 35l-152 45q-129 39 -194 118t-46 200q24 150 148.5 240.5t294.5 90.5
q160 0 264.5 -85t129.5 -222l3 -14l-235 -104l-4 22q-12 77 -62 126t-132 49q-59 0 -102 -24.5t-50 -68.5q-6 -38 20 -61t79 -41q25 -9 78.5 -25.5t80.5 -25.5q129 -42 195 -121t47 -200q-16 -101 -85 -178t-167 -115.5t-210 -38.5z" />
    <glyph glyph-name="Scedilla" unicode="&#x15e;" horiz-adv-x="1295" 
d="M383 -387q-143 0 -246 108l-18 18l135 171l14 -21q57 -77 135 -77q54 0 62 47q7 47 -71 110q-12 9 -14 11q-5 3 -8 3h-9q-2 0 -6 0.5t-6 1.5l-30 6q-43 9 -87 24q-107 39 -184.5 115.5t-115.5 175.5q-14 36 -25 95l-6 29l255 101l8 -41q24 -130 103.5 -205.5t222.5 -75.5
q110 0 193.5 49t97.5 138q13 82 -26.5 126t-134.5 73l-249 75q-165 50 -250.5 159t-60.5 265q30 190 195.5 310t382.5 120q202 0 339.5 -105.5t174.5 -276.5l5 -28l-255 -107l-4 21q-48 264 -294 264q-109 0 -187 -49t-92 -139q-12 -74 33.5 -126t131.5 -78l234 -71
q372 -110 323 -420q-24 -148 -133.5 -257.5t-274.5 -151.5q54 -74 39 -165q-16 -100 -100 -161t-197 -61z" />
    <glyph glyph-name="scedilla" unicode="&#x15f;" horiz-adv-x="1041" 
d="M248 -384q-142 0 -244 107l-18 18l133 171l16 -21q57 -77 134 -77q52 0 60 46q8 48 -59 101l-17 13q-10 6 -16 9l-3 1q-1 0 -4.5 0.5t-5.5 0.5l-21 4q-29 5 -64 17q-104 37 -167 115t-85 180l-3 14l234 109l10 -40q20 -80 75 -128t143 -48q66 0 115.5 27.5t58.5 77.5
q5 37 -24.5 58.5t-87.5 38.5l-152 45q-129 39 -194 118t-46 200q24 150 148.5 240.5t294.5 90.5q161 0 264.5 -84.5t129.5 -222.5l3 -14l-235 -104l-4 22q-12 78 -61.5 126.5t-132.5 48.5q-59 0 -102 -24.5t-50 -68.5q-6 -38 20.5 -61.5t78.5 -40.5l159 -51
q129 -41 195 -120.5t47 -200.5q-16 -103 -88.5 -182t-184.5 -118q61 -75 46 -172q-15 -99 -99.5 -160t-196.5 -61z" />
    <glyph glyph-name="Scaron" unicode="&#x160;" horiz-adv-x="1295" 
d="M1103 1995l-357 -384h-200l-230 384h262l102 -169l159 169h264zM455 -24q-178 0 -313.5 82.5t-196.5 223.5q-22 48 -36 119l-6 29l256 101l3 -20q49 -302 330 -302q110 0 193.5 49t97.5 138q13 83 -26.5 125.5t-134.5 73.5q-41 13 -124.5 37.5t-124.5 37.5
q-166 53 -250.5 160t-60.5 264q30 190 195.5 310t382.5 120q160 0 285 -70.5t188 -192.5q22 -42 41 -119l5 -28l-255 -107l-4 21q-20 121 -92 192.5t-202 71.5q-109 0 -187 -49t-92 -139q-12 -75 33.5 -126.5t131.5 -77.5q44 -14 125 -38t110 -33q370 -112 322 -420
q-21 -131 -108 -230.5t-213.5 -151t-272.5 -51.5z" />
    <glyph glyph-name="scaron" unicode="&#x161;" horiz-adv-x="1041" 
d="M922 1577l-354 -383h-200l-228 383h262l101 -169l156 169h263zM309 -23q-170 0 -281 89.5t-141 234.5l-3 14l233 109l10 -40q22 -81 76 -128.5t143 -47.5q65 0 115 27.5t59 77.5q5 36 -30 62q-23 17 -82 35l-152 45q-129 39 -194 118t-46 200q24 150 148.5 240.5
t294.5 90.5q160 0 264.5 -85t129.5 -222l3 -14l-235 -104l-4 22q-12 77 -62 126t-132 49q-59 0 -102 -24.5t-50 -68.5q-6 -38 20 -61t79 -41q25 -9 78.5 -25.5t80.5 -25.5q129 -42 195 -121t47 -200q-16 -101 -85 -178t-167 -115.5t-210 -38.5z" />
    <glyph glyph-name="Utilde" unicode="&#x168;" horiz-adv-x="1277" 
d="M806 1611q-71 0 -143 45q-43 27 -45 28q-20 11 -34 11q-9 0 -17 -16l-9 -22l-6 -21l-4 -16h-218l7 37q13 60 46 113t93 91t135 38q70 0 143 -44q29 -20 45 -28q19 -11 34 -11q10 0 19 17q7 12 15 42l3 17h217l-6 -35q-5 -35 -25 -76q-34 -75 -98.5 -122.5t-151.5 -47.5z
M398 -24q-259 0 -389 142t-94 370l161 1012h266l-161 -1012q-18 -119 52 -199t202 -80q130 0 227 81t115 198l161 1012h266l-161 -1012q-36 -227 -211.5 -369.5t-433.5 -142.5z" />
    <glyph glyph-name="utilde" unicode="&#x169;" horiz-adv-x="1058" 
d="M597 1194q-70 0 -143 45q-28 19 -45 29q-22 11 -33 11q-9 0 -17 -17q-2 -3 -3.5 -6.5t-3 -8t-2.5 -6.5l-6 -21l-4 -16h-218l7 36q21 96 93 169t180 73q71 0 143 -45q44 -27 45 -28q20 -11 33 -11q10 0 18 18q2 4 9 22l6 21l5 16h216l-8 -37q-22 -97 -92.5 -170.5
t-179.5 -73.5zM290 -21q-200 0 -309.5 114.5t-81.5 290.5l110 697h243l-103 -649q-15 -97 29 -160t146 -63q103 0 167 63t79 160l103 649h245l-171 -1081h-245l4 25q-106 -46 -216 -46z" />
    <glyph glyph-name="Umacron" unicode="&#x16a;" horiz-adv-x="1277" 
d="M955 1822l-34 -211h-526l34 211h526zM398 -24q-259 0 -389 142t-94 370l161 1012h266l-161 -1012q-18 -119 52 -199t202 -80q130 0 227 81t115 198l161 1012h266l-161 -1012q-36 -227 -211.5 -369.5t-433.5 -142.5z" />
    <glyph glyph-name="umacron" unicode="&#x16b;" horiz-adv-x="1058" 
d="M767 1404l-33 -210h-523l33 210h523zM290 -21q-200 0 -309.5 114.5t-81.5 290.5l110 697h243l-103 -649q-15 -97 29 -160t146 -63q103 0 167 63t79 160l103 649h245l-171 -1081h-245l4 25q-106 -46 -216 -46z" />
    <glyph glyph-name="Ubreve" unicode="&#x16c;" horiz-adv-x="1277" 
d="M642 1611q-94 0 -160.5 48.5t-92.5 120.5t-13 150l5 36h214l-5 -36q-7 -45 16.5 -83.5t66.5 -38.5q44 0 81.5 38.5t44.5 83.5l5 36h214l-5 -36q-20 -124 -125 -221.5t-246 -97.5zM398 -24q-259 0 -389 142t-94 370l161 1012h266l-161 -1012q-18 -119 52 -199t202 -80
q130 0 227 81t115 198l161 1012h266l-161 -1012q-36 -227 -211.5 -369.5t-433.5 -142.5z" />
    <glyph glyph-name="ubreve" unicode="&#x16d;" horiz-adv-x="1058" 
d="M484 1194q-94 0 -160 48t-91.5 120t-13.5 150l6 35h213l-6 -35q-7 -45 16.5 -83t66.5 -38t79.5 38t43.5 83l6 35h213l-6 -35q-19 -123 -123 -220.5t-244 -97.5zM290 -21q-200 0 -309.5 114.5t-81.5 290.5l110 697h243l-103 -649q-15 -97 29 -160t146 -63q103 0 167 63
t79 160l103 649h245l-171 -1081h-245l4 25q-106 -46 -216 -46z" />
    <glyph glyph-name="Uring" unicode="&#x16e;" horiz-adv-x="1277" 
d="M666 1611q-106 0 -163 69t-42 161q14 92 93 160t185 68q105 0 163.5 -68t44.5 -160q-15 -93 -95 -161.5t-186 -68.5zM689 1759q34 0 60.5 24.5t32.5 59.5q5 33 -14.5 55t-53.5 22q-33 0 -58 -21t-30 -56q-6 -35 13 -59.5t50 -24.5zM398 -24q-259 0 -389 142t-94 370
l161 1012h266l-161 -1012q-18 -119 52 -199t202 -80q130 0 227 81t115 198l161 1012h266l-161 -1012q-36 -227 -211.5 -369.5t-433.5 -142.5z" />
    <glyph glyph-name="uring" unicode="&#x16f;" horiz-adv-x="1058" 
d="M476 1252q-106 0 -163 69t-42 161t93.5 160t184.5 68q105 0 164 -68t44 -160q-15 -93 -95 -161.5t-186 -68.5zM499 1400q34 0 61 24.5t32 59.5q5 33 -14.5 55t-53.5 22q-33 0 -58 -21t-30 -56t13.5 -59.5t49.5 -24.5zM290 -21q-200 0 -309.5 114.5t-81.5 290.5l110 697
h243l-103 -649q-15 -97 29 -160t146 -63q103 0 167 63t79 160l103 649h245l-171 -1081h-245l4 25q-106 -46 -216 -46z" />
    <glyph glyph-name="Uhungarumlaut" unicode="&#x170;" horiz-adv-x="1277" 
d="M871 1997l-298 -386h-240l263 386h275zM1258 1997l-298 -386h-240l263 386h275zM398 -24q-259 0 -389 142t-94 370l161 1012h266l-161 -1012q-18 -119 52 -199t202 -80q130 0 227 81t115 198l161 1012h266l-161 -1012q-36 -227 -211.5 -369.5t-433.5 -142.5z" />
    <glyph glyph-name="uhungarumlaut" unicode="&#x171;" horiz-adv-x="1074" 
d="M698 1597l-298 -386h-240l263 386h275zM1085 1597l-298 -386h-240l263 386h275zM290 -21q-200 0 -309.5 114.5t-81.5 290.5l110 697h243l-103 -649q-15 -97 29 -160t146 -63q103 0 167 63t79 160l103 649h245l-171 -1081h-245l4 25q-106 -46 -216 -46z" />
    <glyph glyph-name="Uogonek" unicode="&#x172;" horiz-adv-x="1285" 
d="M777 488l161 1012h266l-161 -1012q-31 -195 -168 -330.5t-343 -170.5q-97 -28 -126 -39q-66 -23 -102 -50t-43 -70q-7 -47 47 -47q74 0 158 77l23 21l78 -172l-11 -10q-61 -53 -137 -84t-154 -31q-114 0 -178.5 61t-48.5 161q19 120 143 205q-153 53 -223 179.5
t-43 299.5l161 1012h266l-161 -1012q-18 -119 52 -199t202 -80q130 0 227 81t115 198z" />
    <glyph glyph-name="uogonek" unicode="&#x173;" horiz-adv-x="1065" 
d="M504 -405q-113 0 -177.5 60.5t-48.5 159.5q15 96 126 179q-56 -15 -114 -15q-200 0 -309.5 114.5t-81.5 290.5l110 697h243l-103 -649q-15 -96 29 -159.5t146 -63.5q103 0 167 63t79 160l103 649h245l-169 -1070l-14 -4l-12 -4q-75 -27 -145.5 -73.5t-77.5 -90.5
q-7 -46 46 -46q73 0 157 77l23 21l77 -174l-11 -9q-143 -113 -288 -113z" />
    <glyph glyph-name="Wcircumflex" unicode="&#x174;" horiz-adv-x="2129" 
d="M1105 1781l-155 -170h-264l352 384h200l235 -384h-264zM997 1066l-476 -1066h-248l-202 1500h270l131 -1047l459 1047h270l128 -1044l463 1044h270l-679 -1500h-248z" />
    <glyph glyph-name="wcircumflex" unicode="&#x175;" horiz-adv-x="1745" 
d="M847 1363l-155 -169h-263l352 383h199l231 -383h-263zM743 660l-314 -660h-211l-215 1081h273l111 -657l307 657h226l99 -654l320 654h272l-559 -1081h-209z" />
    <glyph glyph-name="Ycircumflex" unicode="&#x176;" horiz-adv-x="1473" 
d="M773 1781l-155 -170h-264l352 384h201l235 -384h-265zM741 687l-109 -687h-263l109 687l-415 813h297l289 -564l465 564h298z" />
    <glyph glyph-name="ycircumflex" unicode="&#x177;" horiz-adv-x="1263" 
d="M605 1363l-155 -169h-263l352 383h198l232 -383h-263zM1129 1081l-862 -1492h-267l263 470l-262 1022h276l179 -698l397 698h276z" />
    <glyph glyph-name="Ydieresis" unicode="&#x178;" horiz-adv-x="1473" 
d="M557 1601q-74 0 -112.5 47.5t-28.5 111.5q9 62 63.5 109.5t127.5 47.5q72 0 110.5 -47.5t29.5 -109.5q-10 -64 -63 -111.5t-127 -47.5zM983 1601q-74 0 -112.5 47.5t-28.5 111.5q9 62 63.5 109.5t127.5 47.5q72 0 110.5 -47.5t29.5 -109.5q-10 -64 -63 -111.5t-127 -47.5
zM741 687l-109 -687h-263l109 687l-415 813h297l289 -564l465 564h298z" />
    <glyph glyph-name="Zacute" unicode="&#x179;" horiz-adv-x="1293" 
d="M991 1995l-297 -384h-240l263 384h274zM1018 231l-37 -231h-1143l25 156l951 1114h-726l37 230h1077l-25 -156l-952 -1113h793z" />
    <glyph glyph-name="zacute" unicode="&#x17a;" horiz-adv-x="1019" 
d="M783 1577l-296 -383h-239l262 383h273zM744 230l-36 -230h-870l28 178l635 672h-497l36 231h837l-28 -177l-635 -674h530z" />
    <glyph glyph-name="Zdotaccent" unicode="&#x17b;" horiz-adv-x="1293" 
d="M688 1611q-74 0 -112 47t-28 112q10 63 63.5 110t126.5 47q72 0 111 -48t29 -109q-10 -63 -63 -111t-127 -48zM1018 231l-37 -231h-1143l25 156l951 1114h-726l37 230h1077l-25 -156l-952 -1113h793z" />
    <glyph glyph-name="zdotaccent" unicode="&#x17c;" horiz-adv-x="1019" 
d="M448 1194q-73 0 -111.5 47.5t-28.5 110.5q10 62 64 109t126 47t110.5 -47t28.5 -109q-10 -63 -63 -110.5t-126 -47.5zM744 230l-36 -230h-870l28 178l635 672h-497l36 231h837l-28 -177l-635 -674h530z" />
    <glyph glyph-name="Zcaron" unicode="&#x17d;" horiz-adv-x="1293" 
d="M1148 1995l-356 -384h-202l-230 384h265l101 -169l157 169h265zM1018 231l-37 -231h-1143l25 156l951 1114h-726l37 230h1077l-25 -156l-952 -1113h793z" />
    <glyph glyph-name="zcaron" unicode="&#x17e;" horiz-adv-x="1019" 
d="M909 1577l-355 -383h-199l-228 383h262l100 -169l157 169h263zM744 230l-36 -230h-870l28 178l635 672h-497l36 231h837l-28 -177l-635 -674h530z" />
    <glyph glyph-name="circumflex" unicode="&#x2c6;" horiz-adv-x="863" 
d="M420 1429l-153 -170h-264l351 383h199l233 -383h-264z" />
    <glyph glyph-name="caron" unicode="&#x2c7;" horiz-adv-x="863" 
d="M847 1642l-355 -383h-199l-229 383h264l99 -168l156 168h264z" />
    <glyph glyph-name="breve" unicode="&#x2d8;" horiz-adv-x="714" 
d="M318 1259q-93 0 -159 48.5t-91.5 120.5t-13.5 150l5 35h215l-5 -35q-7 -46 15.5 -84.5t64.5 -38.5q45 0 82.5 38.5t44.5 84.5l5 35h212l-5 -35q-20 -124 -124.5 -221.5t-245.5 -97.5z" />
    <glyph glyph-name="dotaccent" unicode="&#x2d9;" horiz-adv-x="409" 
d="M169 1259q-74 0 -112 47.5t-28 111.5q9 63 63 109.5t127 46.5q72 0 110.5 -47t29.5 -109q-10 -63 -63.5 -111t-126.5 -48z" />
    <glyph glyph-name="ring" unicode="&#x2da;" horiz-adv-x="563" 
d="M245 1259q-105 0 -162.5 69t-42.5 160q15 93 93.5 160t184.5 67q105 0 162 -67.5t43 -159.5q-15 -91 -94 -160t-184 -69zM275 1448q15 0 28.5 12t16.5 28q2 16 -7 27t-25 11q-17 0 -30 -11t-15 -27q-3 -16 6.5 -28t25.5 -12z" />
    <glyph glyph-name="ogonek" unicode="&#x2db;" horiz-adv-x="622" 
d="M5 -381q-113 0 -177.5 61t-48.5 160q13 85 78.5 149.5t161.5 106.5q31 14 86 31l14 6l200 -70l-48 -17q-113 -45 -166 -75q-96 -56 -104 -108q-4 -23 8 -34.5t39 -11.5q74 0 156 78l23 21l78 -174l-11 -9q-149 -114 -289 -114z" />
    <glyph glyph-name="tilde" unicode="&#x2dc;" horiz-adv-x="791" 
d="M480 1259q-67 0 -142 45q-35 22 -47 29q-19 11 -32 11q-9 0 -17 -17q-6 -11 -9 -22l-5 -20l-5 -16h-218l8 37q21 96 93 168.5t180 72.5q72 0 144 -45l44 -28q20 -11 34 -11q7 0 17 18q4 10 8 23l7 21l4 16h216l-8 -38q-22 -97 -92.5 -170.5t-179.5 -73.5z" />
    <glyph glyph-name="hungarumlaut" unicode="&#x2dd;" horiz-adv-x="830" 
d="M537 1644l-295 -385h-239l262 385h272zM814 1644l-298 -385h-239l264 385h273z" />
    <glyph glyph-name="gravecomb" unicode="&#x300;" horiz-adv-x="0" 
d="M-211 1577l139 -383h-238l-174 383h273z" />
    <glyph glyph-name="acutecomb" unicode="&#x301;" horiz-adv-x="0" 
d="M-9 1577l-295 -383h-239l262 383h272z" />
    <glyph glyph-name="uni0302" unicode="&#x302;" horiz-adv-x="0" 
d="M-441 1363l-153 -169h-263l350 383h199l233 -383h-263z" />
    <glyph glyph-name="tildecomb" unicode="&#x303;" horiz-adv-x="0" 
d="M-324 1194q-70 0 -143 45q-28 19 -45 29q-22 11 -33 11q-9 0 -17 -17q-2 -3 -3.5 -6.5t-3 -8t-2.5 -6.5l-6 -21l-4 -16h-218l7 36q21 96 93 169t180 73q71 0 143 -45q44 -27 45 -28q20 -11 33 -11q9 0 18 18q8 19 9 22l6 21l5 16h216l-8 -37q-22 -97 -92.5 -170.5
t-179.5 -73.5z" />
    <glyph glyph-name="uni0304" unicode="&#x304;" horiz-adv-x="0" 
d="M-52 1404l-33 -210h-523l33 210h523z" />
    <glyph glyph-name="uni0306" unicode="&#x306;" horiz-adv-x="0" 
d="M-406 1194q-93 0 -159.5 48t-92 120t-13.5 150l6 35h214l-6 -35q-7 -45 16.5 -83t65.5 -38q44 0 81 38t44 83l6 35h212l-6 -35q-19 -123 -123.5 -220.5t-244.5 -97.5z" />
    <glyph glyph-name="uni0307" unicode="&#x307;" horiz-adv-x="0" 
d="M-243 1194q-73 0 -111.5 47.5t-28.5 110.5t64 109.5t126 46.5t110.5 -47t28.5 -109q-10 -63 -63 -110.5t-126 -47.5z" />
    <glyph glyph-name="uni0308" unicode="&#x308;" horiz-adv-x="0" 
d="M-574 1194q-73 0 -111.5 47.5t-28.5 110.5t64 109.5t126 46.5q62 0 100 -35.5t40 -88.5q20 52 70 88t112 36q70 0 109 -47.5t30 -108.5q-9 -62 -63 -110t-126 -48q-64 0 -101.5 36t-40.5 90q-20 -54 -68.5 -90t-111.5 -36z" />
    <glyph glyph-name="uni030A" unicode="&#x30a;" horiz-adv-x="0" 
d="M-325 1194q-105 0 -162 69t-42 161q14 91 92.5 158t183.5 67q104 0 162 -67t44 -158q-15 -92 -94 -161t-184 -69zM-295 1383q16 0 29 12t16 29q2 15 -8 26t-25 11q-16 0 -28.5 -10.5t-14.5 -26.5q-3 -17 6 -29t25 -12z" />
    <glyph glyph-name="uni030B" unicode="&#x30b;" horiz-adv-x="0" 
d="M-294 1579l-295 -385h-239l262 385h272zM-17 1579l-298 -385h-239l264 385h273z" />
    <glyph glyph-name="uni030C" unicode="&#x30c;" horiz-adv-x="0" 
d="M-14 1577l-355 -383h-199l-228 383h263l99 -169l157 169h263z" />
    <glyph glyph-name="uni0326" unicode="&#x326;" horiz-adv-x="0" 
d="M-275 6l-322 -455h-208l226 455h304z" />
    <glyph glyph-name="uni0327" unicode="&#x327;" horiz-adv-x="0" 
d="M-597 -384q-142 0 -244 107l-17 18l133 171l16 -21q57 -77 134 -77q51 0 59 46q8 55 -70 109q-28 20 -75 43l-69 32l-42 19l235 68l12 -6q51 -19 77 -34q79 -43 120 -107t27 -147q-15 -99 -99 -160t-197 -61z" />
    <glyph glyph-name="uni0328" unicode="&#x328;" horiz-adv-x="0" 
d="M-610 -380q-113 0 -177.5 60.5t-48.5 159.5q13 86 78 150t162 106q28 13 86 31l7 3l8 3l197 -70l-47 -17q-113 -45 -166 -75q-96 -56 -104 -108q-4 -23 8 -34.5t39 -11.5q76 0 156 78l23 22l78 -175l-11 -9q-146 -113 -288 -113z" />
    <glyph glyph-name="uni0335" unicode="&#x335;" horiz-adv-x="0" 
d="M-153 775l-37 -230h-866l37 230h866z" />
    <glyph glyph-name="uni0336" unicode="&#x336;" horiz-adv-x="0" 
d="M-161 769l-35 -220h-1371l35 220h1371z" />
    <glyph glyph-name="Wgrave" unicode="&#x1e80;" horiz-adv-x="2129" 
d="M1213 1995l141 -384h-240l-176 384h275zM997 1066l-476 -1066h-248l-202 1500h270l131 -1047l459 1047h270l128 -1044l463 1044h270l-679 -1500h-248z" />
    <glyph glyph-name="wgrave" unicode="&#x1e81;" horiz-adv-x="1745" 
d="M948 1577l140 -383h-239l-174 383h273zM743 660l-314 -660h-211l-215 1081h273l111 -657l307 657h226l99 -654l320 654h272l-559 -1081h-209z" />
    <glyph glyph-name="Wacute" unicode="&#x1e82;" horiz-adv-x="2129" 
d="M1421 1995l-297 -384h-241l264 384h274zM997 1066l-476 -1066h-248l-202 1500h270l131 -1047l459 1047h270l128 -1044l463 1044h270l-679 -1500h-248z" />
    <glyph glyph-name="wacute" unicode="&#x1e83;" horiz-adv-x="1745" 
d="M1155 1577l-294 -383h-239l262 383h271zM743 660l-314 -660h-211l-215 1081h273l111 -657l307 657h226l99 -654l320 654h272l-559 -1081h-209z" />
    <glyph glyph-name="Wdieresis" unicode="&#x1e84;" horiz-adv-x="2129" 
d="M872 1601q-74 0 -112.5 47.5t-28.5 111.5q9 62 63.5 109.5t127.5 47.5q72 0 110.5 -47.5t29.5 -109.5q-10 -64 -63 -111.5t-127 -47.5zM1298 1601q-74 0 -112.5 47.5t-28.5 111.5q9 62 63.5 109.5t127.5 47.5q72 0 110.5 -47.5t29.5 -109.5q-10 -64 -63 -111.5
t-127 -47.5zM997 1066l-476 -1066h-248l-202 1500h270l131 -1047l459 1047h270l128 -1044l463 1044h270l-679 -1500h-248z" />
    <glyph glyph-name="wdieresis" unicode="&#x1e85;" horiz-adv-x="1745" 
d="M610 1188q-74 0 -112 47.5t-29 111.5q10 63 64.5 110t126.5 47t111 -47.5t29 -109.5q-9 -64 -62.5 -111.5t-127.5 -47.5zM1036 1188q-74 0 -112 47.5t-29 111.5q10 63 64.5 110t126.5 47t111 -47.5t29 -109.5q-9 -64 -62.5 -111.5t-127.5 -47.5zM743 660l-314 -660h-211
l-215 1081h273l111 -657l307 657h226l99 -654l320 654h272l-559 -1081h-209z" />
    <glyph glyph-name="endash" unicode="&#x2013;" horiz-adv-x="1290" 
d="M970 667l-37 -230h-910l37 230h910z" />
    <glyph glyph-name="emdash" unicode="&#x2014;" horiz-adv-x="1747" 
d="M1427 667l-37 -230h-1367l37 230h1367z" />
    <glyph glyph-name="quoteleft" unicode="&#x2018;" horiz-adv-x="769" 
d="M559 1490l-183 -595h-280l252 595h211z" />
    <glyph glyph-name="quoteright" unicode="&#x2019;" horiz-adv-x="769" 
d="M559 1490l-252 -595h-211l182 595h281z" />
    <glyph glyph-name="quotesinglbase" unicode="&#x201a;" horiz-adv-x="769" 
d="M371 305l-252 -594h-211l182 594h281z" />
    <glyph glyph-name="quotedblleft" unicode="&#x201c;" horiz-adv-x="1102" 
d="M559 1490l-183 -595h-280l252 595h211zM892 1490l-182 -595h-280l252 595h210z" />
    <glyph glyph-name="quotedblright" unicode="&#x201d;" horiz-adv-x="1102" 
d="M559 1490l-252 -595h-211l182 595h281zM892 1490l-252 -595h-210l182 595h280z" />
    <glyph glyph-name="quotedblbase" unicode="&#x201e;" horiz-adv-x="1102" 
d="M371 305l-252 -594h-211l182 594h281zM704 305l-252 -594h-210l182 594h280z" />
    <glyph glyph-name="dagger" unicode="&#x2020;" horiz-adv-x="1539" 
d="M803 874l-195 -1237h-263l195 1237h-438l37 230h438l61 386h263l-61 -386h438l-37 -230h-438z" />
    <glyph glyph-name="daggerdbl" unicode="&#x2021;" horiz-adv-x="1539" 
d="M669 23l-61 -386h-263l61 386h-438l36 229h438l98 622h-438l37 230h438l61 386h263l-61 -386h438l-37 -230h-438l-98 -622h438l-36 -229h-438z" />
    <glyph glyph-name="bullet" unicode="&#x2022;" horiz-adv-x="919" 
d="M305 506q-112 0 -170 73t-42 171q15 95 97 166t191 71t167 -72.5t43 -168.5t-95.5 -168t-190.5 -72z" />
    <glyph glyph-name="ellipsis" unicode="&#x2026;" horiz-adv-x="1825" 
d="M285 305l-48 -305h-263l48 305h263zM856 305l-48 -305h-263l48 305h263zM1428 305l-48 -305h-264l48 305h264z" />
    <glyph glyph-name="guilsinglleft" unicode="&#x2039;" horiz-adv-x="938" 
d="M289 552l267 -404h-310l-265 404l393 404h310z" />
    <glyph glyph-name="guilsinglright" unicode="&#x203a;" horiz-adv-x="938" 
d="M660 552l-395 -404h-308l393 404l-265 404h308z" />
    <glyph glyph-name="Euro" unicode="&#x20ac;" horiz-adv-x="1739" 
d="M815 -23q-125 0 -226.5 39.5t-169.5 109t-109.5 157.5t-55.5 191h-335l104 230h230l6 49h-240l105 230h201q44 109 113 203t160 168t209.5 116t250.5 42q211 0 346.5 -112.5t168.5 -294.5l3 -14l-252 -112l-9 40q-13 58 -28 88q-35 81 -102.5 128t-162.5 47
q-133 0 -244 -86t-180 -213h550l-104 -230h-525l-1 -9q-1 -7 -2.5 -20t-2.5 -20h535l-105 -230h-417q31 -119 113 -192.5t213 -73.5q187 0 321 173q24 31 56 87l22 41l215 -112l-7 -14q-88 -179 -261.5 -292.5t-382.5 -113.5z" />
    <glyph glyph-name="trademark" unicode="&#x2122;" horiz-adv-x="2180" 
d="M696 1282v-867h-236v867h-270v208h774v-208h-268zM1205 1042v-627h-236v1075h200l310 -435l312 435h199v-1075h-236v626l-242 -334h-69z" />
    <glyph glyph-name="partialdiff" unicode="&#x2202;" horiz-adv-x="1302" 
d="M412 -23q-135 0 -239 48t-162.5 128.5t-80.5 184t-4 216.5q18 115 75.5 218.5t145 182t208.5 124.5t257 46q101 0 194 -21q-46 132 -139 213.5t-237 81.5q-82 0 -226 -51l-26 -9l-7 225l30 10q155 56 267 56q184 0 322 -99t217 -251q143 -275 86 -633q-25 -164 -91 -295
q-88 -172 -239.5 -273.5t-350.5 -101.5zM449 208q83 0 154 40t118 104.5t77.5 136.5t41.5 145q12 72 10 198q-136 63 -274 63q-161 0 -268 -97.5t-130 -245.5q-14 -88 11 -165.5t93 -128t167 -50.5z" />
    <glyph glyph-name="summation" unicode="&#x2211;" horiz-adv-x="1236" 
d="M906 230l-36 -230h-956l27 173l455 573l-274 570l28 174h956l-37 -231h-650l246 -513l-409 -516h650z" />
    <glyph glyph-name="minus" unicode="&#x2212;" horiz-adv-x="1390" 
d="M1051 866l-38 -239h-910l38 239h910z" />
    <glyph glyph-name="uni2215" unicode="&#x2215;" horiz-adv-x="1009" 
d="M1013 1490l-926 -1490h-283l927 1490h282z" />
    <glyph glyph-name="uni2219" unicode="&#x2219;" horiz-adv-x="1048" 
d="M359 441q-93 0 -159.5 44.5t-93 114t-14.5 148.5q20 120 123 210.5t240 90.5q93 0 159 -44.5t92.5 -113.5t14.5 -147q-20 -122 -121.5 -212.5t-240.5 -90.5z" />
    <glyph glyph-name="radical" unicode="&#x221a;" horiz-adv-x="1694" 
d="M1244 1259l-746 -1259h-212l-216 795h254l121 -463l669 1158h399l-37 -231h-232z" />
    <glyph glyph-name="integral" unicode="&#x222b;" horiz-adv-x="966" 
d="M-89 -373q-77 0 -131 17l-14 4l34 215l24 -4q63 -11 122 -11q70 0 113 40.5t53 107.5l182 1147q25 158 145.5 263.5t300.5 105.5q30 0 67 -5q25 -3 62 -11l16 -3l-34 -215l-23 3q-80 10 -123 10q-70 0 -113.5 -40.5t-54.5 -107.5l-182 -1147q-25 -158 -145 -263.5
t-299 -105.5z" />
    <glyph glyph-name="approxequal" unicode="&#x2248;" horiz-adv-x="1539" 
d="M195 762l-81 -69l43 275l12 10q154 133 344 133q43 0 85 -9.5t66.5 -19t60.5 -27.5q66 -32 80 -37q47 -15 89 -15q68 0 141.5 33t134.5 85l80 69l-43 -273l-4 -4l-5 -6q-69 -65 -158.5 -99.5t-184.5 -34.5q-110 0 -220 58q-36 18 -55 26.5t-48.5 16t-60.5 7.5
q-67 0 -141.5 -34t-134.5 -85zM134 370l-82 -70l43 276l12 10q153 133 344 133q62 0 110 -14t108 -44q59 -28 78 -35q40 -15 85 -15q68 0 142 33.5t133 84.5l41 35l41 37l-44 -276l-5 -5l-5 -6q-69 -63 -159 -98t-183 -35q-67 0 -115 14.5t-113 47.5q-49 24 -82 35t-75 11
q-67 0 -140 -33.5t-134 -85.5z" />
    <glyph glyph-name="notequal" unicode="&#x2260;" horiz-adv-x="1390" 
d="M569 403l-83 -187h-257l85 187h-246l38 240h311l92 207h-370l38 240h437l82 187h256l-81 -187h216l-38 -240h-283l-92 -207h342l-38 -240h-409z" />
    <glyph glyph-name="lessequal" unicode="&#x2264;" horiz-adv-x="1322" 
d="M439 868l518 -322l-42 -268l-813 500l29 181l971 501l-42 -268zM954 230l-36 -230h-986l36 230h986z" />
    <glyph glyph-name="greaterequal" unicode="&#x2265;" horiz-adv-x="1282" 
d="M1025 959l-29 -181l-971 -500l42 268l618 322l-515 324l42 268zM954 230l-36 -230h-986l36 230h986z" />
    <glyph glyph-name="uniF8FF" unicode="&#xf8ff;" horiz-adv-x="1860" 
d="M1800 1630v-1869h-1740v1869h1740zM321 205h198v344h687v183h-687v491h687v176h-890v-1186q0 -2 1 -3q0 -5 4 -5zM1338 390h-685v-185h888v1194h-203v-334h-685v-190h685v-485zM1037 -26q11 0 29 4q8 6 12 6q9 0 9 9q0 1 1.5 4.5t1.5 5.5t0.5 5.5t0.5 5.5q0 10 -1 14
l-3 8l-9 9q-5 5 -8 5l-10 2q-13 3 -14 4q-8 5 -13 5t-8 4q-3 6 -3 8q0 10 12 10q7 0 10 -1q2 -1 5.5 -2t5.5 -2q3 -2 5.5 -3t4 -1.5t2.5 -0.5q8 -3 10 -4l14 27q-4 4 -26 11q-15 5 -28 5q-14 0 -26 -6q-1 -1 -5.5 -2.5t-5.5 -2.5q-6 -6 -8 -9q-6 -9 -6 -23q0 -4 2 -10
q1 -5 4 -9t7 -7l7 -5q4 -3 11 -3q2 0 6.5 -2t7.5 -2l6 -1q1 0 2 -1t2.5 -2t2.5 -2l7 -5q4 -3 4 -6q0 -9 -5 -10q-10 -2 -13 -2q-9 0 -24 6q-12 5 -23 14l-13 -26q14 -12 29 -16l6 -2q5 -1 9 -2q10 -2 16 -2zM499 -27q33 0 51 18t21 51q2 20 -11 36q-9 12 -10 13
q-10 10 -13 12q-12 8 -38 8q-17 0 -36 -8q-19 -13 -26 -25q-10 -17 -10 -36q0 -21 10 -35q9 -20 25 -27q15 -7 37 -7zM1349 -27q18 0 30 7q16 10 24 19l-20 19q-4 -4 -17 -10q-5 -4 -17 -4q-11 0 -17 5l-7 6q-1 0 -7 9q-4 5 -4 20q0 13 4 20l14 12q6 5 17 5q12 0 17 -5
q13 -4 17 -12l18 23q-1 2 -10 11q-7 7 -11 7q-8 0 -15 3q-9 3 -16 3q-31 0 -50 -18q-20 -19 -20 -51q0 -23 8 -35q11 -17 27 -27q13 -7 35 -7zM419 107h-98v-130h35v47h59v26h-59v31h63v26zM620 107h-31v-130h33v78l60 -78h31v130h-33v-77zM725 81h42v-104h34v104h39v26
h-115v-26zM919 107h-36l-57 -130h35l10 22h57l9 -22h38zM1098 81h40v-104h34v104h41v26h-115v-26zM1260 107h-33v-130h33v130zM1495 107h-36l-58 -130h38l8 22h61l6 -22h37zM500 2q-16 0 -27 12q-10 11 -10 28q0 13 5 20q1 1 2 3t2 3.5t2 2.5l7 5q7 5 19 5q9 0 19 -5
q9 -5 12 -14q0 -1 2 -4.5t2 -5.5v-20q0 -5 -4 -10q-2 -2 -4 -5l-3 -4.5t-2.5 -3t-2.5 -1.5q-18 -6 -19 -6zM901 73l16 -48h-36zM1476 73l17 -48h-36zM1031 -413q-13 0 -17 4q-10 3 -13 12l-2 6q0 1 -1 2q0 1 -1 3l7 2q4 1 8 1l2 -3q9 -13 17 -13q3 0 9 3t6 7q0 5 -3 8
q-2 2 -17 6q-18 4 -20 7q-8 13 -5 22q5 13 19 16q0 3 13 2q14 -2 20 -9q7 -3 7 -15v-3h-16v3q-5 11 -13 11q-1 0 -2 -1h-3q-9 -5 -9 -11l17 -6q16 -6 23 -13t7 -14q0 -4 -9 -18q-4 -6 -11 -8q-4 -1 -13 -1zM635 -414q-24 0 -33 22q-4 10 -4 20q0 15 3 22q1 3 10 12q5 5 13 8
q6 2 14 2q30 0 36 -29q3 -15 0 -27t-14 -22q-9 -8 -25 -8zM1281 -413q-24 0 -38 27q-3 7 -2 15l2 14q6 21 26 27q2 0 4 1t6 1q15 0 25 -10q5 -5 6 -8l2 -6l-8 -3l-6 -2q-3 0 -4 4q-4 11 -15 11q-9 0 -15 -8q-6 -7 -6 -16q0 -1 0.5 -5t0.5 -7q0 -5 3 -10q4 -11 16 -11
q11 0 16 13l2 5l8 -2q8 -3 8 -4l-2 -6q-11 -20 -29 -20zM1540 -413q-12 0 -20 6q-8 5 -12 14q-10 19 0 45q1 3 5 6.5t5 4.5q4 5 12 7q2 2 13 2q1 0 13 -3q2 -1 10 -8q5 -5 7 -9l1 -4q-2 -2 -9 -3l-8 -2q-1 1 -2 4q-4 9 -14 9q-12 0 -16 -9q-4 -10 -4 -19q0 -11 4 -19
q5 -8 16 -8t16 13q0 3 2 3v2l9 -3l5 -2v-3q0 -2 -2 -6l-3 -7q-11 -11 -28 -11zM112 -377l-8 -36h-9l-9 2l-19 79q0 2 8 2h9l11 -53q2 1 2 5q0 9 5 19q7 15 7 24l2 5h18l8 -27l6 -26q1 0 3 9l3 17q2 4 4 12.5t3 12.5q0 2 7 2q10 0 10 -2q-4 -10 -8 -32q-1 -5 -3.5 -13.5
t-3.5 -12.5l-4 -18v-5h-18v5l-4 10l-6 20l-6 25zM241 -381l-8 -32h-15q-2 2 -4 2l-3 12l-6 28l-6 27l-3 12q0 2 8 2h8q1 0 1 -2q1 -2 1 -7q4 -9 4 -18l6 -26l14 53h20q2 0 2 -2l7 -27l5 -27l13 54q0 2 7 2q9 0 9 -2q0 -1 -0.5 -4.5t-0.5 -5.5l-3 -15q-2 -10 -5 -15l-11 -41
h-7l-9 2l-9 30q0 1 -1 5.5t-1 5.5q0 2 -4 9q0 6 -1 9q-2 -6 -2 -9q-3 -6 -3 -9q0 -8 -3 -11zM377 -353l-15 -58l-10 -2q-8 0 -9 4l-2 12q-1 6 -7 27q-2 6 -4 16t-2 12l-3 12h16l5 -27l8 -26l3 9l11 44h19l8 -27q3 -24 8 -27q0 4 1 7q-1 2 3 20l6 27h8q9 0 9 -2q0 -1 -1 -4.5
t-1 -5.5q0 -3 -2 -15q0 -3 -2 -8t-3 -7l-11 -39l-7 -2h-10l-8 32l-5 21zM526 -393l-1 -18h-15v79q0 2 4 2h52v-14h-40v-19h33v-14h-33v-16zM727 -359v-54h-16v83h16l32 -53v53h15v-81l-7 -2h-8zM849 -344v-69h-17v69h-23v14h65v-14h-25zM907 -411l-8 -2h-7q0 2 -2 2l3 9
l9 22l11 26q1 2 3.5 10t4.5 12q0 2 7 2h9l33 -81q-2 0 -2 -2h-5l-11 2l-6 19h-32zM1135 -344v-69h-17v69h-25v14h65v-14h-23zM1206 -330v-83h-15v83h15zM1358 -411l-9 -2h-6l-2 2q2 3 4 9l7 22q5 14 10 26q2 4 5 11.5t4 10.5q0 2 9 2h9l32 -81q-2 0 -2 -2h-7l-9 2l-7 19h-31
zM1646 -413q-21 0 -30 12q-10 13 -10 29q0 7 8 25q6 14 19 17q17 0 37 -6q14 -4 14 -34q0 -20 -8 -31q-9 -12 -30 -12zM1735 -411l-8 -2h-7v83h25l6 -27l5 -18q2 -6 2 -8l7 24q2 6 4 12.5t3 10t1 4.5v2h26v-83h-17v63l-6 -28l-6 -21l-2 -10v-4h-10l-7 2l-6 30l-10 29v-59z
M637 -399q20 0 20 16v24q0 3 -10 13q-4 4 -9 4q-10 0 -18 -8q-2 -2 -4 -8q-1 -3 -1 -14q0 -12 7 -20q5 -7 15 -7zM1646 -399q7 0 10 4q11 5 11 23q0 21 -11 26q-2 1 -4 3q-1 1 -5 1q-15 0 -18 -9t-3 -21q0 -16 2 -19q5 -8 18 -8zM1377 -358l-8 -20h22l-5 14q-3 6 -3 7
q0 2 -1 3l-1 2zM930 -352l-5 -6l-6 -20h20q-2 5 -4 14q-3 6 -3 7q0 2 -1 3zM471 -395v-16h-16v16h16zM1468 -403l-1 -8h-14v16h15v-8z" />
    <glyph glyph-name="G.ss01" horiz-adv-x="1601" 
d="M602 -24q-233 0 -394 116.5t-218 310.5q-48 159 -17 347q29 189 127 346q118 194 316 310t431 116q215 0 369 -101.5t225 -274.5l6 -15l5 -15l-245 -120l-7 19q-40 124 -142 199.5t-248 75.5q-163 0 -294.5 -87t-206.5 -230q-53 -103 -72 -223q-19 -121 1 -223
q30 -143 134 -230.5t267 -87.5q206 0 364 139q19 17 54 54l18 18l4 5l1 1q2 1 2 2q4 4 7 25q1 7 2.5 21t2.5 21l17 96h-451l36 231h705l-68 -431q-1 -7 -5 -14l-9 -15l-23 -35q-36 -48 -41 -54q-33 -43 -91 -94q-229 -203 -562 -203z" />
    <glyph glyph-name="Q.ss01" horiz-adv-x="1684" 
d="M1237 -154l-37 -231h-253q-203 0 -330.5 99.5t-133.5 272.5q-199 30 -328 150t-172 296q-36 149 -10 317q27 173 113 321q116 204 317.5 327.5t443.5 123.5t405 -123.5t215 -327.5q37 -153 11 -321q-27 -170 -111 -318q-98 -173 -262 -292.5t-368 -151.5
q20 -70 86.5 -106t160.5 -36h253zM639 209q163 0 294 87t207 231q54 100 73 223q19 121 -2 223q-30 143 -134 230t-267 87q-159 0 -288 -83.5t-205 -221.5q-61 -109 -80 -235q-21 -129 5 -236q33 -139 135.5 -222t261.5 -83z" />
    <glyph glyph-name="g.001" horiz-adv-x="1262" 
d="M339 -411q-132 0 -239.5 55t-165.5 152q-24 40 -37 81l-10 28l238 119l5 -21q22 -85 83.5 -134.5t158.5 -49.5t178 47.5t124 129.5q21 40 31 92l9 46q-141 -84 -307 -84q-119 0 -215.5 44.5t-154.5 118.5t-83 169t-9 195q17 103 71 198t134.5 168t191.5 117t232 44
q167 0 278 -87l10 64h244l-157 -994q-16 -101 -68.5 -191.5t-131.5 -158.5t-185.5 -108t-224.5 -40zM444 281q135 0 226.5 85.5t111.5 210.5q20 124 -46.5 210.5t-200.5 86.5q-135 0 -225.5 -86t-111.5 -211q-20 -126 45 -211t201 -85z" />
    <glyph glyph-name="uni030C.alt" horiz-adv-x="0" 
d="M-41 1490l-127 -533h-203l39 533h291z" />
    <glyph glyph-name="uni0335.alt" horiz-adv-x="0" 
d="M-155 769l-35 -220h-675l35 220h675z" />
    <glyph glyph-name="_FSHallmark" horiz-adv-x="1728" 
d="M1668 1375v-190h-1604v190h1604zM1322 287q-75 0 -132 18q-98 25 -161 98.5t-63 173.5l186 -4q0 -8 12 -32q3 -25 26.5 -49t47.5 -31q33 -20 92 -20q67 0 104 22q34 20 34 52q0 59 -152 88q-134 39 -234 88q-96 48 -96 158q0 86 55 137.5t149 86.5q2 0 52 7t80 7
q75 0 180 -38q68 -24 109 -85.5t41 -134.5h-192q0 42 -50 78q-5 1 -20.5 9t-25.5 9q-7 1 -22.5 5.5t-23.5 4.5q-44 0 -90 -28q-38 -23 -38 -58q0 -63 36 -78q2 -1 20 -9t32.5 -12.5t29.5 -6.5l72 -20l58 -14q7 -1 27 -6.5t31 -5.5q37 -9 44 -14l40 -18q38 -24 62 -52
q22 -51 24 -88q3 -41 -20 -94q-80 -144 -324 -144zM274 545v-258h-210v798h674v-180h-464v-182h388v-178h-388zM816 291q-32 0 -62 30q-34 28 -34 64t30 66q26 26 66 26q47 0 78 -28q32 -29 32 -64q0 -38 -32 -70q-36 -24 -78 -24zM1666 189v-190h-1606v190h1606z" />
    <glyph glyph-name="_Fontastica" horiz-adv-x="1338" 
d="M262 536v-340h-196q-3 0 -4.5 2t-1.5 4v2v1178h884v-174h-682v-490h682v-182h-682zM1278 1382v-1186h-884v184h682v482h-682v188h682v332h202zM252 2q-9 0 -36 8q-15 4 -25.5 22.5t-10.5 35.5q0 28 21.5 47t50.5 19q21 0 32.5 -7.5t25.5 -26.5q10 -13 10 -32
q0 -28 -20 -47t-48 -19zM770 2q-35 0 -60 20l14 26q20 -20 46 -20q16 0 16 12q0 1 -2 3.5t-2 4.5l-6 4q-6 0 -14 4q-5 3 -13 3.5t-11 2.5q-20 13 -20 34q0 38 52 38q24 0 52 -14l-14 -28q-16 16 -50 16q-2 0 -2 -2l-2 -8q0 -1 1 -3t1 -3q0 -2 1.5 -3.5l2.5 -2.5h2
q3 0 7.5 -2t6.5 -2q15 0 30.5 -12.5t15.5 -27.5q0 -19 -16 -29.5t-36 -10.5zM1068 2q-18 0 -34 8q-15 7 -24.5 24t-9.5 34q0 14 10.5 33.5t23.5 24.5q20 8 34 8q18 0 30 -6t22 -16l-20 -24q-3 5 -13.5 11.5t-16.5 6.5q-18 0 -30 -18q-4 -6 -4 -20q0 -24 16 -32q12 -6 18 -6
q5 0 16.5 6t13.5 10l20 -20q-18 -24 -52 -24zM112 50v-46h-34v128h96v-26h-62v-30h58v-26h-58zM368 80v-76h-32v128h30l58 -78v78h32v-128h-30zM542 104v-100h-34v100h-38v28h108v-28h-36zM608 28l-8 -24h-34l54 128h34l54 -128h-36l-8 24h-56zM898 104v-100h-32v100h-38v28
h108v-28h-38zM984 132v-128h-34v128h34zM1164 28l-10 -24h-34l56 128h34l54 -128h-36l-10 24h-54zM252 28q14 0 24 12.5t10 27.5q0 13 -10.5 25.5t-23.5 12.5q-8 0 -20 -6q-16 -8 -16 -32q0 -17 9.5 -28.5t26.5 -11.5zM654 52l-18 46l-18 -46h36zM1208 52l-18 46l-16 -46h34
z" />
    <glyph glyph-name="_www.fontastica.com" horiz-adv-x="3906" 
d="M132 627v-120h-68l-4 2v418h316v-62h-244v-174h244v-64h-244zM494 927v-420h-316v64h244v172h-244v66h244v118h72zM2500 541q-41 0 -86.5 15.5t-75.5 40.5l36 72q22 -19 61 -36.5t65 -17.5q16 0 32 8q14 7 14 22t-10 20q-18 12 -58 24q-55 17 -62 20q-26 11 -40 30
q-14 20 -14 56q0 53 40.5 80.5t97.5 27.5q74 0 140 -40l-34 -72q-70 36 -114 36q-36 0 -36 -24q0 -27 66 -44q45 -10 62 -20q28 -16 40 -32q16 -22 16 -58q0 -54 -41 -81t-99 -27zM1086 539q-79 0 -133.5 51.5t-54.5 130.5t54 129.5t134 50.5t134 -50.5t54 -129.5
t-53.5 -130.5t-134.5 -51.5zM3312 539q-77 0 -129.5 52.5t-52.5 129.5q0 78 53.5 129t132.5 51q86 0 140 -60l-52 -64q-34 46 -86 46q-43 0 -69.5 -28.5t-26.5 -71.5q0 -33 12 -52q31 -50 84 -50q46 0 86 40l54 -56q-66 -66 -146 -66zM708 671v-124h-90v348h260v-72h-170
v-78h156v-74h-156zM1406 755v-208h-86v348h80l160 -210l-2 210h86v-348h-80zM1876 821v-274h-90v274h-104v74h300v-74h-106zM2062 607l-24 -60h-94l150 348h94l146 -348h-96l-24 60h-152zM2852 821v-274h-92v274h-104v74h300v-74h-104zM3084 895v-348h-90v348h90zM3574 607
l-24 -60h-94l150 348h94l146 -348h-98l-22 60h-152zM1088 617q40 0 67 31.5t27 72.5q0 15 -14 52q-19 50 -80 50q-43 0 -69.5 -29t-26.5 -73q0 -42 27 -73t69 -31zM2186 677l-46 126l-50 -126h96zM3698 677l-48 126l-48 -126h96z" />
    </font>
</defs>
</svg>
