<?xml version="1.0" standalone="no"?>
<!DOCTYPE svg PUBLIC "-//W3C//DTD SVG 1.1//EN" "http://www.w3.org/Graphics/SVG/1.1/DTD/svg11.dtd" >
<svg xmlns="http://www.w3.org/2000/svg" xmlns:xlink="http://www.w3.org/1999/xlink" version="1.1">
<metadata>
Created by FontForge 20170731 at Mon Jan 25 19:10:09 2021
 By Aleksey,,,
Copyright (c) 2021 by Fontastica. All rights reserved.
</metadata>
<defs>
<font id="LuxoraGrotesk-ThinItalic" horiz-adv-x="0" >
  <font-face 
    font-family="Luxora Grotesk Thin"
    font-weight="100"
    font-style="italic"
    font-stretch="normal"
    units-per-em="2048"
    panose-1="0 0 2 0 0 0 0 0 0 0"
    ascent="1638"
    descent="-410"
    x-height="1051"
    cap-height="1490"
    bbox="-1515 -507 3846 2097"
    underline-thickness="50"
    underline-position="-150"
    slope="-9"
    unicode-range="U+000D-F8FF"
  />
<missing-glyph horiz-adv-x="1263" 
d="M1214 1490l-236 -1490h-1068l236 1490h1068zM1074 1427h-805l300 -628zM1137 1401l-535 -656l328 -650zM517 745l-323 649l-205 -1290zM857 66l-306 625l-507 -627z" />
    <glyph glyph-name=".notdef" horiz-adv-x="1263" 
d="M1214 1490l-236 -1490h-1068l236 1490h1068zM1074 1427h-805l300 -628zM1137 1401l-535 -656l328 -650zM517 745l-323 649l-205 -1290zM857 66l-306 625l-507 -627z" />
    <glyph glyph-name=".null" 
 />
    <glyph glyph-name="nonmarkingreturn" horiz-adv-x="682" 
 />
    <glyph glyph-name="CR" unicode="&#xd;" horiz-adv-x="354" 
 />
    <glyph glyph-name="space" unicode=" " horiz-adv-x="528" 
 />
    <glyph glyph-name="exclam" unicode="!" horiz-adv-x="507" 
d="M311 1513l-178 -1060h-87l158 1060h107zM98 171l-27 -171h-107l27 171h107z" />
    <glyph glyph-name="quotedbl" unicode="&#x22;" horiz-adv-x="887" 
d="M321 1513l-79 -498h-107l79 498h107zM681 1513l-79 -498h-108l79 498h108z" />
    <glyph glyph-name="numbersign" unicode="#" horiz-adv-x="1563" 
d="M258 413l-184 -413h-105l184 413h-264l14 86h288l231 516h-264l13 86h289l184 412h105l-184 -412h508l184 412h105l-184 -412h263l-13 -86h-288l-231 -516h264l-14 -86h-288l-184 -413h-105l184 413h-508zM1035 1015h-508l-231 -516h508z" />
    <glyph glyph-name="dollar" unicode="$" horiz-adv-x="1251" 
d="M430 -26l-29 -185h-87l30 190q-179 29 -293 128.5t-142 242.5l103 41q32 -129 120.5 -213t224.5 -113l104 655l-97 30q-157 51 -233.5 157t-56.5 236q26 164 170 273.5t347 122.5l33 211h87l-34 -213q157 -25 264.5 -116t141.5 -212l-102 -44q-28 114 -110 187t-207 99
l-103 -652l113 -37q173 -54 248 -149.5t52 -239.5q-27 -169 -177 -278.5t-367 -120.5zM414 843l63 -21l100 631q-161 -14 -268 -94t-126 -204q-17 -110 42.5 -191.5t188.5 -120.5zM637 665l-93 28l-100 -631q170 9 285.5 90t135.5 207q19 120 -36 192t-192 114z" />
    <glyph glyph-name="percent" unicode="%" horiz-adv-x="2101" 
d="M442 852q-143 0 -227 100.5t-62 243.5q23 143 139.5 243t258.5 100q141 0 225 -100.5t61 -242.5q-22 -143 -138 -243.5t-257 -100.5zM1453 1513l-927 -1513h-114l927 1513h114zM456 941q103 0 191 76t104 179t-47.5 178.5t-166.5 75.5q-104 0 -191.5 -75.5t-104.5 -178.5
q-16 -104 47.5 -179.5t167.5 -75.5zM1318 -25q-141 0 -225 99.5t-62 241.5t138.5 243t257.5 101q142 0 226.5 -100.5t61.5 -243.5q-22 -142 -138 -241.5t-259 -99.5zM1332 61q104 0 191 76t104 179t-47 179t-168 76q-103 0 -190.5 -76t-104.5 -179q-16 -103 48 -179t167 -76
z" />
    <glyph glyph-name="ampersand" unicode="&#x26;" horiz-adv-x="1739" 
d="M391 -25q-191 0 -299 107.5t-82 271.5q20 129 115.5 230.5t275.5 183.5l120 56l-48 55q-127 165 -103 321q22 144 145.5 241.5t281.5 97.5q152 0 237 -92t63 -232q-31 -203 -352 -358l-105 -48l348 -428l344 281h96l-395 -335l265 -327h-121l-213 267
q-189 -161 -318 -226.5t-255 -65.5zM567 899l34 -39l86 40q162 75 235 145.5t89 169.5q19 115 -44 187t-181 72q-122 0 -216.5 -78t-113.5 -196q-11 -73 14.5 -143.5t96.5 -157.5zM405 61q113 0 221 55.5t247 169.5l45 38l-359 446l-118 -54q-142 -66 -224 -158t-100 -204
q-21 -134 56.5 -213.5t231.5 -79.5z" />
    <glyph glyph-name="quotesingle" unicode="'" horiz-adv-x="527" 
d="M321 1513l-79 -498h-107l79 498h107z" />
    <glyph glyph-name="parenleft" unicode="(" horiz-adv-x="700" 
d="M327 -296h-64q-127 182 -173.5 416t-8.5 490q42 256 163 489.5t306 413.5h64q-349 -420 -426 -903q-76 -481 139 -906z" />
    <glyph glyph-name="parenright" unicode=")" horiz-adv-x="700" 
d="M-128 -296h-65q351 428 427 906q37 237 1 467t-141 436h65q129 -182 175.5 -413.5t6.5 -489.5q-41 -258 -161 -489.5t-308 -416.5z" />
    <glyph glyph-name="asterisk" unicode="*" horiz-adv-x="969" 
d="M569 822l-151 249l-230 -249l-64 52l228 250l-265 95l42 86l266 -93l48 301h91l-48 -301l296 93l14 -86l-295 -95l148 -250z" />
    <glyph glyph-name="plus" unicode="+" horiz-adv-x="1206" 
d="M530 711l-58 -366h-97l58 366h-366l15 96h366l57 364h97l-57 -364h363l-15 -96h-363z" />
    <glyph glyph-name="comma" unicode="," horiz-adv-x="584" 
d="M165 171l-194 -424h-57l139 424h112z" />
    <glyph glyph-name="hyphen" unicode="-" horiz-adv-x="1058" 
d="M724 581l-14 -86h-678l14 86h678z" />
    <glyph glyph-name="period" unicode="." horiz-adv-x="527" 
d="M108 171l-27 -171h-107l27 171h107z" />
    <glyph glyph-name="slash" unicode="/" horiz-adv-x="881" 
d="M845 1513l-927 -1513h-114l926 1513h115z" />
    <glyph glyph-name="zero" unicode="0" horiz-adv-x="1461" 
d="M493 -25q-175 0 -294.5 97.5t-165.5 275.5t-9 410t138.5 409.5t251.5 274.5t325 97t293.5 -97t164 -274.5t8.5 -409.5q-55 -352 -251 -567.5t-461 -215.5zM508 72q215 5 379.5 194t212.5 492q49 308 -55 496t-322 188q-217 0 -380 -188.5t-212 -495.5q-32 -202 3.5 -358
t132.5 -242t241 -86z" />
    <glyph glyph-name="one" unicode="1" horiz-adv-x="763" 
d="M467 1513l-240 -1513h-107l226 1427h-296l14 86h403z" />
    <glyph glyph-name="two" unicode="2" horiz-adv-x="1190" 
d="M848 87l-14 -87h-961l10 63l503 454q130 118 204.5 190.5t138 148.5t93.5 139t41 133q25 155 -51 240t-237 85q-294 0 -441 -254l-74 38q79 142 219 222t310 80q195 0 302.5 -115.5t79.5 -295.5q-20 -122 -119 -252t-308 -319l-519 -470h823z" />
    <glyph glyph-name="three" unicode="3" horiz-adv-x="1200" 
d="M345 -25q-169 0 -284.5 79.5t-152.5 222.5l86 38q37 -119 133.5 -186.5t231.5 -67.5q172 0 297 106.5t151 275.5q26 166 -67 273t-263 107q-40 0 -83 -5l10 68l509 539l-758 2l14 86h854l-17 -106l-467 -491q188 -24 295.5 -159t79.5 -314q-32 -204 -192.5 -336
t-376.5 -132z" />
    <glyph glyph-name="four" unicode="4" horiz-adv-x="1291" 
d="M812 372l-59 -372h-87l59 372h-822l15 96l973 1045h102l-169 -1065h202l-12 -76h-202zM737 448l151 952l-879 -952h728z" />
    <glyph glyph-name="five" unicode="5" horiz-adv-x="1230" 
d="M359 -25q-173 0 -292 80t-159 223l81 37q40 -118 143.5 -186t240.5 -68q177 0 307 109.5t158 283.5q27 172 -68 281t-275 109q-99 0 -192.5 -36.5t-153.5 -98.5l-54 34l198 773h753l-14 -87h-688l-155 -600q183 105 327 105q221 0 342 -135t88 -345q-34 -211 -198 -345
t-389 -134z" />
    <glyph glyph-name="six" unicode="6" horiz-adv-x="1153" 
d="M336 -25q-208 0 -320.5 137.5t-78.5 351.5q9 58 30.5 114.5t62.5 123.5t70.5 109.5t90.5 127.5l414 574h118l-512 -686q180 86 274 86q128 0 228 -63.5t147 -172t27 -234.5q-21 -132 -100 -239.5t-198 -168t-253 -60.5zM350 61q157 3 280.5 112t148.5 270
q26 165 -61 272.5t-248 107.5q-160 0 -281.5 -107.5t-147.5 -272.5q-26 -164 62 -273t247 -109z" />
    <glyph glyph-name="seven" unicode="7" horiz-adv-x="1040" 
d="M967 1405l-867 -1405h-110l884 1429h-804l14 87h900z" />
    <glyph glyph-name="eight" unicode="8" horiz-adv-x="1263" 
d="M390 -25q-221 0 -345.5 127.5t-93.5 321.5q20 128 121.5 237.5t255.5 172.5q-98 64 -143.5 151.5t-31.5 178.5q26 160 165 267.5t320 107.5q185 0 287.5 -105.5t76.5 -269.5q-14 -93 -86 -179t-188 -151q134 -63 200 -172.5t46 -237.5q-31 -194 -197 -321.5t-387 -127.5z
M532 873q136 0 239.5 82.5t122.5 208.5q20 126 -57 207.5t-213 81.5q-135 0 -238.5 -82.5t-123.5 -206.5q-20 -126 57 -208.5t213 -82.5zM404 61q174 0 305.5 103t156.5 260q25 158 -73.5 260.5t-273.5 102.5q-174 0 -305 -103t-156 -260t73.5 -260t272.5 -103z" />
    <glyph glyph-name="nine" unicode="9" horiz-adv-x="1153" 
d="M730 574l-414 -574h-118l512 687q-180 -86 -275 -86q-128 0 -227.5 63.5t-146.5 172t-27 234.5q21 132 99.5 239.5t197.5 168t253 60.5q209 0 321 -137.5t78 -351.5q-9 -58 -30 -114t-62.5 -124t-70 -109.5t-90.5 -128.5zM449 691q161 0 282.5 107.5t147.5 272.5
q26 164 -62 273t-247 109t-281 -109t-148 -273q-26 -165 61 -272.5t247 -107.5z" />
    <glyph glyph-name="colon" unicode=":" horiz-adv-x="527" 
d="M251 1076l-27 -171h-107l27 171h107zM108 171l-27 -171h-107l27 171h107z" />
    <glyph glyph-name="semicolon" unicode=";" horiz-adv-x="621" 
d="M345 1076l-27 -171h-107l27 171h107zM185 171l-194 -424h-57l139 424h112z" />
    <glyph glyph-name="less" unicode="&#x3c;" horiz-adv-x="1143" 
d="M145 762l649 -415l-16 -100l-734 461l17 108l880 462l-16 -101z" />
    <glyph glyph-name="equal" unicode="=" horiz-adv-x="1306" 
d="M998 1061l-15 -97h-826l15 97h826zM918 554l-16 -97h-826l16 97h826z" />
    <glyph glyph-name="greater" unicode="&#x3e;" horiz-adv-x="1103" 
d="M868 816l-17 -108l-880 -461l16 100l781 415l-650 415l16 101z" />
    <glyph glyph-name="question" unicode="?" horiz-adv-x="1124" 
d="M368 453h-107q24 111 96.5 199.5t186.5 182.5q50 41 65 54t56 50t57.5 58t41.5 55.5t37.5 68t18.5 70.5q17 111 -44 186.5t-206 75.5q-274 0 -407 -253l-73 37q72 142 202.5 222t291.5 80q181 0 273.5 -101.5t69.5 -246.5q-9 -56 -33.5 -106t-69 -99t-77 -79t-93.5 -82
l-49 -41q-102 -88 -160.5 -162.5t-76.5 -168.5zM246 453h15l-3 -16zM368 453h16l-19 -16zM330 171l-27 -171h-108l27 171h108z" />
    <glyph glyph-name="at" unicode="@" horiz-adv-x="1926" 
d="M706 -141q-173 3 -319 69.5t-241 177.5t-137 265.5t-14 327.5q28 174 118 330t220 268t297 177t342 65q173 0 318.5 -66t240 -178t136 -267.5t14.5 -328.5q-31 -195 -136.5 -308.5t-256.5 -113.5q-83 0 -140.5 49.5t-79.5 138.5q-77 -85 -165.5 -130t-176.5 -45
q-173 0 -269 119.5t-68 299.5q28 179 163.5 300.5t306.5 121.5q88 0 166.5 -62.5t131.5 -174.5l34 216h82l-88 -553q-15 -93 19.5 -144.5t111.5 -51.5q100 0 172 90.5t97 247.5q34 215 -34.5 387.5t-224 269.5t-368.5 97t-399.5 -97.5t-309.5 -270t-157 -386.5t34.5 -386.5
t224 -270t368.5 -97.5q195 0 347 70l28 -73q-182 -83 -388 -83zM746 376q135 0 239.5 96t127.5 239q22 143 -52 236t-210 93t-239 -93.5t-126 -237.5q-22 -141 52.5 -237t207.5 -96z" />
    <glyph glyph-name="A" unicode="A" horiz-adv-x="1410" 
d="M186 434l-223 -434h-109l784 1490h134l312 -1490h-110l-84 434h-704zM873 519l-177 908l-466 -908h643z" />
    <glyph glyph-name="B" unicode="B" horiz-adv-x="1264" 
d="M469 0h-615l236 1490h615q181 0 276.5 -107.5t69.5 -271.5q-16 -97 -83.5 -182.5t-177.5 -146.5q118 -66 174 -167t37 -218q-30 -189 -173 -293t-359 -104zM679 1405h-497l-94 -591h497q139 0 234.5 78.5t115.5 208.5q21 130 -49.5 217t-206.5 87zM585 730h-510
l-103 -645h510q163 0 272 82t133 230q24 150 -59 241.5t-243 91.5z" />
    <glyph glyph-name="C" unicode="C" horiz-adv-x="1510" 
d="M575 -25q-207 0 -357 98.5t-215.5 274.5t-30.5 396t156 396t302.5 274.5t388.5 98.5q191 0 336 -86.5t216 -243.5l-93 -47q-57 142 -178.5 217t-294.5 75q-271 0 -475.5 -191.5t-252.5 -492.5q-32 -199 23 -355t182.5 -242.5t306.5 -86.5q171 0 313.5 72.5t245.5 210.5
l78 -47q-120 -151 -290.5 -236t-360.5 -85z" />
    <glyph glyph-name="D" unicode="D" horiz-adv-x="1344" 
d="M314 -2h-460l236 1492h460q193 -8 338 -105t213 -266t35 -375t-154 -375t-297 -266t-371 -105zM177 1409l-210 -1329l361 -1q173 0 323.5 84t251.5 236t132 345t-22.5 345t-177.5 236t-298 84h-360z" />
    <glyph glyph-name="E" unicode="E" horiz-adv-x="1116" 
d="M803 85l-13 -85h-936l236 1490h936l-13 -85h-831l-94 -591h728l-13 -84h-728l-103 -645h831z" />
    <glyph glyph-name="F" unicode="F" horiz-adv-x="1116" 
d="M75 730l-116 -730h-105l236 1490h936l-13 -85h-831l-94 -591h728l-13 -84h-728z" />
    <glyph glyph-name="G" unicode="G" horiz-adv-x="1519" 
d="M575 -25q-207 0 -357 98.5t-215.5 274.5t-30.5 396t156 396t302.5 274.5t388.5 98.5q191 0 336 -86.5t216 -243.5l-93 -47q-57 142 -178.5 217t-294.5 75q-271 0 -475.5 -191.5t-252.5 -492.5q-31 -197 23.5 -353t182.5 -243.5t306 -87.5q169 0 319 81t257 226l45 289
h-535l13 84h622l-117 -740h-85l31 196q-283 -221 -564 -221z" />
    <glyph glyph-name="H" unicode="H" horiz-adv-x="1284" 
d="M75 730l-116 -730h-105l236 1490h105l-107 -676h894l107 676h105l-236 -1490h-105l116 730h-894z" />
    <glyph glyph-name="I" unicode="I" horiz-adv-x="285" 
d="M195 1490l-236 -1490h-105l236 1490h105z" />
    <glyph glyph-name="J" unicode="J" horiz-adv-x="1190" 
d="M355 -17q-223 0 -339.5 121t-93.5 328h106q-19 -162 77 -262.5t264 -100.5q171 0 302.5 112.5t157.5 281.5l162 1018h108l-162 -1018q-35 -218 -193.5 -349t-388.5 -131z" />
    <glyph glyph-name="K" unicode="K" horiz-adv-x="1241" 
d="M43 531l-84 -531h-105l236 1490h105l-130 -821l872 821h117l-573 -545l434 -945h-123l-394 866z" />
    <glyph glyph-name="L" unicode="L" horiz-adv-x="1116" 
d="M803 85l-13 -85h-936l236 1490h105l-223 -1405h831z" />
    <glyph glyph-name="M" unicode="M" horiz-adv-x="1492" 
d="M165 1298l-206 -1298h-105l236 1490h99l429 -810l685 810h99l-236 -1490h-105l205 1294l-677 -798z" />
    <glyph glyph-name="N" unicode="N" horiz-adv-x="1284" 
d="M166 1309l-207 -1309h-105l236 1490h99l694 -1300l206 1300h105l-236 -1490h-99z" />
    <glyph glyph-name="O" unicode="O" horiz-adv-x="1630" 
d="M575 -25q-207 0 -357 98.5t-215.5 274.5t-30.5 396t156 396t302.5 274.5t388.5 98.5q155 0 280.5 -58t205 -159t111.5 -244t6 -308t-103.5 -308t-189 -244t-255.5 -159t-299 -58zM589 60q271 0 475.5 191.5t252.5 492.5q32 199 -23 355t-182.5 242.5t-306.5 86.5
q-271 0 -475.5 -191.5t-252.5 -492.5q-32 -199 23 -355t182.5 -242.5t306.5 -86.5z" />
    <glyph glyph-name="P" unicode="P" horiz-adv-x="1180" 
d="M55 604l-96 -604h-105l236 1490h502q223 0 341.5 -122.5t86.5 -321.5t-187.5 -320.5t-380.5 -121.5h-397zM579 1405h-397l-114 -717h397q173 0 295 99t147 261q26 161 -64.5 259t-263.5 98z" />
    <glyph glyph-name="Q" unicode="Q" horiz-adv-x="1630" 
d="M980 83l122 -296l-94 -47l-119 297q-166 -62 -314 -62q-207 0 -357 98.5t-215.5 274.5t-30.5 396t156 396t302.5 274.5t388.5 98.5q155 0 280.5 -58t205 -159t111.5 -244t6 -308q-33 -208 -149.5 -380t-292.5 -281zM589 60q124 0 269 54l-186 466l82 49l195 -468
q146 102 242.5 252.5t125.5 330.5q32 199 -23 355t-182.5 242.5t-306.5 86.5q-271 0 -475.5 -191.5t-252.5 -492.5q-32 -199 23 -355t182.5 -242.5t306.5 -86.5z" />
    <glyph glyph-name="R" unicode="R" horiz-adv-x="1202" 
d="M55 604l-96 -604h-105l236 1490h502q223 0 341.5 -122.5t86.5 -321.5q-24 -149 -130.5 -261t-271.5 -163l258 -622h-125l-248 604h-448zM579 1405h-397l-114 -717h397q173 0 295 99t147 261q26 161 -64.5 259t-263.5 98z" />
    <glyph glyph-name="S" unicode="S" horiz-adv-x="1225" 
d="M415 -25q-200 0 -335.5 104.5t-171.5 264.5l101 40q66 -324 420 -324q167 0 283 81t137 212q19 118 -35 189t-189 113l-270 83q-161 48 -233.5 150.5t-51.5 236.5q27 171 174.5 280.5t350.5 109.5q190 0 314.5 -90.5t155.5 -233.5l-101 -44q-38 134 -137 208.5t-244 74.5
q-162 0 -273.5 -80t-132.5 -213q-17 -108 42 -188.5t185 -119.5l257 -79q165 -54 241.5 -150t54.5 -233q-27 -173 -178 -282.5t-364 -109.5z" />
    <glyph glyph-name="T" unicode="T" horiz-adv-x="1141" 
d="M611 1405l-223 -1405h-105l223 1405h-429l13 85h961l-13 -85h-427z" />
    <glyph glyph-name="U" unicode="U" horiz-adv-x="1222" 
d="M371 -25q-238 0 -359 130.5t-86 349.5l164 1035h107l-164 -1035q-27 -170 73.5 -282.5t278.5 -112.5q176 0 312.5 113t163.5 282l164 1035h107l-164 -1035q-35 -218 -197.5 -349t-399.5 -131z" />
    <glyph glyph-name="V" unicode="V" horiz-adv-x="1410" 
d="M1320 1490l-784 -1490h-134l-312 1490h109l283 -1416l728 1416h110z" />
    <glyph glyph-name="W" unicode="W" horiz-adv-x="2101" 
d="M1041 1425l-628 -1425h-131l-192 1490h105l168 -1413l611 1413h153l164 -1408l615 1408h105l-664 -1490h-131z" />
    <glyph glyph-name="X" unicode="X" horiz-adv-x="1230" 
d="M486 671l-523 -671h-109l589 761l-336 729h113l294 -642l496 642h113l-569 -729l350 -761h-112z" />
    <glyph glyph-name="Y" unicode="Y" horiz-adv-x="1318" 
d="M588 699l-111 -699h-106l111 699l-392 791h110l349 -702l569 702h110z" />
    <glyph glyph-name="Z" unicode="Z" horiz-adv-x="1239" 
d="M926 85l-13 -85h-1059l10 62l1129 1343h-864l13 85h988l-10 -62l-1129 -1343h935z" />
    <glyph glyph-name="bracketleft" unicode="[" horiz-adv-x="711" 
d="M335 -61l-13 -87h-361l286 1809h361l-14 -86h-254l-259 -1636h254z" />
    <glyph glyph-name="backslash" unicode="\" horiz-adv-x="881" 
d="M158 1513l447 -1513h-115l-446 1513h114z" />
    <glyph glyph-name="bracketright" unicode="]" horiz-adv-x="711" 
d="M518 1661l-286 -1809h-361l13 87h254l259 1636h-254l14 86h361z" />
    <glyph glyph-name="asciicircum" unicode="^" horiz-adv-x="1140" 
d="M560 1415l-352 -516h-112l423 614h110l227 -614h-112z" />
    <glyph glyph-name="underscore" unicode="_" horiz-adv-x="949" 
d="M673 -61l-13 -87h-889l13 87h889z" />
    <glyph glyph-name="grave" unicode="`" horiz-adv-x="301" 
d="M160 1687l93 -260h-66l-114 260h87z" />
    <glyph glyph-name="a" unicode="a" horiz-adv-x="1007" 
d="M212 -25q-162 0 -248.5 85t-65.5 220q18 109 117 185.5t264 112.5l434 96l8 54q21 127 -56.5 204t-218.5 77q-137 -2 -226 -57t-114 -151h-84q33 121 147 194t282 81q175 -5 272.5 -99t72.5 -249l-115 -728h-75l37 231q-78 -130 -195.5 -193t-235.5 -63zM222 36
q168 0 299 125t158 301l23 147l-409 -92q-128 -29 -219.5 -92.5t-104.5 -146.5q-16 -100 58 -171t195 -71z" />
    <glyph glyph-name="b" unicode="b" horiz-adv-x="1210" 
d="M368 -18q-137 3 -239.5 67t-153.5 175l-35 -224h-86l240 1513h86l-108 -679q85 111 208 174t261 63q147 0 253 -70t152 -194.5t21 -279.5q-25 -156 -110.5 -280.5t-213.5 -194.5t-275 -70zM379 51q189 4 331.5 138t174.5 338q34 208 -66 341.5t-289 133.5
q-190 0 -331.5 -133t-175.5 -342q-33 -209 66.5 -342.5t289.5 -133.5z" />
    <glyph glyph-name="c" unicode="c" horiz-adv-x="1211" 
d="M373 -28q-224 5 -348.5 161.5t-87.5 393.5q38 240 211 397t400 157q136 0 239 -60t155 -166l-94 -47q-43 88 -124 136t-190 48q-186 0 -324 -130.5t-171 -334.5q-32 -205 65 -335.5t283 -130.5q224 0 370 182l79 -46q-91 -107 -211 -166t-252 -59z" />
    <glyph glyph-name="d" unicode="d" horiz-adv-x="1210" 
d="M364 -18q-223 0 -343.5 154t-83.5 391q25 155 110.5 279.5t214 194.5t275.5 70q138 0 240.5 -63t152.5 -174l108 679h86l-240 -1513h-86l35 224q-84 -110 -207 -174.5t-262 -67.5zM375 51q190 0 331.5 133.5t174.5 342.5q34 209 -65.5 342t-289.5 133q-189 0 -331 -133
t-176 -342q-32 -204 68 -338t288 -138z" />
    <glyph glyph-name="e" unicode="e" horiz-adv-x="1206" 
d="M364 -18q-145 3 -251.5 74.5t-153 195t-22.5 275.5q25 155 110.5 279.5t214 194.5t275.5 70t253 -70t152 -194.5t21 -279.5l-1 -7h-947q-19 -210 81 -339.5t279 -129.5q126 0 236 63t183 177l64 -38q-83 -130 -211.5 -200.5t-282.5 -70.5zM28 587h865q0 188 -101 301.5
t-266 113.5t-301.5 -113.5t-196.5 -301.5z" />
    <glyph glyph-name="f" unicode="f" horiz-adv-x="797" 
d="M315 964l-153 -964h-86l153 964h-222l13 87h222l24 149q16 102 73 177.5t133.5 112t161.5 36.5q36 0 78 -5l-12 -73q-26 2 -63 2q-110 0 -188 -64.5t-97 -185.5l-24 -149h271l-13 -87h-271z" />
    <glyph glyph-name="g" unicode="g" horiz-adv-x="1181" 
d="M284 -465q-145 0 -251 66t-150 170l88 44q34 -84 115 -138.5t207 -54.5q114 0 214.5 45t172.5 135t91 210l41 262q-82 -99 -199 -156.5t-251 -58.5q-222 0 -338 141.5t-80 367.5q24 150 107.5 266.5t205.5 178.5t263 62q134 0 234 -56t152 -156l29 188h86l-164 -1039
q-16 -100 -67 -188t-126.5 -151.5t-174 -100.5t-205.5 -37zM374 144q183 3 319.5 123.5t165.5 300.5q29 183 -70.5 302.5t-282.5 119.5q-179 0 -314.5 -116.5t-165.5 -305.5q-30 -188 66.5 -306t281.5 -118z" />
    <glyph glyph-name="h" unicode="h" horiz-adv-x="1004" 
d="M43 648l-103 -648h-86l240 1513h86l-96 -603q75 73 170.5 119t180.5 46q184 0 282 -105.5t72 -266.5l-111 -703h-86l103 648q24 156 -49 249t-222 93t-253 -93.5t-128 -248.5z" />
    <glyph glyph-name="i" unicode="i" horiz-adv-x="266" 
d="M180 1513l-27 -168h-86l27 168h86zM106 1051l-166 -1051h-86l166 1051h86z" />
    <glyph glyph-name="j" unicode="j" horiz-adv-x="564" 
d="M478 1513l-27 -168h-86l27 168h86zM-149 -465q-37 0 -70 4l12 73q33 -3 63 -3q103 0 179 66t95 185l188 1191h86l-188 -1191q-24 -153 -128.5 -239t-236.5 -86z" />
    <glyph glyph-name="k" unicode="k" horiz-adv-x="963" 
d="M-10 314l-50 -314h-86l240 1513h86l-173 -1087l685 625h95l-444 -410l294 -641h-103l-260 576z" />
    <glyph glyph-name="l" unicode="l" horiz-adv-x="266" 
d="M180 1513l-240 -1513h-86l240 1513h86z" />
    <glyph glyph-name="m" unicode="m" horiz-adv-x="1695" 
d="M43 648l-103 -648h-86l167 1052h86l-23 -142q70 70 164 115t177 50h3q236 -4 318 -226q79 111 193 169t229 58q160 0 249 -105.5t64 -265.5l-112 -705h-86l103 650q25 155 -45.5 247.5t-214.5 92.5q-142 0 -243 -93t-125 -247l-103 -650h-87l103 650q24 154 -44.5 245.5
t-208.5 94.5q-148 -3 -249.5 -95.5t-125.5 -246.5z" />
    <glyph glyph-name="n" unicode="n" horiz-adv-x="1004" 
d="M43 648l-103 -648h-86l167 1052h86l-23 -142q75 73 170.5 119t180.5 46q184 0 282 -105.5t72 -266.5l-111 -703h-86l103 648q24 156 -49 249t-222 93t-253 -93.5t-128 -248.5z" />
    <glyph glyph-name="o" unicode="o" horiz-adv-x="1206" 
d="M364 -18q-145 3 -251.5 74.5t-153 195t-22.5 275.5q25 155 110.5 279.5t214 194.5t275.5 70t253 -70t152 -194.5t21 -279.5q-25 -156 -110.5 -280.5t-213.5 -194.5t-275 -70zM375 51q189 4 331.5 138t174.5 338q34 208 -66 341.5t-289 133.5q-190 0 -331.5 -133
t-175.5 -342q-33 -209 66.5 -342.5t289.5 -133.5z" />
    <glyph glyph-name="p" unicode="p" horiz-adv-x="1210" 
d="M-24 226l-108 -679h-86l240 1513h86l-36 -224q85 110 208 174.5t262 67.5q223 0 343 -154t83 -391q-37 -236 -206.5 -390t-392.5 -154q-138 0 -240.5 63t-152.5 174zM380 58q189 0 331 133.5t175 341.5q33 204 -67 338t-288 138q-190 0 -331.5 -133.5t-175.5 -342.5
q-33 -209 66.5 -342t289.5 -133z" />
    <glyph glyph-name="q" unicode="q" horiz-adv-x="1210" 
d="M1052 1060l-240 -1513h-86l108 679q-85 -111 -208 -174t-261 -63q-147 0 -253 70t-152 194t-22 280q25 156 110.5 280.5t214 194.5t275.5 70q138 -3 240 -67.5t152 -174.5l36 224h86zM376 58q190 0 331.5 133t174.5 342q34 209 -65.5 342.5t-289.5 133.5
q-189 -4 -331.5 -138t-175.5 -338q-33 -208 67 -341.5t289 -133.5z" />
    <glyph glyph-name="r" unicode="r" horiz-adv-x="646" 
d="M43 648l-103 -648h-86l167 1052h86l-23 -142q75 73 170.5 119t180.5 46q28 0 55 -3l-14 -86q-21 4 -52 4q-149 0 -253 -93.5t-128 -248.5z" />
    <glyph glyph-name="s" unicode="s" horiz-adv-x="959" 
d="M268 -20q-138 0 -236.5 66t-134.5 182l76 35q32 -99 112 -153t195 -54q119 0 204.5 59.5t99.5 152.5q12 72 -31.5 120.5t-145.5 78.5l-169 51q-117 38 -171 108t-39 164q20 127 124.5 204t256.5 77q127 0 217.5 -60.5t122.5 -165.5l-74 -32q-30 85 -104 134t-174 50
q-110 -2 -188.5 -56.5t-91.5 -140.5q-23 -144 163 -203l176 -57q118 -41 173 -112.5t41 -164.5q-20 -125 -132 -204t-270 -79z" />
    <glyph glyph-name="t" unicode="t" horiz-adv-x="763" 
d="M375 -12q-145 0 -210.5 79t-42.5 226l107 671h-222l13 87h222l59 367h86l-59 -367h271l-13 -87h-271l-107 -671q-3 -20 -4 -30.5t-2.5 -35.5t2.5 -40.5t11 -38.5t22.5 -37.5t37.5 -29t56 -21.5t77 -7q24 0 38 1l-10 -63q-34 -3 -61 -3z" />
    <glyph glyph-name="u" unicode="u" horiz-adv-x="1004" 
d="M263 -23q-184 0 -281.5 105.5t-72.5 266.5l112 703h86l-103 -648q-22 -153 51.5 -247.5t219.5 -94.5q148 0 252 93.5t129 248.5l103 648h86l-167 -1052h-86l22 142q-75 -73 -170.5 -119t-180.5 -46z" />
    <glyph glyph-name="v" unicode="v" horiz-adv-x="1124" 
d="M964 1051l-589 -1051h-100l-255 1051h104l216 -960l520 960h104z" />
    <glyph glyph-name="w" unicode="w" horiz-adv-x="1710" 
d="M774 973l-454 -973h-99l-201 1051h107l159 -965l443 965h112l139 -961l463 961h107l-535 -1051h-97z" />
    <glyph glyph-name="x" unicode="x" horiz-adv-x="1031" 
d="M353 461l-397 -461h-102l456 525l-290 526h102l251 -461l396 461h102l-457 -526l291 -525h-102z" />
    <glyph glyph-name="y" unicode="y" horiz-adv-x="1164" 
d="M1004 1051l-864 -1516h-100l246 445l-266 1071h109l234 -948l532 948h109z" />
    <glyph glyph-name="z" unicode="z" horiz-adv-x="962" 
d="M650 87l-14 -87h-782l14 86l813 878h-640l13 87h746l-13 -86l-814 -878h677z" />
    <glyph glyph-name="braceleft" unicode="{" horiz-adv-x="719" 
d="M360 -209l-14 -87h-41q-123 0 -186.5 74t-44.5 194l64 408q14 86 -19.5 135.5t-117.5 49.5h-28l14 86h28q84 0 133 49.5t62 135.5l65 410q19 120 106.5 193.5t210.5 73.5h41l-14 -86h-41q-75 0 -128 -47t-65 -124l-65 -412l-2 -20q-18 -114 -155 -217q49 -46 71.5 -103.5
t13.5 -114.5l-68 -427q-12 -77 26 -124t113 -47h41z" />
    <glyph glyph-name="bar" unicode="|" horiz-adv-x="627" 
d="M404 1725l-337 -2126h-107l337 2126h107z" />
    <glyph glyph-name="braceright" unicode="}" horiz-adv-x="719" 
d="M-152 -296h-41l14 87h41q75 0 128 47t65 124l68 427q10 57 50.5 115t102.5 103q-103 103 -85 217l4 20l65 412q11 76 -27 123.5t-112 47.5h-41l14 86h41q123 0 186.5 -73.5t44.5 -193.5l-65 -410q-13 -87 20.5 -136t116.5 -49h28l-14 -86h-28q-83 0 -132 -49t-63 -136
l-64 -408q-19 -120 -106.5 -194t-210.5 -74z" />
    <glyph glyph-name="asciitilde" unicode="~" horiz-adv-x="1331" 
d="M739 635q-42 0 -81 13t-59.5 26t-53.5 38q-35 25 -51.5 36t-49.5 22.5t-67 11.5q-142 0 -199 -141h-82q35 111 107.5 169.5t168.5 58.5q42 0 80.5 -13.5t58.5 -26t54 -37.5q33 -25 51 -36.5t50.5 -23t66.5 -11.5q127 0 187 141h82q-71 -227 -263 -227z" />
    <glyph glyph-name="uni00A0" unicode="&#xa0;" horiz-adv-x="359" 
 />
    <glyph glyph-name="exclamdown" unicode="&#xa1;" horiz-adv-x="507" 
d="M241 1076l-27 -171h-107l27 171h107zM160 624l-158 -1061h-107l178 1061h87z" />
    <glyph glyph-name="cent" unicode="&#xa2;" horiz-adv-x="1100" 
d="M396 -26l-40 -250h-87l40 253q-202 33 -308 188.5t-71 374.5q34 218 189 372t368 188l40 253h87l-39 -251q133 -15 230.5 -81.5t134.5 -160.5l-89 -45q-33 80 -107.5 132.5t-182.5 67.5l-151 -954q111 15 202.5 67.5t150.5 132.5l75 -44q-67 -95 -185 -161.5t-257 -81.5z
M323 63l150 950q-172 -40 -295.5 -169.5t-151.5 -305.5q-28 -172 55.5 -303t241.5 -172z" />
    <glyph glyph-name="sterling" unicode="&#xa3;" horiz-adv-x="1558" 
d="M1099 87l-14 -87h-1078l14 87h254l99 628h-267l39 86h242l49 310q30 191 174 309.5t347 118.5q163 0 272 -79t140 -223l-85 -37q-30 123 -117.5 188t-223.5 65q-162 0 -268.5 -91t-131.5 -251l-49 -310h597l-39 -86h-572l-99 -628h717z" />
    <glyph glyph-name="currency" unicode="&#xa4;" horiz-adv-x="1243" 
d="M178 234l-182 -157l-50 60l182 157q-68 123 -49 244q19 119 126 245l-132 157l69 60l133 -157q139 87 258 87t231 -87l181 157l51 -60l-182 -157q67 -125 48 -245q-19 -122 -125 -244l132 -157l-70 -60l-132 157q-136 -88 -258 -88q-121 0 -231 88zM425 245
q120 0 220 85.5t119 207.5t-53.5 208.5t-192.5 86.5q-122 0 -222 -86.5t-120 -208.5q-19 -122 53.5 -207.5t195.5 -85.5z" />
    <glyph glyph-name="yen" unicode="&#xa5;" horiz-adv-x="1256" 
d="M499 326l-52 -326h-108l52 326h-486l13 86h486l37 231h-486l13 86h475l-389 784h112l354 -712l578 712h112l-636 -784h449l-13 -86h-461l-37 -231h461l-13 -86h-461z" />
    <glyph glyph-name="brokenbar" unicode="&#xa6;" horiz-adv-x="627" 
d="M404 1725l-116 -733h-107l116 733h107zM184 332l-117 -733h-107l117 733h107z" />
    <glyph glyph-name="section" unicode="&#xa7;" horiz-adv-x="1215" 
d="M391 -95q-147 0 -250 69.5t-141 191.5l87 40q32 -103 115 -158.5t203 -55.5q121 0 208 60t101 152q24 142 -181 201l-176 51q-121 38 -178.5 110.5t-41.5 172.5q25 155 219 249q-162 110 -139 258q21 132 130.5 212.5t268.5 80.5q133 0 228 -64.5t130 -174.5l-87 -38
q-31 92 -104.5 141.5t-180.5 49.5q-115 0 -193.5 -53.5t-92.5 -142.5q-22 -145 168 -205l183 -57q121 -41 180.5 -115.5t43.5 -172.5q-23 -150 -244 -239q188 -116 164 -268q-21 -131 -138 -213t-282 -82zM403 545l136 -43q103 15 173 72t83 137q22 142 -182 201l-161 47
q-87 -22 -146 -80t-70 -129q-24 -144 167 -205z" />
    <glyph glyph-name="dieresis" unicode="&#xa8;" horiz-adv-x="619" 
d="M128 1427q-39 0 -61.5 26.5t-15.5 65.5q6 38 36.5 64t69.5 26q37 0 59 -26t16 -64q-7 -39 -37 -65.5t-67 -26.5zM485 1427q-39 0 -61.5 26.5t-15.5 65.5q5 37 36 63.5t70 26.5q36 0 59 -26.5t17 -63.5q-6 -38 -37 -65t-68 -27z" />
    <glyph glyph-name="copyright" unicode="&#xa9;" horiz-adv-x="1964" 
d="M983 -25q-158 3 -302.5 66t-250 167t-168 248t-62.5 302t61.5 302.5t165.5 249.5t249.5 167t306.5 62q159 0 304 -62t249.5 -167t166 -249.5t61.5 -302.5q0 -161 -62 -306.5t-167 -249.5t-249.5 -165.5t-302.5 -61.5zM983 61q188 4 347 96.5t253 251.5t94 349
t-91.5 349.5t-251.5 252.5t-351 93q-193 0 -353 -92.5t-252 -252t-92 -350.5q0 -193 92 -353t252 -252t353 -92zM994 345q-170 0 -282.5 117.5t-112.5 295.5t112.5 294.5t282.5 116.5q108 0 194 -50.5t125 -125.5l-72 -35q-36 65 -100.5 105.5t-146.5 40.5q-139 0 -227 -97
t-88 -249q0 -153 88 -250.5t227 -97.5q85 0 149.5 41t97.5 106l72 -36q-38 -76 -123.5 -126t-195.5 -50z" />
    <glyph glyph-name="ordfeminine" unicode="&#xaa;" horiz-adv-x="778" 
d="M214 759q-111 0 -171 58t-46 150q12 74 79 126t180 77l306 66l7 46q13 80 -35.5 129.5t-138.5 49.5q-69 0 -130 -31.5t-100 -86.5l-63 35q50 69 131.5 109.5t172.5 40.5q123 0 189.5 -68.5t49.5 -177.5l-80 -506h-72l27 170q-78 -88 -158.5 -137.5t-147.5 -49.5zM235 818
q111 0 197.5 75.5t105.5 190.5l16 106l-287 -64q-77 -17 -127 -59.5t-59 -101.5q-11 -68 30 -107.5t124 -39.5z" />
    <glyph glyph-name="guillemotleft" unicode="&#xab;" horiz-adv-x="1215" 
d="M90 538l238 -371h-111l-238 371l356 371h111zM598 538l237 -371h-111l-238 371l356 371h111z" />
    <glyph glyph-name="uni00AD" unicode="&#xad;" horiz-adv-x="1058" 
d="M724 581l-14 -86h-678l14 86h678z" />
    <glyph glyph-name="registered" unicode="&#xae;" horiz-adv-x="1964" 
d="M983 -25q-214 0 -394 104.5t-284.5 284.5t-104.5 394q0 158 61.5 302.5t165.5 249.5t249.5 167t306.5 62q159 0 304 -62t249.5 -167t166 -249.5t61.5 -302.5q0 -161 -62 -306.5t-167 -249.5t-249.5 -165.5t-302.5 -61.5zM983 61q188 4 347 96.5t253 251.5t94 349
t-91.5 349.5t-251.5 252.5t-351 93q-193 0 -353 -92.5t-252 -252t-92 -350.5q0 -193 92 -353t252 -252t353 -92zM808 681v-321h-80v798h297q122 0 196 -64.5t74 -174.5q0 -77 -46 -136t-129 -92l190 -331h-91l-180 321h-231zM1027 1095h-219v-351h219q83 0 134 48.5
t51 126.5q0 79 -50.5 127.5t-134.5 48.5z" />
    <glyph glyph-name="macron" unicode="&#xaf;" horiz-adv-x="477" 
d="M425 1416l-10 -63h-397l10 63h397z" />
    <glyph glyph-name="degree" unicode="&#xb0;" horiz-adv-x="1010" 
d="M416 930q-126 0 -201 89t-56 215q20 127 123.5 216t230.5 89t201.5 -89t54.5 -216q-19 -126 -123 -215t-230 -89zM425 1000q95 0 176.5 69.5t96.5 164.5q16 96 -43 165.5t-155 69.5q-95 0 -174.5 -69.5t-95.5 -165.5q-15 -95 42.5 -164.5t152.5 -69.5z" />
    <glyph glyph-name="plusminus" unicode="&#xb1;" horiz-adv-x="1206" 
d="M530 711l-58 -366h-97l58 366h-366l15 96h366l57 364h97l-57 -364h363l-15 -96h-363zM795 97l-15 -97h-826l15 97h826z" />
    <glyph glyph-name="acute" unicode="&#xb4;" horiz-adv-x="301" 
d="M320 1687l-197 -260h-65l174 260h88z" />
    <glyph glyph-name="uni00B5" unicode="&#xb5;" horiz-adv-x="1061" 
d="M-21 105l-84 -527h-78l237 1498h78l-113 -715q-20 -142 48.5 -229.5t202.5 -87.5q86 0 186 37t180 99l141 896h78l-170 -1076h-78l17 107q-97 -61 -200 -96.5t-182 -35.5q-142 0 -263 130z" />
    <glyph glyph-name="paragraph" unicode="&#xb6;" horiz-adv-x="741" 
d="M575 1513l-273 -1724h-107l175 1106q-139 0 -222 90.5t-63 218.5t122.5 218.5t229.5 90.5h138z" />
    <glyph glyph-name="periodcentered" unicode="&#xb7;" horiz-adv-x="527" 
d="M215 843l-27 -170h-107l27 170h107z" />
    <glyph glyph-name="cedilla" unicode="&#xb8;" horiz-adv-x="475" 
d="M-37 -30h9l13 -8q-3 1 -22 8zM-68 -435q-113 0 -186 70l27 34q66 -54 154 -54q70 0 117 38t57 101q9 55 -20.5 109.5t-95.5 98.5q94 -39 138 -99.5t33 -133.5q-12 -76 -76.5 -120t-147.5 -44z" />
    <glyph glyph-name="ordmasculine" unicode="&#xba;" horiz-adv-x="921" 
d="M345 759q-159 0 -251 111t-69 275q29 163 156 273t286 110q161 0 253.5 -108.5t65.5 -274.5q-26 -166 -153 -276t-288 -110zM356 829q127 0 226.5 89.5t121.5 224.5t-50 225.5t-198 90.5q-127 0 -226 -90.5t-121 -225.5t49 -224.5t198 -89.5z" />
    <glyph glyph-name="guillemotright" unicode="&#xbb;" horiz-adv-x="1215" 
d="M427 538l-356 -371h-111l356 371l-238 371h111zM934 538l-355 -371h-112l356 371l-238 371h112z" />
    <glyph glyph-name="questiondown" unicode="&#xbf;" horiz-adv-x="1124" 
d="M701 1539l-27 -171h-108l27 171h108zM531 1102l-3 -16h-16zM638 1102l13 -16h-16zM312 0q-181 0 -273.5 102t-69.5 246q5 33 17.5 65t25.5 57t37.5 55.5t41 49.5t49 49t49.5 44.5t53 45.5l49 41q102 88 160.5 162.5t76.5 168.5h107q-11 -61 -37.5 -115t-71.5 -104
t-79.5 -82t-94.5 -81q-122 -102 -164 -146q-95 -102 -112 -210q-17 -110 44.5 -185.5t205.5 -75.5q273 0 407 252l73 -37q-72 -142 -202.5 -222t-291.5 -80z" />
    <glyph glyph-name="Agrave" unicode="&#xc0;" horiz-adv-x="1495" 
d="M757 2002l91 -256h-63l-113 256h85zM227 434l-223 -434h-109l784 1490h134l312 -1490h-110l-84 434h-704zM914 519l-177 908l-466 -908h643z" />
    <glyph glyph-name="Aacute" unicode="&#xc1;" horiz-adv-x="1495" 
d="M949 2002l-193 -256h-63l171 256h85zM227 434l-223 -434h-109l784 1490h134l312 -1490h-110l-84 434h-704zM914 519l-177 908l-466 -908h643z" />
    <glyph glyph-name="Acircumflex" unicode="&#xc2;" horiz-adv-x="1495" 
d="M833 1981l-204 -221h-87l234 260h125l154 -260h-83zM227 434l-223 -434h-109l784 1490h134l312 -1490h-110l-84 434h-704zM914 519l-177 908l-466 -908h643z" />
    <glyph glyph-name="Atilde" unicode="&#xc3;" horiz-adv-x="1495" 
d="M938 1746q-27 0 -52.5 8.5t-39 17t-36.5 24.5q-55 36 -84 42q-14 3 -29 3q-35 0 -68.5 -20t-52.5 -64h-61q21 65 71.5 102t111.5 37q26 0 52 -8.5t39.5 -16t36.5 -23.5q65 -46 113 -46q35 0 69 20.5t53 64.5h59q-24 -66 -74.5 -103.5t-107.5 -37.5zM227 434l-223 -434
h-109l784 1490h134l312 -1490h-110l-84 434h-704zM914 519l-177 908l-466 -908h643z" />
    <glyph glyph-name="Adieresis" unicode="&#xc4;" horiz-adv-x="1495" 
d="M602 1746q-38 0 -59.5 26t-15.5 65q6 37 35.5 62t67.5 25t59.5 -25t15.5 -62q-6 -39 -35.5 -65t-67.5 -26zM955 1746q-39 0 -61 26t-16 65q6 36 36 61.5t69 25.5q35 0 57 -25.5t16 -61.5q-6 -38 -35.5 -64.5t-65.5 -26.5zM227 434l-223 -434h-109l784 1490h134l312 -1490
h-110l-84 434h-704zM914 519l-177 908l-466 -908h643z" />
    <glyph glyph-name="Aring" unicode="&#xc5;" horiz-adv-x="1495" 
d="M795 1760q-72 0 -114.5 49.5t-31.5 120.5q11 70 68 118.5t131 48.5q73 0 116 -48.5t32 -118.5q-11 -71 -69.5 -120.5t-131.5 -49.5zM801 1800q55 0 100 37.5t54 92.5q8 53 -25 91t-88 38q-56 0 -100 -37.5t-52 -91.5q-9 -54 24 -92t87 -38zM227 434l-223 -434h-109
l784 1490h134l312 -1490h-110l-84 434h-704zM914 519l-177 908l-466 -908h643z" />
    <glyph glyph-name="AE" unicode="&#xc6;" horiz-adv-x="1762" 
d="M186 434l-223 -434h-109l784 1490l1034 3l-13 -85h-830l-94 -591h727l-13 -84h-727l-102 -645h830l-14 -85h-935l69 431h-384zM715 1353l-52 9l-433 -843h353z" />
    <glyph glyph-name="Ccedilla" unicode="&#xc7;" horiz-adv-x="1510" 
d="M468 -427q-118 0 -196 76l38 47q63 -57 156 -57q67 0 111 35.5t54 95.5q8 56 -23 109.5t-97 95.5l13 2q-144 9 -259.5 70.5t-188 161.5t-101 238.5t-3.5 296.5q35 220 156 396t302.5 274.5t388.5 98.5q191 0 336 -86.5t216 -243.5l-93 -47q-57 142 -178.5 217t-294.5 75
q-271 0 -475.5 -191.5t-252.5 -492.5q-32 -199 23 -355t182.5 -242.5t306.5 -86.5q171 0 313.5 72.5t245.5 210.5l78 -47q-116 -144 -276.5 -228.5t-341.5 -91.5q69 -40 92 -112.5t-8 -146.5q-28 -67 -87.5 -105.5t-136.5 -38.5z" />
    <glyph glyph-name="Egrave" unicode="&#xc8;" horiz-adv-x="1175" 
d="M606 2002l91 -256h-63l-113 256h85zM832 85l-13 -85h-936l236 1490h936l-13 -85h-831l-94 -591h728l-13 -84h-728l-103 -645h831z" />
    <glyph glyph-name="Eacute" unicode="&#xc9;" horiz-adv-x="1175" 
d="M733 2002l-193 -256h-63l171 256h85zM832 85l-13 -85h-936l236 1490h936l-13 -85h-831l-94 -591h728l-13 -84h-728l-103 -645h831z" />
    <glyph glyph-name="Ecircumflex" unicode="&#xca;" horiz-adv-x="1175" 
d="M679 1981l-204 -221h-87l234 260h125l154 -260h-83zM832 85l-13 -85h-936l236 1490h936l-13 -85h-831l-94 -591h728l-13 -84h-728l-103 -645h831z" />
    <glyph glyph-name="Edieresis" unicode="&#xcb;" horiz-adv-x="1175" 
d="M456 1746q-38 0 -60 26t-16 65q6 37 36 62t68 25t59.5 -25t15.5 -62q-6 -39 -35.5 -65t-67.5 -26zM808 1746q-39 0 -60.5 26t-15.5 65q6 36 35.5 61.5t68.5 25.5q36 0 58 -25.5t16 -61.5q-6 -38 -36 -64.5t-66 -26.5zM832 85l-13 -85h-936l236 1490h936l-13 -85h-831
l-94 -591h728l-13 -84h-728l-103 -645h831z" />
    <glyph glyph-name="Igrave" unicode="&#xcc;" horiz-adv-x="349" 
d="M215 2002l91 -256h-63l-113 256h85zM226 1490l-236 -1490h-105l236 1490h105z" />
    <glyph glyph-name="Iacute" unicode="&#xcd;" horiz-adv-x="349" 
d="M343 2002l-194 -256h-63l171 256h86zM226 1490l-236 -1490h-105l236 1490h105z" />
    <glyph glyph-name="Icircumflex" unicode="&#xce;" horiz-adv-x="361" 
d="M265 2003l-204 -221h-87l234 260h125l154 -260h-83zM231 1490l-236 -1490h-105l236 1490h105z" />
    <glyph glyph-name="Idieresis" unicode="&#xcf;" horiz-adv-x="361" 
d="M50 1746q-38 0 -60 26t-16 65q6 37 36 62t68 25t59.5 -25t15.5 -62q-6 -39 -35.5 -65t-67.5 -26zM402 1746q-39 0 -60.5 26t-15.5 65q6 36 35.5 61.5t68.5 25.5q36 0 58 -25.5t16 -61.5q-6 -38 -36 -64.5t-66 -26.5zM232 1490l-236 -1490h-105l236 1490h105z" />
    <glyph glyph-name="Ntilde" unicode="&#xd1;" horiz-adv-x="1344" 
d="M791 1746q-58 0 -128 49q-24 16 -35.5 23t-33.5 15t-44 8q-35 0 -68.5 -20t-52.5 -64h-62q22 64 72.5 101.5t111.5 37.5q26 0 52 -8.5t39 -16.5t37 -24q23 -15 35 -22.5t34 -15t44 -7.5q35 0 68.5 20.5t52.5 64.5h59q-23 -67 -73.5 -104t-107.5 -37zM195 1309l-207 -1309
h-105l236 1490h99l694 -1300l206 1300h105l-236 -1490h-99z" />
    <glyph glyph-name="Ograve" unicode="&#xd2;" horiz-adv-x="1689" 
d="M849 2002l91 -256h-63l-113 256h85zM604 -25q-207 0 -357 98.5t-215.5 274.5t-30.5 396t156 396t302.5 274.5t388.5 98.5q155 0 280.5 -58t205 -159t111.5 -244t6 -308t-103.5 -308t-189 -244t-255.5 -159t-299 -58zM618 60q271 0 475.5 191.5t252.5 492.5
q32 199 -23 355t-182.5 242.5t-306.5 86.5q-271 0 -475.5 -191.5t-252.5 -492.5q-32 -199 23 -355t182.5 -242.5t306.5 -86.5z" />
    <glyph glyph-name="Oacute" unicode="&#xd3;" horiz-adv-x="1689" 
d="M977 2002l-194 -256h-63l171 256h86zM604 -25q-207 0 -357 98.5t-215.5 274.5t-30.5 396t156 396t302.5 274.5t388.5 98.5q155 0 280.5 -58t205 -159t111.5 -244t6 -308t-103.5 -308t-189 -244t-255.5 -159t-299 -58zM618 60q271 0 475.5 191.5t252.5 492.5
q32 199 -23 355t-182.5 242.5t-306.5 86.5q-271 0 -475.5 -191.5t-252.5 -492.5q-32 -199 23 -355t182.5 -242.5t306.5 -86.5z" />
    <glyph glyph-name="Ocircumflex" unicode="&#xd4;" horiz-adv-x="1689" 
d="M917 1981l-204 -221h-87l234 260h125l154 -260h-83zM604 -25q-207 0 -357 98.5t-215.5 274.5t-30.5 396t156 396t302.5 274.5t388.5 98.5q155 0 280.5 -58t205 -159t111.5 -244t6 -308t-103.5 -308t-189 -244t-255.5 -159t-299 -58zM618 60q271 0 475.5 191.5
t252.5 492.5q32 199 -23 355t-182.5 242.5t-306.5 86.5q-271 0 -475.5 -191.5t-252.5 -492.5q-32 -199 23 -355t182.5 -242.5t306.5 -86.5z" />
    <glyph glyph-name="Otilde" unicode="&#xd5;" horiz-adv-x="1689" 
d="M1026 1746q-26 0 -52 8.5t-39 16.5t-37 24q-25 17 -35.5 23.5t-33 14.5t-44.5 8q-35 0 -68.5 -20t-52.5 -64h-61q22 64 72.5 101.5t110.5 37.5q27 0 53 -8.5t39 -16.5t36 -24q25 -17 36 -23.5t33 -14t44 -7.5q35 0 69 20.5t53 64.5h59q-24 -67 -74.5 -104t-107.5 -37z
M604 -25q-207 0 -357 98.5t-215.5 274.5t-30.5 396t156 396t302.5 274.5t388.5 98.5q155 0 280.5 -58t205 -159t111.5 -244t6 -308t-103.5 -308t-189 -244t-255.5 -159t-299 -58zM618 60q271 0 475.5 191.5t252.5 492.5q32 199 -23 355t-182.5 242.5t-306.5 86.5
q-271 0 -475.5 -191.5t-252.5 -492.5q-32 -199 23 -355t182.5 -242.5t306.5 -86.5z" />
    <glyph glyph-name="Odieresis" unicode="&#xd6;" horiz-adv-x="1689" 
d="M706 1746q-38 0 -59.5 26t-15.5 65q6 37 35.5 62t67.5 25t59.5 -25t15.5 -62q-6 -39 -35.5 -65t-67.5 -26zM1059 1746q-40 0 -61.5 26t-15.5 65q6 37 36 62t69 25q35 0 57 -25.5t16 -61.5q-6 -38 -35.5 -64.5t-65.5 -26.5zM604 -25q-207 0 -357 98.5t-215.5 274.5
t-30.5 396t156 396t302.5 274.5t388.5 98.5q155 0 280.5 -58t205 -159t111.5 -244t6 -308t-103.5 -308t-189 -244t-255.5 -159t-299 -58zM618 60q271 0 475.5 191.5t252.5 492.5q32 199 -23 355t-182.5 242.5t-306.5 86.5q-271 0 -475.5 -191.5t-252.5 -492.5
q-32 -199 23 -355t182.5 -242.5t306.5 -86.5z" />
    <glyph glyph-name="multiply" unicode="&#xd7;" horiz-adv-x="1126" 
d="M692 387l-255 305l-354 -305l-57 69l352 304l-254 302l80 69l254 -302l350 302l57 -69l-350 -302l257 -304z" />
    <glyph glyph-name="Oslash" unicode="&#xd8;" horiz-adv-x="1630" 
d="M311 24l-55 -96h-119l90 140q-152 105 -221 282t-34 394q35 220 156 396t302.5 274.5t388.5 98.5q127 0 262 -48l75 117h109l-98 -162q152 -105 220.5 -282t34.5 -394q-26 -165 -103.5 -308t-189 -244t-255.5 -159t-299 -58q-131 2 -264 49zM277 150l755 1234
q-118 44 -227 44q-271 0 -475.5 -191.5t-252.5 -492.5q-30 -185 23.5 -339.5t176.5 -254.5zM589 60q271 0 475.5 191.5t252.5 492.5q30 185 -24 340t-176 255l-757 -1235q117 -44 229 -44z" />
    <glyph glyph-name="Ugrave" unicode="&#xd9;" horiz-adv-x="1281" 
d="M656 2002l91 -256h-63l-113 256h85zM400 -25q-238 0 -359 130.5t-86 349.5l164 1035h107l-164 -1035q-27 -170 73.5 -282.5t278.5 -112.5q176 0 312.5 113t163.5 282l164 1035h107l-164 -1035q-35 -218 -197.5 -349t-399.5 -131z" />
    <glyph glyph-name="Uacute" unicode="&#xda;" horiz-adv-x="1281" 
d="M784 2002l-194 -256h-63l171 256h86zM400 -25q-238 0 -359 130.5t-86 349.5l164 1035h107l-164 -1035q-27 -170 73.5 -282.5t278.5 -112.5q176 0 312.5 113t163.5 282l164 1035h107l-164 -1035q-35 -218 -197.5 -349t-399.5 -131z" />
    <glyph glyph-name="Ucircumflex" unicode="&#xdb;" horiz-adv-x="1281" 
d="M733 1981l-204 -221h-87l234 260h125l154 -260h-83zM400 -25q-238 0 -359 130.5t-86 349.5l164 1035h107l-164 -1035q-27 -170 73.5 -282.5t278.5 -112.5q176 0 312.5 113t163.5 282l164 1035h107l-164 -1035q-35 -218 -197.5 -349t-399.5 -131z" />
    <glyph glyph-name="Udieresis" unicode="&#xdc;" horiz-adv-x="1281" 
d="M503 1746q-38 0 -59.5 26t-15.5 65q6 37 35.5 62t67.5 25t59.5 -25t15.5 -62q-6 -39 -35.5 -65t-67.5 -26zM856 1746q-40 0 -61.5 26t-15.5 65q6 37 36 62t69 25q35 0 57 -25.5t16 -61.5q-6 -38 -35.5 -64.5t-65.5 -26.5zM400 -25q-238 0 -359 130.5t-86 349.5l164 1035
h107l-164 -1035q-27 -170 73.5 -282.5t278.5 -112.5q176 0 312.5 113t163.5 282l164 1035h107l-164 -1035q-35 -218 -197.5 -349t-399.5 -131z" />
    <glyph glyph-name="Yacute" unicode="&#xdd;" horiz-adv-x="1428" 
d="M914 2002l-194 -256h-63l171 256h86zM641 699l-111 -699h-106l111 699l-392 791h110l349 -702l569 702h110z" />
    <glyph glyph-name="germandbls" unicode="&#xdf;" horiz-adv-x="1268" 
d="M147 1118l-177 -1118h-116l179 1129q29 164 161 274t312 110h201q183 0 280.5 -109t70.5 -275q-16 -99 -84.5 -185.5t-180.5 -148.5q119 -67 175.5 -169.5t37.5 -221.5q-30 -192 -175.5 -298t-364.5 -106h-163l13 87h164q162 2 274 85.5t136 231.5q24 152 -60 244.5
t-247 92.5h-166l14 87h153q141 0 238 79.5t118 210.5q21 132 -51 220.5t-210 88.5h-173q-138 0 -238 -88.5t-121 -220.5z" />
    <glyph glyph-name="agrave" unicode="&#xe0;" horiz-adv-x="1078" 
d="M497 1613l92 -260h-64l-114 260h86zM240 -25q-162 0 -248.5 85t-65.5 220q18 109 117 185.5t264 112.5l434 96l8 54q21 127 -56.5 204t-218.5 77q-137 -2 -226 -57t-114 -151h-84q33 121 147 194t282 81q175 -5 272.5 -99t72.5 -249l-115 -728h-75l37 231
q-78 -130 -195.5 -193t-235.5 -63zM250 36q168 0 299 125t158 301l23 147l-409 -92q-128 -29 -219.5 -92.5t-104.5 -146.5q-16 -100 58 -171t195 -71z" />
    <glyph glyph-name="aacute" unicode="&#xe1;" horiz-adv-x="1078" 
d="M667 1613l-197 -260h-64l174 260h87zM240 -25q-162 0 -248.5 85t-65.5 220q18 109 117 185.5t264 112.5l434 96l8 54q21 127 -56.5 204t-218.5 77q-137 -2 -226 -57t-114 -151h-84q33 121 147 194t282 81q175 -5 272.5 -99t72.5 -249l-115 -728h-75l37 231
q-78 -130 -195.5 -193t-235.5 -63zM250 36q168 0 299 125t158 301l23 147l-409 -92q-128 -29 -219.5 -92.5t-104.5 -146.5q-16 -100 58 -171t195 -71z" />
    <glyph glyph-name="acircumflex" unicode="&#xe2;" horiz-adv-x="1078" 
d="M556 1599l-204 -221h-87l234 260h125l154 -260h-83zM240 -25q-162 0 -248.5 85t-65.5 220q18 109 117 185.5t264 112.5l434 96l8 54q21 127 -56.5 204t-218.5 77q-137 -2 -226 -57t-114 -151h-84q33 121 147 194t282 81q175 -5 272.5 -99t72.5 -249l-115 -728h-75l37 231
q-78 -130 -195.5 -193t-235.5 -63zM250 36q168 0 299 125t158 301l23 147l-409 -92q-128 -29 -219.5 -92.5t-104.5 -146.5q-16 -100 58 -171t195 -71z" />
    <glyph glyph-name="atilde" unicode="&#xe3;" horiz-adv-x="1078" 
d="M604 1353q-60 0 -129 50q-26 17 -36.5 23.5t-33.5 14.5t-45 8q-36 0 -70 -20t-53 -65h-62q22 66 73 103.5t113 37.5q58 0 130 -49q23 -16 36 -23.5t35 -15t44 -7.5q35 0 69.5 21t53.5 65h60q-24 -68 -75.5 -105.5t-109.5 -37.5zM240 -25q-162 0 -248.5 85t-65.5 220
q18 109 117 185.5t264 112.5l434 96l8 54q21 127 -56.5 204t-218.5 77q-137 -2 -226 -57t-114 -151h-84q33 121 147 194t282 81q175 -5 272.5 -99t72.5 -249l-115 -728h-75l37 231q-78 -130 -195.5 -193t-235.5 -63zM250 36q168 0 299 125t158 301l23 147l-409 -92
q-128 -29 -219.5 -92.5t-104.5 -146.5q-16 -100 58 -171t195 -71z" />
    <glyph glyph-name="adieresis" unicode="&#xe4;" horiz-adv-x="1078" 
d="M347 1353q-39 0 -60.5 26.5t-15.5 65.5q6 38 36 63.5t69 25.5q38 0 60 -25.5t16 -63.5q-6 -39 -36.5 -65.5t-68.5 -26.5zM705 1353q-39 0 -61 26.5t-16 65.5q6 37 36.5 63t69.5 26q36 0 58.5 -26t16.5 -63q-6 -38 -37 -65t-67 -27zM240 -25q-162 0 -248.5 85t-65.5 220
q18 109 117 185.5t264 112.5l434 96l8 54q21 127 -56.5 204t-218.5 77q-137 -2 -226 -57t-114 -151h-84q33 121 147 194t282 81q175 -5 272.5 -99t72.5 -249l-115 -728h-75l37 231q-78 -130 -195.5 -193t-235.5 -63zM250 36q168 0 299 125t158 301l23 147l-409 -92
q-128 -29 -219.5 -92.5t-104.5 -146.5q-16 -100 58 -171t195 -71z" />
    <glyph glyph-name="aring" unicode="&#xe5;" horiz-adv-x="1078" 
d="M548 1353q-73 0 -116.5 50t-31.5 122q11 72 69 121t133 49q74 0 117.5 -49.5t32.5 -120.5q-12 -72 -71 -122t-133 -50zM555 1393q56 0 101.5 38.5t54.5 93.5q8 54 -25.5 92.5t-89.5 38.5q-57 0 -102 -38.5t-53 -92.5q-9 -55 24.5 -93.5t89.5 -38.5zM240 -25
q-162 0 -248.5 85t-65.5 220q18 109 117 185.5t264 112.5l434 96l8 54q21 127 -56.5 204t-218.5 77q-137 -2 -226 -57t-114 -151h-84q33 121 147 194t282 81q175 -5 272.5 -99t72.5 -249l-115 -728h-75l37 231q-78 -130 -195.5 -193t-235.5 -63zM250 36q168 0 299 125
t158 301l23 147l-409 -92q-128 -29 -219.5 -92.5t-104.5 -146.5q-16 -100 58 -171t195 -71z" />
    <glyph glyph-name="ae" unicode="&#xe6;" horiz-adv-x="2012" 
d="M212 -25q-162 0 -248.5 85t-65.5 220q18 109 117 185.5t264 112.5l434 96l8 54q20 125 -57.5 193.5t-220.5 68.5q-139 -2 -219.5 -48t-104.5 -140l-97 -1q33 121 148.5 194t284.5 81q129 -3 225.5 -66.5t132.5 -173.5q105 117 231.5 182.5t255.5 65.5q150 0 258.5 -71.5
t155 -198t21.5 -284.5l-3 -17h-944q-15 -200 81 -324t269 -124q128 0 236.5 64.5t178.5 178.5l81 -48q-84 -136 -216.5 -210.5t-293.5 -74.5q-163 0 -252 66.5t-153 225.5q-251 -292 -507 -292zM803 589h837q0 183 -96 294.5t-258 111.5t-293.5 -111.5t-189.5 -294.5z
M225 59q170 0 298.5 114.5t155.5 288.5l5 31q1 13 5 37t7 36l6 43l-409 -92q-122 -26 -203.5 -90t-94.5 -149q-16 -100 46.5 -159.5t183.5 -59.5zM1732 513h15l-17 -15z" />
    <glyph glyph-name="ccedilla" unicode="&#xe7;" horiz-adv-x="1207" 
d="M314 -425q-120 0 -196 76l37 47q63 -57 156 -57q67 0 111 35.5t54 95.5q9 55 -21 108t-94 94q-207 19 -319.5 173.5t-76.5 379.5q38 240 211 397t400 157q136 0 239 -60t155 -166l-94 -47q-43 88 -124 136t-190 48q-186 0 -324 -130.5t-171 -334.5q-32 -205 65 -335.5
t283 -130.5q224 0 370 182l79 -46q-81 -95 -185.5 -152.5t-220.5 -69.5q65 -41 87.5 -112t-7.5 -144q-29 -68 -88 -106t-136 -38z" />
    <glyph glyph-name="egrave" unicode="&#xe8;" horiz-adv-x="1285" 
d="M595 1613l92 -260h-64l-114 260h86zM392 -18q-145 3 -251.5 74.5t-153 195t-22.5 275.5q25 155 110.5 279.5t214 194.5t275.5 70t253 -70t152 -194.5t21 -279.5l-1 -7h-947q-19 -210 81 -339.5t279 -129.5q126 0 236 63t183 177l64 -38q-83 -130 -211.5 -200.5
t-282.5 -70.5zM56 587h865q0 188 -101 301.5t-266 113.5t-301.5 -113.5t-196.5 -301.5z" />
    <glyph glyph-name="eacute" unicode="&#xe9;" horiz-adv-x="1285" 
d="M725 1613l-197 -260h-64l174 260h87zM392 -18q-145 3 -251.5 74.5t-153 195t-22.5 275.5q25 155 110.5 279.5t214 194.5t275.5 70t253 -70t152 -194.5t21 -279.5l-1 -7h-947q-19 -210 81 -339.5t279 -129.5q126 0 236 63t183 177l64 -38q-83 -130 -211.5 -200.5
t-282.5 -70.5zM56 587h865q0 188 -101 301.5t-266 113.5t-301.5 -113.5t-196.5 -301.5z" />
    <glyph glyph-name="ecircumflex" unicode="&#xea;" horiz-adv-x="1285" 
d="M646 1622l-204 -221h-87l234 260h125l154 -260h-83zM392 -18q-145 3 -251.5 74.5t-153 195t-22.5 275.5q25 155 110.5 279.5t214 194.5t275.5 70t253 -70t152 -194.5t21 -279.5l-1 -7h-947q-19 -210 81 -339.5t279 -129.5q126 0 236 63t183 177l64 -38
q-83 -130 -211.5 -200.5t-282.5 -70.5zM56 587h865q0 188 -101 301.5t-266 113.5t-301.5 -113.5t-196.5 -301.5z" />
    <glyph glyph-name="edieresis" unicode="&#xeb;" horiz-adv-x="1285" 
d="M440 1353q-39 0 -60.5 26.5t-15.5 65.5q6 38 36 63.5t69 25.5q38 0 60 -25.5t16 -63.5q-6 -39 -36.5 -65.5t-68.5 -26.5zM798 1353q-39 0 -61 26.5t-16 65.5q6 37 36.5 63t69.5 26q36 0 58.5 -26t16.5 -63q-6 -38 -37 -65t-67 -27zM392 -18q-145 3 -251.5 74.5t-153 195
t-22.5 275.5q25 155 110.5 279.5t214 194.5t275.5 70t253 -70t152 -194.5t21 -279.5l-1 -7h-947q-19 -210 81 -339.5t279 -129.5q126 0 236 63t183 177l64 -38q-83 -130 -211.5 -200.5t-282.5 -70.5zM56 587h865q0 188 -101 301.5t-266 113.5t-301.5 -113.5t-196.5 -301.5z
" />
    <glyph glyph-name="igrave" unicode="&#xec;" horiz-adv-x="325" 
d="M145 1613l92 -260h-64l-114 260h86zM136 1051l-166 -1051h-86l166 1051h86z" />
    <glyph glyph-name="iacute" unicode="&#xed;" horiz-adv-x="325" 
d="M275 1613l-197 -260h-64l174 260h87zM136 1051l-166 -1051h-86l166 1051h86z" />
    <glyph glyph-name="icircumflex" unicode="&#xee;" horiz-adv-x="349" 
d="M187 1592l-204 -221h-87l234 260h125l154 -260h-83zM147 1051l-166 -1051h-86l166 1051h86z" />
    <glyph glyph-name="idieresis" unicode="&#xef;" horiz-adv-x="350" 
d="M-18 1353q-39 0 -60.5 26.5t-15.5 65.5q6 38 36 63.5t69 25.5q38 0 60 -25.5t16 -63.5q-6 -39 -36.5 -65.5t-68.5 -26.5zM340 1353q-39 0 -61 26.5t-16 65.5q6 37 36.5 63t69.5 26q36 0 58.5 -26t16.5 -63q-6 -38 -37 -65t-67 -27zM148 1051l-166 -1051h-86l166 1051h86z
" />
    <glyph glyph-name="ntilde" unicode="&#xf1;" horiz-adv-x="1063" 
d="M597 1353q-60 0 -129 50q-26 17 -36.5 23.5t-33.5 14.5t-45 8q-36 0 -70 -20t-53 -65h-62q22 66 73 103.5t113 37.5q58 0 130 -49q23 -16 36 -23.5t35 -15t44 -7.5q35 0 69.5 21t53.5 65h60q-24 -68 -75.5 -105.5t-109.5 -37.5zM71 648l-103 -648h-86l167 1052h86
l-23 -142q75 73 170.5 119t180.5 46q184 0 282 -105.5t72 -266.5l-111 -703h-86l103 648q24 156 -49 249t-222 93t-253 -93.5t-128 -248.5z" />
    <glyph glyph-name="ograve" unicode="&#xf2;" horiz-adv-x="1285" 
d="M595 1613l92 -260h-64l-114 260h86zM392 -18q-145 3 -251.5 74.5t-153 195t-22.5 275.5q25 155 110.5 279.5t214 194.5t275.5 70t253 -70t152 -194.5t21 -279.5q-25 -156 -110.5 -280.5t-213.5 -194.5t-275 -70zM403 51q189 4 331.5 138t174.5 338q34 208 -66 341.5
t-289 133.5q-190 0 -331.5 -133t-175.5 -342q-33 -209 66.5 -342.5t289.5 -133.5z" />
    <glyph glyph-name="oacute" unicode="&#xf3;" horiz-adv-x="1285" 
d="M725 1613l-197 -260h-64l174 260h87zM392 -18q-145 3 -251.5 74.5t-153 195t-22.5 275.5q25 155 110.5 279.5t214 194.5t275.5 70t253 -70t152 -194.5t21 -279.5q-25 -156 -110.5 -280.5t-213.5 -194.5t-275 -70zM403 51q189 4 331.5 138t174.5 338q34 208 -66 341.5
t-289 133.5q-190 0 -331.5 -133t-175.5 -342q-33 -209 66.5 -342.5t289.5 -133.5z" />
    <glyph glyph-name="ocircumflex" unicode="&#xf4;" horiz-adv-x="1285" 
d="M641 1585l-204 -221h-87l234 260h125l154 -260h-83zM392 -18q-145 3 -251.5 74.5t-153 195t-22.5 275.5q25 155 110.5 279.5t214 194.5t275.5 70t253 -70t152 -194.5t21 -279.5q-25 -156 -110.5 -280.5t-213.5 -194.5t-275 -70zM403 51q189 4 331.5 138t174.5 338
q34 208 -66 341.5t-289 133.5q-190 0 -331.5 -133t-175.5 -342q-33 -209 66.5 -342.5t289.5 -133.5z" />
    <glyph glyph-name="otilde" unicode="&#xf5;" horiz-adv-x="1285" 
d="M775 1353q-60 0 -129 50q-26 17 -36.5 23.5t-33.5 14.5t-45 8q-36 0 -70 -20t-53 -65h-62q22 66 73 103.5t113 37.5q58 0 130 -49q23 -16 36 -23.5t35 -15t44 -7.5q35 0 69.5 21t53.5 65h60q-24 -68 -75.5 -105.5t-109.5 -37.5zM392 -18q-145 3 -251.5 74.5t-153 195
t-22.5 275.5q25 155 110.5 279.5t214 194.5t275.5 70t253 -70t152 -194.5t21 -279.5q-25 -156 -110.5 -280.5t-213.5 -194.5t-275 -70zM403 51q189 4 331.5 138t174.5 338q34 208 -66 341.5t-289 133.5q-190 0 -331.5 -133t-175.5 -342q-33 -209 66.5 -342.5t289.5 -133.5z
" />
    <glyph glyph-name="odieresis" unicode="&#xf6;" horiz-adv-x="1285" 
d="M433 1353q-39 0 -60.5 26.5t-15.5 65.5q6 38 36 63.5t69 25.5q38 0 60 -25.5t16 -63.5q-6 -39 -36.5 -65.5t-68.5 -26.5zM791 1353q-39 0 -61 26.5t-16 65.5q6 37 36.5 63t69.5 26q36 0 58.5 -26t16.5 -63q-6 -38 -37 -65t-67 -27zM392 -18q-145 3 -251.5 74.5t-153 195
t-22.5 275.5q25 155 110.5 279.5t214 194.5t275.5 70t253 -70t152 -194.5t21 -279.5q-25 -156 -110.5 -280.5t-213.5 -194.5t-275 -70zM403 51q189 4 331.5 138t174.5 338q34 208 -66 341.5t-289 133.5q-190 0 -331.5 -133t-175.5 -342q-33 -209 66.5 -342.5t289.5 -133.5z
" />
    <glyph glyph-name="divide" unicode="&#xf7;" horiz-adv-x="1311" 
d="M678 1294l-27 -171h-107l27 171h107zM1003 807l-15 -96h-911l15 96h911zM536 395l-28 -171h-107l28 171h107z" />
    <glyph glyph-name="oslash" unicode="&#xf8;" horiz-adv-x="1285" 
d="M392 -18q-143 3 -249 73l-34 -55h-114l73 120q-67 75 -94.5 180t-8.5 227q25 155 110.5 279.5t214 194.5t275.5 70q41 0 82 -6l71 118h115l-89 -145q142 -56 209 -192.5t38 -318.5q-25 -156 -110.5 -280.5t-213.5 -194.5t-275 -70zM111 189l495 810q-24 3 -52 3
q-190 0 -331.5 -133t-175.5 -342q-32 -206 64 -338zM403 51q189 4 331.5 138t174.5 338q26 160 -29.5 279t-174.5 168l-524 -856q92 -67 222 -67z" />
    <glyph glyph-name="ugrave" unicode="&#xf9;" horiz-adv-x="1063" 
d="M490 1613l92 -260h-64l-114 260h86zM291 -23q-184 0 -281.5 105.5t-72.5 266.5l112 703h86l-103 -648q-22 -153 51.5 -247.5t219.5 -94.5q148 0 252 93.5t129 248.5l103 648h86l-167 -1052h-86l22 142q-75 -73 -170.5 -119t-180.5 -46z" />
    <glyph glyph-name="uacute" unicode="&#xfa;" horiz-adv-x="1063" 
d="M620 1613l-197 -260h-64l174 260h87zM291 -23q-184 0 -281.5 105.5t-72.5 266.5l112 703h86l-103 -648q-22 -153 51.5 -247.5t219.5 -94.5q148 0 252 93.5t129 248.5l103 648h86l-167 -1052h-86l22 142q-75 -73 -170.5 -119t-180.5 -46z" />
    <glyph glyph-name="ucircumflex" unicode="&#xfb;" horiz-adv-x="1063" 
d="M515 1625l-204 -221h-87l235 260h125l153 -260h-83zM291 -23q-184 0 -281.5 105.5t-72.5 266.5l112 703h86l-103 -648q-24 -152 50.5 -247t220.5 -95q148 0 252 93.5t129 248.5l103 648h86l-167 -1052h-86l22 142q-75 -73 -170.5 -119t-180.5 -46z" />
    <glyph glyph-name="udieresis" unicode="&#xfc;" horiz-adv-x="1063" 
d="M333 1353q-39 0 -60.5 26.5t-15.5 65.5q6 38 36 63.5t69 25.5q38 0 60 -25.5t16 -63.5q-6 -39 -36.5 -65.5t-68.5 -26.5zM691 1353q-39 0 -61 26.5t-16 65.5q6 37 36.5 63t69.5 26q36 0 58.5 -26t16.5 -63q-6 -38 -37 -65t-67 -27zM291 -23q-184 0 -281.5 105.5
t-72.5 266.5l112 703h86l-103 -648q-24 -152 50.5 -247t220.5 -95q148 0 252 93.5t129 248.5l103 648h86l-167 -1052h-86l22 142q-75 -73 -170.5 -119t-180.5 -46z" />
    <glyph glyph-name="yacute" unicode="&#xfd;" horiz-adv-x="1252" 
d="M710 1613l-197 -260h-64l174 260h87zM1046 1051l-864 -1516h-100l246 445l-266 1071h109l234 -948l532 948h109z" />
    <glyph glyph-name="ydieresis" unicode="&#xff;" horiz-adv-x="1252" 
d="M376 1353q-39 0 -60.5 26.5t-15.5 65.5q6 38 36 63.5t69 25.5q38 0 60 -25.5t16 -63.5q-6 -39 -36.5 -65.5t-68.5 -26.5zM734 1353q-39 0 -61 26.5t-16 65.5q6 37 36.5 63t69.5 26q36 0 58.5 -26t16.5 -63q-6 -38 -37 -65t-67 -27zM1046 1051l-864 -1516h-100l246 445
l-266 1071h109l234 -948l532 948h109z" />
    <glyph glyph-name="Amacron" unicode="&#x100;" horiz-adv-x="1495" 
d="M990 1801l-10 -62h-390l10 62h390zM227 434l-223 -434h-109l784 1490h134l312 -1490h-110l-84 434h-704zM914 519l-177 908l-466 -908h643z" />
    <glyph glyph-name="amacron" unicode="&#x101;" horiz-adv-x="1078" 
d="M683 1416l-10 -63h-396l10 63h396zM240 -25q-162 0 -248.5 85t-65.5 220q18 109 117 185.5t264 112.5l434 96l8 54q21 127 -56.5 204t-218.5 77q-137 -2 -226 -57t-114 -151h-84q33 121 147 194t282 81q175 -5 272.5 -99t72.5 -249l-115 -728h-75l37 231
q-78 -130 -195.5 -193t-235.5 -63zM250 36q168 0 299 125t158 301l23 147l-409 -92q-128 -29 -219.5 -92.5t-104.5 -146.5q-16 -100 58 -171t195 -71z" />
    <glyph glyph-name="Abreve" unicode="&#x102;" horiz-adv-x="1495" 
d="M799 1746q-97 0 -159.5 64.5t-57.5 158.5h54q-1 -74 47.5 -124.5t122.5 -50.5t140.5 51t89.5 124h53q-27 -95 -110 -159t-180 -64zM227 434l-223 -434h-109l784 1490h134l312 -1490h-110l-84 434h-704zM914 519l-177 908l-466 -908h643z" />
    <glyph glyph-name="abreve" unicode="&#x103;" horiz-adv-x="1078" 
d="M522 1353q-99 0 -161.5 65.5t-58.5 160.5h55q0 -75 49 -126.5t124 -51.5t143 52t91 126h53q-27 -96 -111.5 -161t-183.5 -65zM240 -25q-162 0 -248.5 85t-65.5 220q18 109 117 185.5t264 112.5l434 96l8 54q21 127 -56.5 204t-218.5 77q-137 -2 -226 -57t-114 -151h-84
q33 121 147 194t282 81q175 -5 272.5 -99t72.5 -249l-115 -728h-75l37 231q-78 -130 -195.5 -193t-235.5 -63zM250 36q168 0 299 125t158 301l23 147l-409 -92q-128 -29 -219.5 -92.5t-104.5 -146.5q-16 -100 58 -171t195 -71z" />
    <glyph glyph-name="Aogonek" unicode="&#x104;" horiz-adv-x="1457" 
d="M1026 -388q-75 0 -122 37.5t-54 104.5q-7 73 38.5 143.5t124.5 110.5l-82 426h-704l-223 -434h-109l784 1490h134l312 -1490h-30q-150 -85 -168 -194q-9 -59 23.5 -94t98.5 -35q92 0 171 56l22 -46q-96 -75 -216 -75zM914 519l-177 908l-466 -908h643z" />
    <glyph glyph-name="aogonek" unicode="&#x105;" horiz-adv-x="1078" 
d="M627 -401q-77 0 -124 38.5t-54 105.5q-8 79 44.5 155t142.5 113l35 220q-78 -130 -195.5 -193t-235.5 -63q-162 0 -248.5 85t-65.5 220q18 109 117 185.5t264 112.5l434 96l8 54q21 127 -56.5 204t-218.5 77q-137 -2 -226 -57t-114 -151h-84q33 121 147 194t282 81
q175 -5 272.5 -99t72.5 -249l-115 -727h3q-79 -42 -127 -95.5t-57 -109.5q-10 -60 23 -95.5t100 -35.5q92 0 174 57l23 -47q-101 -76 -221 -76zM250 36q168 0 299 125t158 301l23 147l-409 -92q-128 -29 -219.5 -92.5t-104.5 -146.5q-16 -100 58 -171t195 -71z" />
    <glyph glyph-name="Cacute" unicode="&#x106;" horiz-adv-x="1581" 
d="M1036 2002l-193 -256h-63l171 256h85zM604 -25q-207 0 -357 98.5t-215.5 274.5t-30.5 396t156 396t302.5 274.5t388.5 98.5q191 0 336 -86.5t216 -243.5l-93 -47q-57 142 -178.5 217t-294.5 75q-271 0 -475.5 -191.5t-252.5 -492.5q-32 -199 23 -355t182.5 -242.5
t306.5 -86.5q171 0 313.5 72.5t245.5 210.5l78 -47q-120 -151 -290.5 -236t-360.5 -85z" />
    <glyph glyph-name="cacute" unicode="&#x107;" horiz-adv-x="1207" 
d="M813 1613l-197 -260h-64l174 260h87zM401 -28q-224 5 -348.5 161.5t-87.5 393.5q38 240 211 397t400 157q136 0 239 -60t155 -166l-94 -47q-43 88 -124 136t-190 48q-186 0 -324 -130.5t-171 -334.5q-32 -205 65 -335.5t283 -130.5q224 0 370 182l79 -46
q-91 -107 -211 -166t-252 -59z" />
    <glyph glyph-name="Ccircumflex" unicode="&#x108;" horiz-adv-x="1581" 
d="M903 2013l-204 -221h-87l234 260h125l154 -260h-83zM604 -25q-207 0 -357 98.5t-215.5 274.5t-30.5 396t156 396t302.5 274.5t388.5 98.5q191 0 336 -86.5t216 -243.5l-93 -47q-57 142 -178.5 217t-294.5 75q-271 0 -475.5 -191.5t-252.5 -492.5q-32 -199 23 -355
t182.5 -242.5t306.5 -86.5q171 0 313.5 72.5t245.5 210.5l78 -47q-120 -151 -290.5 -236t-360.5 -85z" />
    <glyph glyph-name="ccircumflex" unicode="&#x109;" horiz-adv-x="1207" 
d="M642 1577l-204 -221h-87l234 260h125l154 -260h-83zM401 -28q-224 5 -348.5 161.5t-87.5 393.5q38 240 211 397t400 157q136 0 239 -60t155 -166l-94 -47q-43 88 -124 136t-190 48q-186 0 -324 -130.5t-171 -334.5q-32 -205 65 -335.5t283 -130.5q224 0 370 182l79 -46
q-91 -107 -211 -166t-252 -59z" />
    <glyph glyph-name="Cdotaccent" unicode="&#x10a;" horiz-adv-x="1581" 
d="M885 1746q-38 0 -59.5 26.5t-15.5 64.5q6 37 35.5 62.5t67.5 25.5q37 0 59 -25.5t16 -62.5q-6 -38 -36 -64.5t-67 -26.5zM604 -25q-207 0 -357 98.5t-215.5 274.5t-30.5 396t156 396t302.5 274.5t388.5 98.5q191 0 336 -86.5t216 -243.5l-93 -47q-57 142 -178.5 217
t-294.5 75q-271 0 -475.5 -191.5t-252.5 -492.5q-32 -199 23 -355t182.5 -242.5t306.5 -86.5q171 0 313.5 72.5t245.5 210.5l78 -47q-120 -151 -290.5 -236t-360.5 -85z" />
    <glyph glyph-name="cdotaccent" unicode="&#x10b;" horiz-adv-x="1207" 
d="M613 1353q-39 0 -60.5 26.5t-15.5 65.5q6 38 36 63.5t69 25.5q38 0 60 -25.5t16 -63.5q-6 -39 -36.5 -65.5t-68.5 -26.5zM401 -28q-224 5 -348.5 161.5t-87.5 393.5q38 240 211 397t400 157q136 0 239 -60t155 -166l-94 -47q-43 88 -124 136t-190 48q-186 0 -324 -130.5
t-171 -334.5q-32 -205 65 -335.5t283 -130.5q224 0 370 182l79 -46q-91 -107 -211 -166t-252 -59z" />
    <glyph glyph-name="Ccaron" unicode="&#x10c;" horiz-adv-x="1581" 
d="M1178 2020l-236 -260h-125l-152 260h87l134 -221l209 221h83zM604 -25q-207 0 -357 98.5t-215.5 274.5t-30.5 396t156 396t302.5 274.5t388.5 98.5q191 0 336 -86.5t216 -243.5l-93 -47q-57 142 -178.5 217t-294.5 75q-271 0 -475.5 -191.5t-252.5 -492.5
q-32 -199 23 -355t182.5 -242.5t306.5 -86.5q171 0 313.5 72.5t245.5 210.5l78 -47q-120 -151 -290.5 -236t-360.5 -85z" />
    <glyph glyph-name="ccaron" unicode="&#x10d;" horiz-adv-x="1207" 
d="M892 1646l-236 -260h-125l-152 260h87l134 -221l209 221h83zM401 -28q-224 5 -348.5 161.5t-87.5 393.5q38 240 211 397t400 157q136 0 239 -60t155 -166l-94 -47q-43 88 -124 136t-190 48q-186 0 -324 -130.5t-171 -334.5q-32 -205 65 -335.5t283 -130.5q224 0 370 182
l79 -46q-91 -107 -211 -166t-252 -59z" />
    <glyph glyph-name="Dcaron" unicode="&#x10e;" horiz-adv-x="1403" 
d="M897 2002l-236 -260h-125l-152 260h87l134 -221l209 221h83zM343 -2h-460l236 1492h460q193 -8 338 -105t213 -266t35 -375t-154 -375t-297 -266t-371 -105zM206 1409l-210 -1329l361 -1q173 0 323.5 84t251.5 236t132 345t-22.5 345t-177.5 236t-298 84h-360z" />
    <glyph glyph-name="dcaron" unicode="&#x10f;" horiz-adv-x="1270" 
d="M905 1623l-236 -260h-125l-152 260h87l134 -221l209 221h83zM392 -18q-223 0 -343.5 154t-83.5 391q25 155 110.5 279.5t214 194.5t275.5 70q138 0 240.5 -63t152.5 -174l108 679h86l-240 -1513h-86l35 224q-84 -110 -207 -174.5t-262 -67.5zM403 51q190 0 331.5 133.5
t174.5 342.5q34 209 -65.5 342t-289.5 133q-189 0 -331 -133t-176 -342q-32 -204 68 -338t288 -138z" />
    <glyph glyph-name="Emacron" unicode="&#x112;" horiz-adv-x="1175" 
d="M787 1808l-9 -62h-389l9 62h389zM832 85l-13 -85h-936l236 1490h936l-13 -85h-831l-94 -591h728l-13 -84h-728l-103 -645h831z" />
    <glyph glyph-name="emacron" unicode="&#x113;" horiz-adv-x="1285" 
d="M826 1421l-10 -63h-396l10 63h396zM392 -18q-145 3 -251.5 74.5t-153 195t-22.5 275.5q25 155 110.5 279.5t214 194.5t275.5 70t253 -70t152 -194.5t21 -279.5l-1 -7h-947q-19 -210 81 -339.5t279 -129.5q126 0 236 63t183 177l64 -38q-83 -130 -211.5 -200.5
t-282.5 -70.5zM56 587h865q0 188 -101 301.5t-266 113.5t-301.5 -113.5t-196.5 -301.5z" />
    <glyph glyph-name="Ebreve" unicode="&#x114;" horiz-adv-x="1175" 
d="M618 1746q-97 0 -159 64t-58 159h54q0 -74 48.5 -125t121.5 -51q74 0 141 51.5t90 124.5h52q-26 -95 -109 -159t-181 -64zM832 85l-13 -85h-936l236 1490h936l-13 -85h-831l-94 -591h728l-13 -84h-728l-103 -645h831z" />
    <glyph glyph-name="ebreve" unicode="&#x115;" horiz-adv-x="1285" 
d="M599 1353q-99 0 -161.5 65.5t-58.5 160.5h55q0 -75 49 -126.5t124 -51.5t143 52t91 126h53q-27 -96 -111.5 -161t-183.5 -65zM392 -18q-145 3 -251.5 74.5t-153 195t-22.5 275.5q25 155 110.5 279.5t214 194.5t275.5 70t253 -70t152 -194.5t21 -279.5l-1 -7h-947
q-19 -210 81 -339.5t279 -129.5q126 0 236 63t183 177l64 -38q-83 -130 -211.5 -200.5t-282.5 -70.5zM56 587h865q0 188 -101 301.5t-266 113.5t-301.5 -113.5t-196.5 -301.5z" />
    <glyph glyph-name="Edotaccent" unicode="&#x116;" horiz-adv-x="1175" 
d="M634 1746q-39 0 -60.5 26t-15.5 65q6 37 35.5 62t68.5 25q37 0 58.5 -25t15.5 -62q-6 -39 -35 -65t-67 -26zM832 85l-13 -85h-936l236 1490h936l-13 -85h-831l-94 -591h728l-13 -84h-728l-103 -645h831z" />
    <glyph glyph-name="edotaccent" unicode="&#x117;" horiz-adv-x="1285" 
d="M579 1353q-39 0 -60.5 26.5t-15.5 65.5q6 38 36 63.5t69 25.5q38 0 60 -25.5t16 -63.5q-6 -39 -36.5 -65.5t-68.5 -26.5zM392 -18q-145 3 -251.5 74.5t-153 195t-22.5 275.5q25 155 110.5 279.5t214 194.5t275.5 70t253 -70t152 -194.5t21 -279.5l-1 -7h-947
q-19 -210 81 -339.5t279 -129.5q126 0 236 63t183 177l64 -38q-83 -130 -211.5 -200.5t-282.5 -70.5zM56 587h865q0 188 -101 301.5t-266 113.5t-301.5 -113.5t-196.5 -301.5z" />
    <glyph glyph-name="Eogonek" unicode="&#x118;" horiz-adv-x="1175" 
d="M373 -385q-75 0 -122 38t-53 104q-7 68 32.5 135t110.5 108h-458l236 1490h936l-13 -85h-831l-94 -591h728l-13 -84h-728l-103 -645h831l-13 -85h-382q-145 -83 -162 -191q-10 -59 22.5 -94t98.5 -35q92 0 171 56l23 -46q-98 -75 -217 -75z" />
    <glyph glyph-name="eogonek" unicode="&#x119;" horiz-adv-x="1285" 
d="M349 -415q-77 0 -124 38.5t-54 105.5q-7 74 38.5 145.5t124.5 111.5q-196 25 -299.5 175.5t-69.5 365.5q25 155 110.5 279.5t214 194.5t275.5 70t253 -70t152 -194.5t21 -279.5l-1 -7h-947q-19 -210 81 -339.5t279 -129.5q126 0 236 63t183 177l64 -38
q-78 -122 -197 -192.5t-263 -77.5q-158 -87 -177 -201q-9 -60 24 -95.5t100 -35.5q92 0 174 57l22 -47q-99 -76 -220 -76zM56 587h865q0 188 -101 301.5t-266 113.5t-301.5 -113.5t-196.5 -301.5z" />
    <glyph glyph-name="Ecaron" unicode="&#x11a;" horiz-adv-x="1175" 
d="M922 2020l-236 -260h-125l-152 260h87l134 -221l209 221h83zM832 85l-13 -85h-936l236 1490h936l-13 -85h-831l-94 -591h728l-13 -84h-728l-103 -645h831z" />
    <glyph glyph-name="ecaron" unicode="&#x11b;" horiz-adv-x="1285" 
d="M908 1626l-237 -260h-125l-151 260h87l134 -221l209 221h83zM392 -18q-145 3 -251.5 74.5t-153 195t-22.5 275.5q25 155 110.5 279.5t214 194.5t275.5 70t253 -70t152 -194.5t21 -279.5l-1 -7h-947q-19 -210 81 -339.5t279 -129.5q126 0 236 63t183 177l64 -38
q-83 -130 -211.5 -200.5t-282.5 -70.5zM56 587h865q0 188 -101 301.5t-266 113.5t-301.5 -113.5t-196.5 -301.5z" />
    <glyph glyph-name="Gcircumflex" unicode="&#x11c;" horiz-adv-x="1581" 
d="M913 1987l-204 -221h-87l234 260h125l154 -260h-83zM604 -25q-207 0 -357 98.5t-215.5 274.5t-30.5 396t156 396t302.5 274.5t388.5 98.5q191 0 336 -86.5t216 -243.5l-93 -47q-57 142 -178.5 217t-294.5 75q-271 0 -475.5 -191.5t-252.5 -492.5q-31 -197 23.5 -353
t182.5 -243.5t306 -87.5q169 0 319 81t257 226l45 289h-535l13 84h622l-117 -740h-85l31 196q-283 -221 -564 -221z" />
    <glyph glyph-name="gcircumflex" unicode="&#x11d;" horiz-adv-x="1256" 
d="M658 1624l-204 -221h-87l234 260h125l154 -260h-83zM327 -465q-145 0 -251 66t-150 170l88 44q34 -84 115 -138.5t207 -54.5q114 0 214.5 45t172.5 135t91 210l41 262q-82 -99 -199 -156.5t-251 -58.5q-222 0 -338 141.5t-80 367.5q24 150 107.5 266.5t205.5 178.5
t263 62q134 0 234 -56t152 -156l29 188h86l-164 -1039q-16 -100 -67 -188t-126.5 -151.5t-174 -100.5t-205.5 -37zM417 144q183 3 319.5 123.5t165.5 300.5q29 183 -70.5 302.5t-282.5 119.5q-179 0 -314.5 -116.5t-165.5 -305.5q-30 -188 66.5 -306t281.5 -118z" />
    <glyph glyph-name="Gbreve" unicode="&#x11e;" horiz-adv-x="1581" 
d="M864 1746q-97 0 -159 64t-58 159h54q0 -74 48.5 -125t121.5 -51q74 0 141 51.5t90 124.5h52q-26 -95 -109 -159t-181 -64zM604 -25q-207 0 -357 98.5t-215.5 274.5t-30.5 396t156 396t302.5 274.5t388.5 98.5q191 0 336 -86.5t216 -243.5l-93 -47q-57 142 -178.5 217
t-294.5 75q-271 0 -475.5 -191.5t-252.5 -492.5q-31 -197 23.5 -353t182.5 -243.5t306 -87.5q169 0 319 81t257 226l45 289h-535l13 84h622l-117 -740h-85l31 196q-283 -221 -564 -221z" />
    <glyph glyph-name="gbreve" unicode="&#x11f;" horiz-adv-x="1256" 
d="M598 1353q-99 0 -161.5 65.5t-58.5 160.5h55q0 -75 49 -126.5t124 -51.5t143 52t91 126h53q-27 -96 -111.5 -161t-183.5 -65zM323 -465q-145 0 -251 66t-150 170l88 44q34 -84 115 -138.5t207 -54.5q114 0 214.5 45t172.5 135t91 210l41 262q-82 -99 -199 -156.5
t-251 -58.5q-222 0 -338 141.5t-80 367.5q24 150 107.5 266.5t205.5 178.5t263 62q134 0 234 -56t152 -156l29 188h86l-164 -1039q-16 -100 -67 -188t-126.5 -151.5t-174 -100.5t-205.5 -37zM413 144q183 3 319.5 123.5t165.5 300.5q29 183 -70.5 302.5t-282.5 119.5
q-179 0 -314.5 -116.5t-165.5 -305.5q-30 -188 66.5 -306t281.5 -118z" />
    <glyph glyph-name="Gdotaccent" unicode="&#x120;" horiz-adv-x="1581" 
d="M871 1746q-39 0 -60.5 26t-15.5 65q6 37 35.5 62t68.5 25q37 0 58.5 -25t15.5 -62q-6 -39 -35 -65t-67 -26zM604 -25q-207 0 -357 98.5t-215.5 274.5t-30.5 396t156 396t302.5 274.5t388.5 98.5q191 0 336 -86.5t216 -243.5l-93 -47q-57 142 -178.5 217t-294.5 75
q-271 0 -475.5 -191.5t-252.5 -492.5q-31 -197 23.5 -353t182.5 -243.5t306 -87.5q169 0 319 81t257 226l45 289h-535l13 84h622l-117 -740h-85l31 196q-283 -221 -564 -221z" />
    <glyph glyph-name="gdotaccent" unicode="&#x121;" horiz-adv-x="1256" 
d="M616 1353q-39 0 -60.5 26.5t-15.5 65.5q6 38 36 63.5t69 25.5q38 0 60 -25.5t16 -63.5q-6 -39 -36.5 -65.5t-68.5 -26.5zM327 -465q-145 0 -251 66t-150 170l88 44q34 -84 115 -138.5t207 -54.5q114 0 214.5 45t172.5 135t91 210l41 262q-82 -99 -199 -156.5t-251 -58.5
q-222 0 -338 141.5t-80 367.5q24 150 107.5 266.5t205.5 178.5t263 62q134 0 234 -56t152 -156l29 188h86l-164 -1039q-16 -100 -67 -188t-126.5 -151.5t-174 -100.5t-205.5 -37zM417 144q183 3 319.5 123.5t165.5 300.5q29 183 -70.5 302.5t-282.5 119.5
q-179 0 -314.5 -116.5t-165.5 -305.5q-30 -188 66.5 -306t281.5 -118z" />
    <glyph glyph-name="Itilde" unicode="&#x128;" horiz-adv-x="363" 
d="M327 1746q-26 0 -52 8.5t-39 16.5t-37 24t-35.5 23t-33.5 15t-44 8q-35 0 -68.5 -20t-52.5 -64h-61q21 64 71.5 101.5t111.5 37.5q58 0 128 -49q25 -17 36 -23.5t33 -14t44 -7.5q35 0 69 20.5t53 64.5h59q-24 -67 -74.5 -104t-107.5 -37zM233 1490l-236 -1490h-105
l236 1490h105z" />
    <glyph glyph-name="itilde" unicode="&#x129;" horiz-adv-x="353" 
d="M261 1353q-60 0 -129 50q-26 17 -36.5 23.5t-33.5 14.5t-45 8q-36 0 -70 -20t-53 -65h-62q22 66 73 103.5t113 37.5q58 0 130 -49q23 -16 36 -23.5t35 -15t44 -7.5q35 0 69.5 21t53.5 65h60q-24 -68 -75.5 -105.5t-109.5 -37.5zM149 1051l-166 -1051h-86l166 1051h86z
" />
    <glyph glyph-name="Imacron" unicode="&#x12a;" horiz-adv-x="356" 
d="M427 1808l-9 -62h-391l9 62h391zM229 1490l-236 -1490h-105l236 1490h105z" />
    <glyph glyph-name="imacron" unicode="&#x12b;" horiz-adv-x="325" 
d="M335 1416l-10 -63h-396l10 63h396zM136 1051l-166 -1051h-86l166 1051h86z" />
    <glyph glyph-name="Iogonek" unicode="&#x12e;" horiz-adv-x="356" 
d="M-91 -393q-75 0 -122 37.5t-54 104.5q-7 72 37.5 142t122.5 110l236 1489h105l-236 -1490h-11q-159 -87 -177 -199q-9 -59 23.5 -94t98.5 -35q92 0 171 56l23 -46q-98 -75 -217 -75z" />
    <glyph glyph-name="iogonek" unicode="&#x12f;" horiz-adv-x="342" 
d="M216 1513l-27 -168h-86l27 168h86zM-110 -401q-77 0 -124 38.5t-54 105.5q-7 78 43 152t136 113l165 1043h86l-166 -1051h-3q-163 -87 -182 -204q-10 -60 23 -95.5t100 -35.5q92 0 174 57l23 -47q-101 -76 -221 -76z" />
    <glyph glyph-name="Idotaccent" unicode="&#x130;" horiz-adv-x="348" 
d="M198 1746q-38 0 -60 26t-16 65q6 37 36 62t68 25t59.5 -25t15.5 -62q-6 -39 -35.5 -65t-67.5 -26zM225 1490l-236 -1490h-105l236 1490h105z" />
    <glyph glyph-name="dotlessi" unicode="&#x131;" horiz-adv-x="325" 
d="M136 1051l-166 -1051h-86l166 1051h86z" />
    <glyph glyph-name="Omacron" unicode="&#x14c;" horiz-adv-x="1689" 
d="M1091 1808l-9 -62h-390l9 62h390zM604 -25q-207 0 -357 98.5t-215.5 274.5t-30.5 396t156 396t302.5 274.5t388.5 98.5q155 0 280.5 -58t205 -159t111.5 -244t6 -308t-103.5 -308t-189 -244t-255.5 -159t-299 -58zM618 60q271 0 475.5 191.5t252.5 492.5q32 199 -23 355
t-182.5 242.5t-306.5 86.5q-271 0 -475.5 -191.5t-252.5 -492.5q-32 -199 23 -355t182.5 -242.5t306.5 -86.5z" />
    <glyph glyph-name="omacron" unicode="&#x14d;" horiz-adv-x="1285" 
d="M826 1416l-10 -63h-396l10 63h396zM392 -18q-145 3 -251.5 74.5t-153 195t-22.5 275.5q25 155 110.5 279.5t214 194.5t275.5 70t253 -70t152 -194.5t21 -279.5q-25 -156 -110.5 -280.5t-213.5 -194.5t-275 -70zM403 51q189 4 331.5 138t174.5 338q34 208 -66 341.5
t-289 133.5q-190 0 -331.5 -133t-175.5 -342q-33 -209 66.5 -342.5t289.5 -133.5z" />
    <glyph glyph-name="Obreve" unicode="&#x14e;" horiz-adv-x="1689" 
d="M878 1746q-97 0 -159 64.5t-58 158.5h55q-1 -74 47.5 -125t121.5 -51q75 0 141.5 51.5t89.5 124.5h53q-27 -95 -110 -159t-181 -64zM604 -25q-207 0 -357 98.5t-215.5 274.5t-30.5 396t156 396t302.5 274.5t388.5 98.5q155 0 280.5 -58t205 -159t111.5 -244t6 -308
t-103.5 -308t-189 -244t-255.5 -159t-299 -58zM618 60q271 0 475.5 191.5t252.5 492.5q32 199 -23 355t-182.5 242.5t-306.5 86.5q-271 0 -475.5 -191.5t-252.5 -492.5q-32 -199 23 -355t182.5 -242.5t306.5 -86.5z" />
    <glyph glyph-name="obreve" unicode="&#x14f;" horiz-adv-x="1285" 
d="M568 1353q-99 0 -161.5 65.5t-58.5 160.5h55q0 -75 49 -126.5t124 -51.5t143 52t91 126h53q-27 -96 -111.5 -161t-183.5 -65zM392 -18q-145 3 -251.5 74.5t-153 195t-22.5 275.5q25 155 110.5 279.5t214 194.5t275.5 70t253 -70t152 -194.5t21 -279.5
q-25 -156 -110.5 -280.5t-213.5 -194.5t-275 -70zM403 51q189 4 331.5 138t174.5 338q34 208 -66 341.5t-289 133.5q-190 0 -331.5 -133t-175.5 -342q-33 -209 66.5 -342.5t289.5 -133.5z" />
    <glyph glyph-name="Ohungarumlaut" unicode="&#x150;" horiz-adv-x="1689" 
d="M973 2004l-193 -258h-63l171 258h85zM1275 2004l-195 -258h-64l173 258h86zM604 -25q-207 0 -357 98.5t-215.5 274.5t-30.5 396t156 396t302.5 274.5t388.5 98.5q155 0 280.5 -58t205 -159t111.5 -244t6 -308t-103.5 -308t-189 -244t-255.5 -159t-299 -58zM618 60
q271 0 475.5 191.5t252.5 492.5q32 199 -23 355t-182.5 242.5t-306.5 86.5q-271 0 -475.5 -191.5t-252.5 -492.5q-32 -199 23 -355t182.5 -242.5t306.5 -86.5z" />
    <glyph glyph-name="ohungarumlaut" unicode="&#x151;" horiz-adv-x="1285" 
d="M690 1613l-197 -262h-64l174 262h87zM996 1613l-198 -262h-65l176 262h87zM392 -18q-145 3 -251.5 74.5t-153 195t-22.5 275.5q25 155 110.5 279.5t214 194.5t275.5 70t253 -70t152 -194.5t21 -279.5q-25 -156 -110.5 -280.5t-213.5 -194.5t-275 -70zM403 51
q189 4 331.5 138t174.5 338q34 208 -66 341.5t-289 133.5q-190 0 -331.5 -133t-175.5 -342q-33 -209 66.5 -342.5t289.5 -133.5z" />
    <glyph glyph-name="OE" unicode="&#x152;" horiz-adv-x="2466" 
d="M575 -25q-207 0 -357 98.5t-215.5 274.5t-30.5 396t156 396t302.5 274.5t388.5 98.5q174 0 320 -89.5t246 -250.5l50 317h935l-13 -85h-830l-94 -591h727l-13 -84h-727l-103 -645h830l-13 -85h-935l50 315q-151 -161 -325.5 -250.5t-348.5 -89.5zM589 60
q271 0 475.5 191.5t252.5 492.5q32 199 -23 355t-182.5 242.5t-306.5 86.5q-271 0 -475.5 -191.5t-252.5 -492.5q-32 -199 23 -355t182.5 -242.5t306.5 -86.5z" />
    <glyph glyph-name="oe" unicode="&#x153;" horiz-adv-x="2208" 
d="M373 -28q-224 5 -348.5 161.5t-87.5 393.5q38 240 211 397t400 157q145 0 255.5 -78.5t168.5 -217.5q103 139 239 217.5t281 78.5q227 0 350 -157t85 -397l-3 -17h-944q-15 -200 81.5 -324.5t269.5 -124.5q127 0 235 64.5t179 179.5l81 -48q-84 -136 -216.5 -210.5
t-292.5 -74.5q-145 0 -256.5 78.5t-170.5 217.5q-101 -139 -236.5 -217.5t-280.5 -78.5zM387 61q99 2 187 43t149.5 107t102.5 147.5t55 169.5q11 58 6.5 115t-18 108.5t-43 95.5t-69.5 76t-97.5 50.5t-125.5 18.5q-186 0 -324 -130.5t-171 -334.5q-32 -205 65 -335.5
t283 -130.5zM995 586h837q0 183 -96 294.5t-258 111.5t-293.5 -111.5t-189.5 -294.5zM1924 510h15l-18 -15z" />
    <glyph glyph-name="Rcaron" unicode="&#x158;" horiz-adv-x="1283" 
d="M894 1970l-236 -260h-125l-152 260h87l134 -221l209 221h83zM84 604l-96 -604h-105l236 1490h502q223 0 341.5 -122.5t86.5 -321.5q-24 -149 -130.5 -261t-271.5 -163l258 -622h-125l-248 604h-448zM608 1405h-397l-114 -717h397q173 0 295 99t147 261q26 161 -64.5 259
t-263.5 98z" />
    <glyph glyph-name="rcaron" unicode="&#x159;" horiz-adv-x="708" 
d="M599 1647l-267 -294h-75l-171 294h67l147 -256l233 256h66zM73 648l-103 -648h-86l167 1052h86l-23 -142q75 73 170.5 119t180.5 46q28 0 55 -3l-14 -86q-21 4 -52 4q-149 0 -253 -93.5t-128 -248.5z" />
    <glyph glyph-name="Sacute" unicode="&#x15a;" horiz-adv-x="1292" 
d="M788 2002l-193 -256h-63l171 256h85zM451 -25q-200 0 -335.5 104.5t-171.5 264.5l101 40q66 -324 420 -324q167 0 283 81t137 212q19 118 -35 189t-189 113l-270 83q-161 48 -233.5 150.5t-51.5 236.5q27 171 174.5 280.5t350.5 109.5q190 0 314.5 -90.5t155.5 -233.5
l-101 -44q-38 134 -137 208.5t-244 74.5q-162 0 -273.5 -80t-132.5 -213q-17 -108 42 -188.5t185 -119.5l257 -79q165 -54 241.5 -150t54.5 -233q-27 -173 -178 -282.5t-364 -109.5z" />
    <glyph glyph-name="sacute" unicode="&#x15b;" horiz-adv-x="1027" 
d="M603 1613l-197 -260h-64l174 260h87zM304 -20q-138 0 -236.5 66t-134.5 182l76 35q32 -99 112 -153t195 -54q119 0 204.5 59.5t99.5 152.5q12 72 -31.5 120.5t-145.5 78.5l-169 51q-117 38 -171 108t-39 164q20 127 124.5 204t256.5 77q127 0 217.5 -60.5t122.5 -165.5
l-74 -32q-30 85 -104 134t-174 50q-110 -2 -188.5 -56.5t-91.5 -140.5q-23 -144 163 -203l176 -57q118 -41 173 -112.5t41 -164.5q-20 -125 -132 -204t-270 -79z" />
    <glyph glyph-name="Scircumflex" unicode="&#x15c;" horiz-adv-x="1292" 
d="M739 1998l-225 -252h-66l260 289h74l172 -289h-65zM451 -25q-200 0 -335.5 104.5t-171.5 264.5l101 40q66 -324 420 -324q167 0 283 81t137 212q19 118 -35 189t-189 113l-270 83q-160 49 -233 151.5t-52 235.5q27 171 174.5 280.5t350.5 109.5q190 0 314.5 -90.5
t155.5 -233.5l-101 -44q-38 134 -137 208.5t-244 74.5q-162 0 -273.5 -80t-132.5 -213q-17 -108 42 -188.5t185 -119.5l257 -79q164 -51 241 -148t55 -235q-27 -173 -178 -282.5t-364 -109.5z" />
    <glyph glyph-name="scircumflex" unicode="&#x15d;" horiz-adv-x="1027" 
d="M558 1597l-204 -221h-87l234 260h125l154 -260h-83zM304 -20q-138 0 -236.5 66t-134.5 182l76 35q32 -99 112 -153t195 -54q119 0 204.5 59.5t99.5 152.5q12 72 -31.5 120.5t-145.5 78.5l-169 51q-117 38 -171 108t-39 164q20 127 124.5 204t256.5 77q127 0 217.5 -60.5
t122.5 -165.5l-74 -32q-30 85 -104 134t-174 50q-110 -2 -188.5 -56.5t-91.5 -140.5q-23 -144 163 -203l176 -57q118 -41 173 -112.5t41 -164.5q-20 -125 -132 -204t-270 -79z" />
    <glyph glyph-name="Scedilla" unicode="&#x15e;" horiz-adv-x="1292" 
d="M349 -418q-120 0 -196 76l37 47q65 -57 156 -57q67 0 111 35.5t54 95.5q17 113 -109 198q-182 13 -303 115t-155 252l101 40q66 -324 420 -324q167 0 283 81t137 212q19 118 -35 189t-189 113l-270 83q-160 49 -233 151.5t-52 235.5q27 171 174.5 280.5t350.5 109.5
q190 0 314.5 -90.5t155.5 -233.5l-101 -44q-38 134 -137 208.5t-244 74.5q-162 0 -273.5 -80t-132.5 -213q-17 -108 42 -188.5t185 -119.5l257 -79q164 -51 241 -148t55 -235q-25 -163 -161 -270t-331 -120q61 -42 80.5 -111t-8.5 -140q-29 -68 -88 -106t-136 -38z" />
    <glyph glyph-name="scedilla" unicode="&#x15f;" horiz-adv-x="1027" 
d="M215 -416q-120 0 -196 76l38 47q63 -57 156 -57q67 0 111 35.5t53 95.5q9 55 -20.5 107t-91.5 93q-124 10 -211.5 75t-120.5 172l76 35q32 -99 112 -153t195 -54q119 0 204.5 59.5t99.5 152.5q12 71 -31.5 119.5t-145.5 79.5l-169 51q-117 36 -171 106.5t-39 165.5
q20 127 124.5 204t256.5 77q127 0 217.5 -60.5t122.5 -165.5l-74 -32q-30 85 -104 134t-174 50q-110 -2 -188.5 -56.5t-91.5 -140.5q-23 -143 163 -203l176 -57q118 -39 173 -111.5t41 -165.5q-18 -113 -112.5 -189.5t-232.5 -90.5q65 -41 86.5 -111.5t-8.5 -143.5
q-28 -67 -87.5 -105.5t-136.5 -38.5z" />
    <glyph glyph-name="Scaron" unicode="&#x160;" horiz-adv-x="1292" 
d="M970 1992l-237 -260h-125l-151 260h87l134 -221l209 221h83zM451 -25q-200 0 -335.5 104.5t-171.5 264.5l101 40q66 -324 420 -324q167 0 283 81t137 212q19 118 -35 189t-189 113l-270 83q-161 48 -233.5 150.5t-51.5 236.5q27 171 174.5 280.5t350.5 109.5
q190 0 314.5 -90.5t155.5 -233.5l-101 -44q-38 134 -137 208.5t-244 74.5q-162 0 -273.5 -80t-132.5 -213q-17 -108 42 -188.5t185 -119.5l257 -79q165 -54 241.5 -150t54.5 -233q-27 -173 -178 -282.5t-364 -109.5z" />
    <glyph glyph-name="scaron" unicode="&#x161;" horiz-adv-x="1027" 
d="M765 1598l-236 -260h-125l-152 260h87l134 -221l209 221h83zM304 -20q-138 0 -236.5 66t-134.5 182l76 35q32 -99 112 -153t195 -54q119 0 204.5 59.5t99.5 152.5q12 72 -31.5 120.5t-145.5 78.5l-169 51q-117 38 -171 108t-39 164q20 127 124.5 204t256.5 77
q127 0 217.5 -60.5t122.5 -165.5l-74 -32q-30 85 -104 134t-174 50q-110 -2 -188.5 -56.5t-91.5 -140.5q-23 -144 163 -203l176 -57q118 -41 173 -112.5t41 -164.5q-20 -125 -132 -204t-270 -79z" />
    <glyph glyph-name="Utilde" unicode="&#x168;" horiz-adv-x="1281" 
d="M761 1746q-26 0 -52 8.5t-39 16.5t-37 24q-25 17 -35.5 23.5t-33 14.5t-44.5 8q-35 0 -68.5 -20t-52.5 -64h-61q22 64 72.5 101.5t110.5 37.5q27 0 53 -8.5t39 -16.5t36 -24q25 -17 36 -23.5t33 -14t44 -7.5q35 0 69 20.5t53 64.5h59q-24 -67 -74.5 -104t-107.5 -37z
M400 -25q-238 0 -359 130.5t-86 349.5l164 1035h107l-164 -1035q-27 -170 73.5 -282.5t278.5 -112.5q176 0 312.5 113t163.5 282l164 1035h107l-164 -1035q-35 -218 -197.5 -349t-399.5 -131z" />
    <glyph glyph-name="utilde" unicode="&#x169;" horiz-adv-x="1063" 
d="M597 1353q-60 0 -129 50q-26 17 -36.5 23.5t-33.5 14.5t-45 8q-36 0 -70 -20t-53 -65h-62q22 66 73 103.5t113 37.5q58 0 130 -49q23 -16 36 -23.5t35 -15t44 -7.5q35 0 69.5 21t53.5 65h60q-24 -68 -75.5 -105.5t-109.5 -37.5zM291 -23q-184 0 -281.5 105.5t-72.5 266.5
l112 703h86l-103 -648q-22 -153 51.5 -247.5t219.5 -94.5q148 0 252 93.5t129 248.5l103 648h86l-167 -1052h-86l22 142q-75 -73 -170.5 -119t-180.5 -46z" />
    <glyph glyph-name="Umacron" unicode="&#x16a;" horiz-adv-x="1281" 
d="M838 1808l-9 -62h-390l9 62h390zM400 -25q-238 0 -359 130.5t-86 349.5l164 1035h107l-164 -1035q-27 -170 73.5 -282.5t278.5 -112.5q176 0 312.5 113t163.5 282l164 1035h107l-164 -1035q-35 -218 -197.5 -349t-399.5 -131z" />
    <glyph glyph-name="umacron" unicode="&#x16b;" horiz-adv-x="1063" 
d="M676 1416l-10 -63h-396l10 63h396zM291 -23q-184 0 -281.5 105.5t-72.5 266.5l112 703h86l-103 -648q-22 -153 51.5 -247.5t219.5 -94.5q148 0 252 93.5t129 248.5l103 648h86l-167 -1052h-86l22 142q-75 -73 -170.5 -119t-180.5 -46z" />
    <glyph glyph-name="Ubreve" unicode="&#x16c;" horiz-adv-x="1281" 
d="M691 1746q-97 0 -159 64.5t-58 158.5h55q-1 -74 47.5 -125t121.5 -51q75 0 141.5 51.5t89.5 124.5h53q-27 -95 -110 -159t-181 -64zM400 -25q-238 0 -359 130.5t-86 349.5l164 1035h107l-164 -1035q-27 -170 73.5 -282.5t278.5 -112.5q176 0 312.5 113t163.5 282
l164 1035h107l-164 -1035q-35 -218 -197.5 -349t-399.5 -131z" />
    <glyph glyph-name="ubreve" unicode="&#x16d;" horiz-adv-x="1063" 
d="M506 1346q-99 0 -161.5 65.5t-58.5 160.5h55q-1 -74 48.5 -126t124.5 -52t142.5 52t91.5 126h53q-27 -96 -111.5 -161t-183.5 -65zM291 -23q-184 0 -281.5 105.5t-72.5 266.5l112 703h86l-103 -648q-24 -152 50.5 -247t220.5 -95q148 0 252 93.5t129 248.5l103 648h86
l-167 -1052h-86l22 142q-75 -73 -170.5 -119t-180.5 -46z" />
    <glyph glyph-name="Uring" unicode="&#x16e;" horiz-adv-x="1281" 
d="M635 1746q-72 0 -115 49.5t-32 119.5q11 71 68.5 119.5t131.5 48.5q73 0 115 -48.5t31 -119.5q-11 -70 -69 -119.5t-130 -49.5zM641 1785q55 0 100 38t53 92q9 53 -24 91t-88 38q-56 0 -100.5 -37.5t-53.5 -91.5q-8 -55 25 -92.5t88 -37.5zM400 -25q-238 0 -359 130.5
t-86 349.5l164 1035h107l-164 -1035q-27 -170 73.5 -282.5t278.5 -112.5q176 0 312.5 113t163.5 282l164 1035h107l-164 -1035q-35 -218 -197.5 -349t-399.5 -131z" />
    <glyph glyph-name="uring" unicode="&#x16f;" horiz-adv-x="1063" 
d="M469 1353q-73 0 -116.5 50t-31.5 122q11 72 69 121t133 49q74 0 117.5 -49.5t32.5 -120.5q-12 -72 -71 -122t-133 -50zM476 1393q56 0 101.5 38.5t54.5 93.5q8 54 -25.5 92.5t-89.5 38.5q-57 0 -102 -38.5t-53 -92.5q-9 -55 24.5 -93.5t89.5 -38.5zM291 -23
q-184 0 -281.5 105.5t-72.5 266.5l112 703h86l-103 -648q-22 -153 51.5 -247.5t219.5 -94.5q148 0 252 93.5t129 248.5l103 648h86l-167 -1052h-86l22 142q-75 -73 -170.5 -119t-180.5 -46z" />
    <glyph glyph-name="Uhungarumlaut" unicode="&#x170;" horiz-adv-x="1281" 
d="M690 2004l-193 -258h-63l171 258h85zM992 2004l-195 -258h-64l173 258h86zM400 -25q-238 0 -359 130.5t-86 349.5l164 1035h107l-164 -1035q-27 -170 73.5 -282.5t278.5 -112.5q176 0 312.5 113t163.5 282l164 1035h107l-164 -1035q-35 -218 -197.5 -349t-399.5 -131z
" />
    <glyph glyph-name="uhungarumlaut" unicode="&#x171;" horiz-adv-x="1063" 
d="M522 1615l-198 -262h-64l175 262h87zM828 1615l-199 -262h-65l177 262h87zM291 -23q-184 0 -281.5 105.5t-72.5 266.5l112 703h86l-103 -648q-24 -152 50.5 -247t220.5 -95q148 0 252 93.5t129 248.5l103 648h86l-167 -1052h-86l22 142q-75 -73 -170.5 -119t-180.5 -46z
" />
    <glyph glyph-name="Uogonek" unicode="&#x172;" horiz-adv-x="1281" 
d="M359 -425q-77 0 -124.5 38.5t-53.5 105.5q-8 74 38 146t126 112q-212 16 -317 144t-73 334l164 1035h107l-164 -1035q-27 -170 73.5 -282.5t278.5 -112.5q176 0 312.5 113t163.5 282l164 1035h107l-164 -1035q-33 -208 -183.5 -337.5t-372.5 -141.5q-163 -87 -182 -204
q-10 -60 23 -95.5t100 -35.5q92 0 174 57l23 -47q-101 -76 -220 -76z" />
    <glyph glyph-name="uogonek" unicode="&#x173;" horiz-adv-x="1063" 
d="M250 -419q-77 0 -124.5 38.5t-54.5 105.5q-7 73 37.5 144t122.5 111q-156 18 -236.5 120t-57.5 249l112 703h86l-103 -648q-24 -152 50.5 -247t220.5 -95q148 0 252 93.5t129 248.5l103 648h86l-167 -1052h-86l22 142q-67 -66 -151.5 -110t-163.5 -53
q-76 -41 -122.5 -93.5t-54.5 -107.5q-10 -60 23 -95.5t100 -35.5q92 0 174 57l23 -47q-101 -76 -220 -76z" />
    <glyph glyph-name="Wcircumflex" unicode="&#x174;" horiz-adv-x="2180" 
d="M1135 1954l-204 -221h-87l235 260h125l153 -260h-83zM1079 1425l-628 -1425h-131l-192 1490h105l168 -1413l611 1413h153l164 -1408l615 1408h105l-664 -1490h-131z" />
    <glyph glyph-name="wcircumflex" unicode="&#x175;" horiz-adv-x="1793" 
d="M914 1609l-229 -256h-67l265 294h75l173 -294h-66zM813 973l-454 -973h-99l-201 1051h107l159 -965l443 965h112l139 -961l463 961h107l-535 -1051h-97z" />
    <glyph glyph-name="Ycircumflex" unicode="&#x176;" horiz-adv-x="1428" 
d="M817 1981l-204 -221h-87l234 260h125l154 -260h-83zM641 699l-111 -699h-106l111 699l-392 791h110l349 -702l569 702h110z" />
    <glyph glyph-name="ycircumflex" unicode="&#x177;" horiz-adv-x="1252" 
d="M623 1626l-204 -221h-87l234 260h125l154 -260h-83zM1046 1051l-864 -1516h-100l246 445l-266 1071h109l234 -948l532 948h109z" />
    <glyph glyph-name="Ydieresis" unicode="&#x178;" horiz-adv-x="1428" 
d="M594 1746q-38 0 -59.5 26t-15.5 65q6 37 35.5 62t67.5 25t59.5 -25t15.5 -62q-6 -39 -35.5 -65t-67.5 -26zM947 1746q-39 0 -61 26t-16 65q6 36 36 61.5t69 25.5q35 0 57.5 -25.5t16.5 -61.5q-6 -38 -36 -64.5t-66 -26.5zM641 699l-111 -699h-106l111 699l-392 791h110
l349 -702l569 702h110z" />
    <glyph glyph-name="Zacute" unicode="&#x179;" horiz-adv-x="1298" 
d="M792 2002l-194 -256h-63l171 256h86zM955 85l-13 -85h-1059l10 62l1129 1343h-864l13 85h988l-10 -62l-1129 -1343h935z" />
    <glyph glyph-name="zacute" unicode="&#x17a;" horiz-adv-x="1021" 
d="M600 1613l-197 -260h-64l174 260h87zM678 87l-14 -87h-782l14 86l813 878h-640l13 87h746l-13 -86l-814 -878h677z" />
    <glyph glyph-name="Zdotaccent" unicode="&#x17b;" horiz-adv-x="1298" 
d="M648 1746q-39 0 -60.5 26t-15.5 65q6 37 35.5 62t68.5 25q37 0 58.5 -25t15.5 -62q-6 -39 -35 -65t-67 -26zM955 85l-13 -85h-1059l10 62l1129 1343h-864l13 85h988l-10 -62l-1129 -1343h935z" />
    <glyph glyph-name="zdotaccent" unicode="&#x17c;" horiz-adv-x="1021" 
d="M454 1353q-39 0 -60.5 26.5t-15.5 65.5q6 38 36 63.5t69 25.5q38 0 60 -25.5t16 -63.5q-6 -39 -36.5 -65.5t-68.5 -26.5zM678 87l-14 -87h-782l14 86l813 878h-640l13 87h746l-13 -86l-814 -878h677z" />
    <glyph glyph-name="Zcaron" unicode="&#x17d;" horiz-adv-x="1298" 
d="M995 1947l-236 -260h-125l-152 260h87l134 -221l209 221h83zM955 85l-13 -85h-1059l10 62l1129 1343h-864l13 85h988l-10 -62l-1129 -1343h935z" />
    <glyph glyph-name="zcaron" unicode="&#x17e;" horiz-adv-x="1021" 
d="M747 1647l-267 -294h-75l-171 294h67l147 -256l233 256h66zM678 87l-14 -87h-782l14 86l813 878h-640l13 87h746l-13 -86l-814 -878h677z" />
    <glyph glyph-name="circumflex" unicode="&#x2c6;" horiz-adv-x="593" 
d="M321 1648l-204 -221h-87l234 260h125l154 -260h-83z" />
    <glyph glyph-name="caron" unicode="&#x2c7;" horiz-adv-x="593" 
d="M584 1687l-236 -260h-125l-152 260h87l134 -221l209 221h83z" />
    <glyph glyph-name="breve" unicode="&#x2d8;" horiz-adv-x="596" 
d="M287 1427q-99 0 -162 65.5t-59 160.5h55q0 -74 49.5 -126t124.5 -52t142 52t91 126h54q-27 -96 -111.5 -161t-183.5 -65z" />
    <glyph glyph-name="dotaccent" unicode="&#x2d9;" horiz-adv-x="261" 
d="M122 1427q-39 0 -61.5 26.5t-15.5 65.5q6 38 36.5 64t69.5 26q37 0 59 -26t16 -64q-7 -39 -37 -65.5t-67 -26.5z" />
    <glyph glyph-name="ring" unicode="&#x2da;" horiz-adv-x="433" 
d="M206 1427q-73 0 -116.5 50t-32.5 122t69.5 121t133.5 49q74 0 117.5 -49.5t32.5 -120.5t-70.5 -121.5t-133.5 -50.5zM212 1467q56 0 102 38.5t54 93.5q9 54 -24.5 92t-89.5 38q-57 0 -101.5 -37.5t-53.5 -92.5q-8 -55 24.5 -93.5t88.5 -38.5z" />
    <glyph glyph-name="ogonek" unicode="&#x2db;" horiz-adv-x="475" 
d="M-11 -45q30 18 70 37l-3 -29l-22 8q-30 -10 -45 -16zM-67 -431q-84 0 -133.5 44t-37.5 120q11 69 68.5 126.5t158.5 95.5q-73 -44 -114.5 -95.5t-49.5 -101.5q-10 -65 24.5 -101.5t104.5 -36.5q94 0 172 53l16 -35q-95 -69 -209 -69z" />
    <glyph glyph-name="tilde" unicode="&#x2dc;" horiz-adv-x="673" 
d="M461 1427q-58 0 -130 49q-65 46 -115 46q-36 0 -69.5 -20t-52.5 -64h-62q22 66 73 103.5t113 37.5q59 0 129 -49q24 -16 36.5 -23.5t35 -15t44.5 -7.5q35 0 69 21t53 66h61q-24 -68 -75.5 -106t-109.5 -38z" />
    <glyph glyph-name="hungarumlaut" unicode="&#x2dd;" horiz-adv-x="607" 
d="M293 1689l-198 -262h-65l175 262h88zM599 1689l-199 -262h-65l177 262h87z" />
    <glyph glyph-name="gravecomb" unicode="&#x300;" 
d="M-203 1613l92 -260h-64l-114 260h86z" />
    <glyph glyph-name="acutecomb" unicode="&#x301;" 
d="M-73 1613l-197 -260h-64l174 260h87z" />
    <glyph glyph-name="uni0302" unicode="&#x302;" 
d="M-338 1609l-229 -256h-67l265 294h75l173 -294h-66z" />
    <glyph glyph-name="tildecomb" unicode="&#x303;" 
d="M-257 1353q-60 0 -129 50q-26 17 -36.5 23.5t-33.5 14.5t-45 8q-36 0 -70 -20t-53 -65h-62q22 66 73 103.5t113 37.5q58 0 130 -49q23 -16 36 -23.5t35 -15t44 -7.5q35 0 69.5 21t53.5 65h60q-24 -68 -75.5 -105.5t-109.5 -37.5z" />
    <glyph glyph-name="uni0304" unicode="&#x304;" 
d="M-82 1416l-10 -63h-396l10 63h396z" />
    <glyph glyph-name="uni0306" unicode="&#x306;" 
d="M-353 1353q-99 0 -161.5 65.5t-58.5 160.5h55q0 -75 49 -126.5t124 -51.5t143 52t91 126h53q-27 -96 -111.5 -161t-183.5 -65z" />
    <glyph glyph-name="uni0307" unicode="&#x307;" 
d="M-182 1353q-39 0 -60.5 26.5t-15.5 65.5q6 38 36 63.5t69 25.5q38 0 60 -25.5t16 -63.5q-6 -39 -36.5 -65.5t-68.5 -26.5z" />
    <glyph glyph-name="uni0308" unicode="&#x308;" 
d="M-539 1353q-39 0 -60.5 26.5t-15.5 65.5q6 38 36 63.5t69 25.5q38 0 60 -25.5t16 -63.5q-6 -39 -36.5 -65.5t-68.5 -26.5zM-181 1353q-39 0 -61 26.5t-16 65.5q6 37 36.5 63t69.5 26q36 0 58.5 -26t16.5 -63q-6 -38 -37 -65t-67 -27z" />
    <glyph glyph-name="uni030A" unicode="&#x30a;" 
d="M-268 1353q-73 0 -116.5 50t-31.5 122q11 72 69 121t133 49q74 0 117.5 -49.5t32.5 -120.5q-12 -72 -71 -122t-133 -50zM-261 1393q56 0 101.5 38.5t54.5 93.5q8 54 -25.5 92.5t-89.5 38.5q-57 0 -102 -38.5t-53 -92.5q-9 -55 24.5 -93.5t89.5 -38.5z" />
    <glyph glyph-name="uni030B" unicode="&#x30b;" 
d="M-379 1615l-198 -262h-64l175 262h87zM-73 1615l-199 -262h-65l177 262h87z" />
    <glyph glyph-name="uni030C" unicode="&#x30c;" 
d="M-74 1647l-267 -294h-75l-171 294h67l147 -256l233 256h66z" />
    <glyph glyph-name="uni0326" unicode="&#x326;" 
d="M-379 -167l-238 -340h-49l167 340h120z" />
    <glyph glyph-name="uni0327" unicode="&#x327;" 
d="M-573 -443q-120 0 -196 76l37 47q65 -57 156 -57q67 0 111 35.5t54 95.5q9 56 -22 109.5t-97 95.5l79 10q78 -37 106.5 -113t-4.5 -155q-29 -67 -88 -105.5t-136 -38.5z" />
    <glyph glyph-name="uni0328" unicode="&#x328;" 
d="M-574 -443q-77 0 -124.5 38.5t-53.5 105.5q-8 79 44 155t142 113l77 -10q-80 -42 -128 -95.5t-57 -109.5q-10 -60 23 -95.5t100 -35.5q93 0 174 57l23 -47q-101 -76 -220 -76z" />
    <glyph glyph-name="uni0335" unicode="&#x335;" 
d="M-181 704l-14 -86h-777l14 86h777z" />
    <glyph glyph-name="uni0336" unicode="&#x336;" 
d="M-165 698l-12 -76h-1338l12 76h1338z" />
    <glyph glyph-name="Wgrave" unicode="&#x1e80;" horiz-adv-x="2180" 
d="M1081 2002l91 -256h-63l-113 256h85zM1079 1425l-628 -1425h-131l-192 1490h105l168 -1413l611 1413h153l164 -1408l615 1408h105l-664 -1490h-131z" />
    <glyph glyph-name="wgrave" unicode="&#x1e81;" horiz-adv-x="1793" 
d="M836 1613l92 -260h-64l-114 260h86zM813 973l-454 -973h-99l-201 1051h107l159 -965l443 965h112l139 -961l463 961h107l-535 -1051h-97z" />
    <glyph glyph-name="Wacute" unicode="&#x1e82;" horiz-adv-x="2180" 
d="M1209 2002l-194 -256h-63l171 256h86zM1079 1425l-628 -1425h-131l-192 1490h105l168 -1413l611 1413h153l164 -1408l615 1408h105l-664 -1490h-131z" />
    <glyph glyph-name="wacute" unicode="&#x1e83;" horiz-adv-x="1793" 
d="M1021 1613l-197 -260h-64l174 260h87zM813 973l-454 -973h-99l-201 1051h107l159 -965l443 965h112l139 -961l463 961h107l-535 -1051h-97z" />
    <glyph glyph-name="Wdieresis" unicode="&#x1e84;" horiz-adv-x="2180" 
d="M956 1746q-38 0 -59.5 26t-15.5 65q6 37 35.5 62t67.5 25t59.5 -25t15.5 -62q-6 -39 -35.5 -65t-67.5 -26zM1309 1746q-39 0 -61 26t-16 65q6 36 36 61.5t69 25.5q35 0 57 -25.5t16 -61.5q-6 -38 -35.5 -64.5t-65.5 -26.5zM1079 1425l-628 -1425h-131l-192 1490h105
l168 -1413l611 1413h153l164 -1408l615 1408h105l-664 -1490h-131z" />
    <glyph glyph-name="wdieresis" unicode="&#x1e85;" horiz-adv-x="1793" 
d="M694 1353q-39 0 -60.5 26.5t-15.5 65.5q6 38 36 63.5t69 25.5q38 0 60 -25.5t16 -63.5q-6 -39 -36.5 -65.5t-68.5 -26.5zM1052 1353q-39 0 -61 26.5t-16 65.5q6 37 36.5 63t69.5 26q36 0 58.5 -26t16.5 -63q-6 -38 -37 -65t-67 -27zM813 973l-454 -973h-99l-201 1051h107
l159 -965l443 965h112l139 -961l463 961h107l-535 -1051h-97z" />
    <glyph glyph-name="endash" unicode="&#x2013;" horiz-adv-x="1206" 
d="M872 581l-14 -86h-826l14 86h826z" />
    <glyph glyph-name="emdash" unicode="&#x2014;" horiz-adv-x="1713" 
d="M1379 581l-14 -86h-1333l14 86h1333z" />
    <glyph glyph-name="quoteleft" unicode="&#x2018;" horiz-adv-x="586" 
d="M380 1513l-152 -498h-113l209 498h56z" />
    <glyph glyph-name="quoteright" unicode="&#x2019;" horiz-adv-x="586" 
d="M380 1513l-208 -498h-57l152 498h113z" />
    <glyph glyph-name="quotesinglbase" unicode="&#x201a;" horiz-adv-x="586" 
d="M167 171l-208 -498h-57l152 498h113z" />
    <glyph glyph-name="quotedblleft" unicode="&#x201c;" horiz-adv-x="956" 
d="M380 1513l-152 -498h-113l209 498h56zM750 1513l-152 -498h-113l209 498h56z" />
    <glyph glyph-name="quotedblright" unicode="&#x201d;" horiz-adv-x="956" 
d="M380 1513l-208 -498h-57l152 498h113zM750 1513l-208 -498h-57l152 498h113z" />
    <glyph glyph-name="quotedblbase" unicode="&#x201e;" horiz-adv-x="956" 
d="M167 171l-208 -498h-57l152 498h113zM537 171l-208 -498h-57l152 498h113z" />
    <glyph glyph-name="dagger" unicode="&#x2020;" horiz-adv-x="1480" 
d="M715 990l-222 -1402h-108l222 1402h-486l13 86h486l70 437h108l-70 -437h486l-13 -86h-486z" />
    <glyph glyph-name="daggerdbl" unicode="&#x2021;" horiz-adv-x="1480" 
d="M562 26l-69 -438h-108l69 438h-486l14 86h486l139 878h-486l13 86h486l70 437h108l-70 -437h486l-13 -86h-486l-139 -878h486l-14 -86h-486z" />
    <glyph glyph-name="bullet" unicode="&#x2022;" horiz-adv-x="790" 
d="M252 573q-79 0 -124.5 54.5t-32.5 134.5q12 76 75 129.5t141 53.5q74 0 117.5 -54t36.5 -129l-1 -4q-15 -76 -76.5 -130.5t-135.5 -54.5z" />
    <glyph glyph-name="ellipsis" unicode="&#x2026;" horiz-adv-x="1796" 
d="M108 171l-27 -171h-107l27 171h107zM743 171l-27 -171h-108l27 171h108zM1377 171l-27 -171h-108l27 171h108z" />
    <glyph glyph-name="guilsinglleft" unicode="&#x2039;" horiz-adv-x="708" 
d="M90 538l238 -371h-111l-238 371l356 371h111z" />
    <glyph glyph-name="guilsinglright" unicode="&#x203a;" horiz-adv-x="708" 
d="M427 538l-356 -371h-111l356 371l-238 371h111z" />
    <glyph glyph-name="Euro" unicode="&#x20ac;" horiz-adv-x="1677" 
d="M803 -25q-232 0 -380 153t-170 409h-324l39 87h282q9 97 15 132q4 32 20 98h-243l39 87h228q97 273 297 435.5t445 162.5q184 0 310.5 -92t168.5 -255l-102 -47q-39 141 -143.5 224.5t-247.5 83.5q-190 0 -358 -140.5t-263 -371.5h611l-38 -87h-599q-10 -39 -20 -98
q-6 -35 -15 -132h559l-39 -87h-516q26 -220 147.5 -348t310.5 -128q143 0 272.5 82.5t214.5 223.5l88 -47q-93 -161 -249.5 -253t-339.5 -92z" />
    <glyph glyph-name="trademark" unicode="&#x2122;" horiz-adv-x="2193" 
d="M568 1453v-981h-78v981h-300v60h676v-60h-298zM1132 1385v-913h-77v1041h79l395 -564l394 564h80v-1041h-78v907l-397 -563zM1528 816l24 -34l-18 -19l-25 13l5 20l-1 -1z" />
    <glyph glyph-name="partialdiff" unicode="&#x2202;" horiz-adv-x="1245" 
d="M382 -25q-155 3 -268.5 75.5t-164.5 201t-25 288.5q39 247 223.5 404t433.5 157q157 0 359 -74q-52 264 -191.5 411.5t-341.5 147.5q-93 0 -202 -36l-3 80q119 42 221 42q125 0 235 -53t189.5 -147.5t133.5 -223.5t67 -281t-11 -321q-49 -310 -225 -490.5t-430 -180.5z
M396 61q204 0 353 156.5t189 414.5l2 12q14 93 10 270q-196 101 -382 101q-212 0 -363 -131.5t-185 -345.5q-32 -203 76 -340t300 -137z" />
    <glyph glyph-name="summation" unicode="&#x2211;" horiz-adv-x="1157" 
d="M805 87l-14 -87h-877l13 85l527 673l-314 670l14 85h877l-14 -86h-790l311 -669l-523 -671h790z" />
    <glyph glyph-name="minus" unicode="&#x2212;" horiz-adv-x="1306" 
d="M958 807l-15 -96h-826l15 96h826z" />
    <glyph glyph-name="uni2215" unicode="&#x2215;" horiz-adv-x="837" 
d="M845 1513l-927 -1513h-114l926 1513h115z" />
    <glyph glyph-name="uni2219" unicode="&#x2219;" horiz-adv-x="933" 
d="M312 499q-109 0 -172 75.5t-46 185.5q17 107 104 181t196 74q103 0 163.5 -75t49.5 -180v-4q-20 -106 -106 -181.5t-189 -75.5z" />
    <glyph glyph-name="radical" unicode="&#x221a;" horiz-adv-x="1612" 
d="M1194 1427l-833 -1427h-111l-191 727h83l171 -678l834 1464h289l-14 -86h-228z" />
    <glyph glyph-name="integral" unicode="&#x222b;" horiz-adv-x="873" 
d="M-172 -422q-30 0 -72 5l12 73q26 -3 72 -3q110 0 190.5 66.5t99.5 188.5l206 1300q25 156 135.5 243.5t254.5 87.5q33 0 72 -6l-12 -73q-26 3 -72 3q-109 0 -190.5 -66.5t-100.5 -188.5l-206 -1300q-16 -104 -75 -180.5t-140 -113t-174 -36.5z" />
    <glyph glyph-name="approxequal" unicode="&#x2248;" horiz-adv-x="1471" 
d="M860 876q-46 0 -88 10t-64.5 20t-60.5 30t-62 31t-65.5 21t-86.5 10q-148 0 -285 -89l11 67q126 108 295 108q45 0 86.5 -10t64 -20t59.5 -30q38 -21 61.5 -31.5t64.5 -20.5t86 -10q145 0 285 89l-10 -67q-123 -108 -291 -108zM789 432q-46 0 -87.5 10t-65 20.5
t-59.5 29.5q-38 20 -62 31t-65.5 21t-86.5 10q-148 0 -285 -89l10 67q125 108 295 108q45 0 86.5 -10t65 -20.5t59.5 -29.5q38 -21 61.5 -31.5t64.5 -20.5t86 -10q145 0 285 89l-10 -67q-123 -108 -292 -108z" />
    <glyph glyph-name="notequal" unicode="&#x2260;" horiz-adv-x="1306" 
d="M470 457l-92 -211h-95l92 211h-299l16 97h324l180 410h-439l15 97h464l93 212h95l-94 -212h268l-15 -97h-293l-179 -410h407l-16 -97h-432z" />
    <glyph glyph-name="lessequal" unicode="&#x2264;" horiz-adv-x="1247" 
d="M216 898l650 -416l-15 -100l-734 462l17 107l880 462l-16 -100zM857 87l-14 -87h-911l14 87h911z" />
    <glyph glyph-name="greaterequal" unicode="&#x2265;" horiz-adv-x="1207" 
d="M943 951l-17 -107l-880 -462l15 100l781 416l-649 415l16 100zM857 87l-14 -87h-911l14 87h911z" />
    <glyph glyph-name="uniF8FF" unicode="&#xf8ff;" horiz-adv-x="1860" 
d="M1800 1630v-1869h-1740v1869h1740zM321 205h198v344h687v183h-687v491h687v176h-890v-1186q0 -2 1 -3q0 -5 4 -5zM1338 390h-685v-185h888v1194h-203v-334h-685v-190h685v-485zM1037 -26q11 0 29 4q8 6 12 6q9 0 9 9q0 1 1.5 4.5t1.5 5.5t0.5 5.5t0.5 5.5q0 10 -1 14
l-3 8l-9 9q-5 5 -8 5l-10 2q-13 3 -14 4q-8 5 -13 5t-8 4q-3 6 -3 8q0 10 12 10q7 0 10 -1q2 -1 5.5 -2t5.5 -2q3 -2 5.5 -3t4 -1.5t2.5 -0.5q8 -3 10 -4l14 27q-4 4 -26 11q-15 5 -28 5q-14 0 -26 -6q-1 -1 -5.5 -2.5t-5.5 -2.5q-6 -6 -8 -9q-6 -9 -6 -23q0 -4 2 -10
q1 -5 4 -9t7 -7l7 -5q4 -3 11 -3q2 0 6.5 -2t7.5 -2l6 -1q1 0 2 -1t2.5 -2t2.5 -2l7 -5q4 -3 4 -6q0 -9 -5 -10q-10 -2 -13 -2q-9 0 -24 6q-12 5 -23 14l-13 -26q14 -12 29 -16l6 -2q5 -1 9 -2q10 -2 16 -2zM499 -27q33 0 51 18t21 51q2 20 -11 36q-9 12 -10 13
q-10 10 -13 12q-12 8 -38 8q-17 0 -36 -8q-19 -13 -26 -25q-10 -17 -10 -36q0 -21 10 -35q9 -20 25 -27q15 -7 37 -7zM1349 -27q18 0 30 7q16 10 24 19l-20 19q-4 -4 -17 -10q-5 -4 -17 -4q-11 0 -17 5l-7 6q-1 0 -7 9q-4 5 -4 20q0 13 4 20l14 12q6 5 17 5q12 0 17 -5
q13 -4 17 -12l18 23q-1 2 -10 11q-7 7 -11 7q-8 0 -15 3q-9 3 -16 3q-31 0 -50 -18q-20 -19 -20 -51q0 -23 8 -35q11 -17 27 -27q13 -7 35 -7zM419 107h-98v-130h35v47h59v26h-59v31h63v26zM620 107h-31v-130h33v78l60 -78h31v130h-33v-77zM725 81h42v-104h34v104h39v26
h-115v-26zM919 107h-36l-57 -130h35l10 22h57l9 -22h38zM1098 81h40v-104h34v104h41v26h-115v-26zM1260 107h-33v-130h33v130zM1495 107h-36l-58 -130h38l8 22h61l6 -22h37zM500 2q-16 0 -27 12q-10 11 -10 28q0 13 5 20q1 1 2 3t2 3.5t2 2.5l7 5q7 5 19 5q9 0 19 -5
q9 -5 12 -14q0 -1 2 -4.5t2 -5.5v-20q0 -5 -4 -10q-2 -2 -4 -5l-3 -4.5t-2.5 -3t-2.5 -1.5q-18 -6 -19 -6zM901 73l16 -48h-36zM1476 73l17 -48h-36zM1031 -413q-13 0 -17 4q-10 3 -13 12l-2 6q0 1 -1 2q0 1 -1 3l7 2q4 1 8 1l2 -3q9 -13 17 -13q3 0 9 3t6 7q0 5 -3 8
q-2 2 -17 6q-18 4 -20 7q-8 13 -5 22q5 13 19 16q0 3 13 2q14 -2 20 -9q7 -3 7 -15v-3h-16v3q-5 11 -13 11q-1 0 -2 -1h-3q-9 -5 -9 -11l17 -6q16 -6 23 -13t7 -14q0 -4 -9 -18q-4 -6 -11 -8q-4 -1 -13 -1zM635 -414q-24 0 -33 22q-4 10 -4 20q0 15 3 22q1 3 10 12q5 5 13 8
q6 2 14 2q30 0 36 -29q3 -15 0 -27t-14 -22q-9 -8 -25 -8zM1281 -413q-24 0 -38 27q-3 7 -2 15l2 14q6 21 26 27q2 0 4 1t6 1q15 0 25 -10q5 -5 6 -8l2 -6l-8 -3l-6 -2q-3 0 -4 4q-4 11 -15 11q-9 0 -15 -8q-6 -7 -6 -16q0 -1 0.5 -5t0.5 -7q0 -5 3 -10q4 -11 16 -11
q11 0 16 13l2 5l8 -2q8 -3 8 -4l-2 -6q-11 -20 -29 -20zM1540 -413q-12 0 -20 6q-8 5 -12 14q-10 19 0 45q1 3 5 6.5t5 4.5q4 5 12 7q2 2 13 2q1 0 13 -3q2 -1 10 -8q5 -5 7 -9l1 -4q-2 -2 -9 -3l-8 -2q-1 1 -2 4q-4 9 -14 9q-12 0 -16 -9q-4 -10 -4 -19q0 -11 4 -19
q5 -8 16 -8t16 13q0 3 2 3v2l9 -3l5 -2v-3q0 -2 -2 -6l-3 -7q-11 -11 -28 -11zM112 -377l-8 -36h-9l-9 2l-19 79q0 2 8 2h9l11 -53q2 1 2 5q0 9 5 19q7 15 7 24l2 5h18l8 -27l6 -26q1 0 3 9l3 17q2 4 4 12.5t3 12.5q0 2 7 2q10 0 10 -2q-4 -10 -8 -32q-1 -5 -3.5 -13.5
t-3.5 -12.5l-4 -18v-5h-18v5l-4 10l-6 20l-6 25zM241 -381l-8 -32h-15q-2 2 -4 2l-3 12l-6 28l-6 27l-3 12q0 2 8 2h8q1 0 1 -2q1 -2 1 -7q4 -9 4 -18l6 -26l14 53h20q2 0 2 -2l7 -27l5 -27l13 54q0 2 7 2q9 0 9 -2q0 -1 -0.5 -4.5t-0.5 -5.5l-3 -15q-2 -10 -5 -15l-11 -41
h-7l-9 2l-9 30q0 1 -1 5.5t-1 5.5q0 2 -4 9q0 6 -1 9q-2 -6 -2 -9q-3 -6 -3 -9q0 -8 -3 -11zM377 -353l-15 -58l-10 -2q-8 0 -9 4l-2 12q-1 6 -7 27q-2 6 -4 16t-2 12l-3 12h16l5 -27l8 -26l3 9l11 44h19l8 -27q3 -24 8 -27q0 4 1 7q-1 2 3 20l6 27h8q9 0 9 -2q0 -1 -1 -4.5
t-1 -5.5q0 -3 -2 -15q0 -3 -2 -8t-3 -7l-11 -39l-7 -2h-10l-8 32l-5 21zM526 -393l-1 -18h-15v79q0 2 4 2h52v-14h-40v-19h33v-14h-33v-16zM727 -359v-54h-16v83h16l32 -53v53h15v-81l-7 -2h-8zM849 -344v-69h-17v69h-23v14h65v-14h-25zM907 -411l-8 -2h-7q0 2 -2 2l3 9
l9 22l11 26q1 2 3.5 10t4.5 12q0 2 7 2h9l33 -81q-2 0 -2 -2h-5l-11 2l-6 19h-32zM1135 -344v-69h-17v69h-25v14h65v-14h-23zM1206 -330v-83h-15v83h15zM1358 -411l-9 -2h-6l-2 2q2 3 4 9l7 22q5 14 10 26q2 4 5 11.5t4 10.5q0 2 9 2h9l32 -81q-2 0 -2 -2h-7l-9 2l-7 19h-31
zM1646 -413q-21 0 -30 12q-10 13 -10 29q0 7 8 25q6 14 19 17q17 0 37 -6q14 -4 14 -34q0 -20 -8 -31q-9 -12 -30 -12zM1735 -411l-8 -2h-7v83h25l6 -27l5 -18q2 -6 2 -8l7 24q2 6 4 12.5t3 10t1 4.5v2h26v-83h-17v63l-6 -28l-6 -21l-2 -10v-4h-10l-7 2l-6 30l-10 29v-59z
M637 -399q20 0 20 16v24q0 3 -10 13q-4 4 -9 4q-10 0 -18 -8q-2 -2 -4 -8q-1 -3 -1 -14q0 -12 7 -20q5 -7 15 -7zM1646 -399q7 0 10 4q11 5 11 23q0 21 -11 26q-2 1 -4 3q-1 1 -5 1q-15 0 -18 -9t-3 -21q0 -16 2 -19q5 -8 18 -8zM1377 -358l-8 -20h22l-5 14q-3 6 -3 7
q0 2 -1 3l-1 2zM930 -352l-5 -6l-6 -20h20q-2 5 -4 14q-3 6 -3 7q0 2 -1 3zM471 -395v-16h-16v16h16zM1468 -403l-1 -8h-14v16h15v-8z" />
    <glyph glyph-name="G.ss01" horiz-adv-x="1535" 
d="M575 -25q-207 0 -357 98.5t-215.5 274.5t-30.5 396t156 396t302.5 274.5t388.5 98.5q191 0 336 -86.5t216 -243.5l-93 -47q-57 142 -178.5 217t-294.5 75q-271 0 -475.5 -191.5t-252.5 -492.5q-32 -199 23 -355t182.5 -242.5t306.5 -86.5q173 0 325.5 84t258.5 233
l45 277h-489l13 84h584l-60 -381q-113 -188 -293 -285t-398 -97z" />
    <glyph glyph-name="Q.ss01" horiz-adv-x="1630" 
d="M1144 -341l-13 -84h-184q-202 0 -317 109.5t-106 292.5q-292 28 -447 241t-105 526q35 220 156 396t302.5 274.5t388.5 98.5q155 0 280.5 -58t205 -159t111.5 -244t6 -308q-33 -208 -148 -377.5t-289 -272t-377 -118.5q2 -146 96 -231.5t256 -85.5h184zM589 60
q271 0 475.5 191.5t252.5 492.5q32 199 -23 355t-182.5 242.5t-306.5 86.5q-271 0 -475.5 -191.5t-252.5 -492.5q-32 -199 23 -355t182.5 -242.5t306.5 -86.5z" />
    <glyph glyph-name="g.001" horiz-adv-x="1196" 
d="M299 -465q-145 0 -251 66t-150 170l88 44q34 -84 115 -138.5t207 -54.5q114 0 214.5 45t172.5 135t91 210l45 286q-102 -114 -222 -177.5t-234 -63.5q-140 0 -247 68t-156.5 186t-27.5 257q34 216 204 362t388 146q118 0 217.5 -69.5t159.5 -191.5l37 236h86l-164 -1039
q-16 -100 -67 -188t-126.5 -151.5t-174 -100.5t-205.5 -37zM389 144q183 3 319.5 123.5t165.5 300.5q29 183 -70.5 302.5t-282.5 119.5q-179 0 -314.5 -116.5t-165.5 -305.5q-30 -188 66.5 -306t281.5 -118z" />
    <glyph glyph-name="uni030C.alt" 
d="M-93 1513l-103 -428h-55l33 428h125z" />
    <glyph glyph-name="uni0335.alt" 
d="M-193 698l-12 -76h-566l12 76h566z" />
    <glyph glyph-name="_FSHallmark" horiz-adv-x="1728" 
d="M1668 1375v-190h-1604v190h1604zM1322 287q-75 0 -132 18q-98 25 -161 98.5t-63 173.5l186 -4q0 -8 12 -32q3 -25 26.5 -49t47.5 -31q33 -20 92 -20q67 0 104 22q34 20 34 52q0 59 -152 88q-134 39 -234 88q-96 48 -96 158q0 86 55 137.5t149 86.5q2 0 52 7t80 7
q75 0 180 -38q68 -24 109 -85.5t41 -134.5h-192q0 42 -50 78q-5 1 -20.5 9t-25.5 9q-7 1 -22.5 5.5t-23.5 4.5q-44 0 -90 -28q-38 -23 -38 -58q0 -63 36 -78q2 -1 20 -9t32.5 -12.5t29.5 -6.5l72 -20l58 -14q7 -1 27 -6.5t31 -5.5q37 -9 44 -14l40 -18q38 -24 62 -52
q22 -51 24 -88q3 -41 -20 -94q-80 -144 -324 -144zM274 545v-258h-210v798h674v-180h-464v-182h388v-178h-388zM816 291q-32 0 -62 30q-34 28 -34 64t30 66q26 26 66 26q47 0 78 -28q32 -29 32 -64q0 -38 -32 -70q-36 -24 -78 -24zM1666 189v-190h-1606v190h1606z" />
    <glyph glyph-name="_Fontastica" horiz-adv-x="1338" 
d="M262 536v-340h-196q-3 0 -4.5 2t-1.5 4v2v1178h884v-174h-682v-490h682v-182h-682zM1278 1382v-1186h-884v184h682v482h-682v188h682v332h202zM252 2q-9 0 -36 8q-15 4 -25.5 22.5t-10.5 35.5q0 28 21.5 47t50.5 19q21 0 32.5 -7.5t25.5 -26.5q10 -13 10 -32
q0 -28 -20 -47t-48 -19zM770 2q-35 0 -60 20l14 26q20 -20 46 -20q16 0 16 12q0 1 -2 3.5t-2 4.5l-6 4q-6 0 -14 4q-5 3 -13 3.5t-11 2.5q-20 13 -20 34q0 38 52 38q24 0 52 -14l-14 -28q-16 16 -50 16q-2 0 -2 -2l-2 -8q0 -1 1 -3t1 -3q0 -2 1.5 -3.5l2.5 -2.5h2
q3 0 7.5 -2t6.5 -2q15 0 30.5 -12.5t15.5 -27.5q0 -19 -16 -29.5t-36 -10.5zM1068 2q-18 0 -34 8q-15 7 -24.5 24t-9.5 34q0 14 10.5 33.5t23.5 24.5q20 8 34 8q18 0 30 -6t22 -16l-20 -24q-3 5 -13.5 11.5t-16.5 6.5q-18 0 -30 -18q-4 -6 -4 -20q0 -24 16 -32q12 -6 18 -6
q5 0 16.5 6t13.5 10l20 -20q-18 -24 -52 -24zM112 50v-46h-34v128h96v-26h-62v-30h58v-26h-58zM368 80v-76h-32v128h30l58 -78v78h32v-128h-30zM542 104v-100h-34v100h-38v28h108v-28h-36zM608 28l-8 -24h-34l54 128h34l54 -128h-36l-8 24h-56zM898 104v-100h-32v100h-38v28
h108v-28h-38zM984 132v-128h-34v128h34zM1164 28l-10 -24h-34l56 128h34l54 -128h-36l-10 24h-54zM252 28q14 0 24 12.5t10 27.5q0 13 -10.5 25.5t-23.5 12.5q-8 0 -20 -6q-16 -8 -16 -32q0 -17 9.5 -28.5t26.5 -11.5zM654 52l-18 46l-18 -46h36zM1208 52l-18 46l-16 -46h34
z" />
    <glyph glyph-name="_www.fontastica.com" horiz-adv-x="3906" 
d="M132 627v-120h-68l-4 2v418h316v-62h-244v-174h244v-64h-244zM494 927v-420h-316v64h244v172h-244v66h244v118h72zM2500 541q-41 0 -86.5 15.5t-75.5 40.5l36 72q22 -19 61 -36.5t65 -17.5q16 0 32 8q14 7 14 22t-10 20q-18 12 -58 24q-55 17 -62 20q-26 11 -40 30
q-14 20 -14 56q0 53 40.5 80.5t97.5 27.5q74 0 140 -40l-34 -72q-70 36 -114 36q-36 0 -36 -24q0 -27 66 -44q45 -10 62 -20q28 -16 40 -32q16 -22 16 -58q0 -54 -41 -81t-99 -27zM1086 539q-79 0 -133.5 51.5t-54.5 130.5t54 129.5t134 50.5t134 -50.5t54 -129.5
t-53.5 -130.5t-134.5 -51.5zM3312 539q-77 0 -129.5 52.5t-52.5 129.5q0 78 53.5 129t132.5 51q86 0 140 -60l-52 -64q-34 46 -86 46q-43 0 -69.5 -28.5t-26.5 -71.5q0 -33 12 -52q31 -50 84 -50q46 0 86 40l54 -56q-66 -66 -146 -66zM708 671v-124h-90v348h260v-72h-170
v-78h156v-74h-156zM1406 755v-208h-86v348h80l160 -210l-2 210h86v-348h-80zM1876 821v-274h-90v274h-104v74h300v-74h-106zM2062 607l-24 -60h-94l150 348h94l146 -348h-96l-24 60h-152zM2852 821v-274h-92v274h-104v74h300v-74h-104zM3084 895v-348h-90v348h90zM3574 607
l-24 -60h-94l150 348h94l146 -348h-98l-22 60h-152zM1088 617q40 0 67 31.5t27 72.5q0 15 -14 52q-19 50 -80 50q-43 0 -69.5 -29t-26.5 -73q0 -42 27 -73t69 -31zM2186 677l-46 126l-50 -126h96zM3698 677l-48 126l-48 -126h96z" />
    </font>
</defs>
</svg>
