<?xml version="1.0" standalone="no"?>
<!DOCTYPE svg PUBLIC "-//W3C//DTD SVG 1.1//EN" "http://www.w3.org/Graphics/SVG/1.1/DTD/svg11.dtd" >
<svg xmlns="http://www.w3.org/2000/svg" xmlns:xlink="http://www.w3.org/1999/xlink" version="1.1">
<metadata>
Created by FontForge 20170731 at Mon Jan 25 19:09:39 2021
 By Aleksey,,,
Copyright (c) 2021 by Fontastica. All rights reserved.
</metadata>
<defs>
<font id="LuxoraGrotesk-Thin" horiz-adv-x="0" >
  <font-face 
    font-family="Luxora Grotesk Thin"
    font-weight="100"
    font-stretch="normal"
    units-per-em="2048"
    panose-1="0 0 2 0 0 0 0 0 0 0"
    ascent="1638"
    descent="-410"
    x-height="1051"
    cap-height="1490"
    bbox="-1378 -507 3846 2097"
    underline-thickness="50"
    underline-position="-150"
    unicode-range="U+000D-F8FF"
  />
<missing-glyph horiz-adv-x="1263" 
d="M1214 1490v-1490h-1068v1490h1068zM1084 1427h-805l399 -628zM1151 1401l-431 -656l431 -650v1306zM635 745l-426 649v-1290zM1083 66l-405 625l-408 -627z" />
    <glyph glyph-name=".notdef" horiz-adv-x="1263" 
d="M1214 1490v-1490h-1068v1490h1068zM1084 1427h-805l399 -628zM1151 1401l-431 -656l431 -650v1306zM635 745l-426 649v-1290zM1083 66l-405 625l-408 -627z" />
    <glyph glyph-name=".null" 
 />
    <glyph glyph-name="nonmarkingreturn" horiz-adv-x="682" 
 />
    <glyph glyph-name="CR" unicode="&#xd;" horiz-adv-x="354" 
 />
    <glyph glyph-name="space" unicode=" " horiz-adv-x="528" 
 />
    <glyph glyph-name="exclam" unicode="!" horiz-adv-x="507" 
d="M307 1513l-10 -1060h-87l-10 1060h107zM307 171v-171h-107v171h107z" />
    <glyph glyph-name="quotedbl" unicode="&#x22;" horiz-adv-x="887" 
d="M317 1513v-498h-107v498h107zM677 1513v-498h-108v498h108z" />
    <glyph glyph-name="numbersign" unicode="#" horiz-adv-x="1563" 
d="M429 413l-119 -413h-105l119 413h-264v86h288l149 516h-264v86h289l118 412h105l-118 -412h508l118 412h105l-118 -412h263v-86h-288l-149 -516h264v-86h-288l-119 -413h-105l119 413h-508zM1110 1015h-508l-149 -516h508z" />
    <glyph glyph-name="dollar" unicode="$" horiz-adv-x="1251" 
d="M670 -26v-185h-87v190q-184 29 -313 129t-180 242l96 41q52 -129 154 -213t243 -113v655l-102 30q-165 51 -258.5 157t-93.5 236q0 164 127 273.5t327 122.5v211h87v-213q160 -25 282.5 -116t175.5 -212l-96 -44q-46 114 -139.5 187t-222.5 99v-652l119 -37
q182 -54 272 -149.5t90 -239.5q0 -169 -133 -278.5t-348 -120.5zM516 843l67 -21v631q-159 -14 -253 -94t-94 -204q0 -110 72.5 -191.5t207.5 -120.5zM768 665l-98 28v-631q169 9 271.5 90t102.5 207q0 120 -66 192t-210 114z" />
    <glyph glyph-name="percent" unicode="%" horiz-adv-x="2101" 
d="M543 852q-143 0 -243 100.5t-100 243.5q0 142 100 242.5t243 100.5q141 0 241 -100.5t100 -242.5q0 -143 -100 -243.5t-241 -100.5zM1449 1513l-687 -1513h-114l687 1513h114zM543 941q103 0 179 76t76 179t-76 178.5t-179 75.5q-104 0 -179.5 -75.5t-75.5 -178.5
q0 -104 75.5 -179.5t179.5 -75.5zM1558 -25q-141 0 -241 99.5t-100 241.5t100 243t241 101q142 0 242.5 -100.5t100.5 -243.5q0 -142 -100 -241.5t-243 -99.5zM1558 61q104 0 179.5 76t75.5 179t-75.5 179t-179.5 76q-103 0 -179 -76t-76 -179t76 -179t179 -76z" />
    <glyph glyph-name="ampersand" unicode="&#x26;" horiz-adv-x="1739" 
d="M631 -25q-191 0 -316 107.5t-125 271.5q0 129 79 230.5t246 183.5l111 56l-56 55q-154 165 -154 321q0 144 107.5 241.5t265.5 97.5q152 0 252 -92t100 -232q0 -105 -73.5 -192.5t-222.5 -165.5l-97 -48l416 -428l299 281h96l-342 -335l317 -327h-121l-255 267
q-164 -161 -282.5 -226.5t-244.5 -65.5zM661 899l40 -39l79 40q150 75 212.5 145.5t62.5 169.5q0 115 -74 187t-192 72q-123 0 -205 -78t-82 -196q0 -73 37 -143.5t122 -157.5zM631 61q113 0 213 55.5t220 169.5l39 38l-430 446l-109 -54q-267 -134 -267 -362
q0 -134 90 -213.5t244 -79.5z" />
    <glyph glyph-name="quotesingle" unicode="'" horiz-adv-x="527" 
d="M317 1513v-498h-107v498h107z" />
    <glyph glyph-name="parenleft" unicode="(" horiz-adv-x="700" 
d="M610 -296h-64q-156 181 -240 415.5t-86 490.5q2 256 86 489.5t240 413.5h64q-138 -206 -210.5 -436.5t-72.5 -466.5q0 -479 283 -906z" />
    <glyph glyph-name="parenright" unicode=")" horiz-adv-x="700" 
d="M155 -296h-65q283 427 283 906q0 236 -72.5 466.5t-210.5 436.5h65q158 -182 241.5 -413.5t83.5 -489.5t-83 -489.5t-242 -416.5z" />
    <glyph glyph-name="asterisk" unicode="*" horiz-adv-x="969" 
d="M675 822l-191 249l-190 -249l-72 52l188 250l-280 95l28 86l281 -93v301h91v-301l281 93l28 -86l-280 -95l188 -250z" />
    <glyph glyph-name="plus" unicode="+" horiz-adv-x="1206" 
d="M653 711v-366h-97v366h-366v96h366v364h97v-364h363v-96h-363z" />
    <glyph glyph-name="comma" unicode="," horiz-adv-x="584" 
d="M374 171l-127 -424h-57l72 424h112z" />
    <glyph glyph-name="hyphen" unicode="-" horiz-adv-x="1058" 
d="M868 581v-86h-678v86h678z" />
    <glyph glyph-name="period" unicode="." horiz-adv-x="527" 
d="M317 171v-171h-107v171h107z" />
    <glyph glyph-name="slash" unicode="/" horiz-adv-x="881" 
d="M841 1513l-687 -1513h-114l686 1513h115z" />
    <glyph glyph-name="zero" unicode="0" horiz-adv-x="1461" 
d="M733 -25q-175 0 -310 97.5t-209 275.5t-74 410t73.5 409.5t208 274.5t309.5 97t309 -97t207.5 -274.5t73.5 -409.5q0 -233 -73 -411t-206.5 -275t-308.5 -97zM733 72q141 3 250.5 89t171 241.5t61.5 355.5q0 308 -133.5 496t-351.5 188q-217 0 -350.5 -188.5
t-133.5 -495.5t134 -496.5t352 -189.5z" />
    <glyph glyph-name="one" unicode="1" horiz-adv-x="763" 
d="M463 1513v-1513h-107v1427h-296v86h403z" />
    <glyph glyph-name="two" unicode="2" horiz-adv-x="1190" 
d="M1070 87v-87h-961v63l431 454q111 118 174 190.5t114.5 148.5t71.5 139t20 133q0 155 -89 240t-250 85q-145 0 -246.5 -64.5t-154.5 -189.5l-80 38q56 142 183.5 222t297.5 80q195 0 321 -115.5t126 -295.5q0 -122 -78.5 -251.5t-257.5 -319.5l-445 -470h823z" />
    <glyph glyph-name="three" unicode="3" horiz-adv-x="1200" 
d="M585 -25q-169 0 -297 79.5t-188 222.5l80 38q56 -119 163 -186.5t242 -67.5q172 0 280 106.5t108 275.5q0 166 -110 273t-280 107q-40 0 -83 -5v68l423 539l-758 2v86h854v-106l-389 -491q191 -24 320.5 -159t129.5 -314q0 -204 -139.5 -336t-355.5 -132z" />
    <glyph glyph-name="four" unicode="4" horiz-adv-x="1291" 
d="M989 372v-372h-87v372h-822v96l807 1045h102v-1065h202v-76h-202zM902 448v952l-728 -952h728z" />
    <glyph glyph-name="five" unicode="5" horiz-adv-x="1230" 
d="M599 -25q-173 0 -305 80t-194 223l75 37q58 -118 172.5 -186t251.5 -68q177 0 290 109.5t113 283.5q0 172 -112.5 281t-292.5 109q-99 0 -186.5 -36.5t-137.5 -98.5l-60 34l76 773h753v-87h-688l-60 -600q166 105 310 105q221 0 363.5 -135t142.5 -345q0 -211 -143 -345
t-368 -134z" />
    <glyph glyph-name="six" unicode="6" horiz-adv-x="1153" 
d="M576 -25q-208 0 -342 137.5t-134 351.5q0 58 12.5 114.5t42.5 123.5t52.5 109.5t70.5 127.5l323 574h118l-403 -686q166 86 260 86q128 0 238 -63.5t174.5 -172t64.5 -234.5q0 -201 -136.5 -334.5t-340.5 -133.5zM576 61q157 3 263 112t106 270q0 165 -104 272.5
t-265 107.5q-160 0 -264.5 -108t-104.5 -272t105 -273t264 -109z" />
    <glyph glyph-name="seven" unicode="7" horiz-adv-x="1040" 
d="M980 1405l-644 -1405h-110l658 1429h-804v87h900v-111z" />
    <glyph glyph-name="eight" unicode="8" horiz-adv-x="1263" 
d="M630 -25q-221 0 -365.5 127.5t-144.5 321.5q0 128 83.5 237.5t228.5 172.5q-109 64 -168 151.5t-59 178.5q0 160 122 267.5t303 107.5q185 0 304.5 -105.5t119.5 -269.5q0 -93 -58 -179t-164 -151q144 -63 227.5 -172.5t83.5 -237.5q0 -194 -146 -321.5t-367 -127.5z
M630 873q136 0 226 82.5t90 208.5t-90 207.5t-226 81.5q-135 0 -225.5 -82.5t-90.5 -206.5q0 -126 89.5 -208.5t226.5 -82.5zM630 61q174 0 289.5 103t115.5 260t-114.5 260t-290.5 103q-174 0 -288.5 -103t-114.5 -260t114.5 -260t288.5 -103z" />
    <glyph glyph-name="nine" unicode="9" horiz-adv-x="1153" 
d="M875 574l-323 -574h-118l403 687q-166 -86 -261 -86q-128 0 -237.5 63.5t-174 172t-64.5 234.5q0 201 136 334.5t340 133.5q209 0 343 -137.5t134 -351.5q0 -58 -12.5 -114.5t-43 -124t-52.5 -109.5t-70 -128zM576 691q161 0 265 107.5t104 272.5q0 164 -105 273
t-264 109t-264 -109t-105 -273t104.5 -272t264.5 -108z" />
    <glyph glyph-name="colon" unicode=":" horiz-adv-x="527" 
d="M317 1076v-171h-107v171h107zM317 171v-171h-107v171h107z" />
    <glyph glyph-name="semicolon" unicode=";" horiz-adv-x="621" 
d="M411 1076v-171h-107v171h107zM394 171l-127 -424h-57l72 424h112z" />
    <glyph glyph-name="less" unicode="&#x3c;" horiz-adv-x="1143" 
d="M260 762l715 -415v-100l-807 461v108l807 462v-101z" />
    <glyph glyph-name="equal" unicode="=" horiz-adv-x="1306" 
d="M1066 1061v-97h-826v97h826zM1066 554v-97h-826v97h826z" />
    <glyph glyph-name="greater" unicode="&#x3e;" horiz-adv-x="1103" 
d="M975 816v-108l-807 -461v100l715 415l-715 415v101z" />
    <glyph glyph-name="question" unicode="?" horiz-adv-x="1124" 
d="M532 453h-107q3 59 22.5 114t54 103.5t67 84.5t79.5 80q40 38 48.5 46t42 42.5t43.5 49t32.5 46.5t30 54.5t15 54t7.5 63.5q0 111 -73 186.5t-218 75.5q-274 0 -367 -253l-79 37q50 142 167.5 222t278.5 80q182 0 290 -101.5t108 -246.5q0 -56 -16.5 -106t-53 -99
t-64.5 -79.5t-81 -81.5l-42 -41q-88 -88 -135 -162.5t-50 -168.5zM410 453h15v-16zM532 453h16l-16 -16v16zM539 171v-171h-108v171h108z" />
    <glyph glyph-name="at" unicode="@" horiz-adv-x="1926" 
d="M964 -141q-174 3 -330 69.5t-269 177.5t-179 265.5t-66 327.5q0 174 65.5 330t178 268t269 177t331.5 65q173 0 329 -66t268.5 -178t178.5 -267.5t66 -328.5q0 -195 -87.5 -308.5t-238.5 -113.5q-83 0 -148.5 49.5t-101.5 138.5q-64 -85 -145 -130t-169 -45
q-173 0 -288 119.5t-115 299.5q0 179 116 300.5t287 121.5q88 0 176 -62.5t159 -174.5v216h82v-553q0 -93 42.5 -144.5t119.5 -51.5q100 0 157.5 90.5t57.5 247.5q0 215 -96 387.5t-266.5 269.5t-383.5 97t-384 -97.5t-267 -270t-96 -386.5t96 -386.5t267 -270t384 -97.5
q195 0 336 70l39 -73q-168 -83 -375 -83zM922 376q135 0 224.5 96t89.5 239t-89 236t-225 93t-224 -93.5t-88 -237.5q0 -141 89.5 -237t222.5 -96z" />
    <glyph glyph-name="A" unicode="A" horiz-adv-x="1410" 
d="M353 434l-154 -434h-109l548 1490h134l548 -1490h-110l-153 434h-704zM1027 519l-321 908l-322 -908h643z" />
    <glyph glyph-name="B" unicode="B" horiz-adv-x="1264" 
d="M705 0h-615v1490h615q181 0 293.5 -107.5t112.5 -271.5q0 -97 -54.5 -182.5t-154.5 -146.5q128 -66 200 -167t72 -218q0 -188 -126.5 -292.5t-342.5 -104.5zM692 1405h-497v-591h497q139 0 222 78.5t83 208.5t-84.5 217t-220.5 87zM705 730h-510v-645h510q163 0 259 82
t96 230q0 150 -97.5 241.5t-257.5 91.5z" />
    <glyph glyph-name="C" unicode="C" horiz-adv-x="1510" 
d="M815 -25q-207 0 -372.5 98.5t-259 274.5t-93.5 396t93.5 396t259 274.5t372.5 98.5q191 0 350 -86.5t255 -243.5l-86 -47q-80 142 -213 217t-306 75q-179 0 -320 -86.5t-220.5 -242.5t-79.5 -355t79.5 -355t220.5 -242.5t320 -86.5q171 0 302.5 72.5t212.5 210.5l85 -47
q-97 -151 -253.5 -236t-346.5 -85z" />
    <glyph glyph-name="D" unicode="D" horiz-adv-x="1344" 
d="M550 -2h-460v1492h460q194 -8 354.5 -105t255 -265.5t94.5 -375.5t-94.5 -375.5t-255 -265.5t-354.5 -105zM190 1409v-1329l361 -1q130 0 241.5 49.5t191 136t124.5 210.5t45 269q0 293 -169.5 479t-433.5 186h-360z" />
    <glyph glyph-name="E" unicode="E" horiz-adv-x="1116" 
d="M1026 85v-85h-936v1490h936v-85h-831v-591h728v-84h-728v-645h831z" />
    <glyph glyph-name="F" unicode="F" horiz-adv-x="1116" 
d="M195 730v-730h-105v1490h936v-85h-831v-591h728v-84h-728z" />
    <glyph glyph-name="G" unicode="G" horiz-adv-x="1519" 
d="M815 -25q-207 0 -372.5 98.5t-259 274.5t-93.5 396t93.5 396t259 274.5t372.5 98.5q191 0 350 -86.5t255 -243.5l-86 -47q-80 142 -213 217t-306 75q-179 0 -320 -86.5t-220.5 -242.5t-79.5 -355q0 -197 79 -353t221 -243.5t320 -87.5q170 0 307 81.5t221 225.5l-1 289
h-535v84h622v-740h-85v196q-248 -221 -529 -221z" />
    <glyph glyph-name="H" unicode="H" horiz-adv-x="1284" 
d="M195 730v-730h-105v1490h105v-676h894v676h105v-1490h-105v730h-894z" />
    <glyph glyph-name="I" unicode="I" horiz-adv-x="285" 
d="M195 1490v-1490h-105v1490h105z" />
    <glyph glyph-name="J" unicode="J" horiz-adv-x="1190" 
d="M594 -17q-223 0 -359 121t-145 328h106q7 -162 118 -262.5t280 -100.5q170 0 284 112.5t114 281.5v1018h108v-1018q0 -218 -138 -349t-368 -131z" />
    <glyph glyph-name="K" unicode="K" horiz-adv-x="1241" 
d="M195 531v-531h-105v1490h105v-821l742 821h117l-487 -545l584 -945h-123l-531 866z" />
    <glyph glyph-name="L" unicode="L" horiz-adv-x="1116" 
d="M1026 85v-85h-936v1490h105v-1405h831z" />
    <glyph glyph-name="M" unicode="M" horiz-adv-x="1492" 
d="M195 1298v-1298h-105v1490h99l557 -810l557 810h99v-1490h-105v1294l-551 -798z" />
    <glyph glyph-name="N" unicode="N" horiz-adv-x="1284" 
d="M195 1309v-1309h-105v1490h99l900 -1300v1300h105v-1490h-99z" />
    <glyph glyph-name="O" unicode="O" horiz-adv-x="1630" 
d="M815 -25q-207 0 -372.5 98.5t-259 274.5t-93.5 396t93.5 396t259 274.5t372.5 98.5t372.5 -98.5t259 -274.5t93.5 -396t-93.5 -396t-259 -274.5t-372.5 -98.5zM815 60q179 0 320 86.5t220.5 242.5t79.5 355t-79.5 355t-220.5 242.5t-320 86.5t-320 -86.5t-220.5 -242.5
t-79.5 -355t79.5 -355t220.5 -242.5t320 -86.5z" />
    <glyph glyph-name="P" unicode="P" horiz-adv-x="1180" 
d="M195 604v-604h-105v1490h502q223 0 360.5 -122.5t137.5 -321.5t-136.5 -320.5t-361.5 -121.5h-397zM592 1405h-397v-717h397q173 0 279 99t106 261q0 161 -106 259t-279 98z" />
    <glyph glyph-name="Q" unicode="Q" horiz-adv-x="1630" 
d="M1203 83l169 -296l-87 -47l-166 297q-157 -62 -304 -62q-207 0 -372.5 98.5t-259 274.5t-93.5 396t93.5 396t259 274.5t372.5 98.5t372.5 -98.5t259 -274.5t93.5 -396q0 -208 -89.5 -380t-247.5 -281zM815 60q125 0 261 54l-260 466l74 49l269 -468q130 102 203 253
t73 330q0 199 -79.5 355t-220.5 242.5t-320 86.5t-320 -86.5t-220.5 -242.5t-79.5 -355t79.5 -355t220.5 -242.5t320 -86.5z" />
    <glyph glyph-name="R" unicode="R" horiz-adv-x="1202" 
d="M195 604v-604h-105v1490h502q223 0 360.5 -122.5t137.5 -321.5q0 -149 -89 -261t-246 -163l357 -622h-125l-344 604h-448zM592 1405h-397v-717h397q173 0 279 99t106 261q0 161 -106 259t-279 98z" />
    <glyph glyph-name="S" unicode="S" horiz-adv-x="1225" 
d="M655 -25q-200 0 -352 104.5t-213 264.5l94 40q117 -324 471 -324q167 0 270.5 81t103.5 212q0 118 -65 189t-207 113l-283 83q-168 48 -257 150.5t-89 236.5q0 171 130 280.5t333 109.5q190 0 328.5 -90.5t192.5 -233.5l-94 -44q-59 134 -169.5 208.5t-255.5 74.5
q-162 0 -261 -80t-99 -213q0 -108 71.5 -188.5t204.5 -119.5l269 -79q357 -112 357 -383q0 -173 -133.5 -282.5t-346.5 -109.5z" />
    <glyph glyph-name="T" unicode="T" horiz-adv-x="1141" 
d="M624 1405v-1405h-105v1405h-429v85h961v-85h-427z" />
    <glyph glyph-name="U" unicode="U" horiz-adv-x="1222" 
d="M611 -25q-238 0 -379.5 130.5t-141.5 349.5v1035h107v-1035q0 -171 118 -283t296 -112q176 0 295 113t119 282v1035h107v-1035q0 -218 -142 -349t-379 -131z" />
    <glyph glyph-name="V" unicode="V" horiz-adv-x="1410" 
d="M1320 1490l-548 -1490h-134l-548 1490h109l507 -1416l504 1416h110z" />
    <glyph glyph-name="W" unicode="W" horiz-adv-x="2101" 
d="M1051 1425l-402 -1425h-131l-428 1490h105l392 -1413l387 1413h153l387 -1408l392 1408h105l-428 -1490h-131z" />
    <glyph glyph-name="X" unicode="X" horiz-adv-x="1230" 
d="M616 671l-417 -671h-109l468 761l-451 729h113l396 -642l394 642h113l-454 -729l471 -761h-112z" />
    <glyph glyph-name="Y" unicode="Y" horiz-adv-x="1318" 
d="M713 699v-699h-106v699l-517 791h110l460 -702l458 702h110z" />
    <glyph glyph-name="Z" unicode="Z" horiz-adv-x="1239" 
d="M1149 85v-85h-1059v62l916 1343h-864v85h988v-62l-916 -1343h935z" />
    <glyph glyph-name="bracketleft" unicode="[" horiz-adv-x="711" 
d="M581 -61v-87h-361v1809h361v-86h-254v-1636h254z" />
    <glyph glyph-name="backslash" unicode="\" horiz-adv-x="881" 
d="M154 1513l687 -1513h-115l-686 1513h114z" />
    <glyph glyph-name="bracketright" unicode="]" horiz-adv-x="711" 
d="M491 1661v-1809h-361v87h254v1636h-254v86h361z" />
    <glyph glyph-name="asciicircum" unicode="^" horiz-adv-x="1140" 
d="M572 1415l-270 -516h-112l325 614h110l325 -614h-112z" />
    <glyph glyph-name="underscore" unicode="_" horiz-adv-x="949" 
d="M919 -61v-87h-889v87h889z" />
    <glyph glyph-name="grave" unicode="`" horiz-adv-x="301" 
d="M129 1687l134 -260h-66l-155 260h87z" />
    <glyph glyph-name="a" unicode="a" horiz-adv-x="1007" 
d="M452 -25q-162 0 -262 85t-100 220q0 109 87 185t246 113l419 96v54q0 127 -89.5 204t-230.5 77q-136 -2 -216.5 -57t-90.5 -151h-84q13 121 116 194t270 81q176 -5 288 -99t112 -249v-728h-75v231q-39 -89 -106 -148.5t-138 -83.5t-146 -24zM452 36q168 0 279 125
t111 301v147l-395 -92q-123 -29 -204.5 -92.5t-81.5 -146.5q0 -100 85 -171t206 -71z" />
    <glyph glyph-name="b" unicode="b" horiz-adv-x="1210" 
d="M607 -18q-138 3 -250.5 67.5t-180.5 174.5v-224h-86v1513h86v-679q68 111 180.5 174t250.5 63q223 0 368 -154t145 -390q0 -237 -145 -391t-368 -154zM607 51q188 4 309.5 138t121.5 338q0 208 -121 341.5t-310 133.5q-190 0 -310.5 -133t-120.5 -342t120.5 -342.5
t310.5 -133.5z" />
    <glyph glyph-name="c" unicode="c" horiz-adv-x="1211" 
d="M613 -28q-147 3 -266.5 75t-188 198t-68.5 282q0 240 148 397t375 157q136 0 248.5 -60t181.5 -166l-87 -47q-57 88 -145.5 136t-197.5 48q-186 0 -303.5 -130.5t-117.5 -334.5q0 -205 117.5 -335.5t303.5 -130.5q110 0 198 47.5t144 134.5l86 -46q-75 -107 -185.5 -166
t-242.5 -59z" />
    <glyph glyph-name="d" unicode="d" horiz-adv-x="1210" 
d="M603 -18q-223 0 -368 154t-145 391q0 236 145 390t368 154q138 0 250.5 -63t180.5 -174v679h86v-1513h-86v224q-68 -110 -180.5 -174.5t-250.5 -67.5zM603 51q190 0 310.5 133.5t120.5 342.5t-120.5 342t-310.5 133q-189 0 -310 -133.5t-121 -341.5q0 -204 121.5 -338
t309.5 -138z" />
    <glyph glyph-name="e" unicode="e" horiz-adv-x="1206" 
d="M603 -18q-146 3 -263.5 74.5t-183.5 195t-66 275.5q0 236 145 390t368 154t368 -154t145 -390v-7h-947q14 -210 134.5 -339.5t299.5 -129.5q126 0 226 63t155 177l70 -38q-62 -130 -179.5 -200.5t-271.5 -70.5zM171 587h865q-30 188 -149 301.5t-284 113.5t-283.5 -113.5
t-148.5 -301.5z" />
    <glyph glyph-name="f" unicode="f" horiz-adv-x="797" 
d="M398 964v-964h-86v964h-222v87h222v149q0 152 92 239t224 87q37 0 79 -5v-73q-27 2 -64 2q-110 0 -177.5 -64.5t-67.5 -185.5v-149h271v-87h-271z" />
    <glyph glyph-name="g" unicode="g" horiz-adv-x="1181" 
d="M594 -465q-145 0 -262 66t-177 170l81 44q47 -84 137 -138.5t216 -54.5q175 0 295.5 105.5t120.5 284.5v262q-66 -99 -174.5 -156.5t-241.5 -58.5q-222 0 -360.5 141.5t-138.5 367.5q0 227 140.5 367t355.5 140q134 0 243 -56t176 -156v188h86v-1039
q0 -204 -140.5 -340.5t-356.5 -136.5zM587 144q183 3 300.5 123.5t117.5 300.5q0 183 -118.5 302.5t-301.5 119.5q-179 0 -296 -116.5t-117 -305.5q0 -188 115.5 -306t299.5 -118z" />
    <glyph glyph-name="h" unicode="h" horiz-adv-x="1004" 
d="M176 648v-648h-86v1513h86v-603q64 73 152 119t173 46q184 0 298.5 -105.5t114.5 -266.5v-703h-86v648q0 156 -88 249t-237 93q-148 0 -237.5 -93.5t-89.5 -248.5z" />
    <glyph glyph-name="i" unicode="i" horiz-adv-x="266" 
d="M176 1513v-168h-86v168h86zM176 1051v-1051h-86v1051h86z" />
    <glyph glyph-name="j" unicode="j" horiz-adv-x="564" 
d="M474 1513v-168h-86v168h86zM161 -465q-38 0 -71 4v73q35 -3 64 -3q103 0 168.5 66t65.5 185v1191h86v-1191q0 -153 -90.5 -239t-222.5 -86z" />
    <glyph glyph-name="k" unicode="k" horiz-adv-x="963" 
d="M176 314v-314h-86v1513h86v-1087l586 625h95l-380 -410l396 -641h-103l-351 576z" />
    <glyph glyph-name="l" unicode="l" horiz-adv-x="266" 
d="M176 1513v-1513h-86v1513h86z" />
    <glyph glyph-name="m" unicode="m" horiz-adv-x="1695" 
d="M176 648v-648h-86v1052h86v-142q59 70 146 115t169 50h3q235 -4 354 -226q61 111 166 169t220 58q160 0 265.5 -105.5t105.5 -265.5v-705h-86v650q0 155 -85 247.5t-229 92.5q-142 0 -228 -93t-86 -247v-650h-87v650q0 154 -83 245.5t-224 94.5q-147 -3 -234 -95.5
t-87 -246.5z" />
    <glyph glyph-name="n" unicode="n" horiz-adv-x="1004" 
d="M176 648v-648h-86v1052h86v-142q64 73 152 119t173 46q184 0 298.5 -105.5t114.5 -266.5v-703h-86v648q0 156 -88 249t-237 93q-148 0 -237.5 -93.5t-89.5 -248.5z" />
    <glyph glyph-name="o" unicode="o" horiz-adv-x="1206" 
d="M603 -18q-146 3 -263.5 74.5t-183.5 195t-66 275.5q0 236 145 390t368 154t368 -154t145 -390q0 -237 -145 -391t-368 -154zM603 51q188 4 309.5 138t121.5 338q0 208 -121 341.5t-310 133.5q-190 0 -310.5 -133t-120.5 -342t120.5 -342.5t310.5 -133.5z" />
    <glyph glyph-name="p" unicode="p" horiz-adv-x="1210" 
d="M176 226v-679h-86v1513h86v-224q68 110 180.5 174.5t250.5 67.5q223 0 368 -154t145 -391q0 -236 -145 -390t-368 -154q-138 0 -250.5 63t-180.5 174zM607 58q189 0 310 133.5t121 341.5q0 204 -121.5 338t-309.5 138q-190 0 -310.5 -133.5t-120.5 -342.5t120.5 -342
t310.5 -133z" />
    <glyph glyph-name="q" unicode="q" horiz-adv-x="1210" 
d="M1120 1060v-1513h-86v679q-68 -111 -180.5 -174t-250.5 -63q-223 0 -368 154t-145 390q0 237 145 391t368 154q138 -3 250.5 -67.5t180.5 -174.5v224h86zM603 58q190 0 310.5 133t120.5 342t-120.5 342.5t-310.5 133.5q-188 -4 -309.5 -138t-121.5 -338
q0 -208 121 -341.5t310 -133.5z" />
    <glyph glyph-name="r" unicode="r" horiz-adv-x="646" 
d="M176 648v-648h-86v1052h86v-142q64 73 152 119t173 46q28 0 55 -3v-86q-23 4 -53 4q-148 0 -237.5 -93.5t-89.5 -248.5z" />
    <glyph glyph-name="s" unicode="s" horiz-adv-x="959" 
d="M507 -20q-138 0 -247 66t-163 182l70 35q48 -99 136.5 -153t203.5 -54q119 0 195 59.5t76 152.5q0 72 -51 120.5t-158 78.5l-177 51q-123 38 -188 108t-65 164q0 127 92 204t244 77q127 0 227 -60.5t149 -165.5l-69 -32q-44 85 -125.5 134t-181.5 50
q-110 -2 -179.5 -56.5t-69.5 -140.5q0 -144 195 -203l185 -57q125 -41 191.5 -113t66.5 -164q0 -125 -99.5 -204t-257.5 -79z" />
    <glyph glyph-name="t" unicode="t" horiz-adv-x="763" 
d="M613 -12q-145 0 -223 79t-78 226v671h-222v87h222v367h86v-367h271v-87h-271v-671q0 -22 0.5 -35.5t5 -41.5t13 -47t26 -42.5t42 -38t63.5 -25t88 -10.5q24 0 37 1v-63q-33 -3 -60 -3z" />
    <glyph glyph-name="u" unicode="u" horiz-adv-x="1004" 
d="M503 -23q-184 0 -298.5 105.5t-114.5 266.5v703h86v-648q2 -153 90.5 -247.5t234.5 -94.5q148 0 237.5 93.5t89.5 248.5v648h86v-1052h-86v142q-64 -73 -152 -119t-173 -46z" />
    <glyph glyph-name="v" unicode="v" horiz-adv-x="1124" 
d="M1034 1051l-423 -1051h-100l-421 1051h104l368 -960l368 960h104z" />
    <glyph glyph-name="w" unicode="w" horiz-adv-x="1710" 
d="M856 973l-300 -973h-99l-367 1051h107l311 -965l291 965h112l291 -961l311 961h107l-369 -1051h-97z" />
    <glyph glyph-name="x" unicode="x" horiz-adv-x="1031" 
d="M516 461l-324 -461h-102l373 525l-373 526h102l324 -461l323 461h102l-374 -526l374 -525h-102z" />
    <glyph glyph-name="y" unicode="y" horiz-adv-x="1164" 
d="M1074 1051l-624 -1516h-100l175 445l-435 1071h109l384 -948l382 948h109z" />
    <glyph glyph-name="z" unicode="z" horiz-adv-x="962" 
d="M872 87v-87h-782v86l674 878h-640v87h746v-86l-675 -878h677z" />
    <glyph glyph-name="braceleft" unicode="{" horiz-adv-x="719" 
d="M629 -209v-87h-41q-123 0 -198.5 74t-75.5 194v408q0 87 -41 136t-125 49h-28v86h28q84 0 125 49t41 136v410q0 120 75.5 193.5t198.5 73.5h41v-86h-41q-75 0 -120.5 -47t-45.5 -124v-412l1 -20q0 -114 -120 -217q56 -46 87.5 -103t31.5 -115v-427q0 -77 45.5 -124
t120.5 -47h41z" />
    <glyph glyph-name="bar" unicode="|" horiz-adv-x="627" 
d="M367 1725v-2126h-107v2126h107z" />
    <glyph glyph-name="braceright" unicode="}" horiz-adv-x="719" 
d="M131 -296h-41v87h41q75 0 120.5 47t45.5 124v427q1 57 32.5 115t86.5 103q-120 103 -120 217l1 20v412q-1 76 -46.5 123.5t-119.5 47.5h-41v86h41q123 0 198.5 -73.5t75.5 -193.5v-410q0 -87 41.5 -136t124.5 -49h28v-86h-28q-83 0 -124.5 -49t-41.5 -136v-408
q0 -120 -75.5 -194t-198.5 -74z" />
    <glyph glyph-name="asciitilde" unicode="~" horiz-adv-x="1331" 
d="M874 635q-42 0 -83 13t-63.5 26t-59.5 38q-37 24 -56.5 35.5t-54 23t-68.5 11.5q-69 0 -114.5 -36t-62.5 -105h-82q18 111 81 169.5t159 58.5q42 0 83 -13t63 -26t60 -38q36 -24 56.5 -36t54.5 -23.5t68 -11.5q128 0 164 141h82q-17 -112 -75 -169.5t-152 -57.5z" />
    <glyph glyph-name="uni00A0" unicode="&#xa0;" horiz-adv-x="359" 
 />
    <glyph glyph-name="exclamdown" unicode="&#xa1;" horiz-adv-x="507" 
d="M307 1076v-171h-107v171h107zM297 624l10 -1061h-107l10 1061h87z" />
    <glyph glyph-name="cent" unicode="&#xa2;" horiz-adv-x="1100" 
d="M636 -26v-250h-87v253q-207 33 -338 188.5t-131 374.5q0 218 130.5 372t338.5 188v253h87v-251q136 -15 244 -81t160 -161l-82 -45q-46 80 -129 132.5t-193 67.5v-954q109 15 192.5 67.5t129.5 132.5l82 -44q-52 -95 -159.5 -161.5t-244.5 -81.5zM549 63v950
q-166 -40 -269 -169.5t-103 -305.5q0 -173 103.5 -303.5t268.5 -171.5z" />
    <glyph glyph-name="sterling" unicode="&#xa3;" horiz-adv-x="1558" 
d="M1321 87v-87h-1078v87h254v628h-267l25 86h242v310q0 191 125 309.5t328 118.5q163 0 284.5 -79.5t175.5 -222.5l-79 -37q-50 123 -147.5 188t-233.5 65q-162 0 -254 -91t-92 -251v-310h597l-25 -86h-572v-628h717z" />
    <glyph glyph-name="currency" unicode="&#xa4;" horiz-adv-x="1243" 
d="M377 234l-157 -157l-60 60l157 157q-87 122 -87 244q0 119 87 245l-157 157l60 60l157 -157q126 87 245 87q120 0 244 -87l157 157l60 -60l-157 -157q87 -126 87 -245q0 -122 -87 -244l157 -157l-60 -60l-157 157q-122 -88 -244 -88q-121 0 -245 88zM622 245
q121 0 207 85.5t86 207.5t-86.5 208.5t-206.5 86.5q-122 0 -208.5 -86.5t-86.5 -208.5t86.5 -207.5t208.5 -85.5z" />
    <glyph glyph-name="yen" unicode="&#xa5;" horiz-adv-x="1256" 
d="M683 326v-326h-108v326h-486v86h486v231h-486v86h475l-514 784h112l467 -712l465 712h112l-511 -784h449v-86h-461v-231h461v-86h-461z" />
    <glyph glyph-name="brokenbar" unicode="&#xa6;" horiz-adv-x="627" 
d="M367 1725v-733h-107v733h107zM367 332v-733h-107v733h107z" />
    <glyph glyph-name="section" unicode="&#xa7;" horiz-adv-x="1215" 
d="M642 -95q-147 0 -261 69.5t-171 191.5l80 40q49 -103 141 -158.5t211 -55.5q121 0 198.5 59.5t77.5 152.5q0 142 -213 201l-184 51q-127 38 -196 110.5t-69 172.5q0 155 180 249q-180 110 -180 258q0 132 96.5 212.5t255.5 80.5q133 0 238.5 -64.5t157.5 -174.5l-81 -38
q-45 92 -126.5 141.5t-188.5 49.5q-115 0 -185 -53.5t-70 -142.5q0 -145 200 -205l192 -57q128 -41 199 -115.5t71 -172.5q0 -150 -206 -239q206 -116 206 -268q0 -130 -104 -212.5t-269 -82.5zM553 545l142 -43q101 15 162 72t61 137q0 73 -52.5 122t-160.5 79l-169 47
q-83 -22 -133 -80t-50 -129q0 -145 200 -205z" />
    <glyph glyph-name="dieresis" unicode="&#xa8;" horiz-adv-x="619" 
d="M138 1427q-39 0 -65.5 26.5t-26.5 65.5q0 38 26.5 64t65.5 26q37 0 63 -26t26 -64q0 -39 -25.5 -65.5t-63.5 -26.5zM495 1427q-39 0 -65.5 26.5t-26.5 65.5q0 37 26.5 63.5t65.5 26.5q36 0 63 -26.5t27 -63.5q0 -38 -26.5 -65t-63.5 -27z" />
    <glyph glyph-name="copyright" unicode="&#xa9;" horiz-adv-x="1964" 
d="M983 -25q-158 3 -302.5 66t-250 167t-168 248t-62.5 302t61.5 302.5t165.5 249.5t249.5 167t306.5 62q159 0 304 -62t249.5 -167t166 -249.5t61.5 -302.5q0 -161 -62 -306.5t-167 -249.5t-249.5 -165.5t-302.5 -61.5zM983 61q188 4 347 96.5t253 251.5t94 349
t-91.5 349.5t-251.5 252.5t-351 93q-193 0 -353 -92.5t-252 -252t-92 -350.5q0 -193 92 -353t252 -252t353 -92zM994 345q-170 0 -282.5 117.5t-112.5 295.5t112.5 294.5t282.5 116.5q108 0 194 -50.5t125 -125.5l-72 -35q-36 65 -100.5 105.5t-146.5 40.5q-139 0 -227 -97
t-88 -249q0 -153 88 -250.5t227 -97.5q85 0 149.5 41t97.5 106l72 -36q-38 -76 -123.5 -126t-195.5 -50z" />
    <glyph glyph-name="ordfeminine" unicode="&#xaa;" horiz-adv-x="778" 
d="M330 759q-111 0 -180.5 58t-69.5 150q0 74 58.5 126t168.5 77l295 66v46q0 80 -56 129.5t-146 49.5q-69 0 -125 -31t-87 -87l-68 35q38 69 113.5 109.5t166.5 40.5q123 0 200.5 -68.5t77.5 -177.5v-506h-72v170q-63 -88 -136 -137.5t-140 -49.5zM341 818
q112 0 186.5 75.5t74.5 190.5v106l-277 -64q-75 -17 -118 -59.5t-43 -101.5q0 -68 47.5 -107.5t129.5 -39.5z" />
    <glyph glyph-name="guillemotleft" unicode="&#xab;" horiz-adv-x="1215" 
d="M241 538l297 -371h-111l-297 371l297 371h111zM749 538l296 -371h-111l-297 371l297 371h111z" />
    <glyph glyph-name="uni00AD" unicode="&#xad;" horiz-adv-x="1058" 
d="M868 581v-86h-678v86h678z" />
    <glyph glyph-name="registered" unicode="&#xae;" horiz-adv-x="1964" 
d="M983 -25q-214 0 -394 104.5t-284.5 284.5t-104.5 394q0 158 61.5 302.5t165.5 249.5t249.5 167t306.5 62q159 0 304 -62t249.5 -167t166 -249.5t61.5 -302.5q0 -161 -62 -306.5t-167 -249.5t-249.5 -165.5t-302.5 -61.5zM983 61q188 4 347 96.5t253 251.5t94 349
t-91.5 349.5t-251.5 252.5t-351 93q-193 0 -353 -92.5t-252 -252t-92 -350.5q0 -193 92 -353t252 -252t353 -92zM808 681v-321h-80v798h297q122 0 196 -64.5t74 -174.5q0 -77 -46 -136t-129 -92l190 -331h-91l-180 321h-231zM1027 1095h-219v-351h219q83 0 134 48.5
t51 126.5q0 79 -50.5 127.5t-134.5 48.5z" />
    <glyph glyph-name="macron" unicode="&#xaf;" horiz-adv-x="477" 
d="M437 1416v-63h-397v63h397z" />
    <glyph glyph-name="degree" unicode="&#xb0;" horiz-adv-x="1010" 
d="M505 930q-126 0 -215.5 89t-89.5 215q0 127 89 216t216 89t216 -89t89 -216q0 -126 -89.5 -215t-215.5 -89zM503 1000q95 0 165.5 69.5t70.5 164.5q0 96 -70 165.5t-166 69.5q-95 0 -163.5 -69.5t-68.5 -165.5q0 -95 68.5 -164.5t163.5 -69.5z" />
    <glyph glyph-name="plusminus" unicode="&#xb1;" horiz-adv-x="1206" 
d="M653 711v-366h-97v366h-366v96h366v364h97v-364h363v-96h-363zM1016 97v-97h-826v97h826z" />
    <glyph glyph-name="acute" unicode="&#xb4;" horiz-adv-x="301" 
d="M289 1687l-156 -260h-65l133 260h88z" />
    <glyph glyph-name="uni00B5" unicode="&#xb5;" horiz-adv-x="1061" 
d="M198 105v-527h-78v1498h78v-715q2 -142 84.5 -229.5t216.5 -87.5q86 0 179.5 37t164.5 99v896h78v-1076h-78v107q-87 -61 -184.5 -96.5t-176.5 -35.5q-142 0 -284 130z" />
    <glyph glyph-name="paragraph" unicode="&#xb6;" horiz-adv-x="741" 
d="M571 1513v-1724h-107v1106q-139 0 -236.5 90.5t-97.5 218.5t88 218.5t215 90.5h138z" />
    <glyph glyph-name="periodcentered" unicode="&#xb7;" horiz-adv-x="527" 
d="M317 843v-170h-107v170h107z" />
    <glyph glyph-name="cedilla" unicode="&#xb8;" horiz-adv-x="475" 
d="M204 -30h9l14 -8q-7 2 -23 8zM237 -435q-114 0 -197 70l21 34q75 -54 163 -54q70 0 111 38t41 101q0 56 -38 110t-111 98q100 -39 154 -99.5t54 -133.5q0 -76 -57.5 -120t-140.5 -44z" />
    <glyph glyph-name="ordmasculine" unicode="&#xba;" horiz-adv-x="921" 
d="M461 759q-159 0 -268.5 111t-112.5 275q3 163 112.5 273t268.5 110q161 0 270.5 -108.5t109.5 -274.5t-109.5 -276t-270.5 -110zM461 829q127 0 212.5 89.5t85.5 224.5t-86 225.5t-212 90.5q-127 0 -212 -90.5t-85 -225.5t85 -224.5t212 -89.5z" />
    <glyph glyph-name="guillemotright" unicode="&#xbb;" horiz-adv-x="1215" 
d="M578 538l-297 -371h-111l297 371l-297 371h111zM1085 538l-296 -371h-112l297 371l-297 371h112z" />
    <glyph glyph-name="questiondown" unicode="&#xbf;" horiz-adv-x="1124" 
d="M693 1539v-171h-108v171h108zM592 1102v-16h-16zM699 1102l16 -16h-16v16zM548 0q-181 0 -289.5 102t-108.5 246q0 45 13.5 89t30 76t51 73.5t56 63.5t64.5 64l42 41q88 88 135 162.5t50 168.5h107q-1 -49 -15.5 -96t-33 -82t-52 -75.5t-57.5 -65t-65 -63.5
q-102 -98 -136 -141q-83 -104 -83 -215q0 -110 73.5 -185.5t217.5 -75.5q274 0 367 252l79 -37q-50 -142 -167.5 -222t-278.5 -80z" />
    <glyph glyph-name="Agrave" unicode="&#xc0;" horiz-adv-x="1495" 
d="M676 2002l131 -256h-63l-153 256h85zM394 434l-154 -434h-109l548 1490h134l548 -1490h-110l-153 434h-704zM1068 519l-321 908l-322 -908h643z" />
    <glyph glyph-name="Aacute" unicode="&#xc1;" horiz-adv-x="1495" 
d="M868 2002l-153 -256h-63l131 256h85zM394 434l-154 -434h-109l548 1490h134l548 -1490h-110l-153 434h-704zM1068 519l-321 908l-322 -908h643z" />
    <glyph glyph-name="Acircumflex" unicode="&#xc2;" horiz-adv-x="1495" 
d="M755 1981l-169 -221h-87l193 260h125l195 -260h-83zM394 434l-154 -434h-109l548 1490h134l548 -1490h-110l-153 434h-704zM1068 519l-321 908l-322 -908h643z" />
    <glyph glyph-name="Atilde" unicode="&#xc3;" horiz-adv-x="1495" 
d="M897 1746q-58 0 -135 50q-3 2 -8 5q-64 37 -103 40h-10q-35 0 -65 -20t-42 -64h-61q11 65 55.5 102t105.5 37q26 0 53.5 -8.5t42 -16.5t39.5 -23q73 -46 121 -46q35 0 65.5 20.5t42.5 64.5h59q-13 -66 -58 -103.5t-102 -37.5zM394 434l-154 -434h-109l548 1490h134
l548 -1490h-110l-153 434h-704zM1068 519l-321 908l-322 -908h643z" />
    <glyph glyph-name="Adieresis" unicode="&#xc4;" horiz-adv-x="1495" 
d="M561 1746q-38 0 -63.5 26t-25.5 65q0 37 25.5 62t63.5 25t63.5 -25t25.5 -62q0 -39 -25.5 -65t-63.5 -26zM914 1746q-39 0 -65 26t-26 65q0 36 26 61.5t65 25.5q35 0 61 -25.5t26 -61.5q0 -38 -25.5 -64.5t-61.5 -26.5zM394 434l-154 -434h-109l548 1490h134l548 -1490
h-110l-153 434h-704zM1068 519l-321 908l-322 -908h643z" />
    <glyph glyph-name="Aring" unicode="&#xc5;" horiz-adv-x="1495" 
d="M752 1760q-72 0 -122.5 49.5t-50.5 120.5q0 70 49.5 118.5t123.5 48.5q73 0 123.5 -48.5t50.5 -118.5q0 -71 -50.5 -120.5t-123.5 -49.5zM752 1800q55 0 94 38t39 92q0 53 -39 91t-94 38q-56 0 -94 -37.5t-38 -91.5t39 -92t93 -38zM394 434l-154 -434h-109l548 1490h134
l548 -1490h-110l-153 434h-704zM1068 519l-321 908l-322 -908h643z" />
    <glyph glyph-name="AE" unicode="&#xc6;" horiz-adv-x="1762" 
d="M353 434l-154 -434h-109l548 1490l1034 3v-85h-830v-591h727v-84h-727v-645h830v-85h-935v431h-384zM737 1353l-54 9l-299 -843h353v834z" />
    <glyph glyph-name="Ccedilla" unicode="&#xc7;" horiz-adv-x="1510" 
d="M772 -427q-120 0 -208 76l30 47q73 -57 165 -57q67 0 105.5 35.5t38.5 95.5q0 56 -39.5 109.5t-112.5 95.5l13 2q-146 9 -271 70.5t-213.5 161.5t-139 238.5t-50.5 296.5q0 220 93.5 396t259 274.5t372.5 98.5q191 0 350 -86.5t255 -243.5l-86 -47q-80 142 -213 217
t-306 75q-179 0 -320 -86.5t-220.5 -242.5t-79.5 -355t79.5 -355t220.5 -242.5t320 -86.5q171 0 302.5 72.5t212.5 210.5l85 -47q-93 -144 -240.5 -228.5t-326.5 -91.5q75 -40 109.5 -112t15.5 -147q-17 -67 -70.5 -105.5t-130.5 -38.5z" />
    <glyph glyph-name="Egrave" unicode="&#xc8;" horiz-adv-x="1175" 
d="M525 2002l131 -256h-63l-153 256h85zM1055 85v-85h-936v1490h936v-85h-831v-591h728v-84h-728v-645h831z" />
    <glyph glyph-name="Eacute" unicode="&#xc9;" horiz-adv-x="1175" 
d="M652 2002l-153 -256h-63l131 256h85zM1055 85v-85h-936v1490h936v-85h-831v-591h728v-84h-728v-645h831z" />
    <glyph glyph-name="Ecircumflex" unicode="&#xca;" horiz-adv-x="1175" 
d="M601 1981l-169 -221h-87l193 260h125l195 -260h-83zM1055 85v-85h-936v1490h936v-85h-831v-591h728v-84h-728v-645h831z" />
    <glyph glyph-name="Edieresis" unicode="&#xcb;" horiz-adv-x="1175" 
d="M415 1746q-38 0 -64 26t-26 65q0 37 26 62t64 25t63.5 -25t25.5 -62q0 -39 -25.5 -65t-63.5 -26zM767 1746q-39 0 -64.5 26t-25.5 65q0 36 25.5 61.5t64.5 25.5q36 0 62 -25.5t26 -61.5q0 -38 -26 -64.5t-62 -26.5zM1055 85v-85h-936v1490h936v-85h-831v-591h728v-84
h-728v-645h831z" />
    <glyph glyph-name="Igrave" unicode="&#xcc;" horiz-adv-x="349" 
d="M134 2002l131 -256h-63l-153 256h85zM226 1490v-1490h-105v1490h105z" />
    <glyph glyph-name="Iacute" unicode="&#xcd;" horiz-adv-x="349" 
d="M262 2002l-154 -256h-63l131 256h86zM226 1490v-1490h-105v1490h105z" />
    <glyph glyph-name="Icircumflex" unicode="&#xce;" horiz-adv-x="361" 
d="M184 2003l-169 -221h-87l193 260h125l195 -260h-83zM231 1490v-1490h-105v1490h105z" />
    <glyph glyph-name="Idieresis" unicode="&#xcf;" horiz-adv-x="361" 
d="M9 1746q-38 0 -64 26t-26 65q0 37 26 62t64 25t63.5 -25t25.5 -62q0 -39 -25.5 -65t-63.5 -26zM361 1746q-39 0 -64.5 26t-25.5 65q0 36 25.5 61.5t64.5 25.5q36 0 62 -25.5t26 -61.5q0 -38 -26 -64.5t-62 -26.5zM232 1490v-1490h-105v1490h105z" />
    <glyph glyph-name="Ntilde" unicode="&#xd1;" horiz-adv-x="1344" 
d="M750 1746q-58 0 -135 49q-27 16 -39.5 23t-36 15t-45.5 8q-35 0 -65 -20t-42 -64h-62q12 64 56.5 101.5t105.5 37.5q26 0 53 -8.5t41.5 -16.5t40.5 -24q74 -45 121 -45q34 0 64.5 20.5t42.5 64.5h59q-12 -67 -57 -104t-102 -37zM224 1309v-1309h-105v1490h99l900 -1300
v1300h105v-1490h-99z" />
    <glyph glyph-name="Ograve" unicode="&#xd2;" horiz-adv-x="1689" 
d="M768 2002l131 -256h-63l-153 256h85zM844 -25q-207 0 -372.5 98.5t-259 274.5t-93.5 396t93.5 396t259 274.5t372.5 98.5t372.5 -98.5t259 -274.5t93.5 -396t-93.5 -396t-259 -274.5t-372.5 -98.5zM844 60q179 0 320 86.5t220.5 242.5t79.5 355t-79.5 355t-220.5 242.5
t-320 86.5t-320 -86.5t-220.5 -242.5t-79.5 -355t79.5 -355t220.5 -242.5t320 -86.5z" />
    <glyph glyph-name="Oacute" unicode="&#xd3;" horiz-adv-x="1689" 
d="M896 2002l-154 -256h-63l131 256h86zM844 -25q-207 0 -372.5 98.5t-259 274.5t-93.5 396t93.5 396t259 274.5t372.5 98.5t372.5 -98.5t259 -274.5t93.5 -396t-93.5 -396t-259 -274.5t-372.5 -98.5zM844 60q179 0 320 86.5t220.5 242.5t79.5 355t-79.5 355t-220.5 242.5
t-320 86.5t-320 -86.5t-220.5 -242.5t-79.5 -355t79.5 -355t220.5 -242.5t320 -86.5z" />
    <glyph glyph-name="Ocircumflex" unicode="&#xd4;" horiz-adv-x="1689" 
d="M839 1981l-169 -221h-87l193 260h125l195 -260h-83zM844 -25q-207 0 -372.5 98.5t-259 274.5t-93.5 396t93.5 396t259 274.5t372.5 98.5t372.5 -98.5t259 -274.5t93.5 -396t-93.5 -396t-259 -274.5t-372.5 -98.5zM844 60q179 0 320 86.5t220.5 242.5t79.5 355t-79.5 355
t-220.5 242.5t-320 86.5t-320 -86.5t-220.5 -242.5t-79.5 -355t79.5 -355t220.5 -242.5t320 -86.5z" />
    <glyph glyph-name="Otilde" unicode="&#xd5;" horiz-adv-x="1689" 
d="M985 1746q-26 0 -53 8.5t-41.5 16.5t-40.5 24q-28 17 -39.5 23.5t-35.5 14.5t-46 8q-35 0 -65 -20t-42 -64h-61q12 64 56.5 101.5t104.5 37.5q58 0 135 -49q28 -16 40 -23t35.5 -14.5t45.5 -7.5q35 0 65.5 20.5t42.5 64.5h59q-13 -67 -58 -104t-102 -37zM844 -25
q-207 0 -372.5 98.5t-259 274.5t-93.5 396t93.5 396t259 274.5t372.5 98.5t372.5 -98.5t259 -274.5t93.5 -396t-93.5 -396t-259 -274.5t-372.5 -98.5zM844 60q179 0 320 86.5t220.5 242.5t79.5 355t-79.5 355t-220.5 242.5t-320 86.5t-320 -86.5t-220.5 -242.5t-79.5 -355
t79.5 -355t220.5 -242.5t320 -86.5z" />
    <glyph glyph-name="Odieresis" unicode="&#xd6;" horiz-adv-x="1689" 
d="M665 1746q-38 0 -63.5 26t-25.5 65q0 37 25.5 62t63.5 25t63.5 -25t25.5 -62q0 -39 -25.5 -65t-63.5 -26zM1018 1746q-40 0 -65.5 26t-25.5 65q0 36 26 61.5t65 25.5q35 0 61 -25.5t26 -61.5q0 -38 -25.5 -64.5t-61.5 -26.5zM844 -25q-207 0 -372.5 98.5t-259 274.5
t-93.5 396t93.5 396t259 274.5t372.5 98.5t372.5 -98.5t259 -274.5t93.5 -396t-93.5 -396t-259 -274.5t-372.5 -98.5zM844 60q179 0 320 86.5t220.5 242.5t79.5 355t-79.5 355t-220.5 242.5t-320 86.5t-320 -86.5t-220.5 -242.5t-79.5 -355t79.5 -355t220.5 -242.5
t320 -86.5z" />
    <glyph glyph-name="multiply" unicode="&#xd7;" horiz-adv-x="1126" 
d="M867 387l-304 305l-305 -305l-68 69l304 304l-302 302l69 69l302 -302l302 302l68 -69l-302 -302l305 -304z" />
    <glyph glyph-name="Oslash" unicode="&#xd8;" horiz-adv-x="1630" 
d="M543 24l-40 -96h-119l68 140q-169 105 -265.5 282t-96.5 394q0 220 93.5 396t259 274.5t372.5 98.5q128 0 270 -48l56 117h109l-72 -162q169 -105 265.5 -282t96.5 -394q0 -220 -93.5 -396t-259 -274.5t-372.5 -98.5q-131 2 -272 49zM489 150l560 1234q-126 44 -234 44
q-179 0 -320 -86.5t-220.5 -242.5t-79.5 -355q0 -186 77.5 -340t216.5 -254zM815 60q179 0 320 86.5t220.5 242.5t79.5 355q0 185 -78 340t-216 255l-561 -1235q123 -44 235 -44z" />
    <glyph glyph-name="Ugrave" unicode="&#xd9;" horiz-adv-x="1281" 
d="M575 2002l131 -256h-63l-153 256h85zM640 -25q-238 0 -379.5 130.5t-141.5 349.5v1035h107v-1035q0 -171 118 -283t296 -112q176 0 295 113t119 282v1035h107v-1035q0 -218 -142 -349t-379 -131z" />
    <glyph glyph-name="Uacute" unicode="&#xda;" horiz-adv-x="1281" 
d="M703 2002l-154 -256h-63l131 256h86zM640 -25q-238 0 -379.5 130.5t-141.5 349.5v1035h107v-1035q0 -171 118 -283t296 -112q176 0 295 113t119 282v1035h107v-1035q0 -218 -142 -349t-379 -131z" />
    <glyph glyph-name="Ucircumflex" unicode="&#xdb;" horiz-adv-x="1281" 
d="M655 1981l-169 -221h-87l193 260h125l195 -260h-83zM640 -25q-238 0 -379.5 130.5t-141.5 349.5v1035h107v-1035q0 -171 118 -283t296 -112q176 0 295 113t119 282v1035h107v-1035q0 -218 -142 -349t-379 -131z" />
    <glyph glyph-name="Udieresis" unicode="&#xdc;" horiz-adv-x="1281" 
d="M462 1746q-38 0 -63.5 26t-25.5 65q0 37 25.5 62t63.5 25t63.5 -25t25.5 -62q0 -39 -25.5 -65t-63.5 -26zM815 1746q-40 0 -65.5 26t-25.5 65q0 36 26 61.5t65 25.5q35 0 61 -25.5t26 -61.5q0 -38 -25.5 -64.5t-61.5 -26.5zM640 -25q-238 0 -379.5 130.5t-141.5 349.5
v1035h107v-1035q0 -171 118 -283t296 -112q176 0 295 113t119 282v1035h107v-1035q0 -218 -142 -349t-379 -131z" />
    <glyph glyph-name="Yacute" unicode="&#xdd;" horiz-adv-x="1428" 
d="M833 2002l-154 -256h-63l131 256h86zM766 699v-699h-106v699l-517 791h110l460 -702l458 702h110z" />
    <glyph glyph-name="germandbls" unicode="&#xdf;" horiz-adv-x="1268" 
d="M206 1118v-1118h-116v1129q3 164 117.5 274t294.5 110h201q183 0 297.5 -109t114.5 -275q0 -99 -55 -185.5t-157 -148.5q130 -67 202.5 -169.5t72.5 -221.5q0 -192 -128.5 -298t-347.5 -106h-163l-1 87h164q162 2 261 85.5t99 231.5q0 152 -98.5 244.5t-261.5 92.5h-166
v87h153q141 0 225.5 79.5t84.5 210.5q0 132 -86 220.5t-224 88.5h-173q-138 0 -224 -88.5t-86 -220.5z" />
    <glyph glyph-name="agrave" unicode="&#xe0;" horiz-adv-x="1078" 
d="M478 1613l133 -260h-64l-155 260h86zM480 -25q-162 0 -262 85t-100 220q0 109 87 185t246 113l419 96v54q0 127 -89.5 204t-230.5 77q-136 -2 -216.5 -57t-90.5 -151h-84q13 121 116 194t270 81q176 -5 288 -99t112 -249v-728h-75v231q-39 -89 -106 -148.5t-138 -83.5
t-146 -24zM480 36q168 0 279 125t111 301v147l-395 -92q-123 -29 -204.5 -92.5t-81.5 -146.5q0 -100 85 -171t206 -71z" />
    <glyph glyph-name="aacute" unicode="&#xe1;" horiz-adv-x="1078" 
d="M648 1613l-156 -260h-64l133 260h87zM480 -25q-162 0 -262 85t-100 220q0 109 87 185t246 113l419 96v54q0 127 -89.5 204t-230.5 77q-136 -2 -216.5 -57t-90.5 -151h-84q13 121 116 194t270 81q176 -5 288 -99t112 -249v-728h-75v231q-39 -89 -106 -148.5t-138 -83.5
t-146 -24zM480 36q168 0 279 125t111 301v147l-395 -92q-123 -29 -204.5 -92.5t-81.5 -146.5q0 -100 85 -171t206 -71z" />
    <glyph glyph-name="acircumflex" unicode="&#xe2;" horiz-adv-x="1078" 
d="M539 1599l-169 -221h-87l193 260h125l195 -260h-83zM480 -25q-162 0 -262 85t-100 220q0 109 87 185t246 113l419 96v54q0 127 -89.5 204t-230.5 77q-136 -2 -216.5 -57t-90.5 -151h-84q13 121 116 194t270 81q176 -5 288 -99t112 -249v-728h-75v231q-39 -89 -106 -148.5
t-138 -83.5t-146 -24zM480 36q168 0 279 125t111 301v147l-395 -92q-123 -29 -204.5 -92.5t-81.5 -146.5q0 -100 85 -171t206 -71z" />
    <glyph glyph-name="atilde" unicode="&#xe3;" horiz-adv-x="1078" 
d="M626 1353q-60 0 -137 50q-29 17 -40.5 23.5t-36 14.5t-46.5 8q-36 0 -66.5 -20t-42.5 -65h-62q12 66 57 103.5t107 37.5q58 0 137 -49q25 -16 39.5 -23.5t38 -15t45.5 -7.5q35 0 66 21t43 65h60q-13 -68 -58.5 -105.5t-103.5 -37.5zM480 -25q-162 0 -262 85t-100 220
q0 109 87 185t246 113l419 96v54q0 127 -89.5 204t-230.5 77q-136 -2 -216.5 -57t-90.5 -151h-84q13 121 116 194t270 81q176 -5 288 -99t112 -249v-728h-75v231q-39 -89 -106 -148.5t-138 -83.5t-146 -24zM480 36q168 0 279 125t111 301v147l-395 -92
q-123 -29 -204.5 -92.5t-81.5 -146.5q0 -100 85 -171t206 -71z" />
    <glyph glyph-name="adieresis" unicode="&#xe4;" horiz-adv-x="1078" 
d="M369 1353q-39 0 -65 26.5t-26 65.5q0 38 26 63.5t65 25.5q38 0 64 -25.5t26 -63.5q0 -39 -26 -65.5t-64 -26.5zM727 1353q-40 0 -66 26.5t-26 65.5q0 37 26.5 63t65.5 26q36 0 62.5 -26t26.5 -63q0 -38 -26.5 -65t-62.5 -27zM480 -25q-162 0 -262 85t-100 220
q0 109 87 185t246 113l419 96v54q0 127 -89.5 204t-230.5 77q-136 -2 -216.5 -57t-90.5 -151h-84q13 121 116 194t270 81q176 -5 288 -99t112 -249v-728h-75v231q-39 -89 -106 -148.5t-138 -83.5t-146 -24zM480 36q168 0 279 125t111 301v147l-395 -92
q-123 -29 -204.5 -92.5t-81.5 -146.5q0 -100 85 -171t206 -71z" />
    <glyph glyph-name="aring" unicode="&#xe5;" horiz-adv-x="1078" 
d="M570 1353q-73 0 -124.5 50t-51.5 122t50.5 121t125.5 49q74 0 125 -49.5t51 -120.5q0 -72 -51 -122t-125 -50zM570 1393q56 0 95.5 38.5t39.5 93.5q0 54 -39.5 92.5t-95.5 38.5q-57 0 -96 -38.5t-39 -92.5q0 -55 39.5 -93.5t95.5 -38.5zM480 -25q-162 0 -262 85t-100 220
q0 109 87 185t246 113l419 96v54q0 127 -89.5 204t-230.5 77q-136 -2 -216.5 -57t-90.5 -151h-84q13 121 116 194t270 81q176 -5 288 -99t112 -249v-728h-75v231q-39 -89 -106 -148.5t-138 -83.5t-146 -24zM480 36q168 0 279 125t111 301v147l-395 -92
q-123 -29 -204.5 -92.5t-81.5 -146.5q0 -100 85 -171t206 -71z" />
    <glyph glyph-name="ae" unicode="&#xe6;" horiz-adv-x="2012" 
d="M452 -25q-162 0 -262 85t-100 220q0 109 87 185.5t246 112.5l419 96v54q0 125 -88.5 193.5t-231.5 68.5q-138 -2 -211 -48t-83 -140l-97 -1q13 121 117.5 194t272.5 81q129 -3 235.5 -66.5t160.5 -173.5q86 117 202 182.5t245 65.5q228 0 375.5 -157t147.5 -397v-17h-944
q17 -200 132.5 -324t288.5 -124q128 0 226 64.5t150 178.5l89 -48q-63 -136 -184 -210.5t-281 -74.5q-163 0 -262.5 66.5t-188.5 225.5q-206 -292 -461 -292zM946 589h837q-29 183 -143 294.5t-276 111.5t-275.5 -111.5t-142.5 -294.5zM452 59q170 0 280 114.5t110 288.5v31
q-1 13 -1 37t1 36v43l-395 -92q-118 -26 -189 -90t-71 -149q0 -100 72 -159.5t193 -59.5zM1887 513h15l-15 -15v15z" />
    <glyph glyph-name="ccedilla" unicode="&#xe7;" horiz-adv-x="1207" 
d="M617 -425q-120 0 -208 76l30 47q73 -57 165 -57q67 0 105.5 35.5t38.5 95.5q0 56 -38.5 108.5t-108.5 93.5q-210 19 -346.5 173t-136.5 380q0 240 148 397t375 157q136 0 248.5 -60t181.5 -166l-87 -47q-57 88 -145.5 136t-197.5 48q-186 0 -303.5 -130.5t-117.5 -334.5
q0 -205 117.5 -335.5t303.5 -130.5q110 0 198 47.5t144 134.5l86 -46q-66 -95 -161.5 -152.5t-209.5 -69.5q72 -41 105.5 -112t14.5 -144q-17 -67 -70.5 -105.5t-130.5 -38.5z" />
    <glyph glyph-name="egrave" unicode="&#xe8;" horiz-adv-x="1285" 
d="M576 1613l133 -260h-64l-155 260h86zM631 -18q-146 3 -263.5 74.5t-183.5 195t-66 275.5q0 236 145 390t368 154t368 -154t145 -390v-7h-947q14 -210 134.5 -339.5t299.5 -129.5q126 0 226 63t155 177l70 -38q-62 -130 -179.5 -200.5t-271.5 -70.5zM199 587h865
q-30 188 -149 301.5t-284 113.5t-283.5 -113.5t-148.5 -301.5z" />
    <glyph glyph-name="eacute" unicode="&#xe9;" horiz-adv-x="1285" 
d="M706 1613l-156 -260h-64l133 260h87zM631 -18q-146 3 -263.5 74.5t-183.5 195t-66 275.5q0 236 145 390t368 154t368 -154t145 -390v-7h-947q14 -210 134.5 -339.5t299.5 -129.5q126 0 226 63t155 177l70 -38q-62 -130 -179.5 -200.5t-271.5 -70.5zM199 587h865
q-30 188 -149 301.5t-284 113.5t-283.5 -113.5t-148.5 -301.5z" />
    <glyph glyph-name="ecircumflex" unicode="&#xea;" horiz-adv-x="1285" 
d="M625 1622l-169 -221h-87l193 260h125l195 -260h-83zM631 -18q-146 3 -263.5 74.5t-183.5 195t-66 275.5q0 236 145 390t368 154t368 -154t145 -390v-7h-947q14 -210 134.5 -339.5t299.5 -129.5q126 0 226 63t155 177l70 -38q-62 -130 -179.5 -200.5t-271.5 -70.5z
M199 587h865q-30 188 -149 301.5t-284 113.5t-283.5 -113.5t-148.5 -301.5z" />
    <glyph glyph-name="edieresis" unicode="&#xeb;" horiz-adv-x="1285" 
d="M462 1353q-39 0 -65 26.5t-26 65.5q0 38 26 63.5t65 25.5q38 0 64 -25.5t26 -63.5q0 -39 -26 -65.5t-64 -26.5zM820 1353q-40 0 -66 26.5t-26 65.5q0 37 26.5 63t65.5 26q36 0 62.5 -26t26.5 -63q0 -38 -26.5 -65t-62.5 -27zM631 -18q-146 3 -263.5 74.5t-183.5 195
t-66 275.5q0 236 145 390t368 154t368 -154t145 -390v-7h-947q14 -210 134.5 -339.5t299.5 -129.5q126 0 226 63t155 177l70 -38q-62 -130 -179.5 -200.5t-271.5 -70.5zM199 587h865q-30 188 -149 301.5t-284 113.5t-283.5 -113.5t-148.5 -301.5z" />
    <glyph glyph-name="igrave" unicode="&#xec;" horiz-adv-x="325" 
d="M126 1613l133 -260h-64l-155 260h86zM206 1051v-1051h-86v1051h86z" />
    <glyph glyph-name="iacute" unicode="&#xed;" horiz-adv-x="325" 
d="M256 1613l-156 -260h-64l133 260h87zM206 1051v-1051h-86v1051h86z" />
    <glyph glyph-name="icircumflex" unicode="&#xee;" horiz-adv-x="349" 
d="M171 1592l-169 -221h-87l193 260h125l195 -260h-83zM217 1051v-1051h-86v1051h86z" />
    <glyph glyph-name="idieresis" unicode="&#xef;" horiz-adv-x="350" 
d="M4 1353q-39 0 -65 26.5t-26 65.5q0 38 26 63.5t65 25.5q38 0 64 -25.5t26 -63.5q0 -39 -26 -65.5t-64 -26.5zM362 1353q-40 0 -66 26.5t-26 65.5q0 37 26.5 63t65.5 26q36 0 62.5 -26t26.5 -63q0 -38 -26.5 -65t-62.5 -27zM218 1051v-1051h-86v1051h86z" />
    <glyph glyph-name="ntilde" unicode="&#xf1;" horiz-adv-x="1063" 
d="M619 1353q-60 0 -137 50q-29 17 -40.5 23.5t-36 14.5t-46.5 8q-36 0 -66.5 -20t-42.5 -65h-62q12 66 57 103.5t107 37.5q58 0 137 -49q25 -16 39.5 -23.5t38 -15t45.5 -7.5q35 0 66 21t43 65h60q-13 -68 -58.5 -105.5t-103.5 -37.5zM204 648v-648h-86v1052h86v-142
q64 73 152 119t173 46q184 0 298.5 -105.5t114.5 -266.5v-703h-86v648q0 156 -88 249t-237 93q-148 0 -237.5 -93.5t-89.5 -248.5z" />
    <glyph glyph-name="ograve" unicode="&#xf2;" horiz-adv-x="1285" 
d="M576 1613l133 -260h-64l-155 260h86zM631 -18q-146 3 -263.5 74.5t-183.5 195t-66 275.5q0 236 145 390t368 154t368 -154t145 -390q0 -237 -145 -391t-368 -154zM631 51q188 4 309.5 138t121.5 338q0 208 -121 341.5t-310 133.5q-190 0 -310.5 -133t-120.5 -342
t120.5 -342.5t310.5 -133.5z" />
    <glyph glyph-name="oacute" unicode="&#xf3;" horiz-adv-x="1285" 
d="M706 1613l-156 -260h-64l133 260h87zM631 -18q-146 3 -263.5 74.5t-183.5 195t-66 275.5q0 236 145 390t368 154t368 -154t145 -390q0 -237 -145 -391t-368 -154zM631 51q188 4 309.5 138t121.5 338q0 208 -121 341.5t-310 133.5q-190 0 -310.5 -133t-120.5 -342
t120.5 -342.5t310.5 -133.5z" />
    <glyph glyph-name="ocircumflex" unicode="&#xf4;" horiz-adv-x="1285" 
d="M626 1585l-169 -221h-87l193 260h125l195 -260h-83zM631 -18q-146 3 -263.5 74.5t-183.5 195t-66 275.5q0 236 145 390t368 154t368 -154t145 -390q0 -237 -145 -391t-368 -154zM631 51q188 4 309.5 138t121.5 338q0 208 -121 341.5t-310 133.5q-190 0 -310.5 -133
t-120.5 -342t120.5 -342.5t310.5 -133.5z" />
    <glyph glyph-name="otilde" unicode="&#xf5;" horiz-adv-x="1285" 
d="M797 1353q-60 0 -137 50q-29 17 -40.5 23.5t-36 14.5t-46.5 8q-36 0 -66.5 -20t-42.5 -65h-62q12 66 57 103.5t107 37.5q58 0 137 -49q25 -16 39.5 -23.5t38 -15t45.5 -7.5q35 0 66 21t43 65h60q-13 -68 -58.5 -105.5t-103.5 -37.5zM631 -18q-146 3 -263.5 74.5
t-183.5 195t-66 275.5q0 236 145 390t368 154t368 -154t145 -390q0 -237 -145 -391t-368 -154zM631 51q188 4 309.5 138t121.5 338q0 208 -121 341.5t-310 133.5q-190 0 -310.5 -133t-120.5 -342t120.5 -342.5t310.5 -133.5z" />
    <glyph glyph-name="odieresis" unicode="&#xf6;" horiz-adv-x="1285" 
d="M455 1353q-39 0 -65 26.5t-26 65.5q0 38 26 63.5t65 25.5q38 0 64 -25.5t26 -63.5q0 -39 -26 -65.5t-64 -26.5zM813 1353q-40 0 -66 26.5t-26 65.5q0 37 26.5 63t65.5 26q36 0 62.5 -26t26.5 -63q0 -38 -26.5 -65t-62.5 -27zM631 -18q-146 3 -263.5 74.5t-183.5 195
t-66 275.5q0 236 145 390t368 154t368 -154t145 -390q0 -237 -145 -391t-368 -154zM631 51q188 4 309.5 138t121.5 338q0 208 -121 341.5t-310 133.5q-190 0 -310.5 -133t-120.5 -342t120.5 -342.5t310.5 -133.5z" />
    <glyph glyph-name="divide" unicode="&#xf7;" horiz-adv-x="1311" 
d="M709 1294v-171h-107v171h107zM1111 807v-96h-911v96h911zM709 395v-171h-107v171h107z" />
    <glyph glyph-name="oslash" unicode="&#xf8;" horiz-adv-x="1285" 
d="M631 -18q-144 3 -261 73l-25 -55h-114l54 120q-79 75 -123 179.5t-44 227.5q0 236 145 390t368 154q43 0 83 -6l53 118h115l-66 -145q150 -56 239 -192.5t89 -318.5q0 -237 -145 -391t-368 -154zM317 189l367 810q-25 3 -53 3q-190 0 -310.5 -133t-120.5 -342
q0 -205 117 -338zM631 51q188 4 309.5 138t121.5 338q0 160 -74 279.5t-201 167.5l-389 -856q103 -67 233 -67z" />
    <glyph glyph-name="ugrave" unicode="&#xf9;" horiz-adv-x="1063" 
d="M471 1613l133 -260h-64l-155 260h86zM531 -23q-184 0 -298.5 105.5t-114.5 266.5v703h86v-648q2 -153 90.5 -247.5t234.5 -94.5q148 0 237.5 93.5t89.5 248.5v648h86v-1052h-86v142q-64 -73 -152 -119t-173 -46z" />
    <glyph glyph-name="uacute" unicode="&#xfa;" horiz-adv-x="1063" 
d="M601 1613l-156 -260h-64l133 260h87zM531 -23q-184 0 -298.5 105.5t-114.5 266.5v703h86v-648q2 -153 90.5 -247.5t234.5 -94.5q148 0 237.5 93.5t89.5 248.5v648h86v-1052h-86v142q-64 -73 -152 -119t-173 -46z" />
    <glyph glyph-name="ucircumflex" unicode="&#xfb;" horiz-adv-x="1063" 
d="M494 1625l-169 -221h-87l193 260h125l195 -260h-83zM531 -23q-184 0 -298.5 105.5t-114.5 266.5v703h86v-648q0 -152 89.5 -247t235.5 -95q148 0 237.5 93.5t89.5 248.5v648h86v-1052h-86v142q-64 -73 -152 -119t-173 -46z" />
    <glyph glyph-name="udieresis" unicode="&#xfc;" horiz-adv-x="1063" 
d="M355 1353q-39 0 -65 26.5t-26 65.5q0 38 26 63.5t65 25.5q38 0 64 -25.5t26 -63.5q0 -39 -26 -65.5t-64 -26.5zM713 1353q-40 0 -66 26.5t-26 65.5q0 37 26.5 63t65.5 26q36 0 62.5 -26t26.5 -63q0 -38 -26.5 -65t-62.5 -27zM531 -23q-184 0 -298.5 105.5t-114.5 266.5
v703h86v-648q0 -152 89.5 -247t235.5 -95q148 0 237.5 93.5t89.5 248.5v648h86v-1052h-86v142q-64 -73 -152 -119t-173 -46z" />
    <glyph glyph-name="yacute" unicode="&#xfd;" horiz-adv-x="1252" 
d="M691 1613l-156 -260h-64l133 260h87zM1116 1051l-624 -1516h-100l175 445l-435 1071h109l384 -948l382 948h109z" />
    <glyph glyph-name="ydieresis" unicode="&#xff;" horiz-adv-x="1252" 
d="M398 1353q-39 0 -65 26.5t-26 65.5q0 38 26 63.5t65 25.5q38 0 64 -25.5t26 -63.5q0 -39 -26 -65.5t-64 -26.5zM756 1353q-40 0 -66 26.5t-26 65.5q0 37 26.5 63t65.5 26q36 0 62.5 -26t26.5 -63q0 -38 -26.5 -65t-62.5 -27zM1116 1051l-624 -1516h-100l175 445
l-435 1071h109l384 -948l382 948h109z" />
    <glyph glyph-name="Amacron" unicode="&#x100;" horiz-adv-x="1495" 
d="M941 1801v-62h-390v62h390zM394 434l-154 -434h-109l548 1490h134l548 -1490h-110l-153 434h-704zM1068 519l-321 908l-322 -908h643z" />
    <glyph glyph-name="amacron" unicode="&#x101;" horiz-adv-x="1078" 
d="M695 1416v-63h-396v63h396zM480 -25q-162 0 -262 85t-100 220q0 109 87 185t246 113l419 96v54q0 127 -89.5 204t-230.5 77q-136 -2 -216.5 -57t-90.5 -151h-84q13 121 116 194t270 81q176 -5 288 -99t112 -249v-728h-75v231q-39 -89 -106 -148.5t-138 -83.5t-146 -24z
M480 36q168 0 279 125t111 301v147l-395 -92q-123 -29 -204.5 -92.5t-81.5 -146.5q0 -100 85 -171t206 -71z" />
    <glyph glyph-name="Abreve" unicode="&#x102;" horiz-adv-x="1495" 
d="M758 1746q-97 0 -169 64.5t-83 158.5h54q11 -74 67.5 -124.5t130.5 -50.5t132.5 51t69.5 124h53q-12 -94 -84.5 -158.5t-170.5 -64.5zM394 434l-154 -434h-109l548 1490h134l548 -1490h-110l-153 434h-704zM1068 519l-321 908l-322 -908h643z" />
    <glyph glyph-name="abreve" unicode="&#x103;" horiz-adv-x="1078" 
d="M544 1353q-99 0 -172 65.5t-84 160.5h55q11 -74 68.5 -126t132.5 -52t134.5 52t71.5 126h53q-12 -96 -86 -161t-173 -65zM480 -25q-162 0 -262 85t-100 220q0 109 87 185t246 113l419 96v54q0 127 -89.5 204t-230.5 77q-136 -2 -216.5 -57t-90.5 -151h-84q13 121 116 194
t270 81q176 -5 288 -99t112 -249v-728h-75v231q-39 -89 -106 -148.5t-138 -83.5t-146 -24zM480 36q168 0 279 125t111 301v147l-395 -92q-123 -29 -204.5 -92.5t-81.5 -146.5q0 -100 85 -171t206 -71z" />
    <glyph glyph-name="Aogonek" unicode="&#x104;" horiz-adv-x="1457" 
d="M1323 -388q-75 0 -128 37.5t-70 104.5q-18 73 16 143.5t107 110.5l-150 426h-704l-154 -434h-109l548 1490h134l548 -1490h-30q-137 -86 -137 -194q0 -59 38 -94t104 -35q92 0 162 56l30 -46q-86 -75 -205 -75zM1068 519l-321 908l-322 -908h643z" />
    <glyph glyph-name="aogonek" unicode="&#x105;" horiz-adv-x="1078" 
d="M927 -401q-77 0 -130.5 38.5t-70.5 105.5q-20 79 20 155t124 113v220q-39 -89 -106 -148.5t-138 -83.5t-146 -24q-162 0 -262 85t-100 220q0 109 87 185t246 113l419 96v54q0 127 -89.5 204t-230.5 77q-136 -2 -216.5 -57t-90.5 -151h-84q13 121 116 194t270 81
q176 -5 288 -99t112 -249v-727h3q-73 -42 -112.5 -95.5t-39.5 -109.5q0 -60 38.5 -95.5t105.5 -35.5q92 0 165 57l30 -47q-88 -76 -208 -76zM480 36q168 0 279 125t111 301v147l-395 -92q-123 -29 -204.5 -92.5t-81.5 -146.5q0 -100 85 -171t206 -71z" />
    <glyph glyph-name="Cacute" unicode="&#x106;" horiz-adv-x="1581" 
d="M955 2002l-153 -256h-63l131 256h85zM844 -25q-207 0 -372.5 98.5t-259 274.5t-93.5 396t93.5 396t259 274.5t372.5 98.5q191 0 350 -86.5t255 -243.5l-86 -47q-80 142 -213 217t-306 75q-179 0 -320 -86.5t-220.5 -242.5t-79.5 -355t79.5 -355t220.5 -242.5t320 -86.5
q171 0 302.5 72.5t212.5 210.5l85 -47q-97 -151 -253.5 -236t-346.5 -85z" />
    <glyph glyph-name="cacute" unicode="&#x107;" horiz-adv-x="1207" 
d="M794 1613l-156 -260h-64l133 260h87zM641 -28q-147 3 -266.5 75t-188 198t-68.5 282q0 240 148 397t375 157q136 0 248.5 -60t181.5 -166l-87 -47q-57 88 -145.5 136t-197.5 48q-186 0 -303.5 -130.5t-117.5 -334.5q0 -205 117.5 -335.5t303.5 -130.5q110 0 198 47.5
t144 134.5l86 -46q-75 -107 -185.5 -166t-242.5 -59z" />
    <glyph glyph-name="Ccircumflex" unicode="&#x108;" horiz-adv-x="1581" 
d="M820 2013l-169 -221h-87l193 260h125l195 -260h-83zM844 -25q-207 0 -372.5 98.5t-259 274.5t-93.5 396t93.5 396t259 274.5t372.5 98.5q191 0 350 -86.5t255 -243.5l-86 -47q-80 142 -213 217t-306 75q-179 0 -320 -86.5t-220.5 -242.5t-79.5 -355t79.5 -355
t220.5 -242.5t320 -86.5q171 0 302.5 72.5t212.5 210.5l85 -47q-97 -151 -253.5 -236t-346.5 -85z" />
    <glyph glyph-name="ccircumflex" unicode="&#x109;" horiz-adv-x="1207" 
d="M628 1577l-169 -221h-87l193 260h125l195 -260h-83zM641 -28q-147 3 -266.5 75t-188 198t-68.5 282q0 240 148 397t375 157q136 0 248.5 -60t181.5 -166l-87 -47q-57 88 -145.5 136t-197.5 48q-186 0 -303.5 -130.5t-117.5 -334.5q0 -205 117.5 -335.5t303.5 -130.5
q110 0 198 47.5t144 134.5l86 -46q-75 -107 -185.5 -166t-242.5 -59z" />
    <glyph glyph-name="Cdotaccent" unicode="&#x10a;" horiz-adv-x="1581" 
d="M844 1746q-38 0 -63.5 26.5t-25.5 64.5q0 37 25.5 62.5t63.5 25.5q37 0 63 -25.5t26 -62.5q0 -38 -26 -64.5t-63 -26.5zM844 -25q-207 0 -372.5 98.5t-259 274.5t-93.5 396t93.5 396t259 274.5t372.5 98.5q191 0 350 -86.5t255 -243.5l-86 -47q-80 142 -213 217t-306 75
q-179 0 -320 -86.5t-220.5 -242.5t-79.5 -355t79.5 -355t220.5 -242.5t320 -86.5q171 0 302.5 72.5t212.5 210.5l85 -47q-97 -151 -253.5 -236t-346.5 -85z" />
    <glyph glyph-name="cdotaccent" unicode="&#x10b;" horiz-adv-x="1207" 
d="M635 1353q-39 0 -65 26.5t-26 65.5q0 38 26 63.5t65 25.5q38 0 64 -25.5t26 -63.5q0 -39 -26 -65.5t-64 -26.5zM641 -28q-147 3 -266.5 75t-188 198t-68.5 282q0 240 148 397t375 157q136 0 248.5 -60t181.5 -166l-87 -47q-57 88 -145.5 136t-197.5 48
q-186 0 -303.5 -130.5t-117.5 -334.5q0 -205 117.5 -335.5t303.5 -130.5q110 0 198 47.5t144 134.5l86 -46q-75 -107 -185.5 -166t-242.5 -59z" />
    <glyph glyph-name="Ccaron" unicode="&#x10c;" horiz-adv-x="1581" 
d="M1094 2020l-195 -260h-125l-193 260h87l169 -221l174 221h83zM844 -25q-207 0 -372.5 98.5t-259 274.5t-93.5 396t93.5 396t259 274.5t372.5 98.5q191 0 350 -86.5t255 -243.5l-86 -47q-80 142 -213 217t-306 75q-179 0 -320 -86.5t-220.5 -242.5t-79.5 -355t79.5 -355
t220.5 -242.5t320 -86.5q171 0 302.5 72.5t212.5 210.5l85 -47q-97 -151 -253.5 -236t-346.5 -85z" />
    <glyph glyph-name="ccaron" unicode="&#x10d;" horiz-adv-x="1207" 
d="M867 1646l-195 -260h-125l-193 260h87l169 -221l174 221h83zM641 -28q-147 3 -266.5 75t-188 198t-68.5 282q0 240 148 397t375 157q136 0 248.5 -60t181.5 -166l-87 -47q-57 88 -145.5 136t-197.5 48q-186 0 -303.5 -130.5t-117.5 -334.5q0 -205 117.5 -335.5
t303.5 -130.5q110 0 198 47.5t144 134.5l86 -46q-75 -107 -185.5 -166t-242.5 -59z" />
    <glyph glyph-name="Dcaron" unicode="&#x10e;" horiz-adv-x="1403" 
d="M816 2002l-195 -260h-125l-193 260h87l169 -221l174 221h83zM579 -2h-460v1492h460q194 -8 354.5 -105t255 -265.5t94.5 -375.5t-94.5 -375.5t-255 -265.5t-354.5 -105zM219 1409v-1329l361 -1q130 0 241.5 49.5t191 136t124.5 210.5t45 269q0 293 -169.5 479t-433.5 186
h-360z" />
    <glyph glyph-name="dcaron" unicode="&#x10f;" horiz-adv-x="1270" 
d="M884 1623l-195 -260h-125l-193 260h87l169 -221l174 221h83zM631 -18q-223 0 -368 154t-145 391q0 236 145 390t368 154q138 0 250.5 -63t180.5 -174v679h86v-1513h-86v224q-68 -110 -180.5 -174.5t-250.5 -67.5zM631 51q190 0 310.5 133.5t120.5 342.5t-120.5 342
t-310.5 133q-189 0 -310 -133.5t-121 -341.5q0 -204 121.5 -338t309.5 -138z" />
    <glyph glyph-name="Emacron" unicode="&#x112;" horiz-adv-x="1175" 
d="M737 1808v-62h-389v62h389zM1055 85v-85h-936v1490h936v-85h-831v-591h728v-84h-728v-645h831z" />
    <glyph glyph-name="emacron" unicode="&#x113;" horiz-adv-x="1285" 
d="M837 1421v-63h-396v63h396zM631 -18q-146 3 -263.5 74.5t-183.5 195t-66 275.5q0 236 145 390t368 154t368 -154t145 -390v-7h-947q14 -210 134.5 -339.5t299.5 -129.5q126 0 226 63t155 177l70 -38q-62 -130 -179.5 -200.5t-271.5 -70.5zM199 587h865
q-30 188 -149 301.5t-284 113.5t-283.5 -113.5t-148.5 -301.5z" />
    <glyph glyph-name="Ebreve" unicode="&#x114;" horiz-adv-x="1175" 
d="M577 1746q-97 0 -169 64t-83 159h54q11 -74 68 -125t130 -51q74 0 132.5 51.5t70.5 124.5h52q-11 -95 -84 -159t-171 -64zM1055 85v-85h-936v1490h936v-85h-831v-591h728v-84h-728v-645h831z" />
    <glyph glyph-name="ebreve" unicode="&#x115;" horiz-adv-x="1285" 
d="M621 1353q-99 0 -172 65.5t-84 160.5h55q11 -74 68.5 -126t132.5 -52t134.5 52t71.5 126h53q-12 -96 -86 -161t-173 -65zM631 -18q-146 3 -263.5 74.5t-183.5 195t-66 275.5q0 236 145 390t368 154t368 -154t145 -390v-7h-947q14 -210 134.5 -339.5t299.5 -129.5
q126 0 226 63t155 177l70 -38q-62 -130 -179.5 -200.5t-271.5 -70.5zM199 587h865q-30 188 -149 301.5t-284 113.5t-283.5 -113.5t-148.5 -301.5z" />
    <glyph glyph-name="Edotaccent" unicode="&#x116;" horiz-adv-x="1175" 
d="M593 1746q-39 0 -64.5 26t-25.5 65q0 37 25.5 62t64.5 25q37 0 62.5 -25t25.5 -62q0 -39 -25 -65t-63 -26zM1055 85v-85h-936v1490h936v-85h-831v-591h728v-84h-728v-645h831z" />
    <glyph glyph-name="edotaccent" unicode="&#x117;" horiz-adv-x="1285" 
d="M601 1353q-39 0 -65 26.5t-26 65.5q0 38 26 63.5t65 25.5q38 0 64 -25.5t26 -63.5q0 -39 -26 -65.5t-64 -26.5zM631 -18q-146 3 -263.5 74.5t-183.5 195t-66 275.5q0 236 145 390t368 154t368 -154t145 -390v-7h-947q14 -210 134.5 -339.5t299.5 -129.5q126 0 226 63
t155 177l70 -38q-62 -130 -179.5 -200.5t-271.5 -70.5zM199 587h865q-30 188 -149 301.5t-284 113.5t-283.5 -113.5t-148.5 -301.5z" />
    <glyph glyph-name="Eogonek" unicode="&#x118;" horiz-adv-x="1175" 
d="M670 -385q-75 0 -128 37.5t-70 104.5q-17 68 11.5 135t93.5 108h-458v1490h936v-85h-831v-591h728v-84h-728v-645h831v-85h-382q-132 -84 -132 -191q0 -59 38 -94t104 -35q92 0 162 56l30 -46q-86 -75 -205 -75z" />
    <glyph glyph-name="eogonek" unicode="&#x119;" horiz-adv-x="1285" 
d="M651 -415q-77 0 -130.5 38.5t-70.5 105.5q-19 73 15 144.5t107 112.5q-199 25 -326.5 175.5t-127.5 365.5q0 236 145 390t368 154t368 -154t145 -390v-7h-947q14 -210 134.5 -339.5t299.5 -129.5q126 0 226 63t155 177l70 -38q-59 -122 -167 -192.5t-250 -77.5
q-70 -42 -107.5 -94t-37.5 -107q0 -60 38.5 -95.5t105.5 -35.5q92 0 165 57l30 -47q-88 -76 -208 -76zM199 587h865q-30 188 -149 301.5t-284 113.5t-283.5 -113.5t-148.5 -301.5z" />
    <glyph glyph-name="Ecaron" unicode="&#x11a;" horiz-adv-x="1175" 
d="M838 2020l-195 -260h-125l-193 260h87l169 -221l174 221h83zM1055 85v-85h-936v1490h936v-85h-831v-591h728v-84h-728v-645h831z" />
    <glyph glyph-name="ecaron" unicode="&#x11b;" horiz-adv-x="1285" 
d="M886 1626l-195 -260h-125l-193 260h87l169 -221l174 221h83zM631 -18q-146 3 -263.5 74.5t-183.5 195t-66 275.5q0 236 145 390t368 154t368 -154t145 -390v-7h-947q14 -210 134.5 -339.5t299.5 -129.5q126 0 226 63t155 177l70 -38q-62 -130 -179.5 -200.5t-271.5 -70.5
zM199 587h865q-30 188 -149 301.5t-284 113.5t-283.5 -113.5t-148.5 -301.5z" />
    <glyph glyph-name="Gcircumflex" unicode="&#x11c;" horiz-adv-x="1581" 
d="M834 1987l-169 -221h-87l193 260h125l195 -260h-83zM844 -25q-207 0 -372.5 98.5t-259 274.5t-93.5 396t93.5 396t259 274.5t372.5 98.5q191 0 350 -86.5t255 -243.5l-86 -47q-80 142 -213 217t-306 75q-179 0 -320 -86.5t-220.5 -242.5t-79.5 -355q0 -197 79 -353
t221 -243.5t320 -87.5q170 0 307 81.5t221 225.5l-1 289h-535v84h622v-740h-85v196q-248 -221 -529 -221z" />
    <glyph glyph-name="gcircumflex" unicode="&#x11d;" horiz-adv-x="1256" 
d="M637 1624l-169 -221h-87l193 260h125l195 -260h-83zM637 -465q-145 0 -262 66t-177 170l81 44q47 -84 137 -138.5t216 -54.5q175 0 295.5 105.5t120.5 284.5v262q-66 -99 -174.5 -156.5t-241.5 -58.5q-222 0 -360.5 141.5t-138.5 367.5q0 227 140.5 367t355.5 140
q134 0 243 -56t176 -156v188h86v-1039q0 -204 -140.5 -340.5t-356.5 -136.5zM630 144q183 3 300.5 123.5t117.5 300.5q0 183 -118.5 302.5t-301.5 119.5q-179 0 -296 -116.5t-117 -305.5q0 -188 115.5 -306t299.5 -118z" />
    <glyph glyph-name="Gbreve" unicode="&#x11e;" horiz-adv-x="1581" 
d="M823 1746q-97 0 -169 64t-83 159h54q11 -74 68 -125t130 -51q74 0 132.5 51.5t70.5 124.5h52q-11 -95 -84 -159t-171 -64zM844 -25q-207 0 -372.5 98.5t-259 274.5t-93.5 396t93.5 396t259 274.5t372.5 98.5q191 0 350 -86.5t255 -243.5l-86 -47q-80 142 -213 217
t-306 75q-179 0 -320 -86.5t-220.5 -242.5t-79.5 -355q0 -197 79 -353t221 -243.5t320 -87.5q170 0 307 81.5t221 225.5l-1 289h-535v84h622v-740h-85v196q-248 -221 -529 -221z" />
    <glyph glyph-name="gbreve" unicode="&#x11f;" horiz-adv-x="1256" 
d="M620 1353q-99 0 -172 65.5t-84 160.5h55q11 -74 68.5 -126t132.5 -52t134.5 52t71.5 126h53q-12 -96 -86 -161t-173 -65zM633 -465q-145 0 -262 66t-177 170l81 44q47 -84 137 -138.5t216 -54.5q175 0 295.5 105.5t120.5 284.5v262q-66 -99 -174.5 -156.5t-241.5 -58.5
q-222 0 -360.5 141.5t-138.5 367.5q0 227 140.5 367t355.5 140q134 0 243 -56t176 -156v188h86v-1039q0 -204 -140.5 -340.5t-356.5 -136.5zM626 144q183 3 300.5 123.5t117.5 300.5q0 183 -118.5 302.5t-301.5 119.5q-179 0 -296 -116.5t-117 -305.5q0 -188 115.5 -306
t299.5 -118z" />
    <glyph glyph-name="Gdotaccent" unicode="&#x120;" horiz-adv-x="1581" 
d="M830 1746q-39 0 -64.5 26t-25.5 65q0 37 25.5 62t64.5 25q37 0 62.5 -25t25.5 -62q0 -39 -25 -65t-63 -26zM844 -25q-207 0 -372.5 98.5t-259 274.5t-93.5 396t93.5 396t259 274.5t372.5 98.5q191 0 350 -86.5t255 -243.5l-86 -47q-80 142 -213 217t-306 75
q-179 0 -320 -86.5t-220.5 -242.5t-79.5 -355q0 -197 79 -353t221 -243.5t320 -87.5q170 0 307 81.5t221 225.5l-1 289h-535v84h622v-740h-85v196q-248 -221 -529 -221z" />
    <glyph glyph-name="gdotaccent" unicode="&#x121;" horiz-adv-x="1256" 
d="M638 1353q-39 0 -65 26.5t-26 65.5q0 38 26 63.5t65 25.5q38 0 64 -25.5t26 -63.5q0 -39 -26 -65.5t-64 -26.5zM637 -465q-145 0 -262 66t-177 170l81 44q47 -84 137 -138.5t216 -54.5q175 0 295.5 105.5t120.5 284.5v262q-66 -99 -174.5 -156.5t-241.5 -58.5
q-222 0 -360.5 141.5t-138.5 367.5q0 227 140.5 367t355.5 140q134 0 243 -56t176 -156v188h86v-1039q0 -204 -140.5 -340.5t-356.5 -136.5zM630 144q183 3 300.5 123.5t117.5 300.5q0 183 -118.5 302.5t-301.5 119.5q-179 0 -296 -116.5t-117 -305.5q0 -188 115.5 -306
t299.5 -118z" />
    <glyph glyph-name="Itilde" unicode="&#x128;" horiz-adv-x="363" 
d="M286 1746q-26 0 -53 8.5t-41.5 16.5t-40.5 24q-27 16 -39.5 23t-36 15t-45.5 8q-35 0 -65 -20t-42 -64h-61q11 64 55.5 101.5t105.5 37.5q58 0 135 -49q28 -16 40 -23t35.5 -14.5t45.5 -7.5q35 0 65.5 20.5t42.5 64.5h59q-13 -67 -58 -104t-102 -37zM233 1490v-1490h-105
v1490h105z" />
    <glyph glyph-name="itilde" unicode="&#x129;" horiz-adv-x="353" 
d="M283 1353q-60 0 -137 50q-29 17 -40.5 23.5t-36 14.5t-46.5 8q-36 0 -66.5 -20t-42.5 -65h-62q12 66 57 103.5t107 37.5q58 0 137 -49q25 -16 39.5 -23.5t38 -15t45.5 -7.5q35 0 66 21t43 65h60q-13 -68 -58.5 -105.5t-103.5 -37.5zM219 1051v-1051h-86v1051h86z" />
    <glyph glyph-name="Imacron" unicode="&#x12a;" horiz-adv-x="356" 
d="M377 1808v-62h-391v62h391zM229 1490v-1490h-105v1490h105z" />
    <glyph glyph-name="imacron" unicode="&#x12b;" horiz-adv-x="325" 
d="M347 1416v-63h-396v63h396zM206 1051v-1051h-86v1051h86z" />
    <glyph glyph-name="Iogonek" unicode="&#x12e;" horiz-adv-x="356" 
d="M207 -393q-75 0 -128 37.5t-70 104.5q-18 72 15 142t105 110v1489h105v-1490h-11q-145 -87 -145 -199q0 -59 38 -94t104 -35q92 0 162 56l30 -46q-86 -75 -205 -75z" />
    <glyph glyph-name="iogonek" unicode="&#x12f;" horiz-adv-x="342" 
d="M212 1513v-168h-86v168h86zM190 -401q-77 0 -130.5 38.5t-70.5 105.5q-20 77 18.5 151.5t118.5 113.5v1043h86v-1051h-3q-150 -88 -150 -204q0 -60 38.5 -95.5t105.5 -35.5q92 0 165 57l30 -47q-88 -76 -208 -76z" />
    <glyph glyph-name="Idotaccent" unicode="&#x130;" horiz-adv-x="348" 
d="M157 1746q-38 0 -64 26t-26 65q0 37 26 62t64 25t63.5 -25t25.5 -62q0 -39 -25.5 -65t-63.5 -26zM225 1490v-1490h-105v1490h105z" />
    <glyph glyph-name="dotlessi" unicode="&#x131;" horiz-adv-x="325" 
d="M206 1051v-1051h-86v1051h86z" />
    <glyph glyph-name="Omacron" unicode="&#x14c;" horiz-adv-x="1689" 
d="M1041 1808v-62h-390v62h390zM844 -25q-207 0 -372.5 98.5t-259 274.5t-93.5 396t93.5 396t259 274.5t372.5 98.5t372.5 -98.5t259 -274.5t93.5 -396t-93.5 -396t-259 -274.5t-372.5 -98.5zM844 60q179 0 320 86.5t220.5 242.5t79.5 355t-79.5 355t-220.5 242.5t-320 86.5
t-320 -86.5t-220.5 -242.5t-79.5 -355t79.5 -355t220.5 -242.5t320 -86.5z" />
    <glyph glyph-name="omacron" unicode="&#x14d;" horiz-adv-x="1285" 
d="M838 1416v-63h-396v63h396zM631 -18q-146 3 -263.5 74.5t-183.5 195t-66 275.5q0 236 145 390t368 154t368 -154t145 -390q0 -237 -145 -391t-368 -154zM631 51q188 4 309.5 138t121.5 338q0 208 -121 341.5t-310 133.5q-190 0 -310.5 -133t-120.5 -342t120.5 -342.5
t310.5 -133.5z" />
    <glyph glyph-name="Obreve" unicode="&#x14e;" horiz-adv-x="1689" 
d="M837 1746q-97 0 -169 64.5t-83 158.5h55q11 -74 67.5 -125t129.5 -51q74 0 133 51.5t70 124.5h53q-12 -95 -85 -159t-171 -64zM844 -25q-207 0 -372.5 98.5t-259 274.5t-93.5 396t93.5 396t259 274.5t372.5 98.5t372.5 -98.5t259 -274.5t93.5 -396t-93.5 -396
t-259 -274.5t-372.5 -98.5zM844 60q179 0 320 86.5t220.5 242.5t79.5 355t-79.5 355t-220.5 242.5t-320 86.5t-320 -86.5t-220.5 -242.5t-79.5 -355t79.5 -355t220.5 -242.5t320 -86.5z" />
    <glyph glyph-name="obreve" unicode="&#x14f;" horiz-adv-x="1285" 
d="M590 1353q-99 0 -172 65.5t-84 160.5h55q11 -74 68.5 -126t132.5 -52t134.5 52t71.5 126h53q-12 -96 -86 -161t-173 -65zM631 -18q-146 3 -263.5 74.5t-183.5 195t-66 275.5q0 236 145 390t368 154t368 -154t145 -390q0 -237 -145 -391t-368 -154zM631 51
q188 4 309.5 138t121.5 338q0 208 -121 341.5t-310 133.5q-190 0 -310.5 -133t-120.5 -342t120.5 -342.5t310.5 -133.5z" />
    <glyph glyph-name="Ohungarumlaut" unicode="&#x150;" horiz-adv-x="1689" 
d="M892 2004l-153 -258h-63l131 258h85zM1194 2004l-155 -258h-64l133 258h86zM844 -25q-207 0 -372.5 98.5t-259 274.5t-93.5 396t93.5 396t259 274.5t372.5 98.5t372.5 -98.5t259 -274.5t93.5 -396t-93.5 -396t-259 -274.5t-372.5 -98.5zM844 60q179 0 320 86.5
t220.5 242.5t79.5 355t-79.5 355t-220.5 242.5t-320 86.5t-320 -86.5t-220.5 -242.5t-79.5 -355t79.5 -355t220.5 -242.5t320 -86.5z" />
    <glyph glyph-name="ohungarumlaut" unicode="&#x151;" horiz-adv-x="1285" 
d="M671 1613l-156 -262h-64l133 262h87zM977 1613l-157 -262h-65l135 262h87zM631 -18q-146 3 -263.5 74.5t-183.5 195t-66 275.5q0 236 145 390t368 154t368 -154t145 -390q0 -237 -145 -391t-368 -154zM631 51q188 4 309.5 138t121.5 338q0 208 -121 341.5t-310 133.5
q-190 0 -310.5 -133t-120.5 -342t120.5 -342.5t310.5 -133.5z" />
    <glyph glyph-name="OE" unicode="&#x152;" horiz-adv-x="2466" 
d="M815 -25q-207 0 -372.5 98.5t-259 274.5t-93.5 396t93.5 396t259 274.5t372.5 98.5q174 0 334.5 -89.5t285.5 -250.5v317h935v-85h-830v-591h727v-84h-727v-645h830v-85h-935v315q-125 -161 -285.5 -250.5t-334.5 -89.5zM815 60q179 0 320 86.5t220.5 242.5t79.5 355
t-79.5 355t-220.5 242.5t-320 86.5t-320 -86.5t-220.5 -242.5t-79.5 -355t79.5 -355t220.5 -242.5t320 -86.5z" />
    <glyph glyph-name="oe" unicode="&#x153;" horiz-adv-x="2208" 
d="M613 -28q-147 3 -266.5 75t-188 198t-68.5 282q0 240 148 397t375 157q145 0 268 -78.5t203 -217.5q81 139 204.5 217.5t268.5 78.5q227 0 375 -157t148 -397l-1 -17h-944q17 -200 133 -324.5t289 -124.5q127 0 225.5 64.5t150.5 179.5l88 -48q-62 -136 -182.5 -210.5
t-281.5 -74.5q-145 0 -268.5 78.5t-204.5 217.5q-80 -139 -203 -217.5t-268 -78.5zM613 61q99 2 180.5 43t132.5 107t79 147.5t28 169.5q0 89 -26.5 170.5t-77.5 148t-132.5 106t-183.5 39.5q-186 0 -303.5 -130.5t-117.5 -334.5q0 -205 117.5 -335.5t303.5 -130.5z
M1138 586h837q-29 183 -142.5 294.5t-275.5 111.5t-276 -111.5t-143 -294.5zM2079 510h15l-15 -15v15z" />
    <glyph glyph-name="Rcaron" unicode="&#x158;" horiz-adv-x="1283" 
d="M818 1970l-195 -260h-125l-193 260h87l169 -221l174 221h83zM224 604v-604h-105v1490h502q223 0 360.5 -122.5t137.5 -321.5q0 -149 -89 -261t-246 -163l357 -622h-125l-344 604h-448zM621 1405h-397v-717h397q173 0 279 99t106 261q0 161 -106 259t-279 98z" />
    <glyph glyph-name="rcaron" unicode="&#x159;" horiz-adv-x="708" 
d="M574 1647l-220 -294h-75l-218 294h67l188 -256l192 256h66zM206 648v-648h-86v1052h86v-142q64 73 152 119t173 46q28 0 55 -3v-86q-23 4 -53 4q-148 0 -237.5 -93.5t-89.5 -248.5z" />
    <glyph glyph-name="Sacute" unicode="&#x15a;" horiz-adv-x="1292" 
d="M707 2002l-153 -256h-63l131 256h85zM691 -25q-200 0 -352 104.5t-213 264.5l94 40q117 -324 471 -324q167 0 270.5 81t103.5 212q0 118 -65 189t-207 113l-283 83q-168 48 -257 150.5t-89 236.5q0 171 130 280.5t333 109.5q190 0 328.5 -90.5t192.5 -233.5l-94 -44
q-59 134 -169.5 208.5t-255.5 74.5q-162 0 -261 -80t-99 -213q0 -108 71.5 -188.5t204.5 -119.5l269 -79q357 -112 357 -383q0 -173 -133.5 -282.5t-346.5 -109.5z" />
    <glyph glyph-name="sacute" unicode="&#x15b;" horiz-adv-x="1027" 
d="M584 1613l-156 -260h-64l133 260h87zM543 -20q-138 0 -247 66t-163 182l70 35q48 -99 136.5 -153t203.5 -54q119 0 195 59.5t76 152.5q0 72 -51 120.5t-158 78.5l-177 51q-123 38 -188 108t-65 164q0 127 92 204t244 77q127 0 227 -60.5t149 -165.5l-69 -32
q-44 85 -125.5 134t-181.5 50q-110 -2 -179.5 -56.5t-69.5 -140.5q0 -144 195 -203l185 -57q125 -41 191.5 -113t66.5 -164q0 -125 -99.5 -204t-257.5 -79z" />
    <glyph glyph-name="Scircumflex" unicode="&#x15c;" horiz-adv-x="1292" 
d="M659 1998l-186 -252h-66l215 289h74l217 -289h-65zM691 -25q-200 0 -352 104.5t-213 264.5l94 40q117 -324 471 -324q167 0 270.5 81t103.5 212q0 118 -65 189t-207 113l-283 83q-168 49 -257 151.5t-89 235.5q0 171 130 280.5t333 109.5q190 0 328.5 -90.5t192.5 -233.5
l-94 -44q-59 134 -169.5 208.5t-255.5 74.5q-162 0 -261 -80t-99 -213q0 -108 71.5 -188.5t204.5 -119.5l269 -79q173 -51 265 -148t92 -235q0 -173 -133.5 -282.5t-346.5 -109.5z" />
    <glyph glyph-name="scircumflex" unicode="&#x15d;" horiz-adv-x="1027" 
d="M541 1597l-169 -221h-87l193 260h125l195 -260h-83zM543 -20q-138 0 -247 66t-163 182l70 35q48 -99 136.5 -153t203.5 -54q119 0 195 59.5t76 152.5q0 72 -51 120.5t-158 78.5l-177 51q-123 38 -188 108t-65 164q0 127 92 204t244 77q127 0 227 -60.5t149 -165.5
l-69 -32q-44 85 -125.5 134t-181.5 50q-110 -2 -179.5 -56.5t-69.5 -140.5q0 -144 195 -203l185 -57q125 -41 191.5 -113t66.5 -164q0 -125 -99.5 -204t-257.5 -79z" />
    <glyph glyph-name="Scedilla" unicode="&#x15e;" horiz-adv-x="1292" 
d="M651 -418q-120 0 -208 76l30 47q73 -57 165 -57q67 0 105.5 35.5t38.5 95.5q0 112 -140 198q-184 13 -321.5 115t-194.5 252l94 40q117 -324 471 -324q167 0 270.5 81t103.5 212q0 118 -65 189t-207 113l-283 83q-168 49 -257 151.5t-89 235.5q0 171 130 280.5t333 109.5
q190 0 328.5 -90.5t192.5 -233.5l-94 -44q-59 134 -169.5 208.5t-255.5 74.5q-162 0 -261 -80t-99 -213q0 -108 71.5 -188.5t204.5 -119.5l269 -79q173 -51 265 -148t92 -235q0 -163 -118.5 -270t-311.5 -120q68 -42 98.5 -111.5t12.5 -139.5q-17 -67 -70.5 -105.5
t-130.5 -38.5z" />
    <glyph glyph-name="scedilla" unicode="&#x15f;" horiz-adv-x="1027" 
d="M517 -416q-120 0 -208 76l30 47q73 -57 165 -57q67 0 105.5 35.5t38.5 95.5q0 55 -37.5 107t-106.5 93q-125 10 -223 75t-148 172l70 35q48 -99 136.5 -153t203.5 -54q119 0 195 59.5t76 152.5q0 72 -51 120t-158 79l-177 51q-123 36 -188 106.5t-65 165.5q0 127 92 204
t244 77q127 0 227 -60.5t149 -165.5l-69 -32q-44 85 -125.5 134t-181.5 50q-110 -2 -179.5 -56.5t-69.5 -140.5q0 -143 195 -203l185 -57q125 -39 191.5 -111.5t66.5 -165.5q0 -113 -82 -189.5t-218 -90.5q71 -41 104 -111.5t14 -143.5q-17 -67 -70.5 -105.5t-130.5 -38.5z
" />
    <glyph glyph-name="Scaron" unicode="&#x160;" horiz-adv-x="1292" 
d="M890 1992l-195 -260h-125l-193 260h87l169 -221l174 221h83zM691 -25q-200 0 -352 104.5t-213 264.5l94 40q117 -324 471 -324q167 0 270.5 81t103.5 212q0 118 -65 189t-207 113l-283 83q-168 48 -257 150.5t-89 236.5q0 171 130 280.5t333 109.5q190 0 328.5 -90.5
t192.5 -233.5l-94 -44q-59 134 -169.5 208.5t-255.5 74.5q-162 0 -261 -80t-99 -213q0 -108 71.5 -188.5t204.5 -119.5l269 -79q357 -112 357 -383q0 -173 -133.5 -282.5t-346.5 -109.5z" />
    <glyph glyph-name="scaron" unicode="&#x161;" horiz-adv-x="1027" 
d="M748 1598l-195 -260h-125l-193 260h87l169 -221l174 221h83zM543 -20q-138 0 -247 66t-163 182l70 35q48 -99 136.5 -153t203.5 -54q119 0 195 59.5t76 152.5q0 72 -51 120.5t-158 78.5l-177 51q-123 38 -188 108t-65 164q0 127 92 204t244 77q127 0 227 -60.5
t149 -165.5l-69 -32q-44 85 -125.5 134t-181.5 50q-110 -2 -179.5 -56.5t-69.5 -140.5q0 -144 195 -203l185 -57q125 -41 191.5 -113t66.5 -164q0 -125 -99.5 -204t-257.5 -79z" />
    <glyph glyph-name="Utilde" unicode="&#x168;" horiz-adv-x="1281" 
d="M720 1746q-26 0 -53 8.5t-41.5 16.5t-40.5 24q-28 17 -39.5 23.5t-35.5 14.5t-46 8q-35 0 -65 -20t-42 -64h-61q12 64 56.5 101.5t104.5 37.5q58 0 135 -49q28 -16 40 -23t35.5 -14.5t45.5 -7.5q35 0 65.5 20.5t42.5 64.5h59q-13 -67 -58 -104t-102 -37zM640 -25
q-238 0 -379.5 130.5t-141.5 349.5v1035h107v-1035q0 -171 118 -283t296 -112q176 0 295 113t119 282v1035h107v-1035q0 -218 -142 -349t-379 -131z" />
    <glyph glyph-name="utilde" unicode="&#x169;" horiz-adv-x="1063" 
d="M619 1353q-60 0 -137 50q-29 17 -40.5 23.5t-36 14.5t-46.5 8q-36 0 -66.5 -20t-42.5 -65h-62q12 66 57 103.5t107 37.5q58 0 137 -49q25 -16 39.5 -23.5t38 -15t45.5 -7.5q35 0 66 21t43 65h60q-13 -68 -58.5 -105.5t-103.5 -37.5zM531 -23q-184 0 -298.5 105.5
t-114.5 266.5v703h86v-648q2 -153 90.5 -247.5t234.5 -94.5q148 0 237.5 93.5t89.5 248.5v648h86v-1052h-86v142q-64 -73 -152 -119t-173 -46z" />
    <glyph glyph-name="Umacron" unicode="&#x16a;" horiz-adv-x="1281" 
d="M788 1808v-62h-390v62h390zM640 -25q-238 0 -379.5 130.5t-141.5 349.5v1035h107v-1035q0 -171 118 -283t296 -112q176 0 295 113t119 282v1035h107v-1035q0 -218 -142 -349t-379 -131z" />
    <glyph glyph-name="umacron" unicode="&#x16b;" horiz-adv-x="1063" 
d="M688 1416v-63h-396v63h396zM531 -23q-184 0 -298.5 105.5t-114.5 266.5v703h86v-648q2 -153 90.5 -247.5t234.5 -94.5q148 0 237.5 93.5t89.5 248.5v648h86v-1052h-86v142q-64 -73 -152 -119t-173 -46z" />
    <glyph glyph-name="Ubreve" unicode="&#x16c;" horiz-adv-x="1281" 
d="M650 1746q-97 0 -169 64.5t-83 158.5h55q11 -74 67.5 -125t129.5 -51q74 0 133 51.5t70 124.5h53q-12 -95 -85 -159t-171 -64zM640 -25q-238 0 -379.5 130.5t-141.5 349.5v1035h107v-1035q0 -171 118 -283t296 -112q176 0 295 113t119 282v1035h107v-1035
q0 -218 -142 -349t-379 -131z" />
    <glyph glyph-name="ubreve" unicode="&#x16d;" horiz-adv-x="1063" 
d="M529 1346q-99 0 -172 65.5t-84 160.5h55q11 -74 68.5 -126t132.5 -52t134.5 52t71.5 126h53q-12 -96 -86 -161t-173 -65zM531 -23q-184 0 -298.5 105.5t-114.5 266.5v703h86v-648q0 -152 89.5 -247t235.5 -95q148 0 237.5 93.5t89.5 248.5v648h86v-1052h-86v142
q-64 -73 -152 -119t-173 -46z" />
    <glyph glyph-name="Uring" unicode="&#x16e;" horiz-adv-x="1281" 
d="M594 1746q-72 0 -122.5 49.5t-50.5 119.5q0 71 49.5 119.5t123.5 48.5q73 0 123 -48.5t50 -119.5q0 -70 -50.5 -119.5t-122.5 -49.5zM594 1785q55 0 94 38t39 92q0 53 -39 91t-94 38q-57 0 -95 -37.5t-38 -91.5t39 -92t94 -38zM640 -25q-238 0 -379.5 130.5t-141.5 349.5
v1035h107v-1035q0 -171 118 -283t296 -112q176 0 295 113t119 282v1035h107v-1035q0 -218 -142 -349t-379 -131z" />
    <glyph glyph-name="uring" unicode="&#x16f;" horiz-adv-x="1063" 
d="M491 1353q-73 0 -124.5 50t-51.5 122t50.5 121t125.5 49q74 0 125 -49.5t51 -120.5q0 -72 -51 -122t-125 -50zM491 1393q56 0 95.5 38.5t39.5 93.5q0 54 -39.5 92.5t-95.5 38.5q-57 0 -96 -38.5t-39 -92.5q0 -55 39.5 -93.5t95.5 -38.5zM531 -23q-184 0 -298.5 105.5
t-114.5 266.5v703h86v-648q2 -153 90.5 -247.5t234.5 -94.5q148 0 237.5 93.5t89.5 248.5v648h86v-1052h-86v142q-64 -73 -152 -119t-173 -46z" />
    <glyph glyph-name="Uhungarumlaut" unicode="&#x170;" horiz-adv-x="1281" 
d="M609 2004l-153 -258h-63l131 258h85zM911 2004l-155 -258h-64l133 258h86zM640 -25q-238 0 -379.5 130.5t-141.5 349.5v1035h107v-1035q0 -171 118 -283t296 -112q176 0 295 113t119 282v1035h107v-1035q0 -218 -142 -349t-379 -131z" />
    <glyph glyph-name="uhungarumlaut" unicode="&#x171;" horiz-adv-x="1063" 
d="M502 1615l-156 -262h-64l133 262h87zM808 1615l-157 -262h-65l135 262h87zM531 -23q-184 0 -298.5 105.5t-114.5 266.5v703h86v-648q0 -152 89.5 -247t235.5 -95q148 0 237.5 93.5t89.5 248.5v648h86v-1052h-86v142q-64 -73 -152 -119t-173 -46z" />
    <glyph glyph-name="Uogonek" unicode="&#x172;" horiz-adv-x="1281" 
d="M662 -425q-77 0 -130.5 38.5t-70.5 105.5q-19 74 15.5 146t108.5 112q-215 16 -340.5 144t-125.5 334v1035h107v-1035q0 -171 118 -283t296 -112q176 0 295 113t119 282v1035h107v-1035q0 -208 -130 -337.5t-350 -141.5q-72 -42 -111 -95t-39 -109q0 -60 38.5 -95.5
t105.5 -35.5q92 0 165 57l30 -47q-88 -76 -208 -76z" />
    <glyph glyph-name="uogonek" unicode="&#x173;" horiz-adv-x="1063" 
d="M552 -419q-77 0 -130.5 38.5t-70.5 105.5q-19 73 14 144t105 111q-159 18 -255.5 120t-96.5 249v703h86v-648q0 -152 89.5 -247t235.5 -95q148 0 237.5 93.5t89.5 248.5v648h86v-1052h-86v142q-57 -66 -135 -110t-155 -53q-70 -41 -107.5 -93.5t-37.5 -107.5
q0 -60 38.5 -95.5t105.5 -35.5q92 0 165 57l30 -47q-88 -76 -208 -76z" />
    <glyph glyph-name="Wcircumflex" unicode="&#x174;" horiz-adv-x="2180" 
d="M1062 1954l-169 -221h-87l193 260h125l195 -260h-83zM1089 1425l-402 -1425h-131l-428 1490h105l392 -1413l387 1413h153l387 -1408l392 1408h105l-428 -1490h-131z" />
    <glyph glyph-name="wcircumflex" unicode="&#x175;" horiz-adv-x="1793" 
d="M895 1609l-188 -256h-67l218 294h75l220 -294h-66zM895 973l-300 -973h-99l-367 1051h107l311 -965l291 965h112l291 -961l311 961h107l-369 -1051h-97z" />
    <glyph glyph-name="Ycircumflex" unicode="&#x176;" horiz-adv-x="1428" 
d="M739 1981l-169 -221h-87l193 260h125l195 -260h-83zM766 699v-699h-106v699l-517 791h110l460 -702l458 702h110z" />
    <glyph glyph-name="ycircumflex" unicode="&#x177;" horiz-adv-x="1252" 
d="M601 1626l-169 -221h-87l193 260h125l195 -260h-83zM1116 1051l-624 -1516h-100l175 445l-435 1071h109l384 -948l382 948h109z" />
    <glyph glyph-name="Ydieresis" unicode="&#x178;" horiz-adv-x="1428" 
d="M553 1746q-38 0 -63.5 26t-25.5 65q0 37 25.5 62t63.5 25t63.5 -25t25.5 -62q0 -39 -25.5 -65t-63.5 -26zM906 1746q-39 0 -65 26t-26 65q0 36 26 61.5t65 25.5q35 0 61.5 -25.5t26.5 -61.5q0 -38 -26 -64.5t-62 -26.5zM766 699v-699h-106v699l-517 791h110l460 -702
l458 702h110z" />
    <glyph glyph-name="Zacute" unicode="&#x179;" horiz-adv-x="1298" 
d="M711 2002l-154 -256h-63l131 256h86zM1178 85v-85h-1059v62l916 1343h-864v85h988v-62l-916 -1343h935z" />
    <glyph glyph-name="zacute" unicode="&#x17a;" horiz-adv-x="1021" 
d="M581 1613l-156 -260h-64l133 260h87zM900 87v-87h-782v86l674 878h-640v87h746v-86l-675 -878h677z" />
    <glyph glyph-name="Zdotaccent" unicode="&#x17b;" horiz-adv-x="1298" 
d="M607 1746q-39 0 -64.5 26t-25.5 65q0 37 25.5 62t64.5 25q37 0 62.5 -25t25.5 -62q0 -39 -25 -65t-63 -26zM1178 85v-85h-1059v62l916 1343h-864v85h988v-62l-916 -1343h935z" />
    <glyph glyph-name="zdotaccent" unicode="&#x17c;" horiz-adv-x="1021" 
d="M476 1353q-39 0 -65 26.5t-26 65.5q0 38 26 63.5t65 25.5q38 0 64 -25.5t26 -63.5q0 -39 -26 -65.5t-64 -26.5zM900 87v-87h-782v86l674 878h-640v87h746v-86l-675 -878h677z" />
    <glyph glyph-name="Zcaron" unicode="&#x17d;" horiz-adv-x="1298" 
d="M923 1947l-195 -260h-125l-193 260h87l169 -221l174 221h83zM1178 85v-85h-1059v62l916 1343h-864v85h988v-62l-916 -1343h935z" />
    <glyph glyph-name="zcaron" unicode="&#x17e;" horiz-adv-x="1021" 
d="M722 1647l-220 -294h-75l-218 294h67l188 -256l192 256h66zM900 87v-87h-782v86l674 878h-640v87h746v-86l-675 -878h677z" />
    <glyph glyph-name="circumflex" unicode="&#x2c6;" horiz-adv-x="593" 
d="M296 1648l-169 -221h-87l193 260h125l195 -260h-83z" />
    <glyph glyph-name="caron" unicode="&#x2c7;" horiz-adv-x="593" 
d="M553 1687l-195 -260h-125l-193 260h87l169 -221l174 221h83z" />
    <glyph glyph-name="breve" unicode="&#x2d8;" horiz-adv-x="596" 
d="M297 1427q-99 0 -172.5 65.5t-84.5 160.5h55q12 -75 69.5 -126.5t132.5 -51.5t134 52t71 126h54q-12 -96 -86 -161t-173 -65z" />
    <glyph glyph-name="dotaccent" unicode="&#x2d9;" horiz-adv-x="261" 
d="M132 1427q-39 0 -65.5 26.5t-26.5 65.5q0 38 26.5 64t65.5 26q37 0 63 -26t26 -64q0 -39 -25.5 -65.5t-63.5 -26.5z" />
    <glyph glyph-name="ring" unicode="&#x2da;" horiz-adv-x="433" 
d="M216 1427q-73 0 -124.5 50t-51.5 122t50.5 121t125.5 49q74 0 125.5 -49.5t51.5 -120.5t-51.5 -121.5t-125.5 -50.5zM216 1467q56 0 95.5 38.5t39.5 93.5q0 54 -39.5 92t-95.5 38q-57 0 -95.5 -38t-38.5 -92q0 -55 39 -93.5t95 -38.5z" />
    <glyph glyph-name="ogonek" unicode="&#x2db;" horiz-adv-x="475" 
d="M232 -45q27 19 64 37l2 -29l-23 8q-26 -9 -43 -16zM237 -431q-84 0 -140.5 44t-56.5 120q0 69 48.5 126.5t143.5 95.5q-133 -89 -133 -197q0 -65 40.5 -101.5t110.5 -36.5q94 0 164 53l21 -35q-84 -69 -198 -69z" />
    <glyph glyph-name="tilde" unicode="&#x2dc;" horiz-adv-x="673" 
d="M471 1427q-27 0 -54.5 8.5t-42 16.5t-41.5 24q-73 46 -122 46q-36 0 -66.5 -20t-42.5 -64h-62q12 66 57 103.5t107 37.5q58 0 137 -49q25 -16 39.5 -23.5t38 -15t45.5 -7.5q35 0 65.5 21t42.5 66h61q-13 -68 -58.5 -106t-103.5 -38z" />
    <glyph glyph-name="hungarumlaut" unicode="&#x2dd;" horiz-adv-x="607" 
d="M261 1689l-156 -262h-65l133 262h88zM567 1689l-157 -262h-65l135 262h87z" />
    <glyph glyph-name="gravecomb" unicode="&#x300;" 
d="M-222 1613l133 -260h-64l-155 260h86z" />
    <glyph glyph-name="acutecomb" unicode="&#x301;" 
d="M-92 1613l-156 -260h-64l133 260h87z" />
    <glyph glyph-name="uni0302" unicode="&#x302;" 
d="M-357 1609l-188 -256h-67l218 294h75l220 -294h-66z" />
    <glyph glyph-name="tildecomb" unicode="&#x303;" 
d="M-235 1353q-60 0 -137 50q-29 17 -40.5 23.5t-36 14.5t-46.5 8q-36 0 -66.5 -20t-42.5 -65h-62q12 66 57 103.5t107 37.5q58 0 137 -49q25 -16 39.5 -23.5t38 -15t45.5 -7.5q35 0 66 21t43 65h60q-13 -68 -58.5 -105.5t-103.5 -37.5z" />
    <glyph glyph-name="uni0304" unicode="&#x304;" 
d="M-70 1416v-63h-396v63h396z" />
    <glyph glyph-name="uni0306" unicode="&#x306;" 
d="M-331 1353q-99 0 -172 65.5t-84 160.5h55q11 -74 68.5 -126t132.5 -52t134.5 52t71.5 126h53q-12 -96 -86 -161t-173 -65z" />
    <glyph glyph-name="uni0307" unicode="&#x307;" 
d="M-160 1353q-39 0 -65 26.5t-26 65.5q0 38 26 63.5t65 25.5q38 0 64 -25.5t26 -63.5q0 -39 -26 -65.5t-64 -26.5z" />
    <glyph glyph-name="uni0308" unicode="&#x308;" 
d="M-517 1353q-39 0 -65 26.5t-26 65.5q0 38 26 63.5t65 25.5q38 0 64 -25.5t26 -63.5q0 -39 -26 -65.5t-64 -26.5zM-159 1353q-40 0 -66 26.5t-26 65.5q0 37 26.5 63t65.5 26q36 0 62.5 -26t26.5 -63q0 -38 -26.5 -65t-62.5 -27z" />
    <glyph glyph-name="uni030A" unicode="&#x30a;" 
d="M-246 1353q-73 0 -124.5 50t-51.5 122t50.5 121t125.5 49q74 0 125 -49.5t51 -120.5q0 -72 -51 -122t-125 -50zM-246 1393q56 0 95.5 38.5t39.5 93.5q0 54 -39.5 92.5t-95.5 38.5q-57 0 -96 -38.5t-39 -92.5q0 -55 39.5 -93.5t95.5 -38.5z" />
    <glyph glyph-name="uni030B" unicode="&#x30b;" 
d="M-399 1615l-156 -262h-64l133 262h87zM-93 1615l-157 -262h-65l135 262h87z" />
    <glyph glyph-name="uni030C" unicode="&#x30c;" 
d="M-99 1647l-220 -294h-75l-218 294h67l188 -256l192 256h66z" />
    <glyph glyph-name="uni0326" unicode="&#x326;" 
d="M-117 -167l-184 -340h-49l113 340h120z" />
    <glyph glyph-name="uni0327" unicode="&#x327;" 
d="M-267 -443q-120 0 -208 76l30 47q73 -57 165 -57q67 0 105.5 35.5t38.5 95.5q0 56 -39.5 109.5t-112.5 95.5l78 10q84 -37 124 -113t20 -155q-17 -67 -70.5 -105.5t-130.5 -38.5z" />
    <glyph glyph-name="uni0328" unicode="&#x328;" 
d="M-268 -443q-77 0 -130.5 38.5t-70.5 105.5q-20 79 20 155t124 113l78 -10q-73 -42 -112.5 -95.5t-39.5 -109.5q0 -60 38.5 -95.5t105.5 -35.5q92 0 165 57l30 -47q-88 -76 -208 -76z" />
    <glyph glyph-name="uni0335" unicode="&#x335;" 
d="M-57 704v-86h-777v86h777z" />
    <glyph glyph-name="uni0336" unicode="&#x336;" 
d="M-40 698v-76h-1338v76h1338z" />
    <glyph glyph-name="Wgrave" unicode="&#x1e80;" horiz-adv-x="2180" 
d="M1000 2002l131 -256h-63l-153 256h85zM1089 1425l-402 -1425h-131l-428 1490h105l392 -1413l387 1413h153l387 -1408l392 1408h105l-428 -1490h-131z" />
    <glyph glyph-name="wgrave" unicode="&#x1e81;" horiz-adv-x="1793" 
d="M817 1613l133 -260h-64l-155 260h86zM895 973l-300 -973h-99l-367 1051h107l311 -965l291 965h112l291 -961l311 961h107l-369 -1051h-97z" />
    <glyph glyph-name="Wacute" unicode="&#x1e82;" horiz-adv-x="2180" 
d="M1128 2002l-154 -256h-63l131 256h86zM1089 1425l-402 -1425h-131l-428 1490h105l392 -1413l387 1413h153l387 -1408l392 1408h105l-428 -1490h-131z" />
    <glyph glyph-name="wacute" unicode="&#x1e83;" horiz-adv-x="1793" 
d="M1002 1613l-156 -260h-64l133 260h87zM895 973l-300 -973h-99l-367 1051h107l311 -965l291 965h112l291 -961l311 961h107l-369 -1051h-97z" />
    <glyph glyph-name="Wdieresis" unicode="&#x1e84;" horiz-adv-x="2180" 
d="M915 1746q-38 0 -63.5 26t-25.5 65q0 37 25.5 62t63.5 25t63.5 -25t25.5 -62q0 -39 -25.5 -65t-63.5 -26zM1268 1746q-39 0 -65 26t-26 65q0 36 26 61.5t65 25.5q35 0 61 -25.5t26 -61.5q0 -38 -25.5 -64.5t-61.5 -26.5zM1089 1425l-402 -1425h-131l-428 1490h105
l392 -1413l387 1413h153l387 -1408l392 1408h105l-428 -1490h-131z" />
    <glyph glyph-name="wdieresis" unicode="&#x1e85;" horiz-adv-x="1793" 
d="M716 1353q-39 0 -65 26.5t-26 65.5q0 38 26 63.5t65 25.5q38 0 64 -25.5t26 -63.5q0 -39 -26 -65.5t-64 -26.5zM1074 1353q-40 0 -66 26.5t-26 65.5q0 37 26.5 63t65.5 26q36 0 62.5 -26t26.5 -63q0 -38 -26.5 -65t-62.5 -27zM895 973l-300 -973h-99l-367 1051h107
l311 -965l291 965h112l291 -961l311 961h107l-369 -1051h-97z" />
    <glyph glyph-name="endash" unicode="&#x2013;" horiz-adv-x="1206" 
d="M1016 581v-86h-826v86h826z" />
    <glyph glyph-name="emdash" unicode="&#x2014;" horiz-adv-x="1713" 
d="M1523 581v-86h-1333v86h1333z" />
    <glyph glyph-name="quoteleft" unicode="&#x2018;" horiz-adv-x="586" 
d="M376 1513l-73 -498h-113l130 498h56z" />
    <glyph glyph-name="quoteright" unicode="&#x2019;" horiz-adv-x="586" 
d="M376 1513l-129 -498h-57l73 498h113z" />
    <glyph glyph-name="quotesinglbase" unicode="&#x201a;" horiz-adv-x="586" 
d="M376 171l-129 -498h-57l73 498h113z" />
    <glyph glyph-name="quotedblleft" unicode="&#x201c;" horiz-adv-x="956" 
d="M376 1513l-73 -498h-113l130 498h56zM746 1513l-73 -498h-113l130 498h56z" />
    <glyph glyph-name="quotedblright" unicode="&#x201d;" horiz-adv-x="956" 
d="M376 1513l-129 -498h-57l73 498h113zM746 1513l-129 -498h-57l73 498h113z" />
    <glyph glyph-name="quotedblbase" unicode="&#x201e;" horiz-adv-x="956" 
d="M376 171l-129 -498h-57l73 498h113zM746 171l-129 -498h-57l73 498h113z" />
    <glyph glyph-name="dagger" unicode="&#x2020;" horiz-adv-x="1480" 
d="M794 990v-1402h-108v1402h-486v86h486v437h108v-437h486v-86h-486z" />
    <glyph glyph-name="daggerdbl" unicode="&#x2021;" horiz-adv-x="1480" 
d="M794 26v-438h-108v438h-486v86h486v878h-486v86h486v437h108v-437h486v-86h-486v-878h486v-86h-486z" />
    <glyph glyph-name="bullet" unicode="&#x2022;" horiz-adv-x="790" 
d="M397 573q-79 0 -133 54.5t-54 134.5q0 76 54.5 129.5t132.5 53.5q74 0 126 -54t57 -129v-4q-3 -76 -56 -130.5t-127 -54.5z" />
    <glyph glyph-name="ellipsis" unicode="&#x2026;" horiz-adv-x="1796" 
d="M317 171v-171h-107v171h107zM952 171v-171h-108v171h108zM1586 171v-171h-108v171h108z" />
    <glyph glyph-name="guilsinglleft" unicode="&#x2039;" horiz-adv-x="708" 
d="M241 538l297 -371h-111l-297 371l297 371h111z" />
    <glyph glyph-name="guilsinglright" unicode="&#x203a;" horiz-adv-x="708" 
d="M578 538l-297 -371h-111l297 371l-297 371h111z" />
    <glyph glyph-name="Euro" unicode="&#x20ac;" horiz-adv-x="1677" 
d="M1043 -25q-232 0 -404.5 153.5t-234.5 408.5h-324l25 87h282q-6 99 -6 132q0 43 5 98h-243l25 87h228q54 273 228 435.5t419 162.5q184 0 325 -92t209 -255l-94 -47q-62 141 -179.5 224.5t-260.5 83.5q-190 0 -336 -140.5t-204 -371.5h611l-24 -87h-599q-5 -50 -5 -98
q0 -33 6 -132h559l-25 -87h-516q60 -220 202 -348t331 -128q143 0 259.5 82.5t179.5 223.5l95 -47q-68 -161 -209.5 -253t-324.5 -92z" />
    <glyph glyph-name="trademark" unicode="&#x2122;" horiz-adv-x="2193" 
d="M568 1453v-981h-78v981h-300v60h676v-60h-298zM1132 1385v-913h-77v1041h79l395 -564l394 564h80v-1041h-78v907l-397 -563zM1528 816l24 -34l-18 -19l-25 13l5 20l-1 -1z" />
    <glyph glyph-name="partialdiff" unicode="&#x2202;" horiz-adv-x="1245" 
d="M622 -25q-237 5 -392.5 163.5t-155.5 401.5q0 246 160 403.5t409 157.5q157 0 370 -74q-93 264 -256 411.5t-365 147.5q-92 0 -197 -36l-15 80q112 42 214 42q156 0 299.5 -82.5t248 -220.5t167 -328t62.5 -395q0 -311 -147.5 -491t-401.5 -180zM622 61
q203 0 327.5 156.5t124.5 414.5v12q0 91 -33 270q-211 101 -398 101q-212 0 -342 -131.5t-130 -345.5q0 -203 129.5 -340t321.5 -137z" />
    <glyph glyph-name="summation" unicode="&#x2211;" horiz-adv-x="1157" 
d="M1027 87v-87h-877v85l420 673l-420 670v85h877v-86h-790l417 -669l-417 -671h790z" />
    <glyph glyph-name="minus" unicode="&#x2212;" horiz-adv-x="1306" 
d="M1066 807v-96h-826v96h826z" />
    <glyph glyph-name="uni2215" unicode="&#x2215;" horiz-adv-x="837" 
d="M841 1513l-687 -1513h-114l686 1513h115z" />
    <glyph glyph-name="uni2219" unicode="&#x2219;" horiz-adv-x="933" 
d="M469 499q-109 0 -184 75.5t-75 185.5q0 107 75 181t184 74q103 0 176 -75t78 -180v-4q-4 -106 -77.5 -181.5t-176.5 -75.5z" />
    <glyph glyph-name="radical" unicode="&#x221a;" horiz-adv-x="1612" 
d="M1204 1427l-607 -1427h-111l-306 727h83l278 -678l602 1464h289v-86h-228z" />
    <glyph glyph-name="integral" unicode="&#x222b;" horiz-adv-x="873" 
d="M131 -422q-30 0 -73 5v73q27 -3 73 -3q110 0 180 66.5t70 188.5v1300q0 156 96.5 243.5t240.5 87.5q34 0 73 -6v-73q-27 3 -73 3q-109 0 -179.5 -66.5t-70.5 -188.5v-1300q0 -104 -47 -180.5t-122 -113t-168 -36.5z" />
    <glyph glyph-name="approxequal" unicode="&#x2248;" horiz-adv-x="1471" 
d="M957 876q-46 0 -89.5 10t-68 20.5t-64.5 29.5q-41 20 -66.5 31t-69 21t-88.5 10q-148 0 -271 -89v67q109 108 278 108q45 0 88 -10t67.5 -20t64.5 -30q41 -21 66.5 -31.5t68 -20.5t87.5 -10q144 0 271 89v-67q-105 -108 -274 -108zM957 432q-46 0 -89.5 10t-68 20.5
t-64.5 29.5q-41 20 -66.5 31t-69 21t-88.5 10q-148 0 -271 -89v67q108 108 278 108q45 0 88 -10t67.5 -20t64.5 -30q41 -21 66.5 -31.5t68 -20.5t87.5 -10q144 0 271 89v-67q-105 -108 -274 -108z" />
    <glyph glyph-name="notequal" unicode="&#x2260;" horiz-adv-x="1306" 
d="M634 457l-59 -211h-95l59 211h-299v97h324l115 410h-439v97h464l59 212h95l-60 -212h268v-97h-293l-114 -410h407v-97h-432z" />
    <glyph glyph-name="lessequal" unicode="&#x2264;" horiz-adv-x="1247" 
d="M310 898l716 -416v-100l-807 462v107l807 462v-100zM1079 87v-87h-911v87h911z" />
    <glyph glyph-name="greaterequal" unicode="&#x2265;" horiz-adv-x="1207" 
d="M1028 951v-107l-807 -462v100l715 416l-715 415v100zM1079 87v-87h-911v87h911z" />
    <glyph glyph-name="uniF8FF" unicode="&#xf8ff;" horiz-adv-x="1860" 
d="M1800 1630v-1869h-1740v1869h1740zM321 205h198v344h687v183h-687v491h687v176h-890v-1186q0 -2 1 -3q0 -5 4 -5zM1338 390h-685v-185h888v1194h-203v-334h-685v-190h685v-485zM1037 -26q11 0 29 4q8 6 12 6q9 0 9 9q0 1 1.5 4.5t1.5 5.5t0.5 5.5t0.5 5.5q0 10 -1 14
l-3 8l-9 9q-5 5 -8 5l-10 2q-13 3 -14 4q-8 5 -13 5t-8 4q-3 6 -3 8q0 10 12 10q7 0 10 -1q2 -1 5.5 -2t5.5 -2q3 -2 5.5 -3t4 -1.5t2.5 -0.5q8 -3 10 -4l14 27q-4 4 -26 11q-15 5 -28 5q-14 0 -26 -6q-1 -1 -5.5 -2.5t-5.5 -2.5q-6 -6 -8 -9q-6 -9 -6 -23q0 -4 2 -10
q1 -5 4 -9t7 -7l7 -5q4 -3 11 -3q2 0 6.5 -2t7.5 -2l6 -1q1 0 2 -1t2.5 -2t2.5 -2l7 -5q4 -3 4 -6q0 -9 -5 -10q-10 -2 -13 -2q-9 0 -24 6q-12 5 -23 14l-13 -26q14 -12 29 -16l6 -2q5 -1 9 -2q10 -2 16 -2zM499 -27q33 0 51 18t21 51q2 20 -11 36q-9 12 -10 13
q-10 10 -13 12q-12 8 -38 8q-17 0 -36 -8q-19 -13 -26 -25q-10 -17 -10 -36q0 -21 10 -35q9 -20 25 -27q15 -7 37 -7zM1349 -27q18 0 30 7q16 10 24 19l-20 19q-4 -4 -17 -10q-5 -4 -17 -4q-11 0 -17 5l-7 6q-1 0 -7 9q-4 5 -4 20q0 13 4 20l14 12q6 5 17 5q12 0 17 -5
q13 -4 17 -12l18 23q-1 2 -10 11q-7 7 -11 7q-8 0 -15 3q-9 3 -16 3q-31 0 -50 -18q-20 -19 -20 -51q0 -23 8 -35q11 -17 27 -27q13 -7 35 -7zM419 107h-98v-130h35v47h59v26h-59v31h63v26zM620 107h-31v-130h33v78l60 -78h31v130h-33v-77zM725 81h42v-104h34v104h39v26
h-115v-26zM919 107h-36l-57 -130h35l10 22h57l9 -22h38zM1098 81h40v-104h34v104h41v26h-115v-26zM1260 107h-33v-130h33v130zM1495 107h-36l-58 -130h38l8 22h61l6 -22h37zM500 2q-16 0 -27 12q-10 11 -10 28q0 13 5 20q1 1 2 3t2 3.5t2 2.5l7 5q7 5 19 5q9 0 19 -5
q9 -5 12 -14q0 -1 2 -4.5t2 -5.5v-20q0 -5 -4 -10q-2 -2 -4 -5l-3 -4.5t-2.5 -3t-2.5 -1.5q-18 -6 -19 -6zM901 73l16 -48h-36zM1476 73l17 -48h-36zM1031 -413q-13 0 -17 4q-10 3 -13 12l-2 6q0 1 -1 2q0 1 -1 3l7 2q4 1 8 1l2 -3q9 -13 17 -13q3 0 9 3t6 7q0 5 -3 8
q-2 2 -17 6q-18 4 -20 7q-8 13 -5 22q5 13 19 16q0 3 13 2q14 -2 20 -9q7 -3 7 -15v-3h-16v3q-5 11 -13 11q-1 0 -2 -1h-3q-9 -5 -9 -11l17 -6q16 -6 23 -13t7 -14q0 -4 -9 -18q-4 -6 -11 -8q-4 -1 -13 -1zM635 -414q-24 0 -33 22q-4 10 -4 20q0 15 3 22q1 3 10 12q5 5 13 8
q6 2 14 2q30 0 36 -29q3 -15 0 -27t-14 -22q-9 -8 -25 -8zM1281 -413q-24 0 -38 27q-3 7 -2 15l2 14q6 21 26 27q2 0 4 1t6 1q15 0 25 -10q5 -5 6 -8l2 -6l-8 -3l-6 -2q-3 0 -4 4q-4 11 -15 11q-9 0 -15 -8q-6 -7 -6 -16q0 -1 0.5 -5t0.5 -7q0 -5 3 -10q4 -11 16 -11
q11 0 16 13l2 5l8 -2q8 -3 8 -4l-2 -6q-11 -20 -29 -20zM1540 -413q-12 0 -20 6q-8 5 -12 14q-10 19 0 45q1 3 5 6.5t5 4.5q4 5 12 7q2 2 13 2q1 0 13 -3q2 -1 10 -8q5 -5 7 -9l1 -4q-2 -2 -9 -3l-8 -2q-1 1 -2 4q-4 9 -14 9q-12 0 -16 -9q-4 -10 -4 -19q0 -11 4 -19
q5 -8 16 -8t16 13q0 3 2 3v2l9 -3l5 -2v-3q0 -2 -2 -6l-3 -7q-11 -11 -28 -11zM112 -377l-8 -36h-9l-9 2l-19 79q0 2 8 2h9l11 -53q2 1 2 5q0 9 5 19q7 15 7 24l2 5h18l8 -27l6 -26q1 0 3 9l3 17q2 4 4 12.5t3 12.5q0 2 7 2q10 0 10 -2q-4 -10 -8 -32q-1 -5 -3.5 -13.5
t-3.5 -12.5l-4 -18v-5h-18v5l-4 10l-6 20l-6 25zM241 -381l-8 -32h-15q-2 2 -4 2l-3 12l-6 28l-6 27l-3 12q0 2 8 2h8q1 0 1 -2q1 -2 1 -7q4 -9 4 -18l6 -26l14 53h20q2 0 2 -2l7 -27l5 -27l13 54q0 2 7 2q9 0 9 -2q0 -1 -0.5 -4.5t-0.5 -5.5l-3 -15q-2 -10 -5 -15l-11 -41
h-7l-9 2l-9 30q0 1 -1 5.5t-1 5.5q0 2 -4 9q0 6 -1 9q-2 -6 -2 -9q-3 -6 -3 -9q0 -8 -3 -11zM377 -353l-15 -58l-10 -2q-8 0 -9 4l-2 12q-1 6 -7 27q-2 6 -4 16t-2 12l-3 12h16l5 -27l8 -26l3 9l11 44h19l8 -27q3 -24 8 -27q0 4 1 7q-1 2 3 20l6 27h8q9 0 9 -2q0 -1 -1 -4.5
t-1 -5.5q0 -3 -2 -15q0 -3 -2 -8t-3 -7l-11 -39l-7 -2h-10l-8 32l-5 21zM526 -393l-1 -18h-15v79q0 2 4 2h52v-14h-40v-19h33v-14h-33v-16zM727 -359v-54h-16v83h16l32 -53v53h15v-81l-7 -2h-8zM849 -344v-69h-17v69h-23v14h65v-14h-25zM907 -411l-8 -2h-7q0 2 -2 2l3 9
l9 22l11 26q1 2 3.5 10t4.5 12q0 2 7 2h9l33 -81q-2 0 -2 -2h-5l-11 2l-6 19h-32zM1135 -344v-69h-17v69h-25v14h65v-14h-23zM1206 -330v-83h-15v83h15zM1358 -411l-9 -2h-6l-2 2q2 3 4 9l7 22q5 14 10 26q2 4 5 11.5t4 10.5q0 2 9 2h9l32 -81q-2 0 -2 -2h-7l-9 2l-7 19h-31
zM1646 -413q-21 0 -30 12q-10 13 -10 29q0 7 8 25q6 14 19 17q17 0 37 -6q14 -4 14 -34q0 -20 -8 -31q-9 -12 -30 -12zM1735 -411l-8 -2h-7v83h25l6 -27l5 -18q2 -6 2 -8l7 24q2 6 4 12.5t3 10t1 4.5v2h26v-83h-17v63l-6 -28l-6 -21l-2 -10v-4h-10l-7 2l-6 30l-10 29v-59z
M637 -399q20 0 20 16v24q0 3 -10 13q-4 4 -9 4q-10 0 -18 -8q-2 -2 -4 -8q-1 -3 -1 -14q0 -12 7 -20q5 -7 15 -7zM1646 -399q7 0 10 4q11 5 11 23q0 21 -11 26q-2 1 -4 3q-1 1 -5 1q-15 0 -18 -9t-3 -21q0 -16 2 -19q5 -8 18 -8zM1377 -358l-8 -20h22l-5 14q-3 6 -3 7
q0 2 -1 3l-1 2zM930 -352l-5 -6l-6 -20h20q-2 5 -4 14q-3 6 -3 7q0 2 -1 3zM471 -395v-16h-16v16h16zM1468 -403l-1 -8h-14v16h15v-8z" />
    <glyph glyph-name="G.ss01" horiz-adv-x="1535" 
d="M815 -25q-207 0 -372.5 98.5t-259 274.5t-93.5 396t93.5 396t259 274.5t372.5 98.5q191 0 350 -86.5t255 -243.5l-86 -47q-80 142 -213 217t-306 75q-179 0 -320 -86.5t-220.5 -242.5t-79.5 -355t79.5 -355t220.5 -242.5t320 -86.5q173 0 312 84t222 233l1 277h-489v84
h584v-381q-82 -188 -247 -285t-383 -97z" />
    <glyph glyph-name="Q.ss01" horiz-adv-x="1630" 
d="M1434 -341v-84h-184q-202 0 -334 109.5t-152 292.5q-195 18 -348.5 120.5t-239.5 271t-86 375.5q0 220 93.5 396t259 274.5t372.5 98.5t372.5 -98.5t259 -274.5t93.5 -396q0 -208 -88 -377.5t-245.5 -272t-358.5 -118.5q25 -146 133 -231.5t269 -85.5h184zM815 60
q179 0 320 86.5t220.5 242.5t79.5 355t-79.5 355t-220.5 242.5t-320 86.5t-320 -86.5t-220.5 -242.5t-79.5 -355t79.5 -355t220.5 -242.5t320 -86.5z" />
    <glyph glyph-name="g.001" horiz-adv-x="1196" 
d="M609 -465q-145 0 -262 66t-177 170l81 44q47 -84 137 -138.5t216 -54.5q175 0 295.5 105.5t120.5 284.5v286q-84 -114 -193.5 -177.5t-224.5 -63.5q-140 0 -258 68.5t-186 186t-68 256.5q0 142 67 258.5t184.5 183t260.5 66.5q118 0 228 -69.5t190 -191.5v236h86v-1039
q0 -204 -140.5 -340.5t-356.5 -136.5zM602 144q183 3 300.5 123.5t117.5 300.5q0 183 -118.5 302.5t-301.5 119.5q-179 0 -296 -116.5t-117 -305.5q0 -188 115.5 -306t299.5 -118z" />
    <glyph glyph-name="uni030C.alt" 
d="M-97 1513l-35 -428h-55l-35 428h125z" />
    <glyph glyph-name="uni0335.alt" 
d="M-68 698v-76h-566v76h566z" />
    <glyph glyph-name="_FSHallmark" horiz-adv-x="1728" 
d="M1668 1375v-190h-1604v190h1604zM1322 287q-75 0 -132 18q-98 25 -161 98.5t-63 173.5l186 -4q0 -8 12 -32q3 -25 26.5 -49t47.5 -31q33 -20 92 -20q67 0 104 22q34 20 34 52q0 59 -152 88q-134 39 -234 88q-96 48 -96 158q0 86 55 137.5t149 86.5q2 0 52 7t80 7
q75 0 180 -38q68 -24 109 -85.5t41 -134.5h-192q0 42 -50 78q-5 1 -20.5 9t-25.5 9q-7 1 -22.5 5.5t-23.5 4.5q-44 0 -90 -28q-38 -23 -38 -58q0 -63 36 -78q2 -1 20 -9t32.5 -12.5t29.5 -6.5l72 -20l58 -14q7 -1 27 -6.5t31 -5.5q37 -9 44 -14l40 -18q38 -24 62 -52
q22 -51 24 -88q3 -41 -20 -94q-80 -144 -324 -144zM274 545v-258h-210v798h674v-180h-464v-182h388v-178h-388zM816 291q-32 0 -62 30q-34 28 -34 64t30 66q26 26 66 26q47 0 78 -28q32 -29 32 -64q0 -38 -32 -70q-36 -24 -78 -24zM1666 189v-190h-1606v190h1606z" />
    <glyph glyph-name="_Fontastica" horiz-adv-x="1338" 
d="M262 536v-340h-196q-3 0 -4.5 2t-1.5 4v2v1178h884v-174h-682v-490h682v-182h-682zM1278 1382v-1186h-884v184h682v482h-682v188h682v332h202zM252 2q-9 0 -36 8q-15 4 -25.5 22.5t-10.5 35.5q0 28 21.5 47t50.5 19q21 0 32.5 -7.5t25.5 -26.5q10 -13 10 -32
q0 -28 -20 -47t-48 -19zM770 2q-35 0 -60 20l14 26q20 -20 46 -20q16 0 16 12q0 1 -2 3.5t-2 4.5l-6 4q-6 0 -14 4q-5 3 -13 3.5t-11 2.5q-20 13 -20 34q0 38 52 38q24 0 52 -14l-14 -28q-16 16 -50 16q-2 0 -2 -2l-2 -8q0 -1 1 -3t1 -3q0 -2 1.5 -3.5l2.5 -2.5h2
q3 0 7.5 -2t6.5 -2q15 0 30.5 -12.5t15.5 -27.5q0 -19 -16 -29.5t-36 -10.5zM1068 2q-18 0 -34 8q-15 7 -24.5 24t-9.5 34q0 14 10.5 33.5t23.5 24.5q20 8 34 8q18 0 30 -6t22 -16l-20 -24q-3 5 -13.5 11.5t-16.5 6.5q-18 0 -30 -18q-4 -6 -4 -20q0 -24 16 -32q12 -6 18 -6
q5 0 16.5 6t13.5 10l20 -20q-18 -24 -52 -24zM112 50v-46h-34v128h96v-26h-62v-30h58v-26h-58zM368 80v-76h-32v128h30l58 -78v78h32v-128h-30zM542 104v-100h-34v100h-38v28h108v-28h-36zM608 28l-8 -24h-34l54 128h34l54 -128h-36l-8 24h-56zM898 104v-100h-32v100h-38v28
h108v-28h-38zM984 132v-128h-34v128h34zM1164 28l-10 -24h-34l56 128h34l54 -128h-36l-10 24h-54zM252 28q14 0 24 12.5t10 27.5q0 13 -10.5 25.5t-23.5 12.5q-8 0 -20 -6q-16 -8 -16 -32q0 -17 9.5 -28.5t26.5 -11.5zM654 52l-18 46l-18 -46h36zM1208 52l-18 46l-16 -46h34
z" />
    <glyph glyph-name="_www.fontastica.com" horiz-adv-x="3906" 
d="M132 627v-120h-68l-4 2v418h316v-62h-244v-174h244v-64h-244zM494 927v-420h-316v64h244v172h-244v66h244v118h72zM2500 541q-41 0 -86.5 15.5t-75.5 40.5l36 72q22 -19 61 -36.5t65 -17.5q16 0 32 8q14 7 14 22t-10 20q-18 12 -58 24q-55 17 -62 20q-26 11 -40 30
q-14 20 -14 56q0 53 40.5 80.5t97.5 27.5q74 0 140 -40l-34 -72q-70 36 -114 36q-36 0 -36 -24q0 -27 66 -44q45 -10 62 -20q28 -16 40 -32q16 -22 16 -58q0 -54 -41 -81t-99 -27zM1086 539q-79 0 -133.5 51.5t-54.5 130.5t54 129.5t134 50.5t134 -50.5t54 -129.5
t-53.5 -130.5t-134.5 -51.5zM3312 539q-77 0 -129.5 52.5t-52.5 129.5q0 78 53.5 129t132.5 51q86 0 140 -60l-52 -64q-34 46 -86 46q-43 0 -69.5 -28.5t-26.5 -71.5q0 -33 12 -52q31 -50 84 -50q46 0 86 40l54 -56q-66 -66 -146 -66zM708 671v-124h-90v348h260v-72h-170
v-78h156v-74h-156zM1406 755v-208h-86v348h80l160 -210l-2 210h86v-348h-80zM1876 821v-274h-90v274h-104v74h300v-74h-106zM2062 607l-24 -60h-94l150 348h94l146 -348h-96l-24 60h-152zM2852 821v-274h-92v274h-104v74h300v-74h-104zM3084 895v-348h-90v348h90zM3574 607
l-24 -60h-94l150 348h94l146 -348h-98l-22 60h-152zM1088 617q40 0 67 31.5t27 72.5q0 15 -14 52q-19 50 -80 50q-43 0 -69.5 -29t-26.5 -73q0 -42 27 -73t69 -31zM2186 677l-46 126l-50 -126h96zM3698 677l-48 126l-48 -126h96z" />
    </font>
</defs>
</svg>
