<?xml version="1.0" standalone="no"?>
<!DOCTYPE svg PUBLIC "-//W3C//DTD SVG 1.1//EN" "http://www.w3.org/Graphics/SVG/1.1/DTD/svg11.dtd" >
<svg xmlns="http://www.w3.org/2000/svg" xmlns:xlink="http://www.w3.org/1999/xlink" version="1.1">
<metadata>
Created by FontForge 20170731 at Mon Jan 25 19:14:35 2021
 By Aleksey,,,
Copyright (c) 2021 by Fontastica. All rights reserved.
</metadata>
<defs>
<font id="LuxoraGrotesk-BoldItalic" horiz-adv-x="0" >
  <font-face 
    font-family="Luxora Grotesk"
    font-weight="700"
    font-style="italic"
    font-stretch="normal"
    units-per-em="2048"
    panose-1="0 0 8 0 0 0 0 0 0 0"
    ascent="1638"
    descent="-410"
    x-height="1094"
    cap-height="1505"
    bbox="-1567 -449 3846 2063"
    underline-thickness="50"
    underline-position="-150"
    unicode-range="U+000D-F8FF"
  />
<missing-glyph horiz-adv-x="1347" 
d="M1299 1500l-238 -1500h-1151l238 1500h1151zM915 1289h-448l168 -341zM1008 1073l-268 -322l166 -320zM465 751l-161 315l-100 -628zM744 214l-171 341l-281 -342z" />
    <glyph glyph-name=".notdef" horiz-adv-x="1347" 
d="M1299 1500l-238 -1500h-1151l238 1500h1151zM915 1289h-448l168 -341zM1008 1073l-268 -322l166 -320zM465 751l-161 315l-100 -628zM744 214l-171 341l-281 -342z" />
    <glyph glyph-name=".null" 
 />
    <glyph glyph-name="nonmarkingreturn" horiz-adv-x="682" 
 />
    <glyph glyph-name="CR" unicode="&#xd;" horiz-adv-x="333" 
 />
    <glyph glyph-name="space" unicode=" " horiz-adv-x="486" 
 />
    <glyph glyph-name="exclam" unicode="!" horiz-adv-x="702" 
d="M503 1495l-186 -1103h-281l165 1103h302zM318 333l-53 -333h-301l53 333h301z" />
    <glyph glyph-name="quotedbl" unicode="&#x22;" horiz-adv-x="1006" 
d="M473 1490l-94 -595h-263l94 595h263zM796 1490l-94 -595h-262l94 595h262z" />
    <glyph glyph-name="numbersign" unicode="#" horiz-adv-x="1613" 
d="M390 356l-161 -356h-307l162 356h-204l42 260h282l118 262h-205l41 259h281l163 358h306l-163 -358h242l162 358h306l-163 -358h205l-41 -259h-282l-118 -262h205l-42 -260h-282l-162 -356h-306l162 356h-241zM870 878h-243l-118 -262h241z" />
    <glyph glyph-name="dollar" unicode="$" horiz-adv-x="1366" 
d="M596 -15l-27 -167h-282l29 181q-124 32 -214 109t-136 182q-19 45 -39 141l-3 13l291 115l2 -20q18 -93 49 -157.5t94 -103.5l58 369q-90 29 -137 55q-115 62 -167 160.5t-33 219.5q25 160 154 277.5t320 146.5l30 193h282l-32 -201q152 -40 243 -140t120 -239l5 -27
l-290 -121l-4 20q-27 168 -118 227l-58 -367l35 -11q375 -119 327 -425q-26 -167 -162 -284.5t-337 -145.5zM465 938l47 301q-111 -42 -128 -146q-16 -99 81 -155zM687 564l-49 -312q64 18 104.5 57t49.5 93q9 61 -17 98.5t-88 63.5z" />
    <glyph glyph-name="percent" unicode="%" horiz-adv-x="2123" 
d="M490 737q-92 0 -165.5 34.5t-115.5 90.5t-59.5 125t-6.5 140t50.5 140.5t99 125t144 90t176.5 34.5q74 0 135.5 -22.5t103.5 -61t69.5 -88.5t36.5 -106t0 -112q-11 -70 -50.5 -139t-99 -125t-143.5 -91t-175 -35zM1572 1495l-936 -1495h-325l937 1495h324zM531 998
q51 0 94 40.5t51 88.5q7 49 -23 89.5t-81 40.5q-52 0 -95.5 -40.5t-50.5 -89.5q-8 -49 22 -89t83 -40zM1274 -23q-92 0 -164.5 34.5t-114 90.5t-59 124.5t-6.5 139.5q11 70 50.5 139t99 125t143 90.5t175.5 34.5t165.5 -34t115.5 -90t59.5 -125t6.5 -140t-51 -140t-100 -125
t-144 -90t-176 -34zM1316 238q53 0 95 39t50 89q8 49 -22 88.5t-83 39.5q-52 0 -94.5 -39.5t-50.5 -88.5q-8 -48 22.5 -88t82.5 -40z" />
    <glyph glyph-name="ampersand" unicode="&#x26;" horiz-adv-x="1933" 
d="M446 -23q-216 0 -336.5 121t-92.5 300q23 146 125 248.5t274 184.5q-105 149 -81 300q25 157 165 271.5t330 114.5q124 0 212.5 -52.5t125.5 -137t21 -184.5q-20 -125 -110.5 -214.5t-239.5 -161.5l178 -212l252 202h368l-466 -383l315 -374h-384l-155 187
q-124 -98 -244.5 -154t-256.5 -56zM684 952q98 43 155.5 86t67.5 105q9 58 -21 95.5t-94 37.5q-68 0 -117.5 -42.5t-58.5 -102.5q-13 -80 68 -179zM488 238q126 0 303 137l-224 269l-28 -13q-198 -90 -221 -233q-12 -76 33 -118t137 -42z" />
    <glyph glyph-name="quotesingle" unicode="'" horiz-adv-x="682" 
d="M473 1490l-94 -595h-263l94 595h263z" />
    <glyph glyph-name="parenleft" unicode="(" horiz-adv-x="951" 
d="M567 -231l14 -25h-292l-6 6l-11 13q-49 67 -90 145q-163 314 -100 712q64 400 326 712q46 54 150 156l7 7h297l-23 -25q-104 -114 -169 -202q-234 -317 -287 -648q-52 -334 81 -650q22 -53 103 -201z" />
    <glyph glyph-name="parenright" unicode=")" horiz-adv-x="954" 
d="M115 -252l-7 -4h-295l26 26q184 191 302.5 409.5t153.5 440.5q53 331 -82 648q-23 55 -104 202l-14 25h295l5 -7q72 -102 101 -156q164 -309 100 -712q-63 -400 -326 -712q-46 -56 -136 -144l-9 -8q-5 -5 -10 -8z" />
    <glyph glyph-name="asterisk" unicode="*" horiz-adv-x="1104" 
d="M580 693l-123 198l-185 -198l-175 139l183 199l-211 74l109 223l212 -73l37 235h248l-37 -235l237 72l38 -222l-236 -74l122 -199z" />
    <glyph glyph-name="plus" unicode="+" horiz-adv-x="1322" 
d="M668 615l-50 -316h-290l50 316h-327l43 268h327l50 315h290l-50 -315h325l-43 -268h-325z" />
    <glyph glyph-name="comma" unicode="," horiz-adv-x="819" 
d="M426 333l-259 -552h-248l184 552h323z" />
    <glyph glyph-name="hyphen" unicode="-" horiz-adv-x="1190" 
d="M872 688l-41 -259h-809l41 259h809z" />
    <glyph glyph-name="period" unicode="." horiz-adv-x="721" 
d="M328 333l-53 -333h-301l53 333h301z" />
    <glyph glyph-name="slash" unicode="/" horiz-adv-x="1103" 
d="M1064 1495l-936 -1495h-324l937 1495h323z" />
    <glyph glyph-name="zero" unicode="0" horiz-adv-x="1539" 
d="M530 -23q-96 0 -176.5 26.5t-137 70t-98.5 104.5t-66 126t-35 137q-21 143 6 308q28 176 99 324q44 89 105 165.5t141 140.5t185 101t220 37q116 0 209 -37t153.5 -101t97 -140.5t52.5 -165.5q25 -147 -3 -324q-30 -184 -100 -326q-44 -90 -104.5 -166.5t-141 -141
t-185 -101.5t-221.5 -37zM573 246q63 0 119.5 25.5t99.5 69t75 91.5t56 102q40 93 60 215q19 121 5 225q-7 53 -24 99t-46 87t-77 65t-110 24q-61 0 -116 -24t-97 -65.5t-73.5 -87t-55.5 -98.5q-45 -99 -65 -225q-19 -116 -8 -215q5 -43 16 -81.5t31.5 -77t48 -66.5
t69 -45.5t92.5 -17.5z" />
    <glyph glyph-name="one" unicode="1" horiz-adv-x="925" 
d="M627 1495l-237 -1495h-303l196 1235h-263l41 260h566z" />
    <glyph glyph-name="two" unicode="2" horiz-adv-x="1312" 
d="M998 259l-41 -259h-1064l29 182l477 418q34 29 152 138q49 46 80.5 78t68.5 76.5t58.5 88t28.5 87.5q14 90 -27 140t-144 50q-212 0 -318 -217l-9 -20l-10 -21l-238 115l6 12l6 14q28 61 71 117q93 119 234 189t299 70q150 0 256 -62.5t149.5 -163.5t24.5 -223
q-8 -52 -28.5 -103.5t-56 -103t-67.5 -92t-85 -92.5t-85 -82t-90 -81l-288 -255h611z" />
    <glyph glyph-name="three" unicode="3" horiz-adv-x="1323" 
d="M419 -23q-158 0 -276 68t-175 185q-25 50 -38 121l-6 27l269 114l5 -18q19 -71 28 -89q32 -67 92 -107t143 -40q115 0 189.5 68.5t90.5 169.5q16 99 -39 167.5t-168 68.5q-30 0 -84 -6.5t-74 -7.5l-23 -2l33 194l333 344l-577 1l41 260h966l-34 -215l-328 -337
q98 -38 162 -115t86 -167.5t7 -184.5q-15 -99 -67 -188.5t-131 -159t-189.5 -110.5t-235.5 -41z" />
    <glyph glyph-name="four" unicode="4" horiz-adv-x="1377" 
d="M910 322l-51 -322h-282l51 322h-733l32 205l924 968h245l-146 -923h181l-40 -250h-181zM668 572l70 443l-419 -443h349z" />
    <glyph glyph-name="five" unicode="5" horiz-adv-x="1350" 
d="M432 -23q-200 0 -329.5 99t-170.5 260q-4 21 -5 29l-3 13l265 117l9 -39q10 -45 30 -81q36 -62 100 -99.5t146 -37.5q120 0 200.5 71t96.5 176q16 106 -41.5 176t-179.5 70q-123 0 -209 -72q-14 -12 -22 -22q-4 -4 -10.5 -12t-10.5 -13l-12 -16l-12 -17l-182 106l211 812
h868l-41 -260h-624l-69 -264q80 20 159 20q127 0 227 -41.5t158 -112t82 -162t8 -192.5q-16 -102 -69 -193.5t-134 -162t-194.5 -111.5t-241.5 -41z" />
    <glyph glyph-name="six" unicode="6" horiz-adv-x="1255" 
d="M387 -23q-126 0 -221.5 44.5t-147.5 118.5t-71.5 165t-4.5 188q9 58 32 117t62 123t67.5 105t79.5 110l406 547h340l-399 -520h15q94 0 174 -28.5t134.5 -78t91 -113t48.5 -135.5t1 -144q-12 -75 -45.5 -147.5t-89 -136t-125 -111.5t-159.5 -76t-188 -28zM429 238
q106 0 178 71.5t87 166.5q15 96 -34 166t-156 70q-105 0 -177 -70.5t-87 -165.5q-15 -96 34.5 -167t154.5 -71z" />
    <glyph glyph-name="seven" unicode="7" horiz-adv-x="1148" 
d="M1054 1287l-812 -1287h-320l783 1237h-665l41 260h1007l-18 -115l-10 -61l-3 -20z" />
    <glyph glyph-name="eight" unicode="8" horiz-adv-x="1357" 
d="M438 -23q-245 0 -379 139.5t-102 342.5q16 105 82 202t171 164q-103 115 -77 274q28 174 183.5 296t365.5 122q214 0 328.5 -121t86.5 -297q-25 -158 -161 -274q84 -66 119 -163t19 -203q-32 -203 -211 -342.5t-425 -139.5zM591 940q80 0 136.5 45.5t67.5 113.5
t-31.5 113.5t-122.5 45.5t-137.5 -45.5t-68.5 -113.5t32.5 -113.5t123.5 -45.5zM480 238q114 0 196.5 63t97.5 158q15 96 -47.5 159t-176.5 63q-113 0 -195 -63t-97 -159q-15 -95 47 -158t175 -63z" />
    <glyph glyph-name="nine" unicode="9" horiz-adv-x="1255" 
d="M835 547l-403 -547h-340l397 520h-16q-116 0 -209.5 44.5t-149 115.5t-79.5 160t-10 179q15 95 65 183.5t127 159t185 113t229 42.5q85 0 157.5 -20.5t123 -57t89.5 -85.5t57 -106.5t25 -120.5t-6 -127q-17 -108 -92 -236q-47 -79 -150 -217zM515 783q107 0 178.5 70.5
t86.5 165.5q15 96 -34.5 167.5t-155.5 71.5q-105 0 -177 -71.5t-87 -167.5t34 -166t155 -70z" />
    <glyph glyph-name="colon" unicode=":" horiz-adv-x="721" 
d="M452 1116l-53 -333h-301l53 333h301zM328 333l-53 -333h-301l53 333h301z" />
    <glyph glyph-name="semicolon" unicode=";" horiz-adv-x="838" 
d="M553 1116l-53 -333h-302l53 333h302zM446 333l-259 -552h-248l184 552h323z" />
    <glyph glyph-name="less" unicode="&#x3c;" horiz-adv-x="1261" 
d="M428 752l499 -309l-48 -303l-843 514l31 197l1006 513l-48 -304z" />
    <glyph glyph-name="equal" unicode="=" horiz-adv-x="1422" 
d="M1121 1103l-43 -269h-942l43 269h942zM1051 664l-42 -269h-942l42 269h942z" />
    <glyph glyph-name="greater" unicode="&#x3e;" horiz-adv-x="1221" 
d="M992 851l-31 -197l-1007 -514l48 303l597 309l-499 308l48 304z" />
    <glyph glyph-name="question" unicode="?" horiz-adv-x="1257" 
d="M542 409l-3 -17h-301l13 84q10 61 35 116t65 103t75 82t87 77q42 33 83 68q40 33 72 66q69 69 80 136q10 64 -25 99t-111 35q-148 0 -235 -125q-16 -23 -59 -112l-11 -21l-236 115l5 12q72 168 223.5 279t353.5 111t312.5 -112.5t83.5 -280.5q-17 -106 -81.5 -187.5
t-183.5 -181.5q-30 -24 -81 -67q-41 -34 -72 -70q-49 -53 -66 -99q-10 -29 -12 -48q-8 -36 -11 -62zM535 333l-53 -333h-300l53 333h300z" />
    <glyph glyph-name="at" unicode="@" horiz-adv-x="1950" 
d="M721 -122q-265 0 -451.5 129.5t-252.5 338.5q-52 162 -22 352q28 187 134 350q133 208 360.5 338.5t490.5 130.5q262 0 448 -132t253 -339q53 -166 25 -348q-10 -62 -31 -122.5t-59.5 -122.5t-89.5 -108.5t-125.5 -75.5t-162.5 -29q-150 0 -228 90q-121 -79 -274 -79
q-109 0 -192.5 40.5t-129 106t-63 145.5t-4.5 163t56 163t110 146.5t163 107.5t204 41t190 -47l4 28h199q-132 113 -334 113q-182 0 -331.5 -89t-237.5 -236q-65 -112 -84 -235q-20 -127 10 -237q40 -147 162 -235.5t304 -88.5q161 0 336 86l22 11l88 -226l-13 -8
q-11 -7 -35 -19q-214 -103 -439 -103zM1293 497q47 0 83 75q24 48 37 126q34 223 -72 373l-79 -497q-6 -32 0 -54q8 -23 31 -23zM783 509q83 0 140 60.5t69 138.5t-25.5 135.5t-121.5 57.5q-82 0 -138.5 -59t-68.5 -136q-12 -76 25.5 -136.5t119.5 -60.5z" />
    <glyph glyph-name="A" unicode="A" horiz-adv-x="1591" 
d="M374 386l-202 -386h-318l809 1505h270l333 -1505h-319l-78 386h-495zM814 646l-86 415l-218 -415h304z" />
    <glyph glyph-name="B" unicode="B" horiz-adv-x="1376" 
d="M519 0h-665l238 1505h665q143 0 243.5 -59.5t141 -155.5t22.5 -212q-27 -170 -164 -286q75 -65 105 -156.5t14 -191.5q-32 -203 -193 -323.5t-407 -120.5zM704 1246h-351l-53 -339h351q84 0 136 44t64 117q12 74 -27 126t-120 52zM621 646h-363l-61 -386h363
q106 0 171 48t79 136q15 90 -34.5 146t-154.5 56z" />
    <glyph glyph-name="C" unicode="C" horiz-adv-x="1633" 
d="M615 -24q-241 0 -403 119t-221 311q-47 158 -18 346q30 189 128 346q118 192 318.5 310.5t441.5 118.5q180 0 318.5 -69.5t223.5 -194.5q34 -50 63 -115q12 -29 12 -31l3 -13l-281 -135l-6 19l-6 18q-17 53 -38 86q-49 80 -135 126.5t-196 46.5q-156 0 -280 -83
t-194 -216q-51 -97 -70 -214q-18 -116 2 -213q28 -133 125.5 -216.5t254.5 -83.5q216 0 382 169q28 28 69 84l24 35l233 -139l-8 -13l-10 -14q-123 -172 -317 -278.5t-415 -106.5z" />
    <glyph glyph-name="D" unicode="D" horiz-adv-x="1449" 
d="M377 -2h-523l238 1507h523q160 0 292 -57q86 -37 152 -95.5t105.5 -127t63 -149t24.5 -161t-10 -163.5q-17 -104 -58.5 -205t-108.5 -194.5t-167 -171t-221 -124.5q-153 -59 -310 -59zM416 254q69 0 146 25q161 53 259 186t123 287q17 106 -3 207q-27 129 -121 210
t-246 81h-225l-158 -995q37 0 112 -0.5t113 -0.5z" />
    <glyph glyph-name="E" unicode="E" horiz-adv-x="1241" 
d="M956 260l-41 -260h-1061l238 1505h1061l-41 -259h-759l-53 -339h665l-42 -261h-665l-61 -386h759z" />
    <glyph glyph-name="F" unicode="F" horiz-adv-x="1241" 
d="M258 646l-102 -646h-302l238 1505h1061l-41 -259h-759l-53 -339h665l-42 -261h-665z" />
    <glyph glyph-name="G" unicode="G" horiz-adv-x="1633" 
d="M615 -24q-251 0 -415 127t-215 330q-39 149 -12 319q27 171 112 318q118 204 321 330.5t455 126.5q181 0 320.5 -71.5t225.5 -198.5q28 -40 59 -109q12 -29 12 -31l3 -13l-281 -135l-12 37q-39 116 -133.5 187.5t-235.5 71.5q-146 0 -264.5 -73t-191.5 -194
q-67 -111 -88 -246q-21 -131 10 -244q36 -121 131.5 -195t240.5 -74q185 0 327 117q5 4 10 9t11.5 10.5t9.5 8.5l31 31l2 2q3 2 6.5 5.5l6.5 6.5l7 6l22 146h-489l41 260h774l-133 -841h-283l11 71q-190 -95 -396 -95z" />
    <glyph glyph-name="H" unicode="H" horiz-adv-x="1395" 
d="M258 646l-102 -646h-302l238 1505h302l-94 -598h611l94 598h301l-238 -1505h-301l102 646h-611z" />
    <glyph glyph-name="I" unicode="I" horiz-adv-x="482" 
d="M394 1505l-238 -1505h-302l238 1505h302z" />
    <glyph glyph-name="J" unicode="J" horiz-adv-x="1309" 
d="M416 -17q-137 0 -240 43.5t-159.5 118t-77 169.5t-3.5 203l8 51h303l-8 -51q-11 -69 8.5 -129.5t74.5 -101t136 -40.5q118 0 201 76.5t100 179.5l157 997h304l-157 -997q-17 -106 -69 -199.5t-132.5 -165t-196 -113t-249.5 -41.5z" />
    <glyph glyph-name="K" unicode="K" horiz-adv-x="1430" 
d="M240 530l-84 -530h-302l238 1505h302l-89 -565l615 565h375l-632 -584l441 -921h-351l-329 699z" />
    <glyph glyph-name="L" unicode="L" horiz-adv-x="1241" 
d="M956 260l-41 -260h-1061l238 1505h302l-197 -1245h759z" />
    <glyph glyph-name="M" unicode="M" horiz-adv-x="1585" 
d="M303 926l-147 -926h-302l238 1505h250l352 -637l553 637h249l-238 -1505h-301l146 923l-434 -498h-92z" />
    <glyph glyph-name="N" unicode="N" horiz-adv-x="1395" 
d="M304 935l-148 -935h-302l238 1505h250l516 -929l147 929h301l-238 -1505h-250z" />
    <glyph glyph-name="O" unicode="O" horiz-adv-x="1710" 
d="M615 -24q-249 0 -412.5 125t-216.5 326q-41 147 -13 325q29 178 116 325q116 200 319.5 325t452.5 125q129 0 239 -36t189 -100t131.5 -148.5t76.5 -184.5q33 -148 7 -306q-25 -160 -105 -307q-112 -207 -320.5 -338t-463.5 -131zM657 239q158 0 281 83t193 217
q52 96 70 213q19 117 -2 214q-28 133 -125.5 216t-254.5 83q-153 0 -273.5 -79t-192.5 -208q-59 -103 -78 -226t6 -226q32 -130 127.5 -208.5t248.5 -78.5z" />
    <glyph glyph-name="P" unicode="P" horiz-adv-x="1300" 
d="M241 535l-85 -535h-302l238 1505h562q169 0 287 -64.5t166.5 -174t26.5 -247.5q-33 -211 -205.5 -347.5t-427.5 -136.5h-260zM613 1246h-260l-71 -450h260q117 0 193 62.5t92 162.5q15 100 -41 162.5t-173 62.5z" />
    <glyph glyph-name="Q" unicode="Q" horiz-adv-x="1710" 
d="M1127 141l117 -273l-279 -134l-116 275q-119 -33 -234 -33q-235 0 -396.5 114.5t-222.5 300.5q-54 163 -23 361q32 198 137 361q120 187 317.5 300.5t433.5 113.5q235 0 397.5 -114t223.5 -300q52 -166 22 -361q-28 -175 -122.5 -336.5t-254.5 -274.5zM657 239q51 0 94 8
l-162 389l259 151l173 -399q145 142 180 364q19 117 -2 214q-27 133 -125 216t-255 83q-156 0 -279.5 -83t-194.5 -216q-51 -95 -70 -214q-18 -120 2 -213q29 -133 126.5 -216.5t253.5 -83.5z" />
    <glyph glyph-name="R" unicode="R" horiz-adv-x="1388" 
d="M241 535l-85 -535h-302l238 1505h562q169 0 287 -64.5t166.5 -174t26.5 -247.5q-21 -133 -104.5 -246t-225.5 -176l258 -597h-348l-230 535h-243zM613 1246h-260l-71 -450h260q117 0 193 62.5t92 162.5q15 100 -41 162.5t-173 62.5z" />
    <glyph glyph-name="S" unicode="S" horiz-adv-x="1365" 
d="M492 -24q-185 0 -322.5 84.5t-200.5 225.5q-26 60 -42 148l-2 13l294 115l2 -21q8 -63 28 -115t56 -95.5t94.5 -67.5t134.5 -24q102 0 177 43.5t87 122.5q12 75 -22.5 112.5t-125.5 67.5q-40 13 -123.5 36.5t-123.5 36.5q-174 57 -259 166t-60 266q29 189 197.5 313.5
t397.5 124.5q166 0 293 -71.5t191 -194.5q33 -65 48 -148l2 -13l-293 -121l-3 20q-10 58 -27.5 103t-49 83.5t-82 59.5t-118.5 21q-102 0 -172 -44t-82 -123q-20 -129 153 -185q40 -12 118.5 -35t115.5 -34q378 -117 329 -428q-31 -195 -202.5 -318.5t-407.5 -123.5z" />
    <glyph glyph-name="T" unicode="T" horiz-adv-x="1263" 
d="M744 1246l-197 -1246h-301l197 1246h-392l41 259h1084l-41 -259h-391z" />
    <glyph glyph-name="U" unicode="U" horiz-adv-x="1338" 
d="M429 -24q-181 0 -303 70t-169.5 186.5t-24.5 262.5l160 1010h304l-160 -1010q-16 -107 47.5 -181.5t187.5 -74.5q123 0 211 75.5t104 180.5l160 1010h304l-160 -1010q-17 -108 -70.5 -202.5t-137 -165t-200.5 -111t-253 -40.5z" />
    <glyph glyph-name="V" unicode="V" horiz-adv-x="1591" 
d="M1504 1505l-809 -1505h-270l-333 1505h318l222 -1052l553 1052h319z" />
    <glyph glyph-name="W" unicode="W" horiz-adv-x="2203" 
d="M1022 991l-445 -991h-277l-208 1505h309l125 -971l428 971h299l122 -968l431 968h310l-685 -1505h-278z" />
    <glyph glyph-name="X" unicode="X" horiz-adv-x="1494" 
d="M591 502l-400 -502h-337l607 766l-353 739h340l227 -474l375 474h341l-591 -739l368 -766h-338z" />
    <glyph glyph-name="Y" unicode="Y" horiz-adv-x="1585" 
d="M711 17l-3 -17h-301l59 370l35 221l11 72l3 20l2 3q-15 70 -56 132q-8 13 -24.5 37.5t-30.5 47t-26 45.5l-288 557h341l278 -536l445 536h341l-462 -557q-26 -31 -72 -79t-49 -51q-67 -70 -98 -132q1 -1 0 -3l-3 -20l-11 -72l-35 -221z" />
    <glyph glyph-name="Z" unicode="Z" horiz-adv-x="1353" 
d="M1068 260l-41 -260h-1173l28 174l922 1072h-704l41 259h1107l-27 -174l-924 -1071h771z" />
    <glyph glyph-name="bracketleft" unicode="[" horiz-adv-x="877" 
d="M532 131l-41 -259h-527l277 1751h527l-41 -259h-226l-195 -1233h226z" />
    <glyph glyph-name="backslash" unicode="\" horiz-adv-x="1103" 
d="M365 1495l462 -1495h-323l-463 1495h324z" />
    <glyph glyph-name="bracketright" unicode="]" horiz-adv-x="877" 
d="M678 1623l-277 -1751h-527l41 259h227l195 1233h-227l41 259h527z" />
    <glyph glyph-name="asciicircum" unicode="^" horiz-adv-x="1387" 
d="M633 1104l-228 -326h-328l505 717h226l276 -717h-329z" />
    <glyph glyph-name="underscore" unicode="_" horiz-adv-x="1059" 
d="M813 131l-41 -259h-998l41 259h998z" />
    <glyph glyph-name="grave" unicode="`" horiz-adv-x="613" 
d="M383 1644l152 -409h-279l-190 409h317z" />
    <glyph glyph-name="a" unicode="a" horiz-adv-x="1133" 
d="M275 -23q-188 0 -290.5 101t-77.5 257q14 92 79 165t153.5 116t198.5 66l304 65q-1 53 -46 81.5t-117 28.5q-164 0 -181 -111l-3 -33l-2 -17l-293 -4l8 53q22 141 119 233.5t266 124.5q67 13 126 13q210 0 320.5 -110t82.5 -284l-114 -722h-282l7 47q-125 -70 -258 -70z
M316 236q115 0 193.5 76.5t94.5 179.5l1 9l-233 -50q-67 -15 -117.5 -45t-56.5 -72q-7 -48 25 -73t93 -25z" />
    <glyph glyph-name="b" unicode="b" horiz-adv-x="1303" 
d="M404 -24q-147 0 -263 62l-6 -38h-281l237 1495h281l-70 -438q135 63 283 63q185 0 306.5 -91t161.5 -239q32 -112 11 -243t-88 -242q-86 -147 -237 -238t-335 -91zM446 238q68 0 126.5 27.5t97.5 73t63.5 99t33.5 109.5q5 45 4 89t-17.5 84.5t-41.5 71t-68.5 49
t-99.5 18.5q-69 0 -127.5 -27.5t-97.5 -73.5t-64 -100t-34 -111q-12 -77 5 -145t73.5 -116t146.5 -48z" />
    <glyph glyph-name="c" unicode="c" horiz-adv-x="1270" 
d="M419 -24q-187 0 -309 94t-161 244q-29 109 -8 233q19 127 82 234q86 151 238 245t339 94q134 0 240.5 -52.5t168.5 -145.5q28 -45 52 -99l7 -13l-275 -148l-7 19q-64 178 -227 178q-55 0 -104 -18.5t-85 -49t-64.5 -71t-45 -84.5t-23.5 -89q-5 -45 -3.5 -88.5t18 -83.5
t42 -70.5t69 -48.5t98.5 -18q163 0 270 158l25 39l229 -149l-11 -13q-56 -71 -83 -98q-94 -94 -216 -146.5t-256 -52.5z" />
    <glyph glyph-name="d" unicode="d" horiz-adv-x="1303" 
d="M419 -24q-184 0 -305.5 90.5t-162.5 238.5q-31 114 -10 242q21 133 87 244q88 148 237.5 238.5t334.5 90.5q151 0 263 -62l69 437h282l-237 -1495h-282l6 38q-131 -62 -282 -62zM461 238q68 0 126.5 27.5t97.5 73t64 99t34 109.5q5 45 4 89t-17.5 84.5t-42.5 71t-69.5 49
t-98.5 18.5t-104 -18.5t-85 -49t-64.5 -71t-45 -84.5t-23.5 -89q-5 -45 -3.5 -88.5t18 -83.5t42 -70.5t69 -48.5t98.5 -18z" />
    <glyph glyph-name="e" unicode="e" horiz-adv-x="1318" 
d="M419 -24q-175 0 -295.5 84t-165.5 222q-40 120 -17 265q23 146 101 267q89 137 236 221.5t322 84.5q174 0 296 -84.5t167 -221.5q39 -124 17 -267q-14 -80 -15 -89l-3 -17h-827q13 -88 70 -145.5t156 -57.5q162 0 270 158l25 39l229 -149l-11 -13q-30 -38 -46 -57
q-21 -25 -51 -55q-91 -87 -210 -136t-248 -49zM286 692h494q-21 75 -76.5 121t-144.5 46q-88 0 -159 -46.5t-114 -120.5z" />
    <glyph glyph-name="f" unicode="f" horiz-adv-x="935" 
d="M465 834l-132 -834h-281l132 834h-198l41 260h198l6 37q12 71 46.5 137t89 119.5t135 85.5t173.5 32q79 0 156 -21l13 -4l-39 -247l-25 6q-79 18 -130 18q-117 0 -138 -126l-6 -37h242l-41 -260h-242z" />
    <glyph glyph-name="g" unicode="g" horiz-adv-x="1292" 
d="M355 -403q-138 0 -248 57t-169 154q-26 42 -48 109l-4 13l273 136l12 -40q48 -170 222 -170q91 0 165.5 44t112.5 118q15 28 23 63q3 13 7 34q-129 -66 -279 -66q-101 0 -186.5 30.5t-143.5 83t-96 120.5t-50 145t0 155q16 100 69.5 195t135 170.5t196.5 121.5t244 46
q149 0 258 -68l7 46h282l-157 -992q-15 -98 -67.5 -188.5t-132 -161.5t-190.5 -113t-236 -42zM463 309q127 0 210.5 80.5t101.5 193.5q18 112 -41.5 193t-185.5 81t-209 -80.5t-102 -193.5q-18 -114 40 -194t186 -80z" />
    <glyph glyph-name="h" unicode="h" horiz-adv-x="1120" 
d="M238 653l-103 -653h-281l237 1495h281l-66 -415q99 36 194 36q140 0 240 -56.5t142 -150.5t24 -208l-111 -701h-283l103 653q14 87 -23 145.5t-131 58.5t-151.5 -58.5t-71.5 -145.5z" />
    <glyph glyph-name="i" unicode="i" horiz-adv-x="462" 
d="M372 1495l-53 -332h-281l53 332h281zM308 1094l-173 -1094h-281l173 1094h281z" />
    <glyph glyph-name="j" unicode="j" horiz-adv-x="728" 
d="M639 1495l-53 -332h-283l53 332h283zM-45 -403q-39 0 -75 6q-34 4 -71 12l-15 3l38 244l23 -3q103 -14 133 -14q54 0 86 36t40 90l178 1123h283l-178 -1123q-11 -72 -45.5 -137.5t-88.5 -119t-134 -85.5t-174 -32z" />
    <glyph glyph-name="k" unicode="k" horiz-adv-x="1190" 
d="M187 329l-52 -329h-281l237 1495h281l-125 -787l434 386h356l-509 -458l304 -636h-328l-204 431z" />
    <glyph glyph-name="l" unicode="l" horiz-adv-x="462" 
d="M372 1495l-237 -1495h-281l237 1495h281z" />
    <glyph glyph-name="m" unicode="m" horiz-adv-x="1737" 
d="M238 653l-103 -653h-281l173 1094h281l-2 -13q97 35 188 35q203 0 301 -117q73 57 167.5 87t192.5 30q68 0 126 -16.5t100 -45.5t74 -68.5t48 -85.5t22.5 -96.5t-3.5 -101.5l-111 -702h-281l104 655q13 86 -22 144t-125 58q-88 0 -142.5 -59t-67.5 -143l-104 -655h-282
l104 655q5 41 1 78t-26 68.5t-61 45.5q-30 10 -54 10q-25 0 -58 -10q-133 -41 -159 -194z" />
    <glyph glyph-name="n" unicode="n" horiz-adv-x="1120" 
d="M238 653l-103 -653h-281l173 1094h281l-2 -14q99 36 194 36q140 0 240 -56.5t142 -150.5t24 -208l-111 -701h-283l103 653q14 87 -23 145.5t-131 58.5t-151.5 -58.5t-71.5 -145.5z" />
    <glyph glyph-name="o" unicode="o" horiz-adv-x="1318" 
d="M419 -24q-186 0 -307.5 92.5t-161.5 241.5q-30 109 -9 237q13 84 48 165t93 155t133 130t174.5 89.5t210.5 33.5q191 0 314.5 -97t158.5 -251q26 -104 7 -225q-21 -127 -85 -237q-87 -149 -239 -241.5t-337 -92.5zM461 238q68 0 126.5 27.5t97.5 73t64 99t34 109.5
q5 45 4 89t-17.5 84.5t-42.5 71t-69.5 49t-98.5 18.5t-104 -18.5t-85 -49t-64.5 -71t-45 -84.5t-23.5 -89q-5 -45 -3.5 -88.5t18 -83.5t42 -70.5t69 -48.5t98.5 -18z" />
    <glyph glyph-name="p" unicode="p" horiz-adv-x="1303" 
d="M141 37l-69 -437h-281l236 1494h281l-6 -38q130 63 283 63q185 0 306.5 -91t161.5 -239q32 -113 10 -243q-19 -129 -87 -242q-86 -147 -237 -238t-335 -91q-148 0 -263 62zM446 237q132 0 216.5 93.5t103.5 215.5q12 55 2.5 110.5t-32.5 100.5t-73 73t-119 28
t-127.5 -27.5t-97.5 -73.5t-64.5 -100t-34.5 -111q-11 -54 -0.5 -109.5t34.5 -99.5t74 -72t118 -28z" />
    <glyph glyph-name="q" unicode="q" horiz-adv-x="1303" 
d="M1150 1094l-236 -1494h-282l69 437q-131 -62 -282 -62q-184 0 -305.5 91t-162.5 238q-30 112 -11 242q23 134 88 244q88 148 237.5 238.5t334.5 90.5q152 0 262 -63l6 38h282zM461 237q132 0 217 93.5t104 215.5q5 45 4 89t-17 84.5t-42 71t-69.5 49t-98.5 18.5
t-104 -18.5t-85.5 -49t-64.5 -71t-45 -84.5t-24 -89q-5 -44 -3.5 -87.5t18.5 -83.5t42.5 -71t69 -49t98.5 -18z" />
    <glyph glyph-name="r" unicode="r" horiz-adv-x="800" 
d="M238 653l-103 -653h-281l173 1094h281l-2 -14q99 36 194 36q46 0 132 -16l16 -2l-42 -267l-48 10q-7 1 -24 5t-26 6q-28 5 -47 5q-94 0 -151.5 -58.5t-71.5 -145.5z" />
    <glyph glyph-name="s" unicode="s" horiz-adv-x="1117" 
d="M348 -23q-182 0 -297 97.5t-142 246.5l-2 12l269 125l4 -20l10 -39q19 -73 68.5 -117t131.5 -44q57 0 99.5 22.5t48.5 63.5q5 29 -26 50q-19 13 -73 29l-150 44q-136 40 -202.5 123t-46.5 205q23 150 151 245.5t309 95.5q134 0 232 -57.5t146 -157.5q19 -41 31 -98l5 -26
l-273 -119l-2 21l-4 21q-13 71 -56.5 115t-119.5 44q-50 0 -85.5 -19.5t-41.5 -54.5q-5 -31 17 -49t71 -36q26 -9 78.5 -25t78.5 -25q289 -96 252 -330q-24 -152 -160.5 -247.5t-320.5 -95.5z" />
    <glyph glyph-name="t" unicode="t" horiz-adv-x="905" 
d="M421 -12q-65 0 -117.5 13t-88.5 37t-62 57t-37.5 72.5t-14.5 84.5t6 93l77 489h-198l41 260h198l51 318h281l-51 -318h242l-41 -260h-242l-77 -489q-10 -61 8.5 -88t84.5 -27q31 0 55 4l82 10l-38 -238l-17 -3q-86 -15 -142 -15z" />
    <glyph glyph-name="u" unicode="u" horiz-adv-x="1120" 
d="M322 -21q-211 0 -322.5 120t-83.5 294l111 701h281l-103 -653q-14 -86 24.5 -144t131.5 -58q94 0 150.5 57.5t70.5 144.5l103 653h283l-173 -1094h-283l2 14q-99 -35 -192 -35z" />
    <glyph glyph-name="v" unicode="v" horiz-adv-x="1318" 
d="M1164 1094l-626 -1094h-232l-279 1094h312l154 -649l359 649h312z" />
    <glyph glyph-name="w" unicode="w" horiz-adv-x="1828" 
d="M774 598l-286 -598h-240l-221 1094h313l103 -596l280 596h255l91 -593l293 593h312l-569 -1094h-238z" />
    <glyph glyph-name="x" unicode="x" horiz-adv-x="1320" 
d="M476 322l-285 -322h-337l487 546l-314 548h337l183 -323l283 323h337l-488 -548l315 -546h-337z" />
    <glyph glyph-name="y" unicode="y" horiz-adv-x="1355" 
d="M1201 1094l-871 -1497h-307l270 478l-266 1019h316l169 -650l373 650h316z" />
    <glyph glyph-name="z" unicode="z" horiz-adv-x="1082" 
d="M797 259l-41 -259h-902l31 196l607 638h-475l41 260h869l-31 -195l-606 -640h507z" />
    <glyph glyph-name="braceleft" unicode="{" horiz-adv-x="869" 
d="M544 3l-41 -259h-141q-162 0 -239 94t-55 229l56 354q5 31 -2 49q-7 19 -34 19h-127l41 259h127q29 0 40 18q12 17 17 49l56 356q22 135 129 229.5t269 94.5h141l-41 -260h-141q-21 0 -36 -15.5t-19 -39.5q-20 -124 -58 -374q-18 -108 -95 -188q53 -83 35 -186l-3 -15
l-57 -358q-8 -56 37 -56h141z" />
    <glyph glyph-name="bar" unicode="|" horiz-adv-x="821" 
d="M591 1679l-321 -2027h-301l321 2027h301z" />
    <glyph glyph-name="braceright" unicode="}" horiz-adv-x="869" 
d="M-49 -256h-138l41 259h138q21 0 36.5 16t19.5 40q10 62 29 185.5t29 185.5q16 107 96 188q-52 85 -37 185q0 3 1.5 9.5t2.5 10.5l57 357q8 55 -38 55h-138l41 260h138q83 0 145.5 -26.5t98 -72t48.5 -103t3 -122.5l-56 -356q-5 -31 2 -49q8 -18 32 -18h130l-41 -259h-130
q-24 0 -38 -19q-11 -15 -17 -49l-56 -354q-21 -135 -128.5 -229t-270.5 -94z" />
    <glyph glyph-name="asciitilde" unicode="~" horiz-adv-x="1463" 
d="M768 548q-106 0 -205 68q-52 36 -65 43q-30 18 -53 18q-33 0 -56 -35q-18 -25 -29 -71l-2 -17h-276l15 56q16 61 43 114t70 103t109.5 79.5t148.5 29.5q108 0 207 -68q11 -7 33 -22t32 -21q30 -18 53 -18q25 0 46 37q7 12 17 38q5 13 12 34l5 14h271l-14 -55
q-13 -48 -30 -90t-47.5 -87t-68 -77t-94 -52.5t-122.5 -20.5z" />
    <glyph glyph-name="uni00A0" unicode="&#xa0;" horiz-adv-x="330" 
 />
    <glyph glyph-name="exclamdown" unicode="&#xa1;" horiz-adv-x="702" 
d="M442 1116l-53 -333h-301l53 333h301zM370 724l-164 -1103h-302l185 1103h281z" />
    <glyph glyph-name="cent" unicode="&#xa2;" horiz-adv-x="1230" 
d="M543 -9l-37 -231h-280l38 237q-133 36 -216 128.5t-108.5 203.5t-6.5 231q14 88 53 173.5t101 162.5t153.5 136t200.5 86l38 238h280l-37 -231q95 -22 170.5 -76.5t117.5 -127.5q24 -42 46 -110l4 -13l-273 -133l-5 20q-32 115 -104 161l-91 -576q48 25 83.5 64.5
t70.5 96.5l12 19l231 -132l-8 -13q-43 -68 -81 -111q-65 -73 -157.5 -127.5t-194.5 -75.5zM310 288l85 540q-70 -47 -114.5 -120t-57.5 -150q-12 -76 10 -150t77 -120z" />
    <glyph glyph-name="sterling" unicode="&#xa3;" horiz-adv-x="1689" 
d="M1244 259l-41 -259h-1167l41 259h227l57 360h-269l117 259h193l28 176q15 94 62 177.5t120 147.5t176.5 101t222.5 37q150 0 259 -64t164 -176q28 -56 45 -148l3 -13l-279 -117l-1 22q-8 102 -65.5 169.5t-166.5 67.5q-105 0 -165.5 -55.5t-74.5 -148.5l-28 -176h564
l-118 -259h-487l-57 -360h640z" />
    <glyph glyph-name="currency" unicode="&#xa4;" horiz-adv-x="1424" 
d="M932 359l128 -149l-224 -188l-130 152q-104 -48 -210 -48q-108 0 -195 48l-181 -152l-163 188l176 149q-37 96 -22 199q16 100 86 200l-130 146l223 189l133 -151q108 48 210 48q103 0 194 -48l179 151l164 -189l-176 -146q38 -100 22 -200q-16 -107 -84 -199zM539 396
q69 0 122.5 49.5t62.5 112.5q10 62 -28 112.5t-106 50.5q-70 0 -123.5 -50t-63.5 -113q-9 -64 28 -113t108 -49z" />
    <glyph glyph-name="yen" unicode="&#xa5;" horiz-adv-x="1496" 
d="M708 282l-45 -282h-300l45 282h-435l41 259h435l2 15h-435l41 259h344l-350 680h340l275 -531l441 531h340l-564 -680h320l-41 -259h-411l-2 -15h411l-41 -259h-411z" />
    <glyph glyph-name="brokenbar" unicode="&#xa6;" horiz-adv-x="821" 
d="M591 1679l-130 -820h-301l130 820h301zM400 472l-130 -820h-301l130 820h301z" />
    <glyph glyph-name="section" unicode="&#xa7;" horiz-adv-x="1371" 
d="M472 -81q-177 0 -295 89t-150 231q-1 2 -6 29l-2 13l271 120l5 -19q4 -12 8 -38q20 -75 72.5 -121t137.5 -46q61 0 107 24t53 68q4 31 -29 53q-26 17 -76 32q-29 9 -84.5 23.5t-72.5 19.5q-141 41 -209 124.5t-48 210.5q21 133 127 220q-77 92 -58 219q25 154 155.5 250
t316.5 96q132 0 231.5 -55t149.5 -151q29 -58 43 -127l2 -13l-278 -118l-2 23q-6 77 -54.5 129.5t-132.5 52.5q-54 0 -92.5 -19.5t-44.5 -57.5q-5 -32 20.5 -53.5t73.5 -37.5q31 -11 89 -28t75 -22q295 -96 258 -336q-21 -132 -135 -215q86 -92 65 -224q-16 -103 -86 -182.5
t-176 -121.5t-229 -42zM576 640l61 -18q20 5 26 7q32 10 53.5 31.5t25.5 47.5q5 30 -24.5 51t-78.5 34l-115 33q-31 -13 -52 -36t-25 -49q-5 -39 36 -64q19 -12 44 -21q10 -3 27.5 -8.5t21.5 -7.5z" />
    <glyph glyph-name="dieresis" unicode="&#xa8;" horiz-adv-x="765" 
d="M191 1235q-84 0 -126.5 52.5t-31.5 120.5q10 67 69.5 118.5t142.5 51.5q53 0 90 -24t55 -63q29 39 74.5 63t98.5 24q79 0 122 -53t33 -117q-11 -66 -69.5 -119.5t-139.5 -53.5q-54 0 -92 23.5t-55 62.5q-65 -86 -171 -86z" />
    <glyph glyph-name="copyright" unicode="&#xa9;" horiz-adv-x="1975" 
d="M988 -23q-246 0 -442.5 131.5t-284.5 339.5q-61 141 -61 298q0 116 36 228.5t106 209t164.5 170.5t219 116t262.5 42q239 0 433 -126.5t285 -325.5q69 -150 69 -314q0 -169 -70 -318q-92 -200 -285 -325.5t-432 -125.5zM988 208q170 0 305 90t196 235q42 97 42 213
q0 138 -66.5 260t-193 199t-283.5 77q-158 0 -284.5 -76.5t-193.5 -198.5t-67 -261q0 -114 43 -213q61 -146 196 -235.5t306 -89.5zM997 305q-101 0 -185.5 37.5t-139 100t-84 141t-29.5 162.5t29.5 162.5t84 140.5t138.5 99t186 37q135 0 242 -71t144 -185l5 -14l-212 -101
l-7 21q-21 62 -64.5 100.5t-107.5 38.5q-95 0 -147 -67.5t-52 -160.5q0 -94 52 -162.5t147 -68.5q123 0 172 142l7 21l211 -105l-4 -13q-37 -114 -144 -184.5t-242 -70.5z" />
    <glyph glyph-name="ordfeminine" unicode="&#xaa;" horiz-adv-x="918" 
d="M273 657q-144 0 -222.5 77t-59.5 196q12 78 68 136.5t145 94.5l-155 84l8 12l17 28q60 98 166.5 160t231.5 62q157 0 239.5 -88t61.5 -217l-84 -530h-270l3 15q-74 -30 -149 -30zM316 1195q54 13 181 38q-12 31 -64 31q-67 0 -117 -69zM319 893q53 0 93 32t55 79
l-121 -26q-70 -15 -76 -50q-3 -18 9 -26.5t40 -8.5z" />
    <glyph glyph-name="guillemotleft" unicode="&#xab;" horiz-adv-x="1448" 
d="M336 558l277 -413h-356l-275 413l406 413h356zM790 558l274 -413h-353l-276 413l407 413h353z" />
    <glyph glyph-name="uni00AD" unicode="&#xad;" horiz-adv-x="1190" 
d="M872 688l-41 -259h-809l41 259h809z" />
    <glyph glyph-name="registered" unicode="&#xae;" horiz-adv-x="1975" 
d="M988 -23q-246 0 -442.5 131.5t-284.5 339.5q-61 141 -61 298q0 116 36 228.5t106 209t164.5 170.5t219 116t262.5 42q239 0 433 -126.5t285 -325.5q69 -150 69 -314q0 -169 -70 -318q-92 -200 -285 -325.5t-432 -125.5zM988 208q187 0 331 108h-168l-161 285h-76v-285
h-238v860h350q147 0 236 -79.5t89 -208.5q0 -72 -31 -133.5t-94 -100.5l161 -276q144 150 144 368q0 138 -66.5 260t-193 199t-283.5 77q-158 0 -284.5 -76.5t-193.5 -198.5t-67 -261q0 -114 43 -213q62 -146 196.5 -235.5t305.5 -89.5zM1028 967h-114v-156h114
q40 0 62.5 21t22.5 56q0 36 -22.5 57.5t-62.5 21.5z" />
    <glyph glyph-name="macron" unicode="&#xaf;" horiz-adv-x="639" 
d="M587 1411l-38 -240h-560l38 240h560z" />
    <glyph glyph-name="degree" unicode="&#xb0;" horiz-adv-x="1150" 
d="M467 805q-111 0 -190 53.5t-111 134t-18 167.5q10 65 46.5 128t91 114.5t131.5 83t162 31.5q84 0 151.5 -31.5t106 -83t55 -114.5t6.5 -128t-46.5 -128t-92 -113.5t-132 -82t-160.5 -31.5zM503 1050q44 0 81.5 34t44.5 76q6 43 -20 77.5t-71 34.5q-44 0 -80 -35t-42 -77
q-7 -42 18 -76t69 -34z" />
    <glyph glyph-name="plusminus" unicode="&#xb1;" horiz-adv-x="1322" 
d="M668 615l-50 -316h-290l50 316h-327l43 268h327l50 315h290l-50 -315h325l-43 -268h-325zM938 268l-42 -268h-942l42 268h942z" />
    <glyph glyph-name="acute" unicode="&#xb4;" horiz-adv-x="613" 
d="M625 1644l-316 -409h-281l281 409h316z" />
    <glyph glyph-name="uni00B5" unicode="&#xb5;" horiz-adv-x="1179" 
d="M158 3l-58 -369h-274l235 1482h274l-113 -712q-12 -78 21 -130t116 -52q113 0 216 67l131 827h274l-177 -1116h-274l3 19q-121 -42 -227 -42q-72 0 -147 26z" />
    <glyph glyph-name="paragraph" unicode="&#xb6;" horiz-adv-x="899" 
d="M730 1495l-266 -1677h-301l153 964q-89 19 -149.5 75t-82.5 128.5t-10 149.5q10 65 46 128.5t90.5 115.5t131.5 84t162 32h226z" />
    <glyph glyph-name="periodcentered" unicode="&#xb7;" horiz-adv-x="721" 
d="M420 914l-53 -332h-301l53 332h301z" />
    <glyph glyph-name="cedilla" unicode="&#xb8;" horiz-adv-x="662" 
d="M47 -377q-142 0 -254 110l-27 27l157 200l17 -20q21 -27 37 -43.5t41.5 -31t53.5 -14.5q33 0 37 28q7 47 -68 96q-35 24 -70 40q-20 10 -65 30l-81 36l287 82l7 -3q65 -25 91 -40q83 -45 125 -112t28 -151q-16 -102 -104.5 -168t-211.5 -66z" />
    <glyph glyph-name="ordmasculine" unicode="&#xba;" horiz-adv-x="1043" 
d="M390 657q-70 0 -129.5 17t-102 47t-75 71t-48.5 88.5t-22.5 99.5t3.5 104q13 79 54.5 154t105.5 135.5t155.5 97t193.5 36.5t181.5 -36.5t124.5 -97t63 -135.5t5 -154t-54.5 -154.5t-105 -136.5t-155 -98.5t-194.5 -37.5zM429 901q76 0 128.5 55t63.5 126t-24.5 126
t-110.5 55t-128 -55t-64 -126t24.5 -126t110.5 -55z" />
    <glyph glyph-name="guillemotright" unicode="&#xbb;" horiz-adv-x="1448" 
d="M718 558l-407 -413h-354l405 413l-274 413h354zM1169 558l-404 -413h-355l406 413l-275 413h355z" />
    <glyph glyph-name="questiondown" unicode="&#xbf;" horiz-adv-x="1257" 
d="M843 1517l-52 -332h-301l52 332h301zM372 0q-202 0 -312.5 112.5t-83.5 279.5q9 58 32.5 109t64 98.5t78 82.5t96.5 84q54 44 80 66q45 40 72 69q47 53 62 98q11 31 23 110l2 16h301l-13 -83q-10 -62 -35 -117.5t-65 -103.5t-75 -82t-87 -77l-83 -68q-52 -44 -72 -65
q-70 -73 -80 -137q-10 -63 25 -98t111 -35q60 0 107.5 18.5t82 54.5t57.5 73.5t48 91.5l9 22l238 -117l-5 -12q-71 -168 -223.5 -279t-354.5 -111z" />
    <glyph glyph-name="Agrave" unicode="&#xc0;" horiz-adv-x="1548" 
d="M924 1991l153 -411h-281l-190 411h318zM352 386l-202 -386h-318l809 1505h270l333 -1505h-319l-78 386h-495zM792 646l-86 415l-218 -415h304z" />
    <glyph glyph-name="Aacute" unicode="&#xc1;" horiz-adv-x="1548" 
d="M1150 1991l-319 -411h-282l283 411h318zM352 386l-202 -386h-318l809 1505h270l333 -1505h-319l-78 386h-495zM792 646l-86 415l-218 -415h304z" />
    <glyph glyph-name="Acircumflex" unicode="&#xc2;" horiz-adv-x="1548" 
d="M812 1733l-139 -153h-310l379 411h220l254 -411h-309zM352 386l-202 -386h-318l809 1505h270l333 -1505h-319l-78 386h-495zM792 646l-86 415l-218 -415h304z" />
    <glyph glyph-name="Atilde" unicode="&#xc3;" horiz-adv-x="1548" 
d="M939 1580q-71 0 -149 44q-29 20 -45 28q-12 8 -22 10q-5 -10 -7 -17q-4 -9 -7.5 -24t-3.5 -16l-3 -16h-259l11 54q22 98 99 175.5t195 77.5q75 0 147 -43q11 -6 27 -16t20 -12q15 -8 22 -9l8 17l12 42l4 14h255l-11 -52q-10 -46 -32 -89t-57 -82t-88 -62.5t-116 -23.5z
M352 386l-202 -386h-318l809 1505h270l333 -1505h-319l-78 386h-495zM792 646l-86 415l-218 -415h304z" />
    <glyph glyph-name="Adieresis" unicode="&#xc4;" horiz-adv-x="1548" 
d="M571 1567q-84 0 -126 52t-32 120q11 67 71 119t142 52t124.5 -52.5t31.5 -118.5q-10 -68 -68.5 -120t-142.5 -52zM993 1567q-84 0 -126 52t-32 120q11 67 71 119t142 52t124.5 -52.5t31.5 -118.5q-10 -68 -68.5 -120t-142.5 -52zM352 386l-202 -386h-318l809 1505h270
l333 -1505h-319l-78 386h-495zM792 646l-86 415l-218 -415h304z" />
    <glyph glyph-name="Aring" unicode="&#xc5;" horiz-adv-x="1548" 
d="M786 1580q-116 0 -176 74t-45 169t99 167.5t199 72.5q116 0 177.5 -73t46.5 -167q-15 -95 -100 -169t-201 -74zM814 1759q26 0 45.5 19.5t23.5 46.5q4 25 -10 41.5t-40 16.5q-25 0 -42.5 -16.5t-21.5 -41.5q-4 -26 9 -46t36 -20zM352 386l-202 -386h-318l809 1505h270
l333 -1505h-319l-78 386h-495zM792 646l-86 415l-218 -415h304z" />
    <glyph glyph-name="AE" unicode="&#xc6;" horiz-adv-x="1872" 
d="M374 386l-202 -386h-318l809 1505l1122 3l-41 -259h-758l-54 -339h664l-41 -261h-664l-61 -386h758l-42 -260h-1061l61 383h-172zM587 646l34 211l-111 -211h77z" />
    <glyph glyph-name="Ccedilla" unicode="&#xc7;" horiz-adv-x="1633" 
d="M513 -381q-154 0 -275 130l-7 8l158 203l16 -22q64 -90 134 -90q31 0 37 29q6 43 -55 95l-16 11q-8 5 -13 6q-54 9 -56 9q-70 14 -135 46q-85 41 -150 101t-103.5 129.5t-61.5 150t-23.5 162t10.5 165.5q31 193 131 351q120 191 318.5 307.5t438.5 116.5q176 0 314 -68
t224 -189q32 -44 67 -122q12 -29 12 -31l3 -13l-279 -135l-14 37q-16 48 -34 78q-50 84 -136 132.5t-199 48.5q-150 0 -268.5 -76t-193.5 -202q-61 -107 -82 -235t8 -236q34 -126 129 -201.5t245 -75.5q266 0 451 253l24 35l234 -139l-20 -27q-98 -134 -235 -229.5
t-304 -133.5q35 -66 23 -142q-16 -103 -104.5 -170t-212.5 -67z" />
    <glyph glyph-name="Egrave" unicode="&#xc8;" horiz-adv-x="1210" 
d="M713 1991l151 -411h-281l-187 411h317zM940 260l-41 -260h-1061l238 1505h1061l-41 -259h-759l-53 -339h665l-42 -261h-665l-61 -386h759z" />
    <glyph glyph-name="Eacute" unicode="&#xc9;" horiz-adv-x="1210" 
d="M1052 1991l-319 -411h-280l280 411h319zM940 260l-41 -260h-1061l238 1505h1061l-41 -259h-759l-53 -339h665l-42 -261h-665l-61 -386h759z" />
    <glyph glyph-name="Ecircumflex" unicode="&#xca;" horiz-adv-x="1210" 
d="M649 1735l-140 -153h-309l379 410h220l254 -410h-309zM940 260l-41 -260h-1061l238 1505h1061l-41 -259h-759l-53 -339h665l-42 -261h-665l-61 -386h759z" />
    <glyph glyph-name="Edieresis" unicode="&#xcb;" horiz-adv-x="1210" 
d="M421 1571q-84 0 -126 52t-31 120q10 67 69.5 119t141.5 52t124.5 -52t32.5 -119q-10 -68 -68.5 -120t-142.5 -52zM843 1571q-84 0 -126 52t-31 120q10 67 69.5 119t141.5 52t124.5 -52t32.5 -119q-10 -68 -68.5 -120t-142.5 -52zM940 260l-41 -260h-1061l238 1505h1061
l-41 -259h-759l-53 -339h665l-42 -261h-665l-61 -386h759z" />
    <glyph glyph-name="Igrave" unicode="&#xcc;" horiz-adv-x="516" 
d="M397 1991l153 -411h-281l-191 411h319zM414 1505l-238 -1505h-301l238 1505h301z" />
    <glyph glyph-name="Iacute" unicode="&#xcd;" horiz-adv-x="516" 
d="M616 1991l-319 -411h-281l283 411h317zM408 1505l-238 -1505h-301l238 1505h301z" />
    <glyph glyph-name="Icircumflex" unicode="&#xce;" horiz-adv-x="531" 
d="M299 1734l-142 -154h-308l380 412h220l253 -412h-309zM418 1505l-238 -1505h-302l238 1505h302z" />
    <glyph glyph-name="Idieresis" unicode="&#xcf;" horiz-adv-x="430" 
d="M26 1579q-84 0 -126.5 52.5t-31.5 120.5q11 67 71 119t142 52q81 0 123.5 -52.5t31.5 -118.5q-11 -68 -68.5 -120.5t-141.5 -52.5zM448 1579q-84 0 -126.5 52.5t-31.5 120.5q11 67 71 119t142 52q81 0 123.5 -52.5t31.5 -118.5q-11 -68 -68.5 -120.5t-141.5 -52.5z
M368 1505l-238 -1505h-302l238 1505h302z" />
    <glyph glyph-name="Ntilde" unicode="&#xd1;" horiz-adv-x="1364" 
d="M804 1580q-73 0 -148 44q-29 20 -45 28q-13 8 -22 10q-5 -10 -7 -17q-4 -8 -13 -41l-3 -15h-256l11 54q22 98 99 175.5t195 77.5q75 0 147 -43q10 -6 25.5 -15.5t21.5 -12.5q13 -7 22 -9l7 17q6 17 10 39l2 17h259l-11 -52q-10 -46 -32 -89.5t-57 -82t-88.5 -62
t-116.5 -23.5zM288 935l-148 -935h-302l238 1505h250l516 -929l147 929h301l-238 -1505h-250z" />
    <glyph glyph-name="Ograve" unicode="&#xd2;" horiz-adv-x="1680" 
d="M975 1991l153 -411h-282l-188 411h317zM599 -24q-249 0 -412.5 125t-216.5 326q-41 147 -13 325q29 178 116 325q116 200 319.5 325t452.5 125q129 0 239 -36t189 -100t131.5 -148.5t76.5 -184.5q33 -148 7 -306q-25 -160 -105 -307q-112 -207 -320.5 -338t-463.5 -131z
M641 239q158 0 281 83t193 217q52 96 70 213q19 117 -2 214q-28 133 -125.5 216t-254.5 83q-153 0 -273.5 -79t-192.5 -208q-59 -103 -78 -226t6 -226q32 -130 127.5 -208.5t248.5 -78.5z" />
    <glyph glyph-name="Oacute" unicode="&#xd3;" horiz-adv-x="1680" 
d="M1219 1991l-319 -411h-282l284 411h317zM599 -24q-249 0 -412.5 125t-216.5 326q-41 147 -13 325q29 178 116 325q116 200 319.5 325t452.5 125q129 0 239 -36t189 -100t131.5 -148.5t76.5 -184.5q33 -148 7 -306q-25 -160 -105 -307q-112 -207 -320.5 -338t-463.5 -131z
M641 239q158 0 281 83t193 217q52 96 70 213q19 117 -2 214q-28 133 -125.5 216t-254.5 83q-153 0 -273.5 -79t-192.5 -208q-59 -103 -78 -226t6 -226q32 -130 127.5 -208.5t248.5 -78.5z" />
    <glyph glyph-name="Ocircumflex" unicode="&#xd4;" horiz-adv-x="1680" 
d="M876 1733l-140 -153h-308l379 411h220l253 -411h-308zM599 -24q-249 0 -412.5 125t-216.5 326q-41 147 -13 325q29 178 116 325q116 200 319.5 325t452.5 125q129 0 239 -36t189 -100t131.5 -148.5t76.5 -184.5q33 -148 7 -306q-25 -160 -105 -307q-112 -207 -320.5 -338
t-463.5 -131zM641 239q158 0 281 83t193 217q52 96 70 213q19 117 -2 214q-28 133 -125.5 216t-254.5 83q-153 0 -273.5 -79t-192.5 -208q-59 -103 -78 -226t6 -226q32 -130 127.5 -208.5t248.5 -78.5z" />
    <glyph glyph-name="Otilde" unicode="&#xd5;" horiz-adv-x="1680" 
d="M974 1579q-75 0 -149 45q-7 4 -22 14t-23 14q-13 8 -22 10l-7 -17q-10 -28 -12 -41l-4 -15h-257l11 53q10 45 33 88t58.5 81t88 61.5t114.5 23.5q79 0 149 -44q5 -3 46 -28q13 -7 20 -9q5 7 8 18q4 10 8 25l4 15l2 16h259l-11 -52q-10 -45 -32.5 -88.5t-58 -82.5
t-88.5 -63t-115 -24zM599 -24q-249 0 -412.5 125t-216.5 326q-41 147 -13 325q29 178 116 325q116 200 319.5 325t452.5 125q129 0 239 -36t189 -100t131.5 -148.5t76.5 -184.5q33 -148 7 -306q-25 -160 -105 -307q-112 -207 -320.5 -338t-463.5 -131zM641 239q158 0 281 83
t193 217q52 96 70 213q19 117 -2 214q-28 133 -125.5 216t-254.5 83q-153 0 -273.5 -79t-192.5 -208q-59 -103 -78 -226t6 -226q32 -130 127.5 -208.5t248.5 -78.5z" />
    <glyph glyph-name="Odieresis" unicode="&#xd6;" horiz-adv-x="1680" 
d="M644 1571q-84 0 -126 52t-32 120q10 66 70 118.5t142 52.5t124.5 -52t32.5 -119q-10 -68 -68.5 -120t-142.5 -52zM1066 1571q-84 0 -126 52t-32 120q10 66 70 118.5t142 52.5t124.5 -52t32.5 -119q-10 -68 -68.5 -120t-142.5 -52zM599 -24q-249 0 -412.5 125t-216.5 326
q-41 147 -13 325q29 178 116 325q116 200 319.5 325t452.5 125q129 0 239 -36t189 -100t131.5 -148.5t76.5 -184.5q33 -148 7 -306q-25 -160 -105 -307q-112 -207 -320.5 -338t-463.5 -131zM641 239q158 0 281 83t193 217q52 96 70 213q19 117 -2 214q-28 133 -125.5 216
t-254.5 83q-153 0 -273.5 -79t-192.5 -208q-59 -103 -78 -226t6 -226q32 -130 127.5 -208.5t248.5 -78.5z" />
    <glyph glyph-name="multiply" unicode="&#xd7;" horiz-adv-x="1325" 
d="M744 292l-230 263l-313 -263l-170 194l313 264l-228 261l232 195l228 -262l311 262l170 -195l-311 -261l230 -264z" />
    <glyph glyph-name="Oslash" unicode="&#xd8;" horiz-adv-x="1710" 
d="M428 -1l-60 -88h-326l137 210q-137 111 -186 279t-20 352q29 183 124 339q117 195 318.5 315.5t445.5 120.5q89 0 186 -21l40 67h326l-117 -189q71 -57 120 -132.5t71 -156t27.5 -169.5t-10.5 -174q-29 -182 -124 -340q-117 -195 -319 -315.5t-446 -120.5q-88 0 -187 23z
M344 383l550 877q-31 5 -75 5q-152 0 -273.5 -79t-192.5 -206q-60 -109 -78 -228q-36 -227 69 -369zM657 239q153 0 273.5 78t193.5 207q57 101 77 228q37 227 -69 370l-549 -878q29 -5 74 -5z" />
    <glyph glyph-name="Ugrave" unicode="&#xd9;" horiz-adv-x="1307" 
d="M690 1991l153 -411h-283l-188 411h318zM413 -24q-181 0 -303 70t-169.5 186.5t-24.5 262.5l160 1010h304l-160 -1010q-16 -107 47.5 -181.5t187.5 -74.5q123 0 211 75.5t104 180.5l160 1010h304l-160 -1010q-17 -108 -70.5 -202.5t-137 -165t-200.5 -111t-253 -40.5z" />
    <glyph glyph-name="Uacute" unicode="&#xda;" horiz-adv-x="1307" 
d="M1028 1991l-320 -411h-281l283 411h318zM413 -24q-181 0 -303 70t-169.5 186.5t-24.5 262.5l160 1010h304l-160 -1010q-16 -107 47.5 -181.5t187.5 -74.5q123 0 211 75.5t104 180.5l160 1010h304l-160 -1010q-17 -108 -70.5 -202.5t-137 -165t-200.5 -111t-253 -40.5z
" />
    <glyph glyph-name="Ucircumflex" unicode="&#xdb;" horiz-adv-x="1307" 
d="M677 1733l-141 -153h-308l379 411h220l253 -411h-308zM413 -24q-181 0 -303 70t-169.5 186.5t-24.5 262.5l160 1010h304l-160 -1010q-16 -107 47.5 -181.5t187.5 -74.5q123 0 211 75.5t104 180.5l160 1010h304l-160 -1010q-17 -108 -70.5 -202.5t-137 -165t-200.5 -111
t-253 -40.5z" />
    <glyph glyph-name="Udieresis" unicode="&#xdc;" horiz-adv-x="1307" 
d="M460 1598q-84 0 -126 52.5t-31 120.5q10 66 69.5 118t141.5 52t125 -52t33 -118q-11 -68 -69.5 -120.5t-142.5 -52.5zM882 1598q-84 0 -126 52.5t-31 120.5q10 66 69.5 118t141.5 52t125 -52t33 -118q-11 -68 -69.5 -120.5t-142.5 -52.5zM413 -24q-181 0 -303 70
t-169.5 186.5t-24.5 262.5l160 1010h304l-160 -1010q-16 -107 47.5 -181.5t187.5 -74.5q123 0 211 75.5t104 180.5l160 1010h304l-160 -1010q-17 -108 -70.5 -202.5t-137 -165t-200.5 -111t-253 -40.5z" />
    <glyph glyph-name="Yacute" unicode="&#xdd;" horiz-adv-x="1529" 
d="M1154 1985l-319 -411h-282l284 411h317zM682 17l-3 -17h-301l59 370l35 221l11 72l3 20l2 3q-15 70 -56 132q-8 13 -24.5 37.5t-30.5 47t-26 45.5l-288 557h341l278 -536l445 536h341l-462 -557q-26 -31 -72 -79t-49 -51q-67 -70 -98 -132q1 -1 0 -3l-3 -20l-11 -72
l-35 -221z" />
    <glyph glyph-name="germandbls" unicode="&#xdf;" horiz-adv-x="1356" 
d="M330 1061l-168 -1061h-308l169 1069q14 85 58.5 162t113 136t163.5 93.5t203 34.5h179q108 0 192.5 -34.5t133.5 -93.5t69.5 -136t6.5 -162q-27 -168 -160 -283q75 -65 104.5 -155.5t14.5 -189.5q-32 -202 -193.5 -321.5t-405.5 -119.5h-247l40 259h248q106 0 170.5 47
t78.5 135q14 90 -35 145t-153 55h-250l41 259h238q84 0 136.5 44t64.5 117t-27.5 123.5t-120.5 50.5h-153q-81 0 -136 -50.5t-67 -123.5z" />
    <glyph glyph-name="agrave" unicode="&#xe0;" horiz-adv-x="1102" 
d="M631 1580l150 -409h-280l-186 409h316zM259 -23q-188 0 -290.5 101t-77.5 257q14 92 79 165t153.5 116t198.5 66l304 65q-1 53 -46 81.5t-117 28.5q-164 0 -181 -111l-3 -33l-2 -17l-293 -4l8 53q22 141 119 233.5t266 124.5q67 13 126 13q210 0 320.5 -110t82.5 -284
l-114 -722h-282l7 47q-125 -70 -258 -70zM300 236q115 0 193.5 76.5t94.5 179.5l1 9l-233 -50q-67 -15 -117.5 -45t-56.5 -72q-7 -48 25 -73t93 -25z" />
    <glyph glyph-name="aacute" unicode="&#xe1;" horiz-adv-x="1102" 
d="M856 1580l-318 -409h-280l282 409h316zM259 -23q-188 0 -290.5 101t-77.5 257q14 92 79 165t153.5 116t198.5 66l304 65q-1 53 -46 81.5t-117 28.5q-164 0 -181 -111l-3 -33l-2 -17l-293 -4l8 53q22 141 119 233.5t266 124.5q67 13 126 13q210 0 320.5 -110t82.5 -284
l-114 -722h-282l7 47q-125 -70 -258 -70zM300 236q115 0 193.5 76.5t94.5 179.5l1 9l-233 -50q-67 -15 -117.5 -45t-56.5 -72q-7 -48 25 -73t93 -25z" />
    <glyph glyph-name="acircumflex" unicode="&#xe2;" horiz-adv-x="1102" 
d="M523 1319l-140 -152h-306l377 410h219l251 -410h-307zM259 -23q-188 0 -290.5 101t-77.5 257q14 92 79 165t153.5 116t198.5 66l304 65q-1 53 -46 81.5t-117 28.5q-164 0 -181 -111l-3 -33l-2 -17l-293 -4l8 53q22 141 119 233.5t266 124.5q67 13 126 13
q210 0 320.5 -110t82.5 -284l-114 -722h-282l7 47q-125 -70 -258 -70zM300 236q115 0 193.5 76.5t94.5 179.5l1 9l-233 -50q-67 -15 -117.5 -45t-56.5 -72q-7 -48 25 -73t93 -25z" />
    <glyph glyph-name="atilde" unicode="&#xe3;" horiz-adv-x="1102" 
d="M644 1171q-74 0 -146 45q-9 5 -24.5 15t-21.5 13q-14 8 -20 9q-5 -10 -7 -17q-3 -7 -6 -15.5t-5 -16t-2 -8.5l-4 -15h-254l11 53q10 45 32.5 87.5t58 81t88 61.5t114.5 23q71 0 146 -44q8 -5 23.5 -14.5t22.5 -13.5q13 -7 20 -9l8 17q6 16 10 40l2 17h257l-10 -53
q-22 -100 -98 -178t-195 -78zM259 -23q-188 0 -290.5 101t-77.5 257q14 92 79 165t153.5 116t198.5 66l304 65q-1 53 -46 81.5t-117 28.5q-164 0 -181 -111l-3 -33l-2 -17l-293 -4l8 53q22 141 119 233.5t266 124.5q67 13 126 13q210 0 320.5 -110t82.5 -284l-114 -722h-282
l7 47q-125 -70 -258 -70zM300 236q115 0 193.5 76.5t94.5 179.5l1 9l-233 -50q-67 -15 -117.5 -45t-56.5 -72q-7 -48 25 -73t93 -25z" />
    <glyph glyph-name="adieresis" unicode="&#xe4;" horiz-adv-x="1102" 
d="M293 1165q-84 0 -126.5 52.5t-31.5 120.5q10 66 70 118.5t142 52.5t124.5 -52t32.5 -119q-11 -68 -69 -120.5t-142 -52.5zM715 1165q-84 0 -126.5 52.5t-31.5 120.5q10 66 70 118.5t142 52.5t124.5 -52t32.5 -119q-11 -68 -69 -120.5t-142 -52.5zM259 -23
q-188 0 -290.5 101t-77.5 257q14 92 79 165t153.5 116t198.5 66l304 65q-1 53 -46 81.5t-117 28.5q-164 0 -181 -111l-3 -33l-2 -17l-293 -4l8 53q22 141 119 233.5t266 124.5q67 13 126 13q210 0 320.5 -110t82.5 -284l-114 -722h-282l7 47q-125 -70 -258 -70zM300 236
q115 0 193.5 76.5t94.5 179.5l1 9l-233 -50q-67 -15 -117.5 -45t-56.5 -72q-7 -48 25 -73t93 -25z" />
    <glyph glyph-name="aring" unicode="&#xe5;" horiz-adv-x="1102" 
d="M514 1202q-116 0 -176 73.5t-45 168.5t98.5 167.5t199.5 72.5q115 0 177 -72.5t47 -167.5t-100 -168.5t-201 -73.5zM542 1380q25 0 44.5 19.5t24.5 46.5q4 25 -10 42t-40 17q-25 0 -42.5 -16.5t-21.5 -42.5q-4 -25 9 -45.5t36 -20.5zM259 -23q-188 0 -290.5 101
t-77.5 257q14 92 79 165t153.5 116t198.5 66l304 65q-1 53 -46 81.5t-117 28.5q-164 0 -181 -111l-3 -33l-2 -17l-293 -4l8 53q22 141 119 233.5t266 124.5q67 13 126 13q210 0 320.5 -110t82.5 -284l-114 -722h-282l7 47q-125 -70 -258 -70zM300 236q115 0 193.5 76.5
t94.5 179.5l1 9l-233 -50q-67 -15 -117.5 -45t-56.5 -72q-7 -48 25 -73t93 -25z" />
    <glyph glyph-name="ae" unicode="&#xe6;" horiz-adv-x="2009" 
d="M275 -23q-188 0 -290.5 101t-77.5 257q21 135 140.5 223t290.5 124l304 65q-1 53 -46 81.5t-117 28.5q-164 0 -181 -111l-3 -33l-2 -17l-293 -4l8 53q22 139 117 231.5t261 125.5q68 14 133 14q109 0 199 -34t144 -102q181 143 410 143q187 0 309.5 -95t161.5 -246
q28 -110 8 -232l-15 -90l-3 -17h-827q13 -87 70.5 -145t155.5 -58q83 0 152 43.5t117 115.5l26 39l229 -149l-10 -13q-60 -74 -94 -108q-91 -89 -211.5 -140t-250.5 -51q-124 0 -224 45t-164 127q-194 -172 -427 -172zM957 694h493q-19 75 -75 121t-145 46t-159.5 -46
t-113.5 -121zM316 236q115 0 193.5 76.5t94.5 179.5l1 9l-233 -50q-67 -15 -117.5 -45t-56.5 -72q-7 -48 25 -73t93 -25z" />
    <glyph glyph-name="ccedilla" unicode="&#xe7;" horiz-adv-x="1234" 
d="M339 -377q-161 0 -266 121l-14 17l158 201l16 -22q31 -43 60.5 -66t70.5 -23q33 0 37 28q4 22 -15 49q-16 19 -46 44l-8 7l-1 1h-2q-60 3 -150 39q-80 36 -137.5 96t-85 129t-37 148.5t5.5 154.5q23 142 96 259q89 141 236.5 227.5t326.5 86.5q131 0 236.5 -51
t168.5 -141q22 -34 31 -52q13 -26 25 -53l7 -13l-274 -148l-7 19q-64 178 -228 178q-55 0 -104 -18.5t-85 -49t-64.5 -71t-45 -84.5t-23.5 -89q-5 -45 -3.5 -88.5t18 -83.5t42 -70.5t69 -48.5t98.5 -18q159 0 270 159l26 38l228 -149l-11 -13q-57 -72 -75 -90
q-112 -116 -261 -170q47 -71 33 -156q-16 -101 -104.5 -167.5t-211.5 -66.5z" />
    <glyph glyph-name="egrave" unicode="&#xe8;" horiz-adv-x="1288" 
d="M726 1580l152 -409h-282l-186 409h316zM403 -24q-175 0 -295.5 84t-165.5 222q-40 120 -17 265q23 146 101 267q89 137 236 221.5t322 84.5q174 0 296 -84.5t167 -221.5q39 -124 17 -267q-14 -80 -15 -89l-3 -17h-827q13 -88 70 -145.5t156 -57.5q162 0 270 158l25 39
l229 -149l-11 -13q-30 -38 -46 -57q-21 -25 -51 -55q-91 -87 -210 -136t-248 -49zM270 692h494q-21 75 -76.5 121t-144.5 46q-88 0 -159 -46.5t-114 -120.5z" />
    <glyph glyph-name="eacute" unicode="&#xe9;" horiz-adv-x="1288" 
d="M951 1580l-318 -409h-280l282 409h316zM403 -24q-175 0 -295.5 84t-165.5 222q-40 120 -17 265q23 146 101 267q89 137 236 221.5t322 84.5q174 0 296 -84.5t167 -221.5q39 -124 17 -267q-14 -80 -15 -89l-3 -17h-827q13 -88 70 -145.5t156 -57.5q162 0 270 158l25 39
l229 -149l-11 -13q-30 -38 -46 -57q-21 -25 -51 -55q-91 -87 -210 -136t-248 -49zM270 692h494q-21 75 -76.5 121t-144.5 46q-88 0 -159 -46.5t-114 -120.5z" />
    <glyph glyph-name="ecircumflex" unicode="&#xea;" horiz-adv-x="1288" 
d="M613 1323l-141 -152h-306l377 409h219l251 -409h-307zM403 -24q-187 0 -309.5 94t-160.5 244q-29 109 -8 233q19 127 82 234q86 151 238 245t339 94q89 0 165.5 -21.5t132 -59.5t98 -90t64 -113t30 -127.5t-4.5 -134.5q-3 -19 -10 -57.5t-10 -58.5l-3 -17h-827
q13 -88 70 -145.5t156 -57.5q162 0 270 158l13 20l12 19l229 -149l-11 -13l-43 -55q-27 -30 -51 -53q-92 -89 -211.5 -139t-249.5 -50zM270 692h494q-21 75 -76.5 121t-144.5 46q-88 0 -159 -46.5t-114 -120.5z" />
    <glyph glyph-name="edieresis" unicode="&#xeb;" horiz-adv-x="1288" 
d="M372 1138q-84 0 -126 52.5t-31 120.5q10 66 70 118t142 52t124.5 -52t32.5 -118q-11 -68 -69.5 -120.5t-142.5 -52.5zM794 1138q-84 0 -126 52.5t-31 120.5q10 66 70 118t142 52t124.5 -52t32.5 -118q-11 -68 -69.5 -120.5t-142.5 -52.5zM403 -24q-187 0 -309.5 94
t-160.5 244q-29 109 -8 233q19 127 82 234q86 151 238 245t339 94q89 0 165.5 -21.5t132 -59.5t98 -90t64 -113t30 -127.5t-4.5 -134.5q-3 -19 -10 -57.5t-10 -58.5l-3 -17h-827q13 -88 70 -145.5t156 -57.5q169 0 283 177l12 20l229 -149l-11 -13l-43 -55q-27 -30 -51 -53
q-92 -89 -211.5 -139t-249.5 -50zM270 692h494q-21 75 -76.5 121t-144.5 46q-88 0 -159 -46.5t-114 -120.5z" />
    <glyph glyph-name="igrave" unicode="&#xec;" horiz-adv-x="498" 
d="M320 1580l151 -409h-279l-189 409h317zM331 1094l-173 -1094h-281l173 1094h281z" />
    <glyph glyph-name="iacute" unicode="&#xed;" horiz-adv-x="498" 
d="M538 1580l-318 -409h-280l282 409h316zM324 1094l-173 -1094h-282l173 1094h282z" />
    <glyph glyph-name="icircumflex" unicode="&#xee;" horiz-adv-x="519" 
d="M238 1322l-138 -151h-308l377 409h219l252 -409h-308zM338 1094l-173 -1094h-282l173 1094h282z" />
    <glyph glyph-name="idieresis" unicode="&#xef;" horiz-adv-x="417" 
d="M-52 1138q-84 0 -126 52.5t-31 120.5q10 66 70 118t142 52q81 0 123.5 -52t32.5 -118q-11 -68 -69 -120.5t-142 -52.5zM370 1138q-84 0 -126 52.5t-31 120.5q10 66 70 118t142 52q81 0 123.5 -52t32.5 -118q-11 -68 -69 -120.5t-142 -52.5zM287 1094l-173 -1094h-281
l173 1094h281z" />
    <glyph glyph-name="ntilde" unicode="&#xf1;" horiz-adv-x="1090" 
d="M637 1171q-74 0 -146 45q-9 5 -24.5 15t-21.5 13q-14 8 -20 9q-5 -10 -7 -17q-3 -7 -6 -15.5t-5 -16t-2 -8.5l-4 -15h-254l11 53q10 45 33 87.5t58 81t87.5 61.5t114.5 23q71 0 146 -44q8 -5 23.5 -14.5t22.5 -13.5q13 -7 21 -9l8 18q5 17 9 39l2 17h258l-11 -53
q-10 -45 -32.5 -88.5t-57.5 -82t-87.5 -62t-115.5 -23.5zM222 653l-103 -653h-281l173 1094h281l-2 -14q99 36 194 36q140 0 240 -56.5t142 -150.5t24 -208l-111 -701h-283l103 653q14 87 -23 145.5t-131 58.5t-151.5 -58.5t-71.5 -145.5z" />
    <glyph glyph-name="ograve" unicode="&#xf2;" horiz-adv-x="1288" 
d="M689 1580l152 -409h-280l-189 409h317zM403 -24q-186 0 -307.5 92.5t-161.5 241.5q-30 109 -9 237q13 84 48 165t93 155t133 130t174.5 89.5t210.5 33.5q191 0 314.5 -97t158.5 -251q26 -104 7 -225q-21 -127 -85 -237q-87 -149 -239 -241.5t-337 -92.5zM445 238
q68 0 126.5 27.5t97.5 73t64 99t34 109.5q5 45 4 89t-17.5 84.5t-42.5 71t-69.5 49t-98.5 18.5t-104 -18.5t-85 -49t-64.5 -71t-45 -84.5t-23.5 -89q-5 -45 -3.5 -88.5t18 -83.5t42 -70.5t69 -48.5t98.5 -18z" />
    <glyph glyph-name="oacute" unicode="&#xf3;" horiz-adv-x="1288" 
d="M951 1580l-318 -409h-280l282 409h316zM403 -24q-186 0 -307.5 92.5t-161.5 241.5q-30 109 -9 237q13 84 48 165t93 155t133 130t174.5 89.5t210.5 33.5q191 0 314.5 -97t158.5 -251q26 -104 7 -225q-21 -127 -85 -237q-87 -149 -239 -241.5t-337 -92.5zM445 238
q68 0 126.5 27.5t97.5 73t64 99t34 109.5q5 45 4 89t-17.5 84.5t-42.5 71t-69.5 49t-98.5 18.5t-104 -18.5t-85 -49t-64.5 -71t-45 -84.5t-23.5 -89q-5 -45 -3.5 -88.5t18 -83.5t42 -70.5t69 -48.5t98.5 -18z" />
    <glyph glyph-name="ocircumflex" unicode="&#xf4;" horiz-adv-x="1288" 
d="M608 1323l-139 -152h-308l377 409h219l251 -409h-307zM403 -24q-186 0 -307.5 92.5t-161.5 241.5q-30 109 -9 237q13 84 48 165t93 155t133 130t174.5 89.5t210.5 33.5q191 0 314.5 -97t158.5 -251q26 -104 7 -225q-21 -127 -85 -237q-87 -149 -239 -241.5t-337 -92.5z
M445 238q68 0 126.5 27.5t97.5 73t64 99t34 109.5q5 45 4 89t-17.5 84.5t-42.5 71t-69.5 49t-98.5 18.5t-104 -18.5t-85 -49t-64.5 -71t-45 -84.5t-23.5 -89q-5 -45 -3.5 -88.5t18 -83.5t42 -70.5t69 -48.5t98.5 -18z" />
    <glyph glyph-name="otilde" unicode="&#xf5;" horiz-adv-x="1288" 
d="M689 1170q-74 0 -148 45q-4 3 -20 13.5t-24 14.5q-10 6 -21 10q-3 -5 -6 -17q-8 -21 -11 -40l-3 -16h-259l11 54q10 44 33 87t58 81t87.5 61t113.5 23q74 0 148 -43q43 -27 45 -28q14 -8 22 -9q5 10 7 17q3 8 6 16.5t4.5 15.5t2.5 9l3 15h254l-11 -53q-10 -45 -32.5 -88
t-57 -82t-87.5 -62.5t-115 -23.5zM403 -24q-186 0 -307.5 92.5t-161.5 241.5q-30 109 -9 237q13 84 48 165t93 155t133 130t174.5 89.5t210.5 33.5q191 0 314.5 -97t158.5 -251q26 -104 7 -225q-21 -127 -85 -237q-87 -149 -239 -241.5t-337 -92.5zM445 238q68 0 126.5 27.5
t97.5 73t64 99t34 109.5q5 45 4 89t-17.5 84.5t-42.5 71t-69.5 49t-98.5 18.5t-104 -18.5t-85 -49t-64.5 -71t-45 -84.5t-23.5 -89q-5 -45 -3.5 -88.5t18 -83.5t42 -70.5t69 -48.5t98.5 -18z" />
    <glyph glyph-name="odieresis" unicode="&#xf6;" horiz-adv-x="1288" 
d="M372 1138q-84 0 -126 52.5t-31 120.5q10 66 70 118t142 52t124.5 -52t32.5 -118q-11 -68 -69.5 -120.5t-142.5 -52.5zM794 1138q-84 0 -126 52.5t-31 120.5q10 66 70 118t142 52t124.5 -52t32.5 -118q-11 -68 -69.5 -120.5t-142.5 -52.5zM403 -24q-186 0 -307.5 92.5
t-161.5 241.5q-30 109 -9 237q13 84 48 165t93 155t133 130t174.5 89.5t210.5 33.5q191 0 314.5 -97t158.5 -251q26 -104 7 -225q-21 -127 -85 -237q-87 -149 -239 -241.5t-337 -92.5zM445 238q68 0 126.5 27.5t97.5 73t64 99t34 109.5q5 45 4 89t-17.5 84.5t-42.5 71
t-69.5 49t-98.5 18.5t-104 -18.5t-85 -49t-64.5 -71t-45 -84.5t-23.5 -89q-5 -45 -3.5 -88.5t18 -83.5t42 -70.5t69 -48.5t98.5 -18z" />
    <glyph glyph-name="divide" unicode="&#xf7;" horiz-adv-x="1417" 
d="M831 1305l-53 -333h-302l53 333h302zM1121 883l-43 -268h-1017l43 268h1017zM707 527l-52 -333h-302l52 333h302z" />
    <glyph glyph-name="oslash" unicode="&#xf8;" horiz-adv-x="1288" 
d="M358 -20l-136 -217h-324l200 317q-104 82 -141.5 206.5t-15.5 260.5q13 84 48 165t93 155t133 130t174.5 89.5t210.5 33.5q73 0 139 -15l96 153h323l-182 -292q73 -83 97.5 -192.5t6.5 -226.5q-21 -127 -85 -237q-87 -149 -239 -241.5t-337 -92.5q-19 0 -61 4zM264 346
l320 512q-8 1 -25 1q-55 0 -104 -18.5t-85 -49t-64.5 -71t-45 -84.5t-23.5 -89q-19 -116 27 -201zM784 660l-260 -416q106 22 174 110t85 193q10 61 1 113z" />
    <glyph glyph-name="ugrave" unicode="&#xf9;" horiz-adv-x="1090" 
d="M565 1580l152 -409h-280l-189 409h317zM306 -21q-211 0 -322.5 120t-83.5 294l111 701h281l-103 -653q-14 -86 24.5 -144t131.5 -58q94 0 150.5 57.5t70.5 144.5l103 653h283l-173 -1094h-283l2 14q-99 -35 -192 -35z" />
    <glyph glyph-name="uacute" unicode="&#xfa;" horiz-adv-x="1090" 
d="M849 1580l-318 -409h-280l282 409h316zM306 -21q-211 0 -322.5 120t-83.5 294l111 701h281l-103 -653q-14 -86 24.5 -144t131.5 -58q94 0 150.5 57.5t70.5 144.5l103 653h283l-173 -1094h-283l2 14q-99 -35 -192 -35z" />
    <glyph glyph-name="ucircumflex" unicode="&#xfb;" horiz-adv-x="1090" 
d="M512 1323l-140 -152h-307l377 409h219l251 -409h-307zM306 -21q-211 0 -322.5 120t-83.5 294l111 701h281l-103 -653q-14 -86 24.5 -144t131.5 -58q94 0 150.5 57.5t70.5 144.5l103 653h283l-173 -1094h-283l2 14q-99 -35 -192 -35z" />
    <glyph glyph-name="udieresis" unicode="&#xfc;" horiz-adv-x="1090" 
d="M293 1165q-84 0 -126.5 52.5t-31.5 120.5q10 66 70 118.5t142 52.5t124.5 -52t32.5 -119q-11 -68 -69 -120.5t-142 -52.5zM715 1165q-84 0 -126.5 52.5t-31.5 120.5q10 66 70 118.5t142 52.5t124.5 -52t32.5 -119q-11 -68 -69 -120.5t-142 -52.5zM306 -21
q-211 0 -322.5 120t-83.5 294l111 701h281l-103 -653q-14 -86 24.5 -144t131.5 -58q94 0 150.5 57.5t70.5 144.5l103 653h283l-173 -1094h-283l2 14q-99 -35 -192 -35z" />
    <glyph glyph-name="yacute" unicode="&#xfd;" horiz-adv-x="1309" 
d="M1002 1580l-318 -409h-280l282 409h316zM1177 1094l-871 -1497h-307l270 478l-266 1019h316l169 -650l373 650h316z" />
    <glyph glyph-name="ydieresis" unicode="&#xff;" horiz-adv-x="1309" 
d="M411 1165q-84 0 -126.5 52.5t-31.5 120.5q10 66 70 118.5t142 52.5t124.5 -52t32.5 -119q-11 -68 -69 -120.5t-142 -52.5zM833 1165q-84 0 -126.5 52.5t-31.5 120.5q10 66 70 118.5t142 52.5t124.5 -52t32.5 -119q-11 -68 -69 -120.5t-142 -52.5zM1177 1094l-871 -1497
h-307l270 478l-266 1019h316l169 -650l373 650h316z" />
    <glyph glyph-name="Amacron" unicode="&#x100;" horiz-adv-x="1548" 
d="M1113 1821l-38 -241h-563l38 241h563zM352 386l-202 -386h-318l809 1505h270l333 -1505h-319l-78 386h-495zM792 646l-86 415l-218 -415h304z" />
    <glyph glyph-name="amacron" unicode="&#x101;" horiz-adv-x="1102" 
d="M819 1411l-38 -240h-559l38 240h559zM259 -23q-188 0 -290.5 101t-77.5 257q14 92 79 165t153.5 116t198.5 66l304 65q-1 53 -46 81.5t-117 28.5q-164 0 -181 -111l-3 -33l-2 -17l-293 -4l8 53q22 141 119 233.5t266 124.5q67 13 126 13q210 0 320.5 -110t82.5 -284
l-114 -722h-282l7 47q-125 -70 -258 -70zM300 236q115 0 193.5 76.5t94.5 179.5l1 9l-233 -50q-67 -15 -117.5 -45t-56.5 -72q-7 -48 25 -73t93 -25z" />
    <glyph glyph-name="Abreve" unicode="&#x102;" horiz-adv-x="1548" 
d="M787 1580q-101 0 -171.5 52t-96 126t-13.5 152l8 52h253l-8 -52q-6 -37 12 -70t52 -33q35 0 66 33t37 70l8 52h252l-8 -52q-10 -59 -42.5 -117t-81.5 -105.5t-119.5 -77.5t-147.5 -30zM352 386l-202 -386h-318l809 1505h270l333 -1505h-319l-78 386h-495zM792 646
l-86 415l-218 -415h304z" />
    <glyph glyph-name="abreve" unicode="&#x103;" horiz-adv-x="1102" 
d="M524 1171q-77 0 -137 30t-93.5 78t-47 105.5t-4.5 115.5l8 51h255l-4 -17q-4 -16 -5 -24q-7 -42 10 -77t54 -35q33 0 63 33t36 69l8 51h252l-8 -51q-20 -124 -128.5 -226.5t-258.5 -102.5zM259 -23q-188 0 -290.5 101t-77.5 257q14 92 79 165t153.5 116t198.5 66l304 65
q-1 53 -46 81.5t-117 28.5q-164 0 -181 -111l-3 -33l-2 -17l-293 -4l8 53q22 141 119 233.5t266 124.5q67 13 126 13q210 0 320.5 -110t82.5 -284l-114 -722h-282l7 47q-125 -70 -258 -70zM300 236q115 0 193.5 76.5t94.5 179.5l1 9l-233 -50q-67 -15 -117.5 -45t-56.5 -72
q-7 -48 25 -73t93 -25z" />
    <glyph glyph-name="Aogonek" unicode="&#x104;" horiz-adv-x="1536" 
d="M959 -400q-124 0 -191.5 66t-50.5 168q12 73 63 134.5t131 105.5l-64 312h-495l-202 -386h-318l809 1505h270l328 -1484l-18 -5q-76 -23 -156.5 -70t-87.5 -89q-2 -17 4 -23t25 -6q44 0 85 28q21 13 40 29l37 33l22 21l97 -206l-13 -9l-12 -8q-77 -57 -146.5 -86.5
t-156.5 -29.5zM792 646l-86 415l-218 -415h304z" />
    <glyph glyph-name="aogonek" unicode="&#x105;" horiz-adv-x="1114" 
d="M497 -393q-123 0 -191 66t-51 167q12 77 68 142q-35 -5 -64 -5q-188 0 -290.5 101t-77.5 257q14 92 79 165t153.5 116t198.5 66l304 65q-1 53 -46 81.5t-117 28.5q-164 0 -181 -110l-8 -51l-290 -4l8 53q22 139 117 231.5t261 125.5q68 14 133 14q210 0 320.5 -110
t82.5 -284l-112 -708l-15 -3l-28 -8l-72 -22q-39 -14 -76 -31q-80 -41 -88 -87q-2 -16 4.5 -22.5t23.5 -6.5q41 0 78.5 24t82.5 67l23 22l94 -206l-10 -8q-157 -126 -314 -126zM300 236q115 0 193.5 76.5t94.5 179.5l1 9l-233 -50q-67 -15 -117.5 -45t-56.5 -72
q-7 -48 25 -73t93 -25z" />
    <glyph glyph-name="Cacute" unicode="&#x106;" horiz-adv-x="1596" 
d="M1208 1991l-321 -411h-281l283 411h319zM599 -24q-241 0 -403 119t-221 311q-47 158 -18 346q30 189 128 346q118 192 318.5 310.5t441.5 118.5q180 0 318.5 -69.5t223.5 -194.5q34 -50 63 -115q12 -29 12 -31l3 -13l-281 -135l-6 19l-6 18q-17 53 -38 86
q-49 80 -135 126.5t-196 46.5q-156 0 -280 -83t-194 -216q-51 -97 -70 -214q-18 -116 2 -213q28 -133 125.5 -216.5t254.5 -83.5q216 0 382 169q28 28 69 84l24 35l233 -139l-8 -13l-10 -14q-123 -172 -317 -278.5t-415 -106.5z" />
    <glyph glyph-name="cacute" unicode="&#x107;" horiz-adv-x="1234" 
d="M914 1580l-318 -409h-281l282 409h317zM403 -24q-187 0 -309 94t-161 244q-29 109 -8 233q19 127 82 234q86 151 238 245t339 94q134 0 240.5 -52.5t168.5 -145.5q28 -45 52 -99l7 -13l-275 -148l-7 19q-64 178 -227 178q-55 0 -104 -18.5t-85 -49t-64.5 -71t-45 -84.5
t-23.5 -89q-5 -45 -3.5 -88.5t18 -83.5t42 -70.5t69 -48.5t98.5 -18q163 0 270 158l25 39l229 -149l-11 -13q-56 -71 -83 -98q-94 -94 -216 -146.5t-256 -52.5z" />
    <glyph glyph-name="Ccircumflex" unicode="&#x108;" horiz-adv-x="1596" 
d="M871 1712l-139 -152h-310l379 410h221l255 -410h-311zM599 -24q-241 0 -403 119t-221 311q-47 158 -18 346q30 189 128 346q118 192 318.5 310.5t441.5 118.5q223 0 373.5 -102.5t231.5 -275.5q1 -4 4 -10t5 -11.5t3 -10.5l3 -13l-281 -135l-6 19q-35 122 -132 199.5
t-243 77.5q-156 0 -280 -83t-194 -216q-51 -97 -70 -214q-18 -116 2 -213q28 -133 125.5 -216.5t254.5 -83.5q144 0 261 74t202 196l12 18l233 -139l-7 -12q-114 -178 -314.5 -289t-428.5 -111z" />
    <glyph glyph-name="ccircumflex" unicode="&#x109;" horiz-adv-x="1234" 
d="M607 1323l-139 -152h-308l377 409h219l251 -409h-307zM403 -24q-187 0 -309 94t-161 244q-29 109 -8 233q19 127 82 234q86 151 238 245t339 94q134 0 240.5 -52.5t168.5 -145.5q28 -45 52 -99l7 -13l-275 -148l-7 19q-64 178 -227 178q-55 0 -104 -18.5t-85 -49
t-64.5 -71t-45 -84.5t-23.5 -89q-5 -45 -3.5 -88.5t18 -83.5t42 -70.5t69 -48.5t98.5 -18q163 0 270 158l25 39l229 -149l-11 -13q-56 -71 -83 -98q-94 -94 -216 -146.5t-256 -52.5z" />
    <glyph glyph-name="Cdotaccent" unicode="&#x10a;" horiz-adv-x="1596" 
d="M856 1588q-84 0 -126.5 52.5t-31.5 120.5q10 66 70 118.5t142 52.5t124.5 -52.5t32.5 -118.5q-11 -68 -69 -120.5t-142 -52.5zM599 -24q-241 0 -403 119t-221 311q-47 158 -18 346q30 189 128 346q118 192 318.5 310.5t441.5 118.5q223 0 373.5 -102.5t231.5 -275.5
q1 -4 4 -10t5 -11.5t3 -10.5l3 -13l-281 -135l-6 19q-35 122 -132 199.5t-243 77.5q-156 0 -280 -83t-194 -216q-51 -97 -70 -214q-18 -116 2 -213q28 -133 125.5 -216.5t254.5 -83.5q144 0 261 74t202 196l12 18l233 -139l-7 -12q-114 -178 -314.5 -289t-428.5 -111z" />
    <glyph glyph-name="cdotaccent" unicode="&#x10b;" horiz-adv-x="1234" 
d="M577 1171q-83 0 -125 52.5t-31 119.5q10 66 69.5 118t141.5 52t124 -52t32 -118q-11 -67 -69.5 -119.5t-141.5 -52.5zM403 -24q-187 0 -309 94t-161 244q-29 109 -8 233q19 127 82 234q86 151 238 245t339 94q134 0 240.5 -52.5t168.5 -145.5q28 -45 52 -99l7 -13
l-275 -148l-7 19q-64 178 -227 178q-55 0 -104 -18.5t-85 -49t-64.5 -71t-45 -84.5t-23.5 -89q-5 -45 -3.5 -88.5t18 -83.5t42 -70.5t69 -48.5t98.5 -18q163 0 270 158l25 39l229 -149l-11 -13q-56 -71 -83 -98q-94 -94 -216 -146.5t-256 -52.5z" />
    <glyph glyph-name="Ccaron" unicode="&#x10c;" horiz-adv-x="1596" 
d="M1329 1991l-385 -411h-221l-249 411h310l92 -152l142 152h311zM599 -24q-241 0 -403 119t-221 311q-47 158 -18 346q30 189 128 346q118 192 318.5 310.5t441.5 118.5q180 0 318.5 -69.5t223.5 -194.5q34 -50 63 -115q12 -29 12 -31l3 -13l-281 -135l-6 19l-6 18
q-17 53 -38 86q-49 80 -135 126.5t-196 46.5q-156 0 -280 -83t-194 -216q-51 -97 -70 -214q-18 -116 2 -213q28 -133 125.5 -216.5t254.5 -83.5q216 0 382 169q28 28 69 84l24 35l233 -139l-8 -13l-10 -14q-123 -172 -317 -278.5t-415 -106.5z" />
    <glyph glyph-name="ccaron" unicode="&#x10d;" horiz-adv-x="1234" 
d="M1072 1580l-381 -409h-219l-247 409h308l90 -151l142 151h307zM403 -24q-187 0 -309 94t-161 244q-29 109 -8 233q19 127 82 234q86 151 238 245t339 94q134 0 240.5 -52.5t168.5 -145.5q28 -45 52 -99l7 -13l-275 -148l-7 19q-64 178 -227 178q-55 0 -104 -18.5t-85 -49
t-64.5 -71t-45 -84.5t-23.5 -89q-5 -45 -3.5 -88.5t18 -83.5t42 -70.5t69 -48.5t98.5 -18q163 0 270 158l25 39l229 -149l-11 -13q-56 -71 -83 -98q-94 -94 -216 -146.5t-256 -52.5z" />
    <glyph glyph-name="Dcaron" unicode="&#x10e;" horiz-adv-x="1419" 
d="M1102 1991l-383 -411h-222l-249 411h309l93 -152l142 152h310zM361 -2h-523l238 1507h523q160 0 292 -57q86 -37 152 -95.5t105.5 -127t63 -149t24.5 -161t-10 -163.5q-17 -104 -58.5 -205t-108.5 -194.5t-167 -171t-221 -124.5q-153 -59 -310 -59zM400 254q69 0 146 25
q161 53 259 186t123 287q17 106 -3 207q-27 129 -121 210t-246 81h-225l-158 -995q37 0 112 -0.5t113 -0.5z" />
    <glyph glyph-name="dcaron" unicode="&#x10f;" horiz-adv-x="1272" 
d="M419 -24q-184 0 -305.5 90.5t-162.5 238.5q-31 114 -10 242q21 133 87 244q88 148 237.5 238.5t334.5 90.5q151 0 263 -62l68 430l-197 -211h-219l-247 409h306l92 -151l142 151h307l-177 -191h276l-237 -1495h-282l6 38q-131 -62 -282 -62zM461 238q68 0 126.5 27.5
t97.5 73t64 99t34 109.5q5 45 4 89t-17.5 84.5t-42.5 71t-69.5 49t-98.5 18.5t-104 -18.5t-85 -49t-64.5 -71t-45 -84.5t-23.5 -89q-5 -45 -3.5 -88.5t18 -83.5t42 -70.5t69 -48.5t98.5 -18z" />
    <glyph glyph-name="Emacron" unicode="&#x112;" horiz-adv-x="1210" 
d="M939 1821l-38 -241h-562l38 241h562zM940 260l-41 -260h-1061l238 1505h1061l-41 -259h-759l-53 -339h665l-42 -261h-665l-61 -386h759z" />
    <glyph glyph-name="emacron" unicode="&#x113;" horiz-adv-x="1288" 
d="M900 1411l-38 -240h-559l38 240h559zM403 -24q-187 0 -309.5 94t-160.5 244q-29 109 -8 233q19 127 82 234q86 151 238 245t339 94q89 0 165.5 -21.5t132 -59.5t98 -90t64 -113t30 -127.5t-4.5 -134.5q-3 -19 -10 -57.5t-10 -58.5l-3 -17h-827q13 -88 70 -145.5
t156 -57.5q162 0 270 158l13 20l12 19l229 -149l-11 -13l-43 -55q-27 -30 -51 -53q-92 -89 -211.5 -139t-249.5 -50zM270 692h494q-21 75 -76.5 121t-144.5 46q-88 0 -159 -46.5t-114 -120.5z" />
    <glyph glyph-name="Ebreve" unicode="&#x114;" horiz-adv-x="1210" 
d="M643 1580q-62 0 -114 19.5t-85 52.5t-56 76t-27.5 89.5t0.5 92.5l8 52h252l-8 -52q-6 -37 13 -70t53 -33t64.5 33t36.5 70l8 52h252l-8 -52q-10 -58 -42 -116t-81 -106t-119 -78t-147 -30zM940 260l-41 -260h-1061l238 1505h1061l-41 -259h-759l-53 -339h665l-42 -261
h-665l-61 -386h759z" />
    <glyph glyph-name="ebreve" unicode="&#x115;" horiz-adv-x="1288" 
d="M599 1171q-101 0 -171 51.5t-96 125.5t-14 152l8 51h253l-8 -51q-6 -37 12 -69.5t52 -32.5t64 32.5t36 69.5l8 51h251l-8 -51q-9 -58 -41 -115.5t-80.5 -105.5t-118.5 -78t-147 -30zM403 -24q-187 0 -309.5 94t-160.5 244q-29 109 -8 233q19 127 82 234q86 151 238 245
t339 94q89 0 165.5 -21.5t132 -59.5t98 -90t64 -113t30 -127.5t-4.5 -134.5q-3 -19 -10 -57.5t-10 -58.5l-3 -17h-827q13 -88 70 -145.5t156 -57.5q162 0 270 158l13 20l12 19l229 -149l-11 -13l-43 -55q-27 -30 -51 -53q-92 -89 -211.5 -139t-249.5 -50zM270 692h494
q-21 75 -76.5 121t-144.5 46q-88 0 -159 -46.5t-114 -120.5z" />
    <glyph glyph-name="Edotaccent" unicode="&#x116;" horiz-adv-x="1210" 
d="M639 1580q-83 0 -125.5 52.5t-31.5 120.5q10 66 70 118.5t142 52.5t124.5 -52t32.5 -119q-11 -68 -69.5 -120.5t-142.5 -52.5zM940 260l-41 -260h-1061l238 1505h1061l-41 -259h-759l-53 -339h665l-42 -261h-665l-61 -386h759z" />
    <glyph glyph-name="edotaccent" unicode="&#x117;" horiz-adv-x="1288" 
d="M591 1171q-83 0 -125 52.5t-31 119.5q10 66 69.5 118t141.5 52t124 -52t32 -118q-11 -67 -69.5 -119.5t-141.5 -52.5zM403 -24q-187 0 -309.5 94t-160.5 244q-29 109 -8 233q19 127 82 234q86 151 238 245t339 94q89 0 165.5 -21.5t132 -59.5t98 -90t64 -113t30 -127.5
t-4.5 -134.5q-3 -19 -10 -57.5t-10 -58.5l-3 -17h-827q13 -88 70 -145.5t156 -57.5q162 0 270 158l13 20l12 19l229 -149l-11 -13l-43 -55q-27 -30 -51 -53q-92 -89 -211.5 -139t-249.5 -50zM270 692h494q-21 75 -76.5 121t-144.5 46q-88 0 -159 -46.5t-114 -120.5z" />
    <glyph glyph-name="Eogonek" unicode="&#x118;" horiz-adv-x="1220" 
d="M638 -400q-124 0 -192.5 66t-51.5 168q15 92 92 166h-648l238 1505h1061l-41 -259h-759l-53 -339h665l-42 -261h-665l-61 -386h759l-38 -244l-15 -4q-67 -18 -146.5 -67t-85.5 -88q-2 -16 4.5 -22.5t25.5 -6.5q42 0 85 28q8 5 39 29q7 5 19 16.5t19 16.5l22 21l94 -206
l-12 -8q-75 -60 -149.5 -92.5t-163.5 -32.5z" />
    <glyph glyph-name="eogonek" unicode="&#x119;" horiz-adv-x="1288" 
d="M344 -397q-123 0 -191 65t-51 167q15 96 102 175q-70 26 -124 70t-87 97t-53.5 116t-21.5 126.5t7 127.5q23 142 96 259q88 141 236.5 227.5t326.5 86.5q89 0 165.5 -21.5t132 -59.5t98 -90t64 -113t30 -127.5t-4.5 -134.5q-3 -19 -10 -57.5t-10 -58.5l-3 -17h-827
q13 -88 70 -145.5t156 -57.5q159 0 270 159l26 38l228 -149l-11 -13q-77 -96 -148 -156.5t-176 -99.5q-60 -22 -105 -28l-8 -4l-10 -5l-8 -4q-63 -32 -93 -55q-43 -34 -47 -62q-3 -17 3 -23t25 -6q41 0 85 28q19 13 38 29q19 15 37 33l24 21l91 -204l-9 -9l-13 -10
q-142 -115 -300 -115zM270 692h494q-21 75 -76.5 121t-144.5 46q-88 0 -159 -46.5t-114 -120.5z" />
    <glyph glyph-name="Ecaron" unicode="&#x11a;" horiz-adv-x="1210" 
d="M1136 1991l-383 -411h-220l-249 411h309l91 -152l144 152h308zM940 260l-41 -260h-1061l238 1505h1061l-41 -259h-759l-53 -339h665l-42 -261h-665l-61 -386h759z" />
    <glyph glyph-name="ecaron" unicode="&#x11b;" horiz-adv-x="1288" 
d="M1080 1580l-381 -409h-219l-247 409h306l92 -151l142 151h307zM403 -24q-187 0 -309.5 94t-160.5 244q-29 109 -8 233q19 127 82 234q86 151 238 245t339 94q89 0 165.5 -21.5t132 -59.5t98 -90t64 -113t30 -127.5t-4.5 -134.5q-3 -19 -10 -57.5t-10 -58.5l-3 -17h-827
q13 -88 70 -145.5t156 -57.5q162 0 270 158l13 20l12 19l229 -149l-11 -13l-43 -55q-27 -30 -51 -53q-92 -89 -211.5 -139t-249.5 -50zM270 692h494q-21 75 -76.5 121t-144.5 46q-88 0 -159 -46.5t-114 -120.5z" />
    <glyph glyph-name="Gcircumflex" unicode="&#x11c;" horiz-adv-x="1596" 
d="M878 1735l-142 -153h-307l379 410h220l253 -410h-309zM599 -24q-251 0 -415 127t-215 330q-39 149 -12 319q27 171 112 318q118 204 321 330.5t455 126.5q181 0 320.5 -71.5t225.5 -198.5q28 -40 59 -109q12 -29 12 -31l3 -13l-281 -135l-12 37q-39 116 -133.5 187.5
t-235.5 71.5q-146 0 -264.5 -73t-191.5 -194q-67 -111 -88 -246q-21 -131 10 -244q36 -121 131.5 -195t240.5 -74q185 0 327 117q5 4 10 9t11.5 10.5t9.5 8.5l31 31l2 2q3 2 6.5 5.5l6.5 6.5l7 6l22 146h-489l41 260h774l-133 -841h-283l11 71q-190 -95 -396 -95z" />
    <glyph glyph-name="gcircumflex" unicode="&#x11d;" horiz-adv-x="1261" 
d="M614 1325l-140 -152h-306l377 409h219l251 -409h-307zM339 -403q-134 0 -243 54t-169 148q-25 39 -53 118l-4 13l273 136l12 -40q48 -170 222 -170q120 0 205 71t101 175l2 13q-129 -66 -279 -66q-101 0 -186.5 30.5t-143.5 83t-96 120.5t-50 145t0 155q16 100 69.5 195
t135 170.5t196.5 121.5t244 46q149 0 258 -68l7 46h282l-157 -992q-15 -98 -67.5 -188.5t-132 -161.5t-190.5 -113t-236 -42zM447 309q127 0 210.5 80.5t101.5 193.5q18 112 -41.5 193t-185.5 81t-209 -80.5t-102 -193.5q-18 -114 40 -194t186 -80z" />
    <glyph glyph-name="Gbreve" unicode="&#x11e;" horiz-adv-x="1596" 
d="M852 1580q-101 0 -171.5 52t-96 126t-13.5 152l8 52h252l-8 -52q-6 -37 12.5 -70t52.5 -33t65 33t37 70l8 52h252l-8 -52q-10 -58 -42 -116t-81.5 -106t-119.5 -78t-147 -30zM599 -24q-251 0 -415 127t-215 330q-39 149 -12 319q27 171 112 318q118 204 321 330.5
t455 126.5q181 0 320.5 -71.5t225.5 -198.5q28 -40 59 -109q12 -29 12 -31l3 -13l-281 -135l-12 37q-39 116 -133.5 187.5t-235.5 71.5q-146 0 -264.5 -73t-191.5 -194q-67 -111 -88 -246q-21 -131 10 -244q36 -121 131.5 -195t240.5 -74q185 0 327 117q5 4 10 9t11.5 10.5
t9.5 8.5l31 31l2 2q3 2 6.5 5.5l6.5 6.5l7 6l22 146h-489l41 260h774l-133 -841h-283l11 71q-190 -95 -396 -95z" />
    <glyph glyph-name="gbreve" unicode="&#x11f;" horiz-adv-x="1261" 
d="M605 1171q-101 0 -171.5 51.5t-96 125t-13.5 152.5l8 51h253l-8 -51q-6 -37 12 -69.5t52 -32.5t64 32.5t36 69.5l8 51h251l-8 -51q-20 -124 -128.5 -226.5t-258.5 -102.5zM339 -403q-138 0 -248 57t-169 154q-26 42 -48 109l-4 13l273 136l12 -40q48 -170 222 -170
q91 0 165.5 44t112.5 118q15 28 23 63q3 13 7 34q-129 -66 -279 -66q-101 0 -186.5 30.5t-143.5 83t-96 120.5t-50 145t0 155q16 100 69.5 195t135 170.5t196.5 121.5t244 46q149 0 258 -68l7 46h282l-157 -992q-15 -98 -67.5 -188.5t-132 -161.5t-190.5 -113t-236 -42z
M447 309q127 0 210.5 80.5t101.5 193.5q18 112 -41.5 193t-185.5 81t-209 -80.5t-102 -193.5q-18 -114 40 -194t186 -80z" />
    <glyph glyph-name="Gdotaccent" unicode="&#x120;" horiz-adv-x="1596" 
d="M854 1580q-84 0 -126 52.5t-31 120.5q10 66 70 118.5t142 52.5t124.5 -52t32.5 -119q-11 -68 -69.5 -120.5t-142.5 -52.5zM599 -24q-251 0 -415 127t-215 330q-39 149 -12 319q27 171 112 318q118 204 321 330.5t455 126.5q221 0 373 -103t232 -275q1 -4 4 -10t5 -11.5
t3 -10.5l3 -13l-281 -135l-6 19q-37 123 -133 200t-242 77t-264.5 -73t-191.5 -194q-67 -111 -88 -246q-21 -131 10 -244q36 -121 131.5 -195t240.5 -74q185 0 327 117q5 4 10 9t11.5 10.5t9.5 8.5l31 31l2 2q3 2 6.5 5.5l6.5 6.5l7 6l22 146h-489l41 260h774l-133 -841
h-283l11 71q-190 -95 -396 -95z" />
    <glyph glyph-name="gdotaccent" unicode="&#x121;" horiz-adv-x="1261" 
d="M601 1171q-83 0 -125 52.5t-31 119.5q10 66 69.5 118t141.5 52q81 0 123.5 -52t32.5 -118q-11 -67 -69.5 -119.5t-141.5 -52.5zM339 -403q-138 0 -248 57t-169 154q-26 42 -48 109l-4 13l273 136l12 -40q48 -170 222 -170q91 0 165.5 44t112.5 118q15 28 23 63q3 13 7 34
q-129 -66 -279 -66q-101 0 -186.5 30.5t-143.5 83t-96 120.5t-50 145t0 155q16 100 69.5 195t135 170.5t196.5 121.5t244 46q149 0 258 -68l7 46h282l-157 -992q-15 -98 -67.5 -188.5t-132 -161.5t-190.5 -113t-236 -42zM447 309q127 0 210.5 80.5t101.5 193.5
q18 112 -41.5 193t-185.5 81t-209 -80.5t-102 -193.5q-18 -114 40 -194t186 -80z" />
    <glyph glyph-name="Itilde" unicode="&#x128;" horiz-adv-x="434" 
d="M368 1580q-74 0 -149 44q-45 28 -46 28q-12 8 -21 10q-5 -10 -7 -17q-3 -7 -6 -15.5t-4.5 -16t-2.5 -9.5l-4 -15h-256l11 54q22 98 99 175.5t195 77.5q75 0 147 -43q11 -6 27 -16t20 -12q15 -8 22 -9q5 10 8 18q10 26 12 40l4 15h255l-11 -52q-10 -45 -32.5 -88.5
t-57.5 -82.5t-87.5 -62.5t-115.5 -23.5zM370 1505l-238 -1505h-301l238 1505h301z" />
    <glyph glyph-name="itilde" unicode="&#x129;" horiz-adv-x="422" 
d="M289 1171q-75 0 -147 45q-9 5 -24.5 15t-21.5 13l-8 4t-7.5 3.5t-4.5 2.5l-3 -6q-3 -7 -4 -11q-3 -8 -6 -16.5t-4.5 -15.5t-2.5 -9l-4 -15h-255l11 53q10 44 33 87t58 81t88 61.5t114 23.5q75 0 147 -44q8 -5 23.5 -14.5t22.5 -13.5q12 -7 20 -9l8 18q10 28 12 41l4 15
h254l-11 -53q-10 -45 -32.5 -88t-57.5 -82t-87.5 -62.5t-114.5 -23.5zM290 1094l-173 -1094h-281l173 1094h281z" />
    <glyph glyph-name="Imacron" unicode="&#x12a;" horiz-adv-x="438" 
d="M550 1821l-38 -241h-563l38 241h563zM372 1505l-238 -1505h-301l238 1505h301z" />
    <glyph glyph-name="imacron" unicode="&#x12b;" horiz-adv-x="422" 
d="M486 1411l-38 -240h-559l38 240h559zM289 1094l-173 -1094h-280l173 1094h280z" />
    <glyph glyph-name="Iogonek" unicode="&#x12e;" horiz-adv-x="448" 
d="M-201 -400q-125 0 -192.5 65.5t-50.5 168.5q15 97 93 169t195 114l219 1388h303l-236 -1490l-14 -4q-128 -35 -169 -51q-62 -22 -93.5 -43.5t-36.5 -58.5q-3 -17 3.5 -23.5t26.5 -6.5q42 0 85 28q8 5 39 29l37 33l23 21l93 -201l-9 -8q-58 -58 -145 -94t-171 -36z" />
    <glyph glyph-name="iogonek" unicode="&#x12f;" horiz-adv-x="427" 
d="M346 1495l-53 -332h-281l53 332h281zM-161 -394q-123 0 -191 66t-51 167q14 87 80 154.5t168 111.5l156 989h281l-173 -1094h-40q-3 0 -10.5 0.5t-10.5 0.5h-6q-1 0 -2 -1l-7 -3q-86 -41 -122 -68q-50 -37 -55 -67q-2 -16 4.5 -22.5t25.5 -6.5q40 0 84 29q17 11 39 29
l37 33l23 21l92 -204l-9 -9l-13 -10q-144 -116 -300 -116z" />
    <glyph glyph-name="Idotaccent" unicode="&#x130;" horiz-adv-x="448" 
d="M230 1580q-84 0 -126 52.5t-31 120.5q10 66 70 118.5t142 52.5t124.5 -52t32.5 -119q-11 -68 -69.5 -120.5t-142.5 -52.5zM377 1505l-238 -1505h-301l238 1505h301z" />
    <glyph glyph-name="dotlessi" unicode="&#x131;" horiz-adv-x="431" 
d="M293 1094l-173 -1094h-281l173 1094h281z" />
    <glyph glyph-name="Omacron" unicode="&#x14c;" horiz-adv-x="1680" 
d="M1203 1821l-38 -241h-562l38 241h562zM599 -24q-249 0 -412.5 125t-216.5 326q-41 147 -13 325q29 178 116 325q116 200 319.5 325t452.5 125q129 0 239 -36t189 -100t131.5 -148.5t76.5 -184.5q33 -148 7 -306q-25 -160 -105 -307q-112 -207 -320.5 -338t-463.5 -131z
M641 239q158 0 281 83t193 217q52 96 70 213q19 117 -2 214q-28 133 -125.5 216t-254.5 83q-153 0 -273.5 -79t-192.5 -208q-59 -103 -78 -226t6 -226q32 -130 127.5 -208.5t248.5 -78.5z" />
    <glyph glyph-name="omacron" unicode="&#x14d;" horiz-adv-x="1288" 
d="M904 1411l-38 -240h-559l38 240h559zM403 -24q-186 0 -307.5 92.5t-161.5 241.5q-30 109 -9 237q13 84 48 165t93 155t133 130t174.5 89.5t210.5 33.5q191 0 314.5 -97t158.5 -251q26 -104 7 -225q-21 -127 -85 -237q-87 -149 -239 -241.5t-337 -92.5zM445 238
q68 0 126.5 27.5t97.5 73t64 99t34 109.5q5 45 4 89t-17.5 84.5t-42.5 71t-69.5 49t-98.5 18.5t-104 -18.5t-85 -49t-64.5 -71t-45 -84.5t-23.5 -89q-5 -45 -3.5 -88.5t18 -83.5t42 -70.5t69 -48.5t98.5 -18z" />
    <glyph glyph-name="Obreve" unicode="&#x14e;" horiz-adv-x="1680" 
d="M849 1580q-101 0 -171.5 52t-96 126t-13.5 152l8 52h252l-8 -52q-6 -37 12.5 -70t52.5 -33t65 33t37 70l8 52h252l-8 -52q-10 -58 -42 -116t-81.5 -106t-119.5 -78t-147 -30zM599 -24q-249 0 -412.5 125t-216.5 326q-41 147 -13 325q29 178 116 325q116 200 319.5 325
t452.5 125q129 0 239 -36t189 -100t131.5 -148.5t76.5 -184.5q33 -148 7 -306q-25 -160 -105 -307q-112 -207 -320.5 -338t-463.5 -131zM641 239q158 0 281 83t193 217q52 96 70 213q19 117 -2 214q-28 133 -125.5 216t-254.5 83q-153 0 -273.5 -79t-192.5 -208
q-59 -103 -78 -226t6 -226q32 -130 127.5 -208.5t248.5 -78.5z" />
    <glyph glyph-name="obreve" unicode="&#x14f;" horiz-adv-x="1288" 
d="M583 1171q-77 0 -136.5 30t-92.5 78t-46 105.5t-4 115.5l8 51h251l-8 -51q-6 -36 12.5 -69t51.5 -33q34 0 64 32.5t36 69.5l8 51h251l-8 -51q-9 -58 -41 -115.5t-80.5 -105.5t-118.5 -78t-147 -30zM403 -24q-186 0 -307.5 92.5t-161.5 241.5q-30 109 -9 237q13 84 48 165
t93 155t133 130t174.5 89.5t210.5 33.5q191 0 314.5 -97t158.5 -251q26 -104 7 -225q-21 -127 -85 -237q-87 -149 -239 -241.5t-337 -92.5zM445 238q68 0 126.5 27.5t97.5 73t64 99t34 109.5q5 45 4 89t-17.5 84.5t-42.5 71t-69.5 49t-98.5 18.5t-104 -18.5t-85 -49
t-64.5 -71t-45 -84.5t-23.5 -89q-5 -45 -3.5 -88.5t18 -83.5t42 -70.5t69 -48.5t98.5 -18z" />
    <glyph glyph-name="Ohungarumlaut" unicode="&#x150;" horiz-adv-x="1680" 
d="M1087 1992l-322 -412h-281l284 412h319zM1470 1992l-321 -412h-281l283 412h319zM599 -24q-249 0 -412.5 125t-216.5 326q-41 147 -13 325q29 178 116 325q116 200 319.5 325t452.5 125q129 0 239 -36t189 -100t131.5 -148.5t76.5 -184.5q33 -148 7 -306
q-25 -160 -105 -307q-112 -207 -320.5 -338t-463.5 -131zM641 239q158 0 281 83t193 217q52 96 70 213q19 117 -2 214q-28 133 -125.5 216t-254.5 83q-153 0 -273.5 -79t-192.5 -208q-59 -103 -78 -226t6 -226q32 -130 127.5 -208.5t248.5 -78.5z" />
    <glyph glyph-name="ohungarumlaut" unicode="&#x151;" horiz-adv-x="1295" 
d="M857 1607l-322 -412h-281l284 412h319zM1240 1607l-322 -412h-281l284 412h319zM403 -24q-186 0 -307.5 92.5t-161.5 241.5q-30 109 -9 237q13 84 48 165t93 155t133 130t174.5 89.5t210.5 33.5q191 0 314.5 -97t158.5 -251q26 -104 7 -225q-21 -127 -85 -237
q-87 -149 -239 -241.5t-337 -92.5zM445 238q68 0 126.5 27.5t97.5 73t64 99t34 109.5q5 45 4 89t-17.5 84.5t-42.5 71t-69.5 49t-98.5 18.5t-104 -18.5t-85 -49t-64.5 -71t-45 -84.5t-23.5 -89q-5 -45 -3.5 -88.5t18 -83.5t42 -70.5t69 -48.5t98.5 -18z" />
    <glyph glyph-name="OE" unicode="&#x152;" horiz-adv-x="2475" 
d="M615 -24q-241 0 -403.5 119t-220.5 311q-47 158 -18 346q31 191 128 346q118 192 318.5 310.5t441.5 118.5q265 0 440 -147l19 125h1062l-41 -259h-759l-53 -339h665l-42 -261h-665l-61 -386h759l-41 -260h-1062l19 123q-222 -147 -486 -147zM657 239q158 0 281 83
t193 217q52 96 70 213q19 117 -2 214q-28 133 -125.5 216t-254.5 83q-153 0 -273.5 -79t-192.5 -208q-59 -103 -78 -226t6 -226q32 -130 127.5 -208.5t248.5 -78.5z" />
    <glyph glyph-name="oe" unicode="&#x153;" horiz-adv-x="2184" 
d="M419 -24q-184 0 -305.5 91t-162.5 238q-31 114 -10 242q21 133 87 244q88 148 237.5 238.5t334.5 90.5q129 0 230 -47t165 -132q91 85 207 132t244 47q185 0 306.5 -91t162.5 -239q32 -111 11 -243q-14 -80 -15 -89l-3 -17h-826q12 -88 69 -145.5t156 -57.5
q89 0 161.5 49t120.5 128l12 21l227 -149l-17 -26q-93 -129 -236 -207t-310 -78q-127 0 -229 47t-166 131q-91 -85 -207 -131.5t-244 -46.5zM461 238q67 0 125 28t97.5 74t65 99.5t34.5 108.5q11 54 0.5 109t-34.5 100t-73.5 73.5t-116.5 28.5q-55 0 -104 -18.5t-85 -49
t-64.5 -71t-45 -84.5t-23.5 -89q-5 -45 -3.5 -88.5t18 -83.5t42 -70.5t69 -48.5t98.5 -18zM1133 692h493q-20 75 -76.5 121t-144.5 46t-158.5 -46.5t-113.5 -120.5z" />
    <glyph glyph-name="Rcaron" unicode="&#x158;" horiz-adv-x="1346" 
d="M1130 1991l-385 -411h-220l-249 411h309l91 -152l144 152h310zM225 535l-85 -535h-302l238 1505h562q169 0 287 -64.5t166.5 -174t26.5 -247.5q-21 -133 -104.5 -246t-225.5 -176l258 -597h-348l-230 535h-243zM597 1246h-260l-71 -450h260q117 0 193 62.5t92 162.5
q15 100 -41 162.5t-173 62.5z" />
    <glyph glyph-name="rcaron" unicode="&#x159;" horiz-adv-x="864" 
d="M862 1580l-382 -409h-219l-247 409h308l90 -151l142 151h308zM269 653l-103 -653h-281l173 1094h281l-2 -14q97 36 194 36q46 0 132 -16l16 -2l-42 -267l-25 5q-4 1 -26.5 6.5t-34.5 7.5q-40 7 -60 7q-93 0 -150.5 -58.5t-71.5 -145.5z" />
    <glyph glyph-name="Sacute" unicode="&#x15a;" horiz-adv-x="1331" 
d="M1083 1991l-321 -411h-280l283 411h318zM473 -24q-185 0 -322.5 84.5t-200.5 225.5q-26 60 -42 148l-2 13l294 115l2 -21q8 -63 28 -115t56 -95.5t94.5 -67.5t134.5 -24q102 0 177 43.5t87 122.5q12 75 -22.5 112.5t-125.5 67.5q-41 13 -124 36.5t-123 36.5
q-174 57 -259 166t-60 266q29 189 197.5 313.5t397.5 124.5q166 0 293 -71.5t191 -194.5q33 -65 48 -148l2 -13l-293 -121l-3 20q-10 58 -27.5 103t-49 83.5t-82 59.5t-118.5 21q-102 0 -172 -44t-82 -123q-20 -129 153 -185q40 -12 118.5 -35t115.5 -34q183 -57 269 -160.5
t60 -267.5q-31 -195 -202.5 -318.5t-407.5 -123.5z" />
    <glyph glyph-name="sacute" unicode="&#x15b;" horiz-adv-x="1080" 
d="M831 1564l-317 -408h-280l280 408h317zM328 -23q-182 0 -297 97.5t-142 246.5l-2 12l269 125l4 -20l10 -39q19 -73 68.5 -117t131.5 -44q57 0 99.5 22.5t48.5 63.5q6 29 -26 49q-21 15 -73 30l-150 44q-136 40 -202.5 123t-46.5 205q23 150 151 245.5t309 95.5
q134 0 232 -57.5t146 -157.5q19 -41 31 -98l5 -26l-273 -119l-2 21l-4 21q-13 71 -56.5 115t-119.5 44q-50 0 -85.5 -19.5t-41.5 -54.5q-5 -31 18 -49.5t70 -35.5q25 -9 78 -25t79 -25q289 -96 252 -330q-24 -152 -160.5 -247.5t-320.5 -95.5z" />
    <glyph glyph-name="Scircumflex" unicode="&#x15c;" horiz-adv-x="1331" 
d="M693 1733l-142 -153h-309l380 411h221l253 -411h-310zM473 -24q-185 0 -322.5 84.5t-200.5 225.5q-26 60 -42 148l-2 13l294 115l2 -21q8 -63 28 -115t56 -95.5t94.5 -67.5t134.5 -24q102 0 177 43.5t87 122.5q12 75 -22.5 112.5t-125.5 67.5q-41 13 -124 36.5t-123 36.5
q-174 57 -259 166t-60 266q29 189 197.5 313.5t397.5 124.5q166 0 293 -71.5t191 -194.5q33 -65 48 -148l2 -13l-293 -121l-3 20q-10 58 -27.5 103t-49 83.5t-82 59.5t-118.5 21q-102 0 -172 -44t-82 -123q-20 -129 153 -185q40 -12 118.5 -35t115.5 -34q183 -57 269 -160.5
t60 -267.5q-31 -195 -202.5 -318.5t-407.5 -123.5z" />
    <glyph glyph-name="scircumflex" unicode="&#x15d;" horiz-adv-x="1080" 
d="M512 1330l-139 -151h-308l377 409h220l252 -409h-309zM328 -23q-182 0 -297 97.5t-142 246.5l-2 12l269 125l4 -20l10 -39q19 -73 68.5 -117t131.5 -44q57 0 99.5 22.5t48.5 63.5q6 29 -26 49q-21 15 -73 30l-150 44q-136 40 -202.5 123t-46.5 205q23 150 151 245.5
t309 95.5q134 0 232 -57.5t146 -157.5q19 -41 31 -98l5 -26l-273 -119l-2 21l-4 21q-13 71 -56.5 115t-119.5 44q-50 0 -85.5 -19.5t-41.5 -54.5q-5 -31 18 -49.5t70 -35.5q25 -9 78 -25t79 -25q289 -96 252 -330q-24 -152 -160.5 -247.5t-320.5 -95.5z" />
    <glyph glyph-name="Scedilla" unicode="&#x15e;" horiz-adv-x="1331" 
d="M402 -380q-82 0 -143 28.5t-115 82.5l-26 27l162 203l15 -23q60 -89 132 -89q34 0 38 29q3 25 -17 51q-22 25 -48 45l-13 9l-26 3l-25 6q-49 9 -88 24q-111 39 -190.5 117t-117.5 177q-16 40 -32 124l-2 13l291 115l12 -60q50 -263 306 -263q102 0 177 43.5t87 122.5
q11 74 -24 113.5t-123 66.5l-248 73q-172 51 -258 164t-61 268q29 189 197.5 313.5t397.5 124.5q210 0 349.5 -108t177.5 -278l4 -28l3 -13l-293 -121l-3 20q-43 267 -277 267q-102 0 -172 -44t-82 -123q-10 -67 31.5 -114t121.5 -71l232 -69q381 -114 331 -428
q-22 -141 -125.5 -251.5t-267.5 -158.5q42 -72 29 -153q-16 -102 -104.5 -168.5t-212.5 -66.5z" />
    <glyph glyph-name="scedilla" unicode="&#x15f;" horiz-adv-x="1080" 
d="M268 -377q-143 0 -255 110l-27 27l159 202l16 -22q31 -42 61 -65.5t71 -23.5q34 0 38 28q7 39 -54 87l-18 13q-5 4 -8 4l-8 2l-24 5q-30 5 -67 17q-109 38 -176.5 123.5t-86.5 190.5l-2 13l270 124l4 -20l10 -39q19 -73 68 -117t131 -44q58 0 100 22.5t48 63.5
q6 30 -26 49q-22 15 -73 30l-150 44q-136 40 -202.5 123t-46.5 205q23 150 151 245.5t309 95.5q171 0 275.5 -87t133.5 -226l5 -26l-273 -119l-6 42q-13 71 -56 115t-120 44q-50 0 -85.5 -19.5t-41.5 -54.5q-5 -31 18 -50t70 -35l157 -50q136 -43 203.5 -125.5t48.5 -204.5
q-16 -98 -84 -177.5t-177 -123.5q51 -73 36 -162q-16 -101 -104.5 -167.5t-211.5 -66.5z" />
    <glyph glyph-name="Scaron" unicode="&#x160;" horiz-adv-x="1331" 
d="M1154 1991l-384 -411h-221l-248 411h307l93 -152l143 152h310zM473 -24q-185 0 -322.5 84.5t-200.5 225.5q-26 60 -42 148l-2 13l294 115l2 -21q8 -63 28 -115t56 -95.5t94.5 -67.5t134.5 -24q102 0 177 43.5t87 122.5q12 75 -22.5 112.5t-125.5 67.5q-41 13 -124 36.5
t-123 36.5q-174 57 -259 166t-60 266q29 189 197.5 313.5t397.5 124.5q166 0 293 -71.5t191 -194.5q33 -65 48 -148l2 -13l-293 -121l-3 20q-10 58 -27.5 103t-49 83.5t-82 59.5t-118.5 21q-102 0 -172 -44t-82 -123q-20 -129 153 -185q40 -12 118.5 -35t115.5 -34
q183 -57 269 -160.5t60 -267.5q-31 -195 -202.5 -318.5t-407.5 -123.5z" />
    <glyph glyph-name="scaron" unicode="&#x161;" horiz-adv-x="1080" 
d="M975 1580l-381 -409h-221l-247 409h308l92 -151l140 151h309zM328 -23q-182 0 -297 97.5t-142 246.5l-2 12l269 125l4 -20l10 -39q19 -73 68.5 -117t131.5 -44q57 0 99.5 22.5t48.5 63.5q6 29 -26 49q-21 15 -73 30l-150 44q-136 40 -202.5 123t-46.5 205
q23 150 151 245.5t309 95.5q134 0 232 -57.5t146 -157.5q19 -41 31 -98l5 -26l-273 -119l-2 21l-4 21q-13 71 -56.5 115t-119.5 44q-50 0 -85.5 -19.5t-41.5 -54.5q-5 -31 18 -49.5t70 -35.5q25 -9 78 -25t79 -25q289 -96 252 -330q-24 -152 -160.5 -247.5t-320.5 -95.5z
" />
    <glyph glyph-name="Utilde" unicode="&#x168;" horiz-adv-x="1307" 
d="M815 1580q-73 0 -148 44q-35 22 -45 28q-6 4 -21 10q-5 -10 -7 -17q-4 -8 -13 -41l-4 -15h-255l11 54q21 99 97.5 176t195.5 77q75 0 147 -43q5 -3 46 -28q7 -4 15 -7l7 -3q5 6 9 18q6 17 10 39l2 17h256l-8 -51q-5 -35 -26 -78q-36 -78 -105 -129t-164 -51zM413 -24
q-181 0 -303 70t-169.5 186.5t-24.5 262.5l160 1010h304l-160 -1010q-16 -107 47.5 -181.5t187.5 -74.5q123 0 211 75.5t104 180.5l160 1010h304l-160 -1010q-17 -108 -70.5 -202.5t-137 -165t-200.5 -111t-253 -40.5z" />
    <glyph glyph-name="utilde" unicode="&#x169;" horiz-adv-x="1090" 
d="M608 1171q-75 0 -147 45q-9 5 -24.5 15t-21.5 13l-19 10q-6 -10 -8 -17q-4 -10 -8 -25l-5 -16l-4 -15h-255l11 53q10 44 33 87t58 81t88 61.5t114 23.5q75 0 147 -44q8 -5 23.5 -14.5t22.5 -13.5q13 -7 20 -9l9 18q10 33 11 41l4 15h254l-11 -53q-10 -45 -32.5 -88
t-57.5 -82t-87.5 -62.5t-114.5 -23.5zM306 -21q-211 0 -322.5 120t-83.5 294l111 701h281l-103 -653q-14 -86 24.5 -144t131.5 -58q94 0 150.5 57.5t70.5 144.5l103 653h283l-173 -1094h-283l2 14q-99 -35 -192 -35z" />
    <glyph glyph-name="Umacron" unicode="&#x16a;" horiz-adv-x="1307" 
d="M987 1821l-38 -241h-562l38 241h562zM413 -24q-181 0 -303 70t-169.5 186.5t-24.5 262.5l160 1010h304l-160 -1010q-16 -107 47.5 -181.5t187.5 -74.5q123 0 211 75.5t104 180.5l160 1010h304l-160 -1010q-17 -108 -70.5 -202.5t-137 -165t-200.5 -111t-253 -40.5z" />
    <glyph glyph-name="umacron" unicode="&#x16b;" horiz-adv-x="1090" 
d="M802 1411l-38 -240h-559l38 240h559zM306 -21q-211 0 -322.5 120t-83.5 294l111 701h281l-103 -653q-14 -86 24.5 -144t131.5 -58q94 0 150.5 57.5t70.5 144.5l103 653h283l-173 -1094h-283l2 14q-99 -35 -192 -35z" />
    <glyph glyph-name="Ubreve" unicode="&#x16c;" horiz-adv-x="1307" 
d="M652 1580q-101 0 -171.5 52t-96 126t-13.5 152l8 52h252l-8 -52q-6 -37 12.5 -70t52.5 -33t65 33t37 70l8 52h252l-8 -52q-10 -58 -42 -116t-81.5 -106t-119.5 -78t-147 -30zM413 -24q-181 0 -303 70t-169.5 186.5t-24.5 262.5l160 1010h304l-160 -1010
q-16 -107 47.5 -181.5t187.5 -74.5q123 0 211 75.5t104 180.5l160 1010h304l-160 -1010q-17 -108 -70.5 -202.5t-137 -165t-200.5 -111t-253 -40.5z" />
    <glyph glyph-name="ubreve" unicode="&#x16d;" horiz-adv-x="1090" 
d="M496 1171q-77 0 -136.5 30t-92.5 78t-46 105.5t-4 115.5l8 51h251l-8 -51q-6 -37 12 -69.5t52 -32.5t64 32.5t36 69.5l8 51h251l-8 -51q-20 -124 -128.5 -226.5t-258.5 -102.5zM306 -21q-211 0 -322.5 120t-83.5 294l111 701h281l-103 -653q-14 -86 24.5 -144t131.5 -58
q94 0 150.5 57.5t70.5 144.5l103 653h283l-173 -1094h-283l2 14q-99 -35 -192 -35z" />
    <glyph glyph-name="Uring" unicode="&#x16e;" horiz-adv-x="1307" 
d="M676 1580q-116 0 -176 74t-45 169t98.5 167.5t199.5 72.5q115 0 177 -73t47 -167q-15 -95 -100 -169t-201 -74zM704 1759q25 0 45 19.5t24 46.5q4 25 -10 41.5t-40 16.5q-25 0 -42.5 -16.5t-21.5 -41.5q-4 -26 9 -46t36 -20zM413 -24q-181 0 -303 70t-169.5 186.5
t-24.5 262.5l160 1010h304l-160 -1010q-16 -107 47.5 -181.5t187.5 -74.5q123 0 211 75.5t104 180.5l160 1010h304l-160 -1010q-17 -108 -70.5 -202.5t-137 -165t-200.5 -111t-253 -40.5z" />
    <glyph glyph-name="uring" unicode="&#x16f;" horiz-adv-x="1090" 
d="M489 1228q-116 0 -176.5 74t-45.5 169t98.5 167.5t199.5 72.5t177.5 -73t46.5 -167q-15 -96 -99.5 -169.5t-200.5 -73.5zM516 1407q26 0 45.5 19.5t23.5 46.5q5 25 -9.5 41.5t-40.5 16.5q-25 0 -42 -16.5t-22 -41.5q-4 -26 9 -46t36 -20zM306 -21q-211 0 -322.5 120
t-83.5 294l111 701h281l-103 -653q-14 -86 24.5 -144t131.5 -58q94 0 150.5 57.5t70.5 144.5l103 653h283l-173 -1094h-283l2 14q-99 -35 -192 -35z" />
    <glyph glyph-name="Uhungarumlaut" unicode="&#x170;" horiz-adv-x="1307" 
d="M918 1992l-322 -412h-281l284 412h319zM1301 1992l-322 -412h-281l284 412h319zM413 -24q-181 0 -303 70t-169.5 186.5t-24.5 262.5l160 1010h304l-160 -1010q-16 -107 47.5 -181.5t187.5 -74.5q123 0 211 75.5t104 180.5l160 1010h304l-160 -1010q-17 -108 -70.5 -202.5
t-137 -165t-200.5 -111t-253 -40.5z" />
    <glyph glyph-name="uhungarumlaut" unicode="&#x171;" horiz-adv-x="1118" 
d="M746 1600l-321 -412h-281l283 412h319zM1129 1600l-321 -412h-281l283 412h319zM306 -21q-211 0 -322.5 120t-83.5 294l111 701h281l-103 -653q-14 -86 24.5 -144t131.5 -58q94 0 150.5 57.5t70.5 144.5l103 653h283l-173 -1094h-283l2 14q-99 -35 -192 -35z" />
    <glyph glyph-name="Uogonek" unicode="&#x172;" horiz-adv-x="1315" 
d="M282 -410q-124 0 -191.5 66t-51.5 168q18 114 125 196q-103 41 -165 117.5t-80.5 166t-2.5 191.5l160 1010h304l-160 -1010q-16 -107 47.5 -181.5t187.5 -74.5q123 0 211 75.5t104 180.5l160 1010h304l-160 -1010q-23 -148 -116 -272.5t-253 -190.5q-59 -25 -128 -39
l-26 -5q-51 -11 -122 -37q-61 -22 -92.5 -44t-36.5 -59q-3 -16 3.5 -22.5t25.5 -6.5q29 0 60.5 14.5t50 29.5t51.5 45l24 21l92 -201l-9 -9l-11 -10q-63 -54 -143 -86.5t-162 -32.5z" />
    <glyph glyph-name="uogonek" unicode="&#x173;" horiz-adv-x="1100" 
d="M518 -397q-123 0 -190.5 65t-50.5 167q12 76 84 148q-24 -4 -55 -4q-211 0 -322.5 120t-83.5 294l111 701h281l-103 -653q-14 -86 24.5 -144t131.5 -58q94 0 150.5 57.5t70.5 144.5l103 653h283l-170 -1078l-15 -4q-41 -11 -91.5 -36t-92.5 -58t-46 -59q-6 -29 28 -29
q68 0 160 90l24 22l92 -206l-10 -8q-76 -60 -150 -92.5t-163 -32.5z" />
    <glyph glyph-name="Wcircumflex" unicode="&#x174;" horiz-adv-x="2162" 
d="M1114 1733l-140 -153h-310l379 411h221l254 -411h-310zM1001 991l-445 -991h-277l-208 1505h309l125 -971l428 971h299l122 -968l431 968h310l-685 -1505h-278z" />
    <glyph glyph-name="wcircumflex" unicode="&#x175;" horiz-adv-x="1784" 
d="M860 1322l-140 -151h-309l379 409h220l250 -409h-309zM752 598l-286 -598h-240l-221 1094h313l103 -596l280 596h255l91 -593l293 593h312l-569 -1094h-238z" />
    <glyph glyph-name="Ycircumflex" unicode="&#x176;" horiz-adv-x="1529" 
d="M793 1733l-139 -153h-310l379 411h221l255 -411h-311zM682 17l-3 -17h-301l59 370l35 221l11 72l3 20l2 3q-15 70 -56 132q-8 13 -24.5 37.5t-30.5 47t-26 45.5l-288 557h341l278 -536l445 536h341l-462 -557q-26 -31 -72 -79t-49 -51q-67 -70 -98 -132q1 -1 0 -3l-3 -20
l-11 -72l-35 -221z" />
    <glyph glyph-name="ycircumflex" unicode="&#x177;" horiz-adv-x="1309" 
d="M621 1322l-139 -151h-309l379 409h218l251 -409h-308zM1177 1094l-871 -1497h-307l270 478l-266 1019h316l169 -650l373 650h316z" />
    <glyph glyph-name="Ydieresis" unicode="&#x178;" horiz-adv-x="1529" 
d="M582 1571q-84 0 -126 52t-32 120q10 66 70 118.5t142 52.5t124.5 -52t32.5 -119q-10 -68 -68.5 -120t-142.5 -52zM1004 1571q-84 0 -126 52t-32 120q10 66 70 118.5t142 52.5t124.5 -52t32.5 -119q-10 -68 -68.5 -120t-142.5 -52zM682 17l-3 -17h-301l59 370l35 221
l11 72l3 20l2 3q-15 70 -56 132q-8 13 -24.5 37.5t-30.5 47t-26 45.5l-288 557h341l278 -536l445 536h341l-462 -557q-26 -31 -72 -79t-49 -51q-67 -70 -98 -132q1 -1 0 -3l-3 -20l-11 -72l-35 -221z" />
    <glyph glyph-name="Zacute" unicode="&#x179;" horiz-adv-x="1323" 
d="M1036 1991l-320 -411h-281l283 411h318zM1052 260l-41 -260h-1173l28 174l922 1072h-704l41 259h1107l-27 -174l-924 -1071h771z" />
    <glyph glyph-name="zacute" unicode="&#x17a;" horiz-adv-x="1052" 
d="M830 1580l-319 -409h-280l282 409h317zM781 259l-41 -259h-902l31 196l607 638h-475l41 260h869l-31 -195l-606 -640h507z" />
    <glyph glyph-name="Zdotaccent" unicode="&#x17b;" horiz-adv-x="1323" 
d="M698 1580q-84 0 -125.5 52.5t-30.5 120.5q10 67 69 119t142 52q81 0 123.5 -52.5t32.5 -118.5q-11 -67 -69.5 -120t-141.5 -53zM1052 260l-41 -260h-1173l28 174l922 1072h-704l41 259h1107l-27 -174l-924 -1071h771z" />
    <glyph glyph-name="zdotaccent" unicode="&#x17c;" horiz-adv-x="1052" 
d="M460 1171q-83 0 -124.5 52.5t-30.5 119.5q10 66 69.5 118t140.5 52q82 0 124 -52t32 -118q-11 -67 -69.5 -119.5t-141.5 -52.5zM781 259l-41 -259h-902l31 196l607 638h-475l41 260h869l-31 -195l-606 -640h507z" />
    <glyph glyph-name="Zcaron" unicode="&#x17d;" horiz-adv-x="1323" 
d="M1195 1991l-383 -411h-223l-248 411h310l92 -152l141 152h311zM1052 260l-41 -260h-1173l28 174l922 1072h-704l41 259h1107l-27 -174l-924 -1071h771z" />
    <glyph glyph-name="zcaron" unicode="&#x17e;" horiz-adv-x="1052" 
d="M959 1580l-383 -409h-219l-247 409h308l90 -151l142 151h309zM781 259l-41 -259h-902l31 196l607 638h-475l41 260h869l-31 -195l-606 -640h507z" />
    <glyph glyph-name="circumflex" unicode="&#x2c6;" horiz-adv-x="929" 
d="M447 1387l-137 -152h-310l377 409h219l253 -409h-309z" />
    <glyph glyph-name="caron" unicode="&#x2c7;" horiz-adv-x="929" 
d="M913 1644l-381 -409h-219l-249 409h310l90 -150l140 150h309z" />
    <glyph glyph-name="breve" unicode="&#x2d8;" horiz-adv-x="748" 
d="M332 1235q-76 0 -136 30.5t-93 78.5t-46.5 106t-4.5 115l8 51h254l-8 -51q-6 -37 11 -70.5t50 -33.5q36 0 66.5 33t36.5 71l8 51h251l-8 -51q-9 -58 -41 -116t-81 -106t-119.5 -78t-147.5 -30z" />
    <glyph glyph-name="dotaccent" unicode="&#x2d9;" horiz-adv-x="447" 
d="M185 1235q-84 0 -126.5 52.5t-31.5 120.5q10 67 69.5 118.5t142.5 51.5q81 0 123 -52t32 -118q-11 -67 -68.5 -120t-140.5 -53z" />
    <glyph glyph-name="ring" unicode="&#x2da;" horiz-adv-x="599" 
d="M260 1235q-115 0 -176 73.5t-46 167.5q15 96 98.5 168t199.5 72q115 0 175.5 -72.5t45.5 -167.5q-15 -94 -98.5 -167.5t-198.5 -73.5zM294 1454q5 0 12.5 6t8.5 16q3 21 -14 21q-18 0 -21 -21q-1 -10 3.5 -16t10.5 -6z" />
    <glyph glyph-name="ogonek" unicode="&#x2db;" horiz-adv-x="662" 
d="M24 -374q-123 0 -191 66t-51 168q14 86 81 153.5t169 112.5q16 7 45.5 17t41.5 14q2 0 6.5 2t7.5 3l8 3l249 -86l-47 -16q-119 -41 -183 -75q-110 -57 -118 -106q-2 -16 4.5 -22t25.5 -6q40 0 77 23.5t82 66.5l23 22l94 -205l-11 -9q-158 -126 -313 -126z" />
    <glyph glyph-name="tilde" unicode="&#x2dc;" horiz-adv-x="791" 
d="M480 1259q-67 0 -142 45q-35 22 -47 29q-19 11 -32 11q-9 0 -17 -17q-6 -11 -9 -22l-5 -20l-5 -16h-218l8 37q21 96 93 168.5t180 72.5q72 0 144 -45l44 -28q20 -11 34 -11q7 0 17 18q4 10 8 23l7 21l4 16h216l-8 -38q-22 -97 -92.5 -170.5t-179.5 -73.5z" />
    <glyph glyph-name="hungarumlaut" unicode="&#x2dd;" horiz-adv-x="887" 
d="M872 1646l-321 -411h-551l282 411h590z" />
    <glyph glyph-name="gravecomb" unicode="&#x300;" 
d="M-211 1577l139 -383h-238l-174 383h273z" />
    <glyph glyph-name="acutecomb" unicode="&#x301;" 
d="M-9 1577l-295 -383h-239l262 383h272z" />
    <glyph glyph-name="uni0302" unicode="&#x302;" 
d="M-441 1363l-153 -169h-263l350 383h199l233 -383h-263z" />
    <glyph glyph-name="tildecomb" unicode="&#x303;" 
d="M-324 1194q-70 0 -143 45q-28 19 -45 29q-22 11 -33 11q-9 0 -17 -17q-2 -3 -3.5 -6.5t-3 -8t-2.5 -6.5l-6 -21l-4 -16h-218l7 36q21 96 93 169t180 73q71 0 143 -45q44 -27 45 -28q20 -11 33 -11q9 0 18 18q8 19 9 22l6 21l5 16h216l-8 -37q-22 -97 -92.5 -170.5
t-179.5 -73.5z" />
    <glyph glyph-name="uni0304" unicode="&#x304;" 
d="M-52 1404l-33 -210h-523l33 210h523z" />
    <glyph glyph-name="uni0306" unicode="&#x306;" 
d="M-406 1194q-93 0 -159.5 48t-92 120t-13.5 150l6 35h214l-6 -35q-7 -45 16.5 -83t65.5 -38q44 0 81 38t44 83l6 35h212l-6 -35q-19 -123 -123.5 -220.5t-244.5 -97.5z" />
    <glyph glyph-name="uni0307" unicode="&#x307;" 
d="M-243 1194q-73 0 -111.5 47.5t-28.5 110.5t64 109.5t126 46.5t110.5 -47t28.5 -109q-10 -63 -63 -110.5t-126 -47.5z" />
    <glyph glyph-name="uni0308" unicode="&#x308;" 
d="M-574 1194q-73 0 -111.5 47.5t-28.5 110.5t64 109.5t126 46.5q62 0 100 -35.5t40 -88.5q20 52 70 88t112 36q70 0 109 -47.5t30 -108.5q-9 -62 -63 -110t-126 -48q-64 0 -101.5 36t-40.5 90q-20 -54 -68.5 -90t-111.5 -36z" />
    <glyph glyph-name="uni030A" unicode="&#x30a;" 
d="M-325 1194q-105 0 -162 69t-42 161q14 91 92.5 158t183.5 67q104 0 162 -67t44 -158q-15 -92 -94 -161t-184 -69zM-295 1383q16 0 29 12t16 29q2 15 -8 26t-25 11q-16 0 -28.5 -10.5t-14.5 -26.5q-3 -17 6 -29t25 -12z" />
    <glyph glyph-name="uni030B" unicode="&#x30b;" 
d="M-294 1579l-295 -385h-239l262 385h272zM-17 1579l-298 -385h-239l264 385h273z" />
    <glyph glyph-name="uni030C" unicode="&#x30c;" 
d="M-14 1577l-355 -383h-199l-228 383h263l99 -169l157 169h263z" />
    <glyph glyph-name="uni0326" unicode="&#x326;" 
d="M-275 6l-322 -455h-208l226 455h304z" />
    <glyph glyph-name="uni0327" unicode="&#x327;" 
d="M-597 -384q-142 0 -244 107l-17 18l133 171l16 -21q57 -77 134 -77q51 0 59 46q8 55 -70 109q-28 20 -75 43l-69 32l-42 19l235 68l12 -6q51 -19 77 -34q79 -43 120 -107t27 -147q-15 -99 -99 -160t-197 -61z" />
    <glyph glyph-name="uni0328" unicode="&#x328;" 
d="M-610 -380q-113 0 -177.5 60.5t-48.5 159.5q13 86 78 150t162 106q28 13 86 31l7 3l8 3l197 -70l-47 -17q-113 -45 -166 -75q-96 -56 -104 -108q-4 -23 8 -34.5t39 -11.5q76 0 156 78l23 22l78 -175l-11 -9q-146 -113 -288 -113z" />
    <glyph glyph-name="uni0335" unicode="&#x335;" 
d="M-153 775l-37 -230h-866l37 230h866z" />
    <glyph glyph-name="uni0336" unicode="&#x336;" 
d="M-161 769l-35 -220h-1371l35 220h1371z" />
    <glyph glyph-name="Wgrave" unicode="&#x1e80;" horiz-adv-x="2162" 
d="M1241 1991l153 -411h-281l-191 411h319zM1001 991l-445 -991h-277l-208 1505h309l125 -971l428 971h299l122 -968l431 968h310l-685 -1505h-278z" />
    <glyph glyph-name="wgrave" unicode="&#x1e81;" horiz-adv-x="1784" 
d="M980 1580l152 -409h-280l-189 409h317zM752 598l-286 -598h-240l-221 1094h313l103 -596l280 596h255l91 -593l293 593h312l-569 -1094h-238z" />
    <glyph glyph-name="Wacute" unicode="&#x1e82;" horiz-adv-x="2162" 
d="M1467 1991l-320 -411h-282l284 411h318zM1001 991l-445 -991h-277l-208 1505h309l125 -971l428 971h299l122 -968l431 968h310l-685 -1505h-278z" />
    <glyph glyph-name="wacute" unicode="&#x1e83;" horiz-adv-x="1784" 
d="M1205 1580l-316 -409h-281l282 409h315zM752 598l-286 -598h-240l-221 1094h313l103 -596l280 596h255l91 -593l293 593h312l-569 -1094h-238z" />
    <glyph glyph-name="Wdieresis" unicode="&#x1e84;" horiz-adv-x="2162" 
d="M885 1571q-84 0 -126 52t-31 120q10 67 69.5 119t141.5 52t124.5 -52t32.5 -119q-11 -68 -69 -120t-142 -52zM1307 1571q-84 0 -126 52t-31 120q10 67 69.5 119t141.5 52t124.5 -52t32.5 -119q-11 -68 -69 -120t-142 -52zM1001 991l-445 -991h-277l-208 1505h309
l125 -971l428 971h299l122 -968l431 968h310l-685 -1505h-278z" />
    <glyph glyph-name="wdieresis" unicode="&#x1e85;" horiz-adv-x="1784" 
d="M629 1165q-84 0 -126.5 52.5t-31.5 120.5q10 66 70 118.5t142 52.5q81 0 123.5 -52t32.5 -119q-11 -68 -68.5 -120.5t-141.5 -52.5zM1051 1165q-84 0 -126.5 52.5t-31.5 120.5q10 66 70 118.5t142 52.5q81 0 123.5 -52t32.5 -119q-11 -68 -68.5 -120.5t-141.5 -52.5z
M752 598l-286 -598h-240l-221 1094h313l103 -596l280 596h255l91 -593l293 593h312l-569 -1094h-238z" />
    <glyph glyph-name="endash" unicode="&#x2013;" horiz-adv-x="1322" 
d="M1005 688l-41 -259h-942l41 259h942z" />
    <glyph glyph-name="emdash" unicode="&#x2014;" horiz-adv-x="1775" 
d="M1458 688l-41 -259h-1395l41 259h1395z" />
    <glyph glyph-name="quoteleft" unicode="&#x2018;" horiz-adv-x="769" 
d="M559 1490l-183 -595h-280l252 595h211z" />
    <glyph glyph-name="quoteright" unicode="&#x2019;" horiz-adv-x="769" 
d="M559 1490l-252 -595h-211l182 595h281z" />
    <glyph glyph-name="quotesinglbase" unicode="&#x201a;" horiz-adv-x="769" 
d="M371 305l-252 -594h-211l182 594h281z" />
    <glyph glyph-name="quotedblleft" unicode="&#x201c;" horiz-adv-x="1102" 
d="M559 1490l-183 -595h-280l252 595h211zM892 1490l-182 -595h-280l252 595h210z" />
    <glyph glyph-name="quotedblright" unicode="&#x201d;" horiz-adv-x="1102" 
d="M559 1490l-252 -595h-211l182 595h281zM892 1490l-252 -595h-210l182 595h280z" />
    <glyph glyph-name="quotedblbase" unicode="&#x201e;" horiz-adv-x="1102" 
d="M371 305l-252 -594h-211l182 594h281zM704 305l-252 -594h-210l182 594h280z" />
    <glyph glyph-name="dagger" unicode="&#x2020;" horiz-adv-x="1568" 
d="M835 857l-192 -1213h-301l192 1213h-434l41 259h434l60 379h301l-60 -379h434l-41 -259h-434z" />
    <glyph glyph-name="daggerdbl" unicode="&#x2021;" horiz-adv-x="1568" 
d="M703 23l-60 -379h-301l60 379h-434l41 258h434l91 576h-434l41 259h434l60 379h301l-60 -379h434l-41 -259h-434l-91 -576h434l-41 -258h-434z" />
    <glyph glyph-name="bullet" unicode="&#x2022;" horiz-adv-x="954" 
d="M322 496q-122 0 -183 78t-46 178q16 98 103 174t206 76t180 -77.5t46 -175.5q-16 -99 -101 -176t-205 -77z" />
    <glyph glyph-name="ellipsis" unicode="&#x2026;" horiz-adv-x="1852" 
d="M328 333l-53 -333h-301l53 333h301zM894 333l-53 -333h-301l53 333h301zM1460 333l-53 -333h-302l53 333h302z" />
    <glyph glyph-name="guilsinglleft" unicode="&#x2039;" horiz-adv-x="995" 
d="M336 558l277 -413h-356l-275 413l406 413h356z" />
    <glyph glyph-name="guilsinglright" unicode="&#x203a;" horiz-adv-x="995" 
d="M718 558l-407 -413h-354l405 413l-274 413h354z" />
    <glyph glyph-name="Euro" unicode="&#x20ac;" horiz-adv-x="1774" 
d="M832 -23q-128 0 -232.5 40t-172.5 109t-110 154.5t-57 184.5h-342l117 259h223l2 15h-244l119 259h198q45 105 113 195.5t160 164.5t213.5 116.5t256.5 42.5q173 0 298 -74.5t187 -204.5q27 -59 42 -132l6 -27l-288 -127l-4 20q-16 78 -36 123q-74 163 -246 163
q-119 0 -219.5 -74.5t-167.5 -185.5h543l-118 -259h-515l-2 -15h536l-118 -259h-400q32 -101 107 -164t193 -63q173 0 298 160q37 48 75 123l10 20l247 -127l-15 -26q-39 -77 -83 -132q-103 -128 -253 -203.5t-321 -75.5z" />
    <glyph glyph-name="trademark" unicode="&#x2122;" horiz-adv-x="2203" 
d="M732 1258v-851h-275v851h-267v237h1002l295 -411l298 411h228v-1088h-274v571l-208 -284h-91l-204 284v-571h-274v851h-230z" />
    <glyph glyph-name="partialdiff" unicode="&#x2202;" horiz-adv-x="1331" 
d="M427 -23q-143 0 -250.5 50.5t-165.5 134t-80 186t-4 212.5q18 112 75 215t145 184t213.5 129.5t268.5 48.5q83 0 158 -13q-46 111 -131.5 179.5t-213.5 68.5q-53 0 -120 -18q-35 -10 -121 -39l-25 -9l-9 255l16 5l30 10q162 56 272 56q99 0 187.5 -29t156 -80t118.5 -111
t89 -131q144 -274 88 -630q-25 -162 -92 -294q-87 -171 -242 -275.5t-363 -104.5zM469 238q64 0 120 26.5t96 68t71.5 95.5t49.5 107t26 104q12 76 9 183q-124 56 -253 56q-154 0 -251.5 -92t-119.5 -228q-12 -79 9.5 -150.5t85 -120.5t157.5 -49z" />
    <glyph glyph-name="summation" unicode="&#x2211;" horiz-adv-x="1267" 
d="M942 259l-41 -259h-987l30 191l447 558l-270 555l30 191h987l-41 -260h-630l236 -486l-391 -490h630z" />
    <glyph glyph-name="minus" unicode="&#x2212;" horiz-adv-x="1422" 
d="M1086 883l-43 -268h-942l43 268h942z" />
    <glyph glyph-name="uni2215" unicode="&#x2215;" horiz-adv-x="1059" 
d="M1064 1495l-936 -1495h-324l937 1495h323z" />
    <glyph glyph-name="uni2219" unicode="&#x2219;" horiz-adv-x="1083" 
d="M375 433q-101 0 -171 48t-96.5 119.5t-14.5 150.5q19 122 126.5 217t254.5 95q100 0 170.5 -48t97 -119t14.5 -149q-12 -79 -61.5 -149.5t-134.5 -117.5t-185 -47z" />
    <glyph glyph-name="radical" unicode="&#x221a;" horiz-adv-x="1730" 
d="M1274 1235l-738 -1235h-239l-224 813h295l111 -420l642 1102h429l-41 -260h-235z" />
    <glyph glyph-name="integral" unicode="&#x222b;" horiz-adv-x="999" 
d="M-69 -366q-82 0 -149 22l-14 4l39 243l23 -4q88 -15 141 -15q61 0 96.5 35.5t44.5 93.5l178 1125q26 158 150.5 268.5t314.5 110.5q34 0 76 -7q6 -1 71 -12l17 -3l-39 -244l-23 3q-92 12 -141 12q-62 0 -98.5 -35.5t-46.5 -92.5l-178 -1125q-25 -158 -148.5 -268.5
t-313.5 -110.5z" />
    <glyph glyph-name="approxequal" unicode="&#x2248;" horiz-adv-x="1569" 
d="M228 753l-121 -102l51 321l6 5q169 146 368 146q99 0 213 -55q61 -28 81 -35q42 -16 83 -16q64 0 132.5 31.5t124.5 78.5l122 103l-51 -321l-8 -5l-6 -7q-66 -65 -162.5 -102t-194.5 -37q-65 0 -116.5 14.5t-112.5 44.5q-46 24 -78.5 35.5t-73.5 11.5q-62 0 -132 -32
t-125 -79zM168 369l-122 -104l51 323l6 4q166 147 368 147q103 0 215 -55q64 -30 81 -36q43 -15 81 -15q64 0 133 31.5t124 78.5q54 46 80 70l43 39l-52 -326l-4 -4q-2 -2 -5 -5.5t-5 -5.5q-15 -15 -52 -41q-137 -96 -305 -96q-69 0 -119.5 15t-115.5 48q-33 16 -49 22.5
t-43 13.5t-54 7q-122 0 -256 -111z" />
    <glyph glyph-name="notequal" unicode="&#x2260;" horiz-adv-x="1422" 
d="M600 395l-82 -183h-296l83 183h-238l42 269h312l76 170h-361l43 269h437l82 183h295l-81 -183h209l-43 -269h-285l-75 -170h333l-42 -269h-409z" />
    <glyph glyph-name="lessequal" unicode="&#x2264;" horiz-adv-x="1353" 
d="M990 259l-41 -259h-1017l41 259h969l-841 512l31 195l1005 514l-48 -303l-597 -309l500 -307l-48 -302h46z" />
    <glyph glyph-name="greaterequal" unicode="&#x2265;" horiz-adv-x="1313" 
d="M990 259l-41 -259h-1017l41 259h49l48 302l593 307l-496 309l48 303l843 -514l-31 -195l-1003 -512h966z" />
    <glyph glyph-name="uniF8FF" unicode="&#xf8ff;" horiz-adv-x="1860" 
d="M1800 1630v-1869h-1740v1869h1740zM321 205h198v344h687v183h-687v491h687v176h-890v-1186q0 -2 1 -3q0 -5 4 -5zM1338 390h-685v-185h888v1194h-203v-334h-685v-190h685v-485zM1037 -26q11 0 29 4q8 6 12 6q9 0 9 9q0 1 1.5 4.5t1.5 5.5t0.5 5.5t0.5 5.5q0 10 -1 14
l-3 8l-9 9q-5 5 -8 5l-10 2q-13 3 -14 4q-8 5 -13 5t-8 4q-3 6 -3 8q0 10 12 10q7 0 10 -1q2 -1 5.5 -2t5.5 -2q3 -2 5.5 -3t4 -1.5t2.5 -0.5q8 -3 10 -4l14 27q-4 4 -26 11q-15 5 -28 5q-14 0 -26 -6q-1 -1 -5.5 -2.5t-5.5 -2.5q-6 -6 -8 -9q-6 -9 -6 -23q0 -4 2 -10
q1 -5 4 -9t7 -7l7 -5q4 -3 11 -3q2 0 6.5 -2t7.5 -2l6 -1q1 0 2 -1t2.5 -2t2.5 -2l7 -5q4 -3 4 -6q0 -9 -5 -10q-10 -2 -13 -2q-9 0 -24 6q-12 5 -23 14l-13 -26q14 -12 29 -16l6 -2q5 -1 9 -2q10 -2 16 -2zM499 -27q33 0 51 18t21 51q2 20 -11 36q-9 12 -10 13
q-10 10 -13 12q-12 8 -38 8q-17 0 -36 -8q-19 -13 -26 -25q-10 -17 -10 -36q0 -21 10 -35q9 -20 25 -27q15 -7 37 -7zM1349 -27q18 0 30 7q16 10 24 19l-20 19q-4 -4 -17 -10q-5 -4 -17 -4q-11 0 -17 5l-7 6q-1 0 -7 9q-4 5 -4 20q0 13 4 20l14 12q6 5 17 5q12 0 17 -5
q13 -4 17 -12l18 23q-1 2 -10 11q-7 7 -11 7q-8 0 -15 3q-9 3 -16 3q-31 0 -50 -18q-20 -19 -20 -51q0 -23 8 -35q11 -17 27 -27q13 -7 35 -7zM419 107h-98v-130h35v47h59v26h-59v31h63v26zM620 107h-31v-130h33v78l60 -78h31v130h-33v-77zM725 81h42v-104h34v104h39v26
h-115v-26zM919 107h-36l-57 -130h35l10 22h57l9 -22h38zM1098 81h40v-104h34v104h41v26h-115v-26zM1260 107h-33v-130h33v130zM1495 107h-36l-58 -130h38l8 22h61l6 -22h37zM500 2q-16 0 -27 12q-10 11 -10 28q0 13 5 20q1 1 2 3t2 3.5t2 2.5l7 5q7 5 19 5q9 0 19 -5
q9 -5 12 -14q0 -1 2 -4.5t2 -5.5v-20q0 -5 -4 -10q-2 -2 -4 -5l-3 -4.5t-2.5 -3t-2.5 -1.5q-18 -6 -19 -6zM901 73l16 -48h-36zM1476 73l17 -48h-36zM1031 -413q-13 0 -17 4q-10 3 -13 12l-2 6q0 1 -1 2q0 1 -1 3l7 2q4 1 8 1l2 -3q9 -13 17 -13q3 0 9 3t6 7q0 5 -3 8
q-2 2 -17 6q-18 4 -20 7q-8 13 -5 22q5 13 19 16q0 3 13 2q14 -2 20 -9q7 -3 7 -15v-3h-16v3q-5 11 -13 11q-1 0 -2 -1h-3q-9 -5 -9 -11l17 -6q16 -6 23 -13t7 -14q0 -4 -9 -18q-4 -6 -11 -8q-4 -1 -13 -1zM635 -414q-24 0 -33 22q-4 10 -4 20q0 15 3 22q1 3 10 12q5 5 13 8
q6 2 14 2q30 0 36 -29q3 -15 0 -27t-14 -22q-9 -8 -25 -8zM1281 -413q-24 0 -38 27q-3 7 -2 15l2 14q6 21 26 27q2 0 4 1t6 1q15 0 25 -10q5 -5 6 -8l2 -6l-8 -3l-6 -2q-3 0 -4 4q-4 11 -15 11q-9 0 -15 -8q-6 -7 -6 -16q0 -1 0.5 -5t0.5 -7q0 -5 3 -10q4 -11 16 -11
q11 0 16 13l2 5l8 -2q8 -3 8 -4l-2 -6q-11 -20 -29 -20zM1540 -413q-12 0 -20 6q-8 5 -12 14q-10 19 0 45q1 3 5 6.5t5 4.5q4 5 12 7q2 2 13 2q1 0 13 -3q2 -1 10 -8q5 -5 7 -9l1 -4q-2 -2 -9 -3l-8 -2q-1 1 -2 4q-4 9 -14 9q-12 0 -16 -9q-4 -10 -4 -19q0 -11 4 -19
q5 -8 16 -8t16 13q0 3 2 3v2l9 -3l5 -2v-3q0 -2 -2 -6l-3 -7q-11 -11 -28 -11zM112 -377l-8 -36h-9l-9 2l-19 79q0 2 8 2h9l11 -53q2 1 2 5q0 9 5 19q7 15 7 24l2 5h18l8 -27l6 -26q1 0 3 9l3 17q2 4 4 12.5t3 12.5q0 2 7 2q10 0 10 -2q-4 -10 -8 -32q-1 -5 -3.5 -13.5
t-3.5 -12.5l-4 -18v-5h-18v5l-4 10l-6 20l-6 25zM241 -381l-8 -32h-15q-2 2 -4 2l-3 12l-6 28l-6 27l-3 12q0 2 8 2h8q1 0 1 -2q1 -2 1 -7q4 -9 4 -18l6 -26l14 53h20q2 0 2 -2l7 -27l5 -27l13 54q0 2 7 2q9 0 9 -2q0 -1 -0.5 -4.5t-0.5 -5.5l-3 -15q-2 -10 -5 -15l-11 -41
h-7l-9 2l-9 30q0 1 -1 5.5t-1 5.5q0 2 -4 9q0 6 -1 9q-2 -6 -2 -9q-3 -6 -3 -9q0 -8 -3 -11zM377 -353l-15 -58l-10 -2q-8 0 -9 4l-2 12q-1 6 -7 27q-2 6 -4 16t-2 12l-3 12h16l5 -27l8 -26l3 9l11 44h19l8 -27q3 -24 8 -27q0 4 1 7q-1 2 3 20l6 27h8q9 0 9 -2q0 -1 -1 -4.5
t-1 -5.5q0 -3 -2 -15q0 -3 -2 -8t-3 -7l-11 -39l-7 -2h-10l-8 32l-5 21zM526 -393l-1 -18h-15v79q0 2 4 2h52v-14h-40v-19h33v-14h-33v-16zM727 -359v-54h-16v83h16l32 -53v53h15v-81l-7 -2h-8zM849 -344v-69h-17v69h-23v14h65v-14h-25zM907 -411l-8 -2h-7q0 2 -2 2l3 9
l9 22l11 26q1 2 3.5 10t4.5 12q0 2 7 2h9l33 -81q-2 0 -2 -2h-5l-11 2l-6 19h-32zM1135 -344v-69h-17v69h-25v14h65v-14h-23zM1206 -330v-83h-15v83h15zM1358 -411l-9 -2h-6l-2 2q2 3 4 9l7 22q5 14 10 26q2 4 5 11.5t4 10.5q0 2 9 2h9l32 -81q-2 0 -2 -2h-7l-9 2l-7 19h-31
zM1646 -413q-21 0 -30 12q-10 13 -10 29q0 7 8 25q6 14 19 17q17 0 37 -6q14 -4 14 -34q0 -20 -8 -31q-9 -12 -30 -12zM1735 -411l-8 -2h-7v83h25l6 -27l5 -18q2 -6 2 -8l7 24q2 6 4 12.5t3 10t1 4.5v2h26v-83h-17v63l-6 -28l-6 -21l-2 -10v-4h-10l-7 2l-6 30l-10 29v-59z
M637 -399q20 0 20 16v24q0 3 -10 13q-4 4 -9 4q-10 0 -18 -8q-2 -2 -4 -8q-1 -3 -1 -14q0 -12 7 -20q5 -7 15 -7zM1646 -399q7 0 10 4q11 5 11 23q0 21 -11 26q-2 1 -4 3q-1 1 -5 1q-15 0 -18 -9t-3 -21q0 -16 2 -19q5 -8 18 -8zM1377 -358l-8 -20h22l-5 14q-3 6 -3 7
q0 2 -1 3l-1 2zM930 -352l-5 -6l-6 -20h20q-2 5 -4 14q-3 6 -3 7q0 2 -1 3zM471 -395v-16h-16v16h16zM1468 -403l-1 -8h-14v16h15v-8z" />
    <glyph glyph-name="G.ss01" horiz-adv-x="1632" 
d="M615 -24q-241 0 -403 118.5t-221 311.5q-47 158 -18 346q31 192 128 346q120 193 319 311t441 118q176 0 314 -68t224 -189q32 -44 67 -122q12 -29 12 -31l3 -13l-279 -135l-14 37q-17 51 -39 86q-50 81 -135 127t-195 46q-157 0 -280.5 -83t-193.5 -216
q-51 -95 -70 -214q-18 -120 2 -213q29 -133 126.5 -216.5t253.5 -83.5q95 0 184.5 34t158.5 96q13 11 53 51l13 13l9 11l2 7l3 17q1 5 2 12.5t1.5 13t1.5 8.5l13 78h-447l41 260h739l-70 -440q-1 -10 -13 -30q-8 -15 -24 -36q-24 -35 -43 -57q-42 -51 -92 -95
q-236 -206 -574 -206z" />
    <glyph glyph-name="Q.ss01" horiz-adv-x="1710" 
d="M1269 -118l-41 -260h-271q-208 0 -337 99.5t-140 268.5q-199 33 -326.5 154t-170.5 292q-37 149 -10 316q27 171 114 321q117 202 320 328t454 126t415.5 -126t216.5 -328q38 -146 11 -321q-27 -168 -110 -317q-94 -166 -254 -285t-362 -157q23 -55 81.5 -83t138.5 -28
h271zM657 239q158 0 281 83t193 217q52 96 70 213q19 117 -2 214q-28 133 -125.5 216t-254.5 83q-153 0 -273.5 -79t-192.5 -208q-59 -103 -78 -226t6 -226q32 -130 127.5 -208.5t248.5 -78.5z" />
    <glyph glyph-name="g.001" horiz-adv-x="1292" 
d="M355 -403q-138 0 -248 57t-169 154q-26 42 -48 109l-4 13l273 136l12 -40q48 -170 222 -170q91 0 165.5 44t112.5 118q15 28 23 63q3 13 7 34q-129 -66 -279 -66q-101 0 -186.5 30.5t-143.5 83t-96 120.5t-50 145t0 155q16 100 69.5 195t135 170.5t196.5 121.5t244 46
q149 0 258 -68l7 46h282l-157 -992q-15 -98 -67.5 -188.5t-132 -161.5t-190.5 -113t-236 -42zM463 309q127 0 210.5 80.5t101.5 193.5q18 112 -41.5 193t-185.5 81t-209 -80.5t-102 -193.5q-18 -114 40 -194t186 -80z" />
    <glyph glyph-name="uni030C.alt" 
d="M-40 1495l-134 -556h-239l41 556h332z" />
    <glyph glyph-name="uni0335.alt" 
d="M-152 788l-40 -249h-709l40 249h709z" />
    <glyph glyph-name="_FSHallmark" horiz-adv-x="1728" 
d="M1668 1375v-190h-1604v190h1604zM1322 287q-75 0 -132 18q-98 25 -161 98.5t-63 173.5l186 -4q0 -8 12 -32q3 -25 26.5 -49t47.5 -31q33 -20 92 -20q67 0 104 22q34 20 34 52q0 59 -152 88q-134 39 -234 88q-96 48 -96 158q0 86 55 137.5t149 86.5q2 0 52 7t80 7
q75 0 180 -38q68 -24 109 -85.5t41 -134.5h-192q0 42 -50 78q-5 1 -20.5 9t-25.5 9q-7 1 -22.5 5.5t-23.5 4.5q-44 0 -90 -28q-38 -23 -38 -58q0 -63 36 -78q2 -1 20 -9t32.5 -12.5t29.5 -6.5l72 -20l58 -14q7 -1 27 -6.5t31 -5.5q37 -9 44 -14l40 -18q38 -24 62 -52
q22 -51 24 -88q3 -41 -20 -94q-80 -144 -324 -144zM274 545v-258h-210v798h674v-180h-464v-182h388v-178h-388zM816 291q-32 0 -62 30q-34 28 -34 64t30 66q26 26 66 26q47 0 78 -28q32 -29 32 -64q0 -38 -32 -70q-36 -24 -78 -24zM1666 189v-190h-1606v190h1606z" />
    <glyph glyph-name="_Fontastica" horiz-adv-x="1338" 
d="M262 536v-340h-196q-3 0 -4.5 2t-1.5 4v2v1178h884v-174h-682v-490h682v-182h-682zM1278 1382v-1186h-884v184h682v482h-682v188h682v332h202zM252 2q-9 0 -36 8q-15 4 -25.5 22.5t-10.5 35.5q0 28 21.5 47t50.5 19q21 0 32.5 -7.5t25.5 -26.5q10 -13 10 -32
q0 -28 -20 -47t-48 -19zM770 2q-35 0 -60 20l14 26q20 -20 46 -20q16 0 16 12q0 1 -2 3.5t-2 4.5l-6 4q-6 0 -14 4q-5 3 -13 3.5t-11 2.5q-20 13 -20 34q0 38 52 38q24 0 52 -14l-14 -28q-16 16 -50 16q-2 0 -2 -2l-2 -8q0 -1 1 -3t1 -3q0 -2 1.5 -3.5l2.5 -2.5h2
q3 0 7.5 -2t6.5 -2q15 0 30.5 -12.5t15.5 -27.5q0 -19 -16 -29.5t-36 -10.5zM1068 2q-18 0 -34 8q-15 7 -24.5 24t-9.5 34q0 14 10.5 33.5t23.5 24.5q20 8 34 8q18 0 30 -6t22 -16l-20 -24q-3 5 -13.5 11.5t-16.5 6.5q-18 0 -30 -18q-4 -6 -4 -20q0 -24 16 -32q12 -6 18 -6
q5 0 16.5 6t13.5 10l20 -20q-18 -24 -52 -24zM112 50v-46h-34v128h96v-26h-62v-30h58v-26h-58zM368 80v-76h-32v128h30l58 -78v78h32v-128h-30zM542 104v-100h-34v100h-38v28h108v-28h-36zM608 28l-8 -24h-34l54 128h34l54 -128h-36l-8 24h-56zM898 104v-100h-32v100h-38v28
h108v-28h-38zM984 132v-128h-34v128h34zM1164 28l-10 -24h-34l56 128h34l54 -128h-36l-10 24h-54zM252 28q14 0 24 12.5t10 27.5q0 13 -10.5 25.5t-23.5 12.5q-8 0 -20 -6q-16 -8 -16 -32q0 -17 9.5 -28.5t26.5 -11.5zM654 52l-18 46l-18 -46h36zM1208 52l-18 46l-16 -46h34
z" />
    <glyph glyph-name="_www.fontastica.com" horiz-adv-x="3906" 
d="M132 627v-120h-68l-4 2v418h316v-62h-244v-174h244v-64h-244zM494 927v-420h-316v64h244v172h-244v66h244v118h72zM2500 541q-41 0 -86.5 15.5t-75.5 40.5l36 72q22 -19 61 -36.5t65 -17.5q16 0 32 8q14 7 14 22t-10 20q-18 12 -58 24q-55 17 -62 20q-26 11 -40 30
q-14 20 -14 56q0 53 40.5 80.5t97.5 27.5q74 0 140 -40l-34 -72q-70 36 -114 36q-36 0 -36 -24q0 -27 66 -44q45 -10 62 -20q28 -16 40 -32q16 -22 16 -58q0 -54 -41 -81t-99 -27zM1086 539q-79 0 -133.5 51.5t-54.5 130.5t54 129.5t134 50.5t134 -50.5t54 -129.5
t-53.5 -130.5t-134.5 -51.5zM3312 539q-77 0 -129.5 52.5t-52.5 129.5q0 78 53.5 129t132.5 51q86 0 140 -60l-52 -64q-34 46 -86 46q-43 0 -69.5 -28.5t-26.5 -71.5q0 -33 12 -52q31 -50 84 -50q46 0 86 40l54 -56q-66 -66 -146 -66zM708 671v-124h-90v348h260v-72h-170
v-78h156v-74h-156zM1406 755v-208h-86v348h80l160 -210l-2 210h86v-348h-80zM1876 821v-274h-90v274h-104v74h300v-74h-106zM2062 607l-24 -60h-94l150 348h94l146 -348h-96l-24 60h-152zM2852 821v-274h-92v274h-104v74h300v-74h-104zM3084 895v-348h-90v348h90zM3574 607
l-24 -60h-94l150 348h94l146 -348h-98l-22 60h-152zM1088 617q40 0 67 31.5t27 72.5q0 15 -14 52q-19 50 -80 50q-43 0 -69.5 -29t-26.5 -73q0 -42 27 -73t69 -31zM2186 677l-46 126l-50 -126h96zM3698 677l-48 126l-48 -126h96z" />
    </font>
</defs>
</svg>
