<svg width="13" height="16" viewBox="0 0 13 16" fill="none" xmlns="http://www.w3.org/2000/svg">
<path d="M10.7084 15.0348C9.89178 15.8264 9.00012 15.7014 8.14178 15.3264C7.23345 14.9431 6.40012 14.9264 5.44178 15.3264C4.24178 15.8431 3.60845 15.6931 2.89178 15.0348C-1.17488 10.8431 -0.574883 4.45977 4.04178 4.22643C5.16678 4.28477 5.95012 4.8431 6.60845 4.8931C7.59178 4.6931 8.53345 4.1181 9.58345 4.1931C10.8418 4.2931 11.7918 4.7931 12.4168 5.6931C9.81678 7.25143 10.4334 10.6764 12.8168 11.6348C12.3418 12.8848 11.7251 14.1264 10.7001 15.0431L10.7084 15.0348ZM6.52512 4.17643C6.40012 2.3181 7.90845 0.784766 9.64178 0.634766C9.88345 2.78477 7.69178 4.38477 6.52512 4.17643Z" fill="white"/>
</svg>
